# spoke_front_21
v 0.9781072836014219 10.16696376867898 -16.831995234137537
v 1.0558077872418563 10.161060214044552 -16.827821847304918
v 1.1250120669383974 10.139148713824014 -16.799181116890622
v 1.175184377145066 10.104565077575646 -16.750433306670445
v 1.1986864659610643 10.062574365197854 -16.68899985262264
v 1.191940329218713 10.019569276262189 -16.624233431186507
v 1.1559730312065475 9.982096941663148 -16.565994138416958
v 1.0962602340593797 9.955862197409429 -16.523148395808164
v 1.0218926978072718 9.944859029425098 -16.502219056901893
v 0.9441921941668372 9.950762584059527 -16.506392443734512
v 0.8749879144702961 9.972674084280065 -16.535033174148808
v 0.8248156042636273 10.007257720528433 -16.583780984368985
v 0.8013135154476293 10.049248432906225 -16.64521443841679
v 0.8080596521899807 10.09225352184189 -16.709980859852923
v 0.844026950202146 10.129725856440931 -16.768220152622472
v 0.9037397473493138 10.15596060069465 -16.811065895231266
v 0.9781072836014219 10.16696376867898 -16.831995234137537
v 1.9781073021927282 35.11105260149855 -0.16488793368617571
v 2.0558078058331626 35.10514904686412 -0.16071454685355313
v 2.125012085529704 35.08323754664358 -0.13207381643925942
v 2.175184395736373 35.04865391039522 -0.0833260062190817
v 2.1986864845523706 35.00666319801742 -0.021892552171276947
v 2.1919403478100192 34.963658109081756 0.04287386926485581
v 2.155973049797854 34.92618577448272 0.10111316203440524
v 2.096260252650686 34.899951030229 0.14395890464320082
v 2.021892716398578 34.88894786224466 0.16488824354947162
v 1.9441922127581437 34.89485141687909 0.16071485671684904
v 1.8749879330616026 34.91676291709963 0.13207412630255533
v 1.824815622854934 34.951346553348 0.08332631608237762
v 1.8013135340389357 34.99333726572579 0.021892862034572858
v 1.808059670781287 35.03634235466146 -0.0428735594015599
v 1.8440269687934525 35.0738146892605 -0.10111285217110932
v 1.9037397659406203 35.100049433514215 -0.1439585947799049
v 1.9781073021927282 35.11105260149855 -0.16488793368617571
v 0.9999999907043468 10.05591139905204 -16.667107145519715
v 0.9999999907043468 10.05591139905204 -16.667107145519715
v 0.9999999907043468 10.05591139905204 -16.667107145519715
v 0.9999999907043468 10.05591139905204 -16.667107145519715
v 0.9999999907043468 10.05591139905204 -16.667107145519715
v 0.9999999907043468 10.05591139905204 -16.667107145519715
v 0.9999999907043468 10.05591139905204 -16.667107145519715
v 0.9999999907043468 10.05591139905204 -16.667107145519715
v 0.9999999907043468 10.05591139905204 -16.667107145519715
v 0.9999999907043468 10.05591139905204 -16.667107145519715
v 0.9999999907043468 10.05591139905204 -16.667107145519715
v 0.9999999907043468 10.05591139905204 -16.667107145519715
v 0.9999999907043468 10.05591139905204 -16.667107145519715
v 0.9999999907043468 10.05591139905204 -16.667107145519715
v 0.9999999907043468 10.05591139905204 -16.667107145519715
v 0.9999999907043468 10.05591139905204 -16.667107145519715
v 0.9781072836014219 10.16696376867898 -16.831995234137537
v 1.0558077872418563 10.161060214044552 -16.827821847304918
v 1.1250120669383974 10.139148713824014 -16.799181116890622
v 1.175184377145066 10.104565077575646 -16.750433306670445
v 1.1986864659610643 10.062574365197854 -16.68899985262264
v 1.191940329218713 10.019569276262189 -16.624233431186507
v 1.1559730312065475 9.982096941663148 -16.565994138416958
v 1.0962602340593797 9.955862197409429 -16.523148395808164
v 1.0218926978072718 9.944859029425098 -16.502219056901893
v 0.9441921941668372 9.950762584059527 -16.506392443734512
v 0.8749879144702961 9.972674084280065 -16.535033174148808
v 0.8248156042636273 10.007257720528433 -16.583780984368985
v 0.8013135154476293 10.049248432906225 -16.64521443841679
v 0.8080596521899807 10.09225352184189 -16.709980859852923
v 0.844026950202146 10.129725856440931 -16.768220152622472
v 0.9037397473493138 10.15596060069465 -16.811065895231266
v 0.9781072836014219 10.16696376867898 -16.831995234137537
v 2.000000009295653 35.00000023187161 1.5493164795543635e-7
v 2.000000009295653 35.00000023187161 1.5493164795543635e-7
v 2.000000009295653 35.00000023187161 1.5493164795543635e-7
v 2.000000009295653 35.00000023187161 1.5493164795543635e-7
v 2.000000009295653 35.00000023187161 1.5493164795543635e-7
v 2.000000009295653 35.00000023187161 1.5493164795543635e-7
v 2.000000009295653 35.00000023187161 1.5493164795543635e-7
v 2.000000009295653 35.00000023187161 1.5493164795543635e-7
v 2.000000009295653 35.00000023187161 1.5493164795543635e-7
v 2.000000009295653 35.00000023187161 1.5493164795543635e-7
v 2.000000009295653 35.00000023187161 1.5493164795543635e-7
v 2.000000009295653 35.00000023187161 1.5493164795543635e-7
v 2.000000009295653 35.00000023187161 1.5493164795543635e-7
v 2.000000009295653 35.00000023187161 1.5493164795543635e-7
v 2.000000009295653 35.00000023187161 1.5493164795543635e-7
v 2.000000009295653 35.00000023187161 1.5493164795543635e-7
v 1.9781073021927282 35.11105260149855 -0.16488793368617571
v 2.0558078058331626 35.10514904686412 -0.16071454685355313
v 2.125012085529704 35.08323754664358 -0.13207381643925942
v 2.175184395736373 35.04865391039522 -0.0833260062190817
v 2.1986864845523706 35.00666319801742 -0.021892552171276947
v 2.1919403478100192 34.963658109081756 0.04287386926485581
v 2.155973049797854 34.92618577448272 0.10111316203440524
v 2.096260252650686 34.899951030229 0.14395890464320082
v 2.021892716398578 34.88894786224466 0.16488824354947162
v 1.9441922127581437 34.89485141687909 0.16071485671684904
v 1.8749879330616026 34.91676291709963 0.13207412630255533
v 1.824815622854934 34.951346553348 0.08332631608237762
v 1.8013135340389357 34.99333726572579 0.021892862034572858
v 1.808059670781287 35.03634235466146 -0.0428735594015599
v 1.8440269687934525 35.0738146892605 -0.10111285217110932
v 1.9037397659406203 35.100049433514215 -0.1439585947799049
v 1.9781073021927282 35.11105260149855 -0.16488793368617571
vn -0.10946353388349077 0.5552618398606632 -0.8244404308040025
vn 0.2790389922808593 0.5257440816902448 -0.8035735195702779
vn 0.6250603523512197 0.416186554671171 -0.6603698264075285
vn 0.8759219423941074 0.24326839906309744 -0.41663081601078394
vn 0.9934323614802915 0.03331483023263851 -0.10946353388349082
vn 0.959701705152936 -0.18171061963066293 0.21436857941402593
vn 0.7798651665545392 -0.36907226992801645 0.5055650122042089
vn 0.4813012288776172 -0.5002460142131626 0.7197937568114492
vn 0.1094635338834909 -0.5552618398606632 0.8244404308040025
vn -0.2790389922808593 -0.5257440816902448 0.8035735195702779
vn -0.6250603523512197 -0.416186554671171 0.6603698264075285
vn -0.8759219423941074 -0.24326839906309744 0.41663081601078394
vn -0.9934323614802915 -0.03331483023263858 0.10946353388349092
vn -0.959701705152936 0.18171061963066293 -0.21436857941402593
vn -0.7798651665545392 0.36907226992801645 -0.5055650122042089
vn -0.4813012288776172 0.5002460142131626 -0.7197937568114492
vn -0.10946353388349102 0.5552618398606632 -0.8244404308040025
vn -0.10946353388349077 0.5552618398606632 -0.8244404308040025
vn 0.2790389922808593 0.5257440816902448 -0.8035735195702779
vn 0.6250603523512197 0.416186554671171 -0.6603698264075285
vn 0.8759219423941074 0.24326839906309744 -0.41663081601078394
vn 0.9934323614802915 0.03331483023263851 -0.10946353388349082
vn 0.959701705152936 -0.18171061963066293 0.21436857941402593
vn 0.7798651665545392 -0.36907226992801645 0.5055650122042089
vn 0.4813012288776172 -0.5002460142131626 0.7197937568114492
vn 0.1094635338834909 -0.5552618398606632 0.8244404308040025
vn -0.2790389922808593 -0.5257440816902448 0.8035735195702779
vn -0.6250603523512197 -0.416186554671171 0.6603698264075285
vn -0.8759219423941074 -0.24326839906309744 0.41663081601078394
vn -0.9934323614802915 -0.03331483023263858 0.10946353388349092
vn -0.959701705152936 0.18171061963066293 -0.21436857941402593
vn -0.7798651665545392 0.36907226992801645 -0.5055650122042089
vn -0.4813012288776172 0.5002460142131626 -0.7197937568114492
vn -0.10946353388349102 0.5552618398606632 -0.8244404308040025
vn -0.033314830232638475 -0.8310080693237111 -0.5552618398606632
vn -0.033314830232638475 -0.8310080693237111 -0.5552618398606632
vn -0.033314830232638475 -0.8310080693237111 -0.5552618398606632
vn -0.033314830232638475 -0.8310080693237111 -0.5552618398606632
vn -0.033314830232638475 -0.8310080693237111 -0.5552618398606632
vn -0.033314830232638475 -0.8310080693237111 -0.5552618398606632
vn -0.033314830232638475 -0.8310080693237111 -0.5552618398606632
vn -0.033314830232638475 -0.8310080693237111 -0.5552618398606632
vn -0.033314830232638475 -0.8310080693237111 -0.5552618398606632
vn -0.033314830232638475 -0.8310080693237111 -0.5552618398606632
vn -0.033314830232638475 -0.8310080693237111 -0.5552618398606632
vn -0.033314830232638475 -0.8310080693237111 -0.5552618398606632
vn -0.033314830232638475 -0.8310080693237111 -0.5552618398606632
vn -0.033314830232638475 -0.8310080693237111 -0.5552618398606632
vn -0.033314830232638475 -0.8310080693237111 -0.5552618398606632
vn -0.033314830232638475 -0.8310080693237111 -0.5552618398606632
vn -0.033314830232638475 -0.8310080693237111 -0.5552618398606632
vn -0.033314830232638475 -0.8310080693237111 -0.5552618398606632
vn -0.033314830232638475 -0.8310080693237111 -0.5552618398606632
vn -0.033314830232638475 -0.8310080693237111 -0.5552618398606632
vn -0.033314830232638475 -0.8310080693237111 -0.5552618398606632
vn -0.033314830232638475 -0.8310080693237111 -0.5552618398606632
vn -0.033314830232638475 -0.8310080693237111 -0.5552618398606632
vn -0.033314830232638475 -0.8310080693237111 -0.5552618398606632
vn -0.033314830232638475 -0.8310080693237111 -0.5552618398606632
vn -0.033314830232638475 -0.8310080693237111 -0.5552618398606632
vn -0.033314830232638475 -0.8310080693237111 -0.5552618398606632
vn -0.033314830232638475 -0.8310080693237111 -0.5552618398606632
vn -0.033314830232638475 -0.8310080693237111 -0.5552618398606632
vn -0.033314830232638475 -0.8310080693237111 -0.5552618398606632
vn -0.033314830232638475 -0.8310080693237111 -0.5552618398606632
vn -0.033314830232638475 -0.8310080693237111 -0.5552618398606632
vn -0.033314830232638475 -0.8310080693237111 -0.5552618398606632
vn 0.033314830232638475 0.8310080693237111 0.5552618398606632
vn 0.033314830232638475 0.8310080693237111 0.5552618398606632
vn 0.033314830232638475 0.8310080693237111 0.5552618398606632
vn 0.033314830232638475 0.8310080693237111 0.5552618398606632
vn 0.033314830232638475 0.8310080693237111 0.5552618398606632
vn 0.033314830232638475 0.8310080693237111 0.5552618398606632
vn 0.033314830232638475 0.8310080693237111 0.5552618398606632
vn 0.033314830232638475 0.8310080693237111 0.5552618398606632
vn 0.033314830232638475 0.8310080693237111 0.5552618398606632
vn 0.033314830232638475 0.8310080693237111 0.5552618398606632
vn 0.033314830232638475 0.8310080693237111 0.5552618398606632
vn 0.033314830232638475 0.8310080693237111 0.5552618398606632
vn 0.033314830232638475 0.8310080693237111 0.5552618398606632
vn 0.033314830232638475 0.8310080693237111 0.5552618398606632
vn 0.033314830232638475 0.8310080693237111 0.5552618398606632
vn 0.033314830232638475 0.8310080693237111 0.5552618398606632
vn 0.033314830232638475 0.8310080693237111 0.5552618398606632
vn 0.033314830232638475 0.8310080693237111 0.5552618398606632
vn 0.033314830232638475 0.8310080693237111 0.5552618398606632
vn 0.033314830232638475 0.8310080693237111 0.5552618398606632
vn 0.033314830232638475 0.8310080693237111 0.5552618398606632
vn 0.033314830232638475 0.8310080693237111 0.5552618398606632
vn 0.033314830232638475 0.8310080693237111 0.5552618398606632
vn 0.033314830232638475 0.8310080693237111 0.5552618398606632
vn 0.033314830232638475 0.8310080693237111 0.5552618398606632
vn 0.033314830232638475 0.8310080693237111 0.5552618398606632
vn 0.033314830232638475 0.8310080693237111 0.5552618398606632
vn 0.033314830232638475 0.8310080693237111 0.5552618398606632
vn 0.033314830232638475 0.8310080693237111 0.5552618398606632
vn 0.033314830232638475 0.8310080693237111 0.5552618398606632
vn 0.033314830232638475 0.8310080693237111 0.5552618398606632
vn 0.033314830232638475 0.8310080693237111 0.5552618398606632
vn 0.033314830232638475 0.8310080693237111 0.5552618398606632
f 1//1 18//18 2//2
f 18//18 19//19 2//2
f 2//2 19//19 3//3
f 19//19 20//20 3//3
f 3//3 20//20 4//4
f 20//20 21//21 4//4
f 4//4 21//21 5//5
f 21//21 22//22 5//5
f 5//5 22//22 6//6
f 22//22 23//23 6//6
f 6//6 23//23 7//7
f 23//23 24//24 7//7
f 7//7 24//24 8//8
f 24//24 25//25 8//8
f 8//8 25//25 9//9
f 25//25 26//26 9//9
f 9//9 26//26 10//10
f 26//26 27//27 10//10
f 10//10 27//27 11//11
f 27//27 28//28 11//11
f 11//11 28//28 12//12
f 28//28 29//29 12//12
f 12//12 29//29 13//13
f 29//29 30//30 13//13
f 13//13 30//30 14//14
f 30//30 31//31 14//14
f 14//14 31//31 15//15
f 31//31 32//32 15//15
f 15//15 32//32 16//16
f 32//32 33//33 16//16
f 16//16 33//33 17//17
f 33//33 34//34 17//17
f 51//51 52//52 35//35
f 52//52 53//53 36//36
f 53//53 54//54 37//37
f 54//54 55//55 38//38
f 55//55 56//56 39//39
f 56//56 57//57 40//40
f 57//57 58//58 41//41
f 58//58 59//59 42//42
f 59//59 60//60 43//43
f 60//60 61//61 44//44
f 61//61 62//62 45//45
f 62//62 63//63 46//46
f 63//63 64//64 47//47
f 64//64 65//65 48//48
f 65//65 66//66 49//49
f 66//66 67//67 50//50
f 85//85 84//84 68//68
f 86//86 85//85 69//69
f 87//87 86//86 70//70
f 88//88 87//87 71//71
f 89//89 88//88 72//72
f 90//90 89//89 73//73
f 91//91 90//90 74//74
f 92//92 91//91 75//75
f 93//93 92//92 76//76
f 94//94 93//93 77//77
f 95//95 94//94 78//78
f 96//96 95//95 79//79
f 97//97 96//96 80//80
f 98//98 97//97 81//81
f 99//99 98//98 82//82
f 100//100 99//99 83//83
