# spoke_back_29
v -1.0124499649342777 18.166691238138934 24.83353534654406
v -0.9351565846297668 18.176792780713498 24.83718631623308
v -0.8677350171947765 18.21065913216234 24.857112181159053
v -0.8204496079314177 18.26313447358935 24.890279427378957
v -0.800499102947157 18.32622988833446 24.93163862671803
v -0.8109208104860349 18.390339679637442 24.974893222450923
v -0.8501280942381909 18.44570371941512 25.01345809778028
v -0.9121520325637252 18.48389331489715 25.041462088217457
v -0.9875500164744151 18.499094470821614 25.05464185535186
v -1.064843396778926 18.48899292824705 25.05099088566284
v -1.1322649642139164 18.455126576798207 25.031065020736868
v -1.179550373477275 18.4026512353712 24.997897774516964
v -1.199500878461536 18.33955582062609 24.95653857517789
v -1.1890791709226578 18.275446029323106 24.913283979444998
v -1.149871887170502 18.220081989545427 24.87471910411564
v -1.0878479488449677 18.1818923940634 24.846715113678464
v -1.0124499649342777 18.166691238138934 24.83353534654406
v -2.0124499835255847 34.833798538590315 -0.1105534862755011
v -1.935156603221074 34.84390008116488 -0.10690251658648364
v -1.8677350357860836 34.877766432613726 -0.08697665166050861
v -1.820449626522725 34.93024177404074 -0.05380940544060486
v -1.800499121538464 34.993337188785844 -0.012450206101533468
v -1.8109208290773422 35.05744698008883 0.03080438963135812
v -1.850128112829498 35.112811019866506 0.06936926496071827
v -1.9121520511550323 35.151000615348536 0.0973732553978941
v -1.9875500350657223 35.166201771272995 0.11055302253229549
v -2.064843415370233 35.156100228698435 0.10690205284327803
v -2.1322649828052236 35.12223387724959 0.086976187917303
v -2.1795503920685824 35.06975853582259 0.05380894169739925
v -2.199500897052843 35.00666312107747 0.012449742358327853
v -2.189079189513965 34.94255332977449 -0.030804853374563734
v -2.149871905761809 34.88718928999681 -0.06936972870392388
v -2.0878479674362747 34.84899969451479 -0.09737371914109971
v -2.0124499835255847 34.833798538590315 -0.1105534862755011
v -0.9999999907043464 18.332892854480274 24.94408860094796
v -0.9999999907043464 18.332892854480274 24.94408860094796
v -0.9999999907043464 18.332892854480274 24.94408860094796
v -0.9999999907043464 18.332892854480274 24.94408860094796
v -0.9999999907043464 18.332892854480274 24.94408860094796
v -0.9999999907043464 18.332892854480274 24.94408860094796
v -0.9999999907043464 18.332892854480274 24.94408860094796
v -0.9999999907043464 18.332892854480274 24.94408860094796
v -0.9999999907043464 18.332892854480274 24.94408860094796
v -0.9999999907043464 18.332892854480274 24.94408860094796
v -0.9999999907043464 18.332892854480274 24.94408860094796
v -0.9999999907043464 18.332892854480274 24.94408860094796
v -0.9999999907043464 18.332892854480274 24.94408860094796
v -0.9999999907043464 18.332892854480274 24.94408860094796
v -0.9999999907043464 18.332892854480274 24.94408860094796
v -0.9999999907043464 18.332892854480274 24.94408860094796
v -1.0124499649342777 18.166691238138934 24.83353534654406
v -0.9351565846297668 18.176792780713498 24.83718631623308
v -0.8677350171947765 18.21065913216234 24.857112181159053
v -0.8204496079314177 18.26313447358935 24.890279427378957
v -0.800499102947157 18.32622988833446 24.93163862671803
v -0.8109208104860349 18.390339679637442 24.974893222450923
v -0.8501280942381909 18.44570371941512 25.01345809778028
v -0.9121520325637252 18.48389331489715 25.041462088217457
v -0.9875500164744151 18.499094470821614 25.05464185535186
v -1.064843396778926 18.48899292824705 25.05099088566284
v -1.1322649642139164 18.455126576798207 25.031065020736868
v -1.179550373477275 18.4026512353712 24.997897774516964
v -1.199500878461536 18.33955582062609 24.95653857517789
v -1.1890791709226578 18.275446029323106 24.913283979444998
v -1.149871887170502 18.220081989545427 24.87471910411564
v -1.0878479488449677 18.1818923940634 24.846715113678464
v -1.0124499649342777 18.166691238138934 24.83353534654406
v -2.0000000092956536 35.000000154931655 -2.3187160280713215e-7
v -2.0000000092956536 35.000000154931655 -2.3187160280713215e-7
v -2.0000000092956536 35.000000154931655 -2.3187160280713215e-7
v -2.0000000092956536 35.000000154931655 -2.3187160280713215e-7
v -2.0000000092956536 35.000000154931655 -2.3187160280713215e-7
v -2.0000000092956536 35.000000154931655 -2.3187160280713215e-7
v -2.0000000092956536 35.000000154931655 -2.3187160280713215e-7
v -2.0000000092956536 35.000000154931655 -2.3187160280713215e-7
v -2.0000000092956536 35.000000154931655 -2.3187160280713215e-7
v -2.0000000092956536 35.000000154931655 -2.3187160280713215e-7
v -2.0000000092956536 35.000000154931655 -2.3187160280713215e-7
v -2.0000000092956536 35.000000154931655 -2.3187160280713215e-7
v -2.0000000092956536 35.000000154931655 -2.3187160280713215e-7
v -2.0000000092956536 35.000000154931655 -2.3187160280713215e-7
v -2.0000000092956536 35.000000154931655 -2.3187160280713215e-7
v -2.0000000092956536 35.000000154931655 -2.3187160280713215e-7
v -2.0124499835255847 34.833798538590315 -0.1105534862755011
v -1.935156603221074 34.84390008116488 -0.10690251658648364
v -1.8677350357860836 34.877766432613726 -0.08697665166050861
v -1.820449626522725 34.93024177404074 -0.05380940544060486
v -1.800499121538464 34.993337188785844 -0.012450206101533468
v -1.8109208290773422 35.05744698008883 0.03080438963135812
v -1.850128112829498 35.112811019866506 0.06936926496071827
v -1.9121520511550323 35.151000615348536 0.0973732553978941
v -1.9875500350657223 35.166201771272995 0.11055302253229549
v -2.064843415370233 35.156100228698435 0.10690205284327803
v -2.1322649828052236 35.12223387724959 0.086976187917303
v -2.1795503920685824 35.06975853582259 0.05380894169739925
v -2.199500897052843 35.00666312107747 0.012449742358327853
v -2.189079189513965 34.94255332977449 -0.030804853374563734
v -2.149871905761809 34.88718928999681 -0.06936972870392388
v -2.0878479674362747 34.84899969451479 -0.09737371914109971
v -2.0124499835255847 34.833798538590315 -0.1105534862755011
vn -0.06224987022206151 -0.8310080693237107 -0.5527662637826367
vn 0.32421704055179457 -0.78050037872192 -0.5345114305894456
vn 0.6613248370568053 -0.6111685834111136 -0.43488207889385644
vn 0.8977519246173774 -0.34879191391072045 -0.2690458745944478
vn 0.9975044239219729 -0.0333148302326385 -0.06224987022206153
vn 0.9453959132037786 0.287234134478286 0.154023112837338
vn 0.7493594477808099 0.564054298667959 0.346847468169852
vn 0.43923980230890436 0.7550023112448379 0.4868674420030442
vn 0.06224987022206163 0.8310080693237107 0.5527662637826367
vn -0.32421704055179457 0.78050037872192 0.5345114305894456
vn -0.6613248370568053 0.6111685834111136 0.43488207889385644
vn -0.8977519246173774 0.34879191391072045 0.2690458745944478
vn -0.9975044239219729 0.033314830232638606 0.0622498702220616
vn -0.9453959132037786 -0.287234134478286 -0.154023112837338
vn -0.7493594477808099 -0.564054298667959 -0.346847468169852
vn -0.43923980230890436 -0.7550023112448379 -0.4868674420030442
vn -0.06224987022206175 -0.8310080693237107 -0.5527662637826367
vn -0.06224987022206151 -0.8310080693237107 -0.5527662637826367
vn 0.32421704055179457 -0.78050037872192 -0.5345114305894456
vn 0.6613248370568053 -0.6111685834111136 -0.43488207889385644
vn 0.8977519246173774 -0.34879191391072045 -0.2690458745944478
vn 0.9975044239219729 -0.0333148302326385 -0.06224987022206153
vn 0.9453959132037786 0.287234134478286 0.154023112837338
vn 0.7493594477808099 0.564054298667959 0.346847468169852
vn 0.43923980230890436 0.7550023112448379 0.4868674420030442
vn 0.06224987022206163 0.8310080693237107 0.5527662637826367
vn -0.32421704055179457 0.78050037872192 0.5345114305894456
vn -0.6613248370568053 0.6111685834111136 0.43488207889385644
vn -0.8977519246173774 0.34879191391072045 0.2690458745944478
vn -0.9975044239219729 0.033314830232638606 0.0622498702220616
vn -0.9453959132037786 -0.287234134478286 -0.154023112837338
vn -0.7493594477808099 -0.564054298667959 -0.346847468169852
vn -0.43923980230890436 -0.7550023112448379 -0.4868674420030442
vn -0.06224987022206175 -0.8310080693237107 -0.5527662637826367
vn 0.03331483023263846 -0.5552618398606637 0.8310080693237107
vn 0.03331483023263846 -0.5552618398606637 0.8310080693237107
vn 0.03331483023263846 -0.5552618398606637 0.8310080693237107
vn 0.03331483023263846 -0.5552618398606637 0.8310080693237107
vn 0.03331483023263846 -0.5552618398606637 0.8310080693237107
vn 0.03331483023263846 -0.5552618398606637 0.8310080693237107
vn 0.03331483023263846 -0.5552618398606637 0.8310080693237107
vn 0.03331483023263846 -0.5552618398606637 0.8310080693237107
vn 0.03331483023263846 -0.5552618398606637 0.8310080693237107
vn 0.03331483023263846 -0.5552618398606637 0.8310080693237107
vn 0.03331483023263846 -0.5552618398606637 0.8310080693237107
vn 0.03331483023263846 -0.5552618398606637 0.8310080693237107
vn 0.03331483023263846 -0.5552618398606637 0.8310080693237107
vn 0.03331483023263846 -0.5552618398606637 0.8310080693237107
vn 0.03331483023263846 -0.5552618398606637 0.8310080693237107
vn 0.03331483023263846 -0.5552618398606637 0.8310080693237107
vn 0.03331483023263846 -0.5552618398606637 0.8310080693237107
vn 0.03331483023263846 -0.5552618398606637 0.8310080693237107
vn 0.03331483023263846 -0.5552618398606637 0.8310080693237107
vn 0.03331483023263846 -0.5552618398606637 0.8310080693237107
vn 0.03331483023263846 -0.5552618398606637 0.8310080693237107
vn 0.03331483023263846 -0.5552618398606637 0.8310080693237107
vn 0.03331483023263846 -0.5552618398606637 0.8310080693237107
vn 0.03331483023263846 -0.5552618398606637 0.8310080693237107
vn 0.03331483023263846 -0.5552618398606637 0.8310080693237107
vn 0.03331483023263846 -0.5552618398606637 0.8310080693237107
vn 0.03331483023263846 -0.5552618398606637 0.8310080693237107
vn 0.03331483023263846 -0.5552618398606637 0.8310080693237107
vn 0.03331483023263846 -0.5552618398606637 0.8310080693237107
vn 0.03331483023263846 -0.5552618398606637 0.8310080693237107
vn 0.03331483023263846 -0.5552618398606637 0.8310080693237107
vn 0.03331483023263846 -0.5552618398606637 0.8310080693237107
vn 0.03331483023263846 -0.5552618398606637 0.8310080693237107
vn -0.03331483023263846 0.5552618398606637 -0.8310080693237107
vn -0.03331483023263846 0.5552618398606637 -0.8310080693237107
vn -0.03331483023263846 0.5552618398606637 -0.8310080693237107
vn -0.03331483023263846 0.5552618398606637 -0.8310080693237107
vn -0.03331483023263846 0.5552618398606637 -0.8310080693237107
vn -0.03331483023263846 0.5552618398606637 -0.8310080693237107
vn -0.03331483023263846 0.5552618398606637 -0.8310080693237107
vn -0.03331483023263846 0.5552618398606637 -0.8310080693237107
vn -0.03331483023263846 0.5552618398606637 -0.8310080693237107
vn -0.03331483023263846 0.5552618398606637 -0.8310080693237107
vn -0.03331483023263846 0.5552618398606637 -0.8310080693237107
vn -0.03331483023263846 0.5552618398606637 -0.8310080693237107
vn -0.03331483023263846 0.5552618398606637 -0.8310080693237107
vn -0.03331483023263846 0.5552618398606637 -0.8310080693237107
vn -0.03331483023263846 0.5552618398606637 -0.8310080693237107
vn -0.03331483023263846 0.5552618398606637 -0.8310080693237107
vn -0.03331483023263846 0.5552618398606637 -0.8310080693237107
vn -0.03331483023263846 0.5552618398606637 -0.8310080693237107
vn -0.03331483023263846 0.5552618398606637 -0.8310080693237107
vn -0.03331483023263846 0.5552618398606637 -0.8310080693237107
vn -0.03331483023263846 0.5552618398606637 -0.8310080693237107
vn -0.03331483023263846 0.5552618398606637 -0.8310080693237107
vn -0.03331483023263846 0.5552618398606637 -0.8310080693237107
vn -0.03331483023263846 0.5552618398606637 -0.8310080693237107
vn -0.03331483023263846 0.5552618398606637 -0.8310080693237107
vn -0.03331483023263846 0.5552618398606637 -0.8310080693237107
vn -0.03331483023263846 0.5552618398606637 -0.8310080693237107
vn -0.03331483023263846 0.5552618398606637 -0.8310080693237107
vn -0.03331483023263846 0.5552618398606637 -0.8310080693237107
vn -0.03331483023263846 0.5552618398606637 -0.8310080693237107
vn -0.03331483023263846 0.5552618398606637 -0.8310080693237107
vn -0.03331483023263846 0.5552618398606637 -0.8310080693237107
vn -0.03331483023263846 0.5552618398606637 -0.8310080693237107
f 1//1 18//18 2//2
f 18//18 19//19 2//2
f 2//2 19//19 3//3
f 19//19 20//20 3//3
f 3//3 20//20 4//4
f 20//20 21//21 4//4
f 4//4 21//21 5//5
f 21//21 22//22 5//5
f 5//5 22//22 6//6
f 22//22 23//23 6//6
f 6//6 23//23 7//7
f 23//23 24//24 7//7
f 7//7 24//24 8//8
f 24//24 25//25 8//8
f 8//8 25//25 9//9
f 25//25 26//26 9//9
f 9//9 26//26 10//10
f 26//26 27//27 10//10
f 10//10 27//27 11//11
f 27//27 28//28 11//11
f 11//11 28//28 12//12
f 28//28 29//29 12//12
f 12//12 29//29 13//13
f 29//29 30//30 13//13
f 13//13 30//30 14//14
f 30//30 31//31 14//14
f 14//14 31//31 15//15
f 31//31 32//32 15//15
f 15//15 32//32 16//16
f 32//32 33//33 16//16
f 16//16 33//33 17//17
f 33//33 34//34 17//17
f 51//51 52//52 35//35
f 52//52 53//53 36//36
f 53//53 54//54 37//37
f 54//54 55//55 38//38
f 55//55 56//56 39//39
f 56//56 57//57 40//40
f 57//57 58//58 41//41
f 58//58 59//59 42//42
f 59//59 60//60 43//43
f 60//60 61//61 44//44
f 61//61 62//62 45//45
f 62//62 63//63 46//46
f 63//63 64//64 47//47
f 64//64 65//65 48//48
f 65//65 66//66 49//49
f 66//66 67//67 50//50
f 85//85 84//84 68//68
f 86//86 85//85 69//69
f 87//87 86//86 70//70
f 88//88 87//87 71//71
f 89//89 88//88 72//72
f 90//90 89//89 73//73
f 91//91 90//90 74//74
f 92//92 91//91 75//75
f 93//93 92//92 76//76
f 94//94 93//93 77//77
f 95//95 94//94 78//78
f 96//96 95//95 79//79
f 97//97 96//96 80//80
f 98//98 97//97 81//81
f 99//99 98//98 82//82
f 100//100 99//99 83//83
