# spoke_front_26
v 1.0332543482228176 7.207119564387115 11.298726330363781
v 1.1061512167577903 7.215492147605211 11.325289157566555
v 1.1628875344853158 7.2342356246203625 11.375481885416312
v 1.1948256818527585 7.26049648177923 11.441663149629932
v 1.1971033995542866 7.2902767331653 11.513757435189941
v 1.1693738992933984 7.319042607993497 11.580789044462012
v 1.115858769607166 7.34241476680169 11.632553034804781
v 1.0447051780087897 7.356834999783661 11.661168780335746
v 0.9667456331858766 7.360107969651855 11.662279824979162
v 0.893848764650904 7.351735386433759 11.635716997776388
v 0.8371124469233784 7.332991909418608 11.585524269926632
v 0.8051742995559356 7.306731052259741 11.519343005713012
v 0.8028965818544076 7.276950800873671 11.447248720153002
v 0.8306260821152956 7.248184926045473 11.380217110880931
v 0.8841412118015282 7.22481276723728 11.328453120538162
v 0.9552948033999044 7.210392534255309 11.299837375007197
v 1.0332543482228176 7.207119564387115 11.298726330363781
v 2.0332543668141234 34.92350605500955 -0.18177685402646215
v 2.106151235349096 34.931878638227644 -0.15521402682368635
v 2.1628875530766214 34.950622115242794 -0.10502129897393075
v 2.1948257004440643 34.97688297240166 -0.038840034760310616
v 2.197103418145592 35.00666322378773 0.03325425079969957
v 2.1693739178847045 35.03542909861593 0.10028586007176976
v 2.115858788198472 35.05880125742412 0.15204985041453867
v 2.0447051966000958 35.0732214904061 0.1806655959455048
v 1.9667456517771824 35.07649446027429 0.18177664058892073
v 1.8938487832422097 35.06812187705619 0.15521381338614493
v 1.8371124655146842 35.04937840004104 0.10502108553638934
v 1.8051743181472415 35.023117542882176 0.0388398213227692
v 1.8028966004457134 34.993337291496104 -0.03325446423724099
v 1.8306261007066016 34.96457141666791 -0.10028607350931118
v 1.884141230392834 34.941199257859715 -0.1520500638520801
v 1.9552948219912103 34.926779024877746 -0.18066580938304622
v 2.0332543668141234 34.92350605500955 -0.18177685402646215
v 0.9999999907043471 7.283613767019485 11.480503077671472
v 0.9999999907043471 7.283613767019485 11.480503077671472
v 0.9999999907043471 7.283613767019485 11.480503077671472
v 0.9999999907043471 7.283613767019485 11.480503077671472
v 0.9999999907043471 7.283613767019485 11.480503077671472
v 0.9999999907043471 7.283613767019485 11.480503077671472
v 0.9999999907043471 7.283613767019485 11.480503077671472
v 0.9999999907043471 7.283613767019485 11.480503077671472
v 0.9999999907043471 7.283613767019485 11.480503077671472
v 0.9999999907043471 7.283613767019485 11.480503077671472
v 0.9999999907043471 7.283613767019485 11.480503077671472
v 0.9999999907043471 7.283613767019485 11.480503077671472
v 0.9999999907043471 7.283613767019485 11.480503077671472
v 0.9999999907043471 7.283613767019485 11.480503077671472
v 0.9999999907043471 7.283613767019485 11.480503077671472
v 0.9999999907043471 7.283613767019485 11.480503077671472
v 1.0332543482228176 7.207119564387115 11.298726330363781
v 1.1061512167577903 7.215492147605211 11.325289157566555
v 1.1628875344853158 7.2342356246203625 11.375481885416312
v 1.1948256818527585 7.26049648177923 11.441663149629932
v 1.1971033995542866 7.2902767331653 11.513757435189941
v 1.1693738992933984 7.319042607993497 11.580789044462012
v 1.115858769607166 7.34241476680169 11.632553034804781
v 1.0447051780087897 7.356834999783661 11.661168780335746
v 0.9667456331858766 7.360107969651855 11.662279824979162
v 0.893848764650904 7.351735386433759 11.635716997776388
v 0.8371124469233784 7.332991909418608 11.585524269926632
v 0.8051742995559356 7.306731052259741 11.519343005713012
v 0.8028965818544076 7.276950800873671 11.447248720153002
v 0.8306260821152956 7.248184926045473 11.380217110880931
v 0.8841412118015282 7.22481276723728 11.328453120538162
v 0.9552948033999044 7.210392534255309 11.299837375007197
v 1.0332543482228176 7.207119564387115 11.298726330363781
v 2.000000009295653 35.000000257641915 -1.0671877070933533e-7
v 2.000000009295653 35.000000257641915 -1.0671877070933533e-7
v 2.000000009295653 35.000000257641915 -1.0671877070933533e-7
v 2.000000009295653 35.000000257641915 -1.0671877070933533e-7
v 2.000000009295653 35.000000257641915 -1.0671877070933533e-7
v 2.000000009295653 35.000000257641915 -1.0671877070933533e-7
v 2.000000009295653 35.000000257641915 -1.0671877070933533e-7
v 2.000000009295653 35.000000257641915 -1.0671877070933533e-7
v 2.000000009295653 35.000000257641915 -1.0671877070933533e-7
v 2.000000009295653 35.000000257641915 -1.0671877070933533e-7
v 2.000000009295653 35.000000257641915 -1.0671877070933533e-7
v 2.000000009295653 35.000000257641915 -1.0671877070933533e-7
v 2.000000009295653 35.000000257641915 -1.0671877070933533e-7
v 2.000000009295653 35.000000257641915 -1.0671877070933533e-7
v 2.000000009295653 35.000000257641915 -1.0671877070933533e-7
v 2.000000009295653 35.000000257641915 -1.0671877070933533e-7
v 2.0332543668141234 34.92350605500955 -0.18177685402646215
v 2.106151235349096 34.931878638227644 -0.15521402682368635
v 2.1628875530766214 34.950622115242794 -0.10502129897393075
v 2.1948257004440643 34.97688297240166 -0.038840034760310616
v 2.197103418145592 35.00666322378773 0.03325425079969957
v 2.1693739178847045 35.03542909861593 0.10028586007176976
v 2.115858788198472 35.05880125742412 0.15204985041453867
v 2.0447051966000958 35.0732214904061 0.1806655959455048
v 1.9667456517771824 35.07649446027429 0.18177664058892073
v 1.8938487832422097 35.06812187705619 0.15521381338614493
v 1.8371124655146842 35.04937840004104 0.10502108553638934
v 1.8051743181472415 35.023117542882176 0.0388398213227692
v 1.8028966004457134 34.993337291496104 -0.03325446423724099
v 1.8306261007066016 34.96457141666791 -0.10028607350931118
v 1.884141230392834 34.941199257859715 -0.1520500638520801
v 1.9552948219912103 34.926779024877746 -0.18066580938304622
v 2.0332543668141234 34.92350605500955 -0.18177685402646215
vn 0.16627178511470994 -0.3824710074625906 -0.9088837229950367
vn 0.5307561429343194 -0.34060810109111667 -0.776069609125746
vn 0.8144376813543782 -0.24689070061247126 -0.5251059370652624
vn 0.9741284688527677 -0.11558642999587918 -0.19419964822668948
vn 0.9855170295643492 0.03331483023263845 0.16627178511470997
vn 0.8468695524247252 0.1771442094283137 0.5014298457830002
vn 0.5792938678051704 0.2940049853556257 0.76024975061447
vn 0.22352594537800877 0.3661061685681986 0.9033285255537882
vn -0.16627178511470983 0.3824710074625906 0.9088837229950367
vn -0.5307561429343194 0.34060810109111667 0.776069609125746
vn -0.8144376813543782 0.24689070061247126 0.5251059370652624
vn -0.9741284688527677 0.11558642999587918 0.19419964822668948
vn -0.9855170295643492 -0.0333148302326384 -0.16627178511470986
vn -0.8468695524247252 -0.1771442094283137 -0.5014298457830002
vn -0.5792938678051704 -0.2940049853556257 -0.76024975061447
vn -0.22352594537800877 -0.3661061685681986 -0.9033285255537882
vn 0.1662717851147097 -0.3824710074625906 -0.9088837229950367
vn 0.16627178511470994 -0.3824710074625906 -0.9088837229950367
vn 0.5307561429343194 -0.34060810109111667 -0.776069609125746
vn 0.8144376813543782 -0.24689070061247126 -0.5251059370652624
vn 0.9741284688527677 -0.11558642999587918 -0.19419964822668948
vn 0.9855170295643492 0.03331483023263845 0.16627178511470997
vn 0.8468695524247252 0.1771442094283137 0.5014298457830002
vn 0.5792938678051704 0.2940049853556257 0.76024975061447
vn 0.22352594537800877 0.3661061685681986 0.9033285255537882
vn -0.16627178511470983 0.3824710074625906 0.9088837229950367
vn -0.5307561429343194 0.34060810109111667 0.776069609125746
vn -0.8144376813543782 0.24689070061247126 0.5251059370652624
vn -0.9741284688527677 0.11558642999587918 0.19419964822668948
vn -0.9855170295643492 -0.0333148302326384 -0.16627178511470986
vn -0.8468695524247252 -0.1771442094283137 -0.5014298457830002
vn -0.5792938678051704 -0.2940049853556257 -0.76024975061447
vn -0.22352594537800877 -0.3661061685681986 -0.9033285255537882
vn 0.1662717851147097 -0.3824710074625906 -0.9088837229950367
vn -0.033314830232638454 -0.9233666934306876 0.3824710074625906
vn -0.033314830232638454 -0.9233666934306876 0.3824710074625906
vn -0.033314830232638454 -0.9233666934306876 0.3824710074625906
vn -0.033314830232638454 -0.9233666934306876 0.3824710074625906
vn -0.033314830232638454 -0.9233666934306876 0.3824710074625906
vn -0.033314830232638454 -0.9233666934306876 0.3824710074625906
vn -0.033314830232638454 -0.9233666934306876 0.3824710074625906
vn -0.033314830232638454 -0.9233666934306876 0.3824710074625906
vn -0.033314830232638454 -0.9233666934306876 0.3824710074625906
vn -0.033314830232638454 -0.9233666934306876 0.3824710074625906
vn -0.033314830232638454 -0.9233666934306876 0.3824710074625906
vn -0.033314830232638454 -0.9233666934306876 0.3824710074625906
vn -0.033314830232638454 -0.9233666934306876 0.3824710074625906
vn -0.033314830232638454 -0.9233666934306876 0.3824710074625906
vn -0.033314830232638454 -0.9233666934306876 0.3824710074625906
vn -0.033314830232638454 -0.9233666934306876 0.3824710074625906
vn -0.033314830232638454 -0.9233666934306876 0.3824710074625906
vn -0.033314830232638454 -0.9233666934306876 0.3824710074625906
vn -0.033314830232638454 -0.9233666934306876 0.3824710074625906
vn -0.033314830232638454 -0.9233666934306876 0.3824710074625906
vn -0.033314830232638454 -0.9233666934306876 0.3824710074625906
vn -0.033314830232638454 -0.9233666934306876 0.3824710074625906
vn -0.033314830232638454 -0.9233666934306876 0.3824710074625906
vn -0.033314830232638454 -0.9233666934306876 0.3824710074625906
vn -0.033314830232638454 -0.9233666934306876 0.3824710074625906
vn -0.033314830232638454 -0.9233666934306876 0.3824710074625906
vn -0.033314830232638454 -0.9233666934306876 0.3824710074625906
vn -0.033314830232638454 -0.9233666934306876 0.3824710074625906
vn -0.033314830232638454 -0.9233666934306876 0.3824710074625906
vn -0.033314830232638454 -0.9233666934306876 0.3824710074625906
vn -0.033314830232638454 -0.9233666934306876 0.3824710074625906
vn -0.033314830232638454 -0.9233666934306876 0.3824710074625906
vn -0.033314830232638454 -0.9233666934306876 0.3824710074625906
vn 0.033314830232638454 0.9233666934306876 -0.3824710074625906
vn 0.033314830232638454 0.9233666934306876 -0.3824710074625906
vn 0.033314830232638454 0.9233666934306876 -0.3824710074625906
vn 0.033314830232638454 0.9233666934306876 -0.3824710074625906
vn 0.033314830232638454 0.9233666934306876 -0.3824710074625906
vn 0.033314830232638454 0.9233666934306876 -0.3824710074625906
vn 0.033314830232638454 0.9233666934306876 -0.3824710074625906
vn 0.033314830232638454 0.9233666934306876 -0.3824710074625906
vn 0.033314830232638454 0.9233666934306876 -0.3824710074625906
vn 0.033314830232638454 0.9233666934306876 -0.3824710074625906
vn 0.033314830232638454 0.9233666934306876 -0.3824710074625906
vn 0.033314830232638454 0.9233666934306876 -0.3824710074625906
vn 0.033314830232638454 0.9233666934306876 -0.3824710074625906
vn 0.033314830232638454 0.9233666934306876 -0.3824710074625906
vn 0.033314830232638454 0.9233666934306876 -0.3824710074625906
vn 0.033314830232638454 0.9233666934306876 -0.3824710074625906
vn 0.033314830232638454 0.9233666934306876 -0.3824710074625906
vn 0.033314830232638454 0.9233666934306876 -0.3824710074625906
vn 0.033314830232638454 0.9233666934306876 -0.3824710074625906
vn 0.033314830232638454 0.9233666934306876 -0.3824710074625906
vn 0.033314830232638454 0.9233666934306876 -0.3824710074625906
vn 0.033314830232638454 0.9233666934306876 -0.3824710074625906
vn 0.033314830232638454 0.9233666934306876 -0.3824710074625906
vn 0.033314830232638454 0.9233666934306876 -0.3824710074625906
vn 0.033314830232638454 0.9233666934306876 -0.3824710074625906
vn 0.033314830232638454 0.9233666934306876 -0.3824710074625906
vn 0.033314830232638454 0.9233666934306876 -0.3824710074625906
vn 0.033314830232638454 0.9233666934306876 -0.3824710074625906
vn 0.033314830232638454 0.9233666934306876 -0.3824710074625906
vn 0.033314830232638454 0.9233666934306876 -0.3824710074625906
vn 0.033314830232638454 0.9233666934306876 -0.3824710074625906
vn 0.033314830232638454 0.9233666934306876 -0.3824710074625906
vn 0.033314830232638454 0.9233666934306876 -0.3824710074625906
f 1//1 18//18 2//2
f 18//18 19//19 2//2
f 2//2 19//19 3//3
f 19//19 20//20 3//3
f 3//3 20//20 4//4
f 20//20 21//21 4//4
f 4//4 21//21 5//5
f 21//21 22//22 5//5
f 5//5 22//22 6//6
f 22//22 23//23 6//6
f 6//6 23//23 7//7
f 23//23 24//24 7//7
f 7//7 24//24 8//8
f 24//24 25//25 8//8
f 8//8 25//25 9//9
f 25//25 26//26 9//9
f 9//9 26//26 10//10
f 26//26 27//27 10//10
f 10//10 27//27 11//11
f 27//27 28//28 11//11
f 11//11 28//28 12//12
f 28//28 29//29 12//12
f 12//12 29//29 13//13
f 29//29 30//30 13//13
f 13//13 30//30 14//14
f 30//30 31//31 14//14
f 14//14 31//31 15//15
f 31//31 32//32 15//15
f 15//15 32//32 16//16
f 32//32 33//33 16//16
f 16//16 33//33 17//17
f 33//33 34//34 17//17
f 51//51 52//52 35//35
f 52//52 53//53 36//36
f 53//53 54//54 37//37
f 54//54 55//55 38//38
f 55//55 56//56 39//39
f 56//56 57//57 40//40
f 57//57 58//58 41//41
f 58//58 59//59 42//42
f 59//59 60//60 43//43
f 60//60 61//61 44//44
f 61//61 62//62 45//45
f 62//62 63//63 46//46
f 63//63 64//64 47//47
f 64//64 65//65 48//48
f 65//65 66//66 49//49
f 66//66 67//67 50//50
f 85//85 84//84 68//68
f 86//86 85//85 69//69
f 87//87 86//86 70//70
f 88//88 87//87 71//71
f 89//89 88//88 72//72
f 90//90 89//89 73//73
f 91//91 90//90 74//74
f 92//92 91//91 75//75
f 93//93 92//92 76//76
f 94//94 93//93 77//77
f 95//95 94//94 78//78
f 96//96 95//95 79//79
f 97//97 96//96 80//80
f 98//98 97//97 81//81
f 99//99 98//98 82//82
f 100//100 99//99 83//83
