# spoke_front_9
v 0.9993439297740079 64.46255509193719 -5.6565494460532335
v 1.07588765769267 64.46213647287234 -5.671732326390837
v 1.1408781850036378 64.45584473851731 -5.714467359414622
v 1.184421268383888 64.44463774163384 -5.778248553504184
v 1.1998878984383772 64.43022165175393 -5.853365775818945
v 1.1849233956655651 64.41479118531615 -5.928383118768616
v 1.1418059952980182 64.400695490082 -5.991879880656972
v 1.0770999001882557 64.3900805116938 -6.034189230668055
v 1.0006560516346852 64.38456227927904 -6.04886998372398
v 0.924112323716023 64.3849808983439 -6.033687103386377
v 0.8591217964050551 64.39127263269891 -5.990952070362592
v 0.8155787130248051 64.40247962958239 -5.9271708762730295
v 0.8001120829703159 64.4168957194623 -5.852053653958269
v 0.8150765857431279 64.4323261859001 -5.777036311008598
v 0.858193986110675 64.44642188113423 -5.713539549120242
v 0.9229000812204372 64.45703685952243 -5.671230199109159
v 0.9993439297740079 64.46255509193719 -5.6565494460532335
v 1.9993439483653148 35.03899613281787 0.19616032324013366
v 2.075887676283977 35.03857751375302 0.18097744290253148
v 2.1408782035949447 35.032285779397995 0.1382424098787456
v 2.184421286975195 35.02107878251452 0.0744612157891833
v 2.199887917029684 35.006662692634606 -0.0006560065255780678
v 2.184923414256872 34.991232226196814 -0.07567334947524795
v 2.141806013889325 34.977136530962674 -0.13917011136360413
v 2.0770999187795627 34.96652155257447 -0.18147946137468685
v 2.0006560702259923 34.96100332015971 -0.19616021443061227
v 1.92411234230733 34.96142193922457 -0.1809773340930101
v 1.8591218149963622 34.967713673579595 -0.1382423010692242
v 1.815578731616112 34.97892067046306 -0.0744611069796619
v 1.8001121015616228 34.99333676034298 0.0006561153350994609
v 1.8150766043344349 35.00876722678077 0.07567345828476935
v 1.8581940047019818 35.02286292201491 0.13917022017312553
v 1.9229000998117443 35.03347790040311 0.18147957018420824
v 1.9993439483653148 35.03899613281787 0.19616032324013366
v 0.9999999907043465 64.42355868560811 -5.852709714888607
v 0.9999999907043465 64.42355868560811 -5.852709714888607
v 0.9999999907043465 64.42355868560811 -5.852709714888607
v 0.9999999907043465 64.42355868560811 -5.852709714888607
v 0.9999999907043465 64.42355868560811 -5.852709714888607
v 0.9999999907043465 64.42355868560811 -5.852709714888607
v 0.9999999907043465 64.42355868560811 -5.852709714888607
v 0.9999999907043465 64.42355868560811 -5.852709714888607
v 0.9999999907043465 64.42355868560811 -5.852709714888607
v 0.9999999907043465 64.42355868560811 -5.852709714888607
v 0.9999999907043465 64.42355868560811 -5.852709714888607
v 0.9999999907043465 64.42355868560811 -5.852709714888607
v 0.9999999907043465 64.42355868560811 -5.852709714888607
v 0.9999999907043465 64.42355868560811 -5.852709714888607
v 0.9999999907043465 64.42355868560811 -5.852709714888607
v 0.9999999907043465 64.42355868560811 -5.852709714888607
v 0.9993439297740079 64.46255509193719 -5.6565494460532335
v 1.07588765769267 64.46213647287234 -5.671732326390837
v 1.1408781850036378 64.45584473851731 -5.714467359414622
v 1.184421268383888 64.44463774163384 -5.778248553504184
v 1.1998878984383772 64.43022165175393 -5.853365775818945
v 1.1849233956655651 64.41479118531615 -5.928383118768616
v 1.1418059952980182 64.400695490082 -5.991879880656972
v 1.0770999001882557 64.3900805116938 -6.034189230668055
v 1.0006560516346852 64.38456227927904 -6.04886998372398
v 0.924112323716023 64.3849808983439 -6.033687103386377
v 0.8591217964050551 64.39127263269891 -5.990952070362592
v 0.8155787130248051 64.40247962958239 -5.9271708762730295
v 0.8001120829703159 64.4168957194623 -5.852053653958269
v 0.8150765857431279 64.4323261859001 -5.777036311008598
v 0.858193986110675 64.44642188113423 -5.713539549120242
v 0.9229000812204372 64.45703685952243 -5.671230199109159
v 0.9993439297740079 64.46255509193719 -5.6565494460532335
v 2.0000000092956536 34.999999726488795 5.4404760696513677e-8
v 2.0000000092956536 34.999999726488795 5.4404760696513677e-8
v 2.0000000092956536 34.999999726488795 5.4404760696513677e-8
v 2.0000000092956536 34.999999726488795 5.4404760696513677e-8
v 2.0000000092956536 34.999999726488795 5.4404760696513677e-8
v 2.0000000092956536 34.999999726488795 5.4404760696513677e-8
v 2.0000000092956536 34.999999726488795 5.4404760696513677e-8
v 2.0000000092956536 34.999999726488795 5.4404760696513677e-8
v 2.0000000092956536 34.999999726488795 5.4404760696513677e-8
v 2.0000000092956536 34.999999726488795 5.4404760696513677e-8
v 2.0000000092956536 34.999999726488795 5.4404760696513677e-8
v 2.0000000092956536 34.999999726488795 5.4404760696513677e-8
v 2.0000000092956536 34.999999726488795 5.4404760696513677e-8
v 2.0000000092956536 34.999999726488795 5.4404760696513677e-8
v 2.0000000092956536 34.999999726488795 5.4404760696513677e-8
v 2.0000000092956536 34.999999726488795 5.4404760696513677e-8
v 1.9993439483653148 35.03899613281787 0.19616032324013366
v 2.075887676283977 35.03857751375302 0.18097744290253148
v 2.1408782035949447 35.032285779397995 0.1382424098787456
v 2.184421286975195 35.02107878251452 0.0744612157891833
v 2.199887917029684 35.006662692634606 -0.0006560065255780678
v 2.184923414256872 34.991232226196814 -0.07567334947524795
v 2.141806013889325 34.977136530962674 -0.13917011136360413
v 2.0770999187795627 34.96652155257447 -0.18147946137468685
v 2.0006560702259923 34.96100332015971 -0.19616021443061227
v 1.92411234230733 34.96142193922457 -0.1809773340930101
v 1.8591218149963622 34.967713673579595 -0.1382423010692242
v 1.815578731616112 34.97892067046306 -0.0744611069796619
v 1.8001121015616228 34.99333676034298 0.0006561153350994609
v 1.8150766043344349 35.00876722678077 0.07567345828476935
v 1.8581940047019818 35.02286292201491 0.13917022017312553
v 1.9229000998117443 35.03347790040311 0.18147957018420824
v 1.9993439483653148 35.03899613281787 0.19616032324013366
vn -0.0032803046028129627 0.19498202873994253 0.980801329561787
vn 0.379438345817499 0.19288893891961276 0.9048869536940766
vn 0.7043909390198068 0.16143025710310094 0.691211745500915
vn 0.9221063998165436 0.10539528263961084 0.3723058175944732
vn 0.9994395237773437 0.03331483023263849 -0.0032803046028129037
vn 0.9246170362965689 -0.04383750320717632 -0.3783670301475941
vn 0.7090299902778197 -0.11431597235994641 -0.6958507967589279
vn 0.38549955837061994 -0.1673908714425307 -0.9073975901741018
vn 0.003280304602813085 -0.19498202873994253 -0.980801329561787
vn -0.379438345817499 -0.19288893891961276 -0.9048869536940766
vn -0.7043909390198068 -0.16143025710310094 -0.691211745500915
vn -0.9221063998165436 -0.10539528263961084 -0.3723058175944732
vn -0.9994395237773437 -0.03331483023263851 0.0032803046028127836
vn -0.9246170362965689 0.04383750320717632 0.3783670301475941
vn -0.7090299902778197 0.11431597235994641 0.6958507967589279
vn -0.38549955837061994 0.1673908714425307 0.9073975901741018
vn -0.0032803046028132073 0.19498202873994253 0.980801329561787
vn -0.0032803046028129627 0.19498202873994253 0.980801329561787
vn 0.379438345817499 0.19288893891961276 0.9048869536940766
vn 0.7043909390198068 0.16143025710310094 0.691211745500915
vn 0.9221063998165436 0.10539528263961084 0.3723058175944732
vn 0.9994395237773437 0.03331483023263849 -0.0032803046028129037
vn 0.9246170362965689 -0.04383750320717632 -0.3783670301475941
vn 0.7090299902778197 -0.11431597235994641 -0.6958507967589279
vn 0.38549955837061994 -0.1673908714425307 -0.9073975901741018
vn 0.003280304602813085 -0.19498202873994253 -0.980801329561787
vn -0.379438345817499 -0.19288893891961276 -0.9048869536940766
vn -0.7043909390198068 -0.16143025710310094 -0.691211745500915
vn -0.9221063998165436 -0.10539528263961084 -0.3723058175944732
vn -0.9994395237773437 -0.03331483023263851 0.0032803046028127836
vn -0.9246170362965689 0.04383750320717632 0.3783670301475941
vn -0.7090299902778197 0.11431597235994641 0.6958507967589279
vn -0.38549955837061994 0.1673908714425307 0.9073975901741018
vn -0.0032803046028132073 0.19498202873994253 0.980801329561787
vn -0.03331483023263847 0.9802408533391305 -0.19498202873994253
vn -0.03331483023263847 0.9802408533391305 -0.19498202873994253
vn -0.03331483023263847 0.9802408533391305 -0.19498202873994253
vn -0.03331483023263847 0.9802408533391305 -0.19498202873994253
vn -0.03331483023263847 0.9802408533391305 -0.19498202873994253
vn -0.03331483023263847 0.9802408533391305 -0.19498202873994253
vn -0.03331483023263847 0.9802408533391305 -0.19498202873994253
vn -0.03331483023263847 0.9802408533391305 -0.19498202873994253
vn -0.03331483023263847 0.9802408533391305 -0.19498202873994253
vn -0.03331483023263847 0.9802408533391305 -0.19498202873994253
vn -0.03331483023263847 0.9802408533391305 -0.19498202873994253
vn -0.03331483023263847 0.9802408533391305 -0.19498202873994253
vn -0.03331483023263847 0.9802408533391305 -0.19498202873994253
vn -0.03331483023263847 0.9802408533391305 -0.19498202873994253
vn -0.03331483023263847 0.9802408533391305 -0.19498202873994253
vn -0.03331483023263847 0.9802408533391305 -0.19498202873994253
vn -0.03331483023263847 0.9802408533391305 -0.19498202873994253
vn -0.03331483023263847 0.9802408533391305 -0.19498202873994253
vn -0.03331483023263847 0.9802408533391305 -0.19498202873994253
vn -0.03331483023263847 0.9802408533391305 -0.19498202873994253
vn -0.03331483023263847 0.9802408533391305 -0.19498202873994253
vn -0.03331483023263847 0.9802408533391305 -0.19498202873994253
vn -0.03331483023263847 0.9802408533391305 -0.19498202873994253
vn -0.03331483023263847 0.9802408533391305 -0.19498202873994253
vn -0.03331483023263847 0.9802408533391305 -0.19498202873994253
vn -0.03331483023263847 0.9802408533391305 -0.19498202873994253
vn -0.03331483023263847 0.9802408533391305 -0.19498202873994253
vn -0.03331483023263847 0.9802408533391305 -0.19498202873994253
vn -0.03331483023263847 0.9802408533391305 -0.19498202873994253
vn -0.03331483023263847 0.9802408533391305 -0.19498202873994253
vn -0.03331483023263847 0.9802408533391305 -0.19498202873994253
vn -0.03331483023263847 0.9802408533391305 -0.19498202873994253
vn -0.03331483023263847 0.9802408533391305 -0.19498202873994253
vn 0.03331483023263847 -0.9802408533391305 0.19498202873994253
vn 0.03331483023263847 -0.9802408533391305 0.19498202873994253
vn 0.03331483023263847 -0.9802408533391305 0.19498202873994253
vn 0.03331483023263847 -0.9802408533391305 0.19498202873994253
vn 0.03331483023263847 -0.9802408533391305 0.19498202873994253
vn 0.03331483023263847 -0.9802408533391305 0.19498202873994253
vn 0.03331483023263847 -0.9802408533391305 0.19498202873994253
vn 0.03331483023263847 -0.9802408533391305 0.19498202873994253
vn 0.03331483023263847 -0.9802408533391305 0.19498202873994253
vn 0.03331483023263847 -0.9802408533391305 0.19498202873994253
vn 0.03331483023263847 -0.9802408533391305 0.19498202873994253
vn 0.03331483023263847 -0.9802408533391305 0.19498202873994253
vn 0.03331483023263847 -0.9802408533391305 0.19498202873994253
vn 0.03331483023263847 -0.9802408533391305 0.19498202873994253
vn 0.03331483023263847 -0.9802408533391305 0.19498202873994253
vn 0.03331483023263847 -0.9802408533391305 0.19498202873994253
vn 0.03331483023263847 -0.9802408533391305 0.19498202873994253
vn 0.03331483023263847 -0.9802408533391305 0.19498202873994253
vn 0.03331483023263847 -0.9802408533391305 0.19498202873994253
vn 0.03331483023263847 -0.9802408533391305 0.19498202873994253
vn 0.03331483023263847 -0.9802408533391305 0.19498202873994253
vn 0.03331483023263847 -0.9802408533391305 0.19498202873994253
vn 0.03331483023263847 -0.9802408533391305 0.19498202873994253
vn 0.03331483023263847 -0.9802408533391305 0.19498202873994253
vn 0.03331483023263847 -0.9802408533391305 0.19498202873994253
vn 0.03331483023263847 -0.9802408533391305 0.19498202873994253
vn 0.03331483023263847 -0.9802408533391305 0.19498202873994253
vn 0.03331483023263847 -0.9802408533391305 0.19498202873994253
vn 0.03331483023263847 -0.9802408533391305 0.19498202873994253
vn 0.03331483023263847 -0.9802408533391305 0.19498202873994253
vn 0.03331483023263847 -0.9802408533391305 0.19498202873994253
vn 0.03331483023263847 -0.9802408533391305 0.19498202873994253
vn 0.03331483023263847 -0.9802408533391305 0.19498202873994253
f 1//1 18//18 2//2
f 18//18 19//19 2//2
f 2//2 19//19 3//3
f 19//19 20//20 3//3
f 3//3 20//20 4//4
f 20//20 21//21 4//4
f 4//4 21//21 5//5
f 21//21 22//22 5//5
f 5//5 22//22 6//6
f 22//22 23//23 6//6
f 6//6 23//23 7//7
f 23//23 24//24 7//7
f 7//7 24//24 8//8
f 24//24 25//25 8//8
f 8//8 25//25 9//9
f 25//25 26//26 9//9
f 9//9 26//26 10//10
f 26//26 27//27 10//10
f 10//10 27//27 11//11
f 27//27 28//28 11//11
f 11//11 28//28 12//12
f 28//28 29//29 12//12
f 12//12 29//29 13//13
f 29//29 30//30 13//13
f 13//13 30//30 14//14
f 30//30 31//31 14//14
f 14//14 31//31 15//15
f 31//31 32//32 15//15
f 15//15 32//32 16//16
f 32//32 33//33 16//16
f 16//16 33//33 17//17
f 33//33 34//34 17//17
f 51//51 52//52 35//35
f 52//52 53//53 36//36
f 53//53 54//54 37//37
f 54//54 55//55 38//38
f 55//55 56//56 39//39
f 56//56 57//57 40//40
f 57//57 58//58 41//41
f 58//58 59//59 42//42
f 59//59 60//60 43//43
f 60//60 61//61 44//44
f 61//61 62//62 45//45
f 62//62 63//63 46//46
f 63//63 64//64 47//47
f 64//64 65//65 48//48
f 65//65 66//66 49//49
f 66//66 67//67 50//50
f 85//85 84//84 68//68
f 86//86 85//85 69//69
f 87//87 86//86 70//70
f 88//88 87//87 71//71
f 89//89 88//88 72//72
f 90//90 89//89 73//73
f 91//91 90//90 74//74
f 92//92 91//91 75//75
f 93//93 92//92 76//76
f 94//94 93//93 77//77
f 95//95 94//94 78//78
f 96//96 95//95 79//79
f 97//97 96//96 80//80
f 98//98 97//97 81//81
f 99//99 98//98 82//82
f 100//100 99//99 83//83
