# spoke_front_14
v 0.9955497266588148 46.66517641910946 -27.63973146597842
v 1.0723637228654728 46.65366879968328 -27.647269507027616
v 1.138161005320966 46.61579828247304 -27.665329937714525
v 1.1829245101280477 46.557330281503795 -27.69116323229619
v 1.199839429314841 46.48716604381728 -27.720836497026063
v 1.186330594661652 46.41598742957291 -27.749832249154885
v 1.1444546292866897 46.35463073025299 -27.77373615221226
v 1.0805867383554917 46.31243696900957 -27.788909043467044
v 1.004450254749878 46.295829736233486 -27.793040999982637
v 0.92763625854322 46.30733735565967 -27.785502958933442
v 0.8618389760877265 46.345207872869906 -27.767442528246534
v 0.8170754712806448 46.40367587383915 -27.741609233664867
v 0.8001605520938515 46.47384011152566 -27.711935968934995
v 0.8136693867470407 46.545018725770035 -27.682940216806173
v 0.8555453521220029 46.60637542508996 -27.6590363137488
v 0.9194132430532008 46.648569186333376 -27.643863422494015
v 0.9955497266588148 46.66517641910946 -27.63973146597842
v 1.995549745250122 35.18467323471921 0.07665502464403318
v 2.07236374145678 35.17316561529303 0.06911698359483687
v 2.1381610239122733 35.13529509808279 0.05105655290792832
v 2.1829245287193553 35.07682709711355 0.025223258326262155
v 2.1998394479061485 35.00666285942704 -0.004450006403606821
v 2.1863306132529594 34.935484245182664 -0.03344575853242837
v 2.144454647877997 34.87412754586274 -0.057349661589801926
v 2.0805867569467993 34.83193378461932 -0.07252255284459075
v 2.004450273341185 34.81532655184324 -0.07665450936018203
v 1.9276362771345272 34.82683417126942 -0.06911646831098572
v 1.861838994679034 34.86470468847966 -0.05105603762407718
v 1.8170754898719523 34.923172689448904 -0.02522274304241101
v 1.800160570685159 34.99333692713542 0.0044505216874579645
v 1.813669405338348 35.06451554137979 0.033446273816279515
v 1.8555453707133103 35.12587224069971 0.05735017687365307
v 1.9194132616445083 35.16806600194313 0.07252306812844189
v 1.995549745250122 35.18467323471921 0.07665502464403318
v 0.9999999907043463 46.48050307767147 -27.71638623298053
v 0.9999999907043463 46.48050307767147 -27.71638623298053
v 0.9999999907043463 46.48050307767147 -27.71638623298053
v 0.9999999907043463 46.48050307767147 -27.71638623298053
v 0.9999999907043463 46.48050307767147 -27.71638623298053
v 0.9999999907043463 46.48050307767147 -27.71638623298053
v 0.9999999907043463 46.48050307767147 -27.71638623298053
v 0.9999999907043463 46.48050307767147 -27.71638623298053
v 0.9999999907043463 46.48050307767147 -27.71638623298053
v 0.9999999907043463 46.48050307767147 -27.71638623298053
v 0.9999999907043463 46.48050307767147 -27.71638623298053
v 0.9999999907043463 46.48050307767147 -27.71638623298053
v 0.9999999907043463 46.48050307767147 -27.71638623298053
v 0.9999999907043463 46.48050307767147 -27.71638623298053
v 0.9999999907043463 46.48050307767147 -27.71638623298053
v 0.9999999907043463 46.48050307767147 -27.71638623298053
v 0.9955497266588148 46.66517641910946 -27.63973146597842
v 1.0723637228654728 46.65366879968328 -27.647269507027616
v 1.138161005320966 46.61579828247304 -27.665329937714525
v 1.1829245101280477 46.557330281503795 -27.69116323229619
v 1.199839429314841 46.48716604381728 -27.720836497026063
v 1.186330594661652 46.41598742957291 -27.749832249154885
v 1.1444546292866897 46.35463073025299 -27.77373615221226
v 1.0805867383554917 46.31243696900957 -27.788909043467044
v 1.004450254749878 46.295829736233486 -27.793040999982637
v 0.92763625854322 46.30733735565967 -27.785502958933442
v 0.8618389760877265 46.345207872869906 -27.767442528246534
v 0.8170754712806448 46.40367587383915 -27.741609233664867
v 0.8001605520938515 46.47384011152566 -27.711935968934995
v 0.8136693867470407 46.545018725770035 -27.682940216806173
v 0.8555453521220029 46.60637542508996 -27.6590363137488
v 0.9194132430532008 46.648569186333376 -27.643863422494015
v 0.9955497266588148 46.66517641910946 -27.63973146597842
v 2.0000000092956536 34.99999989328123 2.57641925571761e-7
v 2.0000000092956536 34.99999989328123 2.57641925571761e-7
v 2.0000000092956536 34.99999989328123 2.57641925571761e-7
v 2.0000000092956536 34.99999989328123 2.57641925571761e-7
v 2.0000000092956536 34.99999989328123 2.57641925571761e-7
v 2.0000000092956536 34.99999989328123 2.57641925571761e-7
v 2.0000000092956536 34.99999989328123 2.57641925571761e-7
v 2.0000000092956536 34.99999989328123 2.57641925571761e-7
v 2.0000000092956536 34.99999989328123 2.57641925571761e-7
v 2.0000000092956536 34.99999989328123 2.57641925571761e-7
v 2.0000000092956536 34.99999989328123 2.57641925571761e-7
v 2.0000000092956536 34.99999989328123 2.57641925571761e-7
v 2.0000000092956536 34.99999989328123 2.57641925571761e-7
v 2.0000000092956536 34.99999989328123 2.57641925571761e-7
v 2.0000000092956536 34.99999989328123 2.57641925571761e-7
v 2.0000000092956536 34.99999989328123 2.57641925571761e-7
v 1.995549745250122 35.18467323471921 0.07665502464403318
v 2.07236374145678 35.17316561529303 0.06911698359483687
v 2.1381610239122733 35.13529509808279 0.05105655290792832
v 2.1829245287193553 35.07682709711355 0.025223258326262155
v 2.1998394479061485 35.00666285942704 -0.004450006403606821
v 2.1863306132529594 34.935484245182664 -0.03344575853242837
v 2.144454647877997 34.87412754586274 -0.057349661589801926
v 2.0805867569467993 34.83193378461932 -0.07252255284459075
v 2.004450273341185 34.81532655184324 -0.07665450936018203
v 1.9276362771345272 34.82683417126942 -0.06911646831098572
v 1.861838994679034 34.86470468847966 -0.05105603762407718
v 1.8170754898719523 34.923172689448904 -0.02522274304241101
v 1.800160570685159 34.99333692713542 0.0044505216874579645
v 1.813669405338348 35.06451554137979 0.033446273816279515
v 1.8555453707133103 35.12587224069971 0.05735017687365307
v 1.9194132616445083 35.16806600194313 0.07252306812844189
v 1.995549745250122 35.18467323471921 0.07665502464403318
vn -0.022251319896087238 0.9233666934306877 0.383273829299315
vn 0.36181867146143953 0.8658286210055992 0.3455836339143128
vn 0.6908050412328405 0.6764759928182164 0.25528146456000644
vn 0.9146226083274105 0.3841360296262345 0.12611500735185013
vn 0.9991971781632755 0.03331483023263853 -0.02225131989608721
vn 0.9316530314813823 -0.32257825019379993 -0.16723008531199376
vn 0.7222731596105894 -0.6293617080750618 -0.2867495829377552
vn 0.40293374942158316 -0.840330553528517 -0.36261405706828476
vn 0.02225131989608736 -0.9233666934306877 -0.383273829299315
vn -0.36181867146143953 -0.8658286210055992 -0.3455836339143128
vn -0.6908050412328405 -0.6764759928182164 -0.25528146456000644
vn -0.9146226083274105 -0.3841360296262345 -0.12611500735185013
vn -0.9991971781632755 -0.03331483023263864 0.022251319896087165
vn -0.9316530314813823 0.32257825019379993 0.16723008531199376
vn -0.7222731596105894 0.6293617080750618 0.2867495829377552
vn -0.40293374942158316 0.840330553528517 0.36261405706828476
vn -0.022251319896087484 0.9233666934306877 0.383273829299315
vn -0.022251319896087238 0.9233666934306877 0.383273829299315
vn 0.36181867146143953 0.8658286210055992 0.3455836339143128
vn 0.6908050412328405 0.6764759928182164 0.25528146456000644
vn 0.9146226083274105 0.3841360296262345 0.12611500735185013
vn 0.9991971781632755 0.03331483023263853 -0.02225131989608721
vn 0.9316530314813823 -0.32257825019379993 -0.16723008531199376
vn 0.7222731596105894 -0.6293617080750618 -0.2867495829377552
vn 0.40293374942158316 -0.840330553528517 -0.36261405706828476
vn 0.02225131989608736 -0.9233666934306877 -0.383273829299315
vn -0.36181867146143953 -0.8658286210055992 -0.3455836339143128
vn -0.6908050412328405 -0.6764759928182164 -0.25528146456000644
vn -0.9146226083274105 -0.3841360296262345 -0.12611500735185013
vn -0.9991971781632755 -0.03331483023263864 0.022251319896087165
vn -0.9316530314813823 0.32257825019379993 0.16723008531199376
vn -0.7222731596105894 0.6293617080750618 0.2867495829377552
vn -0.40293374942158316 0.840330553528517 0.36261405706828476
vn -0.022251319896087484 0.9233666934306877 0.383273829299315
vn -0.03331483023263848 0.3824710074625905 -0.9233666934306877
vn -0.03331483023263848 0.3824710074625905 -0.9233666934306877
vn -0.03331483023263848 0.3824710074625905 -0.9233666934306877
vn -0.03331483023263848 0.3824710074625905 -0.9233666934306877
vn -0.03331483023263848 0.3824710074625905 -0.9233666934306877
vn -0.03331483023263848 0.3824710074625905 -0.9233666934306877
vn -0.03331483023263848 0.3824710074625905 -0.9233666934306877
vn -0.03331483023263848 0.3824710074625905 -0.9233666934306877
vn -0.03331483023263848 0.3824710074625905 -0.9233666934306877
vn -0.03331483023263848 0.3824710074625905 -0.9233666934306877
vn -0.03331483023263848 0.3824710074625905 -0.9233666934306877
vn -0.03331483023263848 0.3824710074625905 -0.9233666934306877
vn -0.03331483023263848 0.3824710074625905 -0.9233666934306877
vn -0.03331483023263848 0.3824710074625905 -0.9233666934306877
vn -0.03331483023263848 0.3824710074625905 -0.9233666934306877
vn -0.03331483023263848 0.3824710074625905 -0.9233666934306877
vn -0.03331483023263848 0.3824710074625905 -0.9233666934306877
vn -0.03331483023263848 0.3824710074625905 -0.9233666934306877
vn -0.03331483023263848 0.3824710074625905 -0.9233666934306877
vn -0.03331483023263848 0.3824710074625905 -0.9233666934306877
vn -0.03331483023263848 0.3824710074625905 -0.9233666934306877
vn -0.03331483023263848 0.3824710074625905 -0.9233666934306877
vn -0.03331483023263848 0.3824710074625905 -0.9233666934306877
vn -0.03331483023263848 0.3824710074625905 -0.9233666934306877
vn -0.03331483023263848 0.3824710074625905 -0.9233666934306877
vn -0.03331483023263848 0.3824710074625905 -0.9233666934306877
vn -0.03331483023263848 0.3824710074625905 -0.9233666934306877
vn -0.03331483023263848 0.3824710074625905 -0.9233666934306877
vn -0.03331483023263848 0.3824710074625905 -0.9233666934306877
vn -0.03331483023263848 0.3824710074625905 -0.9233666934306877
vn -0.03331483023263848 0.3824710074625905 -0.9233666934306877
vn -0.03331483023263848 0.3824710074625905 -0.9233666934306877
vn -0.03331483023263848 0.3824710074625905 -0.9233666934306877
vn 0.03331483023263848 -0.3824710074625905 0.9233666934306877
vn 0.03331483023263848 -0.3824710074625905 0.9233666934306877
vn 0.03331483023263848 -0.3824710074625905 0.9233666934306877
vn 0.03331483023263848 -0.3824710074625905 0.9233666934306877
vn 0.03331483023263848 -0.3824710074625905 0.9233666934306877
vn 0.03331483023263848 -0.3824710074625905 0.9233666934306877
vn 0.03331483023263848 -0.3824710074625905 0.9233666934306877
vn 0.03331483023263848 -0.3824710074625905 0.9233666934306877
vn 0.03331483023263848 -0.3824710074625905 0.9233666934306877
vn 0.03331483023263848 -0.3824710074625905 0.9233666934306877
vn 0.03331483023263848 -0.3824710074625905 0.9233666934306877
vn 0.03331483023263848 -0.3824710074625905 0.9233666934306877
vn 0.03331483023263848 -0.3824710074625905 0.9233666934306877
vn 0.03331483023263848 -0.3824710074625905 0.9233666934306877
vn 0.03331483023263848 -0.3824710074625905 0.9233666934306877
vn 0.03331483023263848 -0.3824710074625905 0.9233666934306877
vn 0.03331483023263848 -0.3824710074625905 0.9233666934306877
vn 0.03331483023263848 -0.3824710074625905 0.9233666934306877
vn 0.03331483023263848 -0.3824710074625905 0.9233666934306877
vn 0.03331483023263848 -0.3824710074625905 0.9233666934306877
vn 0.03331483023263848 -0.3824710074625905 0.9233666934306877
vn 0.03331483023263848 -0.3824710074625905 0.9233666934306877
vn 0.03331483023263848 -0.3824710074625905 0.9233666934306877
vn 0.03331483023263848 -0.3824710074625905 0.9233666934306877
vn 0.03331483023263848 -0.3824710074625905 0.9233666934306877
vn 0.03331483023263848 -0.3824710074625905 0.9233666934306877
vn 0.03331483023263848 -0.3824710074625905 0.9233666934306877
vn 0.03331483023263848 -0.3824710074625905 0.9233666934306877
vn 0.03331483023263848 -0.3824710074625905 0.9233666934306877
vn 0.03331483023263848 -0.3824710074625905 0.9233666934306877
vn 0.03331483023263848 -0.3824710074625905 0.9233666934306877
vn 0.03331483023263848 -0.3824710074625905 0.9233666934306877
vn 0.03331483023263848 -0.3824710074625905 0.9233666934306877
f 1//1 18//18 2//2
f 18//18 19//19 2//2
f 2//2 19//19 3//3
f 19//19 20//20 3//3
f 3//3 20//20 4//4
f 20//20 21//21 4//4
f 4//4 21//21 5//5
f 21//21 22//22 5//5
f 5//5 22//22 6//6
f 22//22 23//23 6//6
f 6//6 23//23 7//7
f 23//23 24//24 7//7
f 7//7 24//24 8//8
f 24//24 25//25 8//8
f 8//8 25//25 9//9
f 25//25 26//26 9//9
f 9//9 26//26 10//10
f 26//26 27//27 10//10
f 10//10 27//27 11//11
f 27//27 28//28 11//11
f 11//11 28//28 12//12
f 28//28 29//29 12//12
f 12//12 29//29 13//13
f 29//29 30//30 13//13
f 13//13 30//30 14//14
f 30//30 31//31 14//14
f 14//14 31//31 15//15
f 31//31 32//32 15//15
f 15//15 32//32 16//16
f 32//32 33//33 16//16
f 16//16 33//33 17//17
f 33//33 34//34 17//17
f 51//51 52//52 35//35
f 52//52 53//53 36//36
f 53//53 54//54 37//37
f 54//54 55//55 38//38
f 55//55 56//56 39//39
f 56//56 57//57 40//40
f 57//57 58//58 41//41
f 58//58 59//59 42//42
f 59//59 60//60 43//43
f 60//60 61//61 44//44
f 61//61 62//62 45//45
f 62//62 63//63 46//46
f 63//63 64//64 47//47
f 64//64 65//65 48//48
f 65//65 66//66 49//49
f 66//66 67//67 50//50
f 85//85 84//84 68//68
f 86//86 85//85 69//69
f 87//87 86//86 70//70
f 88//88 87//87 71//71
f 89//89 88//88 72//72
f 90//90 89//89 73//73
f 91//91 90//90 74//74
f 92//92 91//91 75//75
f 93//93 92//92 76//76
f 94//94 93//93 77//77
f 95//95 94//94 78//78
f 96//96 95//95 79//79
f 97//97 96//96 80//80
f 98//98 97//97 81//81
f 99//99 98//98 82//82
f 100//100 99//99 83//83
