# cabin_10
v 0 12.286796569824219 -21.113203048706055
v -0.03826834261417389 12.286796569824219 -21.12081527709961
v -0.0707106813788414 12.286796569824219 -21.142492294311523
v -0.09238795191049576 12.286796569824219 -21.17493438720703
v -0.10000000149011612 12.286796569824219 -21.21320343017578
v -0.09238795191049576 12.286796569824219 -21.25147247314453
v -0.0707106813788414 12.286796569824219 -21.28391456604004
v -0.03826834261417389 12.286796569824219 -21.305591583251953
v -1.2246467698671066e-17 12.286796569824219 -21.313203811645508
v 0.03826834261417389 12.286796569824219 -21.305591583251953
v 0.0707106813788414 12.286796569824219 -21.28391456604004
v 0.09238795191049576 12.286796569824219 -21.25147247314453
v 0.10000000149011612 12.286796569824219 -21.21320343017578
v 0.09238795191049576 12.286796569824219 -21.17493438720703
v 0.0707106813788414 12.286796569824219 -21.142492294311523
v 0.03826834261417389 12.286796569824219 -21.12081527709961
v 2.4492935397342132e-17 12.286796569824219 -21.113203048706055
v 0 13.786796569824219 -21.113203048706055
v -0.03826834261417389 13.786796569824219 -21.12081527709961
v -0.0707106813788414 13.786796569824219 -21.142492294311523
v -0.09238795191049576 13.786796569824219 -21.17493438720703
v -0.10000000149011612 13.786796569824219 -21.21320343017578
v -0.09238795191049576 13.786796569824219 -21.25147247314453
v -0.0707106813788414 13.786796569824219 -21.28391456604004
v -0.03826834261417389 13.786796569824219 -21.305591583251953
v -1.2246467698671066e-17 13.786796569824219 -21.313203811645508
v 0.03826834261417389 13.786796569824219 -21.305591583251953
v 0.0707106813788414 13.786796569824219 -21.28391456604004
v 0.09238795191049576 13.786796569824219 -21.25147247314453
v 0.10000000149011612 13.786796569824219 -21.21320343017578
v 0.09238795191049576 13.786796569824219 -21.17493438720703
v 0.0707106813788414 13.786796569824219 -21.142492294311523
v 0.03826834261417389 13.786796569824219 -21.12081527709961
v 2.4492935397342132e-17 13.786796569824219 -21.113203048706055
v 0 12.286796569824219 -21.21320343017578
v 0 12.286796569824219 -21.21320343017578
v 0 12.286796569824219 -21.21320343017578
v 0 12.286796569824219 -21.21320343017578
v 0 12.286796569824219 -21.21320343017578
v 0 12.286796569824219 -21.21320343017578
v 0 12.286796569824219 -21.21320343017578
v 0 12.286796569824219 -21.21320343017578
v 0 12.286796569824219 -21.21320343017578
v 0 12.286796569824219 -21.21320343017578
v 0 12.286796569824219 -21.21320343017578
v 0 12.286796569824219 -21.21320343017578
v 0 12.286796569824219 -21.21320343017578
v 0 12.286796569824219 -21.21320343017578
v 0 12.286796569824219 -21.21320343017578
v 0 12.286796569824219 -21.21320343017578
v 0 12.286796569824219 -21.113203048706055
v -0.03826834261417389 12.286796569824219 -21.12081527709961
v -0.0707106813788414 12.286796569824219 -21.142492294311523
v -0.09238795191049576 12.286796569824219 -21.17493438720703
v -0.10000000149011612 12.286796569824219 -21.21320343017578
v -0.09238795191049576 12.286796569824219 -21.25147247314453
v -0.0707106813788414 12.286796569824219 -21.28391456604004
v -0.03826834261417389 12.286796569824219 -21.305591583251953
v -1.2246467698671066e-17 12.286796569824219 -21.313203811645508
v 0.03826834261417389 12.286796569824219 -21.305591583251953
v 0.0707106813788414 12.286796569824219 -21.28391456604004
v 0.09238795191049576 12.286796569824219 -21.25147247314453
v 0.10000000149011612 12.286796569824219 -21.21320343017578
v 0.09238795191049576 12.286796569824219 -21.17493438720703
v 0.0707106813788414 12.286796569824219 -21.142492294311523
v 0.03826834261417389 12.286796569824219 -21.12081527709961
v 2.4492935397342132e-17 12.286796569824219 -21.113203048706055
v 0 13.786796569824219 -21.21320343017578
v 0 13.786796569824219 -21.21320343017578
v 0 13.786796569824219 -21.21320343017578
v 0 13.786796569824219 -21.21320343017578
v 0 13.786796569824219 -21.21320343017578
v 0 13.786796569824219 -21.21320343017578
v 0 13.786796569824219 -21.21320343017578
v 0 13.786796569824219 -21.21320343017578
v 0 13.786796569824219 -21.21320343017578
v 0 13.786796569824219 -21.21320343017578
v 0 13.786796569824219 -21.21320343017578
v 0 13.786796569824219 -21.21320343017578
v 0 13.786796569824219 -21.21320343017578
v 0 13.786796569824219 -21.21320343017578
v 0 13.786796569824219 -21.21320343017578
v 0 13.786796569824219 -21.21320343017578
v 0 13.786796569824219 -21.113203048706055
v -0.03826834261417389 13.786796569824219 -21.12081527709961
v -0.0707106813788414 13.786796569824219 -21.142492294311523
v -0.09238795191049576 13.786796569824219 -21.17493438720703
v -0.10000000149011612 13.786796569824219 -21.21320343017578
v -0.09238795191049576 13.786796569824219 -21.25147247314453
v -0.0707106813788414 13.786796569824219 -21.28391456604004
v -0.03826834261417389 13.786796569824219 -21.305591583251953
v -1.2246467698671066e-17 13.786796569824219 -21.313203811645508
v 0.03826834261417389 13.786796569824219 -21.305591583251953
v 0.0707106813788414 13.786796569824219 -21.28391456604004
v 0.09238795191049576 13.786796569824219 -21.25147247314453
v 0.10000000149011612 13.786796569824219 -21.21320343017578
v 0.09238795191049576 13.786796569824219 -21.17493438720703
v 0.0707106813788414 13.786796569824219 -21.142492294311523
v 0.03826834261417389 13.786796569824219 -21.12081527709961
v 2.4492935397342132e-17 13.786796569824219 -21.113203048706055
v 0 12.286796569824219 -19.96320343017578
v 0.8838834762573242 12.286796569824219 -20.329320907592773
v 1.25 12.286796569824219 -21.21320343017578
v 0.8838834762573242 12.286796569824219 -22.097087860107422
v 1.5308084995570108e-16 12.286796569824219 -22.46320343017578
v -0.8838834762573242 12.286796569824219 -22.097087860107422
v -1.25 12.286796569824219 -21.21320343017578
v -0.8838834762573242 12.286796569824219 -20.329320907592773
v -3.0616169991140216e-16 12.286796569824219 -19.96320343017578
v 0 9.786796569824219 -19.96320343017578
v 0.8838834762573242 9.786796569824219 -20.329320907592773
v 1.25 9.786796569824219 -21.21320343017578
v 0.8838834762573242 9.786796569824219 -22.097087860107422
v 1.5308084995570108e-16 9.786796569824219 -22.46320343017578
v -0.8838834762573242 9.786796569824219 -22.097087860107422
v -1.25 9.786796569824219 -21.21320343017578
v -0.8838834762573242 9.786796569824219 -20.329320907592773
v -3.0616169991140216e-16 9.786796569824219 -19.96320343017578
v 0 12.286796569824219 -21.21320343017578
v 0 12.286796569824219 -21.21320343017578
v 0 12.286796569824219 -21.21320343017578
v 0 12.286796569824219 -21.21320343017578
v 0 12.286796569824219 -21.21320343017578
v 0 12.286796569824219 -21.21320343017578
v 0 12.286796569824219 -21.21320343017578
v 0 12.286796569824219 -21.21320343017578
v 0 12.286796569824219 -19.96320343017578
v 0.8838834762573242 12.286796569824219 -20.329320907592773
v 1.25 12.286796569824219 -21.21320343017578
v 0.8838834762573242 12.286796569824219 -22.097087860107422
v 1.5308084995570108e-16 12.286796569824219 -22.46320343017578
v -0.8838834762573242 12.286796569824219 -22.097087860107422
v -1.25 12.286796569824219 -21.21320343017578
v -0.8838834762573242 12.286796569824219 -20.329320907592773
v -3.0616169991140216e-16 12.286796569824219 -19.96320343017578
v 0 9.786796569824219 -21.21320343017578
v 0 9.786796569824219 -21.21320343017578
v 0 9.786796569824219 -21.21320343017578
v 0 9.786796569824219 -21.21320343017578
v 0 9.786796569824219 -21.21320343017578
v 0 9.786796569824219 -21.21320343017578
v 0 9.786796569824219 -21.21320343017578
v 0 9.786796569824219 -21.21320343017578
v 0 9.786796569824219 -19.96320343017578
v 0.8838834762573242 9.786796569824219 -20.329320907592773
v 1.25 9.786796569824219 -21.21320343017578
v 0.8838834762573242 9.786796569824219 -22.097087860107422
v 1.5308084995570108e-16 9.786796569824219 -22.46320343017578
v -0.8838834762573242 9.786796569824219 -22.097087860107422
v -1.25 9.786796569824219 -21.21320343017578
v -0.8838834762573242 9.786796569824219 -20.329320907592773
v -3.0616169991140216e-16 9.786796569824219 -19.96320343017578
v 0 12.536796569824219 -21.21320343017578
v 0 12.536796569824219 -21.21320343017578
v 0 12.536796569824219 -21.21320343017578
v 0 12.536796569824219 -21.21320343017578
v 0 12.536796569824219 -21.21320343017578
v 0 12.536796569824219 -21.21320343017578
v 0 12.536796569824219 -21.21320343017578
v 0 12.536796569824219 -21.21320343017578
v 0 12.536796569824219 -21.21320343017578
v 0 12.036796569824219 -19.83820343017578
v 0.9722718000411987 12.036796569824219 -20.24093246459961
v 1.375 12.036796569824219 -21.21320343017578
v 0.9722718000411987 12.036796569824219 -22.185474395751953
v 1.6838893230429323e-16 12.036796569824219 -22.58820343017578
v -0.9722718000411987 12.036796569824219 -22.185474395751953
v -1.375 12.036796569824219 -21.21320343017578
v -0.9722718000411987 12.036796569824219 -20.24093246459961
v -3.3677786460858646e-16 12.036796569824219 -19.83820343017578
v 0 12.036796569824219 -21.21320343017578
v 0 12.036796569824219 -21.21320343017578
v 0 12.036796569824219 -21.21320343017578
v 0 12.036796569824219 -21.21320343017578
v 0 12.036796569824219 -21.21320343017578
v 0 12.036796569824219 -21.21320343017578
v 0 12.036796569824219 -21.21320343017578
v 0 12.036796569824219 -21.21320343017578
v 0 12.036796569824219 -19.83820343017578
v 0.9722718000411987 12.036796569824219 -20.24093246459961
v 1.375 12.036796569824219 -21.21320343017578
v 0.9722718000411987 12.036796569824219 -22.185474395751953
v 1.6838893230429323e-16 12.036796569824219 -22.58820343017578
v -0.9722718000411987 12.036796569824219 -22.185474395751953
v -1.375 12.036796569824219 -21.21320343017578
v -0.9722718000411987 12.036796569824219 -20.24093246459961
v -3.3677786460858646e-16 12.036796569824219 -19.83820343017578
v 0 9.836796760559082 -19.96320343017578
v 0.8838834762573242 9.836796760559082 -20.329320907592773
v 1.25 9.836796760559082 -21.21320343017578
v 0.8838834762573242 9.836796760559082 -22.097087860107422
v 1.5308084995570108e-16 9.836796760559082 -22.46320343017578
v -0.8838834762573242 9.836796760559082 -22.097087860107422
v -1.25 9.836796760559082 -21.21320343017578
v -0.8838834762573242 9.836796760559082 -20.329320907592773
v -3.0616169991140216e-16 9.836796760559082 -19.96320343017578
v 0 9.736796379089355 -19.96320343017578
v 0.8838834762573242 9.736796379089355 -20.329320907592773
v 1.25 9.736796379089355 -21.21320343017578
v 0.8838834762573242 9.736796379089355 -22.097087860107422
v 1.5308084995570108e-16 9.736796379089355 -22.46320343017578
v -0.8838834762573242 9.736796379089355 -22.097087860107422
v -1.25 9.736796379089355 -21.21320343017578
v -0.8838834762573242 9.736796379089355 -20.329320907592773
v -3.0616169991140216e-16 9.736796379089355 -19.96320343017578
v 0 9.836796760559082 -21.21320343017578
v 0 9.836796760559082 -21.21320343017578
v 0 9.836796760559082 -21.21320343017578
v 0 9.836796760559082 -21.21320343017578
v 0 9.836796760559082 -21.21320343017578
v 0 9.836796760559082 -21.21320343017578
v 0 9.836796760559082 -21.21320343017578
v 0 9.836796760559082 -21.21320343017578
v 0 9.836796760559082 -19.96320343017578
v 0.8838834762573242 9.836796760559082 -20.329320907592773
v 1.25 9.836796760559082 -21.21320343017578
v 0.8838834762573242 9.836796760559082 -22.097087860107422
v 1.5308084995570108e-16 9.836796760559082 -22.46320343017578
v -0.8838834762573242 9.836796760559082 -22.097087860107422
v -1.25 9.836796760559082 -21.21320343017578
v -0.8838834762573242 9.836796760559082 -20.329320907592773
v -3.0616169991140216e-16 9.836796760559082 -19.96320343017578
v 0 9.736796379089355 -21.21320343017578
v 0 9.736796379089355 -21.21320343017578
v 0 9.736796379089355 -21.21320343017578
v 0 9.736796379089355 -21.21320343017578
v 0 9.736796379089355 -21.21320343017578
v 0 9.736796379089355 -21.21320343017578
v 0 9.736796379089355 -21.21320343017578
v 0 9.736796379089355 -21.21320343017578
v 0 9.736796379089355 -19.96320343017578
v 0.8838834762573242 9.736796379089355 -20.329320907592773
v 1.25 9.736796379089355 -21.21320343017578
v 0.8838834762573242 9.736796379089355 -22.097087860107422
v 1.5308084995570108e-16 9.736796379089355 -22.46320343017578
v -0.8838834762573242 9.736796379089355 -22.097087860107422
v -1.25 9.736796379089355 -21.21320343017578
v -0.8838834762573242 9.736796379089355 -20.329320907592773
v -3.0616169991140216e-16 9.736796379089355 -19.96320343017578
vn 0 0 1
vn -0.3826834261417389 0 0.9238795042037964
vn -0.7071067690849304 0 0.7071067690849304
vn -0.9238795042037964 0 0.3826834261417389
vn -1 0 6.123234262925839e-17
vn -0.9238795042037964 0 -0.3826834261417389
vn -0.7071067690849304 0 -0.7071067690849304
vn -0.3826834261417389 0 -0.9238795042037964
vn -1.2246468525851679e-16 0 -1
vn 0.3826834261417389 0 -0.9238795042037964
vn 0.7071067690849304 0 -0.7071067690849304
vn 0.9238795042037964 0 -0.3826834261417389
vn 1 0 -1.8369701465288538e-16
vn 0.9238795042037964 0 0.3826834261417389
vn 0.7071067690849304 0 0.7071067690849304
vn 0.3826834261417389 0 0.9238795042037964
vn 2.4492937051703357e-16 0 1
vn 0 0 1
vn -0.3826834261417389 0 0.9238795042037964
vn -0.7071067690849304 0 0.7071067690849304
vn -0.9238795042037964 0 0.3826834261417389
vn -1 0 6.123234262925839e-17
vn -0.9238795042037964 0 -0.3826834261417389
vn -0.7071067690849304 0 -0.7071067690849304
vn -0.3826834261417389 0 -0.9238795042037964
vn -1.2246468525851679e-16 0 -1
vn 0.3826834261417389 0 -0.9238795042037964
vn 0.7071067690849304 0 -0.7071067690849304
vn 0.9238795042037964 0 -0.3826834261417389
vn 1 0 -1.8369701465288538e-16
vn 0.9238795042037964 0 0.3826834261417389
vn 0.7071067690849304 0 0.7071067690849304
vn 0.3826834261417389 0 0.9238795042037964
vn 2.4492937051703357e-16 0 1
vn 0 -1 0
vn 0 -1 0
vn 0 -1 0
vn 0 -1 0
vn 0 -1 0
vn 0 -1 0
vn 0 -1 0
vn 0 -1 0
vn 0 -1 0
vn 0 -1 0
vn 0 -1 0
vn 0 -1 0
vn 0 -1 0
vn 0 -1 0
vn 0 -1 0
vn 0 -1 0
vn 0 -1 0
vn 0 -1 0
vn 0 -1 0
vn 0 -1 0
vn 0 -1 0
vn 0 -1 0
vn 0 -1 0
vn 0 -1 0
vn 0 -1 0
vn 0 -1 0
vn 0 -1 0
vn 0 -1 0
vn 0 -1 0
vn 0 -1 0
vn 0 -1 0
vn 0 -1 0
vn 0 -1 0
vn 0 1 0
vn 0 1 0
vn 0 1 0
vn 0 1 0
vn 0 1 0
vn 0 1 0
vn 0 1 0
vn 0 1 0
vn 0 1 0
vn 0 1 0
vn 0 1 0
vn 0 1 0
vn 0 1 0
vn 0 1 0
vn 0 1 0
vn 0 1 0
vn 0 1 0
vn 0 1 0
vn 0 1 0
vn 0 1 0
vn 0 1 0
vn 0 1 0
vn 0 1 0
vn 0 1 0
vn 0 1 0
vn 0 1 0
vn 0 1 0
vn 0 1 0
vn 0 1 0
vn 0 1 0
vn 0 1 0
vn 0 1 0
vn 0 1 0
vn 0 0 1
vn 0.7071067690849304 0 0.7071067690849304
vn 1 0 6.123234262925839e-17
vn 0.7071067690849304 0 -0.7071067690849304
vn 1.2246468525851679e-16 0 -1
vn -0.7071067690849304 0 -0.7071067690849304
vn -1 0 -1.8369701465288538e-16
vn -0.7071067690849304 0 0.7071067690849304
vn -2.4492937051703357e-16 0 1
vn 0 0 1
vn 0.7071067690849304 0 0.7071067690849304
vn 1 0 6.123234262925839e-17
vn 0.7071067690849304 0 -0.7071067690849304
vn 1.2246468525851679e-16 0 -1
vn -0.7071067690849304 0 -0.7071067690849304
vn -1 0 -1.8369701465288538e-16
vn -0.7071067690849304 0 0.7071067690849304
vn -2.4492937051703357e-16 0 1
vn 0 1 0
vn 0 1 0
vn 0 1 0
vn 0 1 0
vn 0 1 0
vn 0 1 0
vn 0 1 0
vn 0 1 0
vn 0 1 0
vn 0 1 0
vn 0 1 0
vn 0 1 0
vn 0 1 0
vn 0 1 0
vn 0 1 0
vn 0 1 0
vn 0 1 0
vn 0 -1 0
vn 0 -1 0
vn 0 -1 0
vn 0 -1 0
vn 0 -1 0
vn 0 -1 0
vn 0 -1 0
vn 0 -1 0
vn 0 -1 0
vn 0 -1 0
vn 0 -1 0
vn 0 -1 0
vn 0 -1 0
vn 0 -1 0
vn 0 -1 0
vn 0 -1 0
vn 0 -1 0
vn 0 0.9397934079170227 0.3417430520057678
vn 0.2416488379240036 0.9397934079170227 0.2416488379240036
vn 0.3417430520057678 0.9397934079170227 2.0925727277513326e-17
vn 0.2416488379240036 0.9397934079170227 -0.2416488379240036
vn 4.185145455502665e-17 0.9397934079170227 -0.3417430520057678
vn -0.2416488379240036 0.9397934079170227 -0.2416488379240036
vn -0.3417430520057678 0.9397934079170227 -6.277718514126243e-17
vn -0.2416488379240036 0.9397934079170227 0.2416488379240036
vn -8.37029091100533e-17 0.9397934079170227 0.3417430520057678
vn 0 0.9397934079170227 0.3417430520057678
vn 0.2416488379240036 0.9397934079170227 0.2416488379240036
vn 0.3417430520057678 0.9397934079170227 2.0925727277513326e-17
vn 0.2416488379240036 0.9397934079170227 -0.2416488379240036
vn 4.185145455502665e-17 0.9397934079170227 -0.3417430520057678
vn -0.2416488379240036 0.9397934079170227 -0.2416488379240036
vn -0.3417430520057678 0.9397934079170227 -6.277718514126243e-17
vn -0.2416488379240036 0.9397934079170227 0.2416488379240036
vn -8.37029091100533e-17 0.9397934079170227 0.3417430520057678
vn 0 -1 0
vn 0 -1 0
vn 0 -1 0
vn 0 -1 0
vn 0 -1 0
vn 0 -1 0
vn 0 -1 0
vn 0 -1 0
vn 0 -1 0
vn 0 -1 0
vn 0 -1 0
vn 0 -1 0
vn 0 -1 0
vn 0 -1 0
vn 0 -1 0
vn 0 -1 0
vn 0 -1 0
vn 0 0 1
vn 0.7071067690849304 0 0.7071067690849304
vn 1 0 6.123234262925839e-17
vn 0.7071067690849304 0 -0.7071067690849304
vn 1.2246468525851679e-16 0 -1
vn -0.7071067690849304 0 -0.7071067690849304
vn -1 0 -1.8369701465288538e-16
vn -0.7071067690849304 0 0.7071067690849304
vn -2.4492937051703357e-16 0 1
vn 0 0 1
vn 0.7071067690849304 0 0.7071067690849304
vn 1 0 6.123234262925839e-17
vn 0.7071067690849304 0 -0.7071067690849304
vn 1.2246468525851679e-16 0 -1
vn -0.7071067690849304 0 -0.7071067690849304
vn -1 0 -1.8369701465288538e-16
vn -0.7071067690849304 0 0.7071067690849304
vn -2.4492937051703357e-16 0 1
vn 0 1 0
vn 0 1 0
vn 0 1 0
vn 0 1 0
vn 0 1 0
vn 0 1 0
vn 0 1 0
vn 0 1 0
vn 0 1 0
vn 0 1 0
vn 0 1 0
vn 0 1 0
vn 0 1 0
vn 0 1 0
vn 0 1 0
vn 0 1 0
vn 0 1 0
vn 0 -1 0
vn 0 -1 0
vn 0 -1 0
vn 0 -1 0
vn 0 -1 0
vn 0 -1 0
vn 0 -1 0
vn 0 -1 0
vn 0 -1 0
vn 0 -1 0
vn 0 -1 0
vn 0 -1 0
vn 0 -1 0
vn 0 -1 0
vn 0 -1 0
vn 0 -1 0
vn 0 -1 0
f 1//1 18//18 2//2
f 18//18 19//19 2//2
f 2//2 19//19 3//3
f 19//19 20//20 3//3
f 3//3 20//20 4//4
f 20//20 21//21 4//4
f 4//4 21//21 5//5
f 21//21 22//22 5//5
f 5//5 22//22 6//6
f 22//22 23//23 6//6
f 6//6 23//23 7//7
f 23//23 24//24 7//7
f 7//7 24//24 8//8
f 24//24 25//25 8//8
f 8//8 25//25 9//9
f 25//25 26//26 9//9
f 9//9 26//26 10//10
f 26//26 27//27 10//10
f 10//10 27//27 11//11
f 27//27 28//28 11//11
f 11//11 28//28 12//12
f 28//28 29//29 12//12
f 12//12 29//29 13//13
f 29//29 30//30 13//13
f 13//13 30//30 14//14
f 30//30 31//31 14//14
f 14//14 31//31 15//15
f 31//31 32//32 15//15
f 15//15 32//32 16//16
f 32//32 33//33 16//16
f 16//16 33//33 17//17
f 33//33 34//34 17//17
f 51//51 52//52 35//35
f 52//52 53//53 36//36
f 53//53 54//54 37//37
f 54//54 55//55 38//38
f 55//55 56//56 39//39
f 56//56 57//57 40//40
f 57//57 58//58 41//41
f 58//58 59//59 42//42
f 59//59 60//60 43//43
f 60//60 61//61 44//44
f 61//61 62//62 45//45
f 62//62 63//63 46//46
f 63//63 64//64 47//47
f 64//64 65//65 48//48
f 65//65 66//66 49//49
f 66//66 67//67 50//50
f 85//85 84//84 68//68
f 86//86 85//85 69//69
f 87//87 86//86 70//70
f 88//88 87//87 71//71
f 89//89 88//88 72//72
f 90//90 89//89 73//73
f 91//91 90//90 74//74
f 92//92 91//91 75//75
f 93//93 92//92 76//76
f 94//94 93//93 77//77
f 95//95 94//94 78//78
f 96//96 95//95 79//79
f 97//97 96//96 80//80
f 98//98 97//97 81//81
f 99//99 98//98 82//82
f 100//100 99//99 83//83
f 101//101 110//110 102//102
f 110//110 111//111 102//102
f 102//102 111//111 103//103
f 111//111 112//112 103//103
f 103//103 112//112 104//104
f 112//112 113//113 104//104
f 104//104 113//113 105//105
f 113//113 114//114 105//105
f 105//105 114//114 106//106
f 114//114 115//115 106//106
f 106//106 115//115 107//107
f 115//115 116//116 107//107
f 107//107 116//116 108//108
f 116//116 117//117 108//108
f 108//108 117//117 109//109
f 117//117 118//118 109//109
f 127//127 128//128 119//119
f 128//128 129//129 120//120
f 129//129 130//130 121//121
f 130//130 131//131 122//122
f 131//131 132//132 123//123
f 132//132 133//133 124//124
f 133//133 134//134 125//125
f 134//134 135//135 126//126
f 145//145 144//144 136//136
f 146//146 145//145 137//137
f 147//147 146//146 138//138
f 148//148 147//147 139//139
f 149//149 148//148 140//140
f 150//150 149//149 141//141
f 151//151 150//150 142//142
f 152//152 151//151 143//143
f 162//162 163//163 154//154
f 163//163 164//164 155//155
f 164//164 165//165 156//156
f 165//165 166//166 157//157
f 166//166 167//167 158//158
f 167//167 168//168 159//159
f 168//168 169//169 160//160
f 169//169 170//170 161//161
f 180//180 179//179 171//171
f 181//181 180//180 172//172
f 182//182 181//181 173//173
f 183//183 182//182 174//174
f 184//184 183//183 175//175
f 185//185 184//184 176//176
f 186//186 185//185 177//177
f 187//187 186//186 178//178
f 188//188 197//197 189//189
f 197//197 198//198 189//189
f 189//189 198//198 190//190
f 198//198 199//199 190//190
f 190//190 199//199 191//191
f 199//199 200//200 191//191
f 191//191 200//200 192//192
f 200//200 201//201 192//192
f 192//192 201//201 193//193
f 201//201 202//202 193//193
f 193//193 202//202 194//194
f 202//202 203//203 194//194
f 194//194 203//203 195//195
f 203//203 204//204 195//195
f 195//195 204//204 196//196
f 204//204 205//205 196//196
f 214//214 215//215 206//206
f 215//215 216//216 207//207
f 216//216 217//217 208//208
f 217//217 218//218 209//209
f 218//218 219//219 210//210
f 219//219 220//220 211//211
f 220//220 221//221 212//212
f 221//221 222//222 213//213
f 232//232 231//231 223//223
f 233//233 232//232 224//224
f 234//234 233//233 225//225
f 235//235 234//234 226//226
f 236//236 235//235 227//227
f 237//237 236//236 228//228
f 238//238 237//237 229//229
f 239//239 238//238 230//230
