v 0.000000 35.000000 -31.000000
v 0.000000 35.382683 -30.923880
v 0.000000 35.707107 -30.707107
v 0.000000 35.923880 -30.382683
v 0.000000 36.000000 -30.000000
v 0.000000 35.923880 -29.617317
v 0.000000 35.707107 -29.292893
v 0.000000 35.382683 -29.076120
v 0.000000 35.000000 -29.000000
v 0.000000 34.617317 -29.076120
v 0.000000 34.292893 -29.292893
v 0.000000 34.076120 -29.617317
v 0.000000 34.000000 -30.000000
v 0.000000 34.076120 -30.382683
v 0.000000 34.292893 -30.707107
v 0.000000 34.617317 -30.923880
v 1.946506 35.000000 -30.938829
v 1.941726 35.382683 -30.862858
v 1.928115 35.707107 -30.646513
v 1.907744 35.923880 -30.322730
v 1.883716 36.000000 -29.940802
v 1.859687 35.923880 -29.558874
v 1.839316 35.707107 -29.235090
v 1.825705 35.382683 -29.018745
v 1.820925 35.000000 -28.942775
v 1.825705 34.617317 -29.018745
v 1.839316 34.292893 -29.235090
v 1.859687 34.076120 -29.558874
v 1.883716 34.000000 -29.940802
v 1.907744 34.076120 -30.322730
v 1.928115 34.292893 -30.646513
v 1.941726 34.617317 -30.862858
v 3.885330 35.000000 -30.755556
v 3.875790 35.382683 -30.680036
v 3.848621 35.707107 -30.464972
v 3.807960 35.923880 -30.143107
v 3.759997 36.000000 -29.763441
v 3.712034 35.923880 -29.383775
v 3.671373 35.707107 -29.061910
v 3.644204 35.382683 -28.846847
v 3.634664 35.000000 -28.771326
v 3.644204 34.617317 -28.846847
v 3.671373 34.292893 -29.061910
v 3.712034 34.076120 -29.383775
v 3.759997 34.000000 -29.763441
v 3.807960 34.076120 -30.143107
v 3.848621 34.292893 -30.464972
v 3.875790 34.617317 -30.680036
v 5.808821 35.000000 -30.450905
v 5.794557 35.382683 -30.376133
v 5.753938 35.707107 -30.163199
v 5.693147 35.923880 -29.844523
v 5.621439 36.000000 -29.468618
v 5.549732 35.923880 -29.092712
v 5.488941 35.707107 -28.774036
v 5.448322 35.382683 -28.561102
v 5.434058 35.000000 -28.486330
v 5.448322 34.617317 -28.561102
v 5.488941 34.292893 -28.774036
v 5.549732 34.076120 -29.092712
v 5.621439 34.000000 -29.468618
v 5.693147 34.076120 -29.844523
v 5.753938 34.292893 -30.163199
v 5.794557 34.617317 -30.376133
v 7.709387 35.000000 -30.026078
v 7.690456 35.382683 -29.952349
v 7.636547 35.707107 -29.742387
v 7.555866 35.923880 -29.428156
v 7.460697 36.000000 -29.057495
v 7.365527 35.923880 -28.686834
v 7.284846 35.707107 -28.372603
v 7.230937 35.382683 -28.162641
v 7.212007 35.000000 -28.088912
v 7.230937 34.617317 -28.162641
v 7.284846 34.292893 -28.372603
v 7.365527 34.076120 -28.686834
v 7.460697 34.000000 -29.057495
v 7.555866 34.076120 -29.428156
v 7.636547 34.292893 -29.742387
v 7.690456 34.617317 -29.952349
v 9.579527 35.000000 -29.482752
v 9.556004 35.382683 -29.410357
v 9.489018 35.707107 -29.204194
v 9.388766 35.923880 -28.895649
v 9.270510 36.000000 -28.531695
v 9.152254 35.923880 -28.167742
v 9.052002 35.707107 -27.859197
v 8.985015 35.382683 -27.653034
v 8.961493 35.000000 -27.580639
v 8.985015 34.617317 -27.653034
v 9.052002 34.292893 -27.859197
v 9.152254 34.076120 -28.167742
v 9.270510 34.000000 -28.531695
v 9.388766 34.076120 -28.895649
v 9.489018 34.292893 -29.204194
v 9.556004 34.617317 -29.410357
v 11.411861 35.000000 -28.823071
v 11.383839 35.382683 -28.752296
v 11.304040 35.707107 -28.550746
v 11.184612 35.923880 -28.249105
v 11.043737 36.000000 -27.893295
v 10.902861 35.923880 -27.537485
v 10.783433 35.707107 -27.235843
v 10.703634 35.382683 -27.034293
v 10.675612 35.000000 -26.963518
v 10.703634 34.617317 -27.034293
v 10.783433 34.292893 -27.235843
v 10.902861 34.076120 -27.537485
v 11.043737 34.000000 -27.893295
v 11.184612 34.076120 -28.249105
v 11.304040 34.292893 -28.550746
v 11.383839 34.617317 -28.752296
v 13.199158 35.000000 -28.049639
v 13.166748 35.382683 -27.980763
v 13.074450 35.707107 -27.784621
v 12.936317 35.923880 -27.491074
v 12.773379 36.000000 -27.144812
v 12.610440 35.923880 -26.798549
v 12.472307 35.707107 -26.505002
v 12.380010 35.382683 -26.308860
v 12.347599 35.000000 -26.239985
v 12.380010 34.617317 -26.308860
v 12.472307 34.292893 -26.505002
v 12.610440 34.076120 -26.798549
v 12.773379 34.000000 -27.144812
v 12.936317 34.076120 -27.491074
v 13.074450 34.292893 -27.784621
v 13.166748 34.617317 -27.980763
v 14.934364 35.000000 -27.165507
v 14.897693 35.382683 -27.098802
v 14.793262 35.707107 -26.908843
v 14.636969 35.923880 -26.624548
v 14.452610 36.000000 -26.289200
v 14.268251 35.923880 -25.953852
v 14.111959 35.707107 -25.669558
v 14.007528 35.382683 -25.479599
v 13.970857 35.000000 -25.412894
v 14.007528 34.617317 -25.479599
v 14.111959 34.292893 -25.669558
v 14.268251 34.076120 -25.953852
v 14.452610 34.000000 -26.289200
v 14.636969 34.076120 -26.624548
v 14.793262 34.292893 -26.908843
v 14.897693 34.617317 -27.098802
v 16.610631 35.000000 -26.174166
v 16.569843 35.382683 -26.109895
v 16.453691 35.707107 -25.926868
v 16.279856 35.923880 -25.652948
v 16.074804 36.000000 -25.329838
v 15.869752 35.923880 -25.006727
v 15.695917 35.707107 -24.732808
v 15.579764 35.382683 -24.549780
v 15.538977 35.000000 -24.485510
v 15.579764 34.617317 -24.549780
v 15.695917 34.292893 -24.732808
v 15.869752 34.076120 -25.006727
v 16.074804 34.000000 -25.329838
v 16.279856 34.076120 -25.652948
v 16.453691 34.292893 -25.926868
v 16.569843 34.617317 -26.109895
v 18.221343 35.000000 -25.079527
v 18.176600 35.382683 -25.017944
v 18.049185 35.707107 -24.842571
v 17.858493 35.923880 -24.580107
v 17.633558 36.000000 -24.270510
v 17.408622 35.923880 -23.960912
v 17.217931 35.707107 -23.698448
v 17.090515 35.382683 -23.523076
v 17.045772 35.000000 -23.461493
v 17.090515 34.617317 -23.523076
v 17.217931 34.292893 -23.698448
v 17.408622 34.076120 -23.960912
v 17.633558 34.000000 -24.270510
v 17.858493 34.076120 -24.580107
v 18.049185 34.292893 -24.842571
v 18.176600 34.617317 -25.017944
v 19.760144 35.000000 -23.885911
v 19.711623 35.382683 -23.827259
v 19.573447 35.707107 -23.660232
v 19.366651 35.923880 -23.410260
v 19.122720 36.000000 -23.115397
v 18.878788 35.923880 -22.820535
v 18.671993 35.707107 -22.570562
v 18.533817 35.382683 -22.403536
v 18.485296 35.000000 -22.344884
v 18.533817 34.617317 -22.403536
v 18.671993 34.292893 -22.570562
v 18.878788 34.076120 -22.820535
v 19.122720 34.000000 -23.115397
v 19.366651 34.076120 -23.410260
v 19.573447 34.292893 -23.660232
v 19.711623 34.617317 -23.827259
v 21.220960 35.000000 -22.598027
v 21.168852 35.382683 -22.542538
v 21.020461 35.707107 -22.384517
v 20.798378 35.923880 -22.148023
v 20.536413 36.000000 -21.869059
v 20.274448 35.923880 -21.590095
v 20.052365 35.707107 -21.353600
v 19.903974 35.382683 -21.195580
v 19.851866 35.000000 -21.140090
v 19.903974 34.617317 -21.195580
v 20.052365 34.292893 -21.353600
v 20.274448 34.076120 -21.590095
v 20.536413 34.000000 -21.869059
v 20.798378 34.076120 -22.148023
v 21.020461 34.292893 -22.384517
v 21.168852 34.617317 -22.542538
v 22.598027 35.000000 -21.220960
v 22.542538 35.382683 -21.168852
v 22.384517 35.707107 -21.020461
v 22.148023 35.923880 -20.798378
v 21.869059 36.000000 -20.536413
v 21.590095 35.923880 -20.274448
v 21.353600 35.707107 -20.052365
v 21.195580 35.382683 -19.903974
v 21.140090 35.000000 -19.851866
v 21.195580 34.617317 -19.903974
v 21.353600 34.292893 -20.052365
v 21.590095 34.076120 -20.274448
v 21.869059 34.000000 -20.536413
v 22.148023 34.076120 -20.798378
v 22.384517 34.292893 -21.020461
v 22.542538 34.617317 -21.168852
v 23.885911 35.000000 -19.760144
v 23.827259 35.382683 -19.711623
v 23.660232 35.707107 -19.573447
v 23.410260 35.923880 -19.366651
v 23.115397 36.000000 -19.122720
v 22.820535 35.923880 -18.878788
v 22.570562 35.707107 -18.671993
v 22.403536 35.382683 -18.533817
v 22.344884 35.000000 -18.485296
v 22.403536 34.617317 -18.533817
v 22.570562 34.292893 -18.671993
v 22.820535 34.076120 -18.878788
v 23.115397 34.000000 -19.122720
v 23.410260 34.076120 -19.366651
v 23.660232 34.292893 -19.573447
v 23.827259 34.617317 -19.711623
v 25.079527 35.000000 -18.221343
v 25.017944 35.382683 -18.176600
v 24.842571 35.707107 -18.049185
v 24.580107 35.923880 -17.858493
v 24.270510 36.000000 -17.633558
v 23.960912 35.923880 -17.408622
v 23.698448 35.707107 -17.217931
v 23.523076 35.382683 -17.090515
v 23.461493 35.000000 -17.045772
v 23.523076 34.617317 -17.090515
v 23.698448 34.292893 -17.217931
v 23.960912 34.076120 -17.408622
v 24.270510 34.000000 -17.633558
v 24.580107 34.076120 -17.858493
v 24.842571 34.292893 -18.049185
v 25.017944 34.617317 -18.176600
v 26.174166 35.000000 -16.610631
v 26.109895 35.382683 -16.569843
v 25.926868 35.707107 -16.453691
v 25.652948 35.923880 -16.279856
v 25.329838 36.000000 -16.074804
v 25.006727 35.923880 -15.869752
v 24.732808 35.707107 -15.695917
v 24.549780 35.382683 -15.579764
v 24.485510 35.000000 -15.538977
v 24.549780 34.617317 -15.579764
v 24.732808 34.292893 -15.695917
v 25.006727 34.076120 -15.869752
v 25.329838 34.000000 -16.074804
v 25.652948 34.076120 -16.279856
v 25.926868 34.292893 -16.453691
v 26.109895 34.617317 -16.569843
v 27.165507 35.000000 -14.934364
v 27.098802 35.382683 -14.897693
v 26.908843 35.707107 -14.793262
v 26.624548 35.923880 -14.636969
v 26.289200 36.000000 -14.452610
v 25.953852 35.923880 -14.268251
v 25.669558 35.707107 -14.111959
v 25.479599 35.382683 -14.007528
v 25.412894 35.000000 -13.970857
v 25.479599 34.617317 -14.007528
v 25.669558 34.292893 -14.111959
v 25.953852 34.076120 -14.268251
v 26.289200 34.000000 -14.452610
v 26.624548 34.076120 -14.636969
v 26.908843 34.292893 -14.793262
v 27.098802 34.617317 -14.897693
v 28.049639 35.000000 -13.199158
v 27.980763 35.382683 -13.166748
v 27.784621 35.707107 -13.074450
v 27.491074 35.923880 -12.936317
v 27.144812 36.000000 -12.773379
v 26.798549 35.923880 -12.610440
v 26.505002 35.707107 -12.472307
v 26.308860 35.382683 -12.380010
v 26.239985 35.000000 -12.347599
v 26.308860 34.617317 -12.380010
v 26.505002 34.292893 -12.472307
v 26.798549 34.076120 -12.610440
v 27.144812 34.000000 -12.773379
v 27.491074 34.076120 -12.936317
v 27.784621 34.292893 -13.074450
v 27.980763 34.617317 -13.166748
v 28.823071 35.000000 -11.411861
v 28.752296 35.382683 -11.383839
v 28.550746 35.707107 -11.304040
v 28.249105 35.923880 -11.184612
v 27.893295 36.000000 -11.043737
v 27.537485 35.923880 -10.902861
v 27.235843 35.707107 -10.783433
v 27.034293 35.382683 -10.703634
v 26.963518 35.000000 -10.675612
v 27.034293 34.617317 -10.703634
v 27.235843 34.292893 -10.783433
v 27.537485 34.076120 -10.902861
v 27.893295 34.000000 -11.043737
v 28.249105 34.076120 -11.184612
v 28.550746 34.292893 -11.304040
v 28.752296 34.617317 -11.383839
v 29.482752 35.000000 -9.579527
v 29.410357 35.382683 -9.556004
v 29.204194 35.707107 -9.489018
v 28.895649 35.923880 -9.388766
v 28.531695 36.000000 -9.270510
v 28.167742 35.923880 -9.152254
v 27.859197 35.707107 -9.052002
v 27.653034 35.382683 -8.985015
v 27.580639 35.000000 -8.961493
v 27.653034 34.617317 -8.985015
v 27.859197 34.292893 -9.052002
v 28.167742 34.076120 -9.152254
v 28.531695 34.000000 -9.270510
v 28.895649 34.076120 -9.388766
v 29.204194 34.292893 -9.489018
v 29.410357 34.617317 -9.556004
v 30.026078 35.000000 -7.709387
v 29.952349 35.382683 -7.690456
v 29.742387 35.707107 -7.636547
v 29.428156 35.923880 -7.555866
v 29.057495 36.000000 -7.460697
v 28.686834 35.923880 -7.365527
v 28.372603 35.707107 -7.284846
v 28.162641 35.382683 -7.230937
v 28.088912 35.000000 -7.212007
v 28.162641 34.617317 -7.230937
v 28.372603 34.292893 -7.284846
v 28.686834 34.076120 -7.365527
v 29.057495 34.000000 -7.460697
v 29.428156 34.076120 -7.555866
v 29.742387 34.292893 -7.636547
v 29.952349 34.617317 -7.690456
v 30.450905 35.000000 -5.808821
v 30.376133 35.382683 -5.794557
v 30.163199 35.707107 -5.753938
v 29.844523 35.923880 -5.693147
v 29.468618 36.000000 -5.621439
v 29.092712 35.923880 -5.549732
v 28.774036 35.707107 -5.488941
v 28.561102 35.382683 -5.448322
v 28.486330 35.000000 -5.434058
v 28.561102 34.617317 -5.448322
v 28.774036 34.292893 -5.488941
v 29.092712 34.076120 -5.549732
v 29.468618 34.000000 -5.621439
v 29.844523 34.076120 -5.693147
v 30.163199 34.292893 -5.753938
v 30.376133 34.617317 -5.794557
v 30.755556 35.000000 -3.885330
v 30.680036 35.382683 -3.875790
v 30.464972 35.707107 -3.848621
v 30.143107 35.923880 -3.807960
v 29.763441 36.000000 -3.759997
v 29.383775 35.923880 -3.712034
v 29.061910 35.707107 -3.671373
v 28.846847 35.382683 -3.644204
v 28.771326 35.000000 -3.634664
v 28.846847 34.617317 -3.644204
v 29.061910 34.292893 -3.671373
v 29.383775 34.076120 -3.712034
v 29.763441 34.000000 -3.759997
v 30.143107 34.076120 -3.807960
v 30.464972 34.292893 -3.848621
v 30.680036 34.617317 -3.875790
v 30.938829 35.000000 -1.946506
v 30.862858 35.382683 -1.941726
v 30.646513 35.707107 -1.928115
v 30.322730 35.923880 -1.907744
v 29.940802 36.000000 -1.883716
v 29.558874 35.923880 -1.859687
v 29.235090 35.707107 -1.839316
v 29.018745 35.382683 -1.825705
v 28.942775 35.000000 -1.820925
v 29.018745 34.617317 -1.825705
v 29.235090 34.292893 -1.839316
v 29.558874 34.076120 -1.859687
v 29.940802 34.000000 -1.883716
v 30.322730 34.076120 -1.907744
v 30.646513 34.292893 -1.928115
v 30.862858 34.617317 -1.941726
v 31.000000 35.000000 0.000000
v 30.923880 35.382683 0.000000
v 30.707107 35.707107 0.000000
v 30.382683 35.923880 0.000000
v 30.000000 36.000000 0.000000
v 29.617317 35.923880 0.000000
v 29.292893 35.707107 0.000000
v 29.076120 35.382683 0.000000
v 29.000000 35.000000 0.000000
v 29.076120 34.617317 0.000000
v 29.292893 34.292893 0.000000
v 29.617317 34.076120 0.000000
v 30.000000 34.000000 0.000000
v 30.382683 34.076120 0.000000
v 30.707107 34.292893 0.000000
v 30.923880 34.617317 0.000000
v 30.938829 35.000000 1.946506
v 30.862858 35.382683 1.941726
v 30.646513 35.707107 1.928115
v 30.322730 35.923880 1.907744
v 29.940802 36.000000 1.883716
v 29.558874 35.923880 1.859687
v 29.235090 35.707107 1.839316
v 29.018745 35.382683 1.825705
v 28.942775 35.000000 1.820925
v 29.018745 34.617317 1.825705
v 29.235090 34.292893 1.839316
v 29.558874 34.076120 1.859687
v 29.940802 34.000000 1.883716
v 30.322730 34.076120 1.907744
v 30.646513 34.292893 1.928115
v 30.862858 34.617317 1.941726
v 30.755556 35.000000 3.885330
v 30.680036 35.382683 3.875790
v 30.464972 35.707107 3.848621
v 30.143107 35.923880 3.807960
v 29.763441 36.000000 3.759997
v 29.383775 35.923880 3.712034
v 29.061910 35.707107 3.671373
v 28.846847 35.382683 3.644204
v 28.771326 35.000000 3.634664
v 28.846847 34.617317 3.644204
v 29.061910 34.292893 3.671373
v 29.383775 34.076120 3.712034
v 29.763441 34.000000 3.759997
v 30.143107 34.076120 3.807960
v 30.464972 34.292893 3.848621
v 30.680036 34.617317 3.875790
v 30.450905 35.000000 5.808821
v 30.376133 35.382683 5.794557
v 30.163199 35.707107 5.753938
v 29.844523 35.923880 5.693147
v 29.468618 36.000000 5.621439
v 29.092712 35.923880 5.549732
v 28.774036 35.707107 5.488941
v 28.561102 35.382683 5.448322
v 28.486330 35.000000 5.434058
v 28.561102 34.617317 5.448322
v 28.774036 34.292893 5.488941
v 29.092712 34.076120 5.549732
v 29.468618 34.000000 5.621439
v 29.844523 34.076120 5.693147
v 30.163199 34.292893 5.753938
v 30.376133 34.617317 5.794557
v 30.026078 35.000000 7.709387
v 29.952349 35.382683 7.690456
v 29.742387 35.707107 7.636547
v 29.428156 35.923880 7.555866
v 29.057495 36.000000 7.460697
v 28.686834 35.923880 7.365527
v 28.372603 35.707107 7.284846
v 28.162641 35.382683 7.230937
v 28.088912 35.000000 7.212007
v 28.162641 34.617317 7.230937
v 28.372603 34.292893 7.284846
v 28.686834 34.076120 7.365527
v 29.057495 34.000000 7.460697
v 29.428156 34.076120 7.555866
v 29.742387 34.292893 7.636547
v 29.952349 34.617317 7.690456
v 29.482752 35.000000 9.579527
v 29.410357 35.382683 9.556004
v 29.204194 35.707107 9.489018
v 28.895649 35.923880 9.388766
v 28.531695 36.000000 9.270510
v 28.167742 35.923880 9.152254
v 27.859197 35.707107 9.052002
v 27.653034 35.382683 8.985015
v 27.580639 35.000000 8.961493
v 27.653034 34.617317 8.985015
v 27.859197 34.292893 9.052002
v 28.167742 34.076120 9.152254
v 28.531695 34.000000 9.270510
v 28.895649 34.076120 9.388766
v 29.204194 34.292893 9.489018
v 29.410357 34.617317 9.556004
v 28.823071 35.000000 11.411861
v 28.752296 35.382683 11.383839
v 28.550746 35.707107 11.304040
v 28.249105 35.923880 11.184612
v 27.893295 36.000000 11.043737
v 27.537485 35.923880 10.902861
v 27.235843 35.707107 10.783433
v 27.034293 35.382683 10.703634
v 26.963518 35.000000 10.675612
v 27.034293 34.617317 10.703634
v 27.235843 34.292893 10.783433
v 27.537485 34.076120 10.902861
v 27.893295 34.000000 11.043737
v 28.249105 34.076120 11.184612
v 28.550746 34.292893 11.304040
v 28.752296 34.617317 11.383839
v 28.049639 35.000000 13.199158
v 27.980763 35.382683 13.166748
v 27.784621 35.707107 13.074450
v 27.491074 35.923880 12.936317
v 27.144812 36.000000 12.773379
v 26.798549 35.923880 12.610440
v 26.505002 35.707107 12.472307
v 26.308860 35.382683 12.380010
v 26.239985 35.000000 12.347599
v 26.308860 34.617317 12.380010
v 26.505002 34.292893 12.472307
v 26.798549 34.076120 12.610440
v 27.144812 34.000000 12.773379
v 27.491074 34.076120 12.936317
v 27.784621 34.292893 13.074450
v 27.980763 34.617317 13.166748
v 27.165507 35.000000 14.934364
v 27.098802 35.382683 14.897693
v 26.908843 35.707107 14.793262
v 26.624548 35.923880 14.636969
v 26.289200 36.000000 14.452610
v 25.953852 35.923880 14.268251
v 25.669558 35.707107 14.111959
v 25.479599 35.382683 14.007528
v 25.412894 35.000000 13.970857
v 25.479599 34.617317 14.007528
v 25.669558 34.292893 14.111959
v 25.953852 34.076120 14.268251
v 26.289200 34.000000 14.452610
v 26.624548 34.076120 14.636969
v 26.908843 34.292893 14.793262
v 27.098802 34.617317 14.897693
v 26.174166 35.000000 16.610631
v 26.109895 35.382683 16.569843
v 25.926868 35.707107 16.453691
v 25.652948 35.923880 16.279856
v 25.329838 36.000000 16.074804
v 25.006727 35.923880 15.869752
v 24.732808 35.707107 15.695917
v 24.549780 35.382683 15.579764
v 24.485510 35.000000 15.538977
v 24.549780 34.617317 15.579764
v 24.732808 34.292893 15.695917
v 25.006727 34.076120 15.869752
v 25.329838 34.000000 16.074804
v 25.652948 34.076120 16.279856
v 25.926868 34.292893 16.453691
v 26.109895 34.617317 16.569843
v 25.079527 35.000000 18.221343
v 25.017944 35.382683 18.176600
v 24.842571 35.707107 18.049185
v 24.580107 35.923880 17.858493
v 24.270510 36.000000 17.633558
v 23.960912 35.923880 17.408622
v 23.698448 35.707107 17.217931
v 23.523076 35.382683 17.090515
v 23.461493 35.000000 17.045772
v 23.523076 34.617317 17.090515
v 23.698448 34.292893 17.217931
v 23.960912 34.076120 17.408622
v 24.270510 34.000000 17.633558
v 24.580107 34.076120 17.858493
v 24.842571 34.292893 18.049185
v 25.017944 34.617317 18.176600
v 23.885911 35.000000 19.760144
v 23.827259 35.382683 19.711623
v 23.660232 35.707107 19.573447
v 23.410260 35.923880 19.366651
v 23.115397 36.000000 19.122720
v 22.820535 35.923880 18.878788
v 22.570562 35.707107 18.671993
v 22.403536 35.382683 18.533817
v 22.344884 35.000000 18.485296
v 22.403536 34.617317 18.533817
v 22.570562 34.292893 18.671993
v 22.820535 34.076120 18.878788
v 23.115397 34.000000 19.122720
v 23.410260 34.076120 19.366651
v 23.660232 34.292893 19.573447
v 23.827259 34.617317 19.711623
v 22.598027 35.000000 21.220960
v 22.542538 35.382683 21.168852
v 22.384517 35.707107 21.020461
v 22.148023 35.923880 20.798378
v 21.869059 36.000000 20.536413
v 21.590095 35.923880 20.274448
v 21.353600 35.707107 20.052365
v 21.195580 35.382683 19.903974
v 21.140090 35.000000 19.851866
v 21.195580 34.617317 19.903974
v 21.353600 34.292893 20.052365
v 21.590095 34.076120 20.274448
v 21.869059 34.000000 20.536413
v 22.148023 34.076120 20.798378
v 22.384517 34.292893 21.020461
v 22.542538 34.617317 21.168852
v 21.220960 35.000000 22.598027
v 21.168852 35.382683 22.542538
v 21.020461 35.707107 22.384517
v 20.798378 35.923880 22.148023
v 20.536413 36.000000 21.869059
v 20.274448 35.923880 21.590095
v 20.052365 35.707107 21.353600
v 19.903974 35.382683 21.195580
v 19.851866 35.000000 21.140090
v 19.903974 34.617317 21.195580
v 20.052365 34.292893 21.353600
v 20.274448 34.076120 21.590095
v 20.536413 34.000000 21.869059
v 20.798378 34.076120 22.148023
v 21.020461 34.292893 22.384517
v 21.168852 34.617317 22.542538
v 19.760144 35.000000 23.885911
v 19.711623 35.382683 23.827259
v 19.573447 35.707107 23.660232
v 19.366651 35.923880 23.410260
v 19.122720 36.000000 23.115397
v 18.878788 35.923880 22.820535
v 18.671993 35.707107 22.570562
v 18.533817 35.382683 22.403536
v 18.485296 35.000000 22.344884
v 18.533817 34.617317 22.403536
v 18.671993 34.292893 22.570562
v 18.878788 34.076120 22.820535
v 19.122720 34.000000 23.115397
v 19.366651 34.076120 23.410260
v 19.573447 34.292893 23.660232
v 19.711623 34.617317 23.827259
v 18.221343 35.000000 25.079527
v 18.176600 35.382683 25.017944
v 18.049185 35.707107 24.842571
v 17.858493 35.923880 24.580107
v 17.633558 36.000000 24.270510
v 17.408622 35.923880 23.960912
v 17.217931 35.707107 23.698448
v 17.090515 35.382683 23.523076
v 17.045772 35.000000 23.461493
v 17.090515 34.617317 23.523076
v 17.217931 34.292893 23.698448
v 17.408622 34.076120 23.960912
v 17.633558 34.000000 24.270510
v 17.858493 34.076120 24.580107
v 18.049185 34.292893 24.842571
v 18.176600 34.617317 25.017944
v 16.610631 35.000000 26.174166
v 16.569843 35.382683 26.109895
v 16.453691 35.707107 25.926868
v 16.279856 35.923880 25.652948
v 16.074804 36.000000 25.329838
v 15.869752 35.923880 25.006727
v 15.695917 35.707107 24.732808
v 15.579764 35.382683 24.549780
v 15.538977 35.000000 24.485510
v 15.579764 34.617317 24.549780
v 15.695917 34.292893 24.732808
v 15.869752 34.076120 25.006727
v 16.074804 34.000000 25.329838
v 16.279856 34.076120 25.652948
v 16.453691 34.292893 25.926868
v 16.569843 34.617317 26.109895
v 14.934364 35.000000 27.165507
v 14.897693 35.382683 27.098802
v 14.793262 35.707107 26.908843
v 14.636969 35.923880 26.624548
v 14.452610 36.000000 26.289200
v 14.268251 35.923880 25.953852
v 14.111959 35.707107 25.669558
v 14.007528 35.382683 25.479599
v 13.970857 35.000000 25.412894
v 14.007528 34.617317 25.479599
v 14.111959 34.292893 25.669558
v 14.268251 34.076120 25.953852
v 14.452610 34.000000 26.289200
v 14.636969 34.076120 26.624548
v 14.793262 34.292893 26.908843
v 14.897693 34.617317 27.098802
v 13.199158 35.000000 28.049639
v 13.166748 35.382683 27.980763
v 13.074450 35.707107 27.784621
v 12.936317 35.923880 27.491074
v 12.773379 36.000000 27.144812
v 12.610440 35.923880 26.798549
v 12.472307 35.707107 26.505002
v 12.380010 35.382683 26.308860
v 12.347599 35.000000 26.239985
v 12.380010 34.617317 26.308860
v 12.472307 34.292893 26.505002
v 12.610440 34.076120 26.798549
v 12.773379 34.000000 27.144812
v 12.936317 34.076120 27.491074
v 13.074450 34.292893 27.784621
v 13.166748 34.617317 27.980763
v 11.411861 35.000000 28.823071
v 11.383839 35.382683 28.752296
v 11.304040 35.707107 28.550746
v 11.184612 35.923880 28.249105
v 11.043737 36.000000 27.893295
v 10.902861 35.923880 27.537485
v 10.783433 35.707107 27.235843
v 10.703634 35.382683 27.034293
v 10.675612 35.000000 26.963518
v 10.703634 34.617317 27.034293
v 10.783433 34.292893 27.235843
v 10.902861 34.076120 27.537485
v 11.043737 34.000000 27.893295
v 11.184612 34.076120 28.249105
v 11.304040 34.292893 28.550746
v 11.383839 34.617317 28.752296
v 9.579527 35.000000 29.482752
v 9.556004 35.382683 29.410357
v 9.489018 35.707107 29.204194
v 9.388766 35.923880 28.895649
v 9.270510 36.000000 28.531695
v 9.152254 35.923880 28.167742
v 9.052002 35.707107 27.859197
v 8.985015 35.382683 27.653034
v 8.961493 35.000000 27.580639
v 8.985015 34.617317 27.653034
v 9.052002 34.292893 27.859197
v 9.152254 34.076120 28.167742
v 9.270510 34.000000 28.531695
v 9.388766 34.076120 28.895649
v 9.489018 34.292893 29.204194
v 9.556004 34.617317 29.410357
v 7.709387 35.000000 30.026078
v 7.690456 35.382683 29.952349
v 7.636547 35.707107 29.742387
v 7.555866 35.923880 29.428156
v 7.460697 36.000000 29.057495
v 7.365527 35.923880 28.686834
v 7.284846 35.707107 28.372603
v 7.230937 35.382683 28.162641
v 7.212007 35.000000 28.088912
v 7.230937 34.617317 28.162641
v 7.284846 34.292893 28.372603
v 7.365527 34.076120 28.686834
v 7.460697 34.000000 29.057495
v 7.555866 34.076120 29.428156
v 7.636547 34.292893 29.742387
v 7.690456 34.617317 29.952349
v 5.808821 35.000000 30.450905
v 5.794557 35.382683 30.376133
v 5.753938 35.707107 30.163199
v 5.693147 35.923880 29.844523
v 5.621439 36.000000 29.468618
v 5.549732 35.923880 29.092712
v 5.488941 35.707107 28.774036
v 5.448322 35.382683 28.561102
v 5.434058 35.000000 28.486330
v 5.448322 34.617317 28.561102
v 5.488941 34.292893 28.774036
v 5.549732 34.076120 29.092712
v 5.621439 34.000000 29.468618
v 5.693147 34.076120 29.844523
v 5.753938 34.292893 30.163199
v 5.794557 34.617317 30.376133
v 3.885330 35.000000 30.755556
v 3.875790 35.382683 30.680036
v 3.848621 35.707107 30.464972
v 3.807960 35.923880 30.143107
v 3.759997 36.000000 29.763441
v 3.712034 35.923880 29.383775
v 3.671373 35.707107 29.061910
v 3.644204 35.382683 28.846847
v 3.634664 35.000000 28.771326
v 3.644204 34.617317 28.846847
v 3.671373 34.292893 29.061910
v 3.712034 34.076120 29.383775
v 3.759997 34.000000 29.763441
v 3.807960 34.076120 30.143107
v 3.848621 34.292893 30.464972
v 3.875790 34.617317 30.680036
v 1.946506 35.000000 30.938829
v 1.941726 35.382683 30.862858
v 1.928115 35.707107 30.646513
v 1.907744 35.923880 30.322730
v 1.883716 36.000000 29.940802
v 1.859687 35.923880 29.558874
v 1.839316 35.707107 29.235090
v 1.825705 35.382683 29.018745
v 1.820925 35.000000 28.942775
v 1.825705 34.617317 29.018745
v 1.839316 34.292893 29.235090
v 1.859687 34.076120 29.558874
v 1.883716 34.000000 29.940802
v 1.907744 34.076120 30.322730
v 1.928115 34.292893 30.646513
v 1.941726 34.617317 30.862858
v 0.000000 35.000000 31.000000
v 0.000000 35.382683 30.923880
v 0.000000 35.707107 30.707107
v 0.000000 35.923880 30.382683
v 0.000000 36.000000 30.000000
v 0.000000 35.923880 29.617317
v 0.000000 35.707107 29.292893
v 0.000000 35.382683 29.076120
v 0.000000 35.000000 29.000000
v 0.000000 34.617317 29.076120
v 0.000000 34.292893 29.292893
v 0.000000 34.076120 29.617317
v 0.000000 34.000000 30.000000
v 0.000000 34.076120 30.382683
v 0.000000 34.292893 30.707107
v 0.000000 34.617317 30.923880
v -1.946506 35.000000 30.938829
v -1.941726 35.382683 30.862858
v -1.928115 35.707107 30.646513
v -1.907744 35.923880 30.322730
v -1.883716 36.000000 29.940802
v -1.859687 35.923880 29.558874
v -1.839316 35.707107 29.235090
v -1.825705 35.382683 29.018745
v -1.820925 35.000000 28.942775
v -1.825705 34.617317 29.018745
v -1.839316 34.292893 29.235090
v -1.859687 34.076120 29.558874
v -1.883716 34.000000 29.940802
v -1.907744 34.076120 30.322730
v -1.928115 34.292893 30.646513
v -1.941726 34.617317 30.862858
v -3.885330 35.000000 30.755556
v -3.875790 35.382683 30.680036
v -3.848621 35.707107 30.464972
v -3.807960 35.923880 30.143107
v -3.759997 36.000000 29.763441
v -3.712034 35.923880 29.383775
v -3.671373 35.707107 29.061910
v -3.644204 35.382683 28.846847
v -3.634664 35.000000 28.771326
v -3.644204 34.617317 28.846847
v -3.671373 34.292893 29.061910
v -3.712034 34.076120 29.383775
v -3.759997 34.000000 29.763441
v -3.807960 34.076120 30.143107
v -3.848621 34.292893 30.464972
v -3.875790 34.617317 30.680036
v -5.808821 35.000000 30.450905
v -5.794557 35.382683 30.376133
v -5.753938 35.707107 30.163199
v -5.693147 35.923880 29.844523
v -5.621439 36.000000 29.468618
v -5.549732 35.923880 29.092712
v -5.488941 35.707107 28.774036
v -5.448322 35.382683 28.561102
v -5.434058 35.000000 28.486330
v -5.448322 34.617317 28.561102
v -5.488941 34.292893 28.774036
v -5.549732 34.076120 29.092712
v -5.621439 34.000000 29.468618
v -5.693147 34.076120 29.844523
v -5.753938 34.292893 30.163199
v -5.794557 34.617317 30.376133
v -7.709387 35.000000 30.026078
v -7.690456 35.382683 29.952349
v -7.636547 35.707107 29.742387
v -7.555866 35.923880 29.428156
v -7.460697 36.000000 29.057495
v -7.365527 35.923880 28.686834
v -7.284846 35.707107 28.372603
v -7.230937 35.382683 28.162641
v -7.212007 35.000000 28.088912
v -7.230937 34.617317 28.162641
v -7.284846 34.292893 28.372603
v -7.365527 34.076120 28.686834
v -7.460697 34.000000 29.057495
v -7.555866 34.076120 29.428156
v -7.636547 34.292893 29.742387
v -7.690456 34.617317 29.952349
v -9.579527 35.000000 29.482752
v -9.556004 35.382683 29.410357
v -9.489018 35.707107 29.204194
v -9.388766 35.923880 28.895649
v -9.270510 36.000000 28.531695
v -9.152254 35.923880 28.167742
v -9.052002 35.707107 27.859197
v -8.985015 35.382683 27.653034
v -8.961493 35.000000 27.580639
v -8.985015 34.617317 27.653034
v -9.052002 34.292893 27.859197
v -9.152254 34.076120 28.167742
v -9.270510 34.000000 28.531695
v -9.388766 34.076120 28.895649
v -9.489018 34.292893 29.204194
v -9.556004 34.617317 29.410357
v -11.411861 35.000000 28.823071
v -11.383839 35.382683 28.752296
v -11.304040 35.707107 28.550746
v -11.184612 35.923880 28.249105
v -11.043737 36.000000 27.893295
v -10.902861 35.923880 27.537485
v -10.783433 35.707107 27.235843
v -10.703634 35.382683 27.034293
v -10.675612 35.000000 26.963518
v -10.703634 34.617317 27.034293
v -10.783433 34.292893 27.235843
v -10.902861 34.076120 27.537485
v -11.043737 34.000000 27.893295
v -11.184612 34.076120 28.249105
v -11.304040 34.292893 28.550746
v -11.383839 34.617317 28.752296
v -13.199158 35.000000 28.049639
v -13.166748 35.382683 27.980763
v -13.074450 35.707107 27.784621
v -12.936317 35.923880 27.491074
v -12.773379 36.000000 27.144812
v -12.610440 35.923880 26.798549
v -12.472307 35.707107 26.505002
v -12.380010 35.382683 26.308860
v -12.347599 35.000000 26.239985
v -12.380010 34.617317 26.308860
v -12.472307 34.292893 26.505002
v -12.610440 34.076120 26.798549
v -12.773379 34.000000 27.144812
v -12.936317 34.076120 27.491074
v -13.074450 34.292893 27.784621
v -13.166748 34.617317 27.980763
v -14.934364 35.000000 27.165507
v -14.897693 35.382683 27.098802
v -14.793262 35.707107 26.908843
v -14.636969 35.923880 26.624548
v -14.452610 36.000000 26.289200
v -14.268251 35.923880 25.953852
v -14.111959 35.707107 25.669558
v -14.007528 35.382683 25.479599
v -13.970857 35.000000 25.412894
v -14.007528 34.617317 25.479599
v -14.111959 34.292893 25.669558
v -14.268251 34.076120 25.953852
v -14.452610 34.000000 26.289200
v -14.636969 34.076120 26.624548
v -14.793262 34.292893 26.908843
v -14.897693 34.617317 27.098802
v -16.610631 35.000000 26.174166
v -16.569843 35.382683 26.109895
v -16.453691 35.707107 25.926868
v -16.279856 35.923880 25.652948
v -16.074804 36.000000 25.329838
v -15.869752 35.923880 25.006727
v -15.695917 35.707107 24.732808
v -15.579764 35.382683 24.549780
v -15.538977 35.000000 24.485510
v -15.579764 34.617317 24.549780
v -15.695917 34.292893 24.732808
v -15.869752 34.076120 25.006727
v -16.074804 34.000000 25.329838
v -16.279856 34.076120 25.652948
v -16.453691 34.292893 25.926868
v -16.569843 34.617317 26.109895
v -18.221343 35.000000 25.079527
v -18.176600 35.382683 25.017944
v -18.049185 35.707107 24.842571
v -17.858493 35.923880 24.580107
v -17.633558 36.000000 24.270510
v -17.408622 35.923880 23.960912
v -17.217931 35.707107 23.698448
v -17.090515 35.382683 23.523076
v -17.045772 35.000000 23.461493
v -17.090515 34.617317 23.523076
v -17.217931 34.292893 23.698448
v -17.408622 34.076120 23.960912
v -17.633558 34.000000 24.270510
v -17.858493 34.076120 24.580107
v -18.049185 34.292893 24.842571
v -18.176600 34.617317 25.017944
v -19.760144 35.000000 23.885911
v -19.711623 35.382683 23.827259
v -19.573447 35.707107 23.660232
v -19.366651 35.923880 23.410260
v -19.122720 36.000000 23.115397
v -18.878788 35.923880 22.820535
v -18.671993 35.707107 22.570562
v -18.533817 35.382683 22.403536
v -18.485296 35.000000 22.344884
v -18.533817 34.617317 22.403536
v -18.671993 34.292893 22.570562
v -18.878788 34.076120 22.820535
v -19.122720 34.000000 23.115397
v -19.366651 34.076120 23.410260
v -19.573447 34.292893 23.660232
v -19.711623 34.617317 23.827259
v -21.220960 35.000000 22.598027
v -21.168852 35.382683 22.542538
v -21.020461 35.707107 22.384517
v -20.798378 35.923880 22.148023
v -20.536413 36.000000 21.869059
v -20.274448 35.923880 21.590095
v -20.052365 35.707107 21.353600
v -19.903974 35.382683 21.195580
v -19.851866 35.000000 21.140090
v -19.903974 34.617317 21.195580
v -20.052365 34.292893 21.353600
v -20.274448 34.076120 21.590095
v -20.536413 34.000000 21.869059
v -20.798378 34.076120 22.148023
v -21.020461 34.292893 22.384517
v -21.168852 34.617317 22.542538
v -22.598027 35.000000 21.220960
v -22.542538 35.382683 21.168852
v -22.384517 35.707107 21.020461
v -22.148023 35.923880 20.798378
v -21.869059 36.000000 20.536413
v -21.590095 35.923880 20.274448
v -21.353600 35.707107 20.052365
v -21.195580 35.382683 19.903974
v -21.140090 35.000000 19.851866
v -21.195580 34.617317 19.903974
v -21.353600 34.292893 20.052365
v -21.590095 34.076120 20.274448
v -21.869059 34.000000 20.536413
v -22.148023 34.076120 20.798378
v -22.384517 34.292893 21.020461
v -22.542538 34.617317 21.168852
v -23.885911 35.000000 19.760144
v -23.827259 35.382683 19.711623
v -23.660232 35.707107 19.573447
v -23.410260 35.923880 19.366651
v -23.115397 36.000000 19.122720
v -22.820535 35.923880 18.878788
v -22.570562 35.707107 18.671993
v -22.403536 35.382683 18.533817
v -22.344884 35.000000 18.485296
v -22.403536 34.617317 18.533817
v -22.570562 34.292893 18.671993
v -22.820535 34.076120 18.878788
v -23.115397 34.000000 19.122720
v -23.410260 34.076120 19.366651
v -23.660232 34.292893 19.573447
v -23.827259 34.617317 19.711623
v -25.079527 35.000000 18.221343
v -25.017944 35.382683 18.176600
v -24.842571 35.707107 18.049185
v -24.580107 35.923880 17.858493
v -24.270510 36.000000 17.633558
v -23.960912 35.923880 17.408622
v -23.698448 35.707107 17.217931
v -23.523076 35.382683 17.090515
v -23.461493 35.000000 17.045772
v -23.523076 34.617317 17.090515
v -23.698448 34.292893 17.217931
v -23.960912 34.076120 17.408622
v -24.270510 34.000000 17.633558
v -24.580107 34.076120 17.858493
v -24.842571 34.292893 18.049185
v -25.017944 34.617317 18.176600
v -26.174166 35.000000 16.610631
v -26.109895 35.382683 16.569843
v -25.926868 35.707107 16.453691
v -25.652948 35.923880 16.279856
v -25.329838 36.000000 16.074804
v -25.006727 35.923880 15.869752
v -24.732808 35.707107 15.695917
v -24.549780 35.382683 15.579764
v -24.485510 35.000000 15.538977
v -24.549780 34.617317 15.579764
v -24.732808 34.292893 15.695917
v -25.006727 34.076120 15.869752
v -25.329838 34.000000 16.074804
v -25.652948 34.076120 16.279856
v -25.926868 34.292893 16.453691
v -26.109895 34.617317 16.569843
v -27.165507 35.000000 14.934364
v -27.098802 35.382683 14.897693
v -26.908843 35.707107 14.793262
v -26.624548 35.923880 14.636969
v -26.289200 36.000000 14.452610
v -25.953852 35.923880 14.268251
v -25.669558 35.707107 14.111959
v -25.479599 35.382683 14.007528
v -25.412894 35.000000 13.970857
v -25.479599 34.617317 14.007528
v -25.669558 34.292893 14.111959
v -25.953852 34.076120 14.268251
v -26.289200 34.000000 14.452610
v -26.624548 34.076120 14.636969
v -26.908843 34.292893 14.793262
v -27.098802 34.617317 14.897693
v -28.049639 35.000000 13.199158
v -27.980763 35.382683 13.166748
v -27.784621 35.707107 13.074450
v -27.491074 35.923880 12.936317
v -27.144812 36.000000 12.773379
v -26.798549 35.923880 12.610440
v -26.505002 35.707107 12.472307
v -26.308860 35.382683 12.380010
v -26.239985 35.000000 12.347599
v -26.308860 34.617317 12.380010
v -26.505002 34.292893 12.472307
v -26.798549 34.076120 12.610440
v -27.144812 34.000000 12.773379
v -27.491074 34.076120 12.936317
v -27.784621 34.292893 13.074450
v -27.980763 34.617317 13.166748
v -28.823071 35.000000 11.411861
v -28.752296 35.382683 11.383839
v -28.550746 35.707107 11.304040
v -28.249105 35.923880 11.184612
v -27.893295 36.000000 11.043737
v -27.537485 35.923880 10.902861
v -27.235843 35.707107 10.783433
v -27.034293 35.382683 10.703634
v -26.963518 35.000000 10.675612
v -27.034293 34.617317 10.703634
v -27.235843 34.292893 10.783433
v -27.537485 34.076120 10.902861
v -27.893295 34.000000 11.043737
v -28.249105 34.076120 11.184612
v -28.550746 34.292893 11.304040
v -28.752296 34.617317 11.383839
v -29.482752 35.000000 9.579527
v -29.410357 35.382683 9.556004
v -29.204194 35.707107 9.489018
v -28.895649 35.923880 9.388766
v -28.531695 36.000000 9.270510
v -28.167742 35.923880 9.152254
v -27.859197 35.707107 9.052002
v -27.653034 35.382683 8.985015
v -27.580639 35.000000 8.961493
v -27.653034 34.617317 8.985015
v -27.859197 34.292893 9.052002
v -28.167742 34.076120 9.152254
v -28.531695 34.000000 9.270510
v -28.895649 34.076120 9.388766
v -29.204194 34.292893 9.489018
v -29.410357 34.617317 9.556004
v -30.026078 35.000000 7.709387
v -29.952349 35.382683 7.690456
v -29.742387 35.707107 7.636547
v -29.428156 35.923880 7.555866
v -29.057495 36.000000 7.460697
v -28.686834 35.923880 7.365527
v -28.372603 35.707107 7.284846
v -28.162641 35.382683 7.230937
v -28.088912 35.000000 7.212007
v -28.162641 34.617317 7.230937
v -28.372603 34.292893 7.284846
v -28.686834 34.076120 7.365527
v -29.057495 34.000000 7.460697
v -29.428156 34.076120 7.555866
v -29.742387 34.292893 7.636547
v -29.952349 34.617317 7.690456
v -30.450905 35.000000 5.808821
v -30.376133 35.382683 5.794557
v -30.163199 35.707107 5.753938
v -29.844523 35.923880 5.693147
v -29.468618 36.000000 5.621439
v -29.092712 35.923880 5.549732
v -28.774036 35.707107 5.488941
v -28.561102 35.382683 5.448322
v -28.486330 35.000000 5.434058
v -28.561102 34.617317 5.448322
v -28.774036 34.292893 5.488941
v -29.092712 34.076120 5.549732
v -29.468618 34.000000 5.621439
v -29.844523 34.076120 5.693147
v -30.163199 34.292893 5.753938
v -30.376133 34.617317 5.794557
v -30.755556 35.000000 3.885330
v -30.680036 35.382683 3.875790
v -30.464972 35.707107 3.848621
v -30.143107 35.923880 3.807960
v -29.763441 36.000000 3.759997
v -29.383775 35.923880 3.712034
v -29.061910 35.707107 3.671373
v -28.846847 35.382683 3.644204
v -28.771326 35.000000 3.634664
v -28.846847 34.617317 3.644204
v -29.061910 34.292893 3.671373
v -29.383775 34.076120 3.712034
v -29.763441 34.000000 3.759997
v -30.143107 34.076120 3.807960
v -30.464972 34.292893 3.848621
v -30.680036 34.617317 3.875790
v -30.938829 35.000000 1.946506
v -30.862858 35.382683 1.941726
v -30.646513 35.707107 1.928115
v -30.322730 35.923880 1.907744
v -29.940802 36.000000 1.883716
v -29.558874 35.923880 1.859687
v -29.235090 35.707107 1.839316
v -29.018745 35.382683 1.825705
v -28.942775 35.000000 1.820925
v -29.018745 34.617317 1.825705
v -29.235090 34.292893 1.839316
v -29.558874 34.076120 1.859687
v -29.940802 34.000000 1.883716
v -30.322730 34.076120 1.907744
v -30.646513 34.292893 1.928115
v -30.862858 34.617317 1.941726
v -31.000000 35.000000 0.000000
v -30.923880 35.382683 0.000000
v -30.707107 35.707107 0.000000
v -30.382683 35.923880 0.000000
v -30.000000 36.000000 0.000000
v -29.617317 35.923880 0.000000
v -29.292893 35.707107 0.000000
v -29.076120 35.382683 0.000000
v -29.000000 35.000000 0.000000
v -29.076120 34.617317 0.000000
v -29.292893 34.292893 0.000000
v -29.617317 34.076120 0.000000
v -30.000000 34.000000 0.000000
v -30.382683 34.076120 0.000000
v -30.707107 34.292893 0.000000
v -30.923880 34.617317 0.000000
v -30.938829 35.000000 -1.946506
v -30.862858 35.382683 -1.941726
v -30.646513 35.707107 -1.928115
v -30.322730 35.923880 -1.907744
v -29.940802 36.000000 -1.883716
v -29.558874 35.923880 -1.859687
v -29.235090 35.707107 -1.839316
v -29.018745 35.382683 -1.825705
v -28.942775 35.000000 -1.820925
v -29.018745 34.617317 -1.825705
v -29.235090 34.292893 -1.839316
v -29.558874 34.076120 -1.859687
v -29.940802 34.000000 -1.883716
v -30.322730 34.076120 -1.907744
v -30.646513 34.292893 -1.928115
v -30.862858 34.617317 -1.941726
v -30.755556 35.000000 -3.885330
v -30.680036 35.382683 -3.875790
v -30.464972 35.707107 -3.848621
v -30.143107 35.923880 -3.807960
v -29.763441 36.000000 -3.759997
v -29.383775 35.923880 -3.712034
v -29.061910 35.707107 -3.671373
v -28.846847 35.382683 -3.644204
v -28.771326 35.000000 -3.634664
v -28.846847 34.617317 -3.644204
v -29.061910 34.292893 -3.671373
v -29.383775 34.076120 -3.712034
v -29.763441 34.000000 -3.759997
v -30.143107 34.076120 -3.807960
v -30.464972 34.292893 -3.848621
v -30.680036 34.617317 -3.875790
v -30.450905 35.000000 -5.808821
v -30.376133 35.382683 -5.794557
v -30.163199 35.707107 -5.753938
v -29.844523 35.923880 -5.693147
v -29.468618 36.000000 -5.621439
v -29.092712 35.923880 -5.549732
v -28.774036 35.707107 -5.488941
v -28.561102 35.382683 -5.448322
v -28.486330 35.000000 -5.434058
v -28.561102 34.617317 -5.448322
v -28.774036 34.292893 -5.488941
v -29.092712 34.076120 -5.549732
v -29.468618 34.000000 -5.621439
v -29.844523 34.076120 -5.693147
v -30.163199 34.292893 -5.753938
v -30.376133 34.617317 -5.794557
v -30.026078 35.000000 -7.709387
v -29.952349 35.382683 -7.690456
v -29.742387 35.707107 -7.636547
v -29.428156 35.923880 -7.555866
v -29.057495 36.000000 -7.460697
v -28.686834 35.923880 -7.365527
v -28.372603 35.707107 -7.284846
v -28.162641 35.382683 -7.230937
v -28.088912 35.000000 -7.212007
v -28.162641 34.617317 -7.230937
v -28.372603 34.292893 -7.284846
v -28.686834 34.076120 -7.365527
v -29.057495 34.000000 -7.460697
v -29.428156 34.076120 -7.555866
v -29.742387 34.292893 -7.636547
v -29.952349 34.617317 -7.690456
v -29.482752 35.000000 -9.579527
v -29.410357 35.382683 -9.556004
v -29.204194 35.707107 -9.489018
v -28.895649 35.923880 -9.388766
v -28.531695 36.000000 -9.270510
v -28.167742 35.923880 -9.152254
v -27.859197 35.707107 -9.052002
v -27.653034 35.382683 -8.985015
v -27.580639 35.000000 -8.961493
v -27.653034 34.617317 -8.985015
v -27.859197 34.292893 -9.052002
v -28.167742 34.076120 -9.152254
v -28.531695 34.000000 -9.270510
v -28.895649 34.076120 -9.388766
v -29.204194 34.292893 -9.489018
v -29.410357 34.617317 -9.556004
v -28.823071 35.000000 -11.411861
v -28.752296 35.382683 -11.383839
v -28.550746 35.707107 -11.304040
v -28.249105 35.923880 -11.184612
v -27.893295 36.000000 -11.043737
v -27.537485 35.923880 -10.902861
v -27.235843 35.707107 -10.783433
v -27.034293 35.382683 -10.703634
v -26.963518 35.000000 -10.675612
v -27.034293 34.617317 -10.703634
v -27.235843 34.292893 -10.783433
v -27.537485 34.076120 -10.902861
v -27.893295 34.000000 -11.043737
v -28.249105 34.076120 -11.184612
v -28.550746 34.292893 -11.304040
v -28.752296 34.617317 -11.383839
v -28.049639 35.000000 -13.199158
v -27.980763 35.382683 -13.166748
v -27.784621 35.707107 -13.074450
v -27.491074 35.923880 -12.936317
v -27.144812 36.000000 -12.773379
v -26.798549 35.923880 -12.610440
v -26.505002 35.707107 -12.472307
v -26.308860 35.382683 -12.380010
v -26.239985 35.000000 -12.347599
v -26.308860 34.617317 -12.380010
v -26.505002 34.292893 -12.472307
v -26.798549 34.076120 -12.610440
v -27.144812 34.000000 -12.773379
v -27.491074 34.076120 -12.936317
v -27.784621 34.292893 -13.074450
v -27.980763 34.617317 -13.166748
v -27.165507 35.000000 -14.934364
v -27.098802 35.382683 -14.897693
v -26.908843 35.707107 -14.793262
v -26.624548 35.923880 -14.636969
v -26.289200 36.000000 -14.452610
v -25.953852 35.923880 -14.268251
v -25.669558 35.707107 -14.111959
v -25.479599 35.382683 -14.007528
v -25.412894 35.000000 -13.970857
v -25.479599 34.617317 -14.007528
v -25.669558 34.292893 -14.111959
v -25.953852 34.076120 -14.268251
v -26.289200 34.000000 -14.452610
v -26.624548 34.076120 -14.636969
v -26.908843 34.292893 -14.793262
v -27.098802 34.617317 -14.897693
v -26.174166 35.000000 -16.610631
v -26.109895 35.382683 -16.569843
v -25.926868 35.707107 -16.453691
v -25.652948 35.923880 -16.279856
v -25.329838 36.000000 -16.074804
v -25.006727 35.923880 -15.869752
v -24.732808 35.707107 -15.695917
v -24.549780 35.382683 -15.579764
v -24.485510 35.000000 -15.538977
v -24.549780 34.617317 -15.579764
v -24.732808 34.292893 -15.695917
v -25.006727 34.076120 -15.869752
v -25.329838 34.000000 -16.074804
v -25.652948 34.076120 -16.279856
v -25.926868 34.292893 -16.453691
v -26.109895 34.617317 -16.569843
v -25.079527 35.000000 -18.221343
v -25.017944 35.382683 -18.176600
v -24.842571 35.707107 -18.049185
v -24.580107 35.923880 -17.858493
v -24.270510 36.000000 -17.633558
v -23.960912 35.923880 -17.408622
v -23.698448 35.707107 -17.217931
v -23.523076 35.382683 -17.090515
v -23.461493 35.000000 -17.045772
v -23.523076 34.617317 -17.090515
v -23.698448 34.292893 -17.217931
v -23.960912 34.076120 -17.408622
v -24.270510 34.000000 -17.633558
v -24.580107 34.076120 -17.858493
v -24.842571 34.292893 -18.049185
v -25.017944 34.617317 -18.176600
v -23.885911 35.000000 -19.760144
v -23.827259 35.382683 -19.711623
v -23.660232 35.707107 -19.573447
v -23.410260 35.923880 -19.366651
v -23.115397 36.000000 -19.122720
v -22.820535 35.923880 -18.878788
v -22.570562 35.707107 -18.671993
v -22.403536 35.382683 -18.533817
v -22.344884 35.000000 -18.485296
v -22.403536 34.617317 -18.533817
v -22.570562 34.292893 -18.671993
v -22.820535 34.076120 -18.878788
v -23.115397 34.000000 -19.122720
v -23.410260 34.076120 -19.366651
v -23.660232 34.292893 -19.573447
v -23.827259 34.617317 -19.711623
v -22.598027 35.000000 -21.220960
v -22.542538 35.382683 -21.168852
v -22.384517 35.707107 -21.020461
v -22.148023 35.923880 -20.798378
v -21.869059 36.000000 -20.536413
v -21.590095 35.923880 -20.274448
v -21.353600 35.707107 -20.052365
v -21.195580 35.382683 -19.903974
v -21.140090 35.000000 -19.851866
v -21.195580 34.617317 -19.903974
v -21.353600 34.292893 -20.052365
v -21.590095 34.076120 -20.274448
v -21.869059 34.000000 -20.536413
v -22.148023 34.076120 -20.798378
v -22.384517 34.292893 -21.020461
v -22.542538 34.617317 -21.168852
v -21.220960 35.000000 -22.598027
v -21.168852 35.382683 -22.542538
v -21.020461 35.707107 -22.384517
v -20.798378 35.923880 -22.148023
v -20.536413 36.000000 -21.869059
v -20.274448 35.923880 -21.590095
v -20.052365 35.707107 -21.353600
v -19.903974 35.382683 -21.195580
v -19.851866 35.000000 -21.140090
v -19.903974 34.617317 -21.195580
v -20.052365 34.292893 -21.353600
v -20.274448 34.076120 -21.590095
v -20.536413 34.000000 -21.869059
v -20.798378 34.076120 -22.148023
v -21.020461 34.292893 -22.384517
v -21.168852 34.617317 -22.542538
v -19.760144 35.000000 -23.885911
v -19.711623 35.382683 -23.827259
v -19.573447 35.707107 -23.660232
v -19.366651 35.923880 -23.410260
v -19.122720 36.000000 -23.115397
v -18.878788 35.923880 -22.820535
v -18.671993 35.707107 -22.570562
v -18.533817 35.382683 -22.403536
v -18.485296 35.000000 -22.344884
v -18.533817 34.617317 -22.403536
v -18.671993 34.292893 -22.570562
v -18.878788 34.076120 -22.820535
v -19.122720 34.000000 -23.115397
v -19.366651 34.076120 -23.410260
v -19.573447 34.292893 -23.660232
v -19.711623 34.617317 -23.827259
v -18.221343 35.000000 -25.079527
v -18.176600 35.382683 -25.017944
v -18.049185 35.707107 -24.842571
v -17.858493 35.923880 -24.580107
v -17.633558 36.000000 -24.270510
v -17.408622 35.923880 -23.960912
v -17.217931 35.707107 -23.698448
v -17.090515 35.382683 -23.523076
v -17.045772 35.000000 -23.461493
v -17.090515 34.617317 -23.523076
v -17.217931 34.292893 -23.698448
v -17.408622 34.076120 -23.960912
v -17.633558 34.000000 -24.270510
v -17.858493 34.076120 -24.580107
v -18.049185 34.292893 -24.842571
v -18.176600 34.617317 -25.017944
v -16.610631 35.000000 -26.174166
v -16.569843 35.382683 -26.109895
v -16.453691 35.707107 -25.926868
v -16.279856 35.923880 -25.652948
v -16.074804 36.000000 -25.329838
v -15.869752 35.923880 -25.006727
v -15.695917 35.707107 -24.732808
v -15.579764 35.382683 -24.549780
v -15.538977 35.000000 -24.485510
v -15.579764 34.617317 -24.549780
v -15.695917 34.292893 -24.732808
v -15.869752 34.076120 -25.006727
v -16.074804 34.000000 -25.329838
v -16.279856 34.076120 -25.652948
v -16.453691 34.292893 -25.926868
v -16.569843 34.617317 -26.109895
v -14.934364 35.000000 -27.165507
v -14.897693 35.382683 -27.098802
v -14.793262 35.707107 -26.908843
v -14.636969 35.923880 -26.624548
v -14.452610 36.000000 -26.289200
v -14.268251 35.923880 -25.953852
v -14.111959 35.707107 -25.669558
v -14.007528 35.382683 -25.479599
v -13.970857 35.000000 -25.412894
v -14.007528 34.617317 -25.479599
v -14.111959 34.292893 -25.669558
v -14.268251 34.076120 -25.953852
v -14.452610 34.000000 -26.289200
v -14.636969 34.076120 -26.624548
v -14.793262 34.292893 -26.908843
v -14.897693 34.617317 -27.098802
v -13.199158 35.000000 -28.049639
v -13.166748 35.382683 -27.980763
v -13.074450 35.707107 -27.784621
v -12.936317 35.923880 -27.491074
v -12.773379 36.000000 -27.144812
v -12.610440 35.923880 -26.798549
v -12.472307 35.707107 -26.505002
v -12.380010 35.382683 -26.308860
v -12.347599 35.000000 -26.239985
v -12.380010 34.617317 -26.308860
v -12.472307 34.292893 -26.505002
v -12.610440 34.076120 -26.798549
v -12.773379 34.000000 -27.144812
v -12.936317 34.076120 -27.491074
v -13.074450 34.292893 -27.784621
v -13.166748 34.617317 -27.980763
v -11.411861 35.000000 -28.823071
v -11.383839 35.382683 -28.752296
v -11.304040 35.707107 -28.550746
v -11.184612 35.923880 -28.249105
v -11.043737 36.000000 -27.893295
v -10.902861 35.923880 -27.537485
v -10.783433 35.707107 -27.235843
v -10.703634 35.382683 -27.034293
v -10.675612 35.000000 -26.963518
v -10.703634 34.617317 -27.034293
v -10.783433 34.292893 -27.235843
v -10.902861 34.076120 -27.537485
v -11.043737 34.000000 -27.893295
v -11.184612 34.076120 -28.249105
v -11.304040 34.292893 -28.550746
v -11.383839 34.617317 -28.752296
v -9.579527 35.000000 -29.482752
v -9.556004 35.382683 -29.410357
v -9.489018 35.707107 -29.204194
v -9.388766 35.923880 -28.895649
v -9.270510 36.000000 -28.531695
v -9.152254 35.923880 -28.167742
v -9.052002 35.707107 -27.859197
v -8.985015 35.382683 -27.653034
v -8.961493 35.000000 -27.580639
v -8.985015 34.617317 -27.653034
v -9.052002 34.292893 -27.859197
v -9.152254 34.076120 -28.167742
v -9.270510 34.000000 -28.531695
v -9.388766 34.076120 -28.895649
v -9.489018 34.292893 -29.204194
v -9.556004 34.617317 -29.410357
v -7.709387 35.000000 -30.026078
v -7.690456 35.382683 -29.952349
v -7.636547 35.707107 -29.742387
v -7.555866 35.923880 -29.428156
v -7.460697 36.000000 -29.057495
v -7.365527 35.923880 -28.686834
v -7.284846 35.707107 -28.372603
v -7.230937 35.382683 -28.162641
v -7.212007 35.000000 -28.088912
v -7.230937 34.617317 -28.162641
v -7.284846 34.292893 -28.372603
v -7.365527 34.076120 -28.686834
v -7.460697 34.000000 -29.057495
v -7.555866 34.076120 -29.428156
v -7.636547 34.292893 -29.742387
v -7.690456 34.617317 -29.952349
v -5.808821 35.000000 -30.450905
v -5.794557 35.382683 -30.376133
v -5.753938 35.707107 -30.163199
v -5.693147 35.923880 -29.844523
v -5.621439 36.000000 -29.468618
v -5.549732 35.923880 -29.092712
v -5.488941 35.707107 -28.774036
v -5.448322 35.382683 -28.561102
v -5.434058 35.000000 -28.486330
v -5.448322 34.617317 -28.561102
v -5.488941 34.292893 -28.774036
v -5.549732 34.076120 -29.092712
v -5.621439 34.000000 -29.468618
v -5.693147 34.076120 -29.844523
v -5.753938 34.292893 -30.163199
v -5.794557 34.617317 -30.376133
v -3.885330 35.000000 -30.755556
v -3.875790 35.382683 -30.680036
v -3.848621 35.707107 -30.464972
v -3.807960 35.923880 -30.143107
v -3.759997 36.000000 -29.763441
v -3.712034 35.923880 -29.383775
v -3.671373 35.707107 -29.061910
v -3.644204 35.382683 -28.846847
v -3.634664 35.000000 -28.771326
v -3.644204 34.617317 -28.846847
v -3.671373 34.292893 -29.061910
v -3.712034 34.076120 -29.383775
v -3.759997 34.000000 -29.763441
v -3.807960 34.076120 -30.143107
v -3.848621 34.292893 -30.464972
v -3.875790 34.617317 -30.680036
v -1.946506 35.000000 -30.938829
v -1.941726 35.382683 -30.862858
v -1.928115 35.707107 -30.646513
v -1.907744 35.923880 -30.322730
v -1.883716 36.000000 -29.940802
v -1.859687 35.923880 -29.558874
v -1.839316 35.707107 -29.235090
v -1.825705 35.382683 -29.018745
v -1.820925 35.000000 -28.942775
v -1.825705 34.617317 -29.018745
v -1.839316 34.292893 -29.235090
v -1.859687 34.076120 -29.558874
v -1.883716 34.000000 -29.940802
v -1.907744 34.076120 -30.322730
v -1.928115 34.292893 -30.646513
v -1.941726 34.617317 -30.862858
f 1 17 2
f 17 18 2
f 2 18 3
f 18 19 3
f 3 19 4
f 19 20 4
f 4 20 5
f 20 21 5
f 5 21 6
f 21 22 6
f 6 22 7
f 22 23 7
f 7 23 8
f 23 24 8
f 8 24 9
f 24 25 9
f 9 25 10
f 25 26 10
f 10 26 11
f 26 27 11
f 11 27 12
f 27 28 12
f 12 28 13
f 28 29 13
f 13 29 14
f 29 30 14
f 14 30 15
f 30 31 15
f 15 31 16
f 31 32 16
f 16 32 1
f 32 17 1
f 17 33 18
f 33 34 18
f 18 34 19
f 34 35 19
f 19 35 20
f 35 36 20
f 20 36 21
f 36 37 21
f 21 37 22
f 37 38 22
f 22 38 23
f 38 39 23
f 23 39 24
f 39 40 24
f 24 40 25
f 40 41 25
f 25 41 26
f 41 42 26
f 26 42 27
f 42 43 27
f 27 43 28
f 43 44 28
f 28 44 29
f 44 45 29
f 29 45 30
f 45 46 30
f 30 46 31
f 46 47 31
f 31 47 32
f 47 48 32
f 32 48 17
f 48 33 17
f 33 49 34
f 49 50 34
f 34 50 35
f 50 51 35
f 35 51 36
f 51 52 36
f 36 52 37
f 52 53 37
f 37 53 38
f 53 54 38
f 38 54 39
f 54 55 39
f 39 55 40
f 55 56 40
f 40 56 41
f 56 57 41
f 41 57 42
f 57 58 42
f 42 58 43
f 58 59 43
f 43 59 44
f 59 60 44
f 44 60 45
f 60 61 45
f 45 61 46
f 61 62 46
f 46 62 47
f 62 63 47
f 47 63 48
f 63 64 48
f 48 64 33
f 64 49 33
f 49 65 50
f 65 66 50
f 50 66 51
f 66 67 51
f 51 67 52
f 67 68 52
f 52 68 53
f 68 69 53
f 53 69 54
f 69 70 54
f 54 70 55
f 70 71 55
f 55 71 56
f 71 72 56
f 56 72 57
f 72 73 57
f 57 73 58
f 73 74 58
f 58 74 59
f 74 75 59
f 59 75 60
f 75 76 60
f 60 76 61
f 76 77 61
f 61 77 62
f 77 78 62
f 62 78 63
f 78 79 63
f 63 79 64
f 79 80 64
f 64 80 49
f 80 65 49
f 65 81 66
f 81 82 66
f 66 82 67
f 82 83 67
f 67 83 68
f 83 84 68
f 68 84 69
f 84 85 69
f 69 85 70
f 85 86 70
f 70 86 71
f 86 87 71
f 71 87 72
f 87 88 72
f 72 88 73
f 88 89 73
f 73 89 74
f 89 90 74
f 74 90 75
f 90 91 75
f 75 91 76
f 91 92 76
f 76 92 77
f 92 93 77
f 77 93 78
f 93 94 78
f 78 94 79
f 94 95 79
f 79 95 80
f 95 96 80
f 80 96 65
f 96 81 65
f 81 97 82
f 97 98 82
f 82 98 83
f 98 99 83
f 83 99 84
f 99 100 84
f 84 100 85
f 100 101 85
f 85 101 86
f 101 102 86
f 86 102 87
f 102 103 87
f 87 103 88
f 103 104 88
f 88 104 89
f 104 105 89
f 89 105 90
f 105 106 90
f 90 106 91
f 106 107 91
f 91 107 92
f 107 108 92
f 92 108 93
f 108 109 93
f 93 109 94
f 109 110 94
f 94 110 95
f 110 111 95
f 95 111 96
f 111 112 96
f 96 112 81
f 112 97 81
f 97 113 98
f 113 114 98
f 98 114 99
f 114 115 99
f 99 115 100
f 115 116 100
f 100 116 101
f 116 117 101
f 101 117 102
f 117 118 102
f 102 118 103
f 118 119 103
f 103 119 104
f 119 120 104
f 104 120 105
f 120 121 105
f 105 121 106
f 121 122 106
f 106 122 107
f 122 123 107
f 107 123 108
f 123 124 108
f 108 124 109
f 124 125 109
f 109 125 110
f 125 126 110
f 110 126 111
f 126 127 111
f 111 127 112
f 127 128 112
f 112 128 97
f 128 113 97
f 113 129 114
f 129 130 114
f 114 130 115
f 130 131 115
f 115 131 116
f 131 132 116
f 116 132 117
f 132 133 117
f 117 133 118
f 133 134 118
f 118 134 119
f 134 135 119
f 119 135 120
f 135 136 120
f 120 136 121
f 136 137 121
f 121 137 122
f 137 138 122
f 122 138 123
f 138 139 123
f 123 139 124
f 139 140 124
f 124 140 125
f 140 141 125
f 125 141 126
f 141 142 126
f 126 142 127
f 142 143 127
f 127 143 128
f 143 144 128
f 128 144 113
f 144 129 113
f 129 145 130
f 145 146 130
f 130 146 131
f 146 147 131
f 131 147 132
f 147 148 132
f 132 148 133
f 148 149 133
f 133 149 134
f 149 150 134
f 134 150 135
f 150 151 135
f 135 151 136
f 151 152 136
f 136 152 137
f 152 153 137
f 137 153 138
f 153 154 138
f 138 154 139
f 154 155 139
f 139 155 140
f 155 156 140
f 140 156 141
f 156 157 141
f 141 157 142
f 157 158 142
f 142 158 143
f 158 159 143
f 143 159 144
f 159 160 144
f 144 160 129
f 160 145 129
f 145 161 146
f 161 162 146
f 146 162 147
f 162 163 147
f 147 163 148
f 163 164 148
f 148 164 149
f 164 165 149
f 149 165 150
f 165 166 150
f 150 166 151
f 166 167 151
f 151 167 152
f 167 168 152
f 152 168 153
f 168 169 153
f 153 169 154
f 169 170 154
f 154 170 155
f 170 171 155
f 155 171 156
f 171 172 156
f 156 172 157
f 172 173 157
f 157 173 158
f 173 174 158
f 158 174 159
f 174 175 159
f 159 175 160
f 175 176 160
f 160 176 145
f 176 161 145
f 161 177 162
f 177 178 162
f 162 178 163
f 178 179 163
f 163 179 164
f 179 180 164
f 164 180 165
f 180 181 165
f 165 181 166
f 181 182 166
f 166 182 167
f 182 183 167
f 167 183 168
f 183 184 168
f 168 184 169
f 184 185 169
f 169 185 170
f 185 186 170
f 170 186 171
f 186 187 171
f 171 187 172
f 187 188 172
f 172 188 173
f 188 189 173
f 173 189 174
f 189 190 174
f 174 190 175
f 190 191 175
f 175 191 176
f 191 192 176
f 176 192 161
f 192 177 161
f 177 193 178
f 193 194 178
f 178 194 179
f 194 195 179
f 179 195 180
f 195 196 180
f 180 196 181
f 196 197 181
f 181 197 182
f 197 198 182
f 182 198 183
f 198 199 183
f 183 199 184
f 199 200 184
f 184 200 185
f 200 201 185
f 185 201 186
f 201 202 186
f 186 202 187
f 202 203 187
f 187 203 188
f 203 204 188
f 188 204 189
f 204 205 189
f 189 205 190
f 205 206 190
f 190 206 191
f 206 207 191
f 191 207 192
f 207 208 192
f 192 208 177
f 208 193 177
f 193 209 194
f 209 210 194
f 194 210 195
f 210 211 195
f 195 211 196
f 211 212 196
f 196 212 197
f 212 213 197
f 197 213 198
f 213 214 198
f 198 214 199
f 214 215 199
f 199 215 200
f 215 216 200
f 200 216 201
f 216 217 201
f 201 217 202
f 217 218 202
f 202 218 203
f 218 219 203
f 203 219 204
f 219 220 204
f 204 220 205
f 220 221 205
f 205 221 206
f 221 222 206
f 206 222 207
f 222 223 207
f 207 223 208
f 223 224 208
f 208 224 193
f 224 209 193
f 209 225 210
f 225 226 210
f 210 226 211
f 226 227 211
f 211 227 212
f 227 228 212
f 212 228 213
f 228 229 213
f 213 229 214
f 229 230 214
f 214 230 215
f 230 231 215
f 215 231 216
f 231 232 216
f 216 232 217
f 232 233 217
f 217 233 218
f 233 234 218
f 218 234 219
f 234 235 219
f 219 235 220
f 235 236 220
f 220 236 221
f 236 237 221
f 221 237 222
f 237 238 222
f 222 238 223
f 238 239 223
f 223 239 224
f 239 240 224
f 224 240 209
f 240 225 209
f 225 241 226
f 241 242 226
f 226 242 227
f 242 243 227
f 227 243 228
f 243 244 228
f 228 244 229
f 244 245 229
f 229 245 230
f 245 246 230
f 230 246 231
f 246 247 231
f 231 247 232
f 247 248 232
f 232 248 233
f 248 249 233
f 233 249 234
f 249 250 234
f 234 250 235
f 250 251 235
f 235 251 236
f 251 252 236
f 236 252 237
f 252 253 237
f 237 253 238
f 253 254 238
f 238 254 239
f 254 255 239
f 239 255 240
f 255 256 240
f 240 256 225
f 256 241 225
f 241 257 242
f 257 258 242
f 242 258 243
f 258 259 243
f 243 259 244
f 259 260 244
f 244 260 245
f 260 261 245
f 245 261 246
f 261 262 246
f 246 262 247
f 262 263 247
f 247 263 248
f 263 264 248
f 248 264 249
f 264 265 249
f 249 265 250
f 265 266 250
f 250 266 251
f 266 267 251
f 251 267 252
f 267 268 252
f 252 268 253
f 268 269 253
f 253 269 254
f 269 270 254
f 254 270 255
f 270 271 255
f 255 271 256
f 271 272 256
f 256 272 241
f 272 257 241
f 257 273 258
f 273 274 258
f 258 274 259
f 274 275 259
f 259 275 260
f 275 276 260
f 260 276 261
f 276 277 261
f 261 277 262
f 277 278 262
f 262 278 263
f 278 279 263
f 263 279 264
f 279 280 264
f 264 280 265
f 280 281 265
f 265 281 266
f 281 282 266
f 266 282 267
f 282 283 267
f 267 283 268
f 283 284 268
f 268 284 269
f 284 285 269
f 269 285 270
f 285 286 270
f 270 286 271
f 286 287 271
f 271 287 272
f 287 288 272
f 272 288 257
f 288 273 257
f 273 289 274
f 289 290 274
f 274 290 275
f 290 291 275
f 275 291 276
f 291 292 276
f 276 292 277
f 292 293 277
f 277 293 278
f 293 294 278
f 278 294 279
f 294 295 279
f 279 295 280
f 295 296 280
f 280 296 281
f 296 297 281
f 281 297 282
f 297 298 282
f 282 298 283
f 298 299 283
f 283 299 284
f 299 300 284
f 284 300 285
f 300 301 285
f 285 301 286
f 301 302 286
f 286 302 287
f 302 303 287
f 287 303 288
f 303 304 288
f 288 304 273
f 304 289 273
f 289 305 290
f 305 306 290
f 290 306 291
f 306 307 291
f 291 307 292
f 307 308 292
f 292 308 293
f 308 309 293
f 293 309 294
f 309 310 294
f 294 310 295
f 310 311 295
f 295 311 296
f 311 312 296
f 296 312 297
f 312 313 297
f 297 313 298
f 313 314 298
f 298 314 299
f 314 315 299
f 299 315 300
f 315 316 300
f 300 316 301
f 316 317 301
f 301 317 302
f 317 318 302
f 302 318 303
f 318 319 303
f 303 319 304
f 319 320 304
f 304 320 289
f 320 305 289
f 305 321 306
f 321 322 306
f 306 322 307
f 322 323 307
f 307 323 308
f 323 324 308
f 308 324 309
f 324 325 309
f 309 325 310
f 325 326 310
f 310 326 311
f 326 327 311
f 311 327 312
f 327 328 312
f 312 328 313
f 328 329 313
f 313 329 314
f 329 330 314
f 314 330 315
f 330 331 315
f 315 331 316
f 331 332 316
f 316 332 317
f 332 333 317
f 317 333 318
f 333 334 318
f 318 334 319
f 334 335 319
f 319 335 320
f 335 336 320
f 320 336 305
f 336 321 305
f 321 337 322
f 337 338 322
f 322 338 323
f 338 339 323
f 323 339 324
f 339 340 324
f 324 340 325
f 340 341 325
f 325 341 326
f 341 342 326
f 326 342 327
f 342 343 327
f 327 343 328
f 343 344 328
f 328 344 329
f 344 345 329
f 329 345 330
f 345 346 330
f 330 346 331
f 346 347 331
f 331 347 332
f 347 348 332
f 332 348 333
f 348 349 333
f 333 349 334
f 349 350 334
f 334 350 335
f 350 351 335
f 335 351 336
f 351 352 336
f 336 352 321
f 352 337 321
f 337 353 338
f 353 354 338
f 338 354 339
f 354 355 339
f 339 355 340
f 355 356 340
f 340 356 341
f 356 357 341
f 341 357 342
f 357 358 342
f 342 358 343
f 358 359 343
f 343 359 344
f 359 360 344
f 344 360 345
f 360 361 345
f 345 361 346
f 361 362 346
f 346 362 347
f 362 363 347
f 347 363 348
f 363 364 348
f 348 364 349
f 364 365 349
f 349 365 350
f 365 366 350
f 350 366 351
f 366 367 351
f 351 367 352
f 367 368 352
f 352 368 337
f 368 353 337
f 353 369 354
f 369 370 354
f 354 370 355
f 370 371 355
f 355 371 356
f 371 372 356
f 356 372 357
f 372 373 357
f 357 373 358
f 373 374 358
f 358 374 359
f 374 375 359
f 359 375 360
f 375 376 360
f 360 376 361
f 376 377 361
f 361 377 362
f 377 378 362
f 362 378 363
f 378 379 363
f 363 379 364
f 379 380 364
f 364 380 365
f 380 381 365
f 365 381 366
f 381 382 366
f 366 382 367
f 382 383 367
f 367 383 368
f 383 384 368
f 368 384 353
f 384 369 353
f 369 385 370
f 385 386 370
f 370 386 371
f 386 387 371
f 371 387 372
f 387 388 372
f 372 388 373
f 388 389 373
f 373 389 374
f 389 390 374
f 374 390 375
f 390 391 375
f 375 391 376
f 391 392 376
f 376 392 377
f 392 393 377
f 377 393 378
f 393 394 378
f 378 394 379
f 394 395 379
f 379 395 380
f 395 396 380
f 380 396 381
f 396 397 381
f 381 397 382
f 397 398 382
f 382 398 383
f 398 399 383
f 383 399 384
f 399 400 384
f 384 400 369
f 400 385 369
f 385 401 386
f 401 402 386
f 386 402 387
f 402 403 387
f 387 403 388
f 403 404 388
f 388 404 389
f 404 405 389
f 389 405 390
f 405 406 390
f 390 406 391
f 406 407 391
f 391 407 392
f 407 408 392
f 392 408 393
f 408 409 393
f 393 409 394
f 409 410 394
f 394 410 395
f 410 411 395
f 395 411 396
f 411 412 396
f 396 412 397
f 412 413 397
f 397 413 398
f 413 414 398
f 398 414 399
f 414 415 399
f 399 415 400
f 415 416 400
f 400 416 385
f 416 401 385
f 401 417 402
f 417 418 402
f 402 418 403
f 418 419 403
f 403 419 404
f 419 420 404
f 404 420 405
f 420 421 405
f 405 421 406
f 421 422 406
f 406 422 407
f 422 423 407
f 407 423 408
f 423 424 408
f 408 424 409
f 424 425 409
f 409 425 410
f 425 426 410
f 410 426 411
f 426 427 411
f 411 427 412
f 427 428 412
f 412 428 413
f 428 429 413
f 413 429 414
f 429 430 414
f 414 430 415
f 430 431 415
f 415 431 416
f 431 432 416
f 416 432 401
f 432 417 401
f 417 433 418
f 433 434 418
f 418 434 419
f 434 435 419
f 419 435 420
f 435 436 420
f 420 436 421
f 436 437 421
f 421 437 422
f 437 438 422
f 422 438 423
f 438 439 423
f 423 439 424
f 439 440 424
f 424 440 425
f 440 441 425
f 425 441 426
f 441 442 426
f 426 442 427
f 442 443 427
f 427 443 428
f 443 444 428
f 428 444 429
f 444 445 429
f 429 445 430
f 445 446 430
f 430 446 431
f 446 447 431
f 431 447 432
f 447 448 432
f 432 448 417
f 448 433 417
f 433 449 434
f 449 450 434
f 434 450 435
f 450 451 435
f 435 451 436
f 451 452 436
f 436 452 437
f 452 453 437
f 437 453 438
f 453 454 438
f 438 454 439
f 454 455 439
f 439 455 440
f 455 456 440
f 440 456 441
f 456 457 441
f 441 457 442
f 457 458 442
f 442 458 443
f 458 459 443
f 443 459 444
f 459 460 444
f 444 460 445
f 460 461 445
f 445 461 446
f 461 462 446
f 446 462 447
f 462 463 447
f 447 463 448
f 463 464 448
f 448 464 433
f 464 449 433
f 449 465 450
f 465 466 450
f 450 466 451
f 466 467 451
f 451 467 452
f 467 468 452
f 452 468 453
f 468 469 453
f 453 469 454
f 469 470 454
f 454 470 455
f 470 471 455
f 455 471 456
f 471 472 456
f 456 472 457
f 472 473 457
f 457 473 458
f 473 474 458
f 458 474 459
f 474 475 459
f 459 475 460
f 475 476 460
f 460 476 461
f 476 477 461
f 461 477 462
f 477 478 462
f 462 478 463
f 478 479 463
f 463 479 464
f 479 480 464
f 464 480 449
f 480 465 449
f 465 481 466
f 481 482 466
f 466 482 467
f 482 483 467
f 467 483 468
f 483 484 468
f 468 484 469
f 484 485 469
f 469 485 470
f 485 486 470
f 470 486 471
f 486 487 471
f 471 487 472
f 487 488 472
f 472 488 473
f 488 489 473
f 473 489 474
f 489 490 474
f 474 490 475
f 490 491 475
f 475 491 476
f 491 492 476
f 476 492 477
f 492 493 477
f 477 493 478
f 493 494 478
f 478 494 479
f 494 495 479
f 479 495 480
f 495 496 480
f 480 496 465
f 496 481 465
f 481 497 482
f 497 498 482
f 482 498 483
f 498 499 483
f 483 499 484
f 499 500 484
f 484 500 485
f 500 501 485
f 485 501 486
f 501 502 486
f 486 502 487
f 502 503 487
f 487 503 488
f 503 504 488
f 488 504 489
f 504 505 489
f 489 505 490
f 505 506 490
f 490 506 491
f 506 507 491
f 491 507 492
f 507 508 492
f 492 508 493
f 508 509 493
f 493 509 494
f 509 510 494
f 494 510 495
f 510 511 495
f 495 511 496
f 511 512 496
f 496 512 481
f 512 497 481
f 497 513 498
f 513 514 498
f 498 514 499
f 514 515 499
f 499 515 500
f 515 516 500
f 500 516 501
f 516 517 501
f 501 517 502
f 517 518 502
f 502 518 503
f 518 519 503
f 503 519 504
f 519 520 504
f 504 520 505
f 520 521 505
f 505 521 506
f 521 522 506
f 506 522 507
f 522 523 507
f 507 523 508
f 523 524 508
f 508 524 509
f 524 525 509
f 509 525 510
f 525 526 510
f 510 526 511
f 526 527 511
f 511 527 512
f 527 528 512
f 512 528 497
f 528 513 497
f 513 529 514
f 529 530 514
f 514 530 515
f 530 531 515
f 515 531 516
f 531 532 516
f 516 532 517
f 532 533 517
f 517 533 518
f 533 534 518
f 518 534 519
f 534 535 519
f 519 535 520
f 535 536 520
f 520 536 521
f 536 537 521
f 521 537 522
f 537 538 522
f 522 538 523
f 538 539 523
f 523 539 524
f 539 540 524
f 524 540 525
f 540 541 525
f 525 541 526
f 541 542 526
f 526 542 527
f 542 543 527
f 527 543 528
f 543 544 528
f 528 544 513
f 544 529 513
f 529 545 530
f 545 546 530
f 530 546 531
f 546 547 531
f 531 547 532
f 547 548 532
f 532 548 533
f 548 549 533
f 533 549 534
f 549 550 534
f 534 550 535
f 550 551 535
f 535 551 536
f 551 552 536
f 536 552 537
f 552 553 537
f 537 553 538
f 553 554 538
f 538 554 539
f 554 555 539
f 539 555 540
f 555 556 540
f 540 556 541
f 556 557 541
f 541 557 542
f 557 558 542
f 542 558 543
f 558 559 543
f 543 559 544
f 559 560 544
f 544 560 529
f 560 545 529
f 545 561 546
f 561 562 546
f 546 562 547
f 562 563 547
f 547 563 548
f 563 564 548
f 548 564 549
f 564 565 549
f 549 565 550
f 565 566 550
f 550 566 551
f 566 567 551
f 551 567 552
f 567 568 552
f 552 568 553
f 568 569 553
f 553 569 554
f 569 570 554
f 554 570 555
f 570 571 555
f 555 571 556
f 571 572 556
f 556 572 557
f 572 573 557
f 557 573 558
f 573 574 558
f 558 574 559
f 574 575 559
f 559 575 560
f 575 576 560
f 560 576 545
f 576 561 545
f 561 577 562
f 577 578 562
f 562 578 563
f 578 579 563
f 563 579 564
f 579 580 564
f 564 580 565
f 580 581 565
f 565 581 566
f 581 582 566
f 566 582 567
f 582 583 567
f 567 583 568
f 583 584 568
f 568 584 569
f 584 585 569
f 569 585 570
f 585 586 570
f 570 586 571
f 586 587 571
f 571 587 572
f 587 588 572
f 572 588 573
f 588 589 573
f 573 589 574
f 589 590 574
f 574 590 575
f 590 591 575
f 575 591 576
f 591 592 576
f 576 592 561
f 592 577 561
f 577 593 578
f 593 594 578
f 578 594 579
f 594 595 579
f 579 595 580
f 595 596 580
f 580 596 581
f 596 597 581
f 581 597 582
f 597 598 582
f 582 598 583
f 598 599 583
f 583 599 584
f 599 600 584
f 584 600 585
f 600 601 585
f 585 601 586
f 601 602 586
f 586 602 587
f 602 603 587
f 587 603 588
f 603 604 588
f 588 604 589
f 604 605 589
f 589 605 590
f 605 606 590
f 590 606 591
f 606 607 591
f 591 607 592
f 607 608 592
f 592 608 577
f 608 593 577
f 593 609 594
f 609 610 594
f 594 610 595
f 610 611 595
f 595 611 596
f 611 612 596
f 596 612 597
f 612 613 597
f 597 613 598
f 613 614 598
f 598 614 599
f 614 615 599
f 599 615 600
f 615 616 600
f 600 616 601
f 616 617 601
f 601 617 602
f 617 618 602
f 602 618 603
f 618 619 603
f 603 619 604
f 619 620 604
f 604 620 605
f 620 621 605
f 605 621 606
f 621 622 606
f 606 622 607
f 622 623 607
f 607 623 608
f 623 624 608
f 608 624 593
f 624 609 593
f 609 625 610
f 625 626 610
f 610 626 611
f 626 627 611
f 611 627 612
f 627 628 612
f 612 628 613
f 628 629 613
f 613 629 614
f 629 630 614
f 614 630 615
f 630 631 615
f 615 631 616
f 631 632 616
f 616 632 617
f 632 633 617
f 617 633 618
f 633 634 618
f 618 634 619
f 634 635 619
f 619 635 620
f 635 636 620
f 620 636 621
f 636 637 621
f 621 637 622
f 637 638 622
f 622 638 623
f 638 639 623
f 623 639 624
f 639 640 624
f 624 640 609
f 640 625 609
f 625 641 626
f 641 642 626
f 626 642 627
f 642 643 627
f 627 643 628
f 643 644 628
f 628 644 629
f 644 645 629
f 629 645 630
f 645 646 630
f 630 646 631
f 646 647 631
f 631 647 632
f 647 648 632
f 632 648 633
f 648 649 633
f 633 649 634
f 649 650 634
f 634 650 635
f 650 651 635
f 635 651 636
f 651 652 636
f 636 652 637
f 652 653 637
f 637 653 638
f 653 654 638
f 638 654 639
f 654 655 639
f 639 655 640
f 655 656 640
f 640 656 625
f 656 641 625
f 641 657 642
f 657 658 642
f 642 658 643
f 658 659 643
f 643 659 644
f 659 660 644
f 644 660 645
f 660 661 645
f 645 661 646
f 661 662 646
f 646 662 647
f 662 663 647
f 647 663 648
f 663 664 648
f 648 664 649
f 664 665 649
f 649 665 650
f 665 666 650
f 650 666 651
f 666 667 651
f 651 667 652
f 667 668 652
f 652 668 653
f 668 669 653
f 653 669 654
f 669 670 654
f 654 670 655
f 670 671 655
f 655 671 656
f 671 672 656
f 656 672 641
f 672 657 641
f 657 673 658
f 673 674 658
f 658 674 659
f 674 675 659
f 659 675 660
f 675 676 660
f 660 676 661
f 676 677 661
f 661 677 662
f 677 678 662
f 662 678 663
f 678 679 663
f 663 679 664
f 679 680 664
f 664 680 665
f 680 681 665
f 665 681 666
f 681 682 666
f 666 682 667
f 682 683 667
f 667 683 668
f 683 684 668
f 668 684 669
f 684 685 669
f 669 685 670
f 685 686 670
f 670 686 671
f 686 687 671
f 671 687 672
f 687 688 672
f 672 688 657
f 688 673 657
f 673 689 674
f 689 690 674
f 674 690 675
f 690 691 675
f 675 691 676
f 691 692 676
f 676 692 677
f 692 693 677
f 677 693 678
f 693 694 678
f 678 694 679
f 694 695 679
f 679 695 680
f 695 696 680
f 680 696 681
f 696 697 681
f 681 697 682
f 697 698 682
f 682 698 683
f 698 699 683
f 683 699 684
f 699 700 684
f 684 700 685
f 700 701 685
f 685 701 686
f 701 702 686
f 686 702 687
f 702 703 687
f 687 703 688
f 703 704 688
f 688 704 673
f 704 689 673
f 689 705 690
f 705 706 690
f 690 706 691
f 706 707 691
f 691 707 692
f 707 708 692
f 692 708 693
f 708 709 693
f 693 709 694
f 709 710 694
f 694 710 695
f 710 711 695
f 695 711 696
f 711 712 696
f 696 712 697
f 712 713 697
f 697 713 698
f 713 714 698
f 698 714 699
f 714 715 699
f 699 715 700
f 715 716 700
f 700 716 701
f 716 717 701
f 701 717 702
f 717 718 702
f 702 718 703
f 718 719 703
f 703 719 704
f 719 720 704
f 704 720 689
f 720 705 689
f 705 721 706
f 721 722 706
f 706 722 707
f 722 723 707
f 707 723 708
f 723 724 708
f 708 724 709
f 724 725 709
f 709 725 710
f 725 726 710
f 710 726 711
f 726 727 711
f 711 727 712
f 727 728 712
f 712 728 713
f 728 729 713
f 713 729 714
f 729 730 714
f 714 730 715
f 730 731 715
f 715 731 716
f 731 732 716
f 716 732 717
f 732 733 717
f 717 733 718
f 733 734 718
f 718 734 719
f 734 735 719
f 719 735 720
f 735 736 720
f 720 736 705
f 736 721 705
f 721 737 722
f 737 738 722
f 722 738 723
f 738 739 723
f 723 739 724
f 739 740 724
f 724 740 725
f 740 741 725
f 725 741 726
f 741 742 726
f 726 742 727
f 742 743 727
f 727 743 728
f 743 744 728
f 728 744 729
f 744 745 729
f 729 745 730
f 745 746 730
f 730 746 731
f 746 747 731
f 731 747 732
f 747 748 732
f 732 748 733
f 748 749 733
f 733 749 734
f 749 750 734
f 734 750 735
f 750 751 735
f 735 751 736
f 751 752 736
f 736 752 721
f 752 737 721
f 737 753 738
f 753 754 738
f 738 754 739
f 754 755 739
f 739 755 740
f 755 756 740
f 740 756 741
f 756 757 741
f 741 757 742
f 757 758 742
f 742 758 743
f 758 759 743
f 743 759 744
f 759 760 744
f 744 760 745
f 760 761 745
f 745 761 746
f 761 762 746
f 746 762 747
f 762 763 747
f 747 763 748
f 763 764 748
f 748 764 749
f 764 765 749
f 749 765 750
f 765 766 750
f 750 766 751
f 766 767 751
f 751 767 752
f 767 768 752
f 752 768 737
f 768 753 737
f 753 769 754
f 769 770 754
f 754 770 755
f 770 771 755
f 755 771 756
f 771 772 756
f 756 772 757
f 772 773 757
f 757 773 758
f 773 774 758
f 758 774 759
f 774 775 759
f 759 775 760
f 775 776 760
f 760 776 761
f 776 777 761
f 761 777 762
f 777 778 762
f 762 778 763
f 778 779 763
f 763 779 764
f 779 780 764
f 764 780 765
f 780 781 765
f 765 781 766
f 781 782 766
f 766 782 767
f 782 783 767
f 767 783 768
f 783 784 768
f 768 784 753
f 784 769 753
f 769 785 770
f 785 786 770
f 770 786 771
f 786 787 771
f 771 787 772
f 787 788 772
f 772 788 773
f 788 789 773
f 773 789 774
f 789 790 774
f 774 790 775
f 790 791 775
f 775 791 776
f 791 792 776
f 776 792 777
f 792 793 777
f 777 793 778
f 793 794 778
f 778 794 779
f 794 795 779
f 779 795 780
f 795 796 780
f 780 796 781
f 796 797 781
f 781 797 782
f 797 798 782
f 782 798 783
f 798 799 783
f 783 799 784
f 799 800 784
f 784 800 769
f 800 785 769
f 785 801 786
f 801 802 786
f 786 802 787
f 802 803 787
f 787 803 788
f 803 804 788
f 788 804 789
f 804 805 789
f 789 805 790
f 805 806 790
f 790 806 791
f 806 807 791
f 791 807 792
f 807 808 792
f 792 808 793
f 808 809 793
f 793 809 794
f 809 810 794
f 794 810 795
f 810 811 795
f 795 811 796
f 811 812 796
f 796 812 797
f 812 813 797
f 797 813 798
f 813 814 798
f 798 814 799
f 814 815 799
f 799 815 800
f 815 816 800
f 800 816 785
f 816 801 785
f 801 817 802
f 817 818 802
f 802 818 803
f 818 819 803
f 803 819 804
f 819 820 804
f 804 820 805
f 820 821 805
f 805 821 806
f 821 822 806
f 806 822 807
f 822 823 807
f 807 823 808
f 823 824 808
f 808 824 809
f 824 825 809
f 809 825 810
f 825 826 810
f 810 826 811
f 826 827 811
f 811 827 812
f 827 828 812
f 812 828 813
f 828 829 813
f 813 829 814
f 829 830 814
f 814 830 815
f 830 831 815
f 815 831 816
f 831 832 816
f 816 832 801
f 832 817 801
f 817 833 818
f 833 834 818
f 818 834 819
f 834 835 819
f 819 835 820
f 835 836 820
f 820 836 821
f 836 837 821
f 821 837 822
f 837 838 822
f 822 838 823
f 838 839 823
f 823 839 824
f 839 840 824
f 824 840 825
f 840 841 825
f 825 841 826
f 841 842 826
f 826 842 827
f 842 843 827
f 827 843 828
f 843 844 828
f 828 844 829
f 844 845 829
f 829 845 830
f 845 846 830
f 830 846 831
f 846 847 831
f 831 847 832
f 847 848 832
f 832 848 817
f 848 833 817
f 833 849 834
f 849 850 834
f 834 850 835
f 850 851 835
f 835 851 836
f 851 852 836
f 836 852 837
f 852 853 837
f 837 853 838
f 853 854 838
f 838 854 839
f 854 855 839
f 839 855 840
f 855 856 840
f 840 856 841
f 856 857 841
f 841 857 842
f 857 858 842
f 842 858 843
f 858 859 843
f 843 859 844
f 859 860 844
f 844 860 845
f 860 861 845
f 845 861 846
f 861 862 846
f 846 862 847
f 862 863 847
f 847 863 848
f 863 864 848
f 848 864 833
f 864 849 833
f 849 865 850
f 865 866 850
f 850 866 851
f 866 867 851
f 851 867 852
f 867 868 852
f 852 868 853
f 868 869 853
f 853 869 854
f 869 870 854
f 854 870 855
f 870 871 855
f 855 871 856
f 871 872 856
f 856 872 857
f 872 873 857
f 857 873 858
f 873 874 858
f 858 874 859
f 874 875 859
f 859 875 860
f 875 876 860
f 860 876 861
f 876 877 861
f 861 877 862
f 877 878 862
f 862 878 863
f 878 879 863
f 863 879 864
f 879 880 864
f 864 880 849
f 880 865 849
f 865 881 866
f 881 882 866
f 866 882 867
f 882 883 867
f 867 883 868
f 883 884 868
f 868 884 869
f 884 885 869
f 869 885 870
f 885 886 870
f 870 886 871
f 886 887 871
f 871 887 872
f 887 888 872
f 872 888 873
f 888 889 873
f 873 889 874
f 889 890 874
f 874 890 875
f 890 891 875
f 875 891 876
f 891 892 876
f 876 892 877
f 892 893 877
f 877 893 878
f 893 894 878
f 878 894 879
f 894 895 879
f 879 895 880
f 895 896 880
f 880 896 865
f 896 881 865
f 881 897 882
f 897 898 882
f 882 898 883
f 898 899 883
f 883 899 884
f 899 900 884
f 884 900 885
f 900 901 885
f 885 901 886
f 901 902 886
f 886 902 887
f 902 903 887
f 887 903 888
f 903 904 888
f 888 904 889
f 904 905 889
f 889 905 890
f 905 906 890
f 890 906 891
f 906 907 891
f 891 907 892
f 907 908 892
f 892 908 893
f 908 909 893
f 893 909 894
f 909 910 894
f 894 910 895
f 910 911 895
f 895 911 896
f 911 912 896
f 896 912 881
f 912 897 881
f 897 913 898
f 913 914 898
f 898 914 899
f 914 915 899
f 899 915 900
f 915 916 900
f 900 916 901
f 916 917 901
f 901 917 902
f 917 918 902
f 902 918 903
f 918 919 903
f 903 919 904
f 919 920 904
f 904 920 905
f 920 921 905
f 905 921 906
f 921 922 906
f 906 922 907
f 922 923 907
f 907 923 908
f 923 924 908
f 908 924 909
f 924 925 909
f 909 925 910
f 925 926 910
f 910 926 911
f 926 927 911
f 911 927 912
f 927 928 912
f 912 928 897
f 928 913 897
f 913 929 914
f 929 930 914
f 914 930 915
f 930 931 915
f 915 931 916
f 931 932 916
f 916 932 917
f 932 933 917
f 917 933 918
f 933 934 918
f 918 934 919
f 934 935 919
f 919 935 920
f 935 936 920
f 920 936 921
f 936 937 921
f 921 937 922
f 937 938 922
f 922 938 923
f 938 939 923
f 923 939 924
f 939 940 924
f 924 940 925
f 940 941 925
f 925 941 926
f 941 942 926
f 926 942 927
f 942 943 927
f 927 943 928
f 943 944 928
f 928 944 913
f 944 929 913
f 929 945 930
f 945 946 930
f 930 946 931
f 946 947 931
f 931 947 932
f 947 948 932
f 932 948 933
f 948 949 933
f 933 949 934
f 949 950 934
f 934 950 935
f 950 951 935
f 935 951 936
f 951 952 936
f 936 952 937
f 952 953 937
f 937 953 938
f 953 954 938
f 938 954 939
f 954 955 939
f 939 955 940
f 955 956 940
f 940 956 941
f 956 957 941
f 941 957 942
f 957 958 942
f 942 958 943
f 958 959 943
f 943 959 944
f 959 960 944
f 944 960 929
f 960 945 929
f 945 961 946
f 961 962 946
f 946 962 947
f 962 963 947
f 947 963 948
f 963 964 948
f 948 964 949
f 964 965 949
f 949 965 950
f 965 966 950
f 950 966 951
f 966 967 951
f 951 967 952
f 967 968 952
f 952 968 953
f 968 969 953
f 953 969 954
f 969 970 954
f 954 970 955
f 970 971 955
f 955 971 956
f 971 972 956
f 956 972 957
f 972 973 957
f 957 973 958
f 973 974 958
f 958 974 959
f 974 975 959
f 959 975 960
f 975 976 960
f 960 976 945
f 976 961 945
f 961 977 962
f 977 978 962
f 962 978 963
f 978 979 963
f 963 979 964
f 979 980 964
f 964 980 965
f 980 981 965
f 965 981 966
f 981 982 966
f 966 982 967
f 982 983 967
f 967 983 968
f 983 984 968
f 968 984 969
f 984 985 969
f 969 985 970
f 985 986 970
f 970 986 971
f 986 987 971
f 971 987 972
f 987 988 972
f 972 988 973
f 988 989 973
f 973 989 974
f 989 990 974
f 974 990 975
f 990 991 975
f 975 991 976
f 991 992 976
f 976 992 961
f 992 977 961
f 977 993 978
f 993 994 978
f 978 994 979
f 994 995 979
f 979 995 980
f 995 996 980
f 980 996 981
f 996 997 981
f 981 997 982
f 997 998 982
f 982 998 983
f 998 999 983
f 983 999 984
f 999 1000 984
f 984 1000 985
f 1000 1001 985
f 985 1001 986
f 1001 1002 986
f 986 1002 987
f 1002 1003 987
f 987 1003 988
f 1003 1004 988
f 988 1004 989
f 1004 1005 989
f 989 1005 990
f 1005 1006 990
f 990 1006 991
f 1006 1007 991
f 991 1007 992
f 1007 1008 992
f 992 1008 977
f 1008 993 977
f 993 1009 994
f 1009 1010 994
f 994 1010 995
f 1010 1011 995
f 995 1011 996
f 1011 1012 996
f 996 1012 997
f 1012 1013 997
f 997 1013 998
f 1013 1014 998
f 998 1014 999
f 1014 1015 999
f 999 1015 1000
f 1015 1016 1000
f 1000 1016 1001
f 1016 1017 1001
f 1001 1017 1002
f 1017 1018 1002
f 1002 1018 1003
f 1018 1019 1003
f 1003 1019 1004
f 1019 1020 1004
f 1004 1020 1005
f 1020 1021 1005
f 1005 1021 1006
f 1021 1022 1006
f 1006 1022 1007
f 1022 1023 1007
f 1007 1023 1008
f 1023 1024 1008
f 1008 1024 993
f 1024 1009 993
f 1009 1025 1010
f 1025 1026 1010
f 1010 1026 1011
f 1026 1027 1011
f 1011 1027 1012
f 1027 1028 1012
f 1012 1028 1013
f 1028 1029 1013
f 1013 1029 1014
f 1029 1030 1014
f 1014 1030 1015
f 1030 1031 1015
f 1015 1031 1016
f 1031 1032 1016
f 1016 1032 1017
f 1032 1033 1017
f 1017 1033 1018
f 1033 1034 1018
f 1018 1034 1019
f 1034 1035 1019
f 1019 1035 1020
f 1035 1036 1020
f 1020 1036 1021
f 1036 1037 1021
f 1021 1037 1022
f 1037 1038 1022
f 1022 1038 1023
f 1038 1039 1023
f 1023 1039 1024
f 1039 1040 1024
f 1024 1040 1009
f 1040 1025 1009
f 1025 1041 1026
f 1041 1042 1026
f 1026 1042 1027
f 1042 1043 1027
f 1027 1043 1028
f 1043 1044 1028
f 1028 1044 1029
f 1044 1045 1029
f 1029 1045 1030
f 1045 1046 1030
f 1030 1046 1031
f 1046 1047 1031
f 1031 1047 1032
f 1047 1048 1032
f 1032 1048 1033
f 1048 1049 1033
f 1033 1049 1034
f 1049 1050 1034
f 1034 1050 1035
f 1050 1051 1035
f 1035 1051 1036
f 1051 1052 1036
f 1036 1052 1037
f 1052 1053 1037
f 1037 1053 1038
f 1053 1054 1038
f 1038 1054 1039
f 1054 1055 1039
f 1039 1055 1040
f 1055 1056 1040
f 1040 1056 1025
f 1056 1041 1025
f 1041 1057 1042
f 1057 1058 1042
f 1042 1058 1043
f 1058 1059 1043
f 1043 1059 1044
f 1059 1060 1044
f 1044 1060 1045
f 1060 1061 1045
f 1045 1061 1046
f 1061 1062 1046
f 1046 1062 1047
f 1062 1063 1047
f 1047 1063 1048
f 1063 1064 1048
f 1048 1064 1049
f 1064 1065 1049
f 1049 1065 1050
f 1065 1066 1050
f 1050 1066 1051
f 1066 1067 1051
f 1051 1067 1052
f 1067 1068 1052
f 1052 1068 1053
f 1068 1069 1053
f 1053 1069 1054
f 1069 1070 1054
f 1054 1070 1055
f 1070 1071 1055
f 1055 1071 1056
f 1071 1072 1056
f 1056 1072 1041
f 1072 1057 1041
f 1057 1073 1058
f 1073 1074 1058
f 1058 1074 1059
f 1074 1075 1059
f 1059 1075 1060
f 1075 1076 1060
f 1060 1076 1061
f 1076 1077 1061
f 1061 1077 1062
f 1077 1078 1062
f 1062 1078 1063
f 1078 1079 1063
f 1063 1079 1064
f 1079 1080 1064
f 1064 1080 1065
f 1080 1081 1065
f 1065 1081 1066
f 1081 1082 1066
f 1066 1082 1067
f 1082 1083 1067
f 1067 1083 1068
f 1083 1084 1068
f 1068 1084 1069
f 1084 1085 1069
f 1069 1085 1070
f 1085 1086 1070
f 1070 1086 1071
f 1086 1087 1071
f 1071 1087 1072
f 1087 1088 1072
f 1072 1088 1057
f 1088 1073 1057
f 1073 1089 1074
f 1089 1090 1074
f 1074 1090 1075
f 1090 1091 1075
f 1075 1091 1076
f 1091 1092 1076
f 1076 1092 1077
f 1092 1093 1077
f 1077 1093 1078
f 1093 1094 1078
f 1078 1094 1079
f 1094 1095 1079
f 1079 1095 1080
f 1095 1096 1080
f 1080 1096 1081
f 1096 1097 1081
f 1081 1097 1082
f 1097 1098 1082
f 1082 1098 1083
f 1098 1099 1083
f 1083 1099 1084
f 1099 1100 1084
f 1084 1100 1085
f 1100 1101 1085
f 1085 1101 1086
f 1101 1102 1086
f 1086 1102 1087
f 1102 1103 1087
f 1087 1103 1088
f 1103 1104 1088
f 1088 1104 1073
f 1104 1089 1073
f 1089 1105 1090
f 1105 1106 1090
f 1090 1106 1091
f 1106 1107 1091
f 1091 1107 1092
f 1107 1108 1092
f 1092 1108 1093
f 1108 1109 1093
f 1093 1109 1094
f 1109 1110 1094
f 1094 1110 1095
f 1110 1111 1095
f 1095 1111 1096
f 1111 1112 1096
f 1096 1112 1097
f 1112 1113 1097
f 1097 1113 1098
f 1113 1114 1098
f 1098 1114 1099
f 1114 1115 1099
f 1099 1115 1100
f 1115 1116 1100
f 1100 1116 1101
f 1116 1117 1101
f 1101 1117 1102
f 1117 1118 1102
f 1102 1118 1103
f 1118 1119 1103
f 1103 1119 1104
f 1119 1120 1104
f 1104 1120 1089
f 1120 1105 1089
f 1105 1121 1106
f 1121 1122 1106
f 1106 1122 1107
f 1122 1123 1107
f 1107 1123 1108
f 1123 1124 1108
f 1108 1124 1109
f 1124 1125 1109
f 1109 1125 1110
f 1125 1126 1110
f 1110 1126 1111
f 1126 1127 1111
f 1111 1127 1112
f 1127 1128 1112
f 1112 1128 1113
f 1128 1129 1113
f 1113 1129 1114
f 1129 1130 1114
f 1114 1130 1115
f 1130 1131 1115
f 1115 1131 1116
f 1131 1132 1116
f 1116 1132 1117
f 1132 1133 1117
f 1117 1133 1118
f 1133 1134 1118
f 1118 1134 1119
f 1134 1135 1119
f 1119 1135 1120
f 1135 1136 1120
f 1120 1136 1105
f 1136 1121 1105
f 1121 1137 1122
f 1137 1138 1122
f 1122 1138 1123
f 1138 1139 1123
f 1123 1139 1124
f 1139 1140 1124
f 1124 1140 1125
f 1140 1141 1125
f 1125 1141 1126
f 1141 1142 1126
f 1126 1142 1127
f 1142 1143 1127
f 1127 1143 1128
f 1143 1144 1128
f 1128 1144 1129
f 1144 1145 1129
f 1129 1145 1130
f 1145 1146 1130
f 1130 1146 1131
f 1146 1147 1131
f 1131 1147 1132
f 1147 1148 1132
f 1132 1148 1133
f 1148 1149 1133
f 1133 1149 1134
f 1149 1150 1134
f 1134 1150 1135
f 1150 1151 1135
f 1135 1151 1136
f 1151 1152 1136
f 1136 1152 1121
f 1152 1137 1121
f 1137 1153 1138
f 1153 1154 1138
f 1138 1154 1139
f 1154 1155 1139
f 1139 1155 1140
f 1155 1156 1140
f 1140 1156 1141
f 1156 1157 1141
f 1141 1157 1142
f 1157 1158 1142
f 1142 1158 1143
f 1158 1159 1143
f 1143 1159 1144
f 1159 1160 1144
f 1144 1160 1145
f 1160 1161 1145
f 1145 1161 1146
f 1161 1162 1146
f 1146 1162 1147
f 1162 1163 1147
f 1147 1163 1148
f 1163 1164 1148
f 1148 1164 1149
f 1164 1165 1149
f 1149 1165 1150
f 1165 1166 1150
f 1150 1166 1151
f 1166 1167 1151
f 1151 1167 1152
f 1167 1168 1152
f 1152 1168 1137
f 1168 1153 1137
f 1153 1169 1154
f 1169 1170 1154
f 1154 1170 1155
f 1170 1171 1155
f 1155 1171 1156
f 1171 1172 1156
f 1156 1172 1157
f 1172 1173 1157
f 1157 1173 1158
f 1173 1174 1158
f 1158 1174 1159
f 1174 1175 1159
f 1159 1175 1160
f 1175 1176 1160
f 1160 1176 1161
f 1176 1177 1161
f 1161 1177 1162
f 1177 1178 1162
f 1162 1178 1163
f 1178 1179 1163
f 1163 1179 1164
f 1179 1180 1164
f 1164 1180 1165
f 1180 1181 1165
f 1165 1181 1166
f 1181 1182 1166
f 1166 1182 1167
f 1182 1183 1167
f 1167 1183 1168
f 1183 1184 1168
f 1168 1184 1153
f 1184 1169 1153
f 1169 1185 1170
f 1185 1186 1170
f 1170 1186 1171
f 1186 1187 1171
f 1171 1187 1172
f 1187 1188 1172
f 1172 1188 1173
f 1188 1189 1173
f 1173 1189 1174
f 1189 1190 1174
f 1174 1190 1175
f 1190 1191 1175
f 1175 1191 1176
f 1191 1192 1176
f 1176 1192 1177
f 1192 1193 1177
f 1177 1193 1178
f 1193 1194 1178
f 1178 1194 1179
f 1194 1195 1179
f 1179 1195 1180
f 1195 1196 1180
f 1180 1196 1181
f 1196 1197 1181
f 1181 1197 1182
f 1197 1198 1182
f 1182 1198 1183
f 1198 1199 1183
f 1183 1199 1184
f 1199 1200 1184
f 1184 1200 1169
f 1200 1185 1169
f 1185 1201 1186
f 1201 1202 1186
f 1186 1202 1187
f 1202 1203 1187
f 1187 1203 1188
f 1203 1204 1188
f 1188 1204 1189
f 1204 1205 1189
f 1189 1205 1190
f 1205 1206 1190
f 1190 1206 1191
f 1206 1207 1191
f 1191 1207 1192
f 1207 1208 1192
f 1192 1208 1193
f 1208 1209 1193
f 1193 1209 1194
f 1209 1210 1194
f 1194 1210 1195
f 1210 1211 1195
f 1195 1211 1196
f 1211 1212 1196
f 1196 1212 1197
f 1212 1213 1197
f 1197 1213 1198
f 1213 1214 1198
f 1198 1214 1199
f 1214 1215 1199
f 1199 1215 1200
f 1215 1216 1200
f 1200 1216 1185
f 1216 1201 1185
f 1201 1217 1202
f 1217 1218 1202
f 1202 1218 1203
f 1218 1219 1203
f 1203 1219 1204
f 1219 1220 1204
f 1204 1220 1205
f 1220 1221 1205
f 1205 1221 1206
f 1221 1222 1206
f 1206 1222 1207
f 1222 1223 1207
f 1207 1223 1208
f 1223 1224 1208
f 1208 1224 1209
f 1224 1225 1209
f 1209 1225 1210
f 1225 1226 1210
f 1210 1226 1211
f 1226 1227 1211
f 1211 1227 1212
f 1227 1228 1212
f 1212 1228 1213
f 1228 1229 1213
f 1213 1229 1214
f 1229 1230 1214
f 1214 1230 1215
f 1230 1231 1215
f 1215 1231 1216
f 1231 1232 1216
f 1216 1232 1201
f 1232 1217 1201
f 1217 1233 1218
f 1233 1234 1218
f 1218 1234 1219
f 1234 1235 1219
f 1219 1235 1220
f 1235 1236 1220
f 1220 1236 1221
f 1236 1237 1221
f 1221 1237 1222
f 1237 1238 1222
f 1222 1238 1223
f 1238 1239 1223
f 1223 1239 1224
f 1239 1240 1224
f 1224 1240 1225
f 1240 1241 1225
f 1225 1241 1226
f 1241 1242 1226
f 1226 1242 1227
f 1242 1243 1227
f 1227 1243 1228
f 1243 1244 1228
f 1228 1244 1229
f 1244 1245 1229
f 1229 1245 1230
f 1245 1246 1230
f 1230 1246 1231
f 1246 1247 1231
f 1231 1247 1232
f 1247 1248 1232
f 1232 1248 1217
f 1248 1233 1217
f 1233 1249 1234
f 1249 1250 1234
f 1234 1250 1235
f 1250 1251 1235
f 1235 1251 1236
f 1251 1252 1236
f 1236 1252 1237
f 1252 1253 1237
f 1237 1253 1238
f 1253 1254 1238
f 1238 1254 1239
f 1254 1255 1239
f 1239 1255 1240
f 1255 1256 1240
f 1240 1256 1241
f 1256 1257 1241
f 1241 1257 1242
f 1257 1258 1242
f 1242 1258 1243
f 1258 1259 1243
f 1243 1259 1244
f 1259 1260 1244
f 1244 1260 1245
f 1260 1261 1245
f 1245 1261 1246
f 1261 1262 1246
f 1246 1262 1247
f 1262 1263 1247
f 1247 1263 1248
f 1263 1264 1248
f 1248 1264 1233
f 1264 1249 1233
f 1249 1265 1250
f 1265 1266 1250
f 1250 1266 1251
f 1266 1267 1251
f 1251 1267 1252
f 1267 1268 1252
f 1252 1268 1253
f 1268 1269 1253
f 1253 1269 1254
f 1269 1270 1254
f 1254 1270 1255
f 1270 1271 1255
f 1255 1271 1256
f 1271 1272 1256
f 1256 1272 1257
f 1272 1273 1257
f 1257 1273 1258
f 1273 1274 1258
f 1258 1274 1259
f 1274 1275 1259
f 1259 1275 1260
f 1275 1276 1260
f 1260 1276 1261
f 1276 1277 1261
f 1261 1277 1262
f 1277 1278 1262
f 1262 1278 1263
f 1278 1279 1263
f 1263 1279 1264
f 1279 1280 1264
f 1264 1280 1249
f 1280 1265 1249
f 1265 1281 1266
f 1281 1282 1266
f 1266 1282 1267
f 1282 1283 1267
f 1267 1283 1268
f 1283 1284 1268
f 1268 1284 1269
f 1284 1285 1269
f 1269 1285 1270
f 1285 1286 1270
f 1270 1286 1271
f 1286 1287 1271
f 1271 1287 1272
f 1287 1288 1272
f 1272 1288 1273
f 1288 1289 1273
f 1273 1289 1274
f 1289 1290 1274
f 1274 1290 1275
f 1290 1291 1275
f 1275 1291 1276
f 1291 1292 1276
f 1276 1292 1277
f 1292 1293 1277
f 1277 1293 1278
f 1293 1294 1278
f 1278 1294 1279
f 1294 1295 1279
f 1279 1295 1280
f 1295 1296 1280
f 1280 1296 1265
f 1296 1281 1265
f 1281 1297 1282
f 1297 1298 1282
f 1282 1298 1283
f 1298 1299 1283
f 1283 1299 1284
f 1299 1300 1284
f 1284 1300 1285
f 1300 1301 1285
f 1285 1301 1286
f 1301 1302 1286
f 1286 1302 1287
f 1302 1303 1287
f 1287 1303 1288
f 1303 1304 1288
f 1288 1304 1289
f 1304 1305 1289
f 1289 1305 1290
f 1305 1306 1290
f 1290 1306 1291
f 1306 1307 1291
f 1291 1307 1292
f 1307 1308 1292
f 1292 1308 1293
f 1308 1309 1293
f 1293 1309 1294
f 1309 1310 1294
f 1294 1310 1295
f 1310 1311 1295
f 1295 1311 1296
f 1311 1312 1296
f 1296 1312 1281
f 1312 1297 1281
f 1297 1313 1298
f 1313 1314 1298
f 1298 1314 1299
f 1314 1315 1299
f 1299 1315 1300
f 1315 1316 1300
f 1300 1316 1301
f 1316 1317 1301
f 1301 1317 1302
f 1317 1318 1302
f 1302 1318 1303
f 1318 1319 1303
f 1303 1319 1304
f 1319 1320 1304
f 1304 1320 1305
f 1320 1321 1305
f 1305 1321 1306
f 1321 1322 1306
f 1306 1322 1307
f 1322 1323 1307
f 1307 1323 1308
f 1323 1324 1308
f 1308 1324 1309
f 1324 1325 1309
f 1309 1325 1310
f 1325 1326 1310
f 1310 1326 1311
f 1326 1327 1311
f 1311 1327 1312
f 1327 1328 1312
f 1312 1328 1297
f 1328 1313 1297
f 1313 1329 1314
f 1329 1330 1314
f 1314 1330 1315
f 1330 1331 1315
f 1315 1331 1316
f 1331 1332 1316
f 1316 1332 1317
f 1332 1333 1317
f 1317 1333 1318
f 1333 1334 1318
f 1318 1334 1319
f 1334 1335 1319
f 1319 1335 1320
f 1335 1336 1320
f 1320 1336 1321
f 1336 1337 1321
f 1321 1337 1322
f 1337 1338 1322
f 1322 1338 1323
f 1338 1339 1323
f 1323 1339 1324
f 1339 1340 1324
f 1324 1340 1325
f 1340 1341 1325
f 1325 1341 1326
f 1341 1342 1326
f 1326 1342 1327
f 1342 1343 1327
f 1327 1343 1328
f 1343 1344 1328
f 1328 1344 1313
f 1344 1329 1313
f 1329 1345 1330
f 1345 1346 1330
f 1330 1346 1331
f 1346 1347 1331
f 1331 1347 1332
f 1347 1348 1332
f 1332 1348 1333
f 1348 1349 1333
f 1333 1349 1334
f 1349 1350 1334
f 1334 1350 1335
f 1350 1351 1335
f 1335 1351 1336
f 1351 1352 1336
f 1336 1352 1337
f 1352 1353 1337
f 1337 1353 1338
f 1353 1354 1338
f 1338 1354 1339
f 1354 1355 1339
f 1339 1355 1340
f 1355 1356 1340
f 1340 1356 1341
f 1356 1357 1341
f 1341 1357 1342
f 1357 1358 1342
f 1342 1358 1343
f 1358 1359 1343
f 1343 1359 1344
f 1359 1360 1344
f 1344 1360 1329
f 1360 1345 1329
f 1345 1361 1346
f 1361 1362 1346
f 1346 1362 1347
f 1362 1363 1347
f 1347 1363 1348
f 1363 1364 1348
f 1348 1364 1349
f 1364 1365 1349
f 1349 1365 1350
f 1365 1366 1350
f 1350 1366 1351
f 1366 1367 1351
f 1351 1367 1352
f 1367 1368 1352
f 1352 1368 1353
f 1368 1369 1353
f 1353 1369 1354
f 1369 1370 1354
f 1354 1370 1355
f 1370 1371 1355
f 1355 1371 1356
f 1371 1372 1356
f 1356 1372 1357
f 1372 1373 1357
f 1357 1373 1358
f 1373 1374 1358
f 1358 1374 1359
f 1374 1375 1359
f 1359 1375 1360
f 1375 1376 1360
f 1360 1376 1345
f 1376 1361 1345
f 1361 1377 1362
f 1377 1378 1362
f 1362 1378 1363
f 1378 1379 1363
f 1363 1379 1364
f 1379 1380 1364
f 1364 1380 1365
f 1380 1381 1365
f 1365 1381 1366
f 1381 1382 1366
f 1366 1382 1367
f 1382 1383 1367
f 1367 1383 1368
f 1383 1384 1368
f 1368 1384 1369
f 1384 1385 1369
f 1369 1385 1370
f 1385 1386 1370
f 1370 1386 1371
f 1386 1387 1371
f 1371 1387 1372
f 1387 1388 1372
f 1372 1388 1373
f 1388 1389 1373
f 1373 1389 1374
f 1389 1390 1374
f 1374 1390 1375
f 1390 1391 1375
f 1375 1391 1376
f 1391 1392 1376
f 1376 1392 1361
f 1392 1377 1361
f 1377 1393 1378
f 1393 1394 1378
f 1378 1394 1379
f 1394 1395 1379
f 1379 1395 1380
f 1395 1396 1380
f 1380 1396 1381
f 1396 1397 1381
f 1381 1397 1382
f 1397 1398 1382
f 1382 1398 1383
f 1398 1399 1383
f 1383 1399 1384
f 1399 1400 1384
f 1384 1400 1385
f 1400 1401 1385
f 1385 1401 1386
f 1401 1402 1386
f 1386 1402 1387
f 1402 1403 1387
f 1387 1403 1388
f 1403 1404 1388
f 1388 1404 1389
f 1404 1405 1389
f 1389 1405 1390
f 1405 1406 1390
f 1390 1406 1391
f 1406 1407 1391
f 1391 1407 1392
f 1407 1408 1392
f 1392 1408 1377
f 1408 1393 1377
f 1393 1409 1394
f 1409 1410 1394
f 1394 1410 1395
f 1410 1411 1395
f 1395 1411 1396
f 1411 1412 1396
f 1396 1412 1397
f 1412 1413 1397
f 1397 1413 1398
f 1413 1414 1398
f 1398 1414 1399
f 1414 1415 1399
f 1399 1415 1400
f 1415 1416 1400
f 1400 1416 1401
f 1416 1417 1401
f 1401 1417 1402
f 1417 1418 1402
f 1402 1418 1403
f 1418 1419 1403
f 1403 1419 1404
f 1419 1420 1404
f 1404 1420 1405
f 1420 1421 1405
f 1405 1421 1406
f 1421 1422 1406
f 1406 1422 1407
f 1422 1423 1407
f 1407 1423 1408
f 1423 1424 1408
f 1408 1424 1393
f 1424 1409 1393
f 1409 1425 1410
f 1425 1426 1410
f 1410 1426 1411
f 1426 1427 1411
f 1411 1427 1412
f 1427 1428 1412
f 1412 1428 1413
f 1428 1429 1413
f 1413 1429 1414
f 1429 1430 1414
f 1414 1430 1415
f 1430 1431 1415
f 1415 1431 1416
f 1431 1432 1416
f 1416 1432 1417
f 1432 1433 1417
f 1417 1433 1418
f 1433 1434 1418
f 1418 1434 1419
f 1434 1435 1419
f 1419 1435 1420
f 1435 1436 1420
f 1420 1436 1421
f 1436 1437 1421
f 1421 1437 1422
f 1437 1438 1422
f 1422 1438 1423
f 1438 1439 1423
f 1423 1439 1424
f 1439 1440 1424
f 1424 1440 1409
f 1440 1425 1409
f 1425 1441 1426
f 1441 1442 1426
f 1426 1442 1427
f 1442 1443 1427
f 1427 1443 1428
f 1443 1444 1428
f 1428 1444 1429
f 1444 1445 1429
f 1429 1445 1430
f 1445 1446 1430
f 1430 1446 1431
f 1446 1447 1431
f 1431 1447 1432
f 1447 1448 1432
f 1432 1448 1433
f 1448 1449 1433
f 1433 1449 1434
f 1449 1450 1434
f 1434 1450 1435
f 1450 1451 1435
f 1435 1451 1436
f 1451 1452 1436
f 1436 1452 1437
f 1452 1453 1437
f 1437 1453 1438
f 1453 1454 1438
f 1438 1454 1439
f 1454 1455 1439
f 1439 1455 1440
f 1455 1456 1440
f 1440 1456 1425
f 1456 1441 1425
f 1441 1457 1442
f 1457 1458 1442
f 1442 1458 1443
f 1458 1459 1443
f 1443 1459 1444
f 1459 1460 1444
f 1444 1460 1445
f 1460 1461 1445
f 1445 1461 1446
f 1461 1462 1446
f 1446 1462 1447
f 1462 1463 1447
f 1447 1463 1448
f 1463 1464 1448
f 1448 1464 1449
f 1464 1465 1449
f 1449 1465 1450
f 1465 1466 1450
f 1450 1466 1451
f 1466 1467 1451
f 1451 1467 1452
f 1467 1468 1452
f 1452 1468 1453
f 1468 1469 1453
f 1453 1469 1454
f 1469 1470 1454
f 1454 1470 1455
f 1470 1471 1455
f 1455 1471 1456
f 1471 1472 1456
f 1456 1472 1441
f 1472 1457 1441
f 1457 1473 1458
f 1473 1474 1458
f 1458 1474 1459
f 1474 1475 1459
f 1459 1475 1460
f 1475 1476 1460
f 1460 1476 1461
f 1476 1477 1461
f 1461 1477 1462
f 1477 1478 1462
f 1462 1478 1463
f 1478 1479 1463
f 1463 1479 1464
f 1479 1480 1464
f 1464 1480 1465
f 1480 1481 1465
f 1465 1481 1466
f 1481 1482 1466
f 1466 1482 1467
f 1482 1483 1467
f 1467 1483 1468
f 1483 1484 1468
f 1468 1484 1469
f 1484 1485 1469
f 1469 1485 1470
f 1485 1486 1470
f 1470 1486 1471
f 1486 1487 1471
f 1471 1487 1472
f 1487 1488 1472
f 1472 1488 1457
f 1488 1473 1457
f 1473 1489 1474
f 1489 1490 1474
f 1474 1490 1475
f 1490 1491 1475
f 1475 1491 1476
f 1491 1492 1476
f 1476 1492 1477
f 1492 1493 1477
f 1477 1493 1478
f 1493 1494 1478
f 1478 1494 1479
f 1494 1495 1479
f 1479 1495 1480
f 1495 1496 1480
f 1480 1496 1481
f 1496 1497 1481
f 1481 1497 1482
f 1497 1498 1482
f 1482 1498 1483
f 1498 1499 1483
f 1483 1499 1484
f 1499 1500 1484
f 1484 1500 1485
f 1500 1501 1485
f 1485 1501 1486
f 1501 1502 1486
f 1486 1502 1487
f 1502 1503 1487
f 1487 1503 1488
f 1503 1504 1488
f 1488 1504 1473
f 1504 1489 1473
f 1489 1505 1490
f 1505 1506 1490
f 1490 1506 1491
f 1506 1507 1491
f 1491 1507 1492
f 1507 1508 1492
f 1492 1508 1493
f 1508 1509 1493
f 1493 1509 1494
f 1509 1510 1494
f 1494 1510 1495
f 1510 1511 1495
f 1495 1511 1496
f 1511 1512 1496
f 1496 1512 1497
f 1512 1513 1497
f 1497 1513 1498
f 1513 1514 1498
f 1498 1514 1499
f 1514 1515 1499
f 1499 1515 1500
f 1515 1516 1500
f 1500 1516 1501
f 1516 1517 1501
f 1501 1517 1502
f 1517 1518 1502
f 1502 1518 1503
f 1518 1519 1503
f 1503 1519 1504
f 1519 1520 1504
f 1504 1520 1489
f 1520 1505 1489
f 1505 1521 1506
f 1521 1522 1506
f 1506 1522 1507
f 1522 1523 1507
f 1507 1523 1508
f 1523 1524 1508
f 1508 1524 1509
f 1524 1525 1509
f 1509 1525 1510
f 1525 1526 1510
f 1510 1526 1511
f 1526 1527 1511
f 1511 1527 1512
f 1527 1528 1512
f 1512 1528 1513
f 1528 1529 1513
f 1513 1529 1514
f 1529 1530 1514
f 1514 1530 1515
f 1530 1531 1515
f 1515 1531 1516
f 1531 1532 1516
f 1516 1532 1517
f 1532 1533 1517
f 1517 1533 1518
f 1533 1534 1518
f 1518 1534 1519
f 1534 1535 1519
f 1519 1535 1520
f 1535 1536 1520
f 1520 1536 1505
f 1536 1521 1505
f 1521 1537 1522
f 1537 1538 1522
f 1522 1538 1523
f 1538 1539 1523
f 1523 1539 1524
f 1539 1540 1524
f 1524 1540 1525
f 1540 1541 1525
f 1525 1541 1526
f 1541 1542 1526
f 1526 1542 1527
f 1542 1543 1527
f 1527 1543 1528
f 1543 1544 1528
f 1528 1544 1529
f 1544 1545 1529
f 1529 1545 1530
f 1545 1546 1530
f 1530 1546 1531
f 1546 1547 1531
f 1531 1547 1532
f 1547 1548 1532
f 1532 1548 1533
f 1548 1549 1533
f 1533 1549 1534
f 1549 1550 1534
f 1534 1550 1535
f 1550 1551 1535
f 1535 1551 1536
f 1551 1552 1536
f 1536 1552 1521
f 1552 1537 1521
f 1537 1553 1538
f 1553 1554 1538
f 1538 1554 1539
f 1554 1555 1539
f 1539 1555 1540
f 1555 1556 1540
f 1540 1556 1541
f 1556 1557 1541
f 1541 1557 1542
f 1557 1558 1542
f 1542 1558 1543
f 1558 1559 1543
f 1543 1559 1544
f 1559 1560 1544
f 1544 1560 1545
f 1560 1561 1545
f 1545 1561 1546
f 1561 1562 1546
f 1546 1562 1547
f 1562 1563 1547
f 1547 1563 1548
f 1563 1564 1548
f 1548 1564 1549
f 1564 1565 1549
f 1549 1565 1550
f 1565 1566 1550
f 1550 1566 1551
f 1566 1567 1551
f 1551 1567 1552
f 1567 1568 1552
f 1552 1568 1537
f 1568 1553 1537
f 1553 1569 1554
f 1569 1570 1554
f 1554 1570 1555
f 1570 1571 1555
f 1555 1571 1556
f 1571 1572 1556
f 1556 1572 1557
f 1572 1573 1557
f 1557 1573 1558
f 1573 1574 1558
f 1558 1574 1559
f 1574 1575 1559
f 1559 1575 1560
f 1575 1576 1560
f 1560 1576 1561
f 1576 1577 1561
f 1561 1577 1562
f 1577 1578 1562
f 1562 1578 1563
f 1578 1579 1563
f 1563 1579 1564
f 1579 1580 1564
f 1564 1580 1565
f 1580 1581 1565
f 1565 1581 1566
f 1581 1582 1566
f 1566 1582 1567
f 1582 1583 1567
f 1567 1583 1568
f 1583 1584 1568
f 1568 1584 1553
f 1584 1569 1553
f 1569 1585 1570
f 1585 1586 1570
f 1570 1586 1571
f 1586 1587 1571
f 1571 1587 1572
f 1587 1588 1572
f 1572 1588 1573
f 1588 1589 1573
f 1573 1589 1574
f 1589 1590 1574
f 1574 1590 1575
f 1590 1591 1575
f 1575 1591 1576
f 1591 1592 1576
f 1576 1592 1577
f 1592 1593 1577
f 1577 1593 1578
f 1593 1594 1578
f 1578 1594 1579
f 1594 1595 1579
f 1579 1595 1580
f 1595 1596 1580
f 1580 1596 1581
f 1596 1597 1581
f 1581 1597 1582
f 1597 1598 1582
f 1582 1598 1583
f 1598 1599 1583
f 1583 1599 1584
f 1599 1600 1584
f 1584 1600 1569
f 1600 1585 1569
f 1585 1 1586
f 1 2 1586
f 1586 2 1587
f 2 3 1587
f 1587 3 1588
f 3 4 1588
f 1588 4 1589
f 4 5 1589
f 1589 5 1590
f 5 6 1590
f 1590 6 1591
f 6 7 1591
f 1591 7 1592
f 7 8 1592
f 1592 8 1593
f 8 9 1593
f 1593 9 1594
f 9 10 1594
f 1594 10 1595
f 10 11 1595
f 1595 11 1596
f 11 12 1596
f 1596 12 1597
f 12 13 1597
f 1597 13 1598
f 13 14 1598
f 1598 14 1599
f 14 15 1599
f 1599 15 1600
f 15 16 1600
f 1600 16 1585
f 16 1 1585
