v 1.198686 10.062575 16.689000
v 1.191940 10.019570 16.624233
v 1.155973 9.982097 16.565994
v 1.096260 9.955862 16.523148
v 1.021893 9.944859 16.502219
v 0.944192 9.950763 16.506392
v 0.874988 9.972674 16.535033
v 0.824816 10.007258 16.583781
v 0.801314 10.049249 16.645214
v 0.808060 10.092254 16.709981
v 0.844027 10.129726 16.768220
v 0.903740 10.155961 16.811066
v 0.978107 10.166964 16.831995
v 1.055808 10.161060 16.827822
v 1.125012 10.139149 16.799181
v 1.175184 10.104565 16.750433
v 2.198686 35.006663 0.021893
v 2.191940 34.963658 -0.042874
v 2.155973 34.926186 -0.101113
v 2.096260 34.899951 -0.143959
v 2.021893 34.888948 -0.164888
v 1.944192 34.894851 -0.160715
v 1.874988 34.916763 -0.132074
v 1.824816 34.951346 -0.083326
v 1.801314 34.993337 -0.021893
v 1.808060 35.036342 0.042874
v 1.844027 35.073814 0.101113
v 1.903740 35.100049 0.143959
v 1.978107 35.111052 0.164888
v 2.055808 35.105149 0.160715
v 2.125012 35.083237 0.132074
v 2.175184 35.048654 0.083326
v 1.000000 10.055912 16.667107
v 2.000000 35.000000 0.000000
f 1 17 18
f 1 18 2
f 33 2 1
f 34 17 18
f 2 18 19
f 2 19 3
f 33 3 2
f 34 18 19
f 3 19 20
f 3 20 4
f 33 4 3
f 34 19 20
f 4 20 21
f 4 21 5
f 33 5 4
f 34 20 21
f 5 21 22
f 5 22 6
f 33 6 5
f 34 21 22
f 6 22 23
f 6 23 7
f 33 7 6
f 34 22 23
f 7 23 24
f 7 24 8
f 33 8 7
f 34 23 24
f 8 24 25
f 8 25 9
f 33 9 8
f 34 24 25
f 9 25 26
f 9 26 10
f 33 10 9
f 34 25 26
f 10 26 27
f 10 27 11
f 33 11 10
f 34 26 27
f 11 27 28
f 11 28 12
f 33 12 11
f 34 27 28
f 12 28 29
f 12 29 13
f 33 13 12
f 34 28 29
f 13 29 30
f 13 30 14
f 33 14 13
f 34 29 30
f 14 30 31
f 14 31 15
f 33 15 14
f 34 30 31
f 15 31 32
f 15 32 16
f 33 16 15
f 34 31 32
f 16 32 17
f 16 17 1
f 33 1 16
f 34 32 17
