v -0.800276 29.140627 -29.415445
v -0.812374 29.216159 -29.430881
v -0.853037 29.281206 -29.445201
v -0.916073 29.325865 -29.456227
v -0.991887 29.343339 -29.462279
v -1.068936 29.330965 -29.462436
v -1.135489 29.290629 -29.456675
v -1.181416 29.228471 -29.445872
v -1.199724 29.153953 -29.431672
v -1.187626 29.078422 -29.416236
v -1.146963 29.013375 -29.401916
v -1.083927 28.968715 -29.390890
v -1.008113 28.951242 -29.384838
v -0.931064 28.963616 -29.384680
v -0.864511 29.003952 -29.390442
v -0.818584 29.066110 -29.401245
v -1.800276 34.993337 0.008113
v -1.812374 35.068869 -0.007322
v -1.853037 35.133916 -0.021643
v -1.916073 35.178575 -0.032668
v -1.991887 35.196048 -0.038721
v -2.068936 35.183675 -0.038878
v -2.135489 35.143338 -0.033117
v -2.181416 35.081180 -0.022313
v -2.199724 35.006663 -0.008113
v -2.187626 34.931131 0.007322
v -2.146963 34.866084 0.021643
v -2.083927 34.821425 0.032668
v -2.008113 34.803952 0.038721
v -1.931064 34.816325 0.038878
v -1.864511 34.856662 0.033117
v -1.818584 34.918820 0.022313
v -1.000000 29.147290 -29.423558
v -2.000000 35.000000 0.000000
f 1 17 18
f 1 18 2
f 33 2 1
f 34 17 18
f 2 18 19
f 2 19 3
f 33 3 2
f 34 18 19
f 3 19 20
f 3 20 4
f 33 4 3
f 34 19 20
f 4 20 21
f 4 21 5
f 33 5 4
f 34 20 21
f 5 21 22
f 5 22 6
f 33 6 5
f 34 21 22
f 6 22 23
f 6 23 7
f 33 7 6
f 34 22 23
f 7 23 24
f 7 24 8
f 33 8 7
f 34 23 24
f 8 24 25
f 8 25 9
f 33 9 8
f 34 24 25
f 9 25 26
f 9 26 10
f 33 10 9
f 34 25 26
f 10 26 27
f 10 27 11
f 33 11 10
f 34 26 27
f 11 27 28
f 11 28 12
f 33 12 11
f 34 27 28
f 12 28 29
f 12 29 13
f 33 13 12
f 34 28 29
f 13 29 30
f 13 30 14
f 33 14 13
f 34 29 30
f 14 30 31
f 14 31 15
f 33 15 14
f 34 30 31
f 15 31 32
f 15 32 16
f 33 16 15
f 34 31 32
f 16 32 17
f 16 17 1
f 33 1 16
f 34 32 17
