v -0.800143 51.660444 24.940528
v -0.816718 51.597349 24.983352
v -0.861197 51.544873 25.020198
v -0.926807 51.511007 25.045457
v -1.003560 51.500905 25.055283
v -1.079771 51.516107 25.048182
v -1.143838 51.554296 25.025233
v -1.186006 51.609660 24.989930
v -1.199857 51.673770 24.947649
v -1.183282 51.736865 24.904825
v -1.138803 51.789341 24.867979
v -1.073193 51.823207 24.842720
v -0.996440 51.833309 24.832893
v -0.920229 51.818107 24.839995
v -0.856162 51.779918 24.862944
v -0.813994 51.724554 24.898247
v -1.800143 34.993337 -0.003560
v -1.816718 34.930242 0.039263
v -1.861197 34.877766 0.076109
v -1.926807 34.843900 0.101368
v -2.003560 34.833798 0.111195
v -2.079771 34.849000 0.104093
v -2.143838 34.887189 0.081144
v -2.186006 34.942553 0.045842
v -2.199857 35.006663 0.003560
v -2.183282 35.069758 -0.039263
v -2.138803 35.122234 -0.076109
v -2.073193 35.156100 -0.101368
v -1.996440 35.166202 -0.111195
v -1.920229 35.151000 -0.104093
v -1.856162 35.112811 -0.081144
v -1.813994 35.057447 -0.045842
v -1.000000 51.667107 24.944088
v -2.000000 35.000000 0.000000
f 1 17 18
f 1 18 2
f 33 2 1
f 34 17 18
f 2 18 19
f 2 19 3
f 33 3 2
f 34 18 19
f 3 19 20
f 3 20 4
f 33 4 3
f 34 19 20
f 4 20 21
f 4 21 5
f 33 5 4
f 34 20 21
f 5 21 22
f 5 22 6
f 33 6 5
f 34 21 22
f 6 22 23
f 6 23 7
f 33 7 6
f 34 22 23
f 7 23 24
f 7 24 8
f 33 8 7
f 34 23 24
f 8 24 25
f 8 25 9
f 33 9 8
f 34 24 25
f 9 25 26
f 9 26 10
f 33 10 9
f 34 25 26
f 10 26 27
f 10 27 11
f 33 11 10
f 34 26 27
f 11 27 28
f 11 28 12
f 33 12 11
f 34 27 28
f 12 28 29
f 12 29 13
f 33 13 12
f 34 28 29
f 13 29 30
f 13 30 14
f 33 14 13
f 34 29 30
f 14 30 31
f 14 31 15
f 33 15 14
f 34 30 31
f 15 31 32
f 15 32 16
f 33 16 15
f 34 31 32
f 16 32 17
f 16 17 1
f 33 1 16
f 34 32 17
