v 1.199885 62.723049 11.481828
v 1.185176 62.693269 11.552443
v 1.142277 62.667008 11.612105
v 1.077717 62.648264 11.651733
v 1.001325 62.639892 11.665292
v 0.924732 62.643165 11.650718
v 0.859597 62.657585 11.610231
v 0.815838 62.680957 11.549994
v 0.800115 62.709723 11.479178
v 0.814824 62.739503 11.408563
v 0.857723 62.765764 11.348901
v 0.922283 62.784508 11.309273
v 0.998675 62.792880 11.295714
v 1.075268 62.789607 11.310287
v 1.140403 62.775187 11.350774
v 1.184162 62.751815 11.411011
v 2.199885 35.006663 0.001325
v 2.185176 34.976883 0.071940
v 2.142277 34.950622 0.131602
v 2.077717 34.931878 0.171230
v 2.001325 34.923506 0.184789
v 1.924732 34.926779 0.170216
v 1.859597 34.941199 0.129728
v 1.815838 34.964571 0.069491
v 1.800115 34.993337 -0.001325
v 1.814824 35.023117 -0.071940
v 1.857723 35.049378 -0.131602
v 1.922283 35.068122 -0.171230
v 1.998675 35.076494 -0.184789
v 2.075268 35.073221 -0.170216
v 2.140403 35.058801 -0.129728
v 2.184162 35.035429 -0.069491
v 1.000000 62.716386 11.480503
v 2.000000 35.000000 -0.000000
f 1 17 18
f 1 18 2
f 33 2 1
f 34 17 18
f 2 18 19
f 2 19 3
f 33 3 2
f 34 18 19
f 3 19 20
f 3 20 4
f 33 4 3
f 34 19 20
f 4 20 21
f 4 21 5
f 33 5 4
f 34 20 21
f 5 21 22
f 5 22 6
f 33 6 5
f 34 21 22
f 6 22 23
f 6 23 7
f 33 7 6
f 34 22 23
f 7 23 24
f 7 24 8
f 33 8 7
f 34 23 24
f 8 24 25
f 8 25 9
f 33 9 8
f 34 24 25
f 9 25 26
f 9 26 10
f 33 10 9
f 34 25 26
f 10 26 27
f 10 27 11
f 33 11 10
f 34 26 27
f 11 27 28
f 11 28 12
f 33 12 11
f 34 27 28
f 12 28 29
f 12 29 13
f 33 13 12
f 34 28 29
f 13 29 30
f 13 30 14
f 33 14 13
f 34 29 30
f 14 30 31
f 14 31 15
f 33 15 14
f 34 30 31
f 15 31 32
f 15 32 16
f 33 16 15
f 34 31 32
f 16 32 17
f 16 17 1
f 33 1 16
f 34 32 17
