v -0.800757 13.780134 -21.197148
v -0.809779 13.834730 -21.252170
v -0.847761 13.882030 -21.301260
v -0.908920 13.914831 -21.336944
v -0.983945 13.928139 -21.353789
v -1.061414 13.919930 -21.349232
v -1.129533 13.891452 -21.323966
v -1.177933 13.847042 -21.281837
v -1.199243 13.793460 -21.229259
v -1.190221 13.738863 -21.174237
v -1.152239 13.691564 -21.125147
v -1.091080 13.658763 -21.089463
v -1.016055 13.645454 -21.072617
v -0.938586 13.653663 -21.077175
v -0.870467 13.682141 -21.102441
v -0.822067 13.726551 -21.144570
v -1.800757 34.993337 0.016055
v -1.809779 35.047934 -0.038967
v -1.847761 35.095233 -0.088056
v -1.908920 35.128034 -0.123740
v -1.983945 35.141343 -0.140586
v -2.061414 35.133134 -0.136029
v -2.129533 35.104656 -0.110762
v -2.177933 35.060245 -0.068633
v -2.199243 35.006663 -0.016055
v -2.190221 34.952066 0.038967
v -2.152239 34.904767 0.088056
v -2.091080 34.871966 0.123740
v -2.016055 34.858657 0.140586
v -1.938586 34.866866 0.136029
v -1.870467 34.895344 0.110762
v -1.822067 34.939755 0.068633
v -1.000000 13.786797 -21.213203
v -2.000000 35.000000 0.000000
f 1 17 18
f 1 18 2
f 33 2 1
f 34 17 18
f 2 18 19
f 2 19 3
f 33 3 2
f 34 18 19
f 3 19 20
f 3 20 4
f 33 4 3
f 34 19 20
f 4 20 21
f 4 21 5
f 33 5 4
f 34 20 21
f 5 21 22
f 5 22 6
f 33 6 5
f 34 21 22
f 6 22 23
f 6 23 7
f 33 7 6
f 34 22 23
f 7 23 24
f 7 24 8
f 33 8 7
f 34 23 24
f 8 24 25
f 8 25 9
f 33 9 8
f 34 24 25
f 9 25 26
f 9 26 10
f 33 10 9
f 34 25 26
f 10 26 27
f 10 27 11
f 33 11 10
f 34 26 27
f 11 27 28
f 11 28 12
f 33 12 11
f 34 27 28
f 12 28 29
f 12 29 13
f 33 13 12
f 34 28 29
f 13 29 30
f 13 30 14
f 33 14 13
f 34 29 30
f 14 30 31
f 14 31 15
f 33 15 14
f 34 30 31
f 15 31 32
f 15 32 16
f 33 16 15
f 34 31 32
f 16 32 17
f 16 17 1
f 33 1 16
f 34 32 17
