v 1.199888 64.430221 -5.853366
v 1.184421 64.444637 -5.778248
v 1.140878 64.455844 -5.714467
v 1.075888 64.462136 -5.671732
v 0.999344 64.462555 -5.656549
v 0.922900 64.457037 -5.671230
v 0.858194 64.446422 -5.713540
v 0.815077 64.432326 -5.777036
v 0.800112 64.416895 -5.852054
v 0.815579 64.402479 -5.927171
v 0.859122 64.391272 -5.990952
v 0.924112 64.384981 -6.033687
v 1.000656 64.384562 -6.048870
v 1.077100 64.390080 -6.034189
v 1.141806 64.400695 -5.991880
v 1.184923 64.414791 -5.928383
v 2.199888 35.006663 -0.000656
v 2.184421 35.021079 0.074461
v 2.140878 35.032286 0.138242
v 2.075888 35.038578 0.180977
v 1.999344 35.038996 0.196160
v 1.922900 35.033478 0.181480
v 1.858194 35.022863 0.139170
v 1.815077 35.008768 0.075673
v 1.800112 34.993337 0.000656
v 1.815579 34.978921 -0.074461
v 1.859122 34.967714 -0.138242
v 1.924112 34.961422 -0.180977
v 2.000656 34.961004 -0.196160
v 2.077100 34.966522 -0.181480
v 2.141806 34.977137 -0.139170
v 2.184923 34.991232 -0.075673
v 1.000000 64.423558 -5.852710
v 2.000000 35.000000 0.000000
f 1 17 18
f 1 18 2
f 33 2 1
f 34 17 18
f 2 18 19
f 2 19 3
f 33 3 2
f 34 18 19
f 3 19 20
f 3 20 4
f 33 4 3
f 34 19 20
f 4 20 21
f 4 21 5
f 33 5 4
f 34 20 21
f 5 21 22
f 5 22 6
f 33 6 5
f 34 21 22
f 6 22 23
f 6 23 7
f 33 7 6
f 34 22 23
f 7 23 24
f 7 24 8
f 33 8 7
f 34 23 24
f 8 24 25
f 8 25 9
f 33 9 8
f 34 24 25
f 9 25 26
f 9 26 10
f 33 10 9
f 34 25 26
f 10 26 27
f 10 27 11
f 33 11 10
f 34 26 27
f 11 27 28
f 11 28 12
f 33 12 11
f 34 27 28
f 12 28 29
f 12 29 13
f 33 13 12
f 34 28 29
f 13 29 30
f 13 30 14
f 33 14 13
f 34 29 30
f 14 30 31
f 14 31 15
f 33 15 14
f 34 30 31
f 15 31 32
f 15 32 16
f 33 16 15
f 34 31 32
f 16 32 17
f 16 17 1
f 33 1 16
f 34 32 17
