v -0.800130 56.206540 -21.210444
v -0.814288 56.261137 -21.156515
v -0.856720 56.308436 -21.111216
v -0.920964 56.341237 -21.081444
v -0.997241 56.354546 -21.071731
v -1.073938 56.346337 -21.083555
v -1.139378 56.317859 -21.115118
v -1.183600 56.273449 -21.161613
v -1.199870 56.219866 -21.215962
v -1.185712 56.165270 -21.269892
v -1.143280 56.117970 -21.315191
v -1.079036 56.085169 -21.344963
v -1.002759 56.071861 -21.354676
v -0.926062 56.080070 -21.342852
v -0.860622 56.108548 -21.311289
v -0.816400 56.152958 -21.264794
v -1.800130 34.993337 0.002759
v -1.814288 35.047934 0.056688
v -1.856720 35.095233 0.101987
v -1.920964 35.128034 0.131760
v -1.997241 35.141343 0.141473
v -2.073938 35.133134 0.129648
v -2.139378 35.104656 0.098086
v -2.183600 35.060245 0.051590
v -2.199870 35.006663 -0.002759
v -2.185712 34.952066 -0.056688
v -2.143280 34.904767 -0.101987
v -2.079036 34.871966 -0.131760
v -2.002759 34.858657 -0.141473
v -1.926062 34.866866 -0.129648
v -1.860622 34.895344 -0.098086
v -1.816400 34.939755 -0.051590
v -1.000000 56.213203 -21.213203
v -2.000000 35.000000 0.000000
f 1 17 18
f 1 18 2
f 33 2 1
f 34 17 18
f 2 18 19
f 2 19 3
f 33 3 2
f 34 18 19
f 3 19 20
f 3 20 4
f 33 4 3
f 34 19 20
f 4 20 21
f 4 21 5
f 33 5 4
f 34 20 21
f 5 21 22
f 5 22 6
f 33 6 5
f 34 21 22
f 6 22 23
f 6 23 7
f 33 7 6
f 34 22 23
f 7 23 24
f 7 24 8
f 33 8 7
f 34 23 24
f 8 24 25
f 8 25 9
f 33 9 8
f 34 24 25
f 9 25 26
f 9 26 10
f 33 10 9
f 34 25 26
f 10 26 27
f 10 27 11
f 33 11 10
f 34 26 27
f 11 27 28
f 11 28 12
f 33 12 11
f 34 27 28
f 12 28 29
f 12 29 13
f 33 13 12
f 34 28 29
f 13 29 30
f 13 30 14
f 33 14 13
f 34 29 30
f 14 30 31
f 14 31 15
f 33 15 14
f 34 30 31
f 15 31 32
f 15 32 16
f 33 16 15
f 34 31 32
f 16 32 17
f 16 17 1
f 33 1 16
f 34 32 17
