v 1.199889 65.006663 0.000000
v 1.184673 65.006156 0.076537
v 1.141343 65.004711 0.141421
v 1.076494 65.002550 0.184776
v 1.000000 65.000000 0.200000
v 0.923506 64.997450 0.184776
v 0.858657 64.995289 0.141421
v 0.815327 64.993844 0.076537
v 0.800111 64.993337 0.000000
v 0.815327 64.993844 -0.076537
v 0.858657 64.995289 -0.141421
v 0.923506 64.997450 -0.184776
v 1.000000 65.000000 -0.200000
v 1.076494 65.002550 -0.184776
v 1.141343 65.004711 -0.141421
v 1.184673 65.006156 -0.076537
v 2.199889 35.006663 0.000000
v 2.184673 35.006156 0.076537
v 2.141343 35.004711 0.141421
v 2.076494 35.002550 0.184776
v 2.000000 35.000000 0.200000
v 1.923506 34.997450 0.184776
v 1.858657 34.995289 0.141421
v 1.815327 34.993844 0.076537
v 1.800111 34.993337 0.000000
v 1.815327 34.993844 -0.076537
v 1.858657 34.995289 -0.141421
v 1.923506 34.997450 -0.184776
v 2.000000 35.000000 -0.200000
v 2.076494 35.002550 -0.184776
v 2.141343 35.004711 -0.141421
v 2.184673 35.006156 -0.076537
v 1.000000 65.000000 0.000000
v 2.000000 35.000000 -0.000000
f 1 17 18
f 1 18 2
f 33 2 1
f 34 17 18
f 2 18 19
f 2 19 3
f 33 3 2
f 34 18 19
f 3 19 20
f 3 20 4
f 33 4 3
f 34 19 20
f 4 20 21
f 4 21 5
f 33 5 4
f 34 20 21
f 5 21 22
f 5 22 6
f 33 6 5
f 34 21 22
f 6 22 23
f 6 23 7
f 33 7 6
f 34 22 23
f 7 23 24
f 7 24 8
f 33 8 7
f 34 23 24
f 8 24 25
f 8 25 9
f 33 9 8
f 34 24 25
f 9 25 26
f 9 26 10
f 33 10 9
f 34 25 26
f 10 26 27
f 10 27 11
f 33 11 10
f 34 26 27
f 11 27 28
f 11 28 12
f 33 12 11
f 34 27 28
f 12 28 29
f 12 29 13
f 33 13 12
f 34 28 29
f 13 29 30
f 13 30 14
f 33 14 13
f 34 29 30
f 14 30 31
f 14 31 15
f 33 15 14
f 34 30 31
f 15 31 32
f 15 32 16
f 33 16 15
f 34 31 32
f 16 32 17
f 16 17 1
f 33 1 16
f 34 32 17
