v -0.800499 18.326230 -24.931638
v -0.810921 18.390340 -24.974893
v -0.850128 18.445704 -25.013458
v -0.912152 18.483893 -25.041462
v -0.987550 18.499095 -25.054642
v -1.064843 18.488993 -25.050991
v -1.132265 18.455127 -25.031065
v -1.179550 18.402651 -24.997898
v -1.199501 18.339556 -24.956538
v -1.189079 18.275446 -24.913284
v -1.149872 18.220082 -24.874719
v -1.087848 18.181893 -24.846715
v -1.012450 18.166691 -24.833535
v -0.935157 18.176793 -24.837186
v -0.867735 18.210659 -24.857112
v -0.820450 18.263135 -24.890279
v -1.800499 34.993337 0.012450
v -1.810921 35.057447 -0.030805
v -1.850128 35.112811 -0.069369
v -1.912152 35.151000 -0.097373
v -1.987550 35.166202 -0.110553
v -2.064843 35.156100 -0.106902
v -2.132265 35.122234 -0.086976
v -2.179550 35.069758 -0.053809
v -2.199501 35.006663 -0.012450
v -2.189079 34.942553 0.030805
v -2.149872 34.887189 0.069369
v -2.087848 34.849000 0.097373
v -2.012450 34.833798 0.110553
v -1.935157 34.843900 0.106902
v -1.867735 34.877766 0.086976
v -1.820450 34.930242 0.053809
v -1.000000 18.332893 -24.944088
v -2.000000 35.000000 0.000000
f 1 17 18
f 1 18 2
f 33 2 1
f 34 17 18
f 2 18 19
f 2 19 3
f 33 3 2
f 34 18 19
f 3 19 20
f 3 20 4
f 33 4 3
f 34 19 20
f 4 20 21
f 4 21 5
f 33 5 4
f 34 20 21
f 5 21 22
f 5 22 6
f 33 6 5
f 34 21 22
f 6 22 23
f 6 23 7
f 33 7 6
f 34 22 23
f 7 23 24
f 7 24 8
f 33 8 7
f 34 23 24
f 8 24 25
f 8 25 9
f 33 9 8
f 34 24 25
f 9 25 26
f 9 26 10
f 33 10 9
f 34 25 26
f 10 26 27
f 10 27 11
f 33 11 10
f 34 26 27
f 11 27 28
f 11 28 12
f 33 12 11
f 34 27 28
f 12 28 29
f 12 29 13
f 33 13 12
f 34 28 29
f 13 29 30
f 13 30 14
f 33 14 13
f 34 29 30
f 14 30 31
f 14 31 15
f 33 15 14
f 34 30 31
f 15 31 32
f 15 32 16
f 33 16 15
f 34 31 32
f 16 32 17
f 16 17 1
f 33 1 16
f 34 32 17
