v -0.800121 59.937425 16.665086
v -0.816109 59.895435 16.728889
v -0.860093 59.860851 16.783286
v -0.925376 59.838940 16.819996
v -1.002021 59.833036 16.833430
v -1.078357 59.844039 16.821543
v -1.142764 59.870274 16.786144
v -1.185437 59.907746 16.732623
v -1.199879 59.950751 16.669128
v -1.183891 59.992742 16.605325
v -1.139907 60.027326 16.550928
v -1.074624 60.049237 16.514218
v -0.997979 60.055141 16.500784
v -0.921643 60.044138 16.512671
v -0.857236 60.017903 16.548070
v -0.814563 59.980430 16.601591
v -1.800121 34.993337 -0.002021
v -1.816109 34.951346 0.061782
v -1.860093 34.916763 0.116179
v -1.925376 34.894851 0.152889
v -2.002021 34.888948 0.166323
v -2.078357 34.899951 0.154436
v -2.142764 34.926186 0.119037
v -2.185437 34.963658 0.065516
v -2.199879 35.006663 0.002021
v -2.183891 35.048654 -0.061782
v -2.139907 35.083237 -0.116179
v -2.074624 35.105149 -0.152889
v -1.997979 35.111052 -0.166323
v -1.921643 35.100049 -0.154436
v -1.857236 35.073814 -0.119037
v -1.814563 35.036342 -0.065516
v -1.000000 59.944088 16.667107
v -2.000000 35.000000 0.000000
f 1 17 18
f 1 18 2
f 33 2 1
f 34 17 18
f 2 18 19
f 2 19 3
f 33 3 2
f 34 18 19
f 3 19 20
f 3 20 4
f 33 4 3
f 34 19 20
f 4 20 21
f 4 21 5
f 33 5 4
f 34 20 21
f 5 21 22
f 5 22 6
f 33 6 5
f 34 21 22
f 6 22 23
f 6 23 7
f 33 7 6
f 34 22 23
f 7 23 24
f 7 24 8
f 33 8 7
f 34 23 24
f 8 24 25
f 8 25 9
f 33 9 8
f 34 24 25
f 9 25 26
f 9 26 10
f 33 10 9
f 34 25 26
f 10 26 27
f 10 27 11
f 33 11 10
f 34 26 27
f 11 27 28
f 11 28 12
f 33 12 11
f 34 27 28
f 12 28 29
f 12 29 13
f 33 13 12
f 34 28 29
f 13 29 30
f 13 30 14
f 33 14 13
f 34 29 30
f 14 30 31
f 14 31 15
f 33 15 14
f 34 30 31
f 15 31 32
f 15 32 16
f 33 16 15
f 34 31 32
f 16 32 17
f 16 17 1
f 33 1 16
f 34 32 17
