v -0.800186 40.846047 -29.418093
v -0.813304 40.921578 -29.403514
v -0.854845 40.986625 -29.391988
v -0.918485 41.031285 -29.385267
v -0.994534 41.048758 -29.384376
v -1.071416 41.036384 -29.389450
v -1.137425 40.996048 -29.399717
v -1.182513 40.933890 -29.413614
v -1.199814 40.859373 -29.429024
v -1.186696 40.783841 -29.443602
v -1.145155 40.718794 -29.455129
v -1.081515 40.674135 -29.461850
v -1.005466 40.656661 -29.462741
v -0.928584 40.669035 -29.457666
v -0.862575 40.709371 -29.447400
v -0.817487 40.771529 -29.433503
v -1.800186 34.993337 0.005466
v -1.813304 35.068869 0.020044
v -1.854845 35.133916 0.031571
v -1.918485 35.178575 0.038291
v -1.994534 35.196048 0.039182
v -2.071416 35.183675 0.034108
v -2.137425 35.143338 0.023841
v -2.182513 35.081180 0.009945
v -2.199814 35.006663 -0.005466
v -2.186696 34.931131 -0.020044
v -2.145155 34.866084 -0.031571
v -2.081515 34.821425 -0.038291
v -2.005466 34.803952 -0.039182
v -1.928584 34.816325 -0.034108
v -1.862575 34.856662 -0.023841
v -1.817487 34.918820 -0.009945
v -1.000000 40.852710 -29.423558
v -2.000000 35.000000 0.000000
f 1 17 18
f 1 18 2
f 33 2 1
f 34 17 18
f 2 18 19
f 2 19 3
f 33 3 2
f 34 18 19
f 3 19 20
f 3 20 4
f 33 4 3
f 34 19 20
f 4 20 21
f 4 21 5
f 33 5 4
f 34 20 21
f 5 21 22
f 5 22 6
f 33 6 5
f 34 21 22
f 6 22 23
f 6 23 7
f 33 7 6
f 34 22 23
f 7 23 24
f 7 24 8
f 33 8 7
f 34 23 24
f 8 24 25
f 8 25 9
f 33 9 8
f 34 24 25
f 9 25 26
f 9 26 10
f 33 10 9
f 34 25 26
f 10 26 27
f 10 27 11
f 33 11 10
f 34 26 27
f 11 27 28
f 11 28 12
f 33 12 11
f 34 27 28
f 12 28 29
f 12 29 13
f 33 13 12
f 34 28 29
f 13 29 30
f 13 30 14
f 33 14 13
f 34 29 30
f 14 30 31
f 14 31 15
f 33 15 14
f 34 30 31
f 15 31 32
f 15 32 16
f 33 16 15
f 34 31 32
f 16 32 17
f 16 17 1
f 33 1 16
f 34 32 17
