v 1.199641 23.526160 -27.726349
v 1.180631 23.596324 -27.754726
v 1.134122 23.654792 -27.777266
v 1.067195 23.692663 -27.790538
v 0.990037 23.704170 -27.792521
v 0.914396 23.687563 -27.782913
v 0.851788 23.645369 -27.763177
v 0.811744 23.584013 -27.736317
v 0.800359 23.512834 -27.706423
v 0.819369 23.442670 -27.678046
v 0.865878 23.384202 -27.655506
v 0.932805 23.346331 -27.642234
v 1.009963 23.334824 -27.640251
v 1.085604 23.351431 -27.649859
v 1.148212 23.393625 -27.669595
v 1.188256 23.454981 -27.696455
v 2.199641 35.006663 -0.009963
v 2.180631 35.076827 -0.038340
v 2.134122 35.135295 -0.060880
v 2.067195 35.173166 -0.074152
v 1.990037 35.184673 -0.076135
v 1.914396 35.168066 -0.066527
v 1.851788 35.125872 -0.046791
v 1.811744 35.064516 -0.019931
v 1.800359 34.993337 0.009963
v 1.819369 34.923173 0.038340
v 1.865878 34.864705 0.060880
v 1.932805 34.826834 0.074152
v 2.009963 34.815327 0.076135
v 2.085604 34.831934 0.066527
v 2.148212 34.874128 0.046791
v 2.188256 34.935484 0.019931
v 1.000000 23.519497 -27.716386
v 2.000000 35.000000 0.000000
f 1 17 18
f 1 18 2
f 33 2 1
f 34 17 18
f 2 18 19
f 2 19 3
f 33 3 2
f 34 18 19
f 3 19 20
f 3 20 4
f 33 4 3
f 34 19 20
f 4 20 21
f 4 21 5
f 33 5 4
f 34 20 21
f 5 21 22
f 5 22 6
f 33 6 5
f 34 21 22
f 6 22 23
f 6 23 7
f 33 7 6
f 34 22 23
f 7 23 24
f 7 24 8
f 33 8 7
f 34 23 24
f 8 24 25
f 8 25 9
f 33 9 8
f 34 24 25
f 9 25 26
f 9 26 10
f 33 10 9
f 34 25 26
f 10 26 27
f 10 27 11
f 33 11 10
f 34 26 27
f 11 27 28
f 11 28 12
f 33 12 11
f 34 27 28
f 12 28 29
f 12 29 13
f 33 13 12
f 34 28 29
f 13 29 30
f 13 30 14
f 33 14 13
f 34 29 30
f 14 30 31
f 14 31 15
f 33 15 14
f 34 30 31
f 15 31 32
f 15 32 16
f 33 16 15
f 34 31 32
f 16 32 17
f 16 17 1
f 33 1 16
f 34 32 17
