v 1.188766 5.583105 5.918459
v 1.199558 5.567674 5.842729
v 1.179970 5.553578 5.768518
v 1.132982 5.542963 5.707125
v 1.065750 5.537445 5.667896
v 0.988507 5.537864 5.656802
v 0.913014 5.544156 5.675534
v 0.850764 5.555363 5.721240
v 0.811234 5.569779 5.786960
v 0.800442 5.585209 5.862690
v 0.820030 5.599305 5.936901
v 0.867018 5.609920 5.998294
v 0.934250 5.615438 6.037524
v 1.011493 5.615019 6.048617
v 1.086986 5.608728 6.029885
v 1.149236 5.597521 5.984180
v 2.188766 35.006663 0.065750
v 2.199558 34.991232 -0.009980
v 2.179970 34.977137 -0.084191
v 2.132982 34.966522 -0.145585
v 2.065750 34.961004 -0.184814
v 1.988507 34.961422 -0.195907
v 1.913014 34.967714 -0.177175
v 1.850764 34.978921 -0.131470
v 1.811234 34.993337 -0.065750
v 1.800442 35.008768 0.009980
v 1.820030 35.022863 0.084191
v 1.867018 35.033478 0.145585
v 1.934250 35.038996 0.184814
v 2.011493 35.038578 0.195907
v 2.086986 35.032286 0.177175
v 2.149236 35.021079 0.131470
v 1.000000 5.576442 5.852710
v 2.000000 35.000000 0.000000
f 1 17 18
f 1 18 2
f 33 2 1
f 34 17 18
f 2 18 19
f 2 19 3
f 33 3 2
f 34 18 19
f 3 19 20
f 3 20 4
f 33 4 3
f 34 19 20
f 4 20 21
f 4 21 5
f 33 5 4
f 34 20 21
f 5 21 22
f 5 22 6
f 33 6 5
f 34 21 22
f 6 22 23
f 6 23 7
f 33 7 6
f 34 22 23
f 7 23 24
f 7 24 8
f 33 8 7
f 34 23 24
f 8 24 25
f 8 25 9
f 33 9 8
f 34 24 25
f 9 25 26
f 9 26 10
f 33 10 9
f 34 25 26
f 10 26 27
f 10 27 11
f 33 11 10
f 34 26 27
f 11 27 28
f 11 28 12
f 33 12 11
f 34 27 28
f 12 28 29
f 12 29 13
f 33 13 12
f 34 28 29
f 13 29 30
f 13 30 14
f 33 14 13
f 34 29 30
f 14 30 31
f 14 31 15
f 33 15 14
f 34 30 31
f 15 31 32
f 15 32 16
f 33 16 15
f 34 31 32
f 16 32 17
f 16 17 1
f 33 1 16
f 34 32 17
