v 1.199778 35.006663 30.006659
v 1.187119 34.929662 30.006237
v 1.145973 34.863369 30.004866
v 1.082604 34.817876 30.002753
v 1.006659 34.800111 30.000222
v 0.929701 34.812777 29.997657
v 0.863444 34.853946 29.995448
v 0.817978 34.917350 29.993933
v 0.800222 34.993337 29.993341
v 0.812881 35.070338 29.993763
v 0.854027 35.136631 29.995134
v 0.917396 35.182124 29.997247
v 0.993341 35.199889 29.999778
v 1.070299 35.187223 30.002343
v 1.136556 35.146054 30.004552
v 1.182022 35.082650 30.006067
v 2.199778 35.006663 0.006659
v 2.187119 34.929662 0.006237
v 2.145973 34.863369 0.004866
v 2.082604 34.817876 0.002753
v 2.006659 34.800111 0.000222
v 1.929701 34.812777 -0.002343
v 1.863444 34.853946 -0.004552
v 1.817978 34.917350 -0.006067
v 1.800222 34.993337 -0.006659
v 1.812881 35.070338 -0.006237
v 1.854027 35.136631 -0.004866
v 1.917396 35.182124 -0.002753
v 1.993341 35.199889 -0.000222
v 2.070299 35.187223 0.002343
v 2.136556 35.146054 0.004552
v 2.182022 35.082650 0.006067
v 1.000000 35.000000 30.000000
v 2.000000 35.000000 0.000000
f 1 17 18
f 1 18 2
f 33 2 1
f 34 17 18
f 2 18 19
f 2 19 3
f 33 3 2
f 34 18 19
f 3 19 20
f 3 20 4
f 33 4 3
f 34 19 20
f 4 20 21
f 4 21 5
f 33 5 4
f 34 20 21
f 5 21 22
f 5 22 6
f 33 6 5
f 34 21 22
f 6 22 23
f 6 23 7
f 33 7 6
f 34 22 23
f 7 23 24
f 7 24 8
f 33 8 7
f 34 23 24
f 8 24 25
f 8 25 9
f 33 9 8
f 34 24 25
f 9 25 26
f 9 26 10
f 33 10 9
f 34 25 26
f 10 26 27
f 10 27 11
f 33 11 10
f 34 26 27
f 11 27 28
f 11 28 12
f 33 12 11
f 34 27 28
f 12 28 29
f 12 29 13
f 33 13 12
f 34 28 29
f 13 29 30
f 13 30 14
f 33 14 13
f 34 29 30
f 14 30 31
f 14 31 15
f 33 15 14
f 34 30 31
f 15 31 32
f 15 32 16
f 33 16 15
f 34 31 32
f 16 32 17
f 16 17 1
f 33 1 16
f 34 32 17
