v -0.800161 46.473840 27.711936
v -0.817075 46.403676 27.741609
v -0.861839 46.345208 27.767442
v -0.927636 46.307337 27.785503
v -1.004450 46.295830 27.793041
v -1.080587 46.312437 27.788909
v -1.144455 46.354631 27.773736
v -1.186331 46.415987 27.749832
v -1.199839 46.487166 27.720836
v -1.182925 46.557330 27.691163
v -1.138161 46.615798 27.665330
v -1.072364 46.653669 27.647269
v -0.995550 46.665176 27.639731
v -0.919413 46.648569 27.643863
v -0.855545 46.606375 27.659036
v -0.813669 46.545019 27.682940
v -1.800161 34.993337 -0.004450
v -1.817075 34.923173 0.025223
v -1.861839 34.864705 0.051056
v -1.927636 34.826834 0.069117
v -2.004450 34.815327 0.076655
v -2.080587 34.831934 0.072523
v -2.144455 34.874128 0.057350
v -2.186331 34.935484 0.033446
v -2.199839 35.006663 0.004450
v -2.182925 35.076827 -0.025223
v -2.138161 35.135295 -0.051056
v -2.072364 35.173166 -0.069117
v -1.995550 35.184673 -0.076655
v -1.919413 35.168066 -0.072523
v -1.855545 35.125872 -0.057350
v -1.813669 35.064516 -0.033446
v -1.000000 46.480503 27.716386
v -2.000000 35.000000 -0.000000
f 1 17 18
f 1 18 2
f 33 2 1
f 34 17 18
f 2 18 19
f 2 19 3
f 33 3 2
f 34 18 19
f 3 19 20
f 3 20 4
f 33 4 3
f 34 19 20
f 4 20 21
f 4 21 5
f 33 5 4
f 34 20 21
f 5 21 22
f 5 22 6
f 33 6 5
f 34 21 22
f 6 22 23
f 6 23 7
f 33 7 6
f 34 22 23
f 7 23 24
f 7 24 8
f 33 8 7
f 34 23 24
f 8 24 25
f 8 25 9
f 33 9 8
f 34 24 25
f 9 25 26
f 9 26 10
f 33 10 9
f 34 25 26
f 10 26 27
f 10 27 11
f 33 11 10
f 34 26 27
f 11 27 28
f 11 28 12
f 33 12 11
f 34 27 28
f 12 28 29
f 12 29 13
f 33 13 12
f 34 28 29
f 13 29 30
f 13 30 14
f 33 14 13
f 34 29 30
f 14 30 31
f 14 31 15
f 33 15 14
f 34 30 31
f 15 31 32
f 15 32 16
f 33 16 15
f 34 31 32
f 16 32 17
f 16 17 1
f 33 1 16
f 34 32 17
