v 1.197103 7.290277 -11.513757
v 1.169374 7.319043 -11.580789
v 1.115859 7.342415 -11.632553
v 1.044705 7.356835 -11.661169
v 0.966746 7.360108 -11.662280
v 0.893849 7.351736 -11.635717
v 0.837112 7.332992 -11.585524
v 0.805174 7.306731 -11.519343
v 0.802897 7.276951 -11.447249
v 0.830626 7.248185 -11.380217
v 0.884141 7.224813 -11.328453
v 0.955295 7.210393 -11.299837
v 1.033254 7.207120 -11.298726
v 1.106151 7.215492 -11.325289
v 1.162888 7.234236 -11.375482
v 1.194826 7.260497 -11.441663
v 2.197103 35.006663 -0.033254
v 2.169374 35.035429 -0.100286
v 2.115859 35.058801 -0.152050
v 2.044705 35.073221 -0.180666
v 1.966746 35.076494 -0.181777
v 1.893849 35.068122 -0.155214
v 1.837112 35.049378 -0.105021
v 1.805174 35.023117 -0.038840
v 1.802897 34.993337 0.033254
v 1.830626 34.964571 0.100286
v 1.884141 34.941199 0.152050
v 1.955295 34.926779 0.180666
v 2.033254 34.923506 0.181777
v 2.106151 34.931878 0.155214
v 2.162888 34.950622 0.105021
v 2.194826 34.976883 0.038840
v 1.000000 7.283614 -11.480503
v 2.000000 35.000000 -0.000000
f 1 17 18
f 1 18 2
f 33 2 1
f 34 17 18
f 2 18 19
f 2 19 3
f 33 3 2
f 34 18 19
f 3 19 20
f 3 20 4
f 33 4 3
f 34 19 20
f 4 20 21
f 4 21 5
f 33 5 4
f 34 20 21
f 5 21 22
f 5 22 6
f 33 6 5
f 34 21 22
f 6 22 23
f 6 23 7
f 33 7 6
f 34 22 23
f 7 23 24
f 7 24 8
f 33 8 7
f 34 23 24
f 8 24 25
f 8 25 9
f 33 9 8
f 34 24 25
f 9 25 26
f 9 26 10
f 33 10 9
f 34 25 26
f 10 26 27
f 10 27 11
f 33 11 10
f 34 26 27
f 11 27 28
f 11 28 12
f 33 12 11
f 34 27 28
f 12 28 29
f 12 29 13
f 33 13 12
f 34 28 29
f 13 29 30
f 13 30 14
f 33 14 13
f 34 29 30
f 14 30 31
f 14 31 15
f 33 15 14
f 34 30 31
f 15 31 32
f 15 32 16
f 33 16 15
f 34 31 32
f 16 32 17
f 16 17 1
f 33 1 16
f 34 32 17
