# cabin_roof_3
v 0 60.96638488769531 12.85550308227539
v 0.9722718000411987 60.96638488769531 12.452775001525879
v 0 61.46638488769531 11.48050308227539
v 0.9722718000411987 60.96638488769531 12.452775001525879
v 1.375 60.96638488769531 11.48050308227539
v 0 61.46638488769531 11.48050308227539
v 1.375 60.96638488769531 11.48050308227539
v 0.9722718000411987 60.96638488769531 10.508231163024902
v 0 61.46638488769531 11.48050308227539
v 0.9722718000411987 60.96638488769531 10.508231163024902
v 1.6838893230429323e-16 60.96638488769531 10.10550308227539
v 0 61.46638488769531 11.48050308227539
v 1.6838893230429323e-16 60.96638488769531 10.10550308227539
v -0.9722718000411987 60.96638488769531 10.508231163024902
v 0 61.46638488769531 11.48050308227539
v -0.9722718000411987 60.96638488769531 10.508231163024902
v -1.375 60.96638488769531 11.48050308227539
v 0 61.46638488769531 11.48050308227539
v -1.375 60.96638488769531 11.48050308227539
v -0.9722718000411987 60.96638488769531 12.452775001525879
v 0 61.46638488769531 11.48050308227539
v -0.9722718000411987 60.96638488769531 12.452775001525879
v -3.3677786460858646e-16 60.96638488769531 12.85550308227539
v 0 61.46638488769531 11.48050308227539
v 0.9722718000411987 60.96638488769531 12.452775001525879
v 0 60.96638488769531 12.85550308227539
v 0 60.96638488769531 11.48050308227539
v 1.375 60.96638488769531 11.48050308227539
v 0.9722718000411987 60.96638488769531 12.452775001525879
v 0 60.96638488769531 11.48050308227539
v 0.9722718000411987 60.96638488769531 10.508231163024902
v 1.375 60.96638488769531 11.48050308227539
v 0 60.96638488769531 11.48050308227539
v 1.6838893230429323e-16 60.96638488769531 10.10550308227539
v 0.9722718000411987 60.96638488769531 10.508231163024902
v 0 60.96638488769531 11.48050308227539
v -0.9722718000411987 60.96638488769531 10.508231163024902
v 1.6838893230429323e-16 60.96638488769531 10.10550308227539
v 0 60.96638488769531 11.48050308227539
v -1.375 60.96638488769531 11.48050308227539
v -0.9722718000411987 60.96638488769531 10.508231163024902
v 0 60.96638488769531 11.48050308227539
v -0.9722718000411987 60.96638488769531 12.452775001525879
v -1.375 60.96638488769531 11.48050308227539
v 0 60.96638488769531 11.48050308227539
v -3.3677786460858646e-16 60.96638488769531 12.85550308227539
v -0.9722718000411987 60.96638488769531 12.452775001525879
v 0 60.96638488769531 11.48050308227539
vn 0 0.9397934079170227 0.3417430520057678
vn 0.2416488379240036 0.9397934079170227 0.2416488379240036
vn 0.2416488379240036 0.9397934079170227 0.2416488379240036
vn 0.2416488379240036 0.9397934079170227 0.2416488379240036
vn 0.3417430520057678 0.9397934079170227 2.0925727277513326e-17
vn 0.3417430520057678 0.9397934079170227 2.0925727277513326e-17
vn 0.3417430520057678 0.9397934079170227 2.0925727277513326e-17
vn 0.2416488379240036 0.9397934079170227 -0.2416488379240036
vn 0.2416488379240036 0.9397934079170227 -0.2416488379240036
vn 0.2416488379240036 0.9397934079170227 -0.2416488379240036
vn 4.185145455502665e-17 0.9397934079170227 -0.3417430520057678
vn 4.185145455502665e-17 0.9397934079170227 -0.3417430520057678
vn 4.185145455502665e-17 0.9397934079170227 -0.3417430520057678
vn -0.2416488379240036 0.9397934079170227 -0.2416488379240036
vn -0.2416488379240036 0.9397934079170227 -0.2416488379240036
vn -0.2416488379240036 0.9397934079170227 -0.2416488379240036
vn -0.3417430520057678 0.9397934079170227 -6.277718514126243e-17
vn -0.3417430520057678 0.9397934079170227 -6.277718514126243e-17
vn -0.3417430520057678 0.9397934079170227 -6.277718514126243e-17
vn -0.2416488379240036 0.9397934079170227 0.2416488379240036
vn -0.2416488379240036 0.9397934079170227 0.2416488379240036
vn -0.2416488379240036 0.9397934079170227 0.2416488379240036
vn -8.37029091100533e-17 0.9397934079170227 0.3417430520057678
vn -8.37029091100533e-17 0.9397934079170227 0.3417430520057678
vn 0 -1 0
vn 0 -1 0
vn 0 -1 0
vn 0 -1 0
vn 0 -1 0
vn 0 -1 0
vn 0 -1 0
vn 0 -1 0
vn 0 -1 0
vn 0 -1 0
vn 0 -1 0
vn 0 -1 0
vn 0 -1 0
vn 0 -1 0
vn 0 -1 0
vn 0 -1 0
vn 0 -1 0
vn 0 -1 0
vn 0 -1 0
vn 0 -1 0
vn 0 -1 0
vn 0 -1 0
vn 0 -1 0
vn 0 -1 0
f 1//1 2//2 3//3
f 4//4 5//5 6//6
f 7//7 8//8 9//9
f 10//10 11//11 12//12
f 13//13 14//14 15//15
f 16//16 17//17 18//18
f 19//19 20//20 21//21
f 22//22 23//23 24//24
f 25//25 26//26 27//27
f 28//28 29//29 30//30
f 31//31 32//32 33//33
f 34//34 35//35 36//36
f 37//37 38//38 39//39
f 40//40 41//41 42//42
f 43//43 44//44 45//45
f 46//46 47//47 48//48
