# cabin_floor_12
v 0 1.0499999523162842 1.25
v 0.8838834762573242 1.0499999523162842 0.8838834762573242
v 1.25 1.0499999523162842 -5.434370266071617e-15
v 0.8838834762573242 1.0499999523162842 -0.8838834762573242
v 1.5308084995570108e-16 1.0499999523162842 -1.25
v -0.8838834762573242 1.0499999523162842 -0.8838834762573242
v -1.25 1.0499999523162842 -5.740532018922578e-15
v -0.8838834762573242 1.0499999523162842 0.8838834762573242
v -3.0616169991140216e-16 1.0499999523162842 1.25
v 0 0.949999988079071 1.25
v 0.8838834762573242 0.949999988079071 0.8838834762573242
v 1.25 0.949999988079071 -5.434370266071617e-15
v 0.8838834762573242 0.949999988079071 -0.8838834762573242
v 1.5308084995570108e-16 0.949999988079071 -1.25
v -0.8838834762573242 0.949999988079071 -0.8838834762573242
v -1.25 0.949999988079071 -5.740532018922578e-15
v -0.8838834762573242 0.949999988079071 0.8838834762573242
v -3.0616169991140216e-16 0.949999988079071 1.25
v 0 1.0499999523162842 -5.510910704284357e-15
v 0 1.0499999523162842 -5.510910704284357e-15
v 0 1.0499999523162842 -5.510910704284357e-15
v 0 1.0499999523162842 -5.510910704284357e-15
v 0 1.0499999523162842 -5.510910704284357e-15
v 0 1.0499999523162842 -5.510910704284357e-15
v 0 1.0499999523162842 -5.510910704284357e-15
v 0 1.0499999523162842 -5.510910704284357e-15
v 0 1.0499999523162842 1.25
v 0.8838834762573242 1.0499999523162842 0.8838834762573242
v 1.25 1.0499999523162842 -5.434370266071617e-15
v 0.8838834762573242 1.0499999523162842 -0.8838834762573242
v 1.5308084995570108e-16 1.0499999523162842 -1.25
v -0.8838834762573242 1.0499999523162842 -0.8838834762573242
v -1.25 1.0499999523162842 -5.740532018922578e-15
v -0.8838834762573242 1.0499999523162842 0.8838834762573242
v -3.0616169991140216e-16 1.0499999523162842 1.25
v 0 0.949999988079071 -5.510910704284357e-15
v 0 0.949999988079071 -5.510910704284357e-15
v 0 0.949999988079071 -5.510910704284357e-15
v 0 0.949999988079071 -5.510910704284357e-15
v 0 0.949999988079071 -5.510910704284357e-15
v 0 0.949999988079071 -5.510910704284357e-15
v 0 0.949999988079071 -5.510910704284357e-15
v 0 0.949999988079071 -5.510910704284357e-15
v 0 0.949999988079071 1.25
v 0.8838834762573242 0.949999988079071 0.8838834762573242
v 1.25 0.949999988079071 -5.434370266071617e-15
v 0.8838834762573242 0.949999988079071 -0.8838834762573242
v 1.5308084995570108e-16 0.949999988079071 -1.25
v -0.8838834762573242 0.949999988079071 -0.8838834762573242
v -1.25 0.949999988079071 -5.740532018922578e-15
v -0.8838834762573242 0.949999988079071 0.8838834762573242
v -3.0616169991140216e-16 0.949999988079071 1.25
f 1 10 2
f 10 11 2
f 2 11 3
f 11 12 3
f 3 12 4
f 12 13 4
f 4 13 5
f 13 14 5
f 5 14 6
f 14 15 6
f 6 15 7
f 15 16 7
f 7 16 8
f 16 17 8
f 8 17 9
f 17 18 9
f 27 28 19
f 28 29 20
f 29 30 21
f 30 31 22
f 31 32 23
f 32 33 24
f 33 34 25
f 34 35 26
f 45 44 36
f 46 45 37
f 47 46 38
f 48 47 39
f 49 48 40
f 50 49 41
f 51 50 42
f 52 51 43
