# cabin_roof_0
v 0 33.75 30
v 0 33.75 30
v 0 33.75 30
v 0 33.75 30
v 0 33.75 30
v 0 33.75 30
v 0 33.75 30
v 0 33.75 30
v 0 33.75 30
v 0 33.25 31.375
v 0.9722718000411987 33.25 30.972270965576172
v 1.375 33.25 30
v 0.9722718000411987 33.25 29.027729034423828
v 1.6838893230429323e-16 33.25 28.625
v -0.9722718000411987 33.25 29.027729034423828
v -1.375 33.25 30
v -0.9722718000411987 33.25 30.972270965576172
v -3.3677786460858646e-16 33.25 31.375
v 0 33.25 30
v 0 33.25 30
v 0 33.25 30
v 0 33.25 30
v 0 33.25 30
v 0 33.25 30
v 0 33.25 30
v 0 33.25 30
v 0 33.25 31.375
v 0.9722718000411987 33.25 30.972270965576172
v 1.375 33.25 30
v 0.9722718000411987 33.25 29.027729034423828
v 1.6838893230429323e-16 33.25 28.625
v -0.9722718000411987 33.25 29.027729034423828
v -1.375 33.25 30
v -0.9722718000411987 33.25 30.972270965576172
v -3.3677786460858646e-16 33.25 31.375
f 10 11 2
f 11 12 3
f 12 13 4
f 13 14 5
f 14 15 6
f 15 16 7
f 16 17 8
f 17 18 9
f 28 27 19
f 29 28 20
f 30 29 21
f 31 30 22
f 32 31 23
f 33 32 24
f 34 33 25
f 35 34 26
