# cabin_roof_13
v 0 6.033614158630371 11.48050308227539
v 0 6.033614158630371 11.48050308227539
v 0 6.033614158630371 11.48050308227539
v 0 6.033614158630371 11.48050308227539
v 0 6.033614158630371 11.48050308227539
v 0 6.033614158630371 11.48050308227539
v 0 6.033614158630371 11.48050308227539
v 0 6.033614158630371 11.48050308227539
v 0 6.033614158630371 11.48050308227539
v 0 5.533614158630371 12.85550308227539
v 0.9722718000411987 5.533614158630371 12.452775001525879
v 1.375 5.533614158630371 11.48050308227539
v 0.9722718000411987 5.533614158630371 10.508231163024902
v 1.6838893230429323e-16 5.533614158630371 10.10550308227539
v -0.9722718000411987 5.533614158630371 10.508231163024902
v -1.375 5.533614158630371 11.48050308227539
v -0.9722718000411987 5.533614158630371 12.452775001525879
v -3.3677786460858646e-16 5.533614158630371 12.85550308227539
v 0 5.533614158630371 11.48050308227539
v 0 5.533614158630371 11.48050308227539
v 0 5.533614158630371 11.48050308227539
v 0 5.533614158630371 11.48050308227539
v 0 5.533614158630371 11.48050308227539
v 0 5.533614158630371 11.48050308227539
v 0 5.533614158630371 11.48050308227539
v 0 5.533614158630371 11.48050308227539
v 0 5.533614158630371 12.85550308227539
v 0.9722718000411987 5.533614158630371 12.452775001525879
v 1.375 5.533614158630371 11.48050308227539
v 0.9722718000411987 5.533614158630371 10.508231163024902
v 1.6838893230429323e-16 5.533614158630371 10.10550308227539
v -0.9722718000411987 5.533614158630371 10.508231163024902
v -1.375 5.533614158630371 11.48050308227539
v -0.9722718000411987 5.533614158630371 12.452775001525879
v -3.3677786460858646e-16 5.533614158630371 12.85550308227539
f 10 11 2
f 11 12 3
f 12 13 4
f 13 14 5
f 14 15 6
f 15 16 7
f 16 17 8
f 17 18 9
f 28 27 19
f 29 28 20
f 30 29 21
f 31 30 22
f 32 31 23
f 33 32 24
f 34 33 25
f 35 34 26
