# cabin_roof_4
v 0 63.75 1.8369700935892946e-15
v 0 63.75 1.8369700935892946e-15
v 0 63.75 1.8369700935892946e-15
v 0 63.75 1.8369700935892946e-15
v 0 63.75 1.8369700935892946e-15
v 0 63.75 1.8369700935892946e-15
v 0 63.75 1.8369700935892946e-15
v 0 63.75 1.8369700935892946e-15
v 0 63.75 1.8369700935892946e-15
v 0 63.25 1.375
v 0.9722718000411987 63.25 0.9722718000411987
v 1.375 63.25 1.9211647450298984e-15
v 0.9722718000411987 63.25 -0.9722718000411987
v 1.6838893230429323e-16 63.25 -1.375
v -0.9722718000411987 63.25 -0.9722718000411987
v -1.375 63.25 1.5843867745421935e-15
v -0.9722718000411987 63.25 0.9722718000411987
v -3.3677786460858646e-16 63.25 1.375
v 0 63.25 1.8369700935892946e-15
v 0 63.25 1.8369700935892946e-15
v 0 63.25 1.8369700935892946e-15
v 0 63.25 1.8369700935892946e-15
v 0 63.25 1.8369700935892946e-15
v 0 63.25 1.8369700935892946e-15
v 0 63.25 1.8369700935892946e-15
v 0 63.25 1.8369700935892946e-15
v 0 63.25 1.375
v 0.9722718000411987 63.25 0.9722718000411987
v 1.375 63.25 1.9211647450298984e-15
v 0.9722718000411987 63.25 -0.9722718000411987
v 1.6838893230429323e-16 63.25 -1.375
v -0.9722718000411987 63.25 -0.9722718000411987
v -1.375 63.25 1.5843867745421935e-15
v -0.9722718000411987 63.25 0.9722718000411987
v -3.3677786460858646e-16 63.25 1.375
f 10 11 2
f 11 12 3
f 12 13 4
f 13 14 5
f 14 15 6
f 15 16 7
f 16 17 8
f 17 18 9
f 28 27 19
f 29 28 20
f 30 29 21
f 31 30 22
f 32 31 23
f 33 32 24
f 34 33 25
f 35 34 26
