# spoke_back_12
v -0.9972410202026367 56.35454559326172 -21.071731567382812
v -0.9209641218185425 56.34123611450195 -21.081443786621094
v -0.8567196726799011 56.30843734741211 -21.111215591430664
v -0.8142884373664856 56.261138916015625 -21.15651512145996
v -0.8001300692558289 56.206539154052734 -21.210445404052734
v -0.8164000511169434 56.152957916259766 -21.264793395996094
v -0.8606215119361877 56.10854721069336 -21.311288833618164
v -0.9260620474815369 56.08007049560547 -21.342851638793945
v -1.0027589797973633 56.071861267089844 -21.354677200317383
v -1.0790358781814575 56.08517074584961 -21.34496307373047
v -1.143280267715454 56.11796951293945 -21.3151912689209
v -1.1857115030288696 56.16526794433594 -21.2698917388916
v -1.199869990348816 56.21986770629883 -21.21596336364746
v -1.1835999488830566 56.2734489440918 -21.16161346435547
v -1.1393784284591675 56.3178596496582 -21.1151180267334
v -1.0739378929138184 56.346336364746094 -21.083555221557617
v -0.9972410202026367 56.35454559326172 -21.071731567382812
v -1.9972410202026367 35.14134216308594 0.14147311449050903
v -1.9209641218185425 35.12803268432617 0.13175994157791138
v -1.856719732284546 35.09523391723633 0.1019875630736351
v -1.8142884969711304 35.047935485839844 0.05668851360678673
v -1.800130009651184 34.99333572387695 0.002759190509095788
v -1.8164000511169434 34.939754486083984 -0.05159016326069832
v -1.8606215715408325 34.89534378051758 -0.09808535873889923
v -1.9260621070861816 34.86686706542969 -0.12964791059494019
v -2.0027589797973633 34.85865783691406 -0.1414727121591568
v -2.079035997390747 34.87196731567383 -0.13175955414772034
v -2.143280267715454 34.90476608276367 -0.10198716819286346
v -2.185711622238159 34.952064514160156 -0.05668811872601509
v -2.1998698711395264 35.00666427612305 -0.0027587960939854383
v -2.1835999488830566 35.060245513916016 0.051590558141469955
v -2.139378547668457 35.10465621948242 0.09808575361967087
v -2.0739378929138184 35.13313293457031 0.12964829802513123
v -1.9972410202026367 35.14134216308594 0.14147311449050903
v -1 56.21320343017578 -21.21320343017578
v -1 56.21320343017578 -21.21320343017578
v -1 56.21320343017578 -21.21320343017578
v -1 56.21320343017578 -21.21320343017578
v -1 56.21320343017578 -21.21320343017578
v -1 56.21320343017578 -21.21320343017578
v -1 56.21320343017578 -21.21320343017578
v -1 56.21320343017578 -21.21320343017578
v -1 56.21320343017578 -21.21320343017578
v -1 56.21320343017578 -21.21320343017578
v -1 56.21320343017578 -21.21320343017578
v -1 56.21320343017578 -21.21320343017578
v -1 56.21320343017578 -21.21320343017578
v -1 56.21320343017578 -21.21320343017578
v -1 56.21320343017578 -21.21320343017578
v -1 56.21320343017578 -21.21320343017578
v -0.9972410202026367 56.35454559326172 -21.071731567382812
v -0.9209641218185425 56.34123611450195 -21.081443786621094
v -0.8567196726799011 56.30843734741211 -21.111215591430664
v -0.8142884373664856 56.261138916015625 -21.15651512145996
v -0.8001300692558289 56.206539154052734 -21.210445404052734
v -0.8164000511169434 56.152957916259766 -21.264793395996094
v -0.8606215119361877 56.10854721069336 -21.311288833618164
v -0.9260620474815369 56.08007049560547 -21.342851638793945
v -1.0027589797973633 56.071861267089844 -21.354677200317383
v -1.0790358781814575 56.08517074584961 -21.34496307373047
v -1.143280267715454 56.11796951293945 -21.3151912689209
v -1.1857115030288696 56.16526794433594 -21.2698917388916
v -1.199869990348816 56.21986770629883 -21.21596336364746
v -1.1835999488830566 56.2734489440918 -21.16161346435547
v -1.1393784284591675 56.3178596496582 -21.1151180267334
v -1.0739378929138184 56.346336364746094 -21.083555221557617
v -0.9972410202026367 56.35454559326172 -21.071731567382812
v -2 35 1.9719058741429762e-7
v -2 35 1.9719058741429762e-7
v -2 35 1.9719058741429762e-7
v -2 35 1.9719058741429762e-7
v -2 35 1.9719058741429762e-7
v -2 35 1.9719058741429762e-7
v -2 35 1.9719058741429762e-7
v -2 35 1.9719058741429762e-7
v -2 35 1.9719058741429762e-7
v -2 35 1.9719058741429762e-7
v -2 35 1.9719058741429762e-7
v -2 35 1.9719058741429762e-7
v -2 35 1.9719058741429762e-7
v -2 35 1.9719058741429762e-7
v -2 35 1.9719058741429762e-7
v -2 35 1.9719058741429762e-7
v -1.9972410202026367 35.14134216308594 0.14147311449050903
v -1.9209641218185425 35.12803268432617 0.13175994157791138
v -1.856719732284546 35.09523391723633 0.1019875630736351
v -1.8142884969711304 35.047935485839844 0.05668851360678673
v -1.800130009651184 34.99333572387695 0.002759190509095788
v -1.8164000511169434 34.939754486083984 -0.05159016326069832
v -1.8606215715408325 34.89534378051758 -0.09808535873889923
v -1.9260621070861816 34.86686706542969 -0.12964791059494019
v -2.0027589797973633 34.85865783691406 -0.1414727121591568
v -2.079035997390747 34.87196731567383 -0.13175955414772034
v -2.143280267715454 34.90476608276367 -0.10198716819286346
v -2.185711622238159 34.952064514160156 -0.05668811872601509
v -2.1998698711395264 35.00666427612305 -0.0027587960939854383
v -2.1835999488830566 35.060245513916016 0.051590558141469955
v -2.139378547668457 35.10465621948242 0.09808575361967087
v -2.0739378929138184 35.13313293457031 0.12964829802513123
v -1.9972410202026367 35.14134216308594 0.14147311449050903
f 1 18 2
f 18 19 2
f 2 19 3
f 19 20 3
f 3 20 4
f 20 21 4
f 4 21 5
f 21 22 5
f 5 22 6
f 22 23 6
f 6 23 7
f 23 24 7
f 7 24 8
f 24 25 8
f 8 25 9
f 25 26 9
f 9 26 10
f 26 27 10
f 10 27 11
f 27 28 11
f 11 28 12
f 28 29 12
f 12 29 13
f 29 30 13
f 13 30 14
f 30 31 14
f 14 31 15
f 31 32 15
f 15 32 16
f 32 33 16
f 16 33 17
f 33 34 17
f 51 52 35
f 52 53 36
f 53 54 37
f 54 55 38
f 55 56 39
f 56 57 40
f 57 58 41
f 58 59 42
f 59 60 43
f 60 61 44
f 61 62 45
f 62 63 46
f 63 64 47
f 64 65 48
f 65 66 49
f 66 67 50
f 85 84 68
f 86 85 69
f 87 86 70
f 88 87 71
f 89 88 72
f 90 89 73
f 91 90 74
f 92 91 75
f 93 92 76
f 94 93 77
f 95 94 78
f 96 95 79
f 97 96 80
f 98 97 81
f 99 98 82
f 100 99 83
