# spoke_front_8
v 1 65 0.20000000298023224
v 1.0764942169189453 65.00254821777344 0.18477590382099152
v 1.1413428783416748 65.00471496582031 0.1414213627576828
v 1.1846733093261719 65.00615692138672 0.07653668522834778
v 1.1998889446258545 65.00666046142578 1.8494206308809855e-15
v 1.1846733093261719 65.00615692138672 -0.07653668522834778
v 1.1413428783416748 65.00471496582031 -0.1414213627576828
v 1.0764942169189453 65.00254821777344 -0.18477590382099152
v 1 65 -0.20000000298023224
v 0.9235057830810547 64.99745178222656 -0.18477590382099152
v 0.8586571216583252 64.99529266357422 -0.1414213627576828
v 0.8153266310691833 64.99384307861328 -0.07653668522834778
v 0.8001109957695007 64.99333953857422 1.800026963353035e-15
v 0.8153266310691833 64.99384307861328 0.07653668522834778
v 0.8586571216583252 64.99529266357422 0.1414213627576828
v 0.9235057830810547 64.99745178222656 0.18477590382099152
v 1 65 0.20000000298023224
v 2 35 0.20000000298023224
v 2.0764942169189453 35.00254821777344 0.18477590382099152
v 2.141342878341675 35.00471115112305 0.1414213627576828
v 2.184673309326172 35.00615692138672 0.07653668522834778
v 2.1998889446258545 35.00666427612305 1.2450388399180701e-17
v 2.184673309326172 35.00615692138672 -0.07653668522834778
v 2.141342878341675 35.00471115112305 -0.1414213627576828
v 2.0764942169189453 35.00254821777344 -0.18477590382099152
v 2 35 -0.20000000298023224
v 1.9235057830810547 34.99745178222656 -0.18477590382099152
v 1.8586571216583252 34.99528884887695 -0.1414213627576828
v 1.8153266906738281 34.99384307861328 -0.07653668522834778
v 1.8001110553741455 34.99333572387695 -3.694336184683101e-17
v 1.8153266906738281 34.99384307861328 0.07653668522834778
v 1.8586571216583252 34.99528884887695 0.1414213627576828
v 1.9235057830810547 34.99745178222656 0.18477590382099152
v 2 35 0.20000000298023224
v 1 65 1.8369703053475314e-15
v 1 65 1.8369703053475314e-15
v 1 65 1.8369703053475314e-15
v 1 65 1.8369703053475314e-15
v 1 65 1.8369703053475314e-15
v 1 65 1.8369703053475314e-15
v 1 65 1.8369703053475314e-15
v 1 65 1.8369703053475314e-15
v 1 65 1.8369703053475314e-15
v 1 65 1.8369703053475314e-15
v 1 65 1.8369703053475314e-15
v 1 65 1.8369703053475314e-15
v 1 65 1.8369703053475314e-15
v 1 65 1.8369703053475314e-15
v 1 65 1.8369703053475314e-15
v 1 65 1.8369703053475314e-15
v 1 65 0.20000000298023224
v 1.0764942169189453 65.00254821777344 0.18477590382099152
v 1.1413428783416748 65.00471496582031 0.1414213627576828
v 1.1846733093261719 65.00615692138672 0.07653668522834778
v 1.1998889446258545 65.00666046142578 1.8494206308809855e-15
v 1.1846733093261719 65.00615692138672 -0.07653668522834778
v 1.1413428783416748 65.00471496582031 -0.1414213627576828
v 1.0764942169189453 65.00254821777344 -0.18477590382099152
v 1 65 -0.20000000298023224
v 0.9235057830810547 64.99745178222656 -0.18477590382099152
v 0.8586571216583252 64.99529266357422 -0.1414213627576828
v 0.8153266310691833 64.99384307861328 -0.07653668522834778
v 0.8001109957695007 64.99333953857422 1.800026963353035e-15
v 0.8153266310691833 64.99384307861328 0.07653668522834778
v 0.8586571216583252 64.99529266357422 0.1414213627576828
v 0.9235057830810547 64.99745178222656 0.18477590382099152
v 1 65 0.20000000298023224
v 2 35 -1.7075837771151445e-23
v 2 35 -1.7075837771151445e-23
v 2 35 -1.7075837771151445e-23
v 2 35 -1.7075837771151445e-23
v 2 35 -1.7075837771151445e-23
v 2 35 -1.7075837771151445e-23
v 2 35 -1.7075837771151445e-23
v 2 35 -1.7075837771151445e-23
v 2 35 -1.7075837771151445e-23
v 2 35 -1.7075837771151445e-23
v 2 35 -1.7075837771151445e-23
v 2 35 -1.7075837771151445e-23
v 2 35 -1.7075837771151445e-23
v 2 35 -1.7075837771151445e-23
v 2 35 -1.7075837771151445e-23
v 2 35 -1.7075837771151445e-23
v 2 35 0.20000000298023224
v 2.0764942169189453 35.00254821777344 0.18477590382099152
v 2.141342878341675 35.00471115112305 0.1414213627576828
v 2.184673309326172 35.00615692138672 0.07653668522834778
v 2.1998889446258545 35.00666427612305 1.2450388399180701e-17
v 2.184673309326172 35.00615692138672 -0.07653668522834778
v 2.141342878341675 35.00471115112305 -0.1414213627576828
v 2.0764942169189453 35.00254821777344 -0.18477590382099152
v 2 35 -0.20000000298023224
v 1.9235057830810547 34.99745178222656 -0.18477590382099152
v 1.8586571216583252 34.99528884887695 -0.1414213627576828
v 1.8153266906738281 34.99384307861328 -0.07653668522834778
v 1.8001110553741455 34.99333572387695 -3.694336184683101e-17
v 1.8153266906738281 34.99384307861328 0.07653668522834778
v 1.8586571216583252 34.99528884887695 0.1414213627576828
v 1.9235057830810547 34.99745178222656 0.18477590382099152
v 2 35 0.20000000298023224
f 1 18 2
f 18 19 2
f 2 19 3
f 19 20 3
f 3 20 4
f 20 21 4
f 4 21 5
f 21 22 5
f 5 22 6
f 22 23 6
f 6 23 7
f 23 24 7
f 7 24 8
f 24 25 8
f 8 25 9
f 25 26 9
f 9 26 10
f 26 27 10
f 10 27 11
f 27 28 11
f 11 28 12
f 28 29 12
f 12 29 13
f 29 30 13
f 13 30 14
f 30 31 14
f 14 31 15
f 31 32 15
f 15 32 16
f 32 33 16
f 16 33 17
f 33 34 17
f 51 52 35
f 52 53 36
f 53 54 37
f 54 55 38
f 55 56 39
f 56 57 40
f 57 58 41
f 58 59 42
f 59 60 43
f 60 61 44
f 61 62 45
f 62 63 46
f 63 64 47
f 64 65 48
f 65 66 49
f 66 67 50
f 85 84 68
f 86 85 69
f 87 86 70
f 88 87 71
f 89 88 72
f 90 89 73
f 91 90 74
f 92 91 75
f 93 92 76
f 94 93 77
f 95 94 78
f 96 95 79
f 97 96 80
f 98 97 81
f 99 98 82
f 100 99 83
