# spoke_back_14
v -0.995549738407135 46.66517639160156 -27.639732360839844
v -0.9194132685661316 46.6485710144043 -27.643863677978516
v -0.8555453419685364 46.60637664794922 -27.65903663635254
v -0.8136693835258484 46.54501724243164 -27.682939529418945
v -0.8001605272293091 46.473838806152344 -27.71193504333496
v -0.8170754909515381 46.4036750793457 -27.741609573364258
v -0.8618389964103699 46.34520721435547 -27.76744270324707
v -0.9276362657546997 46.30733871459961 -27.785503387451172
v -1.0044502019882202 46.29582977294922 -27.793041229248047
v -1.0805867910385132 46.312435150146484 -27.788909912109375
v -1.1444545984268188 46.35462951660156 -27.77373695373535
v -1.1863305568695068 46.41598892211914 -27.749832153320312
v -1.199839472770691 46.48716735839844 -27.720836639404297
v -1.182924509048462 46.55733108520508 -27.691164016723633
v -1.138161063194275 46.61579895019531 -27.66533088684082
v -1.0723637342453003 46.65366744995117 -27.64727020263672
v -0.995549738407135 46.66517639160156 -27.639732360839844
v -1.9955497980117798 35.18467330932617 0.07665502279996872
v -1.9194132089614868 35.16806411743164 0.07252306491136551
v -1.8555454015731812 35.12587356567383 0.05735017731785774
v -1.8136694431304932 35.06451416015625 0.03344627469778061
v -1.800160527229309 34.99333572387695 0.004450521897524595
v -1.817075490951538 34.92317199707031 -0.025222742930054665
v -1.861838936805725 34.86470413208008 -0.051056038588285446
v -1.9276362657546997 34.82683563232422 -0.06911646574735641
v -2.0044503211975098 34.81532669067383 -0.07665450870990753
v -2.0805866718292236 34.831932067871094 -0.07252255082130432
v -2.1444547176361084 34.87412643432617 -0.057349663227796555
v -2.186330556869507 34.93548583984375 -0.03344575688242912
v -2.1998393535614014 35.00666427612305 -0.004450006410479546
v -2.182924509048462 35.07682800292969 0.025223258882761
v -2.1381609439849854 35.13529586791992 0.051056552678346634
v -2.07236385345459 35.17316436767578 0.0691169872879982
v -1.9955497980117798 35.18467330932617 0.07665502279996872
v -1 46.48050308227539 -27.716386795043945
v -1 46.48050308227539 -27.716386795043945
v -1 46.48050308227539 -27.716386795043945
v -1 46.48050308227539 -27.716386795043945
v -1 46.48050308227539 -27.716386795043945
v -1 46.48050308227539 -27.716386795043945
v -1 46.48050308227539 -27.716386795043945
v -1 46.48050308227539 -27.716386795043945
v -1 46.48050308227539 -27.716386795043945
v -1 46.48050308227539 -27.716386795043945
v -1 46.48050308227539 -27.716386795043945
v -1 46.48050308227539 -27.716386795043945
v -1 46.48050308227539 -27.716386795043945
v -1 46.48050308227539 -27.716386795043945
v -1 46.48050308227539 -27.716386795043945
v -1 46.48050308227539 -27.716386795043945
v -0.995549738407135 46.66517639160156 -27.639732360839844
v -0.9194132685661316 46.6485710144043 -27.643863677978516
v -0.8555453419685364 46.60637664794922 -27.65903663635254
v -0.8136693835258484 46.54501724243164 -27.682939529418945
v -0.8001605272293091 46.473838806152344 -27.71193504333496
v -0.8170754909515381 46.4036750793457 -27.741609573364258
v -0.8618389964103699 46.34520721435547 -27.76744270324707
v -0.9276362657546997 46.30733871459961 -27.785503387451172
v -1.0044502019882202 46.29582977294922 -27.793041229248047
v -1.0805867910385132 46.312435150146484 -27.788909912109375
v -1.1444545984268188 46.35462951660156 -27.77373695373535
v -1.1863305568695068 46.41598892211914 -27.749832153320312
v -1.199839472770691 46.48716735839844 -27.720836639404297
v -1.182924509048462 46.55733108520508 -27.691164016723633
v -1.138161063194275 46.61579895019531 -27.66533088684082
v -1.0723637342453003 46.65366744995117 -27.64727020263672
v -0.995549738407135 46.66517639160156 -27.639732360839844
v -2 35 2.5764191491362e-7
v -2 35 2.5764191491362e-7
v -2 35 2.5764191491362e-7
v -2 35 2.5764191491362e-7
v -2 35 2.5764191491362e-7
v -2 35 2.5764191491362e-7
v -2 35 2.5764191491362e-7
v -2 35 2.5764191491362e-7
v -2 35 2.5764191491362e-7
v -2 35 2.5764191491362e-7
v -2 35 2.5764191491362e-7
v -2 35 2.5764191491362e-7
v -2 35 2.5764191491362e-7
v -2 35 2.5764191491362e-7
v -2 35 2.5764191491362e-7
v -2 35 2.5764191491362e-7
v -1.9955497980117798 35.18467330932617 0.07665502279996872
v -1.9194132089614868 35.16806411743164 0.07252306491136551
v -1.8555454015731812 35.12587356567383 0.05735017731785774
v -1.8136694431304932 35.06451416015625 0.03344627469778061
v -1.800160527229309 34.99333572387695 0.004450521897524595
v -1.817075490951538 34.92317199707031 -0.025222742930054665
v -1.861838936805725 34.86470413208008 -0.051056038588285446
v -1.9276362657546997 34.82683563232422 -0.06911646574735641
v -2.0044503211975098 34.81532669067383 -0.07665450870990753
v -2.0805866718292236 34.831932067871094 -0.07252255082130432
v -2.1444547176361084 34.87412643432617 -0.057349663227796555
v -2.186330556869507 34.93548583984375 -0.03344575688242912
v -2.1998393535614014 35.00666427612305 -0.004450006410479546
v -2.182924509048462 35.07682800292969 0.025223258882761
v -2.1381609439849854 35.13529586791992 0.051056552678346634
v -2.07236385345459 35.17316436767578 0.0691169872879982
v -1.9955497980117798 35.18467330932617 0.07665502279996872
f 1 18 2
f 18 19 2
f 2 19 3
f 19 20 3
f 3 20 4
f 20 21 4
f 4 21 5
f 21 22 5
f 5 22 6
f 22 23 6
f 6 23 7
f 23 24 7
f 7 24 8
f 24 25 8
f 8 25 9
f 25 26 9
f 9 26 10
f 26 27 10
f 10 27 11
f 27 28 11
f 11 28 12
f 28 29 12
f 12 29 13
f 29 30 13
f 13 30 14
f 30 31 14
f 14 31 15
f 31 32 15
f 15 32 16
f 32 33 16
f 16 33 17
f 33 34 17
f 51 52 35
f 52 53 36
f 53 54 37
f 54 55 38
f 55 56 39
f 56 57 40
f 57 58 41
f 58 59 42
f 59 60 43
f 60 61 44
f 61 62 45
f 62 63 46
f 63 64 47
f 64 65 48
f 65 66 49
f 66 67 50
f 85 84 68
f 86 85 69
f 87 86 70
f 88 87 71
f 89 88 72
f 90 89 73
f 91 90 74
f 92 91 75
f 93 92 76
f 94 93 77
f 95 94 78
f 96 95 79
f 97 96 80
f 98 97 81
f 99 98 82
f 100 99 83
