# spoke_front_5
v 1.0020205974578857 59.83303451538086 16.83342933654785
v 1.0783571004867554 59.84403991699219 16.821542739868164
v 1.1427644491195679 59.87027359008789 16.786144256591797
v 1.1854370832443237 59.907745361328125 16.732622146606445
v 1.1998788118362427 59.95075225830078 16.66912841796875
v 1.183890700340271 59.992740631103516 16.60532569885254
v 1.139906883239746 60.02732467651367 16.550928115844727
v 1.074623465538025 60.04923629760742 16.514217376708984
v 0.9979794025421143 60.05514144897461 16.500783920288086
v 0.9216429591178894 60.04413604736328 16.512672424316406
v 0.8572356104850769 60.01790237426758 16.548070907592773
v 0.8145628571510315 59.980430603027344 16.601591110229492
v 0.8001212477684021 59.93742752075195 16.66508674621582
v 0.8161093592643738 59.89543533325195 16.72888946533203
v 0.8600931167602539 59.8608512878418 16.783287048339844
v 0.9253764748573303 59.83893966674805 16.819995880126953
v 1.0020205974578857 59.83303451538086 16.83342933654785
v 2.0020205974578857 34.888946533203125 0.16632269322872162
v 2.078356981277466 34.89995193481445 0.15443535149097443
v 2.1427643299102783 34.926185607910156 0.11903662234544754
v 2.1854372024536133 34.96365737915039 0.06551560759544373
v 2.199878692626953 35.00666427612305 0.0020204209722578526
v 2.1838905811309814 35.04865264892578 -0.06178238242864609
v 2.139906883239746 35.08323669433594 -0.11617940664291382
v 2.0746235847473145 35.10514831542969 -0.1528891772031784
v 1.9979794025421143 35.111053466796875 -0.1663230061531067
v 1.9216428995132446 35.10004806518555 -0.1544356644153595
v 1.8572355508804321 35.073814392089844 -0.11903693526983261
v 1.8145629167556763 35.03634262084961 -0.0655159205198288
v 1.8001211881637573 34.99333572387695 -0.002020730869844556
v 1.816109299659729 34.95134735107422 0.061782073229551315
v 1.860093116760254 34.91676330566406 0.11617910116910934
v 1.925376534461975 34.89485168457031 0.15288887917995453
v 2.0020205974578857 34.888946533203125 0.16632269322872162
v 1 59.944087982177734 16.66710662841797
v 1 59.944087982177734 16.66710662841797
v 1 59.944087982177734 16.66710662841797
v 1 59.944087982177734 16.66710662841797
v 1 59.944087982177734 16.66710662841797
v 1 59.944087982177734 16.66710662841797
v 1 59.944087982177734 16.66710662841797
v 1 59.944087982177734 16.66710662841797
v 1 59.944087982177734 16.66710662841797
v 1 59.944087982177734 16.66710662841797
v 1 59.944087982177734 16.66710662841797
v 1 59.944087982177734 16.66710662841797
v 1 59.944087982177734 16.66710662841797
v 1 59.944087982177734 16.66710662841797
v 1 59.944087982177734 16.66710662841797
v 1 59.944087982177734 16.66710662841797
v 1.0020205974578857 59.83303451538086 16.83342933654785
v 1.0783571004867554 59.84403991699219 16.821542739868164
v 1.1427644491195679 59.87027359008789 16.786144256591797
v 1.1854370832443237 59.907745361328125 16.732622146606445
v 1.1998788118362427 59.95075225830078 16.66912841796875
v 1.183890700340271 59.992740631103516 16.60532569885254
v 1.139906883239746 60.02732467651367 16.550928115844727
v 1.074623465538025 60.04923629760742 16.514217376708984
v 0.9979794025421143 60.05514144897461 16.500783920288086
v 0.9216429591178894 60.04413604736328 16.512672424316406
v 0.8572356104850769 60.01790237426758 16.548070907592773
v 0.8145628571510315 59.980430603027344 16.601591110229492
v 0.8001212477684021 59.93742752075195 16.66508674621582
v 0.8161093592643738 59.89543533325195 16.72888946533203
v 0.8600931167602539 59.8608512878418 16.783287048339844
v 0.9253764748573303 59.83893966674805 16.819995880126953
v 1.0020205974578857 59.83303451538086 16.83342933654785
v 2 35 -1.549316550608637e-7
v 2 35 -1.549316550608637e-7
v 2 35 -1.549316550608637e-7
v 2 35 -1.549316550608637e-7
v 2 35 -1.549316550608637e-7
v 2 35 -1.549316550608637e-7
v 2 35 -1.549316550608637e-7
v 2 35 -1.549316550608637e-7
v 2 35 -1.549316550608637e-7
v 2 35 -1.549316550608637e-7
v 2 35 -1.549316550608637e-7
v 2 35 -1.549316550608637e-7
v 2 35 -1.549316550608637e-7
v 2 35 -1.549316550608637e-7
v 2 35 -1.549316550608637e-7
v 2 35 -1.549316550608637e-7
v 2.0020205974578857 34.888946533203125 0.16632269322872162
v 2.078356981277466 34.89995193481445 0.15443535149097443
v 2.1427643299102783 34.926185607910156 0.11903662234544754
v 2.1854372024536133 34.96365737915039 0.06551560759544373
v 2.199878692626953 35.00666427612305 0.0020204209722578526
v 2.1838905811309814 35.04865264892578 -0.06178238242864609
v 2.139906883239746 35.08323669433594 -0.11617940664291382
v 2.0746235847473145 35.10514831542969 -0.1528891772031784
v 1.9979794025421143 35.111053466796875 -0.1663230061531067
v 1.9216428995132446 35.10004806518555 -0.1544356644153595
v 1.8572355508804321 35.073814392089844 -0.11903693526983261
v 1.8145629167556763 35.03634262084961 -0.0655159205198288
v 1.8001211881637573 34.99333572387695 -0.002020730869844556
v 1.816109299659729 34.95134735107422 0.061782073229551315
v 1.860093116760254 34.91676330566406 0.11617910116910934
v 1.925376534461975 34.89485168457031 0.15288887917995453
v 2.0020205974578857 34.888946533203125 0.16632269322872162
f 1 18 2
f 18 19 2
f 2 19 3
f 19 20 3
f 3 20 4
f 20 21 4
f 4 21 5
f 21 22 5
f 5 22 6
f 22 23 6
f 6 23 7
f 23 24 7
f 7 24 8
f 24 25 8
f 8 25 9
f 25 26 9
f 9 26 10
f 26 27 10
f 10 27 11
f 27 28 11
f 11 28 12
f 28 29 12
f 12 29 13
f 29 30 13
f 13 30 14
f 30 31 14
f 14 31 15
f 31 32 15
f 15 32 16
f 32 33 16
f 16 33 17
f 33 34 17
f 51 52 35
f 52 53 36
f 53 54 37
f 54 55 38
f 55 56 39
f 56 57 40
f 57 58 41
f 58 59 42
f 59 60 43
f 60 61 44
f 61 62 45
f 62 63 46
f 63 64 47
f 64 65 48
f 65 66 49
f 66 67 50
f 85 84 68
f 86 85 69
f 87 86 70
f 88 87 71
f 89 88 72
f 90 89 73
f 91 90 74
f 92 91 75
f 93 92 76
f 94 93 77
f 95 94 78
f 96 95 79
f 97 96 80
f 98 97 81
f 99 98 82
f 100 99 83
