# spoke_front_1
v 1.0054656267166138 40.65666198730469 29.462739944458008
v 1.0815151929855347 40.67413330078125 29.461849212646484
v 1.1451548337936401 40.71879577636719 29.455129623413086
v 1.18669593334198 40.78384017944336 29.443603515625
v 1.1998142004013062 40.859371185302734 29.42902374267578
v 1.182512640953064 40.93389129638672 29.41361427307129
v 1.137425184249878 40.99604797363281 29.399717330932617
v 1.0714160203933716 41.03638458251953 29.389450073242188
v 0.9945343732833862 41.04875946044922 29.384376525878906
v 0.9184848070144653 41.03128433227539 29.38526725769043
v 0.8548452258110046 40.98662567138672 29.39198875427246
v 0.8133041262626648 40.92157745361328 29.403514862060547
v 0.8001857399940491 40.846046447753906 29.418092727661133
v 0.8174872994422913 40.77153015136719 29.433504104614258
v 0.8625747561454773 40.70936965942383 29.447399139404297
v 0.9285839796066284 40.669036865234375 29.457666397094727
v 1.0054656267166138 40.65666198730469 29.462739944458008
v 2.005465507507324 34.803951263427734 0.03918188810348511
v 2.081515073776245 34.82142639160156 0.038290925323963165
v 2.1451547145843506 34.866085052490234 0.03157047554850578
v 2.1866958141326904 34.931129455566406 0.020043659955263138
v 2.1998143196105957 35.00666427612305 0.00546534126624465
v 2.1825127601623535 35.081180572509766 -0.009945067577064037
v 2.137425184249878 35.14333724975586 -0.02384147420525551
v 2.071416139602661 35.18367385864258 -0.03410826995968819
v 1.9945343732833862 35.196048736572266 -0.03918243572115898
v 1.9184848070144653 35.17857360839844 -0.03829146921634674
v 1.8548451662063599 35.133914947509766 -0.03157101944088936
v 1.81330406665802 35.06886672973633 -0.02004420757293701
v 1.8001857995986938 34.99333572387695 -0.0054658884182572365
v 1.817487359046936 34.918819427490234 0.009944520890712738
v 1.862574815750122 34.85666275024414 0.023840926587581635
v 1.9285839796066284 34.81632614135742 0.03410772234201431
v 2.005465507507324 34.803951263427734 0.03918188810348511
v 1 40.85271072387695 29.423559188842773
v 1 40.85271072387695 29.423559188842773
v 1 40.85271072387695 29.423559188842773
v 1 40.85271072387695 29.423559188842773
v 1 40.85271072387695 29.423559188842773
v 1 40.85271072387695 29.423559188842773
v 1 40.85271072387695 29.423559188842773
v 1 40.85271072387695 29.423559188842773
v 1 40.85271072387695 29.423559188842773
v 1 40.85271072387695 29.423559188842773
v 1 40.85271072387695 29.423559188842773
v 1 40.85271072387695 29.423559188842773
v 1 40.85271072387695 29.423559188842773
v 1 40.85271072387695 29.423559188842773
v 1 40.85271072387695 29.423559188842773
v 1 40.85271072387695 29.423559188842773
v 1.0054656267166138 40.65666198730469 29.462739944458008
v 1.0815151929855347 40.67413330078125 29.461849212646484
v 1.1451548337936401 40.71879577636719 29.455129623413086
v 1.18669593334198 40.78384017944336 29.443603515625
v 1.1998142004013062 40.859371185302734 29.42902374267578
v 1.182512640953064 40.93389129638672 29.41361427307129
v 1.137425184249878 40.99604797363281 29.399717330932617
v 1.0714160203933716 41.03638458251953 29.389450073242188
v 0.9945343732833862 41.04875946044922 29.384376525878906
v 0.9184848070144653 41.03128433227539 29.38526725769043
v 0.8548452258110046 40.98662567138672 29.39198875427246
v 0.8133041262626648 40.92157745361328 29.403514862060547
v 0.8001857399940491 40.846046447753906 29.418092727661133
v 0.8174872994422913 40.77153015136719 29.433504104614258
v 0.8625747561454773 40.70936965942383 29.447399139404297
v 0.9285839796066284 40.669036865234375 29.457666397094727
v 1.0054656267166138 40.65666198730469 29.462739944458008
v 2 35 -2.735112047957955e-7
v 2 35 -2.735112047957955e-7
v 2 35 -2.735112047957955e-7
v 2 35 -2.735112047957955e-7
v 2 35 -2.735112047957955e-7
v 2 35 -2.735112047957955e-7
v 2 35 -2.735112047957955e-7
v 2 35 -2.735112047957955e-7
v 2 35 -2.735112047957955e-7
v 2 35 -2.735112047957955e-7
v 2 35 -2.735112047957955e-7
v 2 35 -2.735112047957955e-7
v 2 35 -2.735112047957955e-7
v 2 35 -2.735112047957955e-7
v 2 35 -2.735112047957955e-7
v 2 35 -2.735112047957955e-7
v 2.005465507507324 34.803951263427734 0.03918188810348511
v 2.081515073776245 34.82142639160156 0.038290925323963165
v 2.1451547145843506 34.866085052490234 0.03157047554850578
v 2.1866958141326904 34.931129455566406 0.020043659955263138
v 2.1998143196105957 35.00666427612305 0.00546534126624465
v 2.1825127601623535 35.081180572509766 -0.009945067577064037
v 2.137425184249878 35.14333724975586 -0.02384147420525551
v 2.071416139602661 35.18367385864258 -0.03410826995968819
v 1.9945343732833862 35.196048736572266 -0.03918243572115898
v 1.9184848070144653 35.17857360839844 -0.03829146921634674
v 1.8548451662063599 35.133914947509766 -0.03157101944088936
v 1.81330406665802 35.06886672973633 -0.02004420757293701
v 1.8001857995986938 34.99333572387695 -0.0054658884182572365
v 1.817487359046936 34.918819427490234 0.009944520890712738
v 1.862574815750122 34.85666275024414 0.023840926587581635
v 1.9285839796066284 34.81632614135742 0.03410772234201431
v 2.005465507507324 34.803951263427734 0.03918188810348511
f 1 18 2
f 18 19 2
f 2 19 3
f 19 20 3
f 3 20 4
f 20 21 4
f 4 21 5
f 21 22 5
f 5 22 6
f 22 23 6
f 6 23 7
f 23 24 7
f 7 24 8
f 24 25 8
f 8 25 9
f 25 26 9
f 9 26 10
f 26 27 10
f 10 27 11
f 27 28 11
f 11 28 12
f 28 29 12
f 12 29 13
f 29 30 13
f 13 30 14
f 30 31 14
f 14 31 15
f 31 32 15
f 15 32 16
f 32 33 16
f 16 33 17
f 33 34 17
f 51 52 35
f 52 53 36
f 53 54 37
f 54 55 38
f 55 56 39
f 56 57 40
f 57 58 41
f 58 59 42
f 59 60 43
f 60 61 44
f 61 62 45
f 62 63 46
f 63 64 47
f 64 65 48
f 65 66 49
f 66 67 50
f 85 84 68
f 86 85 69
f 87 86 70
f 88 87 71
f 89 88 72
f 90 89 73
f 91 90 74
f 92 91 75
f 93 92 76
f 94 93 77
f 95 94 78
f 96 95 79
f 97 96 80
f 98 97 81
f 99 98 82
f 100 99 83
