# spoke_front_27
v 1.0218926668167114 9.944859504699707 16.50221824645996
v 1.0962601900100708 9.955862045288086 16.523147583007812
v 1.1559730768203735 9.982096672058105 16.565994262695312
v 1.1919403076171875 10.019569396972656 16.62423324584961
v 1.1986864805221558 10.06257438659668 16.68899917602539
v 1.1751843690872192 10.104564666748047 16.75043296813965
v 1.1250120401382446 10.139148712158203 16.79918098449707
v 1.0558078289031982 10.161060333251953 16.827821731567383
v 0.9781072735786438 10.166963577270508 16.831995010375977
v 0.9037397503852844 10.155961036682129 16.811065673828125
v 0.8440269231796265 10.129725456237793 16.768220901489258
v 0.8080596327781677 10.092253684997559 16.709980010986328
v 0.8013135194778442 10.049248695373535 16.645214080810547
v 0.8248156309127808 10.007257461547852 16.58378028869629
v 0.8749879002571106 9.972674369812012 16.535032272338867
v 0.9441921710968018 9.950762748718262 16.506391525268555
v 1.0218926668167114 9.944859504699707 16.50221824645996
v 2.021892786026001 34.888946533203125 -0.16488824784755707
v 2.0962603092193604 34.89995193481445 -0.1439589112997055
v 2.155972957611084 34.926185607910156 -0.10111316293478012
v 2.1919403076171875 34.96365737915039 -0.042873870581388474
v 2.1986865997314453 35.00666427612305 0.021892551332712173
v 2.175184488296509 35.04865264892578 0.08332600444555283
v 2.125012159347534 35.08323669433594 0.13207381963729858
v 2.0558078289031982 35.10514831542969 0.1607145518064499
v 1.9781073331832886 35.111053466796875 0.164887934923172
v 1.9037398099899292 35.10004806518555 0.14395859837532043
v 1.8440269231796265 35.073814392089844 0.10111285001039505
v 1.8080596923828125 35.03634262084961 0.0428735576570034
v 1.8013135194778442 34.99333572387695 -0.021892862394452095
v 1.8248156309127808 34.95134735107422 -0.0833263173699379
v 1.8749879598617554 34.91676330566406 -0.13207413256168365
v 1.9441921710968018 34.89485168457031 -0.16071484982967377
v 2.021892786026001 34.888946533203125 -0.16488824784755707
v 1 10.05591106414795 16.66710662841797
v 1 10.05591106414795 16.66710662841797
v 1 10.05591106414795 16.66710662841797
v 1 10.05591106414795 16.66710662841797
v 1 10.05591106414795 16.66710662841797
v 1 10.05591106414795 16.66710662841797
v 1 10.05591106414795 16.66710662841797
v 1 10.05591106414795 16.66710662841797
v 1 10.05591106414795 16.66710662841797
v 1 10.05591106414795 16.66710662841797
v 1 10.05591106414795 16.66710662841797
v 1 10.05591106414795 16.66710662841797
v 1 10.05591106414795 16.66710662841797
v 1 10.05591106414795 16.66710662841797
v 1 10.05591106414795 16.66710662841797
v 1 10.05591106414795 16.66710662841797
v 1.0218926668167114 9.944859504699707 16.50221824645996
v 1.0962601900100708 9.955862045288086 16.523147583007812
v 1.1559730768203735 9.982096672058105 16.565994262695312
v 1.1919403076171875 10.019569396972656 16.62423324584961
v 1.1986864805221558 10.06257438659668 16.68899917602539
v 1.1751843690872192 10.104564666748047 16.75043296813965
v 1.1250120401382446 10.139148712158203 16.79918098449707
v 1.0558078289031982 10.161060333251953 16.827821731567383
v 0.9781072735786438 10.166963577270508 16.831995010375977
v 0.9037397503852844 10.155961036682129 16.811065673828125
v 0.8440269231796265 10.129725456237793 16.768220901489258
v 0.8080596327781677 10.092253684997559 16.709980010986328
v 0.8013135194778442 10.049248695373535 16.645214080810547
v 0.8248156309127808 10.007257461547852 16.58378028869629
v 0.8749879002571106 9.972674369812012 16.535032272338867
v 0.9441921710968018 9.950762748718262 16.506391525268555
v 1.0218926668167114 9.944859504699707 16.50221824645996
v 2 35 -1.54931640850009e-7
v 2 35 -1.54931640850009e-7
v 2 35 -1.54931640850009e-7
v 2 35 -1.54931640850009e-7
v 2 35 -1.54931640850009e-7
v 2 35 -1.54931640850009e-7
v 2 35 -1.54931640850009e-7
v 2 35 -1.54931640850009e-7
v 2 35 -1.54931640850009e-7
v 2 35 -1.54931640850009e-7
v 2 35 -1.54931640850009e-7
v 2 35 -1.54931640850009e-7
v 2 35 -1.54931640850009e-7
v 2 35 -1.54931640850009e-7
v 2 35 -1.54931640850009e-7
v 2 35 -1.54931640850009e-7
v 2.021892786026001 34.888946533203125 -0.16488824784755707
v 2.0962603092193604 34.89995193481445 -0.1439589112997055
v 2.155972957611084 34.926185607910156 -0.10111316293478012
v 2.1919403076171875 34.96365737915039 -0.042873870581388474
v 2.1986865997314453 35.00666427612305 0.021892551332712173
v 2.175184488296509 35.04865264892578 0.08332600444555283
v 2.125012159347534 35.08323669433594 0.13207381963729858
v 2.0558078289031982 35.10514831542969 0.1607145518064499
v 1.9781073331832886 35.111053466796875 0.164887934923172
v 1.9037398099899292 35.10004806518555 0.14395859837532043
v 1.8440269231796265 35.073814392089844 0.10111285001039505
v 1.8080596923828125 35.03634262084961 0.0428735576570034
v 1.8013135194778442 34.99333572387695 -0.021892862394452095
v 1.8248156309127808 34.95134735107422 -0.0833263173699379
v 1.8749879598617554 34.91676330566406 -0.13207413256168365
v 1.9441921710968018 34.89485168457031 -0.16071484982967377
v 2.021892786026001 34.888946533203125 -0.16488824784755707
f 1 18 2
f 18 19 2
f 2 19 3
f 19 20 3
f 3 20 4
f 20 21 4
f 4 21 5
f 21 22 5
f 5 22 6
f 22 23 6
f 6 23 7
f 23 24 7
f 7 24 8
f 24 25 8
f 8 25 9
f 25 26 9
f 9 26 10
f 26 27 10
f 10 27 11
f 27 28 11
f 11 28 12
f 28 29 12
f 12 29 13
f 29 30 13
f 13 30 14
f 30 31 14
f 14 31 15
f 31 32 15
f 15 32 16
f 32 33 16
f 16 33 17
f 33 34 17
f 51 52 35
f 52 53 36
f 53 54 37
f 54 55 38
f 55 56 39
f 56 57 40
f 57 58 41
f 58 59 42
f 59 60 43
f 60 61 44
f 61 62 45
f 62 63 46
f 63 64 47
f 64 65 48
f 65 66 49
f 66 67 50
f 85 84 68
f 86 85 69
f 87 86 70
f 88 87 71
f 89 88 72
f 90 89 73
f 91 90 74
f 92 91 75
f 93 92 76
f 94 93 77
f 95 94 78
f 96 95 79
f 97 96 80
f 98 97 81
f 99 98 82
f 100 99 83
