# spoke_back_9
v -0.9993439316749573 64.46255493164062 -5.656549453735352
v -0.9229000806808472 64.45703887939453 -5.671230316162109
v -0.8581939935684204 64.44641876220703 -5.7135396003723145
v -0.8150765895843506 64.43232727050781 -5.777036190032959
v -0.8001120686531067 64.4168930053711 -5.852053642272949
v -0.8155786991119385 64.40248107910156 -5.927170753479004
v -0.8591217994689941 64.39127349853516 -5.990952014923096
v -0.9241123199462891 64.38497924804688 -6.033687114715576
v -1.000656008720398 64.38455963134766 -6.048870086669922
v -1.0770999193191528 64.39008331298828 -6.034189224243164
v -1.1418060064315796 64.40069580078125 -5.991879940032959
v -1.1849234104156494 64.414794921875 -5.9283833503723145
v -1.1998878717422485 64.43022155761719 -5.853365898132324
v -1.1844213008880615 64.44464111328125 -5.7782487869262695
v -1.1408782005310059 64.45584106445312 -5.714467525482178
v -1.075887680053711 64.4621353149414 -5.671732425689697
v -0.9993439316749573 64.46255493164062 -5.656549453735352
v -1.999343991279602 35.038997650146484 0.19616031646728516
v -1.9229000806808472 35.033477783203125 0.1814795732498169
v -1.8581939935684204 35.02286148071289 0.13917021453380585
v -1.8150765895843506 35.008766174316406 0.07567346096038818
v -1.8001121282577515 34.99333572387695 0.0006561153568327427
v -1.8155786991119385 34.978919982910156 -0.07446110993623734
v -1.8591217994689941 34.96771240234375 -0.13824230432510376
v -1.924112319946289 34.961421966552734 -0.18097732961177826
v -2.0006561279296875 34.961002349853516 -0.1961602121591568
v -2.0770998001098633 34.966522216796875 -0.18147945404052734
v -2.141806125640869 34.977134704589844 -0.1391701102256775
v -2.1849234104156494 34.991233825683594 -0.07567334920167923
v -2.199887990951538 35.00666427612305 -0.0006560065085068345
v -2.1844213008880615 35.021080017089844 0.07446121424436569
v -2.140878200531006 35.03228759765625 0.13824240863323212
v -2.075887680053711 35.038578033447266 0.1809774488210678
v -1.999343991279602 35.038997650146484 0.19616031646728516
v -1 64.4235610961914 -5.852709770202637
v -1 64.4235610961914 -5.852709770202637
v -1 64.4235610961914 -5.852709770202637
v -1 64.4235610961914 -5.852709770202637
v -1 64.4235610961914 -5.852709770202637
v -1 64.4235610961914 -5.852709770202637
v -1 64.4235610961914 -5.852709770202637
v -1 64.4235610961914 -5.852709770202637
v -1 64.4235610961914 -5.852709770202637
v -1 64.4235610961914 -5.852709770202637
v -1 64.4235610961914 -5.852709770202637
v -1 64.4235610961914 -5.852709770202637
v -1 64.4235610961914 -5.852709770202637
v -1 64.4235610961914 -5.852709770202637
v -1 64.4235610961914 -5.852709770202637
v -1 64.4235610961914 -5.852709770202637
v -0.9993439316749573 64.46255493164062 -5.656549453735352
v -0.9229000806808472 64.45703887939453 -5.671230316162109
v -0.8581939935684204 64.44641876220703 -5.7135396003723145
v -0.8150765895843506 64.43232727050781 -5.777036190032959
v -0.8001120686531067 64.4168930053711 -5.852053642272949
v -0.8155786991119385 64.40248107910156 -5.927170753479004
v -0.8591217994689941 64.39127349853516 -5.990952014923096
v -0.9241123199462891 64.38497924804688 -6.033687114715576
v -1.000656008720398 64.38455963134766 -6.048870086669922
v -1.0770999193191528 64.39008331298828 -6.034189224243164
v -1.1418060064315796 64.40069580078125 -5.991879940032959
v -1.1849234104156494 64.414794921875 -5.9283833503723145
v -1.1998878717422485 64.43022155761719 -5.853365898132324
v -1.1844213008880615 64.44464111328125 -5.7782487869262695
v -1.1408782005310059 64.45584106445312 -5.714467525482178
v -1.075887680053711 64.4621353149414 -5.671732425689697
v -0.9993439316749573 64.46255493164062 -5.656549453735352
v -2 35 5.4404761584692096e-8
v -2 35 5.4404761584692096e-8
v -2 35 5.4404761584692096e-8
v -2 35 5.4404761584692096e-8
v -2 35 5.4404761584692096e-8
v -2 35 5.4404761584692096e-8
v -2 35 5.4404761584692096e-8
v -2 35 5.4404761584692096e-8
v -2 35 5.4404761584692096e-8
v -2 35 5.4404761584692096e-8
v -2 35 5.4404761584692096e-8
v -2 35 5.4404761584692096e-8
v -2 35 5.4404761584692096e-8
v -2 35 5.4404761584692096e-8
v -2 35 5.4404761584692096e-8
v -2 35 5.4404761584692096e-8
v -1.999343991279602 35.038997650146484 0.19616031646728516
v -1.9229000806808472 35.033477783203125 0.1814795732498169
v -1.8581939935684204 35.02286148071289 0.13917021453380585
v -1.8150765895843506 35.008766174316406 0.07567346096038818
v -1.8001121282577515 34.99333572387695 0.0006561153568327427
v -1.8155786991119385 34.978919982910156 -0.07446110993623734
v -1.8591217994689941 34.96771240234375 -0.13824230432510376
v -1.924112319946289 34.961421966552734 -0.18097732961177826
v -2.0006561279296875 34.961002349853516 -0.1961602121591568
v -2.0770998001098633 34.966522216796875 -0.18147945404052734
v -2.141806125640869 34.977134704589844 -0.1391701102256775
v -2.1849234104156494 34.991233825683594 -0.07567334920167923
v -2.199887990951538 35.00666427612305 -0.0006560065085068345
v -2.1844213008880615 35.021080017089844 0.07446121424436569
v -2.140878200531006 35.03228759765625 0.13824240863323212
v -2.075887680053711 35.038578033447266 0.1809774488210678
v -1.999343991279602 35.038997650146484 0.19616031646728516
f 1 18 2
f 18 19 2
f 2 19 3
f 19 20 3
f 3 20 4
f 20 21 4
f 4 21 5
f 21 22 5
f 5 22 6
f 22 23 6
f 6 23 7
f 23 24 7
f 7 24 8
f 24 25 8
f 8 25 9
f 25 26 9
f 9 26 10
f 26 27 10
f 10 27 11
f 27 28 11
f 11 28 12
f 28 29 12
f 12 29 13
f 29 30 13
f 13 30 14
f 30 31 14
f 14 31 15
f 31 32 15
f 15 32 16
f 32 33 16
f 16 33 17
f 33 34 17
f 51 52 35
f 52 53 36
f 53 54 37
f 54 55 38
f 55 56 39
f 56 57 40
f 57 58 41
f 58 59 42
f 59 60 43
f 60 61 44
f 61 62 45
f 62 63 46
f 63 64 47
f 64 65 48
f 65 66 49
f 66 67 50
f 85 84 68
f 86 85 69
f 87 86 70
f 88 87 71
f 89 88 72
f 90 89 73
f 91 90 74
f 92 91 75
f 93 92 76
f 94 93 77
f 95 94 78
f 96 95 79
f 97 96 80
f 98 97 81
f 99 98 82
f 100 99 83
