# spoke_front_25
v 1.0657497644424438 5.537445068359375 5.667895793914795
v 1.1329823732376099 5.542963027954102 5.707125186920166
v 1.1799697875976562 5.553577899932861 5.768518447875977
v 1.1995582580566406 5.567673683166504 5.842729091644287
v 1.1887658834457397 5.583104133605957 5.918459415435791
v 1.1492356061935425 5.597520351409912 5.984179973602295
v 1.0869855880737305 5.60872745513916 6.029885292053223
v 1.0114927291870117 5.61501932144165 6.048616886138916
v 0.9342502355575562 5.6154375076293945 6.0375237464904785
v 0.8670175671577454 5.609919548034668 5.998294353485107
v 0.8200302124023438 5.599304676055908 5.936901092529297
v 0.8004416823387146 5.585208892822266 5.862689971923828
v 0.8112340569496155 5.5697784423828125 5.786960124969482
v 0.8507643342018127 5.555362224578857 5.7212395668029785
v 0.9130144119262695 5.544155120849609 5.675534248352051
v 0.9885072112083435 5.537863731384277 5.656802654266357
v 1.0657497644424438 5.537445068359375 5.667895793914795
v 2.0657496452331543 34.961002349853516 -0.18481415510177612
v 2.1329824924468994 34.966522216796875 -0.14558468759059906
v 2.1799697875976562 34.97713851928711 -0.08419127762317657
v 2.1995582580566406 34.991233825683594 -0.009980516508221626
v 2.1887660026550293 35.00666427612305 0.06574968248605728
v 2.149235725402832 35.021080017089844 0.13147006928920746
v 2.0869855880737305 35.03228759765625 0.1771753430366516
v 2.0114927291870117 35.038578033447266 0.19590725004673004
v 1.9342502355575562 35.038997650146484 0.18481405079364777
v 1.8670176267623901 35.033477783203125 0.1455845832824707
v 1.8200302124023438 35.022865295410156 0.08419117331504822
v 1.8004417419433594 35.008766174316406 0.009980407543480396
v 1.8112341165542603 34.99333572387695 -0.06574978679418564
v 1.8507643938064575 34.978919982910156 -0.131470188498497
v 1.9130144119262695 34.96771240234375 -0.17717544734477997
v 1.9885072708129883 34.961421966552734 -0.1959073543548584
v 2.0657496452331543 34.961002349853516 -0.18481415510177612
v 1 5.576441287994385 5.852709770202637
v 1 5.576441287994385 5.852709770202637
v 1 5.576441287994385 5.852709770202637
v 1 5.576441287994385 5.852709770202637
v 1 5.576441287994385 5.852709770202637
v 1 5.576441287994385 5.852709770202637
v 1 5.576441287994385 5.852709770202637
v 1 5.576441287994385 5.852709770202637
v 1 5.576441287994385 5.852709770202637
v 1 5.576441287994385 5.852709770202637
v 1 5.576441287994385 5.852709770202637
v 1 5.576441287994385 5.852709770202637
v 1 5.576441287994385 5.852709770202637
v 1 5.576441287994385 5.852709770202637
v 1 5.576441287994385 5.852709770202637
v 1 5.576441287994385 5.852709770202637
v 1.0657497644424438 5.537445068359375 5.667895793914795
v 1.1329823732376099 5.542963027954102 5.707125186920166
v 1.1799697875976562 5.553577899932861 5.768518447875977
v 1.1995582580566406 5.567673683166504 5.842729091644287
v 1.1887658834457397 5.583104133605957 5.918459415435791
v 1.1492356061935425 5.597520351409912 5.984179973602295
v 1.0869855880737305 5.60872745513916 6.029885292053223
v 1.0114927291870117 5.61501932144165 6.048616886138916
v 0.9342502355575562 5.6154375076293945 6.0375237464904785
v 0.8670175671577454 5.609919548034668 5.998294353485107
v 0.8200302124023438 5.599304676055908 5.936901092529297
v 0.8004416823387146 5.585208892822266 5.862689971923828
v 0.8112340569496155 5.5697784423828125 5.786960124969482
v 0.8507643342018127 5.555362224578857 5.7212395668029785
v 0.9130144119262695 5.544155120849609 5.675534248352051
v 0.9885072112083435 5.537863731384277 5.656802654266357
v 1.0657497644424438 5.537445068359375 5.667895793914795
v 2 35 -5.44047438211237e-8
v 2 35 -5.44047438211237e-8
v 2 35 -5.44047438211237e-8
v 2 35 -5.44047438211237e-8
v 2 35 -5.44047438211237e-8
v 2 35 -5.44047438211237e-8
v 2 35 -5.44047438211237e-8
v 2 35 -5.44047438211237e-8
v 2 35 -5.44047438211237e-8
v 2 35 -5.44047438211237e-8
v 2 35 -5.44047438211237e-8
v 2 35 -5.44047438211237e-8
v 2 35 -5.44047438211237e-8
v 2 35 -5.44047438211237e-8
v 2 35 -5.44047438211237e-8
v 2 35 -5.44047438211237e-8
v 2.0657496452331543 34.961002349853516 -0.18481415510177612
v 2.1329824924468994 34.966522216796875 -0.14558468759059906
v 2.1799697875976562 34.97713851928711 -0.08419127762317657
v 2.1995582580566406 34.991233825683594 -0.009980516508221626
v 2.1887660026550293 35.00666427612305 0.06574968248605728
v 2.149235725402832 35.021080017089844 0.13147006928920746
v 2.0869855880737305 35.03228759765625 0.1771753430366516
v 2.0114927291870117 35.038578033447266 0.19590725004673004
v 1.9342502355575562 35.038997650146484 0.18481405079364777
v 1.8670176267623901 35.033477783203125 0.1455845832824707
v 1.8200302124023438 35.022865295410156 0.08419117331504822
v 1.8004417419433594 35.008766174316406 0.009980407543480396
v 1.8112341165542603 34.99333572387695 -0.06574978679418564
v 1.8507643938064575 34.978919982910156 -0.131470188498497
v 1.9130144119262695 34.96771240234375 -0.17717544734477997
v 1.9885072708129883 34.961421966552734 -0.1959073543548584
v 2.0657496452331543 34.961002349853516 -0.18481415510177612
f 1 18 2
f 18 19 2
f 2 19 3
f 19 20 3
f 3 20 4
f 20 21 4
f 4 21 5
f 21 22 5
f 5 22 6
f 22 23 6
f 6 23 7
f 23 24 7
f 7 24 8
f 24 25 8
f 8 25 9
f 25 26 9
f 9 26 10
f 26 27 10
f 10 27 11
f 27 28 11
f 11 28 12
f 28 29 12
f 12 29 13
f 29 30 13
f 13 30 14
f 30 31 14
f 14 31 15
f 31 32 15
f 15 32 16
f 32 33 16
f 16 33 17
f 33 34 17
f 51 52 35
f 52 53 36
f 53 54 37
f 54 55 38
f 55 56 39
f 56 57 40
f 57 58 41
f 58 59 42
f 59 60 43
f 60 61 44
f 61 62 45
f 62 63 46
f 63 64 47
f 64 65 48
f 65 66 49
f 66 67 50
f 85 84 68
f 86 85 69
f 87 86 70
f 88 87 71
f 89 88 72
f 90 89 73
f 91 90 74
f 92 91 75
f 93 92 76
f 94 93 77
f 95 94 78
f 96 95 79
f 97 96 80
f 98 97 81
f 99 98 82
f 100 99 83
