# spoke_front_0
v 1.0066592693328857 34.80010986328125 30.00022315979004
v 1.0826040506362915 34.817874908447266 30.00275421142578
v 1.1459732055664062 34.86336898803711 30.004865646362305
v 1.1871192455291748 34.92966079711914 30.006237030029297
v 1.1997779607772827 35.00666427612305 30.00666046142578
v 1.1820224523544312 35.08264923095703 30.006067276000977
v 1.136555552482605 35.146053314208984 30.004552841186523
v 1.0702993869781494 35.18722152709961 30.002344131469727
v 0.9933407306671143 35.19989013671875 29.999778747558594
v 0.9173958897590637 35.182125091552734 29.99724769592285
v 0.8540267944335938 35.13663101196289 29.995134353637695
v 0.8128807544708252 35.07033920288086 29.993762969970703
v 0.8002219796180725 34.99333572387695 29.99334144592285
v 0.8179775476455688 34.91735076904297 29.993932723999023
v 0.8634443879127502 34.853946685791016 29.99544906616211
v 0.9297006130218506 34.81277847290039 29.997657775878906
v 1.0066592693328857 34.80010986328125 30.00022315979004
v 2.0066592693328857 34.80010986328125 0.00022169671137817204
v 2.082604169845581 34.817874908447266 0.0027531911619007587
v 2.1459732055664062 34.86336898803711 0.0048654950223863125
v 2.187119245529175 34.92966079711914 0.006237028166651726
v 2.1997780799865723 35.00666427612305 0.006658988539129496
v 2.1820223331451416 35.08264923095703 0.0060671353712677956
v 2.1365556716918945 35.146053314208984 0.004551574122160673
v 2.0702993869781494 35.18722152709961 0.0023430336732417345
v 1.9933407306671143 35.19989013671875 -0.00022225445718504488
v 1.9173959493637085 35.182125091552734 -0.0027537487912923098
v 1.8540267944335938 35.13663101196289 -0.004866052884608507
v 1.8128807544708252 35.07033920288086 -0.0062375860288739204
v 1.8002220392227173 34.99333572387695 -0.00665954640135169
v 1.8179775476455688 34.91735076904297 -0.00606769323348999
v 1.863444447517395 34.853946685791016 -0.004552131984382868
v 1.9297006130218506 34.81277847290039 -0.002343591535463929
v 2.0066592693328857 34.80010986328125 0.00022169671137817204
v 1 35 30
v 1 35 30
v 1 35 30
v 1 35 30
v 1 35 30
v 1 35 30
v 1 35 30
v 1 35 30
v 1 35 30
v 1 35 30
v 1 35 30
v 1 35 30
v 1 35 30
v 1 35 30
v 1 35 30
v 1 35 30
v 1.0066592693328857 34.80010986328125 30.00022315979004
v 1.0826040506362915 34.817874908447266 30.00275421142578
v 1.1459732055664062 34.86336898803711 30.004865646362305
v 1.1871192455291748 34.92966079711914 30.006237030029297
v 1.1997779607772827 35.00666427612305 30.00666046142578
v 1.1820224523544312 35.08264923095703 30.006067276000977
v 1.136555552482605 35.146053314208984 30.004552841186523
v 1.0702993869781494 35.18722152709961 30.002344131469727
v 0.9933407306671143 35.19989013671875 29.999778747558594
v 0.9173958897590637 35.182125091552734 29.99724769592285
v 0.8540267944335938 35.13663101196289 29.995134353637695
v 0.8128807544708252 35.07033920288086 29.993762969970703
v 0.8002219796180725 34.99333572387695 29.99334144592285
v 0.8179775476455688 34.91735076904297 29.993932723999023
v 0.8634443879127502 34.853946685791016 29.99544906616211
v 0.9297006130218506 34.81277847290039 29.997657775878906
v 1.0066592693328857 34.80010986328125 30.00022315979004
v 2 35 -2.788696065181284e-7
v 2 35 -2.788696065181284e-7
v 2 35 -2.788696065181284e-7
v 2 35 -2.788696065181284e-7
v 2 35 -2.788696065181284e-7
v 2 35 -2.788696065181284e-7
v 2 35 -2.788696065181284e-7
v 2 35 -2.788696065181284e-7
v 2 35 -2.788696065181284e-7
v 2 35 -2.788696065181284e-7
v 2 35 -2.788696065181284e-7
v 2 35 -2.788696065181284e-7
v 2 35 -2.788696065181284e-7
v 2 35 -2.788696065181284e-7
v 2 35 -2.788696065181284e-7
v 2 35 -2.788696065181284e-7
v 2.0066592693328857 34.80010986328125 0.00022169671137817204
v 2.082604169845581 34.817874908447266 0.0027531911619007587
v 2.1459732055664062 34.86336898803711 0.0048654950223863125
v 2.187119245529175 34.92966079711914 0.006237028166651726
v 2.1997780799865723 35.00666427612305 0.006658988539129496
v 2.1820223331451416 35.08264923095703 0.0060671353712677956
v 2.1365556716918945 35.146053314208984 0.004551574122160673
v 2.0702993869781494 35.18722152709961 0.0023430336732417345
v 1.9933407306671143 35.19989013671875 -0.00022225445718504488
v 1.9173959493637085 35.182125091552734 -0.0027537487912923098
v 1.8540267944335938 35.13663101196289 -0.004866052884608507
v 1.8128807544708252 35.07033920288086 -0.0062375860288739204
v 1.8002220392227173 34.99333572387695 -0.00665954640135169
v 1.8179775476455688 34.91735076904297 -0.00606769323348999
v 1.863444447517395 34.853946685791016 -0.004552131984382868
v 1.9297006130218506 34.81277847290039 -0.002343591535463929
v 2.0066592693328857 34.80010986328125 0.00022169671137817204
f 1 18 2
f 18 19 2
f 2 19 3
f 19 20 3
f 3 20 4
f 20 21 4
f 4 21 5
f 21 22 5
f 5 22 6
f 22 23 6
f 6 23 7
f 23 24 7
f 7 24 8
f 24 25 8
f 8 25 9
f 25 26 9
f 9 26 10
f 26 27 10
f 10 27 11
f 27 28 11
f 11 28 12
f 28 29 12
f 12 29 13
f 29 30 13
f 13 30 14
f 30 31 14
f 14 31 15
f 31 32 15
f 15 32 16
f 32 33 16
f 16 33 17
f 33 34 17
f 51 52 35
f 52 53 36
f 53 54 37
f 54 55 38
f 55 56 39
f 56 57 40
f 57 58 41
f 58 59 42
f 59 60 43
f 60 61 44
f 61 62 45
f 62 63 46
f 63 64 47
f 64 65 48
f 65 66 49
f 66 67 50
f 85 84 68
f 86 85 69
f 87 86 70
f 88 87 71
f 89 88 72
f 90 89 73
f 91 90 74
f 92 91 75
f 93 92 76
f 94 93 77
f 95 94 78
f 96 95 79
f 97 96 80
f 98 97 81
f 99 98 82
f 100 99 83
