# spoke_front_19
v 0.9875500202178955 18.499094009399414 -25.054641723632812
v 1.0648434162139893 18.48899269104004 -25.05099105834961
v 1.1322649717330933 18.45512580871582 -25.031064987182617
v 1.1795504093170166 18.402650833129883 -24.99789810180664
v 1.1995009183883667 18.339555740356445 -24.956539154052734
v 1.1890791654586792 18.27544593811035 -24.913284301757812
v 1.1498719453811646 18.220081329345703 -24.874719619750977
v 1.0878479480743408 18.18189239501953 -24.846715927124023
v 1.0124499797821045 18.166690826416016 -24.83353614807129
v 0.9351565837860107 18.17679214477539 -24.837186813354492
v 0.8677350282669067 18.21065902709961 -24.857112884521484
v 0.8204495906829834 18.263134002685547 -24.89027976989746
v 0.8004990816116333 18.326229095458984 -24.931638717651367
v 0.8109208345413208 18.390338897705078 -24.97489356994629
v 0.8501281142234802 18.445703506469727 -25.013458251953125
v 0.9121520519256592 18.4838924407959 -25.041461944580078
v 0.9875500202178955 18.499094009399414 -25.054641723632812
v 1.9875500202178955 35.166202545166016 -0.11055302619934082
v 2.0648434162139893 35.15610122680664 -0.10690205544233322
v 2.132265090942383 35.12223434448242 -0.08697618544101715
v 2.1795504093170166 35.069759368896484 -0.053808942437171936
v 2.199500799179077 35.00666427612305 -0.012449742294847965
v 2.1890792846679688 34.94255447387695 0.03080485388636589
v 2.149871826171875 34.88718795776367 0.06936972588300705
v 2.087847948074341 34.8489990234375 0.09737371653318405
v 2.0124499797821045 34.833797454833984 0.11055348813533783
v 1.9351565837860107 34.84389877319336 0.10690251737833023
v 1.8677350282669067 34.87776565551758 0.08697665482759476
v 1.8204495906829834 34.930240631103516 0.053809404373168945
v 1.8004990816116333 34.99333572387695 0.012450206093490124
v 1.8109208345413208 35.05744552612305 -0.030804390087723732
v 1.8501280546188354 35.11281204223633 -0.06936926394701004
v 1.9121520519256592 35.1510009765625 -0.09737325459718704
v 1.9875500202178955 35.166202545166016 -0.11055302619934082
v 1 18.33289337158203 -24.944087982177734
v 1 18.33289337158203 -24.944087982177734
v 1 18.33289337158203 -24.944087982177734
v 1 18.33289337158203 -24.944087982177734
v 1 18.33289337158203 -24.944087982177734
v 1 18.33289337158203 -24.944087982177734
v 1 18.33289337158203 -24.944087982177734
v 1 18.33289337158203 -24.944087982177734
v 1 18.33289337158203 -24.944087982177734
v 1 18.33289337158203 -24.944087982177734
v 1 18.33289337158203 -24.944087982177734
v 1 18.33289337158203 -24.944087982177734
v 1 18.33289337158203 -24.944087982177734
v 1 18.33289337158203 -24.944087982177734
v 1 18.33289337158203 -24.944087982177734
v 1 18.33289337158203 -24.944087982177734
v 0.9875500202178955 18.499094009399414 -25.054641723632812
v 1.0648434162139893 18.48899269104004 -25.05099105834961
v 1.1322649717330933 18.45512580871582 -25.031064987182617
v 1.1795504093170166 18.402650833129883 -24.99789810180664
v 1.1995009183883667 18.339555740356445 -24.956539154052734
v 1.1890791654586792 18.27544593811035 -24.913284301757812
v 1.1498719453811646 18.220081329345703 -24.874719619750977
v 1.0878479480743408 18.18189239501953 -24.846715927124023
v 1.0124499797821045 18.166690826416016 -24.83353614807129
v 0.9351565837860107 18.17679214477539 -24.837186813354492
v 0.8677350282669067 18.21065902709961 -24.857112884521484
v 0.8204495906829834 18.263134002685547 -24.89027976989746
v 0.8004990816116333 18.326229095458984 -24.931638717651367
v 0.8109208345413208 18.390338897705078 -24.97489356994629
v 0.8501281142234802 18.445703506469727 -25.013458251953125
v 0.9121520519256592 18.4838924407959 -25.041461944580078
v 0.9875500202178955 18.499094009399414 -25.054641723632812
v 2 35 2.318715957017048e-7
v 2 35 2.318715957017048e-7
v 2 35 2.318715957017048e-7
v 2 35 2.318715957017048e-7
v 2 35 2.318715957017048e-7
v 2 35 2.318715957017048e-7
v 2 35 2.318715957017048e-7
v 2 35 2.318715957017048e-7
v 2 35 2.318715957017048e-7
v 2 35 2.318715957017048e-7
v 2 35 2.318715957017048e-7
v 2 35 2.318715957017048e-7
v 2 35 2.318715957017048e-7
v 2 35 2.318715957017048e-7
v 2 35 2.318715957017048e-7
v 2 35 2.318715957017048e-7
v 1.9875500202178955 35.166202545166016 -0.11055302619934082
v 2.0648434162139893 35.15610122680664 -0.10690205544233322
v 2.132265090942383 35.12223434448242 -0.08697618544101715
v 2.1795504093170166 35.069759368896484 -0.053808942437171936
v 2.199500799179077 35.00666427612305 -0.012449742294847965
v 2.1890792846679688 34.94255447387695 0.03080485388636589
v 2.149871826171875 34.88718795776367 0.06936972588300705
v 2.087847948074341 34.8489990234375 0.09737371653318405
v 2.0124499797821045 34.833797454833984 0.11055348813533783
v 1.9351565837860107 34.84389877319336 0.10690251737833023
v 1.8677350282669067 34.87776565551758 0.08697665482759476
v 1.8204495906829834 34.930240631103516 0.053809404373168945
v 1.8004990816116333 34.99333572387695 0.012450206093490124
v 1.8109208345413208 35.05744552612305 -0.030804390087723732
v 1.8501280546188354 35.11281204223633 -0.06936926394701004
v 1.9121520519256592 35.1510009765625 -0.09737325459718704
v 1.9875500202178955 35.166202545166016 -0.11055302619934082
f 1 18 2
f 18 19 2
f 2 19 3
f 19 20 3
f 3 20 4
f 20 21 4
f 4 21 5
f 21 22 5
f 5 22 6
f 22 23 6
f 6 23 7
f 23 24 7
f 7 24 8
f 24 25 8
f 8 25 9
f 25 26 9
f 9 26 10
f 26 27 10
f 10 27 11
f 27 28 11
f 11 28 12
f 28 29 12
f 12 29 13
f 29 30 13
f 13 30 14
f 30 31 14
f 14 31 15
f 31 32 15
f 15 32 16
f 32 33 16
f 16 33 17
f 33 34 17
f 51 52 35
f 52 53 36
f 53 54 37
f 54 55 38
f 55 56 39
f 56 57 40
f 57 58 41
f 58 59 42
f 59 60 43
f 60 61 44
f 61 62 45
f 62 63 46
f 63 64 47
f 64 65 48
f 65 66 49
f 66 67 50
f 85 84 68
f 86 85 69
f 87 86 70
f 88 87 71
f 89 88 72
f 90 89 73
f 91 90 74
f 92 91 75
f 93 92 76
f 94 93 77
f 95 94 78
f 96 95 79
f 97 96 80
f 98 97 81
f 99 98 82
f 100 99 83
