# spoke_front_28
v 1.0160553455352783 13.645453453063965 21.07261848449707
v 1.0910803079605103 13.658761978149414 21.08946418762207
v 1.1522390842437744 13.691563606262207 21.125146865844727
v 1.190220832824707 13.738862991333008 21.174236297607422
v 1.199243187904358 13.793458938598633 21.229259490966797
v 1.1779325008392334 13.847042083740234 21.281837463378906
v 1.129533290863037 13.891451835632324 21.323965072631836
v 1.0614137649536133 13.919929504394531 21.349231719970703
v 0.9839445948600769 13.928139686584473 21.353790283203125
v 0.9089196920394897 13.914830207824707 21.336944580078125
v 0.8477609157562256 13.88202953338623 21.301259994506836
v 0.8097792267799377 13.83473014831543 21.25217056274414
v 0.8007568717002869 13.780133247375488 21.197147369384766
v 0.8220674395561218 13.726551055908203 21.14457130432129
v 0.8704666495323181 13.682140350341797 21.102441787719727
v 0.9385861754417419 13.65366268157959 21.07717514038086
v 1.0160553455352783 13.645453453063965 21.07261848449707
v 2.0160553455352783 34.85865783691406 -0.14058619737625122
v 2.0910801887512207 34.87196731567383 -0.12374059110879898
v 2.1522390842437744 34.90476608276367 -0.08805664628744125
v 2.190220832824707 34.952064514160156 -0.03896689414978027
v 2.1992430686950684 35.00666427612305 0.016055181622505188
v 2.1779325008392334 35.060245513916016 0.06863296777009964
v 2.129533290863037 35.10465621948242 0.11076198518276215
v 2.0614137649536133 35.13313293457031 0.136028453707695
v 1.9839446544647217 35.14134216308594 0.140585795044899
v 1.9089196920394897 35.12803268432617 0.12374019622802734
v 1.8477609157562256 35.09523391723633 0.08805625140666962
v 1.809779167175293 35.047935485839844 0.038966499269008636
v 1.800756812095642 34.99333572387695 -0.016055574640631676
v 1.8220674991607666 34.939754486083984 -0.06863336265087128
v 1.870466709136963 34.89534378051758 -0.11076238006353378
v 1.9385862350463867 34.86686706542969 -0.13602884113788605
v 2.0160553455352783 34.85865783691406 -0.14058619737625122
v 1 13.786796569824219 21.21320343017578
v 1 13.786796569824219 21.21320343017578
v 1 13.786796569824219 21.21320343017578
v 1 13.786796569824219 21.21320343017578
v 1 13.786796569824219 21.21320343017578
v 1 13.786796569824219 21.21320343017578
v 1 13.786796569824219 21.21320343017578
v 1 13.786796569824219 21.21320343017578
v 1 13.786796569824219 21.21320343017578
v 1 13.786796569824219 21.21320343017578
v 1 13.786796569824219 21.21320343017578
v 1 13.786796569824219 21.21320343017578
v 1 13.786796569824219 21.21320343017578
v 1 13.786796569824219 21.21320343017578
v 1 13.786796569824219 21.21320343017578
v 1 13.786796569824219 21.21320343017578
v 1.0160553455352783 13.645453453063965 21.07261848449707
v 1.0910803079605103 13.658761978149414 21.08946418762207
v 1.1522390842437744 13.691563606262207 21.125146865844727
v 1.190220832824707 13.738862991333008 21.174236297607422
v 1.199243187904358 13.793458938598633 21.229259490966797
v 1.1779325008392334 13.847042083740234 21.281837463378906
v 1.129533290863037 13.891451835632324 21.323965072631836
v 1.0614137649536133 13.919929504394531 21.349231719970703
v 0.9839445948600769 13.928139686584473 21.353790283203125
v 0.9089196920394897 13.914830207824707 21.336944580078125
v 0.8477609157562256 13.88202953338623 21.301259994506836
v 0.8097792267799377 13.83473014831543 21.25217056274414
v 0.8007568717002869 13.780133247375488 21.197147369384766
v 0.8220674395561218 13.726551055908203 21.14457130432129
v 0.8704666495323181 13.682140350341797 21.102441787719727
v 0.9385861754417419 13.65366268157959 21.07717514038086
v 1.0160553455352783 13.645453453063965 21.07261848449707
v 2 35 -1.9719058741429762e-7
v 2 35 -1.9719058741429762e-7
v 2 35 -1.9719058741429762e-7
v 2 35 -1.9719058741429762e-7
v 2 35 -1.9719058741429762e-7
v 2 35 -1.9719058741429762e-7
v 2 35 -1.9719058741429762e-7
v 2 35 -1.9719058741429762e-7
v 2 35 -1.9719058741429762e-7
v 2 35 -1.9719058741429762e-7
v 2 35 -1.9719058741429762e-7
v 2 35 -1.9719058741429762e-7
v 2 35 -1.9719058741429762e-7
v 2 35 -1.9719058741429762e-7
v 2 35 -1.9719058741429762e-7
v 2 35 -1.9719058741429762e-7
v 2.0160553455352783 34.85865783691406 -0.14058619737625122
v 2.0910801887512207 34.87196731567383 -0.12374059110879898
v 2.1522390842437744 34.90476608276367 -0.08805664628744125
v 2.190220832824707 34.952064514160156 -0.03896689414978027
v 2.1992430686950684 35.00666427612305 0.016055181622505188
v 2.1779325008392334 35.060245513916016 0.06863296777009964
v 2.129533290863037 35.10465621948242 0.11076198518276215
v 2.0614137649536133 35.13313293457031 0.136028453707695
v 1.9839446544647217 35.14134216308594 0.140585795044899
v 1.9089196920394897 35.12803268432617 0.12374019622802734
v 1.8477609157562256 35.09523391723633 0.08805625140666962
v 1.809779167175293 35.047935485839844 0.038966499269008636
v 1.800756812095642 34.99333572387695 -0.016055574640631676
v 1.8220674991607666 34.939754486083984 -0.06863336265087128
v 1.870466709136963 34.89534378051758 -0.11076238006353378
v 1.9385862350463867 34.86686706542969 -0.13602884113788605
v 2.0160553455352783 34.85865783691406 -0.14058619737625122
f 1 18 2
f 18 19 2
f 2 19 3
f 19 20 3
f 3 20 4
f 20 21 4
f 4 21 5
f 21 22 5
f 5 22 6
f 22 23 6
f 6 23 7
f 23 24 7
f 7 24 8
f 24 25 8
f 8 25 9
f 25 26 9
f 9 26 10
f 26 27 10
f 10 27 11
f 27 28 11
f 11 28 12
f 28 29 12
f 12 29 13
f 29 30 13
f 13 30 14
f 30 31 14
f 14 31 15
f 31 32 15
f 15 32 16
f 32 33 16
f 16 33 17
f 33 34 17
f 51 52 35
f 52 53 36
f 53 54 37
f 54 55 38
f 55 56 39
f 56 57 40
f 57 58 41
f 58 59 42
f 59 60 43
f 60 61 44
f 61 62 45
f 62 63 46
f 63 64 47
f 64 65 48
f 65 66 49
f 66 67 50
f 85 84 68
f 86 85 69
f 87 86 70
f 88 87 71
f 89 88 72
f 90 89 73
f 91 90 74
f 92 91 75
f 93 92 76
f 94 93 77
f 95 94 78
f 96 95 79
f 97 96 80
f 98 97 81
f 99 98 82
f 100 99 83
