o spoke_front_22
v 0.9667456150054932 -27.639892578125 -11.662280082702637
v 1.0447051525115967 -27.643165588378906 -11.661169052124023
v 1.115858793258667 -27.65758514404297 -11.632553100585938
v 1.169373869895935 -27.680957794189453 -11.580788612365723
v 1.1971033811569214 -27.7097225189209 -11.513757705688477
v 1.1948256492614746 -27.739503860473633 -11.441662788391113
v 1.1628875732421875 -27.765764236450195 -11.375481605529785
v 1.1061512231826782 -27.784507751464844 -11.325288772583008
v 1.0332543849945068 -27.79288101196289 -11.298726081848145
v 0.9552947878837585 -27.789608001708984 -11.299837112426758
v 0.884141206741333 -27.77518653869629 -11.328453063964844
v 0.8306260704994202 -27.751815795898438 -11.380217552185059
v 0.8028965592384338 -27.72304916381836 -11.447248458862305
v 0.8051742911338806 -27.693269729614258 -11.519343376159668
v 0.8371124267578125 -27.667007446289062 -11.585524559020996
v 0.8938487768173218 -27.648263931274414 -11.635717391967773
v 0.9667456150054932 -27.639892578125 -11.662280082702637
v 1.9667456150054932 0.07649446278810501 -0.18177664279937744
v 2.0447051525115967 0.07322148978710175 -0.18066559731960297
v 2.115858793258667 0.058801256120204926 -0.15204985439777374
v 2.1693739891052246 0.03542909771203995 -0.1002858579158783
v 2.197103500366211 0.0066632237285375595 -0.03325425088405609
v 2.1948256492614746 -0.023117028176784515 0.03884003311395645
v 2.1628875732421875 -0.04937788471579552 0.10502129793167114
v 2.1061513423919678 -0.06812135875225067 0.15521402657032013
v 2.033254384994507 -0.07649394869804382 0.18177685141563416
v 1.9552948474884033 -0.07322097569704056 0.18066580593585968
v 1.884141206741333 -0.05880074203014374 0.15205006301403046
v 1.830626130104065 -0.03542858362197876 0.1002860739827156
v 1.8028966188430786 -0.006662708707153797 0.033254463225603104
v 1.8051743507385254 0.023117542266845703 -0.03883982077240944
v 1.8371124267578125 0.049378398805856705 -0.10502108186483383
v 1.8938487768173218 0.06812188029289246 -0.15521381795406342
v 1.9667456150054932 0.07649446278810501 -0.18177664279937744
v 1 -27.716386795043945 -11.48050308227539
v 1 -27.716386795043945 -11.48050308227539
v 1 -27.716386795043945 -11.48050308227539
v 1 -27.716386795043945 -11.48050308227539
v 1 -27.716386795043945 -11.48050308227539
v 1 -27.716386795043945 -11.48050308227539
v 1 -27.716386795043945 -11.48050308227539
v 1 -27.716386795043945 -11.48050308227539
v 1 -27.716386795043945 -11.48050308227539
v 1 -27.716386795043945 -11.48050308227539
v 1 -27.716386795043945 -11.48050308227539
v 1 -27.716386795043945 -11.48050308227539
v 1 -27.716386795043945 -11.48050308227539
v 1 -27.716386795043945 -11.48050308227539
v 1 -27.716386795043945 -11.48050308227539
v 1 -27.716386795043945 -11.48050308227539
v 0.9667456150054932 -27.639892578125 -11.662280082702637
v 1.0447051525115967 -27.643165588378906 -11.661169052124023
v 1.115858793258667 -27.65758514404297 -11.632553100585938
v 1.169373869895935 -27.680957794189453 -11.580788612365723
v 1.1971033811569214 -27.7097225189209 -11.513757705688477
v 1.1948256492614746 -27.739503860473633 -11.441662788391113
v 1.1628875732421875 -27.765764236450195 -11.375481605529785
v 1.1061512231826782 -27.784507751464844 -11.325288772583008
v 1.0332543849945068 -27.79288101196289 -11.298726081848145
v 0.9552947878837585 -27.789608001708984 -11.299837112426758
v 0.884141206741333 -27.77518653869629 -11.328453063964844
v 0.8306260704994202 -27.751815795898438 -11.380217552185059
v 0.8028965592384338 -27.72304916381836 -11.447248458862305
v 0.8051742911338806 -27.693269729614258 -11.519343376159668
v 0.8371124267578125 -27.667007446289062 -11.585524559020996
v 0.8938487768173218 -27.648263931274414 -11.635717391967773
v 0.9667456150054932 -27.639892578125 -11.662280082702637
v 2 2.576419433353294e-7 1.0671877248569217e-7
v 2 2.576419433353294e-7 1.0671877248569217e-7
v 2 2.576419433353294e-7 1.0671877248569217e-7
v 2 2.576419433353294e-7 1.0671877248569217e-7
v 2 2.576419433353294e-7 1.0671877248569217e-7
v 2 2.576419433353294e-7 1.0671877248569217e-7
v 2 2.576419433353294e-7 1.0671877248569217e-7
v 2 2.576419433353294e-7 1.0671877248569217e-7
v 2 2.576419433353294e-7 1.0671877248569217e-7
v 2 2.576419433353294e-7 1.0671877248569217e-7
v 2 2.576419433353294e-7 1.0671877248569217e-7
v 2 2.576419433353294e-7 1.0671877248569217e-7
v 2 2.576419433353294e-7 1.0671877248569217e-7
v 2 2.576419433353294e-7 1.0671877248569217e-7
v 2 2.576419433353294e-7 1.0671877248569217e-7
v 2 2.576419433353294e-7 1.0671877248569217e-7
v 1.9667456150054932 0.07649446278810501 -0.18177664279937744
v 2.0447051525115967 0.07322148978710175 -0.18066559731960297
v 2.115858793258667 0.058801256120204926 -0.15204985439777374
v 2.1693739891052246 0.03542909771203995 -0.1002858579158783
v 2.197103500366211 0.0066632237285375595 -0.03325425088405609
v 2.1948256492614746 -0.023117028176784515 0.03884003311395645
v 2.1628875732421875 -0.04937788471579552 0.10502129793167114
v 2.1061513423919678 -0.06812135875225067 0.15521402657032013
v 2.033254384994507 -0.07649394869804382 0.18177685141563416
v 1.9552948474884033 -0.07322097569704056 0.18066580593585968
v 1.884141206741333 -0.05880074203014374 0.15205006301403046
v 1.830626130104065 -0.03542858362197876 0.1002860739827156
v 1.8028966188430786 -0.006662708707153797 0.033254463225603104
v 1.8051743507385254 0.023117542266845703 -0.03883982077240944
v 1.8371124267578125 0.049378398805856705 -0.10502108186483383
v 1.8938487768173218 0.06812188029289246 -0.15521381795406342
v 1.9667456150054932 0.07649446278810501 -0.18177664279937744
vt 0 1
vt 0.0625 1
vt 0.125 1
vt 0.1875 1
vt 0.25 1
vt 0.3125 1
vt 0.375 1
vt 0.4375 1
vt 0.5 1
vt 0.5625 1
vt 0.625 1
vt 0.6875 1
vt 0.75 1
vt 0.8125 1
vt 0.875 1
vt 0.9375 1
vt 1 1
vt 0 0
vt 0.0625 0
vt 0.125 0
vt 0.1875 0
vt 0.25 0
vt 0.3125 0
vt 0.375 0
vt 0.4375 0
vt 0.5 0
vt 0.5625 0
vt 0.625 0
vt 0.6875 0
vt 0.75 0
vt 0.8125 0
vt 0.875 0
vt 0.9375 0
vt 1 0
vt 0.5 0.5
vt 0.5 0.5
vt 0.5 0.5
vt 0.5 0.5
vt 0.5 0.5
vt 0.5 0.5
vt 0.5 0.5
vt 0.5 0.5
vt 0.5 0.5
vt 0.5 0.5
vt 0.5 0.5
vt 0.5 0.5
vt 0.5 0.5
vt 0.5 0.5
vt 0.5 0.5
vt 0.5 0.5
vt 1 0.5
vt 0.9619397521018982 0.6913416981697083
vt 0.8535534143447876 0.8535534143447876
vt 0.6913416981697083 0.9619397521018982
vt 0.5 1
vt 0.30865827202796936 0.9619397521018982
vt 0.1464466154575348 0.8535534143447876
vt 0.03806023299694061 0.6913416981697083
vt 0 0.5
vt 0.03806023299694061 0.30865827202796936
vt 0.1464466154575348 0.1464466154575348
vt 0.30865827202796936 0.03806023299694061
vt 0.5 0
vt 0.6913416981697083 0.03806023299694061
vt 0.8535534143447876 0.1464466154575348
vt 0.9619397521018982 0.30865827202796936
vt 1 0.5
vt 0.5 0.5
vt 0.5 0.5
vt 0.5 0.5
vt 0.5 0.5
vt 0.5 0.5
vt 0.5 0.5
vt 0.5 0.5
vt 0.5 0.5
vt 0.5 0.5
vt 0.5 0.5
vt 0.5 0.5
vt 0.5 0.5
vt 0.5 0.5
vt 0.5 0.5
vt 0.5 0.5
vt 0.5 0.5
vt 1 0.5
vt 0.9619397521018982 0.30865827202796936
vt 0.8535534143447876 0.1464466154575348
vt 0.6913416981697083 0.03806023299694061
vt 0.5 0
vt 0.30865827202796936 0.03806023299694061
vt 0.1464466154575348 0.1464466154575348
vt 0.03806023299694061 0.30865827202796936
vt 0 0.5
vt 0.03806023299694061 0.6913416981697083
vt 0.1464466154575348 0.8535534143447876
vt 0.30865827202796936 0.9619397521018982
vt 0.5 1
vt 0.6913416981697083 0.9619397521018982
vt 0.8535534143447876 0.8535534143447876
vt 0.9619397521018982 0.6913416981697083
vt 1 0.5
vn -0.16627178733646492 0.3824709870778641 -0.9088837311667659
vn 0.22352593794414524 0.3661061767225654 -0.9033285240884271
vn 0.579293862853673 0.2940049847528696 -0.7602497546205028
vn 0.8468695405740125 0.177144217079675 -0.5014298630947204
vn 0.9855170284477222 0.03331483167164425 -0.16627179144479662
vn 0.9741284690662627 -0.11558642797624587 0.19419964835784723
vn 0.8144376778306456 -0.2468906910029996 0.5251059470486759
vn 0.5307561368765464 -0.3406081036151986 0.7760696121608828
vn 0.16627178733646492 -0.3824709870778641 0.9088837311667659
vn -0.22352593794414524 -0.3661061767225654 0.9033285240884271
vn -0.579293862853673 -0.2940049847528696 0.7602497546205028
vn -0.8468695405740125 -0.177144217079675 0.5014298630947204
vn -0.9855170284477222 -0.03331483167164425 0.16627179144479662
vn -0.9741284690662627 0.11558642797624587 -0.19419964835784723
vn -0.8144376778306456 0.2468906910029996 -0.5251059470486759
vn -0.5307561368765464 0.3406081036151986 -0.7760696121608828
vn -0.16627178733646492 0.3824709870778641 -0.9088837311667659
vn -0.16627178733646492 0.3824709870778641 -0.9088837311667659
vn 0.22352593794414524 0.3661061767225654 -0.9033285240884271
vn 0.579293862853673 0.2940049847528696 -0.7602497546205028
vn 0.8468695405740125 0.177144217079675 -0.5014298630947204
vn 0.9855170284477222 0.03331483167164425 -0.16627179144479662
vn 0.9741284690662627 -0.11558642797624587 0.19419964835784723
vn 0.8144376778306456 -0.2468906910029996 0.5251059470486759
vn 0.5307561368765464 -0.3406081036151986 0.7760696121608828
vn 0.16627178733646492 -0.3824709870778641 0.9088837311667659
vn -0.22352593794414524 -0.3661061767225654 0.9033285240884271
vn -0.579293862853673 -0.2940049847528696 0.7602497546205028
vn -0.8468695405740125 -0.177144217079675 0.5014298630947204
vn -0.9855170284477222 -0.03331483167164425 0.16627179144479662
vn -0.9741284690662627 0.11558642797624587 -0.19419964835784723
vn -0.8144376778306456 0.2468906910029996 -0.5251059470486759
vn -0.5307561368765464 0.3406081036151986 -0.7760696121608828
vn -0.16627178733646492 0.3824709870778641 -0.9088837311667659
vn -0.03331483255856234 -0.9233666936583258 -0.38247100671042555
vn -0.03331483255856234 -0.9233666936583258 -0.38247100671042555
vn -0.03331483255856234 -0.9233666936583258 -0.38247100671042555
vn -0.03331483255856234 -0.9233666936583258 -0.38247100671042555
vn -0.03331483255856234 -0.9233666936583258 -0.38247100671042555
vn -0.03331483255856234 -0.9233666936583258 -0.38247100671042555
vn -0.03331483255856234 -0.9233666936583258 -0.38247100671042555
vn -0.03331483255856234 -0.9233666936583258 -0.38247100671042555
vn -0.03331483255856234 -0.9233666936583258 -0.38247100671042555
vn -0.03331483255856234 -0.9233666936583258 -0.38247100671042555
vn -0.03331483255856234 -0.9233666936583258 -0.38247100671042555
vn -0.03331483255856234 -0.9233666936583258 -0.38247100671042555
vn -0.03331483255856234 -0.9233666936583258 -0.38247100671042555
vn -0.03331483255856234 -0.9233666936583258 -0.38247100671042555
vn -0.03331483255856234 -0.9233666936583258 -0.38247100671042555
vn -0.03331483255856234 -0.9233666936583258 -0.38247100671042555
vn -0.03331483255856234 -0.9233666936583258 -0.38247100671042555
vn -0.03331483255856234 -0.9233666936583258 -0.38247100671042555
vn -0.03331483255856234 -0.9233666936583258 -0.38247100671042555
vn -0.03331483255856234 -0.9233666936583258 -0.38247100671042555
vn -0.03331483255856234 -0.9233666936583258 -0.38247100671042555
vn -0.03331483255856234 -0.9233666936583258 -0.38247100671042555
vn -0.03331483255856234 -0.9233666936583258 -0.38247100671042555
vn -0.03331483255856234 -0.9233666936583258 -0.38247100671042555
vn -0.03331483255856234 -0.9233666936583258 -0.38247100671042555
vn -0.03331483255856234 -0.9233666936583258 -0.38247100671042555
vn -0.03331483255856234 -0.9233666936583258 -0.38247100671042555
vn -0.03331483255856234 -0.9233666936583258 -0.38247100671042555
vn -0.03331483255856234 -0.9233666936583258 -0.38247100671042555
vn -0.03331483255856234 -0.9233666936583258 -0.38247100671042555
vn -0.03331483255856234 -0.9233666936583258 -0.38247100671042555
vn -0.03331483255856234 -0.9233666936583258 -0.38247100671042555
vn -0.03331483255856234 -0.9233666936583258 -0.38247100671042555
vn 0.03331483255856234 0.9233666936583258 0.38247100671042555
vn 0.03331483255856234 0.9233666936583258 0.38247100671042555
vn 0.03331483255856234 0.9233666936583258 0.38247100671042555
vn 0.03331483255856234 0.9233666936583258 0.38247100671042555
vn 0.03331483255856234 0.9233666936583258 0.38247100671042555
vn 0.03331483255856234 0.9233666936583258 0.38247100671042555
vn 0.03331483255856234 0.9233666936583258 0.38247100671042555
vn 0.03331483255856234 0.9233666936583258 0.38247100671042555
vn 0.03331483255856234 0.9233666936583258 0.38247100671042555
vn 0.03331483255856234 0.9233666936583258 0.38247100671042555
vn 0.03331483255856234 0.9233666936583258 0.38247100671042555
vn 0.03331483255856234 0.9233666936583258 0.38247100671042555
vn 0.03331483255856234 0.9233666936583258 0.38247100671042555
vn 0.03331483255856234 0.9233666936583258 0.38247100671042555
vn 0.03331483255856234 0.9233666936583258 0.38247100671042555
vn 0.03331483255856234 0.9233666936583258 0.38247100671042555
vn 0.03331483255856234 0.9233666936583258 0.38247100671042555
vn 0.03331483255856234 0.9233666936583258 0.38247100671042555
vn 0.03331483255856234 0.9233666936583258 0.38247100671042555
vn 0.03331483255856234 0.9233666936583258 0.38247100671042555
vn 0.03331483255856234 0.9233666936583258 0.38247100671042555
vn 0.03331483255856234 0.9233666936583258 0.38247100671042555
vn 0.03331483255856234 0.9233666936583258 0.38247100671042555
vn 0.03331483255856234 0.9233666936583258 0.38247100671042555
vn 0.03331483255856234 0.9233666936583258 0.38247100671042555
vn 0.03331483255856234 0.9233666936583258 0.38247100671042555
vn 0.03331483255856234 0.9233666936583258 0.38247100671042555
vn 0.03331483255856234 0.9233666936583258 0.38247100671042555
vn 0.03331483255856234 0.9233666936583258 0.38247100671042555
vn 0.03331483255856234 0.9233666936583258 0.38247100671042555
vn 0.03331483255856234 0.9233666936583258 0.38247100671042555
vn 0.03331483255856234 0.9233666936583258 0.38247100671042555
vn 0.03331483255856234 0.9233666936583258 0.38247100671042555
f 1/1/1 18/18/18 2/2/2
f 18/18/18 19/19/19 2/2/2
f 2/2/2 19/19/19 3/3/3
f 19/19/19 20/20/20 3/3/3
f 3/3/3 20/20/20 4/4/4
f 20/20/20 21/21/21 4/4/4
f 4/4/4 21/21/21 5/5/5
f 21/21/21 22/22/22 5/5/5
f 5/5/5 22/22/22 6/6/6
f 22/22/22 23/23/23 6/6/6
f 6/6/6 23/23/23 7/7/7
f 23/23/23 24/24/24 7/7/7
f 7/7/7 24/24/24 8/8/8
f 24/24/24 25/25/25 8/8/8
f 8/8/8 25/25/25 9/9/9
f 25/25/25 26/26/26 9/9/9
f 9/9/9 26/26/26 10/10/10
f 26/26/26 27/27/27 10/10/10
f 10/10/10 27/27/27 11/11/11
f 27/27/27 28/28/28 11/11/11
f 11/11/11 28/28/28 12/12/12
f 28/28/28 29/29/29 12/12/12
f 12/12/12 29/29/29 13/13/13
f 29/29/29 30/30/30 13/13/13
f 13/13/13 30/30/30 14/14/14
f 30/30/30 31/31/31 14/14/14
f 14/14/14 31/31/31 15/15/15
f 31/31/31 32/32/32 15/15/15
f 15/15/15 32/32/32 16/16/16
f 32/32/32 33/33/33 16/16/16
f 16/16/16 33/33/33 17/17/17
f 33/33/33 34/34/34 17/17/17
f 51/51/51 52/52/52 35/35/35
f 52/52/52 53/53/53 36/36/36
f 53/53/53 54/54/54 37/37/37
f 54/54/54 55/55/55 38/38/38
f 55/55/55 56/56/56 39/39/39
f 56/56/56 57/57/57 40/40/40
f 57/57/57 58/58/58 41/41/41
f 58/58/58 59/59/59 42/42/42
f 59/59/59 60/60/60 43/43/43
f 60/60/60 61/61/61 44/44/44
f 61/61/61 62/62/62 45/45/45
f 62/62/62 63/63/63 46/46/46
f 63/63/63 64/64/64 47/47/47
f 64/64/64 65/65/65 48/48/48
f 65/65/65 66/66/66 49/49/49
f 66/66/66 67/67/67 50/50/50
f 85/85/85 84/84/84 68/68/68
f 86/86/86 85/85/85 69/69/69
f 87/87/87 86/86/86 70/70/70
f 88/88/88 87/87/87 71/71/71
f 89/89/89 88/88/88 72/72/72
f 90/90/90 89/89/89 73/73/73
f 91/91/91 90/90/90 74/74/74
f 92/92/92 91/91/91 75/75/75
f 93/93/93 92/92/92 76/76/76
f 94/94/94 93/93/93 77/77/77
f 95/95/95 94/94/94 78/78/78
f 96/96/96 95/95/95 79/79/79
f 97/97/97 96/96/96 80/80/80
f 98/98/98 97/97/97 81/81/81
f 99/99/99 98/98/98 82/82/82
f 100/100/100 99/99/99 83/83/83
