# cabin_roof_11
v 0 6.033614024661404 -11.48050297095271
v 0 6.033614024661404 -11.48050297095271
v 0 6.033614024661404 -11.48050297095271
v 0 6.033614024661404 -11.48050297095271
v 0 6.033614024661404 -11.48050297095271
v 0 6.033614024661404 -11.48050297095271
v 0 6.033614024661404 -11.48050297095271
v 0 6.033614024661404 -11.48050297095271
v 0 6.033614024661404 -11.48050297095271
v 0 5.533614024661404 -10.10550297095271
v 0.9722718000411987 5.533614024661404 -10.508231170911511
v 1.375 5.533614024661404 -11.48050297095271
v 0.9722718000411987 5.533614024661404 -12.452774770993909
v 1.6838893230429323e-16 5.533614024661404 -12.85550297095271
v -0.9722718000411987 5.533614024661404 -12.452774770993909
v -1.375 5.533614024661404 -11.48050297095271
v -0.9722718000411987 5.533614024661404 -10.508231170911511
v -3.3677786460858646e-16 5.533614024661404 -10.10550297095271
v 0 5.533614024661404 -11.48050297095271
v 0 5.533614024661404 -11.48050297095271
v 0 5.533614024661404 -11.48050297095271
v 0 5.533614024661404 -11.48050297095271
v 0 5.533614024661404 -11.48050297095271
v 0 5.533614024661404 -11.48050297095271
v 0 5.533614024661404 -11.48050297095271
v 0 5.533614024661404 -11.48050297095271
v 0 5.533614024661404 -10.10550297095271
v 0.9722718000411987 5.533614024661404 -10.508231170911511
v 1.375 5.533614024661404 -11.48050297095271
v 0.9722718000411987 5.533614024661404 -12.452774770993909
v 1.6838893230429323e-16 5.533614024661404 -12.85550297095271
v -0.9722718000411987 5.533614024661404 -12.452774770993909
v -1.375 5.533614024661404 -11.48050297095271
v -0.9722718000411987 5.533614024661404 -10.508231170911511
v -3.3677786460858646e-16 5.533614024661404 -10.10550297095271
vn 0 0.9397934252287188 0.34174305830092994
vn 0.24164884139114082 0.9397934214010217 0.24164884139114082
vn 0.34174305830092994 0.9397934252287188 2.0925727662980842e-17
vn 0.24164884139114082 0.9397934214010217 -0.24164884139114082
vn 4.1851455325961685e-17 0.9397934252287188 -0.34174305830092994
vn -0.24164884139114082 0.9397934214010217 -0.24164884139114082
vn -0.34174305830092994 0.9397934252287188 -6.277718629766504e-17
vn -0.24164884139114082 0.9397934214010217 0.24164884139114082
vn -8.370291065192337e-17 0.9397934252287188 0.34174305830092994
vn 0 0.9397934252287188 0.34174305830092994
vn 0.24164884139114082 0.9397934214010217 0.24164884139114082
vn 0.34174305830092994 0.9397934252287188 2.0925727662980842e-17
vn 0.24164884139114082 0.9397934214010217 -0.24164884139114082
vn 4.1851455325961685e-17 0.9397934252287188 -0.34174305830092994
vn -0.24164884139114082 0.9397934214010217 -0.24164884139114082
vn -0.34174305830092994 0.9397934252287188 -6.277718629766504e-17
vn -0.24164884139114082 0.9397934214010217 0.24164884139114082
vn -8.370291065192337e-17 0.9397934252287188 0.34174305830092994
vn 0 -1 0
vn 0 -1 0
vn 0 -1 0
vn 0 -1 0
vn 0 -1 0
vn 0 -1 0
vn 0 -1 0
vn 0 -1 0
vn 0 -1 0
vn 0 -1 0
vn 0 -1 0
vn 0 -1 0
vn 0 -1 0
vn 0 -1 0
vn 0 -1 0
vn 0 -1 0
vn 0 -1 0
f 10//10 11//11 2//2
f 11//11 12//12 3//3
f 12//12 13//13 4//4
f 13//13 14//14 5//5
f 14//14 15//15 6//6
f 15//15 16//16 7//7
f 16//16 17//17 8//8
f 17//17 18//18 9//9
f 28//28 27//27 19//19
f 29//29 28//28 20//20
f 30//30 29//29 21//21
f 31//31 30//30 22//22
f 32//32 31//31 23//23
f 33//33 32//32 24//24
f 34//34 33//33 25//25
f 35//35 34//34 26//26
