o spoke_back_13
v -0.9964398322211306 51.83330876186106 -24.832893505780984
v -0.9202287667154456 51.81810760593659 -24.839995317803407
v -0.8561621378628858 51.779918010454566 -24.862944380383034
v -0.8139935344590208 51.72455397067689 -24.898246924134988
v -0.8001427132641517 51.660444179373904 -24.940528442464746
v -0.8167183617103468 51.59734876462879 -24.98335196284414
v -0.8611969624311581 51.544873423201786 -25.020197996944617
v -0.9268070816322429 51.51100707175294 -25.045457056841187
v -1.0035601491875623 51.50090552917838 -25.05528369611494
v -1.0797712146932474 51.51610668510284 -25.048181884092514
v -1.1438378435458074 51.55429628058487 -25.02523282151289
v -1.1860064469496723 51.60966032036255 -24.989930277760934
v -1.1998572681445414 51.67377011166553 -24.94764875943118
v -1.1832816196983462 51.73686552641064 -24.90482523905179
v -1.1388030189775349 51.78934086783765 -24.867979204951308
v -1.0731928997764502 51.823207219286495 -24.842720145054734
v -0.9964398322211306 51.83330876186106 -24.832893505780984
v -1.9964398508124377 35.166201461409685 0.1111953270385797
v -1.9202287853067526 35.151000305485226 0.10409351501615483
v -1.8561621564541926 35.112810710003195 0.08114445243652924
v -1.8139935530503277 35.05744667022552 0.04584190868457405
v -1.8001427318554586 34.993336878922534 0.0035603903548171445
v -1.8167183803016538 34.93024146417743 -0.039263130024574266
v -1.8611969810224651 34.877766122750415 -0.07610916412505375
v -1.9268071002235498 34.84389977130157 -0.10136822402162515
v -2.0035601677788692 34.833798228727005 -0.11119486329537764
v -2.0797712332845544 34.84899938465148 -0.10409305127295276
v -2.143837862137114 34.8871889801335 -0.08114398869332717
v -2.186006465540979 34.94255301991118 -0.04584144494137199
v -2.199857286735848 35.00666281121416 -0.003559926611615083
v -2.183281638289653 35.069758225959276 0.03926359376777633
v -2.138803037568842 35.12223356738628 0.07610962786825581
v -2.073192918367757 35.156099918835125 0.10136868776482721
v -1.9964398508124377 35.166201461409685 0.1111953270385797
v -0.9999999907043465 51.66710714551972 -24.944088600947964
v -0.9999999907043465 51.66710714551972 -24.944088600947964
v -0.9999999907043465 51.66710714551972 -24.944088600947964
v -0.9999999907043465 51.66710714551972 -24.944088600947964
v -0.9999999907043465 51.66710714551972 -24.944088600947964
v -0.9999999907043465 51.66710714551972 -24.944088600947964
v -0.9999999907043465 51.66710714551972 -24.944088600947964
v -0.9999999907043465 51.66710714551972 -24.944088600947964
v -0.9999999907043465 51.66710714551972 -24.944088600947964
v -0.9999999907043465 51.66710714551972 -24.944088600947964
v -0.9999999907043465 51.66710714551972 -24.944088600947964
v -0.9999999907043465 51.66710714551972 -24.944088600947964
v -0.9999999907043465 51.66710714551972 -24.944088600947964
v -0.9999999907043465 51.66710714551972 -24.944088600947964
v -0.9999999907043465 51.66710714551972 -24.944088600947964
v -0.9999999907043465 51.66710714551972 -24.944088600947964
v -0.9964398322211306 51.83330876186106 -24.832893505780984
v -0.9202287667154456 51.81810760593659 -24.839995317803407
v -0.8561621378628858 51.779918010454566 -24.862944380383034
v -0.8139935344590208 51.72455397067689 -24.898246924134988
v -0.8001427132641517 51.660444179373904 -24.940528442464746
v -0.8167183617103468 51.59734876462879 -24.98335196284414
v -0.8611969624311581 51.544873423201786 -25.020197996944617
v -0.9268070816322429 51.51100707175294 -25.045457056841187
v -1.0035601491875623 51.50090552917838 -25.05528369611494
v -1.0797712146932474 51.51610668510284 -25.048181884092514
v -1.1438378435458074 51.55429628058487 -25.02523282151289
v -1.1860064469496723 51.60966032036255 -24.989930277760934
v -1.1998572681445414 51.67377011166553 -24.94764875943118
v -1.1832816196983462 51.73686552641064 -24.90482523905179
v -1.1388030189775349 51.78934086783765 -24.867979204951308
v -1.0731928997764502 51.823207219286495 -24.842720145054734
v -0.9964398322211306 51.83330876186106 -24.832893505780984
v -2.0000000092956536 34.999999845068345 2.318716010307753e-7
v -2.0000000092956536 34.999999845068345 2.318716010307753e-7
v -2.0000000092956536 34.999999845068345 2.318716010307753e-7
v -2.0000000092956536 34.999999845068345 2.318716010307753e-7
v -2.0000000092956536 34.999999845068345 2.318716010307753e-7
v -2.0000000092956536 34.999999845068345 2.318716010307753e-7
v -2.0000000092956536 34.999999845068345 2.318716010307753e-7
v -2.0000000092956536 34.999999845068345 2.318716010307753e-7
v -2.0000000092956536 34.999999845068345 2.318716010307753e-7
v -2.0000000092956536 34.999999845068345 2.318716010307753e-7
v -2.0000000092956536 34.999999845068345 2.318716010307753e-7
v -2.0000000092956536 34.999999845068345 2.318716010307753e-7
v -2.0000000092956536 34.999999845068345 2.318716010307753e-7
v -2.0000000092956536 34.999999845068345 2.318716010307753e-7
v -2.0000000092956536 34.999999845068345 2.318716010307753e-7
v -2.0000000092956536 34.999999845068345 2.318716010307753e-7
v -1.9964398508124377 35.166201461409685 0.1111953270385797
v -1.9202287853067526 35.151000305485226 0.10409351501615483
v -1.8561621564541926 35.112810710003195 0.08114445243652924
v -1.8139935530503277 35.05744667022552 0.04584190868457405
v -1.8001427318554586 34.993336878922534 0.0035603903548171445
v -1.8167183803016538 34.93024146417743 -0.039263130024574266
v -1.8611969810224651 34.877766122750415 -0.07610916412505375
v -1.9268071002235498 34.84389977130157 -0.10136822402162515
v -2.0035601677788692 34.833798228727005 -0.11119486329537764
v -2.0797712332845544 34.84899938465148 -0.10409305127295276
v -2.143837862137114 34.8871889801335 -0.08114398869332717
v -2.186006465540979 34.94255301991118 -0.04584144494137199
v -2.199857286735848 35.00666281121416 -0.003559926611615083
v -2.183281638289653 35.069758225959276 0.03926359376777633
v -2.138803037568842 35.12223356738628 0.07610962786825581
v -2.073192918367757 35.156099918835125 0.10136868776482721
v -1.9964398508124377 35.166201461409685 0.1111953270385797
vt 0 1
vt 0.0625 1
vt 0.125 1
vt 0.1875 1
vt 0.25 1
vt 0.3125 1
vt 0.375 1
vt 0.4375 1
vt 0.5 1
vt 0.5625 1
vt 0.625 1
vt 0.6875 1
vt 0.75 1
vt 0.8125 1
vt 0.875 1
vt 0.9375 1
vt 1 1
vt 0 0
vt 0.0625 0
vt 0.125 0
vt 0.1875 0
vt 0.25 0
vt 0.3125 0
vt 0.375 0
vt 0.4375 0
vt 0.5 0
vt 0.5625 0
vt 0.625 0
vt 0.6875 0
vt 0.75 0
vt 0.8125 0
vt 0.875 0
vt 0.9375 0
vt 1 0
vt 0.5 0.5
vt 0.5 0.5
vt 0.5 0.5
vt 0.5 0.5
vt 0.5 0.5
vt 0.5 0.5
vt 0.5 0.5
vt 0.5 0.5
vt 0.5 0.5
vt 0.5 0.5
vt 0.5 0.5
vt 0.5 0.5
vt 0.5 0.5
vt 0.5 0.5
vt 0.5 0.5
vt 0.5 0.5
vt 1 0.5
vt 0.9619397521018982 0.6913416981697083
vt 0.8535534143447876 0.8535534143447876
vt 0.6913416981697083 0.9619397521018982
vt 0.5 1
vt 0.30865827202796936 0.9619397521018982
vt 0.1464466154575348 0.8535534143447876
vt 0.03806023299694061 0.6913416981697083
vt 0 0.5
vt 0.03806023299694061 0.30865827202796936
vt 0.1464466154575348 0.1464466154575348
vt 0.30865827202796936 0.03806023299694061
vt 0.5 0
vt 0.6913416981697083 0.03806023299694061
vt 0.8535534143447876 0.1464466154575348
vt 0.9619397521018982 0.30865827202796936
vt 1 0.5
vt 0.5 0.5
vt 0.5 0.5
vt 0.5 0.5
vt 0.5 0.5
vt 0.5 0.5
vt 0.5 0.5
vt 0.5 0.5
vt 0.5 0.5
vt 0.5 0.5
vt 0.5 0.5
vt 0.5 0.5
vt 0.5 0.5
vt 0.5 0.5
vt 0.5 0.5
vt 0.5 0.5
vt 0.5 0.5
vt 1 0.5
vt 0.9619397521018982 0.30865827202796936
vt 0.8535534143447876 0.1464466154575348
vt 0.6913416981697083 0.03806023299694061
vt 0.5 0
vt 0.30865827202796936 0.03806023299694061
vt 0.1464466154575348 0.1464466154575348
vt 0.03806023299694061 0.30865827202796936
vt 0 0.5
vt 0.03806023299694061 0.6913416981697083
vt 0.1464466154575348 0.8535534143447876
vt 0.30865827202796936 0.9619397521018982
vt 0.5 1
vt 0.6913416981697083 0.9619397521018982
vt 0.8535534143447876 0.8535534143447876
vt 0.9619397521018982 0.6913416981697083
vt 1 0.5
vn 0.017800792150826767 0.831008069323711 0.5559754675502163
vn 0.39885613106032597 0.7550023112448381 0.5204664222892199
vn 0.7191892310483641 0.5640542986679593 0.4057210841184611
vn 0.9300322928739074 0.28723413447828616 0.22920839033991
vn 0.9992863723104473 -0.03331483023263843 0.017800792150826805
vn 0.9164081562285217 -0.34879191391072073 -0.19631681534789108
vn 0.6940151093676802 -0.6111685834111139 -0.38054696243777736
vn 0.36596455606830713 -0.7805003787219202 -0.5068422856438342
vn -0.017800792150826646 -0.831008069323711 -0.5559754675502163
vn -0.39885613106032597 -0.7550023112448381 -0.5204664222892199
vn -0.7191892310483641 -0.5640542986679593 -0.4057210841184611
vn -0.9300322928739074 -0.28723413447828616 -0.22920839033991
vn -0.9992863723104473 0.03331483023263833 -0.01780079215082687
vn -0.9164081562285217 0.34879191391072073 0.19631681534789108
vn -0.6940151093676802 0.6111685834111139 0.38054696243777736
vn -0.36596455606830713 0.7805003787219202 0.5068422856438342
vn 0.01780079215082652 0.831008069323711 0.5559754675502163
vn 0.017800792150826767 0.831008069323711 0.5559754675502163
vn 0.39885613106032597 0.7550023112448381 0.5204664222892199
vn 0.7191892310483641 0.5640542986679593 0.4057210841184611
vn 0.9300322928739074 0.28723413447828616 0.22920839033991
vn 0.9992863723104473 -0.03331483023263843 0.017800792150826805
vn 0.9164081562285217 -0.34879191391072073 -0.19631681534789108
vn 0.6940151093676802 -0.6111685834111139 -0.38054696243777736
vn 0.36596455606830713 -0.7805003787219202 -0.5068422856438342
vn -0.017800792150826646 -0.831008069323711 -0.5559754675502163
vn -0.39885613106032597 -0.7550023112448381 -0.5204664222892199
vn -0.7191892310483641 -0.5640542986679593 -0.4057210841184611
vn -0.9300322928739074 -0.28723413447828616 -0.22920839033991
vn -0.9992863723104473 0.03331483023263833 -0.01780079215082687
vn -0.9164081562285217 0.34879191391072073 0.19631681534789108
vn -0.6940151093676802 0.6111685834111139 0.38054696243777736
vn -0.36596455606830713 0.7805003787219202 0.5068422856438342
vn 0.01780079215082652 0.831008069323711 0.5559754675502163
vn 0.033314830232638475 0.5552618398606635 -0.831008069323711
vn 0.033314830232638475 0.5552618398606635 -0.831008069323711
vn 0.033314830232638475 0.5552618398606635 -0.831008069323711
vn 0.033314830232638475 0.5552618398606635 -0.831008069323711
vn 0.033314830232638475 0.5552618398606635 -0.831008069323711
vn 0.033314830232638475 0.5552618398606635 -0.831008069323711
vn 0.033314830232638475 0.5552618398606635 -0.831008069323711
vn 0.033314830232638475 0.5552618398606635 -0.831008069323711
vn 0.033314830232638475 0.5552618398606635 -0.831008069323711
vn 0.033314830232638475 0.5552618398606635 -0.831008069323711
vn 0.033314830232638475 0.5552618398606635 -0.831008069323711
vn 0.033314830232638475 0.5552618398606635 -0.831008069323711
vn 0.033314830232638475 0.5552618398606635 -0.831008069323711
vn 0.033314830232638475 0.5552618398606635 -0.831008069323711
vn 0.033314830232638475 0.5552618398606635 -0.831008069323711
vn 0.033314830232638475 0.5552618398606635 -0.831008069323711
vn 0.033314830232638475 0.5552618398606635 -0.831008069323711
vn 0.033314830232638475 0.5552618398606635 -0.831008069323711
vn 0.033314830232638475 0.5552618398606635 -0.831008069323711
vn 0.033314830232638475 0.5552618398606635 -0.831008069323711
vn 0.033314830232638475 0.5552618398606635 -0.831008069323711
vn 0.033314830232638475 0.5552618398606635 -0.831008069323711
vn 0.033314830232638475 0.5552618398606635 -0.831008069323711
vn 0.033314830232638475 0.5552618398606635 -0.831008069323711
vn 0.033314830232638475 0.5552618398606635 -0.831008069323711
vn 0.033314830232638475 0.5552618398606635 -0.831008069323711
vn 0.033314830232638475 0.5552618398606635 -0.831008069323711
vn 0.033314830232638475 0.5552618398606635 -0.831008069323711
vn 0.033314830232638475 0.5552618398606635 -0.831008069323711
vn 0.033314830232638475 0.5552618398606635 -0.831008069323711
vn 0.033314830232638475 0.5552618398606635 -0.831008069323711
vn 0.033314830232638475 0.5552618398606635 -0.831008069323711
vn 0.033314830232638475 0.5552618398606635 -0.831008069323711
vn -0.033314830232638475 -0.5552618398606635 0.831008069323711
vn -0.033314830232638475 -0.5552618398606635 0.831008069323711
vn -0.033314830232638475 -0.5552618398606635 0.831008069323711
vn -0.033314830232638475 -0.5552618398606635 0.831008069323711
vn -0.033314830232638475 -0.5552618398606635 0.831008069323711
vn -0.033314830232638475 -0.5552618398606635 0.831008069323711
vn -0.033314830232638475 -0.5552618398606635 0.831008069323711
vn -0.033314830232638475 -0.5552618398606635 0.831008069323711
vn -0.033314830232638475 -0.5552618398606635 0.831008069323711
vn -0.033314830232638475 -0.5552618398606635 0.831008069323711
vn -0.033314830232638475 -0.5552618398606635 0.831008069323711
vn -0.033314830232638475 -0.5552618398606635 0.831008069323711
vn -0.033314830232638475 -0.5552618398606635 0.831008069323711
vn -0.033314830232638475 -0.5552618398606635 0.831008069323711
vn -0.033314830232638475 -0.5552618398606635 0.831008069323711
vn -0.033314830232638475 -0.5552618398606635 0.831008069323711
vn -0.033314830232638475 -0.5552618398606635 0.831008069323711
vn -0.033314830232638475 -0.5552618398606635 0.831008069323711
vn -0.033314830232638475 -0.5552618398606635 0.831008069323711
vn -0.033314830232638475 -0.5552618398606635 0.831008069323711
vn -0.033314830232638475 -0.5552618398606635 0.831008069323711
vn -0.033314830232638475 -0.5552618398606635 0.831008069323711
vn -0.033314830232638475 -0.5552618398606635 0.831008069323711
vn -0.033314830232638475 -0.5552618398606635 0.831008069323711
vn -0.033314830232638475 -0.5552618398606635 0.831008069323711
vn -0.033314830232638475 -0.5552618398606635 0.831008069323711
vn -0.033314830232638475 -0.5552618398606635 0.831008069323711
vn -0.033314830232638475 -0.5552618398606635 0.831008069323711
vn -0.033314830232638475 -0.5552618398606635 0.831008069323711
vn -0.033314830232638475 -0.5552618398606635 0.831008069323711
vn -0.033314830232638475 -0.5552618398606635 0.831008069323711
vn -0.033314830232638475 -0.5552618398606635 0.831008069323711
vn -0.033314830232638475 -0.5552618398606635 0.831008069323711
f 1/1/1 18/18/18 2/2/2
f 18/18/18 19/19/19 2/2/2
f 2/2/2 19/19/19 3/3/3
f 19/19/19 20/20/20 3/3/3
f 3/3/3 20/20/20 4/4/4
f 20/20/20 21/21/21 4/4/4
f 4/4/4 21/21/21 5/5/5
f 21/21/21 22/22/22 5/5/5
f 5/5/5 22/22/22 6/6/6
f 22/22/22 23/23/23 6/6/6
f 6/6/6 23/23/23 7/7/7
f 23/23/23 24/24/24 7/7/7
f 7/7/7 24/24/24 8/8/8
f 24/24/24 25/25/25 8/8/8
f 8/8/8 25/25/25 9/9/9
f 25/25/25 26/26/26 9/9/9
f 9/9/9 26/26/26 10/10/10
f 26/26/26 27/27/27 10/10/10
f 10/10/10 27/27/27 11/11/11
f 27/27/27 28/28/28 11/11/11
f 11/11/11 28/28/28 12/12/12
f 28/28/28 29/29/29 12/12/12
f 12/12/12 29/29/29 13/13/13
f 29/29/29 30/30/30 13/13/13
f 13/13/13 30/30/30 14/14/14
f 30/30/30 31/31/31 14/14/14
f 14/14/14 31/31/31 15/15/15
f 31/31/31 32/32/32 15/15/15
f 15/15/15 32/32/32 16/16/16
f 32/32/32 33/33/33 16/16/16
f 16/16/16 33/33/33 17/17/17
f 33/33/33 34/34/34 17/17/17
f 51/51/51 52/52/52 35/35/35
f 52/52/52 53/53/53 36/36/36
f 53/53/53 54/54/54 37/37/37
f 54/54/54 55/55/55 38/38/38
f 55/55/55 56/56/56 39/39/39
f 56/56/56 57/57/57 40/40/40
f 57/57/57 58/58/58 41/41/41
f 58/58/58 59/59/59 42/42/42
f 59/59/59 60/60/60 43/43/43
f 60/60/60 61/61/61 44/44/44
f 61/61/61 62/62/62 45/45/45
f 62/62/62 63/63/63 46/46/46
f 63/63/63 64/64/64 47/47/47
f 64/64/64 65/65/65 48/48/48
f 65/65/65 66/66/66 49/49/49
f 66/66/66 67/67/67 50/50/50
f 85/85/85 84/84/84 68/68/68
f 86/86/86 85/85/85 69/69/69
f 87/87/87 86/86/86 70/70/70
f 88/88/88 87/87/87 71/71/71
f 89/89/89 88/88/88 72/72/72
f 90/90/90 89/89/89 73/73/73
f 91/91/91 90/90/90 74/74/74
f 92/92/92 91/91/91 75/75/75
f 93/93/93 92/92/92 76/76/76
f 94/94/94 93/93/93 77/77/77
f 95/95/95 94/94/94 78/78/78
f 96/96/96 95/95/95 79/79/79
f 97/97/97 96/96/96 80/80/80
f 98/98/98 97/97/97 81/81/81
f 99/99/99 98/98/98 82/82/82
f 100/100/100 99/99/99 83/83/83
