o spoke_back_2
v -1.5797379493443682 32.81735864777566 67.28091592731917
v -1.502434535649832 32.82616163309398 67.28694463175803
v -1.4350266330878299 32.85512984574336 67.31352487947963
v -1.3877763965155148 32.89985427210624 67.35661494895501
v -1.367877222388029 32.95352681691277 67.40965194634944
v -1.378358747503178 33.007974042209234 67.46456311193201
v -1.4176250379139381 33.05490846163535 67.51299078530602
v -1.4796983734396194 33.08718453701797 67.54755740574906
v -1.5551285866785427 33.09988680657702 67.56300096919128
v -1.6324320599298718 33.09108382324442 67.5569722660787
v -1.6998400220486667 33.062115612580754 67.53039201968338
v -1.747090199064189 33.01739118423215 67.48730194888171
v -1.7669893307506501 32.963720400607826 67.43426422045047
v -1.7565077460787082 32.909273173325644 67.37935305354162
v -1.7172414981089728 32.862336992717324 67.33092611120442
v -1.6551682816968771 32.83006092130615 67.29635949341395
v -1.5797379493443682 32.81735864777566 67.28091592731917
v -2.3446800705101585 54.052102261914015 46.07948740714505
v -2.267376533225835 54.06090542901058 46.0855160318298
v -2.199968576826631 54.08987340232743 46.11209637674375
v -2.152718396122387 54.134597983747526 46.15518638400803
v -2.1328192501473096 54.18826936030893 46.20822386632116
v -2.1433008295037617 54.242716808168865 46.26313494167195
v -2.18256709745062 54.289652159783216 46.311562228110446
v -2.2446404425236675 54.321926706826915 46.346125350664835
v -2.320070633532653 54.33463103101565 46.36157219354135
v -2.397374170651191 54.325827870798705 46.355543566000975
v -2.464781888989009 54.29685988265937 46.3289632186375
v -2.5120321887653922 54.25213530693061 46.28587321331189
v -2.531931215637246 54.19846392596779 46.23283572852466
v -2.521449755342571 54.14401648422918 46.17792465493406
v -2.482183606592191 54.09708113314645 46.12949737257594
v -2.4201101503779645 54.06480511914877 46.09493072235202
v -2.3446800705101585 54.052102261914015 46.07948740714505
v -1.5674332977898517 32.958622728169196 67.42195844891836
v -1.5674332977898517 32.958622728169196 67.42195844891836
v -1.5674332977898517 32.958622728169196 67.42195844891836
v -1.5674332977898517 32.958622728169196 67.42195844891836
v -1.5674332977898517 32.958622728169196 67.42195844891836
v -1.5674332977898517 32.958622728169196 67.42195844891836
v -1.5674332977898517 32.958622728169196 67.42195844891836
v -1.5674332977898517 32.958622728169196 67.42195844891836
v -1.5674332977898517 32.958622728169196 67.42195844891836
v -1.5674332977898517 32.958622728169196 67.42195844891836
v -1.5674332977898517 32.958622728169196 67.42195844891836
v -1.5674332977898517 32.958622728169196 67.42195844891836
v -1.5674332977898517 32.958622728169196 67.42195844891836
v -1.5674332977898517 32.958622728169196 67.42195844891836
v -1.5674332977898517 32.958622728169196 67.42195844891836
v -1.5674332977898517 32.958622728169196 67.42195844891836
v -1.5797379493443682 32.81735864777566 67.28091592731917
v -1.502434535649832 32.82616163309398 67.28694463175803
v -1.4350266330878299 32.85512984574336 67.31352487947963
v -1.3877763965155148 32.89985427210624 67.35661494895501
v -1.367877222388029 32.95352681691277 67.40965194634944
v -1.378358747503178 33.007974042209234 67.46456311193201
v -1.4176250379139381 33.05490846163535 67.51299078530602
v -1.4796983734396194 33.08718453701797 67.54755740574906
v -1.5551285866785427 33.09988680657702 67.56300096919128
v -1.6324320599298718 33.09108382324442 67.5569722660787
v -1.6998400220486667 33.062115612580754 67.53039201968338
v -1.747090199064189 33.01739118423215 67.48730194888171
v -1.7669893307506501 32.963720400607826 67.43426422045047
v -1.7565077460787082 32.909273173325644 67.37935305354162
v -1.7172414981089728 32.862336992717324 67.33092611120442
v -1.6551682816968771 32.83006092130615 67.29635949341395
v -1.5797379493443682 32.81735864777566 67.28091592731917
v -2.3323752924513315 54.19336664503026 46.220529798788135
v -2.3323752924513315 54.19336664503026 46.220529798788135
v -2.3323752924513315 54.19336664503026 46.220529798788135
v -2.3323752924513315 54.19336664503026 46.220529798788135
v -2.3323752924513315 54.19336664503026 46.220529798788135
v -2.3323752924513315 54.19336664503026 46.220529798788135
v -2.3323752924513315 54.19336664503026 46.220529798788135
v -2.3323752924513315 54.19336664503026 46.220529798788135
v -2.3323752924513315 54.19336664503026 46.220529798788135
v -2.3323752924513315 54.19336664503026 46.220529798788135
v -2.3323752924513315 54.19336664503026 46.220529798788135
v -2.3323752924513315 54.19336664503026 46.220529798788135
v -2.3323752924513315 54.19336664503026 46.220529798788135
v -2.3323752924513315 54.19336664503026 46.220529798788135
v -2.3323752924513315 54.19336664503026 46.220529798788135
v -2.3323752924513315 54.19336664503026 46.220529798788135
v -2.3446800705101585 54.052102261914015 46.07948740714505
v -2.267376533225835 54.06090542901058 46.0855160318298
v -2.199968576826631 54.08987340232743 46.11209637674375
v -2.152718396122387 54.134597983747526 46.15518638400803
v -2.1328192501473096 54.18826936030893 46.20822386632116
v -2.1433008295037617 54.242716808168865 46.26313494167195
v -2.18256709745062 54.289652159783216 46.311562228110446
v -2.2446404425236675 54.321926706826915 46.346125350664835
v -2.320070633532653 54.33463103101565 46.36157219354135
v -2.397374170651191 54.325827870798705 46.355543566000975
v -2.464781888989009 54.29685988265937 46.3289632186375
v -2.5120321887653922 54.25213530693061 46.28587321331189
v -2.531931215637246 54.19846392596779 46.23283572852466
v -2.521449755342571 54.14401648422918 46.17792465493406
v -2.482183606592191 54.09708113314645 46.12949737257594
v -2.4201101503779645 54.06480511914877 46.09493072235202
v -2.3446800705101585 54.052102261914015 46.07948740714505
vt 0 1
vt 0.0625 1
vt 0.125 1
vt 0.1875 1
vt 0.25 1
vt 0.3125 1
vt 0.375 1
vt 0.4375 1
vt 0.5 1
vt 0.5625 1
vt 0.625 1
vt 0.6875 1
vt 0.75 1
vt 0.8125 1
vt 0.875 1
vt 0.9375 1
vt 1 1
vt 0 0
vt 0.0625 0
vt 0.125 0
vt 0.1875 0
vt 0.25 0
vt 0.3125 0
vt 0.375 0
vt 0.4375 0
vt 0.5 0
vt 0.5625 0
vt 0.625 0
vt 0.6875 0
vt 0.75 0
vt 0.8125 0
vt 0.875 0
vt 0.9375 0
vt 1 0
vt 0.5 0.5
vt 0.5 0.5
vt 0.5 0.5
vt 0.5 0.5
vt 0.5 0.5
vt 0.5 0.5
vt 0.5 0.5
vt 0.5 0.5
vt 0.5 0.5
vt 0.5 0.5
vt 0.5 0.5
vt 0.5 0.5
vt 0.5 0.5
vt 0.5 0.5
vt 0.5 0.5
vt 0.5 0.5
vt 1 0.5
vt 0.9619397521018982 0.6913416981697083
vt 0.8535534143447876 0.8535534143447876
vt 0.6913416981697083 0.9619397521018982
vt 0.5 1
vt 0.30865827202796936 0.9619397521018982
vt 0.1464466154575348 0.8535534143447876
vt 0.03806023299694061 0.6913416981697083
vt 0 0.5
vt 0.03806023299694061 0.30865827202796936
vt 0.1464466154575348 0.1464466154575348
vt 0.30865827202796936 0.03806023299694061
vt 0.5 0
vt 0.6913416981697083 0.03806023299694061
vt 0.8535534143447876 0.1464466154575348
vt 0.9619397521018982 0.30865827202796936
vt 1 0.5
vt 0.5 0.5
vt 0.5 0.5
vt 0.5 0.5
vt 0.5 0.5
vt 0.5 0.5
vt 0.5 0.5
vt 0.5 0.5
vt 0.5 0.5
vt 0.5 0.5
vt 0.5 0.5
vt 0.5 0.5
vt 0.5 0.5
vt 0.5 0.5
vt 0.5 0.5
vt 0.5 0.5
vt 0.5 0.5
vt 1 0.5
vt 0.9619397521018982 0.30865827202796936
vt 0.8535534143447876 0.1464466154575348
vt 0.6913416981697083 0.03806023299694061
vt 0.5 0
vt 0.30865827202796936 0.03806023299694061
vt 0.1464466154575348 0.1464466154575348
vt 0.03806023299694061 0.30865827202796936
vt 0 0.5
vt 0.03806023299694061 0.6913416981697083
vt 0.1464466154575348 0.8535534143447876
vt 0.30865827202796936 0.9619397521018982
vt 0.5 1
vt 0.6913416981697083 0.9619397521018982
vt 0.8535534143447876 0.8535534143447876
vt 0.9619397521018982 0.6913416981697083
vt 1 0.5
vn -0.061523609148038914 -0.7063219934180996 -0.7052120866315902
vn 0.324993564117018 -0.6623086970586378 -0.6750750869962594
vn 0.6620333959601417 -0.5174649275983233 -0.542164026231125
vn 0.8982846796845084 -0.29384178866646365 -0.3267133873556357
vn 0.9977802441003517 -0.025483914622026517 -0.06152360992805994
vn 0.9453728086055059 0.24675365863960957 0.21303259069284325
vn 0.7490409538074475 0.48142519832910907 0.4551564873019029
vn 0.43867437719647845 0.6428041553628303 0.6279869494181866
vn 0.061523609148038914 0.7063219934180996 0.7052120866315902
vn -0.324993564117018 0.6623086970586378 0.6750750869962594
vn -0.6620333959601417 0.5174649275983233 0.542164026231125
vn -0.8982846796845084 0.29384178866646365 0.3267133873556357
vn -0.9977802441003517 0.025483914622026517 0.06152360992805994
vn -0.9453728086055059 -0.24675365863960957 -0.21303259069284325
vn -0.7490409538074475 -0.48142519832910907 -0.4551564873019029
vn -0.43867437719647845 -0.6428041553628303 -0.6279869494181866
vn -0.061523609148038914 -0.7063219934180996 -0.7052120866315902
vn -0.061523609148038914 -0.7063219934180996 -0.7052120866315902
vn 0.324993564117018 -0.6623086970586378 -0.6750750869962594
vn 0.6620333959601417 -0.5174649275983233 -0.542164026231125
vn 0.8982846796845084 -0.29384178866646365 -0.3267133873556357
vn 0.9977802441003517 -0.025483914622026517 -0.06152360992805994
vn 0.9453728086055059 0.24675365863960957 0.21303259069284325
vn 0.7490409538074475 0.48142519832910907 0.4551564873019029
vn 0.43867437719647845 0.6428041553628303 0.6279869494181866
vn 0.061523609148038914 0.7063219934180996 0.7052120866315902
vn -0.324993564117018 0.6623086970586378 0.6750750869962594
vn -0.6620333959601417 0.5174649275983233 0.542164026231125
vn -0.8982846796845084 0.29384178866646365 0.3267133873556357
vn -0.9977802441003517 0.025483914622026517 0.06152360992805994
vn -0.9453728086055059 -0.24675365863960957 -0.21303259069284325
vn -0.7490409538074475 -0.48142519832910907 -0.4551564873019029
vn -0.43867437719647845 -0.6428041553628303 -0.6279869494181866
vn -0.061523609148038914 -0.7063219934180996 -0.7052120866315902
vn 0.02548391565897788 -0.7074318574764645 0.706321978328641
vn 0.02548391565897788 -0.7074318574764645 0.706321978328641
vn 0.02548391565897788 -0.7074318574764645 0.706321978328641
vn 0.02548391565897788 -0.7074318574764645 0.706321978328641
vn 0.02548391565897788 -0.7074318574764645 0.706321978328641
vn 0.02548391565897788 -0.7074318574764645 0.706321978328641
vn 0.02548391565897788 -0.7074318574764645 0.706321978328641
vn 0.02548391565897788 -0.7074318574764645 0.706321978328641
vn 0.02548391565897788 -0.7074318574764645 0.706321978328641
vn 0.02548391565897788 -0.7074318574764645 0.706321978328641
vn 0.02548391565897788 -0.7074318574764645 0.706321978328641
vn 0.02548391565897788 -0.7074318574764645 0.706321978328641
vn 0.02548391565897788 -0.7074318574764645 0.706321978328641
vn 0.02548391565897788 -0.7074318574764645 0.706321978328641
vn 0.02548391565897788 -0.7074318574764645 0.706321978328641
vn 0.02548391565897788 -0.7074318574764645 0.706321978328641
vn 0.02548391565897788 -0.7074318574764645 0.706321978328641
vn 0.02548391565897788 -0.7074318574764645 0.706321978328641
vn 0.02548391565897788 -0.7074318574764645 0.706321978328641
vn 0.02548391565897788 -0.7074318574764645 0.706321978328641
vn 0.02548391565897788 -0.7074318574764645 0.706321978328641
vn 0.02548391565897788 -0.7074318574764645 0.706321978328641
vn 0.02548391565897788 -0.7074318574764645 0.706321978328641
vn 0.02548391565897788 -0.7074318574764645 0.706321978328641
vn 0.02548391565897788 -0.7074318574764645 0.706321978328641
vn 0.02548391565897788 -0.7074318574764645 0.706321978328641
vn 0.02548391565897788 -0.7074318574764645 0.706321978328641
vn 0.02548391565897788 -0.7074318574764645 0.706321978328641
vn 0.02548391565897788 -0.7074318574764645 0.706321978328641
vn 0.02548391565897788 -0.7074318574764645 0.706321978328641
vn 0.02548391565897788 -0.7074318574764645 0.706321978328641
vn 0.02548391565897788 -0.7074318574764645 0.706321978328641
vn 0.02548391565897788 -0.7074318574764645 0.706321978328641
vn -0.02548391565897788 0.7074318574764645 -0.706321978328641
vn -0.02548391565897788 0.7074318574764645 -0.706321978328641
vn -0.02548391565897788 0.7074318574764645 -0.706321978328641
vn -0.02548391565897788 0.7074318574764645 -0.706321978328641
vn -0.02548391565897788 0.7074318574764645 -0.706321978328641
vn -0.02548391565897788 0.7074318574764645 -0.706321978328641
vn -0.02548391565897788 0.7074318574764645 -0.706321978328641
vn -0.02548391565897788 0.7074318574764645 -0.706321978328641
vn -0.02548391565897788 0.7074318574764645 -0.706321978328641
vn -0.02548391565897788 0.7074318574764645 -0.706321978328641
vn -0.02548391565897788 0.7074318574764645 -0.706321978328641
vn -0.02548391565897788 0.7074318574764645 -0.706321978328641
vn -0.02548391565897788 0.7074318574764645 -0.706321978328641
vn -0.02548391565897788 0.7074318574764645 -0.706321978328641
vn -0.02548391565897788 0.7074318574764645 -0.706321978328641
vn -0.02548391565897788 0.7074318574764645 -0.706321978328641
vn -0.02548391565897788 0.7074318574764645 -0.706321978328641
vn -0.02548391565897788 0.7074318574764645 -0.706321978328641
vn -0.02548391565897788 0.7074318574764645 -0.706321978328641
vn -0.02548391565897788 0.7074318574764645 -0.706321978328641
vn -0.02548391565897788 0.7074318574764645 -0.706321978328641
vn -0.02548391565897788 0.7074318574764645 -0.706321978328641
vn -0.02548391565897788 0.7074318574764645 -0.706321978328641
vn -0.02548391565897788 0.7074318574764645 -0.706321978328641
vn -0.02548391565897788 0.7074318574764645 -0.706321978328641
vn -0.02548391565897788 0.7074318574764645 -0.706321978328641
vn -0.02548391565897788 0.7074318574764645 -0.706321978328641
vn -0.02548391565897788 0.7074318574764645 -0.706321978328641
vn -0.02548391565897788 0.7074318574764645 -0.706321978328641
vn -0.02548391565897788 0.7074318574764645 -0.706321978328641
vn -0.02548391565897788 0.7074318574764645 -0.706321978328641
vn -0.02548391565897788 0.7074318574764645 -0.706321978328641
vn -0.02548391565897788 0.7074318574764645 -0.706321978328641
f 1/1/1 18/18/18 2/2/2
f 18/18/18 19/19/19 2/2/2
f 2/2/2 19/19/19 3/3/3
f 19/19/19 20/20/20 3/3/3
f 3/3/3 20/20/20 4/4/4
f 20/20/20 21/21/21 4/4/4
f 4/4/4 21/21/21 5/5/5
f 21/21/21 22/22/22 5/5/5
f 5/5/5 22/22/22 6/6/6
f 22/22/22 23/23/23 6/6/6
f 6/6/6 23/23/23 7/7/7
f 23/23/23 24/24/24 7/7/7
f 7/7/7 24/24/24 8/8/8
f 24/24/24 25/25/25 8/8/8
f 8/8/8 25/25/25 9/9/9
f 25/25/25 26/26/26 9/9/9
f 9/9/9 26/26/26 10/10/10
f 26/26/26 27/27/27 10/10/10
f 10/10/10 27/27/27 11/11/11
f 27/27/27 28/28/28 11/11/11
f 11/11/11 28/28/28 12/12/12
f 28/28/28 29/29/29 12/12/12
f 12/12/12 29/29/29 13/13/13
f 29/29/29 30/30/30 13/13/13
f 13/13/13 30/30/30 14/14/14
f 30/30/30 31/31/31 14/14/14
f 14/14/14 31/31/31 15/15/15
f 31/31/31 32/32/32 15/15/15
f 15/15/15 32/32/32 16/16/16
f 32/32/32 33/33/33 16/16/16
f 16/16/16 33/33/33 17/17/17
f 33/33/33 34/34/34 17/17/17
f 51/51/51 52/52/52 35/35/35
f 52/52/52 53/53/53 36/36/36
f 53/53/53 54/54/54 37/37/37
f 54/54/54 55/55/55 38/38/38
f 55/55/55 56/56/56 39/39/39
f 56/56/56 57/57/57 40/40/40
f 57/57/57 58/58/58 41/41/41
f 58/58/58 59/59/59 42/42/42
f 59/59/59 60/60/60 43/43/43
f 60/60/60 61/61/61 44/44/44
f 61/61/61 62/62/62 45/45/45
f 62/62/62 63/63/63 46/46/46
f 63/63/63 64/64/64 47/47/47
f 64/64/64 65/65/65 48/48/48
f 65/65/65 66/66/66 49/49/49
f 66/66/66 67/67/67 50/50/50
f 85/85/85 84/84/84 68/68/68
f 86/86/86 85/85/85 69/69/69
f 87/87/87 86/86/86 70/70/70
f 88/88/88 87/87/87 71/71/71
f 89/89/89 88/88/88 72/72/72
f 90/90/90 89/89/89 73/73/73
f 91/91/91 90/90/90 74/74/74
f 92/92/92 91/91/91 75/75/75
f 93/93/93 92/92/92 76/76/76
f 94/94/94 93/93/93 77/77/77
f 95/95/95 94/94/94 78/78/78
f 96/96/96 95/95/95 79/79/79
f 97/97/97 96/96/96 80/80/80
f 98/98/98 97/97/97 81/81/81
f 99/99/99 98/98/98 82/82/82
f 100/100/100 99/99/99 83/83/83
