v -0.9781072836014219 -24.83303623132102 -16.831995234137537
v -0.9037397473493138 -24.844039399305352 -16.811065895231266
v -0.844026950202146 -24.870274143559072 -16.768220152622472
v -0.8080596521899807 -24.90774647815811 -16.709980859852923
v -0.8013135154476293 -24.950751567093775 -16.64521443841679
v -0.8248156042636273 -24.99274227947157 -16.583780984368985
v -0.8749879144702961 -25.027325915719935 -16.535033174148808
v -0.9441921941668372 -25.049237415940475 -16.506392443734512
v -1.0218926978072718 -25.055140970574904 -16.502219056901893
v -1.0962602340593797 -25.044137802590573 -16.523148395808164
v -1.1559730312065475 -25.017903058336856 -16.565994138416958
v -1.191940329218713 -24.98043072373781 -16.624233431186507
v -1.1986864659610643 -24.937425634802146 -16.68899985262264
v -1.175184377145066 -24.895434922424357 -16.750433306670445
v -1.1250120669383974 -24.860851286175986 -16.799181116890622
v -1.0558077872418563 -24.83893978595545 -16.827821847304918
v -0.9781072836014219 -24.83303623132102 -16.831995234137537
v -1.9781073021927282 0.11105260149854601 -0.16488793368617571
v -1.9037397659406203 0.10004943351421502 -0.1439585947799049
v -1.8440269687934525 0.07381468926049628 -0.10111285217110932
v -1.808059670781287 0.03634235466145519 -0.0428735594015599
v -1.8013135340389357 -0.006662734274209825 0.021892862034572858
v -1.824815622854934 -0.04865344665200233 0.08332631608237762
v -1.8749879330616026 -0.08323708290036969 0.13207412630255533
v -1.9441922127581437 -0.1051485831209078 0.16071485671684904
v -2.021892716398578 -0.11105213775533684 0.16488824354947162
v -2.096260252650686 -0.10004896977100586 0.14395890464320082
v -2.155973049797854 -0.07381422551728711 0.10111316203440524
v -2.1919403478100192 -0.03634189091824602 0.04287386926485581
v -2.1986864845523706 0.006663198017418992 -0.021892552171276947
v -2.175184395736373 0.0486539103952115 -0.0833260062190817
v -2.125012085529704 0.08323754664357885 -0.13207381643925942
v -2.0558078058331626 0.10514904686411697 -0.16071454685355313
v -1.9781073021927282 0.11105260149854601 -0.16488793368617571
v -0.9999999907043468 -24.944088600947964 -16.667107145519715
v -0.9999999907043468 -24.944088600947964 -16.667107145519715
v -0.9999999907043468 -24.944088600947964 -16.667107145519715
v -0.9999999907043468 -24.944088600947964 -16.667107145519715
v -0.9999999907043468 -24.944088600947964 -16.667107145519715
v -0.9999999907043468 -24.944088600947964 -16.667107145519715
v -0.9999999907043468 -24.944088600947964 -16.667107145519715
v -0.9999999907043468 -24.944088600947964 -16.667107145519715
v -0.9999999907043468 -24.944088600947964 -16.667107145519715
v -0.9999999907043468 -24.944088600947964 -16.667107145519715
v -0.9999999907043468 -24.944088600947964 -16.667107145519715
v -0.9999999907043468 -24.944088600947964 -16.667107145519715
v -0.9999999907043468 -24.944088600947964 -16.667107145519715
v -0.9999999907043468 -24.944088600947964 -16.667107145519715
v -0.9999999907043468 -24.944088600947964 -16.667107145519715
v -0.9999999907043468 -24.944088600947964 -16.667107145519715
v -0.9781072836014219 -24.83303623132102 -16.831995234137537
v -0.9037397473493138 -24.844039399305352 -16.811065895231266
v -0.844026950202146 -24.870274143559072 -16.768220152622472
v -0.8080596521899807 -24.90774647815811 -16.709980859852923
v -0.8013135154476293 -24.950751567093775 -16.64521443841679
v -0.8248156042636273 -24.99274227947157 -16.583780984368985
v -0.8749879144702961 -25.027325915719935 -16.535033174148808
v -0.9441921941668372 -25.049237415940475 -16.506392443734512
v -1.0218926978072718 -25.055140970574904 -16.502219056901893
v -1.0962602340593797 -25.044137802590573 -16.523148395808164
v -1.1559730312065475 -25.017903058336856 -16.565994138416958
v -1.191940329218713 -24.98043072373781 -16.624233431186507
v -1.1986864659610643 -24.937425634802146 -16.68899985262264
v -1.175184377145066 -24.895434922424357 -16.750433306670445
v -1.1250120669383974 -24.860851286175986 -16.799181116890622
v -1.0558077872418563 -24.83893978595545 -16.827821847304918
v -0.9781072836014219 -24.83303623132102 -16.831995234137537
v -2.000000009295653 2.31871604583489e-7 1.5493164795543635e-7
v -2.000000009295653 2.31871604583489e-7 1.5493164795543635e-7
v -2.000000009295653 2.31871604583489e-7 1.5493164795543635e-7
v -2.000000009295653 2.31871604583489e-7 1.5493164795543635e-7
v -2.000000009295653 2.31871604583489e-7 1.5493164795543635e-7
v -2.000000009295653 2.31871604583489e-7 1.5493164795543635e-7
v -2.000000009295653 2.31871604583489e-7 1.5493164795543635e-7
v -2.000000009295653 2.31871604583489e-7 1.5493164795543635e-7
v -2.000000009295653 2.31871604583489e-7 1.5493164795543635e-7
v -2.000000009295653 2.31871604583489e-7 1.5493164795543635e-7
v -2.000000009295653 2.31871604583489e-7 1.5493164795543635e-7
v -2.000000009295653 2.31871604583489e-7 1.5493164795543635e-7
v -2.000000009295653 2.31871604583489e-7 1.5493164795543635e-7
v -2.000000009295653 2.31871604583489e-7 1.5493164795543635e-7
v -2.000000009295653 2.31871604583489e-7 1.5493164795543635e-7
v -2.000000009295653 2.31871604583489e-7 1.5493164795543635e-7
v -1.9781073021927282 0.11105260149854601 -0.16488793368617571
v -1.9037397659406203 0.10004943351421502 -0.1439585947799049
v -1.8440269687934525 0.07381468926049628 -0.10111285217110932
v -1.808059670781287 0.03634235466145519 -0.0428735594015599
v -1.8013135340389357 -0.006662734274209825 0.021892862034572858
v -1.824815622854934 -0.04865344665200233 0.08332631608237762
v -1.8749879330616026 -0.08323708290036969 0.13207412630255533
v -1.9441922127581437 -0.1051485831209078 0.16071485671684904
v -2.021892716398578 -0.11105213775533684 0.16488824354947162
v -2.096260252650686 -0.10004896977100586 0.14395890464320082
v -2.155973049797854 -0.07381422551728711 0.10111316203440524
v -2.1919403478100192 -0.03634189091824602 0.04287386926485581
v -2.1986864845523706 0.006663198017418992 -0.021892552171276947
v -2.175184395736373 0.0486539103952115 -0.0833260062190817
v -2.125012085529704 0.08323754664357885 -0.13207381643925942
v -2.0558078058331626 0.10514904686411697 -0.16071454685355313
v -1.9781073021927282 0.11105260149854601 -0.16488793368617571
f 1 18 2
f 18 19 2
f 2 19 3
f 19 20 3
f 3 20 4
f 20 21 4
f 4 21 5
f 21 22 5
f 5 22 6
f 22 23 6
f 6 23 7
f 23 24 7
f 7 24 8
f 24 25 8
f 8 25 9
f 25 26 9
f 9 26 10
f 26 27 10
f 10 27 11
f 27 28 11
f 11 28 12
f 28 29 12
f 12 29 13
f 29 30 13
f 13 30 14
f 30 31 14
f 14 31 15
f 31 32 15
f 15 32 16
f 32 33 16
f 16 33 17
f 33 34 17
f 51 52 35
f 52 53 36
f 53 54 37
f 54 55 38
f 55 56 39
f 56 57 40
f 57 58 41
f 58 59 42
f 59 60 43
f 60 61 44
f 61 62 45
f 62 63 46
f 63 64 47
f 64 65 48
f 65 66 49
f 66 67 50
f 85 84 68
f 86 85 69
f 87 86 70
f 88 87 71
f 89 88 72
f 90 89 73
f 91 90 74
f 92 91 75
f 93 92 76
f 94 93 77
f 95 94 78
f 96 95 79
f 97 96 80
f 98 97 81
f 99 98 82
f 100 99 83
