v -1.0218926978072718 -25.055140970574907 16.50221905690188
v -0.9441921941668375 -25.04923741594048 16.506392443734498
v -0.8749879144702963 -25.027325915719942 16.535033174148793
v -0.8248156042636275 -24.99274227947157 16.58378098436897
v -0.8013135154476295 -24.950751567093782 16.645214438416776
v -0.8080596521899809 -24.907746478158117 16.70998085985291
v -0.8440269502021462 -24.870274143559072 16.768220152622458
v -0.903739747349314 -24.844039399305355 16.811065895231252
v -0.9781072836014221 -24.833036231321024 16.831995234137523
v -1.0558077872418565 -24.838939785955453 16.827821847304904
v -1.1250120669383976 -24.860851286175993 16.799181116890608
v -1.1751843771450665 -24.895434922424357 16.75043330667043
v -1.1986864659610643 -24.937425634802153 16.688999852622626
v -1.191940329218713 -24.98043072373782 16.624233431186493
v -1.1559730312065477 -25.017903058336856 16.565994138416944
v -1.09626023405938 -25.044137802590576 16.52314839580815
v -1.0218926978072718 -25.055140970574907 16.50221905690188
v -2.021892716398578 -0.1110521377553404 -0.16488824354946807
v -1.9441922127581435 -0.10514858312091135 -0.1607148567168455
v -1.8749879330616024 -0.08323708290037324 -0.13207412630255178
v -1.8248156228549335 -0.04865344665200588 -0.08332631608237406
v -1.8013135340389357 -0.006662734274213378 -0.021892862034569305
v -1.808059670781287 0.03634235466145164 0.042873559401563455
v -1.8440269687934523 0.07381468926049273 0.10111285217111288
v -1.90373976594062 0.10004943351421147 0.14395859477990847
v -1.9781073021927282 0.11105260149854246 0.16488793368617927
v -2.0558078058331626 0.10514904686411342 0.16071454685355668
v -2.1250120855297037 0.0832375466435753 0.13207381643926297
v -2.1751843957363723 0.048653910395207944 0.08332600621908526
v -2.1986864845523706 0.006663198017415439 0.0218925521712805
v -2.1919403478100192 -0.036341890918249575 -0.04287386926485226
v -2.1559730497978538 -0.07381422551729067 -0.10111316203440168
v -2.096260252650686 -0.10004896977100941 -0.14395890464319727
v -2.021892716398578 -0.1110521377553404 -0.16488824354946807
v -0.999999990704347 -24.944088600947964 16.6671071455197
v -0.999999990704347 -24.944088600947964 16.6671071455197
v -0.999999990704347 -24.944088600947964 16.6671071455197
v -0.999999990704347 -24.944088600947964 16.6671071455197
v -0.999999990704347 -24.944088600947964 16.6671071455197
v -0.999999990704347 -24.944088600947964 16.6671071455197
v -0.999999990704347 -24.944088600947964 16.6671071455197
v -0.999999990704347 -24.944088600947964 16.6671071455197
v -0.999999990704347 -24.944088600947964 16.6671071455197
v -0.999999990704347 -24.944088600947964 16.6671071455197
v -0.999999990704347 -24.944088600947964 16.6671071455197
v -0.999999990704347 -24.944088600947964 16.6671071455197
v -0.999999990704347 -24.944088600947964 16.6671071455197
v -0.999999990704347 -24.944088600947964 16.6671071455197
v -0.999999990704347 -24.944088600947964 16.6671071455197
v -0.999999990704347 -24.944088600947964 16.6671071455197
v -1.0218926978072718 -25.055140970574907 16.50221905690188
v -0.9441921941668375 -25.04923741594048 16.506392443734498
v -0.8749879144702963 -25.027325915719942 16.535033174148793
v -0.8248156042636275 -24.99274227947157 16.58378098436897
v -0.8013135154476295 -24.950751567093782 16.645214438416776
v -0.8080596521899809 -24.907746478158117 16.70998085985291
v -0.8440269502021462 -24.870274143559072 16.768220152622458
v -0.903739747349314 -24.844039399305355 16.811065895231252
v -0.9781072836014221 -24.833036231321024 16.831995234137523
v -1.0558077872418565 -24.838939785955453 16.827821847304904
v -1.1250120669383976 -24.860851286175993 16.799181116890608
v -1.1751843771450665 -24.895434922424357 16.75043330667043
v -1.1986864659610643 -24.937425634802153 16.688999852622626
v -1.191940329218713 -24.98043072373782 16.624233431186493
v -1.1559730312065477 -25.017903058336856 16.565994138416944
v -1.09626023405938 -25.044137802590576 16.52314839580815
v -1.0218926978072718 -25.055140970574907 16.50221905690188
v -2.000000009295653 2.318716010307753e-7 -1.5493164440272267e-7
v -2.000000009295653 2.318716010307753e-7 -1.5493164440272267e-7
v -2.000000009295653 2.318716010307753e-7 -1.5493164440272267e-7
v -2.000000009295653 2.318716010307753e-7 -1.5493164440272267e-7
v -2.000000009295653 2.318716010307753e-7 -1.5493164440272267e-7
v -2.000000009295653 2.318716010307753e-7 -1.5493164440272267e-7
v -2.000000009295653 2.318716010307753e-7 -1.5493164440272267e-7
v -2.000000009295653 2.318716010307753e-7 -1.5493164440272267e-7
v -2.000000009295653 2.318716010307753e-7 -1.5493164440272267e-7
v -2.000000009295653 2.318716010307753e-7 -1.5493164440272267e-7
v -2.000000009295653 2.318716010307753e-7 -1.5493164440272267e-7
v -2.000000009295653 2.318716010307753e-7 -1.5493164440272267e-7
v -2.000000009295653 2.318716010307753e-7 -1.5493164440272267e-7
v -2.000000009295653 2.318716010307753e-7 -1.5493164440272267e-7
v -2.000000009295653 2.318716010307753e-7 -1.5493164440272267e-7
v -2.000000009295653 2.318716010307753e-7 -1.5493164440272267e-7
v -2.021892716398578 -0.1110521377553404 -0.16488824354946807
v -1.9441922127581435 -0.10514858312091135 -0.1607148567168455
v -1.8749879330616024 -0.08323708290037324 -0.13207412630255178
v -1.8248156228549335 -0.04865344665200588 -0.08332631608237406
v -1.8013135340389357 -0.006662734274213378 -0.021892862034569305
v -1.808059670781287 0.03634235466145164 0.042873559401563455
v -1.8440269687934523 0.07381468926049273 0.10111285217111288
v -1.90373976594062 0.10004943351421147 0.14395859477990847
v -1.9781073021927282 0.11105260149854246 0.16488793368617927
v -2.0558078058331626 0.10514904686411342 0.16071454685355668
v -2.1250120855297037 0.0832375466435753 0.13207381643926297
v -2.1751843957363723 0.048653910395207944 0.08332600621908526
v -2.1986864845523706 0.006663198017415439 0.0218925521712805
v -2.1919403478100192 -0.036341890918249575 -0.04287386926485226
v -2.1559730497978538 -0.07381422551729067 -0.10111316203440168
v -2.096260252650686 -0.10004896977100941 -0.14395890464319727
v -2.021892716398578 -0.1110521377553404 -0.16488824354946807
f 1 18 2
f 18 19 2
f 2 19 3
f 19 20 3
f 3 20 4
f 20 21 4
f 4 21 5
f 21 22 5
f 5 22 6
f 22 23 6
f 6 23 7
f 23 24 7
f 7 24 8
f 24 25 8
f 8 25 9
f 25 26 9
f 9 26 10
f 26 27 10
f 10 27 11
f 27 28 11
f 11 28 12
f 28 29 12
f 12 29 13
f 29 30 13
f 13 30 14
f 30 31 14
f 14 31 15
f 31 32 15
f 15 32 16
f 32 33 16
f 16 33 17
f 33 34 17
f 51 52 35
f 52 53 36
f 53 54 37
f 54 55 38
f 55 56 39
f 56 57 40
f 57 58 41
f 58 59 42
f 59 60 43
f 60 61 44
f 61 62 45
f 62 63 46
f 63 64 47
f 64 65 48
f 65 66 49
f 66 67 50
f 85 84 68
f 86 85 69
f 87 86 70
f 88 87 71
f 89 88 72
f 90 89 73
f 91 90 74
f 92 91 75
f 93 92 76
f 94 93 77
f 95 94 78
f 96 95 79
f 97 96 80
f 98 97 81
f 99 98 82
f 100 99 83
