v 0.9955497266588148 11.665176419109457 -27.63973146597842
v 1.0723637228654728 11.653668799683278 -27.647269507027616
v 1.138161005320966 11.615798282473035 -27.665329937714525
v 1.1829245101280477 11.557330281503795 -27.69116323229619
v 1.199839429314841 11.487166043817286 -27.720836497026063
v 1.186330594661652 11.415987429572905 -27.749832249154885
v 1.1444546292866897 11.354630730252989 -27.77373615221226
v 1.0805867383554917 11.312436969009568 -27.788909043467044
v 1.004450254749878 11.295829736233486 -27.793040999982637
v 0.92763625854322 11.307337355659666 -27.785502958933442
v 0.8618389760877265 11.345207872869908 -27.767442528246534
v 0.8170754712806448 11.403675873839148 -27.741609233664867
v 0.8001605520938515 11.473840111525657 -27.711935968934995
v 0.8136693867470407 11.545018725770039 -27.682940216806173
v 0.8555453521220029 11.606375425089954 -27.6590363137488
v 0.9194132430532008 11.648569186333376 -27.643863422494015
v 0.9955497266588148 11.665176419109457 -27.63973146597842
v 1.995549745250122 0.18467323471921038 0.07665502464403318
v 2.07236374145678 0.17316561529303254 0.06911698359483687
v 2.1381610239122733 0.13529509808278917 0.05105655290792832
v 2.1829245287193553 0.07682709711354985 0.025223258326262155
v 2.1998394479061485 0.006662859427039258 -0.004450006403606821
v 2.1863306132529594 -0.06451575481734029 -0.03344575853242837
v 2.144454647877997 -0.1258724541372569 -0.057349661589801926
v 2.0805867569467993 -0.16806621538067912 -0.07252255284459075
v 2.004450273341185 -0.1846734481567589 -0.07665450936018203
v 1.9276362771345272 -0.17316582873058106 -0.06911646831098572
v 1.861838994679034 -0.1352953115203377 -0.05105603762407718
v 1.8170754898719523 -0.07682731055109837 -0.02522274304241101
v 1.800160570685159 -0.006663072864587782 0.0044505216874579645
v 1.813669405338348 0.06451554137979176 0.033446273816279515
v 1.8555453707133103 0.12587224069970837 0.05735017687365307
v 1.9194132616445083 0.1680660019431306 0.07252306812844189
v 1.995549745250122 0.18467323471921038 0.07665502464403318
v 0.9999999907043463 11.480503077671472 -27.71638623298053
v 0.9999999907043463 11.480503077671472 -27.71638623298053
v 0.9999999907043463 11.480503077671472 -27.71638623298053
v 0.9999999907043463 11.480503077671472 -27.71638623298053
v 0.9999999907043463 11.480503077671472 -27.71638623298053
v 0.9999999907043463 11.480503077671472 -27.71638623298053
v 0.9999999907043463 11.480503077671472 -27.71638623298053
v 0.9999999907043463 11.480503077671472 -27.71638623298053
v 0.9999999907043463 11.480503077671472 -27.71638623298053
v 0.9999999907043463 11.480503077671472 -27.71638623298053
v 0.9999999907043463 11.480503077671472 -27.71638623298053
v 0.9999999907043463 11.480503077671472 -27.71638623298053
v 0.9999999907043463 11.480503077671472 -27.71638623298053
v 0.9999999907043463 11.480503077671472 -27.71638623298053
v 0.9999999907043463 11.480503077671472 -27.71638623298053
v 0.9999999907043463 11.480503077671472 -27.71638623298053
v 0.9955497266588148 11.665176419109457 -27.63973146597842
v 1.0723637228654728 11.653668799683278 -27.647269507027616
v 1.138161005320966 11.615798282473035 -27.665329937714525
v 1.1829245101280477 11.557330281503795 -27.69116323229619
v 1.199839429314841 11.487166043817286 -27.720836497026063
v 1.186330594661652 11.415987429572905 -27.749832249154885
v 1.1444546292866897 11.354630730252989 -27.77373615221226
v 1.0805867383554917 11.312436969009568 -27.788909043467044
v 1.004450254749878 11.295829736233486 -27.793040999982637
v 0.92763625854322 11.307337355659666 -27.785502958933442
v 0.8618389760877265 11.345207872869908 -27.767442528246534
v 0.8170754712806448 11.403675873839148 -27.741609233664867
v 0.8001605520938515 11.473840111525657 -27.711935968934995
v 0.8136693867470407 11.545018725770039 -27.682940216806173
v 0.8555453521220029 11.606375425089954 -27.6590363137488
v 0.9194132430532008 11.648569186333376 -27.643863422494015
v 0.9955497266588148 11.665176419109457 -27.63973146597842
v 2.0000000092956536 -1.0671877426204901e-7 2.57641925571761e-7
v 2.0000000092956536 -1.0671877426204901e-7 2.57641925571761e-7
v 2.0000000092956536 -1.0671877426204901e-7 2.57641925571761e-7
v 2.0000000092956536 -1.0671877426204901e-7 2.57641925571761e-7
v 2.0000000092956536 -1.0671877426204901e-7 2.57641925571761e-7
v 2.0000000092956536 -1.0671877426204901e-7 2.57641925571761e-7
v 2.0000000092956536 -1.0671877426204901e-7 2.57641925571761e-7
v 2.0000000092956536 -1.0671877426204901e-7 2.57641925571761e-7
v 2.0000000092956536 -1.0671877426204901e-7 2.57641925571761e-7
v 2.0000000092956536 -1.0671877426204901e-7 2.57641925571761e-7
v 2.0000000092956536 -1.0671877426204901e-7 2.57641925571761e-7
v 2.0000000092956536 -1.0671877426204901e-7 2.57641925571761e-7
v 2.0000000092956536 -1.0671877426204901e-7 2.57641925571761e-7
v 2.0000000092956536 -1.0671877426204901e-7 2.57641925571761e-7
v 2.0000000092956536 -1.0671877426204901e-7 2.57641925571761e-7
v 2.0000000092956536 -1.0671877426204901e-7 2.57641925571761e-7
v 1.995549745250122 0.18467323471921038 0.07665502464403318
v 2.07236374145678 0.17316561529303254 0.06911698359483687
v 2.1381610239122733 0.13529509808278917 0.05105655290792832
v 2.1829245287193553 0.07682709711354985 0.025223258326262155
v 2.1998394479061485 0.006662859427039258 -0.004450006403606821
v 2.1863306132529594 -0.06451575481734029 -0.03344575853242837
v 2.144454647877997 -0.1258724541372569 -0.057349661589801926
v 2.0805867569467993 -0.16806621538067912 -0.07252255284459075
v 2.004450273341185 -0.1846734481567589 -0.07665450936018203
v 1.9276362771345272 -0.17316582873058106 -0.06911646831098572
v 1.861838994679034 -0.1352953115203377 -0.05105603762407718
v 1.8170754898719523 -0.07682731055109837 -0.02522274304241101
v 1.800160570685159 -0.006663072864587782 0.0044505216874579645
v 1.813669405338348 0.06451554137979176 0.033446273816279515
v 1.8555453707133103 0.12587224069970837 0.05735017687365307
v 1.9194132616445083 0.1680660019431306 0.07252306812844189
v 1.995549745250122 0.18467323471921038 0.07665502464403318
f 1 18 2
f 18 19 2
f 2 19 3
f 19 20 3
f 3 20 4
f 20 21 4
f 4 21 5
f 21 22 5
f 5 22 6
f 22 23 6
f 6 23 7
f 23 24 7
f 7 24 8
f 24 25 8
f 8 25 9
f 25 26 9
f 9 26 10
f 26 27 10
f 10 27 11
f 27 28 11
f 11 28 12
f 28 29 12
f 12 29 13
f 29 30 13
f 13 30 14
f 30 31 14
f 14 31 15
f 31 32 15
f 15 32 16
f 32 33 16
f 16 33 17
f 33 34 17
f 51 52 35
f 52 53 36
f 53 54 37
f 54 55 38
f 55 56 39
f 56 57 40
f 57 58 41
f 58 59 42
f 59 60 43
f 60 61 44
f 61 62 45
f 62 63 46
f 63 64 47
f 64 65 48
f 65 66 49
f 66 67 50
f 85 84 68
f 86 85 69
f 87 86 70
f 88 87 71
f 89 88 72
f 90 89 73
f 91 90 74
f 92 91 75
f 93 92 76
f 94 93 77
f 95 94 78
f 96 95 79
f 97 96 80
f 98 97 81
f 99 98 82
f 100 99 83
