# Exported from Three.js
o support_leg_back_left
v -0.02489864382811513 34.7732952465786 -1.7331981798498903
v 0.27599714321014535 34.725484891485195 -1.8010958483203607
v 0.5348749194958478 34.71946703607544 -1.9753952576824458
v 0.7123227972486905 34.7561578998542 -2.229561016466975
v 0.781326061437742 34.82997157744071 -2.5248986006442484
v 0.731379492772076 34.9296706370723 -2.816445570929244
v 0.5700871035946848 35.04007678916298 -3.0598165809454576
v 0.322004076077298 35.14438169565531 -3.217960501732091
v 0.02489890293131447 35.22670589347548 -3.266801474679176
v -0.275996884106946 35.27451624856889 -3.1989038062087056
v -0.5348746603926489 35.28053410397864 -3.0246043968466205
v -0.7123225381454916 35.24384324019988 -2.7704386380620916
v -0.7813258023345431 35.17002956261337 -2.475101053884818
v -0.7313792336688771 35.07033050298178 -2.183554083599822
v -0.570086844491486 34.9599243508911 -1.9401830735836088
v -0.32200381697409775 34.85561944439877 -1.7820391527969752
v -0.02489864382811513 34.7732952465786 -1.7331981798498903
v -7.524898902931314 1.7732941065245171 -11.733198525320823
v -7.224003115893054 1.725483751431117 -11.801096193791295
v -6.965125339607351 1.7194658960213616 -11.97539560315338
v -6.787677461854509 1.7561567598001204 -12.229561361937908
v -6.718674197665457 1.8299704373866277 -12.524898946115183
v -6.768620766331123 1.9296694970182173 -12.816445916400177
v -6.929913155508514 2.0400756491089 -13.059816926416392
v -7.177996183025902 2.144380555601227 -13.217960847203024
v -7.475101356171885 2.2267047534214015 -13.26680182015011
v -7.775997143210145 2.2745151085148017 -13.198904151679638
v -8.034874919495849 2.280532963924557 -13.024604742317553
v -8.21232279724869 2.243842100145798 -12.770438983533026
v -8.281326061437742 2.170028422559291 -12.47510139935575
v -8.231379492772076 2.0703293629277013 -12.183554429070757
v -8.070087103594684 1.9599232108370188 -11.940183419054542
v -7.822004076077298 1.8556183043446914 -11.78203949826791
v -7.524898902931314 1.7732941065245171 -11.733198525320823
v 1.295515996702079e-7 35.00000057002704 -2.499999827264533
v 1.295515996702079e-7 35.00000057002704 -2.499999827264533
v 1.295515996702079e-7 35.00000057002704 -2.499999827264533
v 1.295515996702079e-7 35.00000057002704 -2.499999827264533
v 1.295515996702079e-7 35.00000057002704 -2.499999827264533
v 1.295515996702079e-7 35.00000057002704 -2.499999827264533
v 1.295515996702079e-7 35.00000057002704 -2.499999827264533
v 1.295515996702079e-7 35.00000057002704 -2.499999827264533
v 1.295515996702079e-7 35.00000057002704 -2.499999827264533
v 1.295515996702079e-7 35.00000057002704 -2.499999827264533
v 1.295515996702079e-7 35.00000057002704 -2.499999827264533
v 1.295515996702079e-7 35.00000057002704 -2.499999827264533
v 1.295515996702079e-7 35.00000057002704 -2.499999827264533
v 1.295515996702079e-7 35.00000057002704 -2.499999827264533
v 1.295515996702079e-7 35.00000057002704 -2.499999827264533
v 1.295515996702079e-7 35.00000057002704 -2.499999827264533
v -0.02489864382811513 34.7732952465786 -1.7331981798498903
v 0.27599714321014535 34.725484891485195 -1.8010958483203607
v 0.5348749194958478 34.71946703607544 -1.9753952576824458
v 0.7123227972486905 34.7561578998542 -2.229561016466975
v 0.781326061437742 34.82997157744071 -2.5248986006442484
v 0.731379492772076 34.9296706370723 -2.816445570929244
v 0.5700871035946848 35.04007678916298 -3.0598165809454576
v 0.322004076077298 35.14438169565531 -3.217960501732091
v 0.02489890293131447 35.22670589347548 -3.266801474679176
v -0.275996884106946 35.27451624856889 -3.1989038062087056
v -0.5348746603926489 35.28053410397864 -3.0246043968466205
v -0.7123225381454916 35.24384324019988 -2.7704386380620916
v -0.7813258023345431 35.17002956261337 -2.475101053884818
v -0.7313792336688771 35.07033050298178 -2.183554083599822
v -0.570086844491486 34.9599243508911 -1.9401830735836088
v -0.32200381697409775 34.85561944439877 -1.7820391527969752
v -0.02489864382811513 34.7732952465786 -1.7331981798498903
v -7.5000001295516 1.9999994299729593 -12.500000172735467
v -7.5000001295516 1.9999994299729593 -12.500000172735467
v -7.5000001295516 1.9999994299729593 -12.500000172735467
v -7.5000001295516 1.9999994299729593 -12.500000172735467
v -7.5000001295516 1.9999994299729593 -12.500000172735467
v -7.5000001295516 1.9999994299729593 -12.500000172735467
v -7.5000001295516 1.9999994299729593 -12.500000172735467
v -7.5000001295516 1.9999994299729593 -12.500000172735467
v -7.5000001295516 1.9999994299729593 -12.500000172735467
v -7.5000001295516 1.9999994299729593 -12.500000172735467
v -7.5000001295516 1.9999994299729593 -12.500000172735467
v -7.5000001295516 1.9999994299729593 -12.500000172735467
v -7.5000001295516 1.9999994299729593 -12.500000172735467
v -7.5000001295516 1.9999994299729593 -12.500000172735467
v -7.5000001295516 1.9999994299729593 -12.500000172735467
v -7.5000001295516 1.9999994299729593 -12.500000172735467
v -7.524898902931314 1.7732941065245171 -11.733198525320823
v -7.224003115893054 1.725483751431117 -11.801096193791295
v -6.965125339607351 1.7194658960213616 -11.97539560315338
v -6.787677461854509 1.7561567598001204 -12.229561361937908
v -6.718674197665457 1.8299704373866277 -12.524898946115183
v -6.768620766331123 1.9296694970182173 -12.816445916400177
v -6.929913155508514 2.0400756491089 -13.059816926416392
v -7.177996183025902 2.144380555601227 -13.217960847203024
v -7.475101356171885 2.2267047534214015 -13.26680182015011
v -7.775997143210145 2.2745151085148017 -13.198904151679638
v -8.034874919495849 2.280532963924557 -13.024604742317553
v -8.21232279724869 2.243842100145798 -12.770438983533026
v -8.281326061437742 2.170028422559291 -12.47510139935575
v -8.231379492772076 2.0703293629277013 -12.183554429070757
v -8.070087103594684 1.9599232108370188 -11.940183419054542
v -7.822004076077298 1.8556183043446914 -11.78203949826791
v -7.524898902931314 1.7732941065245171 -11.733198525320823
f 1 18 2
f 18 19 2
f 2 19 3
f 19 20 3
f 3 20 4
f 20 21 4
f 4 21 5
f 21 22 5
f 5 22 6
f 22 23 6
f 6 23 7
f 23 24 7
f 7 24 8
f 24 25 8
f 8 25 9
f 25 26 9
f 9 26 10
f 26 27 10
f 10 27 11
f 27 28 11
f 11 28 12
f 28 29 12
f 12 29 13
f 29 30 13
f 13 30 14
f 30 31 14
f 14 31 15
f 31 32 15
f 15 32 16
f 32 33 16
f 16 33 17
f 33 34 17
f 51 52 35
f 52 53 36
f 53 54 37
f 54 55 38
f 55 56 39
f 56 57 40
f 57 58 41
f 58 59 42
f 59 60 43
f 60 61 44
f 61 62 45
f 62 63 46
f 63 64 47
f 64 65 48
f 65 66 49
f 66 67 50
f 85 84 68
f 86 85 69
f 87 86 70
f 88 87 71
f 89 88 72
f 90 89 73
f 91 90 74
f 92 91 75
f 93 92 76
f 94 93 77
f 95 94 78
f 96 95 79
f 97 96 80
f 98 97 81
f 99 98 82
f 100 99 83
