# OBJ file generated from Three.js mesh
# Mesh name: spoke_back_30

v -1.009963 23.334824 27.640251
v -0.932805 23.346331 27.642235
v -0.865878 23.384201 27.655506
v -0.819369 23.442669 27.678047
v -0.800359 23.512835 27.706423
v -0.811744 23.584013 27.736317
v -0.851788 23.645369 27.763176
v -0.914396 23.687563 27.782913
v -0.990037 23.704170 27.792521
v -1.067195 23.692663 27.790539
v -1.134122 23.654793 27.777266
v -1.180631 23.596325 27.754726
v -1.199641 23.526159 27.726349
v -1.188256 23.454981 27.696455
v -1.148212 23.393625 27.669596
v -1.085604 23.351431 27.649860
v -1.009963 23.334824 27.640251
v -2.009963 34.815327 -0.076135
v -1.932805 34.826836 -0.074152
v -1.865878 34.864704 -0.060880
v -1.819369 34.923172 -0.038340
v -1.800359 34.993336 -0.009963
v -1.811744 35.064514 0.019931
v -1.851788 35.125874 0.046790
v -1.914396 35.168068 0.066526
v -1.990037 35.184673 0.076134
v -2.067195 35.173164 0.074152
v -2.134122 35.135296 0.060880
v -2.180631 35.076828 0.038340
v -2.199641 35.006664 0.009963
v -2.188257 34.935486 -0.019931
v -2.148212 34.874126 -0.046791
v -2.085604 34.831936 -0.066527
v -2.009963 34.815327 -0.076135
v -1.000000 23.519497 27.716387
v -1.000000 23.519497 27.716387
v -1.000000 23.519497 27.716387
v -1.000000 23.519497 27.716387
v -1.000000 23.519497 27.716387
v -1.000000 23.519497 27.716387
v -1.000000 23.519497 27.716387
v -1.000000 23.519497 27.716387
v -1.000000 23.519497 27.716387
v -1.000000 23.519497 27.716387
v -1.000000 23.519497 27.716387
v -1.000000 23.519497 27.716387
v -1.000000 23.519497 27.716387
v -1.000000 23.519497 27.716387
v -1.000000 23.519497 27.716387
v -1.000000 23.519497 27.716387
v -1.009963 23.334824 27.640251
v -0.932805 23.346331 27.642235
v -0.865878 23.384201 27.655506
v -0.819369 23.442669 27.678047
v -0.800359 23.512835 27.706423
v -0.811744 23.584013 27.736317
v -0.851788 23.645369 27.763176
v -0.914396 23.687563 27.782913
v -0.990037 23.704170 27.792521
v -1.067195 23.692663 27.790539
v -1.134122 23.654793 27.777266
v -1.180631 23.596325 27.754726
v -1.199641 23.526159 27.726349
v -1.188256 23.454981 27.696455
v -1.148212 23.393625 27.669596
v -1.085604 23.351431 27.649860
v -1.009963 23.334824 27.640251
v -2.000000 35.000000 -0.000000
v -2.000000 35.000000 -0.000000
v -2.000000 35.000000 -0.000000
v -2.000000 35.000000 -0.000000
v -2.000000 35.000000 -0.000000
v -2.000000 35.000000 -0.000000
v -2.000000 35.000000 -0.000000
v -2.000000 35.000000 -0.000000
v -2.000000 35.000000 -0.000000
v -2.000000 35.000000 -0.000000
v -2.000000 35.000000 -0.000000
v -2.000000 35.000000 -0.000000
v -2.000000 35.000000 -0.000000
v -2.000000 35.000000 -0.000000
v -2.000000 35.000000 -0.000000
v -2.000000 35.000000 -0.000000
v -2.009963 34.815327 -0.076135
v -1.932805 34.826836 -0.074152
v -1.865878 34.864704 -0.060880
v -1.819369 34.923172 -0.038340
v -1.800359 34.993336 -0.009963
v -1.811744 35.064514 0.019931
v -1.851788 35.125874 0.046790
v -1.914396 35.168068 0.066526
v -1.990037 35.184673 0.076134
v -2.067195 35.173164 0.074152
v -2.134122 35.135296 0.060880
v -2.180631 35.076828 0.038340
v -2.199641 35.006664 0.009963
v -2.188257 34.935486 -0.019931
v -2.148212 34.874126 -0.046791
v -2.085604 34.831936 -0.066527
v -2.009963 34.815327 -0.076135

vn -0.049814 -0.923367 -0.380674
vn 0.335973 -0.865829 -0.370760
vn 0.670612 -0.676476 -0.304401
vn 0.903156 -0.384136 -0.191700
vn 0.998203 -0.033315 -0.049814
vn 0.941282 0.322578 0.099655
vn 0.741060 0.629362 0.233953
vn 0.428018 0.840331 0.332634
vn 0.049814 0.923367 0.380674
vn -0.335973 0.865829 0.370760
vn -0.670612 0.676476 0.304401
vn -0.903156 0.384136 0.191700
vn -0.998203 0.033315 0.049814
vn -0.941282 -0.322578 -0.099655
vn -0.741060 -0.629362 -0.233953
vn -0.428018 -0.840331 -0.332634
vn -0.049814 -0.923367 -0.380674
vn -0.049814 -0.923367 -0.380674
vn 0.335973 -0.865829 -0.370760
vn 0.670612 -0.676476 -0.304401
vn 0.903156 -0.384136 -0.191700
vn 0.998203 -0.033315 -0.049814
vn 0.941282 0.322578 0.099655
vn 0.741060 0.629362 0.233953
vn 0.428018 0.840331 0.332634
vn 0.049814 0.923367 0.380674
vn -0.335973 0.865829 0.370760
vn -0.670612 0.676476 0.304401
vn -0.903156 0.384136 0.191700
vn -0.998203 0.033315 0.049814
vn -0.941282 -0.322578 -0.099655
vn -0.741060 -0.629362 -0.233953
vn -0.428018 -0.840331 -0.332634
vn -0.049814 -0.923367 -0.380674
vn 0.033315 -0.382471 0.923367
vn 0.033315 -0.382471 0.923367
vn 0.033315 -0.382471 0.923367
vn 0.033315 -0.382471 0.923367
vn 0.033315 -0.382471 0.923367
vn 0.033315 -0.382471 0.923367
vn 0.033315 -0.382471 0.923367
vn 0.033315 -0.382471 0.923367
vn 0.033315 -0.382471 0.923367
vn 0.033315 -0.382471 0.923367
vn 0.033315 -0.382471 0.923367
vn 0.033315 -0.382471 0.923367
vn 0.033315 -0.382471 0.923367
vn 0.033315 -0.382471 0.923367
vn 0.033315 -0.382471 0.923367
vn 0.033315 -0.382471 0.923367
vn 0.033315 -0.382471 0.923367
vn 0.033315 -0.382471 0.923367
vn 0.033315 -0.382471 0.923367
vn 0.033315 -0.382471 0.923367
vn 0.033315 -0.382471 0.923367
vn 0.033315 -0.382471 0.923367
vn 0.033315 -0.382471 0.923367
vn 0.033315 -0.382471 0.923367
vn 0.033315 -0.382471 0.923367
vn 0.033315 -0.382471 0.923367
vn 0.033315 -0.382471 0.923367
vn 0.033315 -0.382471 0.923367
vn 0.033315 -0.382471 0.923367
vn 0.033315 -0.382471 0.923367
vn 0.033315 -0.382471 0.923367
vn 0.033315 -0.382471 0.923367
vn 0.033315 -0.382471 0.923367
vn -0.033315 0.382471 -0.923367
vn -0.033315 0.382471 -0.923367
vn -0.033315 0.382471 -0.923367
vn -0.033315 0.382471 -0.923367
vn -0.033315 0.382471 -0.923367
vn -0.033315 0.382471 -0.923367
vn -0.033315 0.382471 -0.923367
vn -0.033315 0.382471 -0.923367
vn -0.033315 0.382471 -0.923367
vn -0.033315 0.382471 -0.923367
vn -0.033315 0.382471 -0.923367
vn -0.033315 0.382471 -0.923367
vn -0.033315 0.382471 -0.923367
vn -0.033315 0.382471 -0.923367
vn -0.033315 0.382471 -0.923367
vn -0.033315 0.382471 -0.923367
vn -0.033315 0.382471 -0.923367
vn -0.033315 0.382471 -0.923367
vn -0.033315 0.382471 -0.923367
vn -0.033315 0.382471 -0.923367
vn -0.033315 0.382471 -0.923367
vn -0.033315 0.382471 -0.923367
vn -0.033315 0.382471 -0.923367
vn -0.033315 0.382471 -0.923367
vn -0.033315 0.382471 -0.923367
vn -0.033315 0.382471 -0.923367
vn -0.033315 0.382471 -0.923367
vn -0.033315 0.382471 -0.923367
vn -0.033315 0.382471 -0.923367
vn -0.033315 0.382471 -0.923367
vn -0.033315 0.382471 -0.923367
vn -0.033315 0.382471 -0.923367
vn -0.033315 0.382471 -0.923367

f 1//1 18//18 2//2
f 18//18 19//19 2//2
f 2//2 19//19 3//3
f 19//19 20//20 3//3
f 3//3 20//20 4//4
f 20//20 21//21 4//4
f 4//4 21//21 5//5
f 21//21 22//22 5//5
f 5//5 22//22 6//6
f 22//22 23//23 6//6
f 6//6 23//23 7//7
f 23//23 24//24 7//7
f 7//7 24//24 8//8
f 24//24 25//25 8//8
f 8//8 25//25 9//9
f 25//25 26//26 9//9
f 9//9 26//26 10//10
f 26//26 27//27 10//10
f 10//10 27//27 11//11
f 27//27 28//28 11//11
f 11//11 28//28 12//12
f 28//28 29//29 12//12
f 12//12 29//29 13//13
f 29//29 30//30 13//13
f 13//13 30//30 14//14
f 30//30 31//31 14//14
f 14//14 31//31 15//15
f 31//31 32//32 15//15
f 15//15 32//32 16//16
f 32//32 33//33 16//16
f 16//16 33//33 17//17
f 33//33 34//34 17//17
f 51//51 52//52 35//35
f 52//52 53//53 36//36
f 53//53 54//54 37//37
f 54//54 55//55 38//38
f 55//55 56//56 39//39
f 56//56 57//57 40//40
f 57//57 58//58 41//41
f 58//58 59//59 42//42
f 59//59 60//60 43//43
f 60//60 61//61 44//44
f 61//61 62//62 45//45
f 62//62 63//63 46//46
f 63//63 64//64 47//47
f 64//64 65//65 48//48
f 65//65 66//66 49//49
f 66//66 67//67 50//50
f 85//85 84//84 68//68
f 86//86 85//85 69//69
f 87//87 86//86 70//70
f 88//88 87//87 71//71
f 89//89 88//88 72//72
f 90//90 89//89 73//73
f 91//91 90//90 74//74
f 92//92 91//91 75//75
f 93//93 92//92 76//76
f 94//94 93//93 77//77
f 95//95 94//94 78//78
f 96//96 95//95 79//79
f 97//97 96//96 80//80
f 98//98 97//97 81//81
f 99//99 98//98 82//82
f 100//100 99//99 83//83
