o spoke_front_26
v 4.156845185996518 10.19998048974472 -1.6006614471905651
v 4.232823949572056 10.184518426883411 -1.6094808100216236
v 4.296459803664376 10.149904147886762 -1.6384977536216265
v 4.338064509035007 10.101407378953988 -1.6832943377474985
v 4.351304490522798 10.046411267564917 -1.7370515594633806
v 4.33416359388632 9.993288375547479 -1.7915832744410656
v 4.289251908397808 9.950126027507128 -1.838590043864409
v 4.2234064081363325 9.92349580650112 -1.8709142149414317
v 4.146651649563771 9.917451472103648 -1.883634652488693
v 4.070672870102484 9.93291309466941 -1.8748151072812487
v 4.007037016010164 9.967527373666057 -1.845798163681244
v 3.965432251898141 10.016024140613112 -1.8010015894659421
v 3.9521922862960976 10.071020692297733 -1.7472445501264486
v 3.9693331670468277 10.124143144019623 -1.692712652772375
v 4.014244911276733 10.167305494045689 -1.6457058734384615
v 4.080090368682564 10.193936153361532 -1.6133818946483993
v 4.156845185996518 10.19998048974472 -1.6006614471905651
v 2.310111730436157 -10.968134906632358 19.600767513616823
v 2.3860907449935067 -10.98359393474675 19.591946772081386
v 2.449726400716547 -11.018209939002183 19.562930632969753
v 2.491331135599962 -11.066706298985352 19.518133791978666
v 2.5045710816134785 -11.121703485071002 19.464377712808563
v 2.4874302855404564 -11.174827085249312 19.40984554366639
v 2.4425185120071937 -11.2179861671166 19.362837924720143
v 2.376672865858478 -11.244619390401787 19.330515219885758
v 2.29991810976356 -11.250663730498516 19.317794768795075
v 2.2239393397749865 -11.235201176048307 19.326614071140547
v 2.1603035653303397 -11.200585172914657 19.355630197202753
v 2.118698831066336 -11.152088814356304 19.400427034807983
v 2.1054590025356044 -11.097091624299225 19.454183133799226
v 2.1225996709032238 -11.0439715450605 19.50871676533836
v 2.167511455278515 -11.00080894764988 19.55572289868065
v 2.2333569743412385 -10.974179246729094 19.58804706252614
v 2.310111730436157 -10.968134906632358 19.600767513616823
v 4.151748417780144 10.058715980924184 -1.7421480498396296
v 4.151748417780144 10.058715980924184 -1.7421480498396296
v 4.151748417780144 10.058715980924184 -1.7421480498396296
v 4.151748417780144 10.058715980924184 -1.7421480498396296
v 4.151748417780144 10.058715980924184 -1.7421480498396296
v 4.151748417780144 10.058715980924184 -1.7421480498396296
v 4.151748417780144 10.058715980924184 -1.7421480498396296
v 4.151748417780144 10.058715980924184 -1.7421480498396296
v 4.151748417780144 10.058715980924184 -1.7421480498396296
v 4.151748417780144 10.058715980924184 -1.7421480498396296
v 4.151748417780144 10.058715980924184 -1.7421480498396296
v 4.151748417780144 10.058715980924184 -1.7421480498396296
v 4.151748417780144 10.058715980924184 -1.7421480498396296
v 4.151748417780144 10.058715980924184 -1.7421480498396296
v 4.151748417780144 10.058715980924184 -1.7421480498396296
v 4.151748417780144 10.058715980924184 -1.7421480498396296
v 4.156845185996518 10.19998048974472 -1.6006614471905651
v 4.232823949572056 10.184518426883411 -1.6094808100216236
v 4.296459803664376 10.149904147886762 -1.6384977536216265
v 4.338064509035007 10.101407378953988 -1.6832943377474985
v 4.351304490522798 10.046411267564917 -1.7370515594633806
v 4.33416359388632 9.993288375547479 -1.7915832744410656
v 4.289251908397808 9.950126027507128 -1.838590043864409
v 4.2234064081363325 9.92349580650112 -1.8709142149414317
v 4.146651649563771 9.917451472103648 -1.883634652488693
v 4.070672870102484 9.93291309466941 -1.8748151072812487
v 4.007037016010164 9.967527373666057 -1.845798163681244
v 3.965432251898141 10.016024140613112 -1.8010015894659421
v 3.9521922862960976 10.071020692297733 -1.7472445501264486
v 3.9693331670468277 10.124143144019623 -1.692712652772375
v 4.014244911276733 10.167305494045689 -1.6457058734384615
v 4.080090368682564 10.193936153361532 -1.6133818946483993
v 4.156845185996518 10.19998048974472 -1.6006614471905651
v 2.305014983242032 -11.10939755646124 19.459280413891392
v 2.305014983242032 -11.10939755646124 19.459280413891392
v 2.305014983242032 -11.10939755646124 19.459280413891392
v 2.305014983242032 -11.10939755646124 19.459280413891392
v 2.305014983242032 -11.10939755646124 19.459280413891392
v 2.305014983242032 -11.10939755646124 19.459280413891392
v 2.305014983242032 -11.10939755646124 19.459280413891392
v 2.305014983242032 -11.10939755646124 19.459280413891392
v 2.305014983242032 -11.10939755646124 19.459280413891392
v 2.305014983242032 -11.10939755646124 19.459280413891392
v 2.305014983242032 -11.10939755646124 19.459280413891392
v 2.305014983242032 -11.10939755646124 19.459280413891392
v 2.305014983242032 -11.10939755646124 19.459280413891392
v 2.305014983242032 -11.10939755646124 19.459280413891392
v 2.305014983242032 -11.10939755646124 19.459280413891392
v 2.305014983242032 -11.10939755646124 19.459280413891392
v 2.310111730436157 -10.968134906632358 19.600767513616823
v 2.3860907449935067 -10.98359393474675 19.591946772081386
v 2.449726400716547 -11.018209939002183 19.562930632969753
v 2.491331135599962 -11.066706298985352 19.518133791978666
v 2.5045710816134785 -11.121703485071002 19.464377712808563
v 2.4874302855404564 -11.174827085249312 19.40984554366639
v 2.4425185120071937 -11.2179861671166 19.362837924720143
v 2.376672865858478 -11.244619390401787 19.330515219885758
v 2.29991810976356 -11.250663730498516 19.317794768795075
v 2.2239393397749865 -11.235201176048307 19.326614071140547
v 2.1603035653303397 -11.200585172914657 19.355630197202753
v 2.118698831066336 -11.152088814356304 19.400427034807983
v 2.1054590025356044 -11.097091624299225 19.454183133799226
v 2.1225996709032238 -11.0439715450605 19.50871676533836
v 2.167511455278515 -11.00080894764988 19.55572289868065
v 2.2333569743412385 -10.974179246729094 19.58804706252614
v 2.310111730436157 -10.968134906632358 19.600767513616823
vt 0 1
vt 0.0625 1
vt 0.125 1
vt 0.1875 1
vt 0.25 1
vt 0.3125 1
vt 0.375 1
vt 0.4375 1
vt 0.5 1
vt 0.5625 1
vt 0.625 1
vt 0.6875 1
vt 0.75 1
vt 0.8125 1
vt 0.875 1
vt 0.9375 1
vt 1 1
vt 0 0
vt 0.0625 0
vt 0.125 0
vt 0.1875 0
vt 0.25 0
vt 0.3125 0
vt 0.375 0
vt 0.4375 0
vt 0.5 0
vt 0.5625 0
vt 0.625 0
vt 0.6875 0
vt 0.75 0
vt 0.8125 0
vt 0.875 0
vt 0.9375 0
vt 1 0
vt 0.5 0.5
vt 0.5 0.5
vt 0.5 0.5
vt 0.5 0.5
vt 0.5 0.5
vt 0.5 0.5
vt 0.5 0.5
vt 0.5 0.5
vt 0.5 0.5
vt 0.5 0.5
vt 0.5 0.5
vt 0.5 0.5
vt 0.5 0.5
vt 0.5 0.5
vt 0.5 0.5
vt 0.5 0.5
vt 1 0.5
vt 0.9619397521018982 0.6913416981697083
vt 0.8535534143447876 0.8535534143447876
vt 0.6913416981697083 0.9619397521018982
vt 0.5 1
vt 0.30865827202796936 0.9619397521018982
vt 0.1464466154575348 0.8535534143447876
vt 0.03806023299694061 0.6913416981697083
vt 0 0.5
vt 0.03806023299694061 0.30865827202796936
vt 0.1464466154575348 0.1464466154575348
vt 0.30865827202796936 0.03806023299694061
vt 0.5 0
vt 0.6913416981697083 0.03806023299694061
vt 0.8535534143447876 0.1464466154575348
vt 0.9619397521018982 0.30865827202796936
vt 1 0.5
vt 0.5 0.5
vt 0.5 0.5
vt 0.5 0.5
vt 0.5 0.5
vt 0.5 0.5
vt 0.5 0.5
vt 0.5 0.5
vt 0.5 0.5
vt 0.5 0.5
vt 0.5 0.5
vt 0.5 0.5
vt 0.5 0.5
vt 0.5 0.5
vt 0.5 0.5
vt 0.5 0.5
vt 0.5 0.5
vt 1 0.5
vt 0.9619397521018982 0.30865827202796936
vt 0.8535534143447876 0.1464466154575348
vt 0.6913416981697083 0.03806023299694061
vt 0.5 0
vt 0.30865827202796936 0.03806023299694061
vt 0.1464466154575348 0.1464466154575348
vt 0.03806023299694061 0.30865827202796936
vt 0 0.5
vt 0.03806023299694061 0.6913416981697083
vt 0.1464466154575348 0.8535534143447876
vt 0.30865827202796936 0.9619397521018982
vt 0.5 1
vt 0.6913416981697083 0.9619397521018982
vt 0.8535534143447876 0.8535534143447876
vt 0.9619397521018982 0.6913416981697083
vt 1 0.5
vn 0.025483913516780424 0.7063219633645615 0.7074318724942356
vn 0.40537803279815365 0.6290123554101109 0.6633340842035207
vn 0.723557019287594 0.4559412945545545 0.5182497233569634
vn 0.9315810152723676 0.21345731753391975 0.2942665213294373
vn 0.9977802440772605 -0.06152361305523704 0.02548390797644648
vn 0.9120764629829065 -0.32713813992147833 -0.24717840334727056
vn 0.687517324643589 -0.5429488235005085 -0.4822100199854159
vn 0.3582898995138854 -0.6761004918474615 -0.6438295370903316
vn -0.025483913516780424 -0.7063219633645615 -0.7074318724942356
vn -0.40537803279815365 -0.6290123554101109 -0.6633340842035207
vn -0.723557019287594 -0.4559412945545545 -0.5182497233569634
vn -0.9315810152723676 -0.21345731753391975 -0.2942665213294373
vn -0.9977802440772605 0.06152361305523704 -0.02548390797644648
vn -0.9120764629829065 0.32713813992147833 0.24717840334727056
vn -0.687517324643589 0.5429488235005085 0.4822100199854159
vn -0.3582898995138854 0.6761004918474615 0.6438295370903316
vn 0.025483913516780424 0.7063219633645615 0.7074318724942356
vn 0.025483913516780424 0.7063219633645615 0.7074318724942356
vn 0.40537803279815365 0.6290123554101109 0.6633340842035207
vn 0.723557019287594 0.4559412945545545 0.5182497233569634
vn 0.9315810152723676 0.21345731753391975 0.2942665213294373
vn 0.9977802440772605 -0.06152361305523704 0.02548390797644648
vn 0.9120764629829065 -0.32713813992147833 -0.24717840334727056
vn 0.687517324643589 -0.5429488235005085 -0.4822100199854159
vn 0.3582898995138854 -0.6761004918474615 -0.6438295370903316
vn -0.025483913516780424 -0.7063219633645615 -0.7074318724942356
vn -0.40537803279815365 -0.6290123554101109 -0.6633340842035207
vn -0.723557019287594 -0.4559412945545545 -0.5182497233569634
vn -0.9315810152723676 -0.21345731753391975 -0.2942665213294373
vn -0.9977802440772605 0.06152361305523704 -0.02548390797644648
vn -0.9120764629829065 0.32713813992147833 0.24717840334727056
vn -0.687517324643589 0.5429488235005085 0.4822100199854159
vn -0.3582898995138854 0.6761004918474615 0.6438295370903316
vn 0.025483913516780424 0.7063219633645615 0.7074318724942356
vn 0.06152360685851447 0.7052121014946301 -0.7063219787778423
vn 0.06152360685851447 0.7052121014946301 -0.7063219787778423
vn 0.06152360685851447 0.7052121014946301 -0.7063219787778423
vn 0.06152360685851447 0.7052121014946301 -0.7063219787778423
vn 0.06152360685851447 0.7052121014946301 -0.7063219787778423
vn 0.06152360685851447 0.7052121014946301 -0.7063219787778423
vn 0.06152360685851447 0.7052121014946301 -0.7063219787778423
vn 0.06152360685851447 0.7052121014946301 -0.7063219787778423
vn 0.06152360685851447 0.7052121014946301 -0.7063219787778423
vn 0.06152360685851447 0.7052121014946301 -0.7063219787778423
vn 0.06152360685851447 0.7052121014946301 -0.7063219787778423
vn 0.06152360685851447 0.7052121014946301 -0.7063219787778423
vn 0.06152360685851447 0.7052121014946301 -0.7063219787778423
vn 0.06152360685851447 0.7052121014946301 -0.7063219787778423
vn 0.06152360685851447 0.7052121014946301 -0.7063219787778423
vn 0.06152360685851447 0.7052121014946301 -0.7063219787778423
vn 0.06152360685851447 0.7052121014946301 -0.7063219787778423
vn 0.06152360685851447 0.7052121014946301 -0.7063219787778423
vn 0.06152360685851447 0.7052121014946301 -0.7063219787778423
vn 0.06152360685851447 0.7052121014946301 -0.7063219787778423
vn 0.06152360685851447 0.7052121014946301 -0.7063219787778423
vn 0.06152360685851447 0.7052121014946301 -0.7063219787778423
vn 0.06152360685851447 0.7052121014946301 -0.7063219787778423
vn 0.06152360685851447 0.7052121014946301 -0.7063219787778423
vn 0.06152360685851447 0.7052121014946301 -0.7063219787778423
vn 0.06152360685851447 0.7052121014946301 -0.7063219787778423
vn 0.06152360685851447 0.7052121014946301 -0.7063219787778423
vn 0.06152360685851447 0.7052121014946301 -0.7063219787778423
vn 0.06152360685851447 0.7052121014946301 -0.7063219787778423
vn 0.06152360685851447 0.7052121014946301 -0.7063219787778423
vn 0.06152360685851447 0.7052121014946301 -0.7063219787778423
vn 0.06152360685851447 0.7052121014946301 -0.7063219787778423
vn 0.06152360685851447 0.7052121014946301 -0.7063219787778423
vn -0.06152360685851447 -0.7052121014946301 0.7063219787778423
vn -0.06152360685851447 -0.7052121014946301 0.7063219787778423
vn -0.06152360685851447 -0.7052121014946301 0.7063219787778423
vn -0.06152360685851447 -0.7052121014946301 0.7063219787778423
vn -0.06152360685851447 -0.7052121014946301 0.7063219787778423
vn -0.06152360685851447 -0.7052121014946301 0.7063219787778423
vn -0.06152360685851447 -0.7052121014946301 0.7063219787778423
vn -0.06152360685851447 -0.7052121014946301 0.7063219787778423
vn -0.06152360685851447 -0.7052121014946301 0.7063219787778423
vn -0.06152360685851447 -0.7052121014946301 0.7063219787778423
vn -0.06152360685851447 -0.7052121014946301 0.7063219787778423
vn -0.06152360685851447 -0.7052121014946301 0.7063219787778423
vn -0.06152360685851447 -0.7052121014946301 0.7063219787778423
vn -0.06152360685851447 -0.7052121014946301 0.7063219787778423
vn -0.06152360685851447 -0.7052121014946301 0.7063219787778423
vn -0.06152360685851447 -0.7052121014946301 0.7063219787778423
vn -0.06152360685851447 -0.7052121014946301 0.7063219787778423
vn -0.06152360685851447 -0.7052121014946301 0.7063219787778423
vn -0.06152360685851447 -0.7052121014946301 0.7063219787778423
vn -0.06152360685851447 -0.7052121014946301 0.7063219787778423
vn -0.06152360685851447 -0.7052121014946301 0.7063219787778423
vn -0.06152360685851447 -0.7052121014946301 0.7063219787778423
vn -0.06152360685851447 -0.7052121014946301 0.7063219787778423
vn -0.06152360685851447 -0.7052121014946301 0.7063219787778423
vn -0.06152360685851447 -0.7052121014946301 0.7063219787778423
vn -0.06152360685851447 -0.7052121014946301 0.7063219787778423
vn -0.06152360685851447 -0.7052121014946301 0.7063219787778423
vn -0.06152360685851447 -0.7052121014946301 0.7063219787778423
vn -0.06152360685851447 -0.7052121014946301 0.7063219787778423
vn -0.06152360685851447 -0.7052121014946301 0.7063219787778423
vn -0.06152360685851447 -0.7052121014946301 0.7063219787778423
vn -0.06152360685851447 -0.7052121014946301 0.7063219787778423
vn -0.06152360685851447 -0.7052121014946301 0.7063219787778423
f 1/1/1 18/18/18 2/2/2
f 18/18/18 19/19/19 2/2/2
f 2/2/2 19/19/19 3/3/3
f 19/19/19 20/20/20 3/3/3
f 3/3/3 20/20/20 4/4/4
f 20/20/20 21/21/21 4/4/4
f 4/4/4 21/21/21 5/5/5
f 21/21/21 22/22/22 5/5/5
f 5/5/5 22/22/22 6/6/6
f 22/22/22 23/23/23 6/6/6
f 6/6/6 23/23/23 7/7/7
f 23/23/23 24/24/24 7/7/7
f 7/7/7 24/24/24 8/8/8
f 24/24/24 25/25/25 8/8/8
f 8/8/8 25/25/25 9/9/9
f 25/25/25 26/26/26 9/9/9
f 9/9/9 26/26/26 10/10/10
f 26/26/26 27/27/27 10/10/10
f 10/10/10 27/27/27 11/11/11
f 27/27/27 28/28/28 11/11/11
f 11/11/11 28/28/28 12/12/12
f 28/28/28 29/29/29 12/12/12
f 12/12/12 29/29/29 13/13/13
f 29/29/29 30/30/30 13/13/13
f 13/13/13 30/30/30 14/14/14
f 30/30/30 31/31/31 14/14/14
f 14/14/14 31/31/31 15/15/15
f 31/31/31 32/32/32 15/15/15
f 15/15/15 32/32/32 16/16/16
f 32/32/32 33/33/33 16/16/16
f 16/16/16 33/33/33 17/17/17
f 33/33/33 34/34/34 17/17/17
f 51/51/51 52/52/52 35/35/35
f 52/52/52 53/53/53 36/36/36
f 53/53/53 54/54/54 37/37/37
f 54/54/54 55/55/55 38/38/38
f 55/55/55 56/56/56 39/39/39
f 56/56/56 57/57/57 40/40/40
f 57/57/57 58/58/58 41/41/41
f 58/58/58 59/59/59 42/42/42
f 59/59/59 60/60/60 43/43/43
f 60/60/60 61/61/61 44/44/44
f 61/61/61 62/62/62 45/45/45
f 62/62/62 63/63/63 46/46/46
f 63/63/63 64/64/64 47/47/47
f 64/64/64 65/65/65 48/48/48
f 65/65/65 66/66/66 49/49/49
f 66/66/66 67/67/67 50/50/50
f 85/85/85 84/84/84 68/68/68
f 86/86/86 85/85/85 69/69/69
f 87/87/87 86/86/86 70/70/70
f 88/88/88 87/87/87 71/71/71
f 89/89/89 88/88/88 72/72/72
f 90/90/90 89/89/89 73/73/73
f 91/91/91 90/90/90 74/74/74
f 92/92/92 91/91/91 75/75/75
f 93/93/93 92/92/92 76/76/76
f 94/94/94 93/93/93 77/77/77
f 95/95/95 94/94/94 78/78/78
f 96/96/96 95/95/95 79/79/79
f 97/97/97 96/96/96 80/80/80
f 98/98/98 97/97/97 81/81/81
f 99/99/99 98/98/98 82/82/82
f 100/100/100 99/99/99 83/83/83
