o spoke_back_17
v -2.7081250265882133 -2.4948646243248547 -37.81155947490365
v -2.632752491660507 -2.488049073031945 -37.79252809710616
v -2.570843472778335 -2.4706348461965746 -37.74832907406226
v -2.531823030562714 -2.445269236626025 -37.68569096669368
v -2.5216315767220294 -2.415813562305729 -37.61414823065409
v -2.5418207083842668 -2.3867546717450807 -37.54459620451056
v -2.589316814444291 -2.3625150587807795 -37.487620441071684
v -2.656889067351034 -2.3467846653552655 -37.45189625490823
v -2.734250244223121 -2.341960473340613 -37.442862694094316
v -2.8096226422543844 -2.3487741569581857 -37.46189443874293
v -2.8715317980329993 -2.3661902514688933 -37.506093094935714
v -2.9105522362280922 -2.391556230952432 -37.56873307438329
v -2.920743557192862 -2.4210096676844017 -37.64027430519499
v -2.90055454457556 -2.4500685542736207 -37.7098263361744
v -2.853058378993068 -2.474308169223633 -37.76680209719534
v -2.7854861260863246 -2.490038562649147 -37.802526283358795
v -2.7081250265882133 -2.4948646243248547 -37.81155947490365
v -2.318160874063389 25.23945224209669 -49.28569102569184
v -2.242788530507859 25.246266516713874 -49.2666574546559
v -2.180879401931032 25.263681953921864 -49.22245866864196
v -2.141858826638178 25.289047431531905 -49.15982247629788
v -2.131667589085418 25.318502667397315 -49.088277714599144
v -2.1518566032517104 25.34756151655679 -49.01872567622714
v -2.1993527078602644 25.371800697529512 -48.96175177260637
v -2.266924986910949 25.387530459214084 -48.92602746167037
v -2.344286070198592 25.392355939379804 -48.91699220810914
v -2.4196586518439935 25.385541672705493 -48.936025788816835
v -2.481567661375885 25.368126231526066 -48.980224569994895
v -2.5205879905567015 25.342760005690717 -49.04286449673504
v -2.530779474259279 25.3133055171377 -49.114405523857414
v -2.5105903410102703 25.284246664919703 -49.18395755757384
v -2.4630943554466525 25.260007487918422 -49.24093146603049
v -2.3955219573510327 25.24427772226241 -49.276655772130624
v -2.318160874063389 25.23945224209669 -49.28569102569184
v -2.721187603634169 -2.4184127347820876 -37.62721201932951
v -2.721187603634169 -2.4184127347820876 -37.62721201932951
v -2.721187603634169 -2.4184127347820876 -37.62721201932951
v -2.721187603634169 -2.4184127347820876 -37.62721201932951
v -2.721187603634169 -2.4184127347820876 -37.62721201932951
v -2.721187603634169 -2.4184127347820876 -37.62721201932951
v -2.721187603634169 -2.4184127347820876 -37.62721201932951
v -2.721187603634169 -2.4184127347820876 -37.62721201932951
v -2.721187603634169 -2.4184127347820876 -37.62721201932951
v -2.721187603634169 -2.4184127347820876 -37.62721201932951
v -2.721187603634169 -2.4184127347820876 -37.62721201932951
v -2.721187603634169 -2.4184127347820876 -37.62721201932951
v -2.721187603634169 -2.4184127347820876 -37.62721201932951
v -2.721187603634169 -2.4184127347820876 -37.62721201932951
v -2.721187603634169 -2.4184127347820876 -37.62721201932951
v -2.721187603634169 -2.4184127347820876 -37.62721201932951
v -2.7081250265882133 -2.4948646243248547 -37.81155947490365
v -2.632752491660507 -2.488049073031945 -37.79252809710616
v -2.570843472778335 -2.4706348461965746 -37.74832907406226
v -2.531823030562714 -2.445269236626025 -37.68569096669368
v -2.5216315767220294 -2.415813562305729 -37.61414823065409
v -2.5418207083842668 -2.3867546717450807 -37.54459620451056
v -2.589316814444291 -2.3625150587807795 -37.487620441071684
v -2.656889067351034 -2.3467846653552655 -37.45189625490823
v -2.734250244223121 -2.341960473340613 -37.442862694094316
v -2.8096226422543844 -2.3487741569581857 -37.46189443874293
v -2.8715317980329993 -2.3661902514688933 -37.506093094935714
v -2.9105522362280922 -2.391556230952432 -37.56873307438329
v -2.920743557192862 -2.4210096676844017 -37.64027430519499
v -2.90055454457556 -2.4500685542736207 -37.7098263361744
v -2.853058378993068 -2.474308169223633 -37.76680209719534
v -2.7854861260863246 -2.490038562649147 -37.802526283358795
v -2.7081250265882133 -2.4948646243248547 -37.81155947490365
v -2.331223531665532 25.315904092432213 -49.10134161926081
v -2.331223531665532 25.315904092432213 -49.10134161926081
v -2.331223531665532 25.315904092432213 -49.10134161926081
v -2.331223531665532 25.315904092432213 -49.10134161926081
v -2.331223531665532 25.315904092432213 -49.10134161926081
v -2.331223531665532 25.315904092432213 -49.10134161926081
v -2.331223531665532 25.315904092432213 -49.10134161926081
v -2.331223531665532 25.315904092432213 -49.10134161926081
v -2.331223531665532 25.315904092432213 -49.10134161926081
v -2.331223531665532 25.315904092432213 -49.10134161926081
v -2.331223531665532 25.315904092432213 -49.10134161926081
v -2.331223531665532 25.315904092432213 -49.10134161926081
v -2.331223531665532 25.315904092432213 -49.10134161926081
v -2.331223531665532 25.315904092432213 -49.10134161926081
v -2.331223531665532 25.315904092432213 -49.10134161926081
v -2.331223531665532 25.315904092432213 -49.10134161926081
v -2.318160874063389 25.23945224209669 -49.28569102569184
v -2.242788530507859 25.246266516713874 -49.2666574546559
v -2.180879401931032 25.263681953921864 -49.22245866864196
v -2.141858826638178 25.289047431531905 -49.15982247629788
v -2.131667589085418 25.318502667397315 -49.088277714599144
v -2.1518566032517104 25.34756151655679 -49.01872567622714
v -2.1993527078602644 25.371800697529512 -48.96175177260637
v -2.266924986910949 25.387530459214084 -48.92602746167037
v -2.344286070198592 25.392355939379804 -48.91699220810914
v -2.4196586518439935 25.385541672705493 -48.936025788816835
v -2.481567661375885 25.368126231526066 -48.980224569994895
v -2.5205879905567015 25.342760005690717 -49.04286449673504
v -2.530779474259279 25.3133055171377 -49.114405523857414
v -2.5105903410102703 25.284246664919703 -49.18395755757384
v -2.4630943554466525 25.260007487918422 -49.24093146603049
v -2.3955219573510327 25.24427772226241 -49.276655772130624
v -2.318160874063389 25.23945224209669 -49.28569102569184
vt 0 1
vt 0.0625 1
vt 0.125 1
vt 0.1875 1
vt 0.25 1
vt 0.3125 1
vt 0.375 1
vt 0.4375 1
vt 0.5 1
vt 0.5625 1
vt 0.625 1
vt 0.6875 1
vt 0.75 1
vt 0.8125 1
vt 0.875 1
vt 0.9375 1
vt 1 1
vt 0 0
vt 0.0625 0
vt 0.125 0
vt 0.1875 0
vt 0.25 0
vt 0.3125 0
vt 0.375 0
vt 0.4375 0
vt 0.5 0
vt 0.5625 0
vt 0.625 0
vt 0.6875 0
vt 0.75 0
vt 0.8125 0
vt 0.875 0
vt 0.9375 0
vt 1 0
vt 0.5 0.5
vt 0.5 0.5
vt 0.5 0.5
vt 0.5 0.5
vt 0.5 0.5
vt 0.5 0.5
vt 0.5 0.5
vt 0.5 0.5
vt 0.5 0.5
vt 0.5 0.5
vt 0.5 0.5
vt 0.5 0.5
vt 0.5 0.5
vt 0.5 0.5
vt 0.5 0.5
vt 0.5 0.5
vt 1 0.5
vt 0.9619397521018982 0.6913416981697083
vt 0.8535534143447876 0.8535534143447876
vt 0.6913416981697083 0.9619397521018982
vt 0.5 1
vt 0.30865827202796936 0.9619397521018982
vt 0.1464466154575348 0.8535534143447876
vt 0.03806023299694061 0.6913416981697083
vt 0 0.5
vt 0.03806023299694061 0.30865827202796936
vt 0.1464466154575348 0.1464466154575348
vt 0.30865827202796936 0.03806023299694061
vt 0.5 0
vt 0.6913416981697083 0.03806023299694061
vt 0.8535534143447876 0.1464466154575348
vt 0.9619397521018982 0.30865827202796936
vt 1 0.5
vt 0.5 0.5
vt 0.5 0.5
vt 0.5 0.5
vt 0.5 0.5
vt 0.5 0.5
vt 0.5 0.5
vt 0.5 0.5
vt 0.5 0.5
vt 0.5 0.5
vt 0.5 0.5
vt 0.5 0.5
vt 0.5 0.5
vt 0.5 0.5
vt 0.5 0.5
vt 0.5 0.5
vt 0.5 0.5
vt 1 0.5
vt 0.9619397521018982 0.30865827202796936
vt 0.8535534143447876 0.1464466154575348
vt 0.6913416981697083 0.03806023299694061
vt 0.5 0
vt 0.30865827202796936 0.03806023299694061
vt 0.1464466154575348 0.1464466154575348
vt 0.03806023299694061 0.30865827202796936
vt 0 0.5
vt 0.03806023299694061 0.6913416981697083
vt 0.1464466154575348 0.8535534143447876
vt 0.30865827202796936 0.9619397521018982
vt 0.5 1
vt 0.6913416981697083 0.9619397521018982
vt 0.8535534143447876 0.8535534143447876
vt 0.9619397521018982 0.6913416981697083
vt 1 0.5
vn 0.06531311501711239 -0.3822586888305272 -0.9217442659546777
vn 0.44217542688832046 -0.34818931859577257 -0.8265864082308293
vn 0.7517205072313186 -0.2611112825722036 -0.6055882901125054
vn 0.9468229919059141 -0.13428141246516614 -0.29239480888807384
vn 0.9977802440508249 0.012991587602244932 0.06531311685603294
vn 0.8968344888895832 0.15828673685807848 0.41307772691465905
vn 0.6593538195564268 0.2794841640041083 0.6979549718336244
vn 0.3214925333480234 0.35813265182775106 0.8765748996499346
vn -0.06531311501711239 0.3822586888305272 0.9217442659546777
vn -0.44217542688832046 0.34818931859577257 0.8265864082308293
vn -0.7517205072313186 0.2611112825722036 0.6055882901125054
vn -0.9468229919059141 0.13428141246516614 0.29239480888807384
vn -0.9977802440508249 -0.012991587602244932 -0.06531311685603294
vn -0.8968344888895832 -0.15828673685807848 -0.41307772691465905
vn -0.6593538195564268 -0.2794841640041083 -0.6979549718336244
vn -0.3214925333480234 -0.35813265182775106 -0.8765748996499346
vn 0.06531311501711239 -0.3822586888305272 -0.9217442659546777
vn 0.06531311501711239 -0.3822586888305272 -0.9217442659546777
vn 0.44217542688832046 -0.34818931859577257 -0.8265864082308293
vn 0.7517205072313186 -0.2611112825722036 -0.6055882901125054
vn 0.9468229919059141 -0.13428141246516614 -0.29239480888807384
vn 0.9977802440508249 0.012991587602244932 0.06531311685603294
vn 0.8968344888895832 0.15828673685807848 0.41307772691465905
vn 0.6593538195564268 0.2794841640041083 0.6979549718336244
vn 0.3214925333480234 0.35813265182775106 0.8765748996499346
vn -0.06531311501711239 0.3822586888305272 0.9217442659546777
vn -0.44217542688832046 0.34818931859577257 0.8265864082308293
vn -0.7517205072313186 0.2611112825722036 0.6055882901125054
vn -0.9468229919059141 0.13428141246516614 0.29239480888807384
vn -0.9977802440508249 -0.012991587602244932 -0.06531311685603294
vn -0.8968344888895832 -0.15828673685807848 -0.41307772691465905
vn -0.6593538195564268 -0.2794841640041083 -0.6979549718336244
vn -0.3214925333480234 -0.35813265182775106 -0.8765748996499346
vn 0.06531311501711239 -0.3822586888305272 -0.9217442659546777
vn -0.012991585626923553 -0.9239640215457091 0.382258689360986
vn -0.012991585626923553 -0.9239640215457091 0.382258689360986
vn -0.012991585626923553 -0.9239640215457091 0.382258689360986
vn -0.012991585626923553 -0.9239640215457091 0.382258689360986
vn -0.012991585626923553 -0.9239640215457091 0.382258689360986
vn -0.012991585626923553 -0.9239640215457091 0.382258689360986
vn -0.012991585626923553 -0.9239640215457091 0.382258689360986
vn -0.012991585626923553 -0.9239640215457091 0.382258689360986
vn -0.012991585626923553 -0.9239640215457091 0.382258689360986
vn -0.012991585626923553 -0.9239640215457091 0.382258689360986
vn -0.012991585626923553 -0.9239640215457091 0.382258689360986
vn -0.012991585626923553 -0.9239640215457091 0.382258689360986
vn -0.012991585626923553 -0.9239640215457091 0.382258689360986
vn -0.012991585626923553 -0.9239640215457091 0.382258689360986
vn -0.012991585626923553 -0.9239640215457091 0.382258689360986
vn -0.012991585626923553 -0.9239640215457091 0.382258689360986
vn -0.012991585626923553 -0.9239640215457091 0.382258689360986
vn -0.012991585626923553 -0.9239640215457091 0.382258689360986
vn -0.012991585626923553 -0.9239640215457091 0.382258689360986
vn -0.012991585626923553 -0.9239640215457091 0.382258689360986
vn -0.012991585626923553 -0.9239640215457091 0.382258689360986
vn -0.012991585626923553 -0.9239640215457091 0.382258689360986
vn -0.012991585626923553 -0.9239640215457091 0.382258689360986
vn -0.012991585626923553 -0.9239640215457091 0.382258689360986
vn -0.012991585626923553 -0.9239640215457091 0.382258689360986
vn -0.012991585626923553 -0.9239640215457091 0.382258689360986
vn -0.012991585626923553 -0.9239640215457091 0.382258689360986
vn -0.012991585626923553 -0.9239640215457091 0.382258689360986
vn -0.012991585626923553 -0.9239640215457091 0.382258689360986
vn -0.012991585626923553 -0.9239640215457091 0.382258689360986
vn -0.012991585626923553 -0.9239640215457091 0.382258689360986
vn -0.012991585626923553 -0.9239640215457091 0.382258689360986
vn -0.012991585626923553 -0.9239640215457091 0.382258689360986
vn 0.012991585626923553 0.9239640215457091 -0.382258689360986
vn 0.012991585626923553 0.9239640215457091 -0.382258689360986
vn 0.012991585626923553 0.9239640215457091 -0.382258689360986
vn 0.012991585626923553 0.9239640215457091 -0.382258689360986
vn 0.012991585626923553 0.9239640215457091 -0.382258689360986
vn 0.012991585626923553 0.9239640215457091 -0.382258689360986
vn 0.012991585626923553 0.9239640215457091 -0.382258689360986
vn 0.012991585626923553 0.9239640215457091 -0.382258689360986
vn 0.012991585626923553 0.9239640215457091 -0.382258689360986
vn 0.012991585626923553 0.9239640215457091 -0.382258689360986
vn 0.012991585626923553 0.9239640215457091 -0.382258689360986
vn 0.012991585626923553 0.9239640215457091 -0.382258689360986
vn 0.012991585626923553 0.9239640215457091 -0.382258689360986
vn 0.012991585626923553 0.9239640215457091 -0.382258689360986
vn 0.012991585626923553 0.9239640215457091 -0.382258689360986
vn 0.012991585626923553 0.9239640215457091 -0.382258689360986
vn 0.012991585626923553 0.9239640215457091 -0.382258689360986
vn 0.012991585626923553 0.9239640215457091 -0.382258689360986
vn 0.012991585626923553 0.9239640215457091 -0.382258689360986
vn 0.012991585626923553 0.9239640215457091 -0.382258689360986
vn 0.012991585626923553 0.9239640215457091 -0.382258689360986
vn 0.012991585626923553 0.9239640215457091 -0.382258689360986
vn 0.012991585626923553 0.9239640215457091 -0.382258689360986
vn 0.012991585626923553 0.9239640215457091 -0.382258689360986
vn 0.012991585626923553 0.9239640215457091 -0.382258689360986
vn 0.012991585626923553 0.9239640215457091 -0.382258689360986
vn 0.012991585626923553 0.9239640215457091 -0.382258689360986
vn 0.012991585626923553 0.9239640215457091 -0.382258689360986
vn 0.012991585626923553 0.9239640215457091 -0.382258689360986
vn 0.012991585626923553 0.9239640215457091 -0.382258689360986
vn 0.012991585626923553 0.9239640215457091 -0.382258689360986
vn 0.012991585626923553 0.9239640215457091 -0.382258689360986
vn 0.012991585626923553 0.9239640215457091 -0.382258689360986
f 1/1/1 18/18/18 2/2/2
f 18/18/18 19/19/19 2/2/2
f 2/2/2 19/19/19 3/3/3
f 19/19/19 20/20/20 3/3/3
f 3/3/3 20/20/20 4/4/4
f 20/20/20 21/21/21 4/4/4
f 4/4/4 21/21/21 5/5/5
f 21/21/21 22/22/22 5/5/5
f 5/5/5 22/22/22 6/6/6
f 22/22/22 23/23/23 6/6/6
f 6/6/6 23/23/23 7/7/7
f 23/23/23 24/24/24 7/7/7
f 7/7/7 24/24/24 8/8/8
f 24/24/24 25/25/25 8/8/8
f 8/8/8 25/25/25 9/9/9
f 25/25/25 26/26/26 9/9/9
f 9/9/9 26/26/26 10/10/10
f 26/26/26 27/27/27 10/10/10
f 10/10/10 27/27/27 11/11/11
f 27/27/27 28/28/28 11/11/11
f 11/11/11 28/28/28 12/12/12
f 28/28/28 29/29/29 12/12/12
f 12/12/12 29/29/29 13/13/13
f 29/29/29 30/30/30 13/13/13
f 13/13/13 30/30/30 14/14/14
f 30/30/30 31/31/31 14/14/14
f 14/14/14 31/31/31 15/15/15
f 31/31/31 32/32/32 15/15/15
f 15/15/15 32/32/32 16/16/16
f 32/32/32 33/33/33 16/16/16
f 16/16/16 33/33/33 17/17/17
f 33/33/33 34/34/34 17/17/17
f 51/51/51 52/52/52 35/35/35
f 52/52/52 53/53/53 36/36/36
f 53/53/53 54/54/54 37/37/37
f 54/54/54 55/55/55 38/38/38
f 55/55/55 56/56/56 39/39/39
f 56/56/56 57/57/57 40/40/40
f 57/57/57 58/58/58 41/41/41
f 58/58/58 59/59/59 42/42/42
f 59/59/59 60/60/60 43/43/43
f 60/60/60 61/61/61 44/44/44
f 61/61/61 62/62/62 45/45/45
f 62/62/62 63/63/63 46/46/46
f 63/63/63 64/64/64 47/47/47
f 64/64/64 65/65/65 48/48/48
f 65/65/65 66/66/66 49/49/49
f 66/66/66 67/67/67 50/50/50
f 85/85/85 84/84/84 68/68/68
f 86/86/86 85/85/85 69/69/69
f 87/87/87 86/86/86 70/70/70
f 88/88/88 87/87/87 71/71/71
f 89/89/89 88/88/88 72/72/72
f 90/90/90 89/89/89 73/73/73
f 91/91/91 90/90/90 74/74/74
f 92/92/92 91/91/91 75/75/75
f 93/93/93 92/92/92 76/76/76
f 94/94/94 93/93/93 77/77/77
f 95/95/95 94/94/94 78/78/78
f 96/96/96 95/95/95 79/79/79
f 97/97/97 96/96/96 80/80/80
f 98/98/98 97/97/97 81/81/81
f 99/99/99 98/98/98 82/82/82
f 100/100/100 99/99/99 83/83/83
