o spoke_front_28
v 3.7492585931361697 -0.10850891144835373 5.519028833499391
v 3.824908588822465 -0.1273198909737019 5.522615578903439
v 3.8876076363655727 -0.1736812333614779 5.525624169545031
v 3.9278106269308335 -0.24053523029080282 5.527593943214486
v 3.9393970748963083 -0.3177040631336183 5.528224512559111
v 3.920602716309877 -0.39343960187148497 5.5274230970419165
v 3.8742890330006556 -0.4562092014438548 5.525310004837941
v 3.8075068902028324 -0.4964604670667363 5.5222064721591035
v 3.73042331227566 -0.5080651939312943 5.518585390323267
v 3.6547734077399463 -0.4892535384449772 5.514997975728846
v 3.5920741753093255 -0.44289152208195404 5.511991399795043
v 3.5518712441231486 -0.37603752316691086 5.510021630910465
v 3.5402848279291717 -0.2988680163488482 5.509390387590589
v 3.559079189101953 -0.2231345035081631 5.510191126780741
v 3.605392751066657 -0.16036288201004822 5.512304885742006
v 3.6721748938644807 -0.12011161638716317 5.515408418420844
v 3.7492585931361697 -0.10850891144835373 5.519028833499391
v 2.33582991920339 -0.07519387059845783 35.502377589063826
v 2.4114797565845967 -0.09400545961988982 35.505965066957444
v 2.4741791198789693 -0.14036567123385524 35.50897075491284
v 2.514382167934434 -0.20721922060148756 35.51093962940588
v 2.525968280339335 -0.2843899635019973 35.51157367066722
v 2.5071740891013308 -0.3601240186821393 35.51077104770019
v 2.460860487063295 -0.422895287396333 35.50865763963377
v 2.3940783616823422 -0.46314575267360425 35.505553558673355
v 2.316994776815805 -0.4747489400464069 35.501932666553934
v 2.2413448212745397 -0.4559373602618493 35.49834517385332
v 2.1786455767383344 -0.40957714467644735 35.49533949546768
v 2.1384425286828703 -0.34272359530881147 35.493370620974645
v 2.1268562976693293 -0.26555285769610393 35.49273656883424
v 2.145650607515973 -0.18981879722816686 35.49353920268034
v 2.1919642095540093 -0.1270475285139696 35.49565261074675
v 2.258746335533071 -0.0867970685021291 35.498756686469925
v 2.33582991920339 -0.07519387059845783 35.502377589063826
v 3.739840905837449 -0.3082863777217142 5.518807784670036
v 3.739840905837449 -0.3082863777217142 5.518807784670036
v 3.739840905837449 -0.3082863777217142 5.518807784670036
v 3.739840905837449 -0.3082863777217142 5.518807784670036
v 3.739840905837449 -0.3082863777217142 5.518807784670036
v 3.739840905837449 -0.3082863777217142 5.518807784670036
v 3.739840905837449 -0.3082863777217142 5.518807784670036
v 3.739840905837449 -0.3082863777217142 5.518807784670036
v 3.739840905837449 -0.3082863777217142 5.518807784670036
v 3.739840905837449 -0.3082863777217142 5.518807784670036
v 3.739840905837449 -0.3082863777217142 5.518807784670036
v 3.739840905837449 -0.3082863777217142 5.518807784670036
v 3.739840905837449 -0.3082863777217142 5.518807784670036
v 3.739840905837449 -0.3082863777217142 5.518807784670036
v 3.739840905837449 -0.3082863777217142 5.518807784670036
v 3.739840905837449 -0.3082863777217142 5.518807784670036
v 3.7492585931361697 -0.10850891144835373 5.519028833499391
v 3.824908588822465 -0.1273198909737019 5.522615578903439
v 3.8876076363655727 -0.1736812333614779 5.525624169545031
v 3.9278106269308335 -0.24053523029080282 5.527593943214486
v 3.9393970748963083 -0.3177040631336183 5.528224512559111
v 3.920602716309877 -0.39343960187148497 5.5274230970419165
v 3.8742890330006556 -0.4562092014438548 5.525310004837941
v 3.8075068902028324 -0.4964604670667363 5.5222064721591035
v 3.73042331227566 -0.5080651939312943 5.518585390323267
v 3.6547734077399463 -0.4892535384449772 5.514997975728846
v 3.5920741753093255 -0.44289152208195404 5.511991399795043
v 3.5518712441231486 -0.37603752316691086 5.510021630910465
v 3.5402848279291717 -0.2988680163488482 5.509390387590589
v 3.559079189101953 -0.2231345035081631 5.510191126780741
v 3.605392751066657 -0.16036288201004822 5.512304885742006
v 3.6721748938644807 -0.12011161638716317 5.515408418420844
v 3.7492585931361697 -0.10850891144835373 5.519028833499391
v 2.326412348328705 -0.27497140813168386 35.502155125014674
v 2.326412348328705 -0.27497140813168386 35.502155125014674
v 2.326412348328705 -0.27497140813168386 35.502155125014674
v 2.326412348328705 -0.27497140813168386 35.502155125014674
v 2.326412348328705 -0.27497140813168386 35.502155125014674
v 2.326412348328705 -0.27497140813168386 35.502155125014674
v 2.326412348328705 -0.27497140813168386 35.502155125014674
v 2.326412348328705 -0.27497140813168386 35.502155125014674
v 2.326412348328705 -0.27497140813168386 35.502155125014674
v 2.326412348328705 -0.27497140813168386 35.502155125014674
v 2.326412348328705 -0.27497140813168386 35.502155125014674
v 2.326412348328705 -0.27497140813168386 35.502155125014674
v 2.326412348328705 -0.27497140813168386 35.502155125014674
v 2.326412348328705 -0.27497140813168386 35.502155125014674
v 2.326412348328705 -0.27497140813168386 35.502155125014674
v 2.326412348328705 -0.27497140813168386 35.502155125014674
v 2.33582991920339 -0.07519387059845783 35.502377589063826
v 2.4114797565845967 -0.09400545961988982 35.505965066957444
v 2.4741791198789693 -0.14036567123385524 35.50897075491284
v 2.514382167934434 -0.20721922060148756 35.51093962940588
v 2.525968280339335 -0.2843899635019973 35.51157367066722
v 2.5071740891013308 -0.3601240186821393 35.51077104770019
v 2.460860487063295 -0.422895287396333 35.50865763963377
v 2.3940783616823422 -0.46314575267360425 35.505553558673355
v 2.316994776815805 -0.4747489400464069 35.501932666553934
v 2.2413448212745397 -0.4559373602618493 35.49834517385332
v 2.1786455767383344 -0.40957714467644735 35.49533949546768
v 2.1384425286828703 -0.34272359530881147 35.493370620974645
v 2.1268562976693293 -0.26555285769610393 35.49273656883424
v 2.145650607515973 -0.18981879722816686 35.49353920268034
v 2.1919642095540093 -0.1270475285139696 35.49565261074675
v 2.258746335533071 -0.0867970685021291 35.498756686469925
v 2.33582991920339 -0.07519387059845783 35.502377589063826
vt 0 1
vt 0.0625 1
vt 0.125 1
vt 0.1875 1
vt 0.25 1
vt 0.3125 1
vt 0.375 1
vt 0.4375 1
vt 0.5 1
vt 0.5625 1
vt 0.625 1
vt 0.6875 1
vt 0.75 1
vt 0.8125 1
vt 0.875 1
vt 0.9375 1
vt 1 1
vt 0 0
vt 0.0625 0
vt 0.125 0
vt 0.1875 0
vt 0.25 0
vt 0.3125 0
vt 0.375 0
vt 0.4375 0
vt 0.5 0
vt 0.5625 0
vt 0.625 0
vt 0.6875 0
vt 0.75 0
vt 0.8125 0
vt 0.875 0
vt 0.9375 0
vt 1 0
vt 0.5 0.5
vt 0.5 0.5
vt 0.5 0.5
vt 0.5 0.5
vt 0.5 0.5
vt 0.5 0.5
vt 0.5 0.5
vt 0.5 0.5
vt 0.5 0.5
vt 0.5 0.5
vt 0.5 0.5
vt 0.5 0.5
vt 0.5 0.5
vt 0.5 0.5
vt 0.5 0.5
vt 0.5 0.5
vt 1 0.5
vt 0.9619397521018982 0.6913416981697083
vt 0.8535534143447876 0.8535534143447876
vt 0.6913416981697083 0.9619397521018982
vt 0.5 1
vt 0.30865827202796936 0.9619397521018982
vt 0.1464466154575348 0.8535534143447876
vt 0.03806023299694061 0.6913416981697083
vt 0 0.5
vt 0.03806023299694061 0.30865827202796936
vt 0.1464466154575348 0.1464466154575348
vt 0.30865827202796936 0.03806023299694061
vt 0.5 0
vt 0.6913416981697083 0.03806023299694061
vt 0.8535534143447876 0.1464466154575348
vt 0.9619397521018982 0.30865827202796936
vt 1 0.5
vt 0.5 0.5
vt 0.5 0.5
vt 0.5 0.5
vt 0.5 0.5
vt 0.5 0.5
vt 0.5 0.5
vt 0.5 0.5
vt 0.5 0.5
vt 0.5 0.5
vt 0.5 0.5
vt 0.5 0.5
vt 0.5 0.5
vt 0.5 0.5
vt 0.5 0.5
vt 0.5 0.5
vt 0.5 0.5
vt 1 0.5
vt 0.9619397521018982 0.30865827202796936
vt 0.8535534143447876 0.1464466154575348
vt 0.6913416981697083 0.03806023299694061
vt 0.5 0
vt 0.30865827202796936 0.03806023299694061
vt 0.1464466154575348 0.1464466154575348
vt 0.03806023299694061 0.30865827202796936
vt 0 0.5
vt 0.03806023299694061 0.6913416981697083
vt 0.1464466154575348 0.8535534143447876
vt 0.30865827202796936 0.9619397521018982
vt 0.5 1
vt 0.6913416981697083 0.9619397521018982
vt 0.8535534143447876 0.8535534143447876
vt 0.9619397521018982 0.6913416981697083
vt 1 0.5
vn 0.04708813526512634 0.9988901219371055 0.0011098710411436836
vn 0.4253377302472011 0.9048342905532463 0.01904525839054532
vn 0.7388335202223512 0.6730256353435522 0.03408113211524274
vn 0.9398485914454356 0.3387549442990158 0.04392849725407497
vn 0.9977802440633408 -0.047088135333078734 0.047088130858566536
vn 0.9038088967348554 -0.425762464206512 0.04307902338403198
vn 0.6722408456451435 -0.739618310443808 0.032511541066973924
vn 0.3383302000022629 -0.9408739892258627 0.016994474532626275
vn -0.04708813526512634 -0.9988901219371055 -0.0011098710411436836
vn -0.4253377302472011 -0.9048342905532463 -0.01904525839054532
vn -0.7388335202223512 -0.6730256353435522 -0.03408113211524274
vn -0.9398485914454356 -0.3387549442990158 -0.04392849725407497
vn -0.9977802440633408 0.047088135333078734 -0.047088130858566536
vn -0.9038088967348554 0.425762464206512 -0.04307902338403198
vn -0.6722408456451435 0.739618310443808 -0.032511541066973924
vn -0.3383302000022629 0.9408739892258627 -0.016994474532626275
vn 0.04708813526512634 0.9988901219371055 0.0011098710411436836
vn 0.04708813526512634 0.9988901219371055 0.0011098710411436836
vn 0.4253377302472011 0.9048342905532463 0.01904525839054532
vn 0.7388335202223512 0.6730256353435522 0.03408113211524274
vn 0.9398485914454356 0.3387549442990158 0.04392849725407497
vn 0.9977802440633408 -0.047088135333078734 0.047088130858566536
vn 0.9038088967348554 -0.425762464206512 0.04307902338403198
vn 0.6722408456451435 -0.739618310443808 0.032511541066973924
vn 0.3383302000022629 -0.9408739892258627 0.016994474532626275
vn -0.04708813526512634 -0.9988901219371055 -0.0011098710411436836
vn -0.4253377302472011 -0.9048342905532463 -0.01904525839054532
vn -0.7388335202223512 -0.6730256353435522 -0.03408113211524274
vn -0.9398485914454356 -0.3387549442990158 -0.04392849725407497
vn -0.9977802440633408 0.047088135333078734 -0.047088130858566536
vn -0.9038088967348554 0.425762464206512 -0.04307902338403198
vn -0.6722408456451435 0.739618310443808 -0.032511541066973924
vn -0.3383302000022629 0.9408739892258627 -0.016994474532626275
vn 0.04708813526512634 0.9988901219371055 0.0011098710411436836
vn 0.04708813067677153 -0.001109877955310126 -0.9988901221457201
vn 0.04708813067677153 -0.001109877955310126 -0.9988901221457201
vn 0.04708813067677153 -0.001109877955310126 -0.9988901221457201
vn 0.04708813067677153 -0.001109877955310126 -0.9988901221457201
vn 0.04708813067677153 -0.001109877955310126 -0.9988901221457201
vn 0.04708813067677153 -0.001109877955310126 -0.9988901221457201
vn 0.04708813067677153 -0.001109877955310126 -0.9988901221457201
vn 0.04708813067677153 -0.001109877955310126 -0.9988901221457201
vn 0.04708813067677153 -0.001109877955310126 -0.9988901221457201
vn 0.04708813067677153 -0.001109877955310126 -0.9988901221457201
vn 0.04708813067677153 -0.001109877955310126 -0.9988901221457201
vn 0.04708813067677153 -0.001109877955310126 -0.9988901221457201
vn 0.04708813067677153 -0.001109877955310126 -0.9988901221457201
vn 0.04708813067677153 -0.001109877955310126 -0.9988901221457201
vn 0.04708813067677153 -0.001109877955310126 -0.9988901221457201
vn 0.04708813067677153 -0.001109877955310126 -0.9988901221457201
vn 0.04708813067677153 -0.001109877955310126 -0.9988901221457201
vn 0.04708813067677153 -0.001109877955310126 -0.9988901221457201
vn 0.04708813067677153 -0.001109877955310126 -0.9988901221457201
vn 0.04708813067677153 -0.001109877955310126 -0.9988901221457201
vn 0.04708813067677153 -0.001109877955310126 -0.9988901221457201
vn 0.04708813067677153 -0.001109877955310126 -0.9988901221457201
vn 0.04708813067677153 -0.001109877955310126 -0.9988901221457201
vn 0.04708813067677153 -0.001109877955310126 -0.9988901221457201
vn 0.04708813067677153 -0.001109877955310126 -0.9988901221457201
vn 0.04708813067677153 -0.001109877955310126 -0.9988901221457201
vn 0.04708813067677153 -0.001109877955310126 -0.9988901221457201
vn 0.04708813067677153 -0.001109877955310126 -0.9988901221457201
vn 0.04708813067677153 -0.001109877955310126 -0.9988901221457201
vn 0.04708813067677153 -0.001109877955310126 -0.9988901221457201
vn 0.04708813067677153 -0.001109877955310126 -0.9988901221457201
vn 0.04708813067677153 -0.001109877955310126 -0.9988901221457201
vn 0.04708813067677153 -0.001109877955310126 -0.9988901221457201
vn -0.04708813067677153 0.001109877955310126 0.9988901221457201
vn -0.04708813067677153 0.001109877955310126 0.9988901221457201
vn -0.04708813067677153 0.001109877955310126 0.9988901221457201
vn -0.04708813067677153 0.001109877955310126 0.9988901221457201
vn -0.04708813067677153 0.001109877955310126 0.9988901221457201
vn -0.04708813067677153 0.001109877955310126 0.9988901221457201
vn -0.04708813067677153 0.001109877955310126 0.9988901221457201
vn -0.04708813067677153 0.001109877955310126 0.9988901221457201
vn -0.04708813067677153 0.001109877955310126 0.9988901221457201
vn -0.04708813067677153 0.001109877955310126 0.9988901221457201
vn -0.04708813067677153 0.001109877955310126 0.9988901221457201
vn -0.04708813067677153 0.001109877955310126 0.9988901221457201
vn -0.04708813067677153 0.001109877955310126 0.9988901221457201
vn -0.04708813067677153 0.001109877955310126 0.9988901221457201
vn -0.04708813067677153 0.001109877955310126 0.9988901221457201
vn -0.04708813067677153 0.001109877955310126 0.9988901221457201
vn -0.04708813067677153 0.001109877955310126 0.9988901221457201
vn -0.04708813067677153 0.001109877955310126 0.9988901221457201
vn -0.04708813067677153 0.001109877955310126 0.9988901221457201
vn -0.04708813067677153 0.001109877955310126 0.9988901221457201
vn -0.04708813067677153 0.001109877955310126 0.9988901221457201
vn -0.04708813067677153 0.001109877955310126 0.9988901221457201
vn -0.04708813067677153 0.001109877955310126 0.9988901221457201
vn -0.04708813067677153 0.001109877955310126 0.9988901221457201
vn -0.04708813067677153 0.001109877955310126 0.9988901221457201
vn -0.04708813067677153 0.001109877955310126 0.9988901221457201
vn -0.04708813067677153 0.001109877955310126 0.9988901221457201
vn -0.04708813067677153 0.001109877955310126 0.9988901221457201
vn -0.04708813067677153 0.001109877955310126 0.9988901221457201
vn -0.04708813067677153 0.001109877955310126 0.9988901221457201
vn -0.04708813067677153 0.001109877955310126 0.9988901221457201
vn -0.04708813067677153 0.001109877955310126 0.9988901221457201
vn -0.04708813067677153 0.001109877955310126 0.9988901221457201
f 1/1/1 18/18/18 2/2/2
f 18/18/18 19/19/19 2/2/2
f 2/2/2 19/19/19 3/3/3
f 19/19/19 20/20/20 3/3/3
f 3/3/3 20/20/20 4/4/4
f 20/20/20 21/21/21 4/4/4
f 4/4/4 21/21/21 5/5/5
f 21/21/21 22/22/22 5/5/5
f 5/5/5 22/22/22 6/6/6
f 22/22/22 23/23/23 6/6/6
f 6/6/6 23/23/23 7/7/7
f 23/23/23 24/24/24 7/7/7
f 7/7/7 24/24/24 8/8/8
f 24/24/24 25/25/25 8/8/8
f 8/8/8 25/25/25 9/9/9
f 25/25/25 26/26/26 9/9/9
f 9/9/9 26/26/26 10/10/10
f 26/26/26 27/27/27 10/10/10
f 10/10/10 27/27/27 11/11/11
f 27/27/27 28/28/28 11/11/11
f 11/11/11 28/28/28 12/12/12
f 28/28/28 29/29/29 12/12/12
f 12/12/12 29/29/29 13/13/13
f 29/29/29 30/30/30 13/13/13
f 13/13/13 30/30/30 14/14/14
f 30/30/30 31/31/31 14/14/14
f 14/14/14 31/31/31 15/15/15
f 31/31/31 32/32/32 15/15/15
f 15/15/15 32/32/32 16/16/16
f 32/32/32 33/33/33 16/16/16
f 16/16/16 33/33/33 17/17/17
f 33/33/33 34/34/34 17/17/17
f 51/51/51 52/52/52 35/35/35
f 52/52/52 53/53/53 36/36/36
f 53/53/53 54/54/54 37/37/37
f 54/54/54 55/55/55 38/38/38
f 55/55/55 56/56/56 39/39/39
f 56/56/56 57/57/57 40/40/40
f 57/57/57 58/58/58 41/41/41
f 58/58/58 59/59/59 42/42/42
f 59/59/59 60/60/60 43/43/43
f 60/60/60 61/61/61 44/44/44
f 61/61/61 62/62/62 45/45/45
f 62/62/62 63/63/63 46/46/46
f 63/63/63 64/64/64 47/47/47
f 64/64/64 65/65/65 48/48/48
f 65/65/65 66/66/66 49/49/49
f 66/66/66 67/67/67 50/50/50
f 85/85/85 84/84/84 68/68/68
f 86/86/86 85/85/85 69/69/69
f 87/87/87 86/86/86 70/70/70
f 88/88/88 87/87/87 71/71/71
f 89/89/89 88/88/88 72/72/72
f 90/90/90 89/89/89 73/73/73
f 91/91/91 90/90/90 74/74/74
f 92/92/92 91/91/91 75/75/75
f 93/93/93 92/92/92 76/76/76
f 94/94/94 93/93/93 77/77/77
f 95/95/95 94/94/94 78/78/78
f 96/96/96 95/95/95 79/79/79
f 97/97/97 96/96/96 80/80/80
f 98/98/98 97/97/97 81/81/81
f 99/99/99 98/98/98 82/82/82
f 100/100/100 99/99/99 83/83/83
