# Mesh: spoke_back_19
v -0.9875500164744153 -16.500905529178368 -25.054641855351864
v -0.9121520325637255 -16.516106685102834 -25.041462088217465
v -0.8501280942381911 -16.55429628058486 -25.013458097780287
v -0.8109208104860351 -16.609660320362543 -24.974893222450927
v -0.8004991029471572 -16.673770111665526 -24.931638626718033
v -0.820449607931418 -16.736865526410632 -24.890279427378964
v -0.8677350171947767 -16.78934086783764 -24.85711218115906
v -0.935156584629767 -16.823207219286488 -24.837186316233087
v -1.012449964934278 -16.833308761861048 -24.833535346544068
v -1.087847948844968 -16.818107605936582 -24.84671511367847
v -1.149871887170502 -16.77991801045456 -24.874719104115645
v -1.189079170922658 -16.72455397067688 -24.913283979445005
v -1.199500878461536 -16.660444179373897 -24.956538575177895
v -1.1795503734772752 -16.597348764628784 -24.997897774516968
v -1.1322649642139164 -16.54487342320178 -25.03106502073687
v -1.0648433967789261 -16.511007071752935 -25.05099088566285
v -0.9875500164744153 -16.500905529178368 -25.054641855351864
v -1.987550035065722 0.16620177127298952 -0.11055302253229726
v -1.912152051155032 0.15100061534852394 -0.09737325539789587
v -1.850128112829498 0.11281101986649844 -0.06936926496072005
v -1.810920829077342 0.05744698008881777 -0.030804389631359896
v -1.800499121538464 -0.006662811214164677 0.012450206101531691
v -1.8204496265227248 -0.06975822595927461 0.053809405440603086
v -1.8677350357860836 -0.12223356738628155 0.08697665166050683
v -1.9351566032210739 -0.15609991883512642 0.10690251658648187
v -2.0124499835255847 -0.16620146140969005 0.11055348627549932
v -2.0878479674362747 -0.15100030548522447 0.09737371914109794
v -2.1498719057618088 -0.11281071000319898 0.0693697287039221
v -2.189079189513965 -0.057446670225518304 0.030804853374561958
v -2.1995008970528427 0.00666312107746414 -0.01244974235832963
v -2.179550392068582 0.06975853582257407 -0.053808941697401025
v -2.132264982805223 0.12223387724958101 -0.08697618791730477
v -2.064843415370233 0.15610022869842588 -0.1069020528432798
v -1.987550035065722 0.16620177127298952 -0.11055302253229726
v -0.9999999907043466 -16.667107145519708 -24.944088600947964
v -0.9999999907043466 -16.667107145519708 -24.944088600947964
v -0.9999999907043466 -16.667107145519708 -24.944088600947964
v -0.9999999907043466 -16.667107145519708 -24.944088600947964
v -0.9999999907043466 -16.667107145519708 -24.944088600947964
v -0.9999999907043466 -16.667107145519708 -24.944088600947964
v -0.9999999907043466 -16.667107145519708 -24.944088600947964
v -0.9999999907043466 -16.667107145519708 -24.944088600947964
v -0.9999999907043466 -16.667107145519708 -24.944088600947964
v -0.9999999907043466 -16.667107145519708 -24.944088600947964
v -0.9999999907043466 -16.667107145519708 -24.944088600947964
v -0.9999999907043466 -16.667107145519708 -24.944088600947964
v -0.9999999907043466 -16.667107145519708 -24.944088600947964
v -0.9999999907043466 -16.667107145519708 -24.944088600947964
v -0.9999999907043466 -16.667107145519708 -24.944088600947964
v -0.9999999907043466 -16.667107145519708 -24.944088600947964
v -0.9875500164744153 -16.500905529178368 -25.054641855351864
v -0.9121520325637255 -16.516106685102834 -25.041462088217465
v -0.8501280942381911 -16.55429628058486 -25.013458097780287
v -0.8109208104860351 -16.609660320362543 -24.974893222450927
v -0.8004991029471572 -16.673770111665526 -24.931638626718033
v -0.820449607931418 -16.736865526410632 -24.890279427378964
v -0.8677350171947767 -16.78934086783764 -24.85711218115906
v -0.935156584629767 -16.823207219286488 -24.837186316233087
v -1.012449964934278 -16.833308761861048 -24.833535346544068
v -1.087847948844968 -16.818107605936582 -24.84671511367847
v -1.149871887170502 -16.77991801045456 -24.874719104115645
v -1.189079170922658 -16.72455397067688 -24.913283979445005
v -1.199500878461536 -16.660444179373897 -24.956538575177895
v -1.1795503734772752 -16.597348764628784 -24.997897774516968
v -1.1322649642139164 -16.54487342320178 -25.03106502073687
v -1.0648433967789261 -16.511007071752935 -25.05099088566285
v -0.9875500164744153 -16.500905529178368 -25.054641855351864
v -2.000000009295653 1.5493164973179319e-7 2.318716010307753e-7
v -2.000000009295653 1.5493164973179319e-7 2.318716010307753e-7
v -2.000000009295653 1.5493164973179319e-7 2.318716010307753e-7
v -2.000000009295653 1.5493164973179319e-7 2.318716010307753e-7
v -2.000000009295653 1.5493164973179319e-7 2.318716010307753e-7
v -2.000000009295653 1.5493164973179319e-7 2.318716010307753e-7
v -2.000000009295653 1.5493164973179319e-7 2.318716010307753e-7
v -2.000000009295653 1.5493164973179319e-7 2.318716010307753e-7
v -2.000000009295653 1.5493164973179319e-7 2.318716010307753e-7
v -2.000000009295653 1.5493164973179319e-7 2.318716010307753e-7
v -2.000000009295653 1.5493164973179319e-7 2.318716010307753e-7
v -2.000000009295653 1.5493164973179319e-7 2.318716010307753e-7
v -2.000000009295653 1.5493164973179319e-7 2.318716010307753e-7
v -2.000000009295653 1.5493164973179319e-7 2.318716010307753e-7
v -2.000000009295653 1.5493164973179319e-7 2.318716010307753e-7
v -2.000000009295653 1.5493164973179319e-7 2.318716010307753e-7
v -1.987550035065722 0.16620177127298952 -0.11055302253229726
v -1.912152051155032 0.15100061534852394 -0.09737325539789587
v -1.850128112829498 0.11281101986649844 -0.06936926496072005
v -1.810920829077342 0.05744698008881777 -0.030804389631359896
v -1.800499121538464 -0.006662811214164677 0.012450206101531691
v -1.8204496265227248 -0.06975822595927461 0.053809405440603086
v -1.8677350357860836 -0.12223356738628155 0.08697665166050683
v -1.9351566032210739 -0.15609991883512642 0.10690251658648187
v -2.0124499835255847 -0.16620146140969005 0.11055348627549932
v -2.0878479674362747 -0.15100030548522447 0.09737371914109794
v -2.1498719057618088 -0.11281071000319898 0.0693697287039221
v -2.189079189513965 -0.057446670225518304 0.030804853374561958
v -2.1995008970528427 0.00666312107746414 -0.01244974235832963
v -2.179550392068582 0.06975853582257407 -0.053808941697401025
v -2.132264982805223 0.12223387724958101 -0.08697618791730477
v -2.064843415370233 0.15610022869842588 -0.1069020528432798
v -1.987550035065722 0.16620177127298952 -0.11055302253229726
vn 0.06224987022206144 0.8310080693237111 -0.552766263782636
vn 0.4392398023089043 0.7550023112448384 -0.48686744200304366
vn 0.7493594477808098 0.5640542986679594 -0.3468474681698516
vn 0.9453959132037786 0.2872341344782862 -0.15402311283733788
vn 0.997504423921973 -0.03331483023263845 0.06224987022206142
vn 0.8977519246173774 -0.3487919139107208 0.2690458745944476
vn 0.6613248370568053 -0.611168583411114 0.434882078893856
vn 0.3242170405517944 -0.7805003787219204 0.5345114305894447
vn -0.06224987022206131 -0.8310080693237111 0.552766263782636
vn -0.4392398023089043 -0.7550023112448384 0.48686744200304366
vn -0.7493594477808098 -0.5640542986679594 0.3468474681698516
vn -0.9453959132037786 -0.2872341344782862 0.15402311283733788
vn -0.997504423921973 0.03331483023263834 -0.06224987022206135
vn -0.8977519246173774 0.3487919139107208 -0.2690458745944476
vn -0.6613248370568053 0.611168583411114 -0.434882078893856
vn -0.3242170405517944 0.7805003787219204 -0.5345114305894447
vn 0.062249870222061195 0.8310080693237111 -0.552766263782636
vn 0.06224987022206144 0.8310080693237111 -0.552766263782636
vn 0.4392398023089043 0.7550023112448384 -0.48686744200304366
vn 0.7493594477808098 0.5640542986679594 -0.3468474681698516
vn 0.9453959132037786 0.2872341344782862 -0.15402311283733788
vn 0.997504423921973 -0.03331483023263845 0.06224987022206142
vn 0.8977519246173774 -0.3487919139107208 0.2690458745944476
vn 0.6613248370568053 -0.611168583411114 0.434882078893856
vn 0.3242170405517944 -0.7805003787219204 0.5345114305894447
vn -0.06224987022206131 -0.8310080693237111 0.552766263782636
vn -0.4392398023089043 -0.7550023112448384 0.48686744200304366
vn -0.7493594477808098 -0.5640542986679594 0.3468474681698516
vn -0.9453959132037786 -0.2872341344782862 0.15402311283733788
vn -0.997504423921973 0.03331483023263834 -0.06224987022206135
vn -0.8977519246173774 0.3487919139107208 -0.2690458745944476
vn -0.6613248370568053 0.611168583411114 -0.434882078893856
vn -0.3242170405517944 0.7805003787219204 -0.5345114305894447
vn 0.062249870222061195 0.8310080693237111 -0.552766263782636
vn 0.03331483023263849 -0.555261839860663 -0.8310080693237111
vn 0.03331483023263849 -0.555261839860663 -0.8310080693237111
vn 0.03331483023263849 -0.555261839860663 -0.8310080693237111
vn 0.03331483023263849 -0.555261839860663 -0.8310080693237111
vn 0.03331483023263849 -0.555261839860663 -0.8310080693237111
vn 0.03331483023263849 -0.555261839860663 -0.8310080693237111
vn 0.03331483023263849 -0.555261839860663 -0.8310080693237111
vn 0.03331483023263849 -0.555261839860663 -0.8310080693237111
vn 0.03331483023263849 -0.555261839860663 -0.8310080693237111
vn 0.03331483023263849 -0.555261839860663 -0.8310080693237111
vn 0.03331483023263849 -0.555261839860663 -0.8310080693237111
vn 0.03331483023263849 -0.555261839860663 -0.8310080693237111
vn 0.03331483023263849 -0.555261839860663 -0.8310080693237111
vn 0.03331483023263849 -0.555261839860663 -0.8310080693237111
vn 0.03331483023263849 -0.555261839860663 -0.8310080693237111
vn 0.03331483023263849 -0.555261839860663 -0.8310080693237111
vn 0.03331483023263849 -0.555261839860663 -0.8310080693237111
vn 0.03331483023263849 -0.555261839860663 -0.8310080693237111
vn 0.03331483023263849 -0.555261839860663 -0.8310080693237111
vn 0.03331483023263849 -0.555261839860663 -0.8310080693237111
vn 0.03331483023263849 -0.555261839860663 -0.8310080693237111
vn 0.03331483023263849 -0.555261839860663 -0.8310080693237111
vn 0.03331483023263849 -0.555261839860663 -0.8310080693237111
vn 0.03331483023263849 -0.555261839860663 -0.8310080693237111
vn 0.03331483023263849 -0.555261839860663 -0.8310080693237111
vn 0.03331483023263849 -0.555261839860663 -0.8310080693237111
vn 0.03331483023263849 -0.555261839860663 -0.8310080693237111
vn 0.03331483023263849 -0.555261839860663 -0.8310080693237111
vn 0.03331483023263849 -0.555261839860663 -0.8310080693237111
vn 0.03331483023263849 -0.555261839860663 -0.8310080693237111
vn 0.03331483023263849 -0.555261839860663 -0.8310080693237111
vn 0.03331483023263849 -0.555261839860663 -0.8310080693237111
vn 0.03331483023263849 -0.555261839860663 -0.8310080693237111
vn -0.03331483023263849 0.555261839860663 0.8310080693237111
vn -0.03331483023263849 0.555261839860663 0.8310080693237111
vn -0.03331483023263849 0.555261839860663 0.8310080693237111
vn -0.03331483023263849 0.555261839860663 0.8310080693237111
vn -0.03331483023263849 0.555261839860663 0.8310080693237111
vn -0.03331483023263849 0.555261839860663 0.8310080693237111
vn -0.03331483023263849 0.555261839860663 0.8310080693237111
vn -0.03331483023263849 0.555261839860663 0.8310080693237111
vn -0.03331483023263849 0.555261839860663 0.8310080693237111
vn -0.03331483023263849 0.555261839860663 0.8310080693237111
vn -0.03331483023263849 0.555261839860663 0.8310080693237111
vn -0.03331483023263849 0.555261839860663 0.8310080693237111
vn -0.03331483023263849 0.555261839860663 0.8310080693237111
vn -0.03331483023263849 0.555261839860663 0.8310080693237111
vn -0.03331483023263849 0.555261839860663 0.8310080693237111
vn -0.03331483023263849 0.555261839860663 0.8310080693237111
vn -0.03331483023263849 0.555261839860663 0.8310080693237111
vn -0.03331483023263849 0.555261839860663 0.8310080693237111
vn -0.03331483023263849 0.555261839860663 0.8310080693237111
vn -0.03331483023263849 0.555261839860663 0.8310080693237111
vn -0.03331483023263849 0.555261839860663 0.8310080693237111
vn -0.03331483023263849 0.555261839860663 0.8310080693237111
vn -0.03331483023263849 0.555261839860663 0.8310080693237111
vn -0.03331483023263849 0.555261839860663 0.8310080693237111
vn -0.03331483023263849 0.555261839860663 0.8310080693237111
vn -0.03331483023263849 0.555261839860663 0.8310080693237111
vn -0.03331483023263849 0.555261839860663 0.8310080693237111
vn -0.03331483023263849 0.555261839860663 0.8310080693237111
vn -0.03331483023263849 0.555261839860663 0.8310080693237111
vn -0.03331483023263849 0.555261839860663 0.8310080693237111
vn -0.03331483023263849 0.555261839860663 0.8310080693237111
vn -0.03331483023263849 0.555261839860663 0.8310080693237111
vn -0.03331483023263849 0.555261839860663 0.8310080693237111
f 1//1 18//18 2//2
f 18//18 19//19 2//2
f 2//2 19//19 3//3
f 19//19 20//20 3//3
f 3//3 20//20 4//4
f 20//20 21//21 4//4
f 4//4 21//21 5//5
f 21//21 22//22 5//5
f 5//5 22//22 6//6
f 22//22 23//23 6//6
f 6//6 23//23 7//7
f 23//23 24//24 7//7
f 7//7 24//24 8//8
f 24//24 25//25 8//8
f 8//8 25//25 9//9
f 25//25 26//26 9//9
f 9//9 26//26 10//10
f 26//26 27//27 10//10
f 10//10 27//27 11//11
f 27//27 28//28 11//11
f 11//11 28//28 12//12
f 28//28 29//29 12//12
f 12//12 29//29 13//13
f 29//29 30//30 13//13
f 13//13 30//30 14//14
f 30//30 31//31 14//14
f 14//14 31//31 15//15
f 31//31 32//32 15//15
f 15//15 32//32 16//16
f 32//32 33//33 16//16
f 16//16 33//33 17//17
f 33//33 34//34 17//17
f 51//51 52//52 35//35
f 52//52 53//53 36//36
f 53//53 54//54 37//37
f 54//54 55//55 38//38
f 55//55 56//56 39//39
f 56//56 57//57 40//40
f 57//57 58//58 41//41
f 58//58 59//59 42//42
f 59//59 60//60 43//43
f 60//60 61//61 44//44
f 61//61 62//62 45//45
f 62//62 63//63 46//46
f 63//63 64//64 47//47
f 64//64 65//65 48//48
f 65//65 66//66 49//49
f 66//66 67//67 50//50
f 85//85 84//84 68//68
f 86//86 85//85 69//69
f 87//87 86//86 70//70
f 88//88 87//87 71//71
f 89//89 88//88 72//72
f 90//90 89//89 73//73
f 91//91 90//90 74//74
f 92//92 91//91 75//75
f 93//93 92//92 76//76
f 94//94 93//93 77//77
f 95//95 94//94 78//78
f 96//96 95//95 79//79
f 97//97 96//96 80//80
f 98//98 97//97 81//81
f 99//99 98//98 82//82
f 100//100 99//99 83//83
