# Mesh: spoke_front_3
v 1.0035601491875623 16.50090552917838 25.05528369611494
v 1.0797712146932472 16.516106685102844 25.048181884092514
v 1.1438378435458072 16.55429628058487 25.02523282151289
v 1.1860064469496723 16.60966032036255 24.989930277760934
v 1.1998572681445414 16.673770111665533 24.94764875943118
v 1.183281619698346 16.736865526410643 24.90482523905179
v 1.1388030189775349 16.78934086783765 24.867979204951308
v 1.07319289977645 16.823207219286495 24.842720145054734
v 0.9964398322211305 16.83330876186106 24.832893505780984
v 0.9202287667154455 16.818107605936593 24.839995317803407
v 0.8561621378628856 16.779918010454566 24.862944380383034
v 0.8139935344590207 16.724553970676887 24.898246924134988
v 0.8001427132641515 16.660444179373904 24.940528442464746
v 0.8167183617103467 16.597348764628794 24.98335196284414
v 0.861196962431158 16.544873423201786 25.020197996944617
v 0.9268070816322428 16.511007071752942 25.045457056841187
v 1.0035601491875623 16.50090552917838 25.05528369611494
v 2.0035601677788692 -0.1662017712729913 0.11119486329537409
v 2.0797712332845544 -0.1510006153485257 0.10409305127294921
v 2.143837862137114 -0.11281101986650022 0.08114398869332362
v 2.1860064655409794 -0.057446980088819544 0.04584144494136844
v 2.1998572867358486 0.0066628112141629 0.0035599266116115302
v 2.183281638289653 0.06975822595927283 -0.03926359376777988
v 2.138803037568842 0.12223356738627977 -0.07610962786825937
v 2.073192918367757 0.15609991883512464 -0.10136868776483077
v 1.9964398508124377 0.16620146140968828 -0.11119532703858326
v 1.9202287853067528 0.1510003054852227 -0.10409351501615838
v 1.8561621564541928 0.1128107100031972 -0.08114445243653279
v 1.8139935530503277 0.05744667022551653 -0.045841908684577604
v 1.8001427318554586 -0.006663121077465917 -0.003560390354820697
v 1.816718380301654 -0.06975853582257585 0.039263130024570714
v 1.8611969810224651 -0.12223387724958279 0.0761091641250502
v 1.92680710022355 -0.15610022869842766 0.1013682240216216
v 2.0035601677788692 -0.1662017712729913 0.11119486329537409
v 0.9999999907043464 16.66710714551972 24.944088600947964
v 0.9999999907043464 16.66710714551972 24.944088600947964
v 0.9999999907043464 16.66710714551972 24.944088600947964
v 0.9999999907043464 16.66710714551972 24.944088600947964
v 0.9999999907043464 16.66710714551972 24.944088600947964
v 0.9999999907043464 16.66710714551972 24.944088600947964
v 0.9999999907043464 16.66710714551972 24.944088600947964
v 0.9999999907043464 16.66710714551972 24.944088600947964
v 0.9999999907043464 16.66710714551972 24.944088600947964
v 0.9999999907043464 16.66710714551972 24.944088600947964
v 0.9999999907043464 16.66710714551972 24.944088600947964
v 0.9999999907043464 16.66710714551972 24.944088600947964
v 0.9999999907043464 16.66710714551972 24.944088600947964
v 0.9999999907043464 16.66710714551972 24.944088600947964
v 0.9999999907043464 16.66710714551972 24.944088600947964
v 0.9999999907043464 16.66710714551972 24.944088600947964
v 1.0035601491875623 16.50090552917838 25.05528369611494
v 1.0797712146932472 16.516106685102844 25.048181884092514
v 1.1438378435458072 16.55429628058487 25.02523282151289
v 1.1860064469496723 16.60966032036255 24.989930277760934
v 1.1998572681445414 16.673770111665533 24.94764875943118
v 1.183281619698346 16.736865526410643 24.90482523905179
v 1.1388030189775349 16.78934086783765 24.867979204951308
v 1.07319289977645 16.823207219286495 24.842720145054734
v 0.9964398322211305 16.83330876186106 24.832893505780984
v 0.9202287667154455 16.818107605936593 24.839995317803407
v 0.8561621378628856 16.779918010454566 24.862944380383034
v 0.8139935344590207 16.724553970676887 24.898246924134988
v 0.8001427132641515 16.660444179373904 24.940528442464746
v 0.8167183617103467 16.597348764628794 24.98335196284414
v 0.861196962431158 16.544873423201786 25.020197996944617
v 0.9268070816322428 16.511007071752942 25.045457056841187
v 1.0035601491875623 16.50090552917838 25.05528369611494
v 2.0000000092956536 -1.5493165150815003e-7 -2.31871604583489e-7
v 2.0000000092956536 -1.5493165150815003e-7 -2.31871604583489e-7
v 2.0000000092956536 -1.5493165150815003e-7 -2.31871604583489e-7
v 2.0000000092956536 -1.5493165150815003e-7 -2.31871604583489e-7
v 2.0000000092956536 -1.5493165150815003e-7 -2.31871604583489e-7
v 2.0000000092956536 -1.5493165150815003e-7 -2.31871604583489e-7
v 2.0000000092956536 -1.5493165150815003e-7 -2.31871604583489e-7
v 2.0000000092956536 -1.5493165150815003e-7 -2.31871604583489e-7
v 2.0000000092956536 -1.5493165150815003e-7 -2.31871604583489e-7
v 2.0000000092956536 -1.5493165150815003e-7 -2.31871604583489e-7
v 2.0000000092956536 -1.5493165150815003e-7 -2.31871604583489e-7
v 2.0000000092956536 -1.5493165150815003e-7 -2.31871604583489e-7
v 2.0000000092956536 -1.5493165150815003e-7 -2.31871604583489e-7
v 2.0000000092956536 -1.5493165150815003e-7 -2.31871604583489e-7
v 2.0000000092956536 -1.5493165150815003e-7 -2.31871604583489e-7
v 2.0000000092956536 -1.5493165150815003e-7 -2.31871604583489e-7
v 2.0035601677788692 -0.1662017712729913 0.11119486329537409
v 2.0797712332845544 -0.1510006153485257 0.10409305127294921
v 2.143837862137114 -0.11281101986650022 0.08114398869332362
v 2.1860064655409794 -0.057446980088819544 0.04584144494136844
v 2.1998572867358486 0.0066628112141629 0.0035599266116115302
v 2.183281638289653 0.06975822595927283 -0.03926359376777988
v 2.138803037568842 0.12223356738627977 -0.07610962786825937
v 2.073192918367757 0.15609991883512464 -0.10136868776483077
v 1.9964398508124377 0.16620146140968828 -0.11119532703858326
v 1.9202287853067528 0.1510003054852227 -0.10409351501615838
v 1.8561621564541928 0.1128107100031972 -0.08114445243653279
v 1.8139935530503277 0.05744667022551653 -0.045841908684577604
v 1.8001427318554586 -0.006663121077465917 -0.003560390354820697
v 1.816718380301654 -0.06975853582257585 0.039263130024570714
v 1.8611969810224651 -0.12223387724958279 0.0761091641250502
v 1.92680710022355 -0.15610022869842766 0.1013682240216216
v 2.0035601677788692 -0.1662017712729913 0.11119486329537409
vn 0.01780079215082677 -0.8310080693237111 0.5559754675502163
vn 0.3988561310603261 -0.7550023112448381 0.5204664222892199
vn 0.7191892310483641 -0.5640542986679592 0.4057210841184611
vn 0.9300322928739073 -0.2872341344782861 0.22920839033990995
vn 0.9992863723104473 0.03331483023263843 0.017800792150826805
vn 0.9164081562285217 0.3487919139107207 -0.19631681534789108
vn 0.6940151093676803 0.6111685834111138 -0.38054696243777736
vn 0.36596455606830725 0.7805003787219202 -0.5068422856438342
vn -0.01780079215082665 0.8310080693237111 -0.5559754675502163
vn -0.3988561310603261 0.7550023112448381 -0.5204664222892199
vn -0.7191892310483641 0.5640542986679592 -0.4057210841184611
vn -0.9300322928739073 0.2872341344782861 -0.22920839033990995
vn -0.9992863723104473 -0.03331483023263833 -0.01780079215082687
vn -0.9164081562285217 -0.3487919139107207 0.19631681534789108
vn -0.6940151093676803 -0.6111685834111138 0.38054696243777736
vn -0.36596455606830725 -0.7805003787219202 0.5068422856438342
vn 0.017800792150826524 -0.8310080693237111 0.5559754675502163
vn 0.01780079215082677 -0.8310080693237111 0.5559754675502163
vn 0.3988561310603261 -0.7550023112448381 0.5204664222892199
vn 0.7191892310483641 -0.5640542986679592 0.4057210841184611
vn 0.9300322928739073 -0.2872341344782861 0.22920839033990995
vn 0.9992863723104473 0.03331483023263843 0.017800792150826805
vn 0.9164081562285217 0.3487919139107207 -0.19631681534789108
vn 0.6940151093676803 0.6111685834111138 -0.38054696243777736
vn 0.36596455606830725 0.7805003787219202 -0.5068422856438342
vn -0.01780079215082665 0.8310080693237111 -0.5559754675502163
vn -0.3988561310603261 0.7550023112448381 -0.5204664222892199
vn -0.7191892310483641 0.5640542986679592 -0.4057210841184611
vn -0.9300322928739073 0.2872341344782861 -0.22920839033990995
vn -0.9992863723104473 -0.03331483023263833 -0.01780079215082687
vn -0.9164081562285217 -0.3487919139107207 0.19631681534789108
vn -0.6940151093676803 -0.6111685834111138 0.38054696243777736
vn -0.36596455606830725 -0.7805003787219202 0.5068422856438342
vn 0.017800792150826524 -0.8310080693237111 0.5559754675502163
vn -0.03331483023263848 0.5552618398606634 0.8310080693237111
vn -0.03331483023263848 0.5552618398606634 0.8310080693237111
vn -0.03331483023263848 0.5552618398606634 0.8310080693237111
vn -0.03331483023263848 0.5552618398606634 0.8310080693237111
vn -0.03331483023263848 0.5552618398606634 0.8310080693237111
vn -0.03331483023263848 0.5552618398606634 0.8310080693237111
vn -0.03331483023263848 0.5552618398606634 0.8310080693237111
vn -0.03331483023263848 0.5552618398606634 0.8310080693237111
vn -0.03331483023263848 0.5552618398606634 0.8310080693237111
vn -0.03331483023263848 0.5552618398606634 0.8310080693237111
vn -0.03331483023263848 0.5552618398606634 0.8310080693237111
vn -0.03331483023263848 0.5552618398606634 0.8310080693237111
vn -0.03331483023263848 0.5552618398606634 0.8310080693237111
vn -0.03331483023263848 0.5552618398606634 0.8310080693237111
vn -0.03331483023263848 0.5552618398606634 0.8310080693237111
vn -0.03331483023263848 0.5552618398606634 0.8310080693237111
vn -0.03331483023263848 0.5552618398606634 0.8310080693237111
vn -0.03331483023263848 0.5552618398606634 0.8310080693237111
vn -0.03331483023263848 0.5552618398606634 0.8310080693237111
vn -0.03331483023263848 0.5552618398606634 0.8310080693237111
vn -0.03331483023263848 0.5552618398606634 0.8310080693237111
vn -0.03331483023263848 0.5552618398606634 0.8310080693237111
vn -0.03331483023263848 0.5552618398606634 0.8310080693237111
vn -0.03331483023263848 0.5552618398606634 0.8310080693237111
vn -0.03331483023263848 0.5552618398606634 0.8310080693237111
vn -0.03331483023263848 0.5552618398606634 0.8310080693237111
vn -0.03331483023263848 0.5552618398606634 0.8310080693237111
vn -0.03331483023263848 0.5552618398606634 0.8310080693237111
vn -0.03331483023263848 0.5552618398606634 0.8310080693237111
vn -0.03331483023263848 0.5552618398606634 0.8310080693237111
vn -0.03331483023263848 0.5552618398606634 0.8310080693237111
vn -0.03331483023263848 0.5552618398606634 0.8310080693237111
vn -0.03331483023263848 0.5552618398606634 0.8310080693237111
vn 0.03331483023263848 -0.5552618398606634 -0.8310080693237111
vn 0.03331483023263848 -0.5552618398606634 -0.8310080693237111
vn 0.03331483023263848 -0.5552618398606634 -0.8310080693237111
vn 0.03331483023263848 -0.5552618398606634 -0.8310080693237111
vn 0.03331483023263848 -0.5552618398606634 -0.8310080693237111
vn 0.03331483023263848 -0.5552618398606634 -0.8310080693237111
vn 0.03331483023263848 -0.5552618398606634 -0.8310080693237111
vn 0.03331483023263848 -0.5552618398606634 -0.8310080693237111
vn 0.03331483023263848 -0.5552618398606634 -0.8310080693237111
vn 0.03331483023263848 -0.5552618398606634 -0.8310080693237111
vn 0.03331483023263848 -0.5552618398606634 -0.8310080693237111
vn 0.03331483023263848 -0.5552618398606634 -0.8310080693237111
vn 0.03331483023263848 -0.5552618398606634 -0.8310080693237111
vn 0.03331483023263848 -0.5552618398606634 -0.8310080693237111
vn 0.03331483023263848 -0.5552618398606634 -0.8310080693237111
vn 0.03331483023263848 -0.5552618398606634 -0.8310080693237111
vn 0.03331483023263848 -0.5552618398606634 -0.8310080693237111
vn 0.03331483023263848 -0.5552618398606634 -0.8310080693237111
vn 0.03331483023263848 -0.5552618398606634 -0.8310080693237111
vn 0.03331483023263848 -0.5552618398606634 -0.8310080693237111
vn 0.03331483023263848 -0.5552618398606634 -0.8310080693237111
vn 0.03331483023263848 -0.5552618398606634 -0.8310080693237111
vn 0.03331483023263848 -0.5552618398606634 -0.8310080693237111
vn 0.03331483023263848 -0.5552618398606634 -0.8310080693237111
vn 0.03331483023263848 -0.5552618398606634 -0.8310080693237111
vn 0.03331483023263848 -0.5552618398606634 -0.8310080693237111
vn 0.03331483023263848 -0.5552618398606634 -0.8310080693237111
vn 0.03331483023263848 -0.5552618398606634 -0.8310080693237111
vn 0.03331483023263848 -0.5552618398606634 -0.8310080693237111
vn 0.03331483023263848 -0.5552618398606634 -0.8310080693237111
vn 0.03331483023263848 -0.5552618398606634 -0.8310080693237111
vn 0.03331483023263848 -0.5552618398606634 -0.8310080693237111
vn 0.03331483023263848 -0.5552618398606634 -0.8310080693237111
f 1//1 18//18 2//2
f 18//18 19//19 2//2
f 2//2 19//19 3//3
f 19//19 20//20 3//3
f 3//3 20//20 4//4
f 20//20 21//21 4//4
f 4//4 21//21 5//5
f 21//21 22//22 5//5
f 5//5 22//22 6//6
f 22//22 23//23 6//6
f 6//6 23//23 7//7
f 23//23 24//24 7//7
f 7//7 24//24 8//8
f 24//24 25//25 8//8
f 8//8 25//25 9//9
f 25//25 26//26 9//9
f 9//9 26//26 10//10
f 26//26 27//27 10//10
f 10//10 27//27 11//11
f 27//27 28//28 11//11
f 11//11 28//28 12//12
f 28//28 29//29 12//12
f 12//12 29//29 13//13
f 29//29 30//30 13//13
f 13//13 30//30 14//14
f 30//30 31//31 14//14
f 14//14 31//31 15//15
f 31//31 32//32 15//15
f 15//15 32//32 16//16
f 32//32 33//33 16//16
f 16//16 33//33 17//17
f 33//33 34//34 17//17
f 51//51 52//52 35//35
f 52//52 53//53 36//36
f 53//53 54//54 37//37
f 54//54 55//55 38//38
f 55//55 56//56 39//39
f 56//56 57//57 40//40
f 57//57 58//58 41//41
f 58//58 59//59 42//42
f 59//59 60//60 43//43
f 60//60 61//61 44//44
f 61//61 62//62 45//45
f 62//62 63//63 46//46
f 63//63 64//64 47//47
f 64//64 65//65 48//48
f 65//65 66//66 49//49
f 66//66 67//67 50//50
f 85//85 84//84 68//68
f 86//86 85//85 69//69
f 87//87 86//86 70//70
f 88//88 87//87 71//71
f 89//89 88//88 72//72
f 90//90 89//89 73//73
f 91//91 90//90 74//74
f 92//92 91//91 75//75
f 93//93 92//92 76//76
f 94//94 93//93 77//77
f 95//95 94//94 78//78
f 96//96 95//95 79//79
f 97//97 96//96 80//80
f 98//98 97//97 81//81
f 99//99 98//98 82//82
f 100//100 99//99 83//83
