# Mesh: spoke_front_25
v 1.0657497256921014 -29.462555091937208 5.667895608731756
v 1.1329824172188396 -29.45703685952245 5.707125083391006
v 1.1799697528742759 -29.44642188113425 5.768518488010047
v 1.1995583033411121 -29.432326185900102 5.842729253235655
v 1.188765926252247 -29.416895719462314 5.9184594498763445
v 1.1492356363849296 -29.402479629582395 5.984179841814719
v 1.086985583030604 -29.39127263269893 6.029885111610811
v 1.0114927519456514 -29.384980898343905 6.048617013342362
v 0.9342502557165974 -29.38456227927905 6.03752382104543
v 0.8670175641898591 -29.390080511693807 5.99829434638618
v 0.820030228534423 -29.400695490082008 5.936900941767139
v 0.8004416780675866 -29.414791185316155 5.862690176541531
v 0.8112340551564519 -29.430221651753943 5.786959979900841
v 0.8507643450237691 -29.444637741633862 5.721239587962467
v 0.9130143983780947 -29.455844738517328 5.675534318166376
v 0.9885072294630476 -29.462136472872352 5.656802416434823
v 1.0657497256921014 -29.462555091937208 5.667895608731756
v 2.0657497442834027 -0.03899613281786429 -0.18481416056158118
v 2.132982435810141 -0.033477900403106275 -0.1455846859023313
v 2.179969771465577 -0.022862922014903475 -0.08419128128329012
v 2.1995583219324133 -0.00876722678076014 -0.009980516057682465
v 2.1887659448435484 0.006663239657029862 0.06574968058300756
v 2.149235654976231 0.021079329536947355 0.131470072521382
v 2.0869856016219055 0.032286326420416955 0.17717534231747356
v 2.0114927705369525 0.03857806077543913 0.19590724404902504
v 1.9342502743078986 0.0389966798402952 0.18481405175209265
v 1.8670175827811604 0.03347844742553718 0.14558457709284278
v 1.8200302471257241 0.022863469037334383 0.08419117247380159
v 1.8004416966588879 0.008767773803191048 0.009980407248193934
v 1.811234073747753 -0.0066626926345989546 -0.0657497893924961
v 1.8507643636150704 -0.021078782514516448 -0.13147018133087052
v 1.913014416969396 -0.03228577939798605 -0.1771754511269621
v 1.9885072480543486 -0.03857751375300822 -0.19590735285851357
v 2.0657497442834027 -0.03899613281786429 -0.18481416056158118
v 0.9999999907043494 -29.42355868560813 5.852709714888594
v 0.9999999907043494 -29.42355868560813 5.852709714888594
v 0.9999999907043494 -29.42355868560813 5.852709714888594
v 0.9999999907043494 -29.42355868560813 5.852709714888594
v 0.9999999907043494 -29.42355868560813 5.852709714888594
v 0.9999999907043494 -29.42355868560813 5.852709714888594
v 0.9999999907043494 -29.42355868560813 5.852709714888594
v 0.9999999907043494 -29.42355868560813 5.852709714888594
v 0.9999999907043494 -29.42355868560813 5.852709714888594
v 0.9999999907043494 -29.42355868560813 5.852709714888594
v 0.9999999907043494 -29.42355868560813 5.852709714888594
v 0.9999999907043494 -29.42355868560813 5.852709714888594
v 0.9999999907043494 -29.42355868560813 5.852709714888594
v 0.9999999907043494 -29.42355868560813 5.852709714888594
v 0.9999999907043494 -29.42355868560813 5.852709714888594
v 0.9999999907043494 -29.42355868560813 5.852709714888594
v 1.0657497256921014 -29.462555091937208 5.667895608731756
v 1.1329824172188396 -29.45703685952245 5.707125083391006
v 1.1799697528742759 -29.44642188113425 5.768518488010047
v 1.1995583033411121 -29.432326185900102 5.842729253235655
v 1.188765926252247 -29.416895719462314 5.9184594498763445
v 1.1492356363849296 -29.402479629582395 5.984179841814719
v 1.086985583030604 -29.39127263269893 6.029885111610811
v 1.0114927519456514 -29.384980898343905 6.048617013342362
v 0.9342502557165974 -29.38456227927905 6.03752382104543
v 0.8670175641898591 -29.390080511693807 5.99829434638618
v 0.820030228534423 -29.400695490082008 5.936900941767139
v 0.8004416780675866 -29.414791185316155 5.862690176541531
v 0.8112340551564519 -29.430221651753943 5.786959979900841
v 0.8507643450237691 -29.444637741633862 5.721239587962467
v 0.9130143983780947 -29.455844738517328 5.675534318166376
v 0.9885072294630476 -29.462136472872352 5.656802416434823
v 1.0657497256921014 -29.462555091937208 5.667895608731756
v 2.0000000092956505 2.7351121545393653e-7 -5.440474426521291e-8
v 2.0000000092956505 2.7351121545393653e-7 -5.440474426521291e-8
v 2.0000000092956505 2.7351121545393653e-7 -5.440474426521291e-8
v 2.0000000092956505 2.7351121545393653e-7 -5.440474426521291e-8
v 2.0000000092956505 2.7351121545393653e-7 -5.440474426521291e-8
v 2.0000000092956505 2.7351121545393653e-7 -5.440474426521291e-8
v 2.0000000092956505 2.7351121545393653e-7 -5.440474426521291e-8
v 2.0000000092956505 2.7351121545393653e-7 -5.440474426521291e-8
v 2.0000000092956505 2.7351121545393653e-7 -5.440474426521291e-8
v 2.0000000092956505 2.7351121545393653e-7 -5.440474426521291e-8
v 2.0000000092956505 2.7351121545393653e-7 -5.440474426521291e-8
v 2.0000000092956505 2.7351121545393653e-7 -5.440474426521291e-8
v 2.0000000092956505 2.7351121545393653e-7 -5.440474426521291e-8
v 2.0000000092956505 2.7351121545393653e-7 -5.440474426521291e-8
v 2.0000000092956505 2.7351121545393653e-7 -5.440474426521291e-8
v 2.0000000092956505 2.7351121545393653e-7 -5.440474426521291e-8
v 2.0657497442834027 -0.03899613281786429 -0.18481416056158118
v 2.132982435810141 -0.033477900403106275 -0.1455846859023313
v 2.179969771465577 -0.022862922014903475 -0.08419128128329012
v 2.1995583219324133 -0.00876722678076014 -0.009980516057682465
v 2.1887659448435484 0.006663239657029862 0.06574968058300756
v 2.149235654976231 0.021079329536947355 0.131470072521382
v 2.0869856016219055 0.032286326420416955 0.17717534231747356
v 2.0114927705369525 0.03857806077543913 0.19590724404902504
v 1.9342502743078986 0.0389966798402952 0.18481405175209265
v 1.8670175827811604 0.03347844742553718 0.14558457709284278
v 1.8200302471257241 0.022863469037334383 0.08419117247380159
v 1.8004416966588879 0.008767773803191048 0.009980407248193934
v 1.811234073747753 -0.0066626926345989546 -0.0657497893924961
v 1.8507643636150704 -0.021078782514516448 -0.13147018133087052
v 1.913014416969396 -0.03228577939798605 -0.1771754511269621
v 1.9885072480543486 -0.03857751375300822 -0.19590735285851357
v 2.0657497442834027 -0.03899613281786429 -0.18481416056158118
vn 0.3287486700400232 -0.1949820287399414 -0.9240705170144607
vn 0.6649121466465069 -0.16739087144252973 -0.727923164488976
vn 0.8998487693612035 -0.1143159723599457 -0.4209561149841247
vn 0.9977915775909243 -0.04383750320717605 -0.04990231458735457
vn 0.94382966367533 0.03331483023263823 0.328748670040023
vn 0.7461782356304058 0.10539528263961016 0.6573506484889259
vn 0.4349279415784854 0.16143025710309997 0.8858769427668431
vn 0.0574638127449353 0.19288893891961162 0.979536506449495
vn -0.3287486700400231 0.1949820287399414 0.9240705170144607
vn -0.6649121466465069 0.16739087144252973 0.727923164488976
vn -0.8998487693612035 0.1143159723599457 0.4209561149841247
vn -0.9977915775909243 0.04383750320717605 0.04990231458735457
vn -0.9438296636753302 -0.03331483023263821 -0.3287486700400229
vn -0.7461782356304058 -0.10539528263961016 -0.6573506484889259
vn -0.4349279415784854 -0.16143025710309997 -0.8858769427668431
vn -0.0574638127449353 -0.19288893891961162 -0.979536506449495
vn 0.328748670040023 -0.1949820287399414 -0.9240705170144609
vn 0.3287486700400232 -0.1949820287399414 -0.9240705170144607
vn 0.6649121466465069 -0.16739087144252973 -0.727923164488976
vn 0.8998487693612035 -0.1143159723599457 -0.4209561149841247
vn 0.9977915775909243 -0.04383750320717605 -0.04990231458735457
vn 0.94382966367533 0.03331483023263823 0.328748670040023
vn 0.7461782356304058 0.10539528263961016 0.6573506484889259
vn 0.4349279415784854 0.16143025710309997 0.8858769427668431
vn 0.0574638127449353 0.19288893891961162 0.979536506449495
vn -0.3287486700400231 0.1949820287399414 0.9240705170144607
vn -0.6649121466465069 0.16739087144252973 0.727923164488976
vn -0.8998487693612035 0.1143159723599457 0.4209561149841247
vn -0.9977915775909243 0.04383750320717605 0.04990231458735457
vn -0.9438296636753302 -0.03331483023263821 -0.3287486700400229
vn -0.7461782356304058 -0.10539528263961016 -0.6573506484889259
vn -0.4349279415784854 -0.16143025710309997 -0.8858769427668431
vn -0.0574638127449353 -0.19288893891961162 -0.979536506449495
vn 0.328748670040023 -0.1949820287399414 -0.9240705170144609
vn -0.03331483023263826 -0.9802408533391307 0.1949820287399414
vn -0.03331483023263826 -0.9802408533391307 0.1949820287399414
vn -0.03331483023263826 -0.9802408533391307 0.1949820287399414
vn -0.03331483023263826 -0.9802408533391307 0.1949820287399414
vn -0.03331483023263826 -0.9802408533391307 0.1949820287399414
vn -0.03331483023263826 -0.9802408533391307 0.1949820287399414
vn -0.03331483023263826 -0.9802408533391307 0.1949820287399414
vn -0.03331483023263826 -0.9802408533391307 0.1949820287399414
vn -0.03331483023263826 -0.9802408533391307 0.1949820287399414
vn -0.03331483023263826 -0.9802408533391307 0.1949820287399414
vn -0.03331483023263826 -0.9802408533391307 0.1949820287399414
vn -0.03331483023263826 -0.9802408533391307 0.1949820287399414
vn -0.03331483023263826 -0.9802408533391307 0.1949820287399414
vn -0.03331483023263826 -0.9802408533391307 0.1949820287399414
vn -0.03331483023263826 -0.9802408533391307 0.1949820287399414
vn -0.03331483023263826 -0.9802408533391307 0.1949820287399414
vn -0.03331483023263826 -0.9802408533391307 0.1949820287399414
vn -0.03331483023263826 -0.9802408533391307 0.1949820287399414
vn -0.03331483023263826 -0.9802408533391307 0.1949820287399414
vn -0.03331483023263826 -0.9802408533391307 0.1949820287399414
vn -0.03331483023263826 -0.9802408533391307 0.1949820287399414
vn -0.03331483023263826 -0.9802408533391307 0.1949820287399414
vn -0.03331483023263826 -0.9802408533391307 0.1949820287399414
vn -0.03331483023263826 -0.9802408533391307 0.1949820287399414
vn -0.03331483023263826 -0.9802408533391307 0.1949820287399414
vn -0.03331483023263826 -0.9802408533391307 0.1949820287399414
vn -0.03331483023263826 -0.9802408533391307 0.1949820287399414
vn -0.03331483023263826 -0.9802408533391307 0.1949820287399414
vn -0.03331483023263826 -0.9802408533391307 0.1949820287399414
vn -0.03331483023263826 -0.9802408533391307 0.1949820287399414
vn -0.03331483023263826 -0.9802408533391307 0.1949820287399414
vn -0.03331483023263826 -0.9802408533391307 0.1949820287399414
vn -0.03331483023263826 -0.9802408533391307 0.1949820287399414
vn 0.03331483023263826 0.9802408533391307 -0.1949820287399414
vn 0.03331483023263826 0.9802408533391307 -0.1949820287399414
vn 0.03331483023263826 0.9802408533391307 -0.1949820287399414
vn 0.03331483023263826 0.9802408533391307 -0.1949820287399414
vn 0.03331483023263826 0.9802408533391307 -0.1949820287399414
vn 0.03331483023263826 0.9802408533391307 -0.1949820287399414
vn 0.03331483023263826 0.9802408533391307 -0.1949820287399414
vn 0.03331483023263826 0.9802408533391307 -0.1949820287399414
vn 0.03331483023263826 0.9802408533391307 -0.1949820287399414
vn 0.03331483023263826 0.9802408533391307 -0.1949820287399414
vn 0.03331483023263826 0.9802408533391307 -0.1949820287399414
vn 0.03331483023263826 0.9802408533391307 -0.1949820287399414
vn 0.03331483023263826 0.9802408533391307 -0.1949820287399414
vn 0.03331483023263826 0.9802408533391307 -0.1949820287399414
vn 0.03331483023263826 0.9802408533391307 -0.1949820287399414
vn 0.03331483023263826 0.9802408533391307 -0.1949820287399414
vn 0.03331483023263826 0.9802408533391307 -0.1949820287399414
vn 0.03331483023263826 0.9802408533391307 -0.1949820287399414
vn 0.03331483023263826 0.9802408533391307 -0.1949820287399414
vn 0.03331483023263826 0.9802408533391307 -0.1949820287399414
vn 0.03331483023263826 0.9802408533391307 -0.1949820287399414
vn 0.03331483023263826 0.9802408533391307 -0.1949820287399414
vn 0.03331483023263826 0.9802408533391307 -0.1949820287399414
vn 0.03331483023263826 0.9802408533391307 -0.1949820287399414
vn 0.03331483023263826 0.9802408533391307 -0.1949820287399414
vn 0.03331483023263826 0.9802408533391307 -0.1949820287399414
vn 0.03331483023263826 0.9802408533391307 -0.1949820287399414
vn 0.03331483023263826 0.9802408533391307 -0.1949820287399414
vn 0.03331483023263826 0.9802408533391307 -0.1949820287399414
vn 0.03331483023263826 0.9802408533391307 -0.1949820287399414
vn 0.03331483023263826 0.9802408533391307 -0.1949820287399414
vn 0.03331483023263826 0.9802408533391307 -0.1949820287399414
vn 0.03331483023263826 0.9802408533391307 -0.1949820287399414
f 1//1 18//18 2//2
f 18//18 19//19 2//2
f 2//2 19//19 3//3
f 19//19 20//20 3//3
f 3//3 20//20 4//4
f 20//20 21//21 4//4
f 4//4 21//21 5//5
f 21//21 22//22 5//5
f 5//5 22//22 6//6
f 22//22 23//23 6//6
f 6//6 23//23 7//7
f 23//23 24//24 7//7
f 7//7 24//24 8//8
f 24//24 25//25 8//8
f 8//8 25//25 9//9
f 25//25 26//26 9//9
f 9//9 26//26 10//10
f 26//26 27//27 10//10
f 10//10 27//27 11//11
f 27//27 28//28 11//11
f 11//11 28//28 12//12
f 28//28 29//29 12//12
f 12//12 29//29 13//13
f 29//29 30//30 13//13
f 13//13 30//30 14//14
f 30//30 31//31 14//14
f 14//14 31//31 15//15
f 31//31 32//32 15//15
f 15//15 32//32 16//16
f 32//32 33//33 16//16
f 16//16 33//33 17//17
f 33//33 34//34 17//17
f 51//51 52//52 35//35
f 52//52 53//53 36//36
f 53//53 54//54 37//37
f 54//54 55//55 38//38
f 55//55 56//56 39//39
f 56//56 57//57 40//40
f 57//57 58//58 41//41
f 58//58 59//59 42//42
f 59//59 60//60 43//43
f 60//60 61//61 44//44
f 61//61 62//62 45//45
f 62//62 63//63 46//46
f 63//63 64//64 47//47
f 64//64 65//65 48//48
f 65//65 66//66 49//49
f 66//66 67//67 50//50
f 85//85 84//84 68//68
f 86//86 85//85 69//69
f 87//87 86//86 70//70
f 88//88 87//87 71//71
f 89//89 88//88 72//72
f 90//90 89//89 73//73
f 91//91 90//90 74//74
f 92//92 91//91 75//75
f 93//93 92//92 76//76
f 94//94 93//93 77//77
f 95//95 94//94 78//78
f 96//96 95//95 79//79
f 97//97 96//96 80//80
f 98//98 97//97 81//81
f 99//99 98//98 82//82
f 100//100 99//99 83//83
