v -0.100000 54.713203 21.213203
v -0.092388 54.713203 21.251472
v -0.070711 54.713203 21.283914
v -0.038268 54.713203 21.305591
v 0.000000 54.713203 21.313203
v 0.038268 54.713203 21.305591
v 0.070711 54.713203 21.283914
v 0.092388 54.713203 21.251472
v 0.100000 54.713203 21.213203
v 0.092388 54.713203 21.174935
v 0.070711 54.713203 21.142493
v 0.038268 54.713203 21.120815
v 0.000000 54.713203 21.113203
v -0.038268 54.713203 21.120815
v -0.070711 54.713203 21.142493
v -0.092388 54.713203 21.174935
v -0.100000 56.213203 21.213203
v -0.092388 56.213203 21.251472
v -0.070711 56.213203 21.283914
v -0.038268 56.213203 21.305591
v -0.000000 56.213203 21.313203
v 0.038268 56.213203 21.305591
v 0.070711 56.213203 21.283914
v 0.092388 56.213203 21.251472
v 0.100000 56.213203 21.213203
v 0.092388 56.213203 21.174935
v 0.070711 56.213203 21.142493
v 0.038268 56.213203 21.120815
v -0.000000 56.213203 21.113203
v -0.038268 56.213203 21.120815
v -0.070711 56.213203 21.142493
v -0.092388 56.213203 21.174935
v 0.000000 54.713203 21.213203
v -0.000000 56.213203 21.213203
v 1.250000 54.713203 21.213203
v 0.883883 54.713203 22.097087
v 0.000000 54.713203 22.463203
v -0.883883 54.713203 22.097087
v -1.250000 54.713203 21.213203
v -0.883883 54.713203 20.329320
v -0.000000 54.713203 19.963203
v 0.883883 54.713203 20.329320
v 1.250000 52.213203 21.213203
v 0.883883 52.213203 22.097087
v 0.000000 52.213203 22.463203
v -0.883883 52.213203 22.097087
v -1.250000 52.213203 21.213203
v -0.883883 52.213203 20.329320
v -0.000000 52.213203 19.963203
v 0.883883 52.213203 20.329320
v 0.000000 54.713203 21.213203
v 0.000000 52.213203 21.213203
v 1.375000 54.463203 21.213203
v 0.972272 54.463203 22.185475
v 0.000000 54.463203 22.588203
v -0.972272 54.463203 22.185475
v -1.375000 54.463203 21.213203
v -0.972272 54.463203 20.240932
v -0.000000 54.463203 19.838203
v 0.972272 54.463203 20.240932
v 0.000000 54.963203 21.213203
v 0.000000 54.463203 21.213203
v 1.250000 52.263203 21.213203
v 0.883883 52.263203 22.097087
v 0.000000 52.263203 22.463203
v -0.883883 52.263203 22.097087
v -1.250000 52.263203 21.213203
v -0.883883 52.263203 20.329320
v -0.000000 52.263203 19.963203
v 0.883883 52.263203 20.329320
v 1.250000 52.163203 21.213203
v 0.883883 52.163203 22.097087
v 0.000000 52.163203 22.463203
v -0.883883 52.163203 22.097087
v -1.250000 52.163203 21.213203
v -0.883883 52.163203 20.329320
v -0.000000 52.163203 19.963203
v 0.883883 52.163203 20.329320
v 0.000000 52.263203 21.213203
v 0.000000 52.163203 21.213203
f 1 17 18
f 1 18 2
f 33 2 1
f 34 17 18
f 2 18 19
f 2 19 3
f 33 3 2
f 34 18 19
f 3 19 20
f 3 20 4
f 33 4 3
f 34 19 20
f 4 20 21
f 4 21 5
f 33 5 4
f 34 20 21
f 5 21 22
f 5 22 6
f 33 6 5
f 34 21 22
f 6 22 23
f 6 23 7
f 33 7 6
f 34 22 23
f 7 23 24
f 7 24 8
f 33 8 7
f 34 23 24
f 8 24 25
f 8 25 9
f 33 9 8
f 34 24 25
f 9 25 26
f 9 26 10
f 33 10 9
f 34 25 26
f 10 26 27
f 10 27 11
f 33 11 10
f 34 26 27
f 11 27 28
f 11 28 12
f 33 12 11
f 34 27 28
f 12 28 29
f 12 29 13
f 33 13 12
f 34 28 29
f 13 29 30
f 13 30 14
f 33 14 13
f 34 29 30
f 14 30 31
f 14 31 15
f 33 15 14
f 34 30 31
f 15 31 32
f 15 32 16
f 33 16 15
f 34 31 32
f 16 32 17
f 16 17 1
f 33 1 16
f 34 32 17
f 35 43 44
f 35 44 36
f 51 36 35
f 52 43 44
f 36 44 45
f 36 45 37
f 51 37 36
f 52 44 45
f 37 45 46
f 37 46 38
f 51 38 37
f 52 45 46
f 38 46 47
f 38 47 39
f 51 39 38
f 52 46 47
f 39 47 48
f 39 48 40
f 51 40 39
f 52 47 48
f 40 48 49
f 40 49 41
f 51 41 40
f 52 48 49
f 41 49 50
f 41 50 42
f 51 42 41
f 52 49 50
f 42 50 43
f 42 43 35
f 51 35 42
f 52 50 43
f 53 54 61
f 62 54 53
f 54 55 61
f 62 55 54
f 55 56 61
f 62 56 55
f 56 57 61
f 62 57 56
f 57 58 61
f 62 58 57
f 58 59 61
f 62 59 58
f 59 60 61
f 62 60 59
f 60 53 61
f 62 53 60
f 63 71 72
f 63 72 64
f 79 64 63
f 80 71 72
f 64 72 73
f 64 73 65
f 79 65 64
f 80 72 73
f 65 73 74
f 65 74 66
f 79 66 65
f 80 73 74
f 66 74 75
f 66 75 67
f 79 67 66
f 80 74 75
f 67 75 76
f 67 76 68
f 79 68 67
f 80 75 76
f 68 76 77
f 68 77 69
f 79 69 68
f 80 76 77
f 69 77 78
f 69 78 70
f 79 70 69
f 80 77 78
f 70 78 71
f 70 71 63
f 79 63 70
f 80 78 71
