v -10.000000 0.000000 -12.500000
v 10.000000 0.000000 -12.500000
v 10.000000 2.000000 -12.500000
v -10.000000 2.000000 -12.500000
v -10.000000 0.000000 12.500000
v 10.000000 0.000000 12.500000
v 10.000000 2.000000 12.500000
v -10.000000 2.000000 12.500000
v 0.781326 34.829971 2.524899
v 0.731379 34.929670 2.816446
v 0.570087 35.040076 3.059817
v 0.322004 35.144381 3.217961
v 0.024899 35.226705 3.266802
v -0.275997 35.274516 3.198904
v -0.534875 35.280534 3.024605
v -0.712323 35.243843 2.770439
v -0.781326 35.170029 2.475101
v -0.731379 35.070330 2.183554
v -0.570087 34.959924 1.940183
v -0.322004 34.855619 1.782039
v -0.024899 34.773295 1.733198
v 0.275997 34.725484 1.801096
v 0.534875 34.719466 1.975395
v 0.712323 34.756157 2.229561
v -6.718674 1.829971 12.524899
v -6.768621 1.929670 12.816446
v -6.929913 2.040076 13.059817
v -7.177996 2.144381 13.217961
v -7.475101 2.226705 13.266802
v -7.775997 2.274516 13.198904
v -8.034875 2.280534 13.024605
v -8.212323 2.243843 12.770439
v -8.281326 2.170029 12.475101
v -8.231379 2.070330 12.183554
v -8.070087 1.959924 11.940183
v -7.822004 1.855619 11.782039
v -7.524899 1.773295 11.733198
v -7.224003 1.725484 11.801096
v -6.965125 1.719466 11.975395
v -6.787677 1.756157 12.229561
v -0.000000 35.000000 2.500000
v -7.500000 2.000000 12.500000
v 0.781326 35.170029 2.475101
v 0.712323 35.243843 2.770439
v 0.534875 35.280534 3.024605
v 0.275997 35.274516 3.198904
v -0.024899 35.226705 3.266802
v -0.322004 35.144381 3.217961
v -0.570087 35.040076 3.059817
v -0.731379 34.929670 2.816446
v -0.781326 34.829971 2.524899
v -0.712323 34.756157 2.229561
v -0.534875 34.719466 1.975395
v -0.275997 34.725484 1.801096
v 0.024899 34.773295 1.733198
v 0.322004 34.855619 1.782039
v 0.570087 34.959924 1.940183
v 0.731379 35.070330 2.183554
v 8.281326 2.170029 12.475101
v 8.212323 2.243843 12.770439
v 8.034875 2.280534 13.024605
v 7.775997 2.274516 13.198904
v 7.475101 2.226705 13.266802
v 7.177996 2.144381 13.217961
v 6.929913 2.040076 13.059817
v 6.768621 1.929670 12.816446
v 6.718674 1.829971 12.524899
v 6.787677 1.756157 12.229561
v 6.965125 1.719466 11.975395
v 7.224003 1.725484 11.801096
v 7.524899 1.773295 11.733198
v 7.822004 1.855619 11.782039
v 8.070087 1.959924 11.940183
v 8.231379 2.070330 12.183554
v 0.000000 35.000000 2.500000
v 7.500000 2.000000 12.500000
v 0.781326 34.829971 -2.524899
v 0.712323 34.756157 -2.229561
v 0.534875 34.719466 -1.975395
v 0.275997 34.725484 -1.801096
v -0.024899 34.773295 -1.733198
v -0.322004 34.855619 -1.782039
v -0.570087 34.959924 -1.940183
v -0.731379 35.070330 -2.183554
v -0.781326 35.170029 -2.475101
v -0.712323 35.243843 -2.770439
v -0.534875 35.280534 -3.024605
v -0.275997 35.274516 -3.198904
v 0.024899 35.226705 -3.266802
v 0.322004 35.144381 -3.217961
v 0.570087 35.040076 -3.059817
v 0.731379 34.929670 -2.816446
v -6.718674 1.829971 -12.524899
v -6.787677 1.756157 -12.229561
v -6.965125 1.719466 -11.975395
v -7.224003 1.725484 -11.801096
v -7.524899 1.773295 -11.733198
v -7.822004 1.855619 -11.782039
v -8.070087 1.959924 -11.940183
v -8.231379 2.070330 -12.183554
v -8.281326 2.170029 -12.475101
v -8.212323 2.243843 -12.770439
v -8.034875 2.280534 -13.024605
v -7.775997 2.274516 -13.198904
v -7.475101 2.226705 -13.266802
v -7.177996 2.144381 -13.217961
v -6.929913 2.040076 -13.059817
v -6.768621 1.929670 -12.816446
v -0.000000 35.000000 -2.500000
v -7.500000 2.000000 -12.500000
v 0.781326 35.170029 -2.475101
v 0.731379 35.070330 -2.183554
v 0.570087 34.959924 -1.940183
v 0.322004 34.855619 -1.782039
v 0.024899 34.773295 -1.733198
v -0.275997 34.725484 -1.801096
v -0.534875 34.719466 -1.975395
v -0.712323 34.756157 -2.229561
v -0.781326 34.829971 -2.524899
v -0.731379 34.929670 -2.816446
v -0.570087 35.040076 -3.059817
v -0.322004 35.144381 -3.217961
v -0.024899 35.226705 -3.266802
v 0.275997 35.274516 -3.198904
v 0.534875 35.280534 -3.024605
v 0.712323 35.243843 -2.770439
v 8.281326 2.170029 -12.475101
v 8.231379 2.070330 -12.183554
v 8.070087 1.959924 -11.940183
v 7.822004 1.855619 -11.782039
v 7.524899 1.773295 -11.733198
v 7.224003 1.725484 -11.801096
v 6.965125 1.719466 -11.975395
v 6.787677 1.756157 -12.229561
v 6.718674 1.829971 -12.524899
v 6.768621 1.929670 -12.816446
v 6.929913 2.040076 -13.059817
v 7.177996 2.144381 -13.217961
v 7.475101 2.226705 -13.266802
v 7.775997 2.274516 -13.198904
v 8.034875 2.280534 -13.024605
v 8.212323 2.243843 -12.770439
v 0.000000 35.000000 -2.500000
v 7.500000 2.000000 -12.500000
v 3.522727 18.900000 7.196970
v 3.522727 18.945672 7.426580
v 3.522727 19.075736 7.621234
v 3.522727 19.270390 7.751297
v 3.522727 19.500000 7.796970
v 3.522727 19.729610 7.751297
v 3.522727 19.924264 7.621234
v 3.522727 20.054328 7.426580
v 3.522727 20.100000 7.196970
v 3.522727 20.054328 6.967360
v 3.522727 19.924264 6.772706
v 3.522727 19.729610 6.642642
v 3.522727 19.500000 6.596970
v 3.522727 19.270390 6.642642
v 3.522727 19.075736 6.772706
v 3.522727 18.945672 6.967360
v -3.522727 18.900000 7.196970
v -3.522727 18.945672 7.426580
v -3.522727 19.075736 7.621234
v -3.522727 19.270390 7.751297
v -3.522727 19.500000 7.796970
v -3.522727 19.729610 7.751297
v -3.522727 19.924264 7.621234
v -3.522727 20.054328 7.426580
v -3.522727 20.100000 7.196970
v -3.522727 20.054328 6.967360
v -3.522727 19.924264 6.772706
v -3.522727 19.729610 6.642642
v -3.522727 19.500000 6.596970
v -3.522727 19.270390 6.642642
v -3.522727 19.075736 6.772706
v -3.522727 18.945672 6.967360
v 3.522727 19.500000 7.196970
v -3.522727 19.500000 7.196970
v 3.522727 18.900000 -7.196970
v 3.522727 18.945672 -6.967360
v 3.522727 19.075736 -6.772706
v 3.522727 19.270390 -6.642642
v 3.522727 19.500000 -6.596970
v 3.522727 19.729610 -6.642642
v 3.522727 19.924264 -6.772706
v 3.522727 20.054328 -6.967360
v 3.522727 20.100000 -7.196970
v 3.522727 20.054328 -7.426580
v 3.522727 19.924264 -7.621234
v 3.522727 19.729610 -7.751297
v 3.522727 19.500000 -7.796970
v 3.522727 19.270390 -7.751297
v 3.522727 19.075736 -7.621234
v 3.522727 18.945672 -7.426580
v -3.522727 18.900000 -7.196970
v -3.522727 18.945672 -6.967360
v -3.522727 19.075736 -6.772706
v -3.522727 19.270390 -6.642642
v -3.522727 19.500000 -6.596970
v -3.522727 19.729610 -6.642642
v -3.522727 19.924264 -6.772706
v -3.522727 20.054328 -6.967360
v -3.522727 20.100000 -7.196970
v -3.522727 20.054328 -7.426580
v -3.522727 19.924264 -7.621234
v -3.522727 19.729610 -7.751297
v -3.522727 19.500000 -7.796970
v -3.522727 19.270390 -7.751297
v -3.522727 19.075736 -7.621234
v -3.522727 18.945672 -7.426580
v 3.522727 19.500000 -7.196970
v -3.522727 19.500000 -7.196970
v -2.922727 19.500000 -7.196970
v -2.968400 19.729610 -7.196970
v -3.098463 19.924264 -7.196970
v -3.293117 20.054328 -7.196970
v -3.522727 20.100000 -7.196970
v -3.752337 20.054328 -7.196970
v -3.946991 19.924264 -7.196970
v -4.077055 19.729610 -7.196970
v -4.122727 19.500000 -7.196970
v -4.077055 19.270390 -7.196970
v -3.946991 19.075736 -7.196970
v -3.752337 18.945672 -7.196970
v -3.522727 18.900000 -7.196970
v -3.293117 18.945672 -7.196970
v -3.098463 19.075736 -7.196970
v -2.968400 19.270390 -7.196970
v -2.922727 19.500000 7.196970
v -2.968400 19.729610 7.196970
v -3.098463 19.924264 7.196970
v -3.293117 20.054328 7.196970
v -3.522727 20.100000 7.196970
v -3.752337 20.054328 7.196970
v -3.946991 19.924264 7.196970
v -4.077055 19.729610 7.196970
v -4.122727 19.500000 7.196970
v -4.077055 19.270390 7.196970
v -3.946991 19.075736 7.196970
v -3.752337 18.945672 7.196970
v -3.522727 18.900000 7.196970
v -3.293117 18.945672 7.196970
v -3.098463 19.075736 7.196970
v -2.968400 19.270390 7.196970
v -3.522727 19.500000 -7.196970
v -3.522727 19.500000 7.196970
v 4.122727 19.500000 -7.196970
v 4.077055 19.729610 -7.196970
v 3.946991 19.924264 -7.196970
v 3.752337 20.054328 -7.196970
v 3.522727 20.100000 -7.196970
v 3.293117 20.054328 -7.196970
v 3.098463 19.924264 -7.196970
v 2.968400 19.729610 -7.196970
v 2.922727 19.500000 -7.196970
v 2.968400 19.270390 -7.196970
v 3.098463 19.075736 -7.196970
v 3.293117 18.945672 -7.196970
v 3.522727 18.900000 -7.196970
v 3.752337 18.945672 -7.196970
v 3.946991 19.075736 -7.196970
v 4.077055 19.270390 -7.196970
v 4.122727 19.500000 7.196970
v 4.077055 19.729610 7.196970
v 3.946991 19.924264 7.196970
v 3.752337 20.054328 7.196970
v 3.522727 20.100000 7.196970
v 3.293117 20.054328 7.196970
v 3.098463 19.924264 7.196970
v 2.968400 19.729610 7.196970
v 2.922727 19.500000 7.196970
v 2.968400 19.270390 7.196970
v 3.098463 19.075736 7.196970
v 3.293117 18.945672 7.196970
v 3.522727 18.900000 7.196970
v 3.752337 18.945672 7.196970
v 3.946991 19.075736 7.196970
v 4.077055 19.270390 7.196970
v 3.522727 19.500000 -7.196970
v 3.522727 19.500000 7.196970
v -3.750000 34.000000 -3.500000
v 3.750000 34.000000 -3.500000
v 3.750000 36.000000 -3.500000
v -3.750000 36.000000 -3.500000
v -3.750000 34.000000 3.500000
v 3.750000 34.000000 3.500000
v 3.750000 36.000000 3.500000
v -3.750000 36.000000 3.500000
f 1 2 3
f 1 3 4
f 5 7 6
f 5 8 7
f 1 4 8
f 1 8 5
f 2 6 7
f 2 7 3
f 4 3 7
f 4 7 8
f 1 5 6
f 1 6 2
f 9 25 26
f 9 26 10
f 41 10 9
f 42 25 26
f 10 26 27
f 10 27 11
f 41 11 10
f 42 26 27
f 11 27 28
f 11 28 12
f 41 12 11
f 42 27 28
f 12 28 29
f 12 29 13
f 41 13 12
f 42 28 29
f 13 29 30
f 13 30 14
f 41 14 13
f 42 29 30
f 14 30 31
f 14 31 15
f 41 15 14
f 42 30 31
f 15 31 32
f 15 32 16
f 41 16 15
f 42 31 32
f 16 32 33
f 16 33 17
f 41 17 16
f 42 32 33
f 17 33 34
f 17 34 18
f 41 18 17
f 42 33 34
f 18 34 35
f 18 35 19
f 41 19 18
f 42 34 35
f 19 35 36
f 19 36 20
f 41 20 19
f 42 35 36
f 20 36 37
f 20 37 21
f 41 21 20
f 42 36 37
f 21 37 38
f 21 38 22
f 41 22 21
f 42 37 38
f 22 38 39
f 22 39 23
f 41 23 22
f 42 38 39
f 23 39 40
f 23 40 24
f 41 24 23
f 42 39 40
f 24 40 25
f 24 25 9
f 41 9 24
f 42 40 25
f 43 59 60
f 43 60 44
f 75 44 43
f 76 59 60
f 44 60 61
f 44 61 45
f 75 45 44
f 76 60 61
f 45 61 62
f 45 62 46
f 75 46 45
f 76 61 62
f 46 62 63
f 46 63 47
f 75 47 46
f 76 62 63
f 47 63 64
f 47 64 48
f 75 48 47
f 76 63 64
f 48 64 65
f 48 65 49
f 75 49 48
f 76 64 65
f 49 65 66
f 49 66 50
f 75 50 49
f 76 65 66
f 50 66 67
f 50 67 51
f 75 51 50
f 76 66 67
f 51 67 68
f 51 68 52
f 75 52 51
f 76 67 68
f 52 68 69
f 52 69 53
f 75 53 52
f 76 68 69
f 53 69 70
f 53 70 54
f 75 54 53
f 76 69 70
f 54 70 71
f 54 71 55
f 75 55 54
f 76 70 71
f 55 71 72
f 55 72 56
f 75 56 55
f 76 71 72
f 56 72 73
f 56 73 57
f 75 57 56
f 76 72 73
f 57 73 74
f 57 74 58
f 75 58 57
f 76 73 74
f 58 74 59
f 58 59 43
f 75 43 58
f 76 74 59
f 77 93 94
f 77 94 78
f 109 78 77
f 110 93 94
f 78 94 95
f 78 95 79
f 109 79 78
f 110 94 95
f 79 95 96
f 79 96 80
f 109 80 79
f 110 95 96
f 80 96 97
f 80 97 81
f 109 81 80
f 110 96 97
f 81 97 98
f 81 98 82
f 109 82 81
f 110 97 98
f 82 98 99
f 82 99 83
f 109 83 82
f 110 98 99
f 83 99 100
f 83 100 84
f 109 84 83
f 110 99 100
f 84 100 101
f 84 101 85
f 109 85 84
f 110 100 101
f 85 101 102
f 85 102 86
f 109 86 85
f 110 101 102
f 86 102 103
f 86 103 87
f 109 87 86
f 110 102 103
f 87 103 104
f 87 104 88
f 109 88 87
f 110 103 104
f 88 104 105
f 88 105 89
f 109 89 88
f 110 104 105
f 89 105 106
f 89 106 90
f 109 90 89
f 110 105 106
f 90 106 107
f 90 107 91
f 109 91 90
f 110 106 107
f 91 107 108
f 91 108 92
f 109 92 91
f 110 107 108
f 92 108 93
f 92 93 77
f 109 77 92
f 110 108 93
f 111 127 128
f 111 128 112
f 143 112 111
f 144 127 128
f 112 128 129
f 112 129 113
f 143 113 112
f 144 128 129
f 113 129 130
f 113 130 114
f 143 114 113
f 144 129 130
f 114 130 131
f 114 131 115
f 143 115 114
f 144 130 131
f 115 131 132
f 115 132 116
f 143 116 115
f 144 131 132
f 116 132 133
f 116 133 117
f 143 117 116
f 144 132 133
f 117 133 134
f 117 134 118
f 143 118 117
f 144 133 134
f 118 134 135
f 118 135 119
f 143 119 118
f 144 134 135
f 119 135 136
f 119 136 120
f 143 120 119
f 144 135 136
f 120 136 137
f 120 137 121
f 143 121 120
f 144 136 137
f 121 137 138
f 121 138 122
f 143 122 121
f 144 137 138
f 122 138 139
f 122 139 123
f 143 123 122
f 144 138 139
f 123 139 140
f 123 140 124
f 143 124 123
f 144 139 140
f 124 140 141
f 124 141 125
f 143 125 124
f 144 140 141
f 125 141 142
f 125 142 126
f 143 126 125
f 144 141 142
f 126 142 127
f 126 127 111
f 143 111 126
f 144 142 127
f 145 161 162
f 145 162 146
f 177 146 145
f 178 161 162
f 146 162 163
f 146 163 147
f 177 147 146
f 178 162 163
f 147 163 164
f 147 164 148
f 177 148 147
f 178 163 164
f 148 164 165
f 148 165 149
f 177 149 148
f 178 164 165
f 149 165 166
f 149 166 150
f 177 150 149
f 178 165 166
f 150 166 167
f 150 167 151
f 177 151 150
f 178 166 167
f 151 167 168
f 151 168 152
f 177 152 151
f 178 167 168
f 152 168 169
f 152 169 153
f 177 153 152
f 178 168 169
f 153 169 170
f 153 170 154
f 177 154 153
f 178 169 170
f 154 170 171
f 154 171 155
f 177 155 154
f 178 170 171
f 155 171 172
f 155 172 156
f 177 156 155
f 178 171 172
f 156 172 173
f 156 173 157
f 177 157 156
f 178 172 173
f 157 173 174
f 157 174 158
f 177 158 157
f 178 173 174
f 158 174 175
f 158 175 159
f 177 159 158
f 178 174 175
f 159 175 176
f 159 176 160
f 177 160 159
f 178 175 176
f 160 176 161
f 160 161 145
f 177 145 160
f 178 176 161
f 179 195 196
f 179 196 180
f 211 180 179
f 212 195 196
f 180 196 197
f 180 197 181
f 211 181 180
f 212 196 197
f 181 197 198
f 181 198 182
f 211 182 181
f 212 197 198
f 182 198 199
f 182 199 183
f 211 183 182
f 212 198 199
f 183 199 200
f 183 200 184
f 211 184 183
f 212 199 200
f 184 200 201
f 184 201 185
f 211 185 184
f 212 200 201
f 185 201 202
f 185 202 186
f 211 186 185
f 212 201 202
f 186 202 203
f 186 203 187
f 211 187 186
f 212 202 203
f 187 203 204
f 187 204 188
f 211 188 187
f 212 203 204
f 188 204 205
f 188 205 189
f 211 189 188
f 212 204 205
f 189 205 206
f 189 206 190
f 211 190 189
f 212 205 206
f 190 206 207
f 190 207 191
f 211 191 190
f 212 206 207
f 191 207 208
f 191 208 192
f 211 192 191
f 212 207 208
f 192 208 209
f 192 209 193
f 211 193 192
f 212 208 209
f 193 209 210
f 193 210 194
f 211 194 193
f 212 209 210
f 194 210 195
f 194 195 179
f 211 179 194
f 212 210 195
f 213 229 230
f 213 230 214
f 245 214 213
f 246 229 230
f 214 230 231
f 214 231 215
f 245 215 214
f 246 230 231
f 215 231 232
f 215 232 216
f 245 216 215
f 246 231 232
f 216 232 233
f 216 233 217
f 245 217 216
f 246 232 233
f 217 233 234
f 217 234 218
f 245 218 217
f 246 233 234
f 218 234 235
f 218 235 219
f 245 219 218
f 246 234 235
f 219 235 236
f 219 236 220
f 245 220 219
f 246 235 236
f 220 236 237
f 220 237 221
f 245 221 220
f 246 236 237
f 221 237 238
f 221 238 222
f 245 222 221
f 246 237 238
f 222 238 239
f 222 239 223
f 245 223 222
f 246 238 239
f 223 239 240
f 223 240 224
f 245 224 223
f 246 239 240
f 224 240 241
f 224 241 225
f 245 225 224
f 246 240 241
f 225 241 242
f 225 242 226
f 245 226 225
f 246 241 242
f 226 242 243
f 226 243 227
f 245 227 226
f 246 242 243
f 227 243 244
f 227 244 228
f 245 228 227
f 246 243 244
f 228 244 229
f 228 229 213
f 245 213 228
f 246 244 229
f 247 263 264
f 247 264 248
f 279 248 247
f 280 263 264
f 248 264 265
f 248 265 249
f 279 249 248
f 280 264 265
f 249 265 266
f 249 266 250
f 279 250 249
f 280 265 266
f 250 266 267
f 250 267 251
f 279 251 250
f 280 266 267
f 251 267 268
f 251 268 252
f 279 252 251
f 280 267 268
f 252 268 269
f 252 269 253
f 279 253 252
f 280 268 269
f 253 269 270
f 253 270 254
f 279 254 253
f 280 269 270
f 254 270 271
f 254 271 255
f 279 255 254
f 280 270 271
f 255 271 272
f 255 272 256
f 279 256 255
f 280 271 272
f 256 272 273
f 256 273 257
f 279 257 256
f 280 272 273
f 257 273 274
f 257 274 258
f 279 258 257
f 280 273 274
f 258 274 275
f 258 275 259
f 279 259 258
f 280 274 275
f 259 275 276
f 259 276 260
f 279 260 259
f 280 275 276
f 260 276 277
f 260 277 261
f 279 261 260
f 280 276 277
f 261 277 278
f 261 278 262
f 279 262 261
f 280 277 278
f 262 278 263
f 262 263 247
f 279 247 262
f 280 278 263
f 281 282 283
f 281 283 284
f 285 287 286
f 285 288 287
f 281 284 288
f 281 288 285
f 282 286 287
f 282 287 283
f 284 283 287
f 284 287 288
f 281 285 286
f 281 286 282
