o 
v -1 4.999999523162842 0.20000000298023224
v -1.0764942169189453 4.99744987487793 0.18477590382099152
v -1.1413428783416748 4.995288372039795 0.1414213627576828
v -1.1846733093261719 4.993844032287598 0.07653668522834778
v -1.1998889446258545 4.9933366775512695 -3.294911789765366e-15
v -1.1846733093261719 4.993844032287598 -0.07653668522834778
v -1.1413428783416748 4.995288372039795 -0.1414213627576828
v -1.0764942169189453 4.99744987487793 -0.18477590382099152
v -1 4.999999523162842 -0.20000000298023224
v -0.9235057830810547 5.002549648284912 -0.18477590382099152
v -0.8586571216583252 5.004711151123047 -0.1414213627576828
v -0.8153266310691833 5.006155490875244 -0.07653668522834778
v -0.8001109957695007 5.006662845611572 -7.75140263526439e-15
v -0.8153266310691833 5.006155490875244 0.07653668522834778
v -0.8586571216583252 5.004711151123047 0.1414213627576828
v -0.9235057830810547 5.002549648284912 0.18477590382099152
v -1 4.999999523162842 0.20000000298023224
v -2 35 0.20000000298023224
v -2.0764942169189453 34.99745178222656 0.18477590382099152
v -2.141342878341675 34.99528884887695 0.1414213627576828
v -2.184673309326172 34.99384307861328 0.07653668522834778
v -2.1998889446258545 34.99333572387695 2.215998914518991e-15
v -2.184673309326172 34.99384307861328 -0.07653668522834778
v -2.141342878341675 34.99528884887695 -0.1414213627576828
v -2.0764942169189453 34.99745178222656 -0.18477590382099152
v -2 35 -0.20000000298023224
v -1.9235057830810547 35.00254821777344 -0.18477590382099152
v -1.8586571216583252 35.00471115112305 -0.1414213627576828
v -1.8153266906738281 35.00615692138672 -0.07653668522834778
v -1.8001110553741455 35.00666427612305 -2.2404917192217965e-15
v -1.8153266906738281 35.00615692138672 0.07653668522834778
v -1.8586571216583252 35.00471115112305 0.1414213627576828
v -1.9235057830810547 35.00254821777344 0.18477590382099152
v -2 35 0.20000000298023224
v -1 4.999999523162842 -5.510910704284357e-15
v -1 4.999999523162842 -5.510910704284357e-15
v -1 4.999999523162842 -5.510910704284357e-15
v -1 4.999999523162842 -5.510910704284357e-15
v -1 4.999999523162842 -5.510910704284357e-15
v -1 4.999999523162842 -5.510910704284357e-15
v -1 4.999999523162842 -5.510910704284357e-15
v -1 4.999999523162842 -5.510910704284357e-15
v -1 4.999999523162842 -5.510910704284357e-15
v -1 4.999999523162842 -5.510910704284357e-15
v -1 4.999999523162842 -5.510910704284357e-15
v -1 4.999999523162842 -5.510910704284357e-15
v -1 4.999999523162842 -5.510910704284357e-15
v -1 4.999999523162842 -5.510910704284357e-15
v -1 4.999999523162842 -5.510910704284357e-15
v -1 4.999999523162842 -5.510910704284357e-15
v -1 4.999999523162842 0.20000000298023224
v -1.0764942169189453 4.99744987487793 0.18477590382099152
v -1.1413428783416748 4.995288372039795 0.1414213627576828
v -1.1846733093261719 4.993844032287598 0.07653668522834778
v -1.1998889446258545 4.9933366775512695 -3.294911789765366e-15
v -1.1846733093261719 4.993844032287598 -0.07653668522834778
v -1.1413428783416748 4.995288372039795 -0.1414213627576828
v -1.0764942169189453 4.99744987487793 -0.18477590382099152
v -1 4.999999523162842 -0.20000000298023224
v -0.9235057830810547 5.002549648284912 -0.18477590382099152
v -0.8586571216583252 5.004711151123047 -0.1414213627576828
v -0.8153266310691833 5.006155490875244 -0.07653668522834778
v -0.8001109957695007 5.006662845611572 -7.75140263526439e-15
v -0.8153266310691833 5.006155490875244 0.07653668522834778
v -0.8586571216583252 5.004711151123047 0.1414213627576828
v -0.9235057830810547 5.002549648284912 0.18477590382099152
v -1 4.999999523162842 0.20000000298023224
v -2 35 5.122700528703137e-23
v -2 35 5.122700528703137e-23
v -2 35 5.122700528703137e-23
v -2 35 5.122700528703137e-23
v -2 35 5.122700528703137e-23
v -2 35 5.122700528703137e-23
v -2 35 5.122700528703137e-23
v -2 35 5.122700528703137e-23
v -2 35 5.122700528703137e-23
v -2 35 5.122700528703137e-23
v -2 35 5.122700528703137e-23
v -2 35 5.122700528703137e-23
v -2 35 5.122700528703137e-23
v -2 35 5.122700528703137e-23
v -2 35 5.122700528703137e-23
v -2 35 5.122700528703137e-23
v -2 35 0.20000000298023224
v -2.0764942169189453 34.99745178222656 0.18477590382099152
v -2.141342878341675 34.99528884887695 0.1414213627576828
v -2.184673309326172 34.99384307861328 0.07653668522834778
v -2.1998889446258545 34.99333572387695 2.215998914518991e-15
v -2.184673309326172 34.99384307861328 -0.07653668522834778
v -2.141342878341675 34.99528884887695 -0.1414213627576828
v -2.0764942169189453 34.99745178222656 -0.18477590382099152
v -2 35 -0.20000000298023224
v -1.9235057830810547 35.00254821777344 -0.18477590382099152
v -1.8586571216583252 35.00471115112305 -0.1414213627576828
v -1.8153266906738281 35.00615692138672 -0.07653668522834778
v -1.8001110553741455 35.00666427612305 -2.2404917192217965e-15
v -1.8153266906738281 35.00615692138672 0.07653668522834778
v -1.8586571216583252 35.00471115112305 0.1414213627576828
v -1.9235057830810547 35.00254821777344 0.18477590382099152
v -2 35 0.20000000298023224
vt 0 1
vt 0.0625 1
vt 0.125 1
vt 0.1875 1
vt 0.25 1
vt 0.3125 1
vt 0.375 1
vt 0.4375 1
vt 0.5 1
vt 0.5625 1
vt 0.625 1
vt 0.6875 1
vt 0.75 1
vt 0.8125 1
vt 0.875 1
vt 0.9375 1
vt 1 1
vt 0 0
vt 0.0625 0
vt 0.125 0
vt 0.1875 0
vt 0.25 0
vt 0.3125 0
vt 0.375 0
vt 0.4375 0
vt 0.5 0
vt 0.5625 0
vt 0.625 0
vt 0.6875 0
vt 0.75 0
vt 0.8125 0
vt 0.875 0
vt 0.9375 0
vt 1 0
vt 0.5 0.5
vt 0.5 0.5
vt 0.5 0.5
vt 0.5 0.5
vt 0.5 0.5
vt 0.5 0.5
vt 0.5 0.5
vt 0.5 0.5
vt 0.5 0.5
vt 0.5 0.5
vt 0.5 0.5
vt 0.5 0.5
vt 0.5 0.5
vt 0.5 0.5
vt 0.5 0.5
vt 0.5 0.5
vt 1 0.5
vt 0.9619397521018982 0.6913416981697083
vt 0.8535534143447876 0.8535534143447876
vt 0.6913416981697083 0.9619397521018982
vt 0.5 1
vt 0.30865827202796936 0.9619397521018982
vt 0.1464466154575348 0.8535534143447876
vt 0.03806023299694061 0.6913416981697083
vt 0 0.5
vt 0.03806023299694061 0.30865827202796936
vt 0.1464466154575348 0.1464466154575348
vt 0.30865827202796936 0.03806023299694061
vt 0.5 0
vt 0.6913416981697083 0.03806023299694061
vt 0.8535534143447876 0.1464466154575348
vt 0.9619397521018982 0.30865827202796936
vt 1 0.5
vt 0.5 0.5
vt 0.5 0.5
vt 0.5 0.5
vt 0.5 0.5
vt 0.5 0.5
vt 0.5 0.5
vt 0.5 0.5
vt 0.5 0.5
vt 0.5 0.5
vt 0.5 0.5
vt 0.5 0.5
vt 0.5 0.5
vt 0.5 0.5
vt 0.5 0.5
vt 0.5 0.5
vt 0.5 0.5
vt 1 0.5
vt 0.9619397521018982 0.30865827202796936
vt 0.8535534143447876 0.1464466154575348
vt 0.6913416981697083 0.03806023299694061
vt 0.5 0
vt 0.30865827202796936 0.03806023299694061
vt 0.1464466154575348 0.1464466154575348
vt 0.03806023299694061 0.30865827202796936
vt 0 0.5
vt 0.03806023299694061 0.6913416981697083
vt 0.1464466154575348 0.8535534143447876
vt 0.30865827202796936 0.9619397521018982
vt 0.5 1
vt 0.6913416981697083 0.9619397521018982
vt 0.8535534143447876 0.8535534143447876
vt 0.9619397521018982 0.6913416981697083
vt 1 0.5
vn 1.1018761925563232e-14 1.8359505306185964e-16 1
vn -0.3824710324268024 -0.01274903422796223 0.9238795221675985
vn -0.7067142778561799 -0.02355714346444041 0.7071067744450011
vn -0.9233666915433336 -0.030778891332403628 0.38268343679425987
vn -0.9994449069295389 -0.03331483172110076 1.1079994839632412e-14
vn -0.9233666915433336 -0.030778891332403628 -0.38268343679425987
vn -0.7067142778561799 -0.02355714346444041 -0.7071067744450011
vn -0.3824710324268024 -0.01274903422796223 -0.9238795221675985
vn -1.1141159033474426e-14 -1.876749460709876e-16 -1
vn 0.3824710324268024 0.01274903422796223 -0.9238795221675985
vn 0.7067142778561799 0.02355714346444041 -0.7071067744450011
vn 0.9233666915433336 0.030778891332403628 -0.38268343679425987
vn 0.9994449069295389 0.03331483172110076 -1.1202458863757425e-14
vn 0.9233666915433336 0.030778891332403628 0.38268343679425987
vn 0.7067142778561799 0.02355714346444041 0.7071067744450011
vn 0.3824710324268024 0.01274903422796223 0.9238795221675985
vn 1.1263555294352672e-14 1.9175482584522574e-16 1
vn 1.1018761925563232e-14 1.8359505306185964e-16 1
vn -0.3824710324268024 -0.01274903422796223 0.9238795221675985
vn -0.7067142778561799 -0.02355714346444041 0.7071067744450011
vn -0.9233666915433336 -0.030778891332403628 0.38268343679425987
vn -0.9994449069295389 -0.03331483172110076 1.1079994839632412e-14
vn -0.9233666915433336 -0.030778891332403628 -0.38268343679425987
vn -0.7067142778561799 -0.02355714346444041 -0.7071067744450011
vn -0.3824710324268024 -0.01274903422796223 -0.9238795221675985
vn -1.1141159033474426e-14 -1.876749460709876e-16 -1
vn 0.3824710324268024 0.01274903422796223 -0.9238795221675985
vn 0.7067142778561799 0.02355714346444041 -0.7071067744450011
vn 0.9233666915433336 0.030778891332403628 -0.38268343679425987
vn 0.9994449069295389 0.03331483172110076 -1.1202458863757425e-14
vn 0.9233666915433336 0.030778891332403628 0.38268343679425987
vn 0.7067142778561799 0.02355714346444041 0.7071067744450011
vn 0.3824710324268024 0.01274903422796223 0.9238795221675985
vn 1.1263555294352672e-14 1.9175482584522574e-16 1
vn 0.03331483172110076 -0.9994449069295389 -1.8359505397783402e-16
vn 0.03331483172110076 -0.9994449069295389 -1.8359505397783402e-16
vn 0.03331483172110076 -0.9994449069295389 -1.8359505397783402e-16
vn 0.03331483172110076 -0.9994449069295389 -1.8359505397783402e-16
vn 0.03331483172110076 -0.9994449069295389 -1.8359505397783402e-16
vn 0.03331483172110076 -0.9994449069295389 -1.8359505397783402e-16
vn 0.03331483172110076 -0.9994449069295389 -1.8359505397783402e-16
vn 0.03331483172110076 -0.9994449069295389 -1.8359505397783402e-16
vn 0.03331483172110076 -0.9994449069295389 -1.8359505397783402e-16
vn 0.03331483172110076 -0.9994449069295389 -1.8359505397783402e-16
vn 0.03331483172110076 -0.9994449069295389 -1.8359505397783402e-16
vn 0.03331483172110076 -0.9994449069295389 -1.8359505397783402e-16
vn 0.03331483172110076 -0.9994449069295389 -1.8359505397783402e-16
vn 0.03331483172110076 -0.9994449069295389 -1.8359505397783402e-16
vn 0.03331483172110076 -0.9994449069295389 -1.8359505397783402e-16
vn 0.03331483172110076 -0.9994449069295389 -1.8359505397783402e-16
vn 0.03331483172110076 -0.9994449069295389 -1.8359505397783402e-16
vn 0.03331483172110076 -0.9994449069295389 -1.8359505397783402e-16
vn 0.03331483172110076 -0.9994449069295389 -1.8359505397783402e-16
vn 0.03331483172110076 -0.9994449069295389 -1.8359505397783402e-16
vn 0.03331483172110076 -0.9994449069295389 -1.8359505397783402e-16
vn 0.03331483172110076 -0.9994449069295389 -1.8359505397783402e-16
vn 0.03331483172110076 -0.9994449069295389 -1.8359505397783402e-16
vn 0.03331483172110076 -0.9994449069295389 -1.8359505397783402e-16
vn 0.03331483172110076 -0.9994449069295389 -1.8359505397783402e-16
vn 0.03331483172110076 -0.9994449069295389 -1.8359505397783402e-16
vn 0.03331483172110076 -0.9994449069295389 -1.8359505397783402e-16
vn 0.03331483172110076 -0.9994449069295389 -1.8359505397783402e-16
vn 0.03331483172110076 -0.9994449069295389 -1.8359505397783402e-16
vn 0.03331483172110076 -0.9994449069295389 -1.8359505397783402e-16
vn 0.03331483172110076 -0.9994449069295389 -1.8359505397783402e-16
vn 0.03331483172110076 -0.9994449069295389 -1.8359505397783402e-16
vn 0.03331483172110076 -0.9994449069295389 -1.8359505397783402e-16
vn -0.03331483172110076 0.9994449069295389 1.8359505397783402e-16
vn -0.03331483172110076 0.9994449069295389 1.8359505397783402e-16
vn -0.03331483172110076 0.9994449069295389 1.8359505397783402e-16
vn -0.03331483172110076 0.9994449069295389 1.8359505397783402e-16
vn -0.03331483172110076 0.9994449069295389 1.8359505397783402e-16
vn -0.03331483172110076 0.9994449069295389 1.8359505397783402e-16
vn -0.03331483172110076 0.9994449069295389 1.8359505397783402e-16
vn -0.03331483172110076 0.9994449069295389 1.8359505397783402e-16
vn -0.03331483172110076 0.9994449069295389 1.8359505397783402e-16
vn -0.03331483172110076 0.9994449069295389 1.8359505397783402e-16
vn -0.03331483172110076 0.9994449069295389 1.8359505397783402e-16
vn -0.03331483172110076 0.9994449069295389 1.8359505397783402e-16
vn -0.03331483172110076 0.9994449069295389 1.8359505397783402e-16
vn -0.03331483172110076 0.9994449069295389 1.8359505397783402e-16
vn -0.03331483172110076 0.9994449069295389 1.8359505397783402e-16
vn -0.03331483172110076 0.9994449069295389 1.8359505397783402e-16
vn -0.03331483172110076 0.9994449069295389 1.8359505397783402e-16
vn -0.03331483172110076 0.9994449069295389 1.8359505397783402e-16
vn -0.03331483172110076 0.9994449069295389 1.8359505397783402e-16
vn -0.03331483172110076 0.9994449069295389 1.8359505397783402e-16
vn -0.03331483172110076 0.9994449069295389 1.8359505397783402e-16
vn -0.03331483172110076 0.9994449069295389 1.8359505397783402e-16
vn -0.03331483172110076 0.9994449069295389 1.8359505397783402e-16
vn -0.03331483172110076 0.9994449069295389 1.8359505397783402e-16
vn -0.03331483172110076 0.9994449069295389 1.8359505397783402e-16
vn -0.03331483172110076 0.9994449069295389 1.8359505397783402e-16
vn -0.03331483172110076 0.9994449069295389 1.8359505397783402e-16
vn -0.03331483172110076 0.9994449069295389 1.8359505397783402e-16
vn -0.03331483172110076 0.9994449069295389 1.8359505397783402e-16
vn -0.03331483172110076 0.9994449069295389 1.8359505397783402e-16
vn -0.03331483172110076 0.9994449069295389 1.8359505397783402e-16
vn -0.03331483172110076 0.9994449069295389 1.8359505397783402e-16
vn -0.03331483172110076 0.9994449069295389 1.8359505397783402e-16
f 1/1/1 18/18/18 2/2/2
f 18/18/18 19/19/19 2/2/2
f 2/2/2 19/19/19 3/3/3
f 19/19/19 20/20/20 3/3/3
f 3/3/3 20/20/20 4/4/4
f 20/20/20 21/21/21 4/4/4
f 4/4/4 21/21/21 5/5/5
f 21/21/21 22/22/22 5/5/5
f 5/5/5 22/22/22 6/6/6
f 22/22/22 23/23/23 6/6/6
f 6/6/6 23/23/23 7/7/7
f 23/23/23 24/24/24 7/7/7
f 7/7/7 24/24/24 8/8/8
f 24/24/24 25/25/25 8/8/8
f 8/8/8 25/25/25 9/9/9
f 25/25/25 26/26/26 9/9/9
f 9/9/9 26/26/26 10/10/10
f 26/26/26 27/27/27 10/10/10
f 10/10/10 27/27/27 11/11/11
f 27/27/27 28/28/28 11/11/11
f 11/11/11 28/28/28 12/12/12
f 28/28/28 29/29/29 12/12/12
f 12/12/12 29/29/29 13/13/13
f 29/29/29 30/30/30 13/13/13
f 13/13/13 30/30/30 14/14/14
f 30/30/30 31/31/31 14/14/14
f 14/14/14 31/31/31 15/15/15
f 31/31/31 32/32/32 15/15/15
f 15/15/15 32/32/32 16/16/16
f 32/32/32 33/33/33 16/16/16
f 16/16/16 33/33/33 17/17/17
f 33/33/33 34/34/34 17/17/17
f 51/51/51 52/52/52 35/35/35
f 52/52/52 53/53/53 36/36/36
f 53/53/53 54/54/54 37/37/37
f 54/54/54 55/55/55 38/38/38
f 55/55/55 56/56/56 39/39/39
f 56/56/56 57/57/57 40/40/40
f 57/57/57 58/58/58 41/41/41
f 58/58/58 59/59/59 42/42/42
f 59/59/59 60/60/60 43/43/43
f 60/60/60 61/61/61 44/44/44
f 61/61/61 62/62/62 45/45/45
f 62/62/62 63/63/63 46/46/46
f 63/63/63 64/64/64 47/47/47
f 64/64/64 65/65/65 48/48/48
f 65/65/65 66/66/66 49/49/49
f 66/66/66 67/67/67 50/50/50
f 85/85/85 84/84/84 68/68/68
f 86/86/86 85/85/85 69/69/69
f 87/87/87 86/86/86 70/70/70
f 88/88/88 87/87/87 71/71/71
f 89/89/89 88/88/88 72/72/72
f 90/90/90 89/89/89 73/73/73
f 91/91/91 90/90/90 74/74/74
f 92/92/92 91/91/91 75/75/75
f 93/93/93 92/92/92 76/76/76
f 94/94/94 93/93/93 77/77/77
f 95/95/95 94/94/94 78/78/78
f 96/96/96 95/95/95 79/79/79
f 97/97/97 96/96/96 80/80/80
f 98/98/98 97/97/97 81/81/81
f 99/99/99 98/98/98 82/82/82
f 100/100/100 99/99/99 83/83/83
