v 1.0160553687885054 -21.35454648912266 21.072617634232564
v 1.0910802737706118 -21.341237594306513 21.08946323698676
v 1.1522390412479442 -21.30843669940144 21.125147183839314
v 1.190220776134535 -21.261137422637326 21.174236936756728
v 1.1992431359033904 -21.20654066664121 21.229259010871168
v 1.17793252213115 -21.152958287202964 21.281836798342113
v 1.1295333071037699 -21.108547708789523 21.323965815878882
v 1.0614138042457943 -21.08007005791763 21.34923228259065
v 0.9839446126201874 -21.071860776451388 21.353789631341456
v 0.9089197076380813 -21.085169671267536 21.33694402858726
v 0.8477609401607488 -21.11797056617261 21.301260081734707
v 0.809779205274158 -21.165269842936716 21.252170328817293
v 0.8007568455053024 -21.21986659893284 21.197148254702853
v 0.8220674592775427 -21.273448978371086 21.144570467231908
v 0.8704666743049229 -21.31785955678452 21.10244144969514
v 0.9385861771628985 -21.34633720765641 21.077174982983372
v 1.0160553687885054 -21.35454648912266 21.072617634232564
v 2.0160553873798124 -0.14134265914504063 -0.14058619574503872
v 2.0910802923619185 -0.12803376432889202 -0.12374059299084372
v 2.152239059839251 -0.09523286942381937 -0.08805664613828768
v 2.190220794725842 -0.047933592659708424 -0.03896689322087532
v 2.1992431544946975 0.006663163336410705 0.016055180893568277
v 2.1779325407224572 0.060245542774657324 0.0686329683645095
v 2.129533325695077 0.10465612118809453 0.11076198590128072
v 2.0614138228371015 0.13313377205998655 0.1360284526130453
v 1.9839446312114946 0.14134305352623322 0.1405858013638568
v 1.9089197262293882 0.1280341587100846 0.12374019860966179
v 1.8477609587520558 0.09523326380501196 0.08805625175710574
v 1.809779223865465 0.047933987040901016 0.038966498839693386
v 1.8007568640966096 -0.006662768955218112 -0.01605557527475021
v 1.82206747786885 -0.06024514839346473 -0.06863336274569143
v 1.8704666928962301 -0.10465572680690194 -0.11076238028246266
v 1.9385861957542057 -0.13313337767879396 -0.13602884699422724
v 2.0160553873798124 -0.14134265914504063 -0.14058619574503872
v 0.9999999907043464 -21.21320363278702 21.21320363278701
v 0.9999999907043464 -21.21320363278702 21.21320363278701
v 0.9999999907043464 -21.21320363278702 21.21320363278701
v 0.9999999907043464 -21.21320363278702 21.21320363278701
v 0.9999999907043464 -21.21320363278702 21.21320363278701
v 0.9999999907043464 -21.21320363278702 21.21320363278701
v 0.9999999907043464 -21.21320363278702 21.21320363278701
v 0.9999999907043464 -21.21320363278702 21.21320363278701
v 0.9999999907043464 -21.21320363278702 21.21320363278701
v 0.9999999907043464 -21.21320363278702 21.21320363278701
v 0.9999999907043464 -21.21320363278702 21.21320363278701
v 0.9999999907043464 -21.21320363278702 21.21320363278701
v 0.9999999907043464 -21.21320363278702 21.21320363278701
v 0.9999999907043464 -21.21320363278702 21.21320363278701
v 0.9999999907043464 -21.21320363278702 21.21320363278701
v 0.9999999907043464 -21.21320363278702 21.21320363278701
v 1.0160553687885054 -21.35454648912266 21.072617634232564
v 1.0910802737706118 -21.341237594306513 21.08946323698676
v 1.1522390412479442 -21.30843669940144 21.125147183839314
v 1.190220776134535 -21.261137422637326 21.174236936756728
v 1.1992431359033904 -21.20654066664121 21.229259010871168
v 1.17793252213115 -21.152958287202964 21.281836798342113
v 1.1295333071037699 -21.108547708789523 21.323965815878882
v 1.0614138042457943 -21.08007005791763 21.34923228259065
v 0.9839446126201874 -21.071860776451388 21.353789631341456
v 0.9089197076380813 -21.085169671267536 21.33694402858726
v 0.8477609401607488 -21.11797056617261 21.301260081734707
v 0.809779205274158 -21.165269842936716 21.252170328817293
v 0.8007568455053024 -21.21986659893284 21.197148254702853
v 0.8220674592775427 -21.273448978371086 21.144570467231908
v 0.8704666743049229 -21.31785955678452 21.10244144969514
v 0.9385861771628985 -21.34633720765641 21.077174982983372
v 1.0160553687885054 -21.35454648912266 21.072617634232564
v 2.0000000092956536 1.9719059629608182e-7 -1.971905909670113e-7
v 2.0000000092956536 1.9719059629608182e-7 -1.971905909670113e-7
v 2.0000000092956536 1.9719059629608182e-7 -1.971905909670113e-7
v 2.0000000092956536 1.9719059629608182e-7 -1.971905909670113e-7
v 2.0000000092956536 1.9719059629608182e-7 -1.971905909670113e-7
v 2.0000000092956536 1.9719059629608182e-7 -1.971905909670113e-7
v 2.0000000092956536 1.9719059629608182e-7 -1.971905909670113e-7
v 2.0000000092956536 1.9719059629608182e-7 -1.971905909670113e-7
v 2.0000000092956536 1.9719059629608182e-7 -1.971905909670113e-7
v 2.0000000092956536 1.9719059629608182e-7 -1.971905909670113e-7
v 2.0000000092956536 1.9719059629608182e-7 -1.971905909670113e-7
v 2.0000000092956536 1.9719059629608182e-7 -1.971905909670113e-7
v 2.0000000092956536 1.9719059629608182e-7 -1.971905909670113e-7
v 2.0000000092956536 1.9719059629608182e-7 -1.971905909670113e-7
v 2.0000000092956536 1.9719059629608182e-7 -1.971905909670113e-7
v 2.0000000092956536 1.9719059629608182e-7 -1.971905909670113e-7
v 2.0160553873798124 -0.14134265914504063 -0.14058619574503872
v 2.0910802923619185 -0.12803376432889202 -0.12374059299084372
v 2.152239059839251 -0.09523286942381937 -0.08805664613828768
v 2.190220794725842 -0.047933592659708424 -0.03896689322087532
v 2.1992431544946975 0.006663163336410705 0.016055180893568277
v 2.1779325407224572 0.060245542774657324 0.0686329683645095
v 2.129533325695077 0.10465612118809453 0.11076198590128072
v 2.0614138228371015 0.13313377205998655 0.1360284526130453
v 1.9839446312114946 0.14134305352623322 0.1405858013638568
v 1.9089197262293882 0.1280341587100846 0.12374019860966179
v 1.8477609587520558 0.09523326380501196 0.08805625175710574
v 1.809779223865465 0.047933987040901016 0.038966498839693386
v 1.8007568640966096 -0.006662768955218112 -0.01605557527475021
v 1.82206747786885 -0.06024514839346473 -0.06863336274569143
v 1.8704666928962301 -0.10465572680690194 -0.11076238028246266
v 1.9385861957542057 -0.13313337767879396 -0.13602884699422724
v 2.0160553873798124 -0.14134265914504063 -0.14058619574503872
f 1 18 2
f 18 19 2
f 2 19 3
f 19 20 3
f 3 20 4
f 20 21 4
f 4 21 5
f 21 22 5
f 5 22 6
f 22 23 6
f 6 23 7
f 23 24 7
f 7 24 8
f 24 25 8
f 8 25 9
f 25 26 9
f 9 26 10
f 26 27 10
f 10 27 11
f 27 28 11
f 11 28 12
f 28 29 12
f 12 29 13
f 29 30 13
f 13 30 14
f 30 31 14
f 14 31 15
f 31 32 15
f 15 32 16
f 32 33 16
f 16 33 17
f 33 34 17
f 51 52 35
f 52 53 36
f 53 54 37
f 54 55 38
f 55 56 39
f 56 57 40
f 57 58 41
f 58 59 42
f 59 60 43
f 60 61 44
f 61 62 45
f 62 63 46
f 63 64 47
f 64 65 48
f 65 66 49
f 66 67 50
f 85 84 68
f 86 85 69
f 87 86 70
f 88 87 71
f 89 88 72
f 90 89 73
f 91 90 74
f 92 91 75
f 93 92 76
f 94 93 77
f 95 94 78
f 96 95 79
f 97 96 80
f 98 97 81
f 99 98 82
f 100 99 83
