v -1.001324954572746 27.63989203034815 11.66529182902414
v -0.9247315779002301 27.643165000216346 11.650718576158098
v -0.8595971260479071 27.65758523319832 11.610231569951923
v -0.8158377534433615 27.680957392006512 11.549994562134493
v -0.8001153976387978 27.709723266834708 11.479178113803073
v -0.8148236700331263 27.73950351822078 11.408563379281794
v -0.8577233441170912 27.765764375379646 11.348900803460205
v -0.9222833639735748 27.784507852394796 11.30927349577461
v -0.9986750268359472 27.792880435612894 11.295714326318803
v -1.0752684035084632 27.789607465744698 11.310287579184845
v -1.1404028553607863 27.775187232762725 11.35077458539102
v -1.1841622279653319 27.751815073954532 11.41101159320845
v -1.1998845837698955 27.723049199126336 11.48182804153987
v -1.185176311375567 27.693268947740265 11.552442776061149
v -1.142276637291602 27.667008090581398 11.612105351882738
v -1.0777166174351185 27.648264613566248 11.651732659568333
v -1.001324954572746 27.63989203034815 11.66529182902414
v -2.001324973164053 -0.0764944602742954 0.18478864463389222
v -1.9247315964915368 -0.07322149040610171 0.17021539176785083
v -1.8595971446392137 -0.05880125742413078 0.1297283855616751
v -1.8158377720346681 -0.03542909861593735 0.06949137774424496
v -1.8001154162301045 -0.00666322378773998 -0.0013250705871756807
v -1.814823688624433 0.023117027598329898 -0.07193980510845233
v -1.857723362708398 0.049377884757197066 -0.13160238093004217
v -1.9222833825648815 0.06812136177234862 -0.1712296886156377
v -1.998675045427254 0.07649394499044426 -0.1847888580714443
v -2.0752684220997697 0.07322097512225056 -0.1702156052054029
v -2.140402873952093 0.05880074214027964 -0.12972859899922717
v -2.1841622465566384 0.035428583332086205 -0.06949159118179704
v -2.199884602361202 0.006662708503888837 0.001324857149623604
v -2.1851763299668736 -0.02311754288218104 0.07193959167090025
v -2.1422766558829087 -0.04937840004104821 0.1316021674924901
v -2.077716636026425 -0.06812187705619976 0.17122947517808562
v -2.001324973164053 -0.0764944602742954 0.18478864463389222
v -0.9999999907043466 27.716386232980522 11.480503077671472
v -0.9999999907043466 27.716386232980522 11.480503077671472
v -0.9999999907043466 27.716386232980522 11.480503077671472
v -0.9999999907043466 27.716386232980522 11.480503077671472
v -0.9999999907043466 27.716386232980522 11.480503077671472
v -0.9999999907043466 27.716386232980522 11.480503077671472
v -0.9999999907043466 27.716386232980522 11.480503077671472
v -0.9999999907043466 27.716386232980522 11.480503077671472
v -0.9999999907043466 27.716386232980522 11.480503077671472
v -0.9999999907043466 27.716386232980522 11.480503077671472
v -0.9999999907043466 27.716386232980522 11.480503077671472
v -0.9999999907043466 27.716386232980522 11.480503077671472
v -0.9999999907043466 27.716386232980522 11.480503077671472
v -0.9999999907043466 27.716386232980522 11.480503077671472
v -0.9999999907043466 27.716386232980522 11.480503077671472
v -0.9999999907043466 27.716386232980522 11.480503077671472
v -1.001324954572746 27.63989203034815 11.66529182902414
v -0.9247315779002301 27.643165000216346 11.650718576158098
v -0.8595971260479071 27.65758523319832 11.610231569951923
v -0.8158377534433615 27.680957392006512 11.549994562134493
v -0.8001153976387978 27.709723266834708 11.479178113803073
v -0.8148236700331263 27.73950351822078 11.408563379281794
v -0.8577233441170912 27.765764375379646 11.348900803460205
v -0.9222833639735748 27.784507852394796 11.30927349577461
v -0.9986750268359472 27.792880435612894 11.295714326318803
v -1.0752684035084632 27.789607465744698 11.310287579184845
v -1.1404028553607863 27.775187232762725 11.35077458539102
v -1.1841622279653319 27.751815073954532 11.41101159320845
v -1.1998845837698955 27.723049199126336 11.48182804153987
v -1.185176311375567 27.693268947740265 11.552442776061149
v -1.142276637291602 27.667008090581398 11.612105351882738
v -1.0777166174351185 27.648264613566248 11.651732659568333
v -1.001324954572746 27.63989203034815 11.66529182902414
v -2.000000009295653 -2.57641925571761e-7 -1.0671877603840585e-7
v -2.000000009295653 -2.57641925571761e-7 -1.0671877603840585e-7
v -2.000000009295653 -2.57641925571761e-7 -1.0671877603840585e-7
v -2.000000009295653 -2.57641925571761e-7 -1.0671877603840585e-7
v -2.000000009295653 -2.57641925571761e-7 -1.0671877603840585e-7
v -2.000000009295653 -2.57641925571761e-7 -1.0671877603840585e-7
v -2.000000009295653 -2.57641925571761e-7 -1.0671877603840585e-7
v -2.000000009295653 -2.57641925571761e-7 -1.0671877603840585e-7
v -2.000000009295653 -2.57641925571761e-7 -1.0671877603840585e-7
v -2.000000009295653 -2.57641925571761e-7 -1.0671877603840585e-7
v -2.000000009295653 -2.57641925571761e-7 -1.0671877603840585e-7
v -2.000000009295653 -2.57641925571761e-7 -1.0671877603840585e-7
v -2.000000009295653 -2.57641925571761e-7 -1.0671877603840585e-7
v -2.000000009295653 -2.57641925571761e-7 -1.0671877603840585e-7
v -2.000000009295653 -2.57641925571761e-7 -1.0671877603840585e-7
v -2.000000009295653 -2.57641925571761e-7 -1.0671877603840585e-7
v -2.001324973164053 -0.0764944602742954 0.18478864463389222
v -1.9247315964915368 -0.07322149040610171 0.17021539176785083
v -1.8595971446392137 -0.05880125742413078 0.1297283855616751
v -1.8158377720346681 -0.03542909861593735 0.06949137774424496
v -1.8001154162301045 -0.00666322378773998 -0.0013250705871756807
v -1.814823688624433 0.023117027598329898 -0.07193980510845233
v -1.857723362708398 0.049377884757197066 -0.13160238093004217
v -1.9222833825648815 0.06812136177234862 -0.1712296886156377
v -1.998675045427254 0.07649394499044426 -0.1847888580714443
v -2.0752684220997697 0.07322097512225056 -0.1702156052054029
v -2.140402873952093 0.05880074214027964 -0.12972859899922717
v -2.1841622465566384 0.035428583332086205 -0.06949159118179704
v -2.199884602361202 0.006662708503888837 0.001324857149623604
v -2.1851763299668736 -0.02311754288218104 0.07193959167090025
v -2.1422766558829087 -0.04937840004104821 0.1316021674924901
v -2.077716636026425 -0.06812187705619976 0.17122947517808562
v -2.001324973164053 -0.0764944602742954 0.18478864463389222
f 1 18 2
f 18 19 2
f 2 19 3
f 19 20 3
f 3 20 4
f 20 21 4
f 4 21 5
f 21 22 5
f 5 22 6
f 22 23 6
f 6 23 7
f 23 24 7
f 7 24 8
f 24 25 8
f 8 25 9
f 25 26 9
f 9 26 10
f 26 27 10
f 10 27 11
f 27 28 11
f 11 28 12
f 28 29 12
f 12 29 13
f 29 30 13
f 13 30 14
f 30 31 14
f 14 31 15
f 31 32 15
f 15 32 16
f 32 33 16
f 16 33 17
f 33 34 17
f 51 52 35
f 52 53 36
f 53 54 37
f 54 55 38
f 55 56 39
f 56 57 40
f 57 58 41
f 58 59 42
f 59 60 43
f 60 61 44
f 61 62 45
f 62 63 46
f 63 64 47
f 64 65 48
f 65 66 49
f 66 67 50
f 85 84 68
f 86 85 69
f 87 86 70
f 88 87 71
f 89 88 72
f 90 89 73
f 91 90 74
f 92 91 75
f 93 92 76
f 94 93 77
f 95 94 78
f 96 95 79
f 97 96 80
f 98 97 81
f 99 98 82
f 100 99 83
