v 1.0020205666390118 24.833036231321017 16.833429993214274
v 1.0783570513987977 24.84403939930535 16.82154265668412
v 1.1427643929372913 24.870274143559065 16.786143925650624
v 1.1854371322726323 24.90774647815811 16.732622910467697
v 1.1998787623313625 24.950751567093775 16.669127721454384
v 1.183890650452762 24.992742279471564 16.605324917961774
v 1.139906866957514 25.027325915719935 16.55092789136859
v 1.074623514008764 25.04923741594047 16.514218116175186
v 0.9979794147696809 25.0551409705749 16.500784297825163
v 0.921642930009895 25.04413780259057 16.512671634355318
v 0.8572355884714014 25.01790305833685 16.548070365388813
v 0.8145628491360604 24.98043072373781 16.60159138057174
v 0.8001212190773301 24.937425634802146 16.665086569585053
v 0.8161093309559306 24.89543492242435 16.728889373077664
v 0.8600931144511785 24.860851286175986 16.783286399670846
v 0.9253764673999285 24.838939785955446 16.81999617486425
v 1.0020205666390118 24.833036231321017 16.833429993214274
v 2.0020205852303192 -0.11105260149854601 0.166322692762904
v 2.078357069990105 -0.10004943351421502 0.1544353562327494
v 2.1427644115285984 -0.07381468926049628 0.11903662519925362
v 2.1854371508639394 -0.03634235466145519 0.065515610016325
v 2.1998787809226696 0.006662734274209825 0.002020421003013695
v 2.1838906690440694 0.04865344665200233 -0.06178238248959467
v 2.1399068855488217 0.08323708290036969 -0.11617940908277902
v 2.0746235326000715 0.1051485831209078 -0.1528891842761837
v 1.9979794333609882 0.11105213775533684 -0.16632300262620703
v 1.9216429486012023 0.10004896977100586 -0.15443566609605242
v 1.8572356070627087 0.07381422551728711 -0.11903693506255664
v 1.8145628677273677 0.03634189091824602 -0.06551591987962802
v 1.8001212376686375 -0.006663198017418992 -0.002020730866316711
v 1.816109349547238 -0.0486539103952115 0.06178207262629165
v 1.860093133042486 -0.08323754664357885 0.116179099219476
v 1.925376485991236 -0.10514904686411697 0.15288887441288068
v 2.0020205852303192 -0.11105260149854601 0.166322692762904
v 0.9999999907043463 24.944088600947957 16.66710714551972
v 0.9999999907043463 24.944088600947957 16.66710714551972
v 0.9999999907043463 24.944088600947957 16.66710714551972
v 0.9999999907043463 24.944088600947957 16.66710714551972
v 0.9999999907043463 24.944088600947957 16.66710714551972
v 0.9999999907043463 24.944088600947957 16.66710714551972
v 0.9999999907043463 24.944088600947957 16.66710714551972
v 0.9999999907043463 24.944088600947957 16.66710714551972
v 0.9999999907043463 24.944088600947957 16.66710714551972
v 0.9999999907043463 24.944088600947957 16.66710714551972
v 0.9999999907043463 24.944088600947957 16.66710714551972
v 0.9999999907043463 24.944088600947957 16.66710714551972
v 0.9999999907043463 24.944088600947957 16.66710714551972
v 0.9999999907043463 24.944088600947957 16.66710714551972
v 0.9999999907043463 24.944088600947957 16.66710714551972
v 0.9999999907043463 24.944088600947957 16.66710714551972
v 1.0020205666390118 24.833036231321017 16.833429993214274
v 1.0783570513987977 24.84403939930535 16.82154265668412
v 1.1427643929372913 24.870274143559065 16.786143925650624
v 1.1854371322726323 24.90774647815811 16.732622910467697
v 1.1998787623313625 24.950751567093775 16.669127721454384
v 1.183890650452762 24.992742279471564 16.605324917961774
v 1.139906866957514 25.027325915719935 16.55092789136859
v 1.074623514008764 25.04923741594047 16.514218116175186
v 0.9979794147696809 25.0551409705749 16.500784297825163
v 0.921642930009895 25.04413780259057 16.512671634355318
v 0.8572355884714014 25.01790305833685 16.548070365388813
v 0.8145628491360604 24.98043072373781 16.60159138057174
v 0.8001212190773301 24.937425634802146 16.665086569585053
v 0.8161093309559306 24.89543492242435 16.728889373077664
v 0.8600931144511785 24.860851286175986 16.783286399670846
v 0.9253764673999285 24.838939785955446 16.81999617486425
v 1.0020205666390118 24.833036231321017 16.833429993214274
v 2.0000000092956536 -2.31871604583489e-7 -1.5493165150815003e-7
v 2.0000000092956536 -2.31871604583489e-7 -1.5493165150815003e-7
v 2.0000000092956536 -2.31871604583489e-7 -1.5493165150815003e-7
v 2.0000000092956536 -2.31871604583489e-7 -1.5493165150815003e-7
v 2.0000000092956536 -2.31871604583489e-7 -1.5493165150815003e-7
v 2.0000000092956536 -2.31871604583489e-7 -1.5493165150815003e-7
v 2.0000000092956536 -2.31871604583489e-7 -1.5493165150815003e-7
v 2.0000000092956536 -2.31871604583489e-7 -1.5493165150815003e-7
v 2.0000000092956536 -2.31871604583489e-7 -1.5493165150815003e-7
v 2.0000000092956536 -2.31871604583489e-7 -1.5493165150815003e-7
v 2.0000000092956536 -2.31871604583489e-7 -1.5493165150815003e-7
v 2.0000000092956536 -2.31871604583489e-7 -1.5493165150815003e-7
v 2.0000000092956536 -2.31871604583489e-7 -1.5493165150815003e-7
v 2.0000000092956536 -2.31871604583489e-7 -1.5493165150815003e-7
v 2.0000000092956536 -2.31871604583489e-7 -1.5493165150815003e-7
v 2.0000000092956536 -2.31871604583489e-7 -1.5493165150815003e-7
v 2.0020205852303192 -0.11105260149854601 0.166322692762904
v 2.078357069990105 -0.10004943351421502 0.1544353562327494
v 2.1427644115285984 -0.07381468926049628 0.11903662519925362
v 2.1854371508639394 -0.03634235466145519 0.065515610016325
v 2.1998787809226696 0.006662734274209825 0.002020421003013695
v 2.1838906690440694 0.04865344665200233 -0.06178238248959467
v 2.1399068855488217 0.08323708290036969 -0.11617940908277902
v 2.0746235326000715 0.1051485831209078 -0.1528891842761837
v 1.9979794333609882 0.11105213775533684 -0.16632300262620703
v 1.9216429486012023 0.10004896977100586 -0.15443566609605242
v 1.8572356070627087 0.07381422551728711 -0.11903693506255664
v 1.8145628677273677 0.03634189091824602 -0.06551591987962802
v 1.8001212376686375 -0.006663198017418992 -0.002020730866316711
v 1.816109349547238 -0.0486539103952115 0.06178207262629165
v 1.860093133042486 -0.08323754664357885 0.116179099219476
v 1.925376485991236 -0.10514904686411697 0.15288887441288068
v 2.0020205852303192 -0.11105260149854601 0.166322692762904
f 1 18 2
f 18 19 2
f 2 19 3
f 19 20 3
f 3 20 4
f 20 21 4
f 4 21 5
f 21 22 5
f 5 22 6
f 22 23 6
f 6 23 7
f 23 24 7
f 7 24 8
f 24 25 8
f 8 25 9
f 25 26 9
f 9 26 10
f 26 27 10
f 10 27 11
f 27 28 11
f 11 28 12
f 28 29 12
f 12 29 13
f 29 30 13
f 13 30 14
f 30 31 14
f 14 31 15
f 31 32 15
f 15 32 16
f 32 33 16
f 16 33 17
f 33 34 17
f 51 52 35
f 52 53 36
f 53 54 37
f 54 55 38
f 55 56 39
f 56 57 40
f 57 58 41
f 58 59 42
f 59 60 43
f 60 61 44
f 61 62 45
f 62 63 46
f 63 64 47
f 64 65 48
f 65 66 49
f 66 67 50
f 85 84 68
f 86 85 69
f 87 86 70
f 88 87 71
f 89 88 72
f 90 89 73
f 91 90 74
f 92 91 75
f 93 92 76
f 94 93 77
f 95 94 78
f 96 95 79
f 97 96 80
f 98 97 81
f 99 98 82
f 100 99 83
