v -1.0081132401642547 -6.048757888477802 29.38483801919282
v -0.9310644914670635 -6.036384411201579 29.3846806494198
v -0.864510539405211 -5.996048140890144 29.390442105069845
v -0.8185836433927031 -5.933889878395492 29.401245263644917
v -0.800275727637903 -5.8593726810344435 29.415445436148204
v -0.812374031284313 -5.783841107115524 29.430880777775904
v -0.8530366716260525 -5.718794146270197 29.445201398367224
v -0.9160731616716545 -5.674134631925583 29.45622710968804
v -0.9918867412444383 -5.656661541299458 29.46227935202341
v -1.0689354899416297 -5.669035018575681 29.46243672179643
v -1.135489442003482 -5.709371288887116 29.456675266146384
v -1.1814163380159899 -5.771529551381768 29.44587210757131
v -1.19972425377079 -5.8460467487428165 29.431671935068024
v -1.1876259501243802 -5.921578322661736 29.416236593440324
v -1.1469633097826406 -5.986625283507063 29.401915972849004
v -1.0839268197370386 -6.031284797851677 29.390890261528188
v -1.0081132401642547 -6.048757888477802 29.38483801919282
v -2.0081132587555617 -0.1960481191844088 -0.03872093992649717
v -1.9310645100583703 -0.18367464190818694 -0.038878309699519775
v -1.864510557996518 -0.14333837159675156 -0.033116854049476174
v -1.8185836619840101 -0.08118010910210005 -0.022313695474402095
v -1.80027574622921 -0.0066629117410510474 -0.00811352297111334
v -1.8123740498756198 0.0688686621778678 0.007321818656585322
v -1.8530366902173594 0.1339156230231957 0.02164243924790732
v -1.9160731802629614 0.17857513736780906 0.03266815056872119
v -1.9918867598357453 0.19604822799393373 0.038720392904087575
v -2.0689355085329364 0.1836747507177119 0.038877762677110184
v -2.1354894605947887 0.1433384804062765 0.03311630702706658
v -2.181416356607297 0.081180217911625 0.022313148451992504
v -2.199724272362097 0.006663020550575993 0.008112975948703749
v -2.187625968715687 -0.06886855336834286 -0.007322365678994913
v -2.1469633283739475 -0.13391551421367076 -0.02164298627031691
v -2.0839268383283454 -0.1785750285582841 -0.03266869759113078
v -2.0081132587555617 -0.1960481191844088 -0.03872093992649717
v -0.9999999907043465 -5.85270971488863 29.423558685608114
v -0.9999999907043465 -5.85270971488863 29.423558685608114
v -0.9999999907043465 -5.85270971488863 29.423558685608114
v -0.9999999907043465 -5.85270971488863 29.423558685608114
v -0.9999999907043465 -5.85270971488863 29.423558685608114
v -0.9999999907043465 -5.85270971488863 29.423558685608114
v -0.9999999907043465 -5.85270971488863 29.423558685608114
v -0.9999999907043465 -5.85270971488863 29.423558685608114
v -0.9999999907043465 -5.85270971488863 29.423558685608114
v -0.9999999907043465 -5.85270971488863 29.423558685608114
v -0.9999999907043465 -5.85270971488863 29.423558685608114
v -0.9999999907043465 -5.85270971488863 29.423558685608114
v -0.9999999907043465 -5.85270971488863 29.423558685608114
v -0.9999999907043465 -5.85270971488863 29.423558685608114
v -0.9999999907043465 -5.85270971488863 29.423558685608114
v -0.9999999907043465 -5.85270971488863 29.423558685608114
v -1.0081132401642547 -6.048757888477802 29.38483801919282
v -0.9310644914670635 -6.036384411201579 29.3846806494198
v -0.864510539405211 -5.996048140890144 29.390442105069845
v -0.8185836433927031 -5.933889878395492 29.401245263644917
v -0.800275727637903 -5.8593726810344435 29.415445436148204
v -0.812374031284313 -5.783841107115524 29.430880777775904
v -0.8530366716260525 -5.718794146270197 29.445201398367224
v -0.9160731616716545 -5.674134631925583 29.45622710968804
v -0.9918867412444383 -5.656661541299458 29.46227935202341
v -1.0689354899416297 -5.669035018575681 29.46243672179643
v -1.135489442003482 -5.709371288887116 29.456675266146384
v -1.1814163380159899 -5.771529551381768 29.44587210757131
v -1.19972425377079 -5.8460467487428165 29.431671935068024
v -1.1876259501243802 -5.921578322661736 29.416236593440324
v -1.1469633097826406 -5.986625283507063 29.401915972849004
v -1.0839268197370386 -6.031284797851677 29.390890261528188
v -1.0081132401642547 -6.048757888477802 29.38483801919282
v -2.0000000092956536 5.4404762472870516e-8 -2.735112047957955e-7
v -2.0000000092956536 5.4404762472870516e-8 -2.735112047957955e-7
v -2.0000000092956536 5.4404762472870516e-8 -2.735112047957955e-7
v -2.0000000092956536 5.4404762472870516e-8 -2.735112047957955e-7
v -2.0000000092956536 5.4404762472870516e-8 -2.735112047957955e-7
v -2.0000000092956536 5.4404762472870516e-8 -2.735112047957955e-7
v -2.0000000092956536 5.4404762472870516e-8 -2.735112047957955e-7
v -2.0000000092956536 5.4404762472870516e-8 -2.735112047957955e-7
v -2.0000000092956536 5.4404762472870516e-8 -2.735112047957955e-7
v -2.0000000092956536 5.4404762472870516e-8 -2.735112047957955e-7
v -2.0000000092956536 5.4404762472870516e-8 -2.735112047957955e-7
v -2.0000000092956536 5.4404762472870516e-8 -2.735112047957955e-7
v -2.0000000092956536 5.4404762472870516e-8 -2.735112047957955e-7
v -2.0000000092956536 5.4404762472870516e-8 -2.735112047957955e-7
v -2.0000000092956536 5.4404762472870516e-8 -2.735112047957955e-7
v -2.0000000092956536 5.4404762472870516e-8 -2.735112047957955e-7
v -2.0081132587555617 -0.1960481191844088 -0.03872093992649717
v -1.9310645100583703 -0.18367464190818694 -0.038878309699519775
v -1.864510557996518 -0.14333837159675156 -0.033116854049476174
v -1.8185836619840101 -0.08118010910210005 -0.022313695474402095
v -1.80027574622921 -0.0066629117410510474 -0.00811352297111334
v -1.8123740498756198 0.0688686621778678 0.007321818656585322
v -1.8530366902173594 0.1339156230231957 0.02164243924790732
v -1.9160731802629614 0.17857513736780906 0.03266815056872119
v -1.9918867598357453 0.19604822799393373 0.038720392904087575
v -2.0689355085329364 0.1836747507177119 0.038877762677110184
v -2.1354894605947887 0.1433384804062765 0.03311630702706658
v -2.181416356607297 0.081180217911625 0.022313148451992504
v -2.199724272362097 0.006663020550575993 0.008112975948703749
v -2.187625968715687 -0.06886855336834286 -0.007322365678994913
v -2.1469633283739475 -0.13391551421367076 -0.02164298627031691
v -2.0839268383283454 -0.1785750285582841 -0.03266869759113078
v -2.0081132587555617 -0.1960481191844088 -0.03872093992649717
f 1 18 2
f 18 19 2
f 2 19 3
f 19 20 3
f 3 20 4
f 20 21 4
f 4 21 5
f 21 22 5
f 5 22 6
f 22 23 6
f 6 23 7
f 23 24 7
f 7 24 8
f 24 25 8
f 8 25 9
f 25 26 9
f 9 26 10
f 26 27 10
f 10 27 11
f 27 28 11
f 11 28 12
f 28 29 12
f 12 29 13
f 29 30 13
f 13 30 14
f 30 31 14
f 14 31 15
f 31 32 15
f 15 32 16
f 32 33 16
f 16 33 17
f 33 34 17
f 51 52 35
f 52 53 36
f 53 54 37
f 54 55 38
f 55 56 39
f 56 57 40
f 57 58 41
f 58 59 42
f 59 60 43
f 60 61 44
f 61 62 45
f 62 63 46
f 63 64 47
f 64 65 48
f 65 66 49
f 66 67 50
f 85 84 68
f 86 85 69
f 87 86 70
f 88 87 71
f 89 88 72
f 90 89 73
f 91 90 74
f 92 91 75
f 93 92 76
f 94 93 77
f 95 94 78
f 96 95 79
f 97 96 80
f 98 97 81
f 99 98 82
f 100 99 83
