v -1.005465605637007 5.656661541299441 29.462740848359182
v -0.9285839609992868 5.669035018575663 29.45766668253141
v -0.8625747510792344 5.709371288887098 29.44739988595267
v -0.8174873036518454 5.77152955138175 29.433503480049552
v -0.8001857441460979 5.846046748742799 29.418093070675457
v -0.8133041032173759 5.921578322661718 29.403514751925975
v -0.8548452040735576 5.9866252835070455 29.391987938257884
v -0.918484821758577 6.03128479785166 29.385267488250356
v -0.9945343757716858 6.048757888477784 29.384376522857053
v -1.0714160204094059 6.036384411201562 29.389450688684825
v -1.1374252303294585 5.996048140890126 29.399717485263565
v -1.1825126777568475 5.933889878395475 29.413613891166683
v -1.1998142372625948 5.859372681034426 29.429024300540778
v -1.186695878191317 5.783841107115507 29.44360261929026
v -1.1451547773351352 5.718794146270179 29.45512943295835
v -1.0815151596501158 5.6741346319255666 29.46184988296588
v -1.005465605637007 5.656661541299441 29.462740848359182
v -2.0054656242283144 -0.19604822799393062 0.03918188923985966
v -1.9285839795905941 -0.18367475071770878 0.034107723412089896
v -1.8625747696705415 -0.1433384804062734 0.023840926833349485
v -1.8174873222431525 -0.08118021791162189 0.009944520930227796
v -1.8001857627374052 -0.0066630205505728846 -0.005465888443865197
v -1.813304121808683 0.06886855336834596 -0.020044207193345542
v -1.8548452226648648 0.13391551421367387 -0.031571020861436594
v -1.9184848403498842 0.17857502855828722 -0.03829147086896789
v -1.994534394362993 0.1960481191844119 -0.03918243626226925
v -2.071416039000713 0.18367464190819005 -0.03410827043449949
v -2.1374252489207657 0.14333837159675467 -0.023841473855759077
v -2.1825126963481547 0.08118010910210316 -0.009945067952637388
v -2.199814255853902 0.006662911741054156 0.005465341421455605
v -2.186695896782624 -0.06886866217786469 0.02004366017093595
v -2.1451547959264423 -0.1339156230231926 0.031570473839027
v -2.081515178241423 -0.17857513736780595 0.0382909238465583
v -2.0054656242283144 -0.19604822799393062 0.03918188923985966
v -0.9999999907043464 5.852709714888613 29.423558685608118
v -0.9999999907043464 5.852709714888613 29.423558685608118
v -0.9999999907043464 5.852709714888613 29.423558685608118
v -0.9999999907043464 5.852709714888613 29.423558685608118
v -0.9999999907043464 5.852709714888613 29.423558685608118
v -0.9999999907043464 5.852709714888613 29.423558685608118
v -0.9999999907043464 5.852709714888613 29.423558685608118
v -0.9999999907043464 5.852709714888613 29.423558685608118
v -0.9999999907043464 5.852709714888613 29.423558685608118
v -0.9999999907043464 5.852709714888613 29.423558685608118
v -0.9999999907043464 5.852709714888613 29.423558685608118
v -0.9999999907043464 5.852709714888613 29.423558685608118
v -0.9999999907043464 5.852709714888613 29.423558685608118
v -0.9999999907043464 5.852709714888613 29.423558685608118
v -0.9999999907043464 5.852709714888613 29.423558685608118
v -0.9999999907043464 5.852709714888613 29.423558685608118
v -1.005465605637007 5.656661541299441 29.462740848359182
v -0.9285839609992868 5.669035018575663 29.45766668253141
v -0.8625747510792344 5.709371288887098 29.44739988595267
v -0.8174873036518454 5.77152955138175 29.433503480049552
v -0.8001857441460979 5.846046748742799 29.418093070675457
v -0.8133041032173759 5.921578322661718 29.403514751925975
v -0.8548452040735576 5.9866252835070455 29.391987938257884
v -0.918484821758577 6.03128479785166 29.385267488250356
v -0.9945343757716858 6.048757888477784 29.384376522857053
v -1.0714160204094059 6.036384411201562 29.389450688684825
v -1.1374252303294585 5.996048140890126 29.399717485263565
v -1.1825126777568475 5.933889878395475 29.413613891166683
v -1.1998142372625948 5.859372681034426 29.429024300540778
v -1.186695878191317 5.783841107115507 29.44360261929026
v -1.1451547773351352 5.718794146270179 29.45512943295835
v -1.0815151596501158 5.6741346319255666 29.46184988296588
v -1.005465605637007 5.656661541299441 29.462740848359182
v -2.0000000092956536 -5.440475936424605e-8 -2.735112047957955e-7
v -2.0000000092956536 -5.440475936424605e-8 -2.735112047957955e-7
v -2.0000000092956536 -5.440475936424605e-8 -2.735112047957955e-7
v -2.0000000092956536 -5.440475936424605e-8 -2.735112047957955e-7
v -2.0000000092956536 -5.440475936424605e-8 -2.735112047957955e-7
v -2.0000000092956536 -5.440475936424605e-8 -2.735112047957955e-7
v -2.0000000092956536 -5.440475936424605e-8 -2.735112047957955e-7
v -2.0000000092956536 -5.440475936424605e-8 -2.735112047957955e-7
v -2.0000000092956536 -5.440475936424605e-8 -2.735112047957955e-7
v -2.0000000092956536 -5.440475936424605e-8 -2.735112047957955e-7
v -2.0000000092956536 -5.440475936424605e-8 -2.735112047957955e-7
v -2.0000000092956536 -5.440475936424605e-8 -2.735112047957955e-7
v -2.0000000092956536 -5.440475936424605e-8 -2.735112047957955e-7
v -2.0000000092956536 -5.440475936424605e-8 -2.735112047957955e-7
v -2.0000000092956536 -5.440475936424605e-8 -2.735112047957955e-7
v -2.0000000092956536 -5.440475936424605e-8 -2.735112047957955e-7
v -2.0054656242283144 -0.19604822799393062 0.03918188923985966
v -1.9285839795905941 -0.18367475071770878 0.034107723412089896
v -1.8625747696705415 -0.1433384804062734 0.023840926833349485
v -1.8174873222431525 -0.08118021791162189 0.009944520930227796
v -1.8001857627374052 -0.0066630205505728846 -0.005465888443865197
v -1.813304121808683 0.06886855336834596 -0.020044207193345542
v -1.8548452226648648 0.13391551421367387 -0.031571020861436594
v -1.9184848403498842 0.17857502855828722 -0.03829147086896789
v -1.994534394362993 0.1960481191844119 -0.03918243626226925
v -2.071416039000713 0.18367464190819005 -0.03410827043449949
v -2.1374252489207657 0.14333837159675467 -0.023841473855759077
v -2.1825126963481547 0.08118010910210316 -0.009945067952637388
v -2.199814255853902 0.006662911741054156 0.005465341421455605
v -2.186695896782624 -0.06886866217786469 0.02004366017093595
v -2.1451547959264423 -0.1339156230231926 0.031570473839027
v -2.081515178241423 -0.17857513736780595 0.0382909238465583
v -2.0054656242283144 -0.19604822799393062 0.03918188923985966
f 1 18 2
f 18 19 2
f 2 19 3
f 19 20 3
f 3 20 4
f 20 21 4
f 4 21 5
f 21 22 5
f 5 22 6
f 22 23 6
f 6 23 7
f 23 24 7
f 7 24 8
f 24 25 8
f 8 25 9
f 25 26 9
f 9 26 10
f 26 27 10
f 10 27 11
f 27 28 11
f 11 28 12
f 28 29 12
f 12 29 13
f 29 30 13
f 13 30 14
f 30 31 14
f 14 31 15
f 31 32 15
f 15 32 16
f 32 33 16
f 16 33 17
f 33 34 17
f 51 52 35
f 52 53 36
f 53 54 37
f 54 55 38
f 55 56 39
f 56 57 40
f 57 58 41
f 58 59 42
f 59 60 43
f 60 61 44
f 61 62 45
f 62 63 46
f 63 64 47
f 64 65 48
f 65 66 49
f 66 67 50
f 85 84 68
f 86 85 69
f 87 86 70
f 88 87 71
f 89 88 72
f 90 89 73
f 91 90 74
f 92 91 75
f 93 92 76
f 94 93 77
f 95 94 78
f 96 95 79
f 97 96 80
f 98 97 81
f 99 98 82
f 100 99 83
