v 1.0332543482228176 -27.792880435612886 11.298726330363781
v 1.1061512167577903 -27.78450785239479 11.325289157566555
v 1.1628875344853158 -27.76576437537964 11.375481885416312
v 1.1948256818527585 -27.739503518220772 11.441663149629932
v 1.1971033995542866 -27.7097232668347 11.513757435189941
v 1.1693738992933984 -27.680957392006505 11.580789044462012
v 1.115858769607166 -27.65758523319831 11.632553034804781
v 1.0447051780087897 -27.64316500021634 11.661168780335746
v 0.9667456331858766 -27.639892030348143 11.662279824979162
v 0.893848764650904 -27.64826461356624 11.635716997776388
v 0.8371124469233784 -27.66700809058139 11.585524269926632
v 0.8051742995559356 -27.693268947740258 11.519343005713012
v 0.8028965818544076 -27.72304919912633 11.447248720153002
v 0.8306260821152956 -27.751815073954525 11.380217110880931
v 0.8841412118015282 -27.77518723276272 11.328453120538162
v 0.9552948033999044 -27.78960746574469 11.299837375007197
v 1.0332543482228176 -27.792880435612886 11.298726330363781
v 2.0332543668141234 -0.07649394499045137 -0.18177685402646215
v 2.106151235349096 -0.06812136177235573 -0.15521402682368635
v 2.1628875530766214 -0.04937788475720417 -0.10502129897393075
v 2.1948257004440643 -0.023117027598337003 -0.038840034760310616
v 2.197103418145592 0.006663223787732875 0.03325425079969957
v 2.1693739178847045 0.03542909861593024 0.10028586007176976
v 2.115858788198472 0.058801257424123676 0.15204985041453867
v 2.0447051966000958 0.0732214904060946 0.1806655959455048
v 1.9667456517771824 0.0764944602742883 0.18177664058892073
v 1.8938487832422097 0.06812187705619266 0.15521381338614493
v 1.8371124655146842 0.049378400041041104 0.10502108553638934
v 1.8051743181472415 0.023117542882173936 0.0388398213227692
v 1.8028966004457134 -0.006662708503895942 -0.03325446423724099
v 1.8306261007066016 -0.03542858333209331 -0.10028607350931118
v 1.884141230392834 -0.058800742140286744 -0.1520500638520801
v 1.9552948219912103 -0.07322097512225767 -0.18066580938304622
v 2.0332543668141234 -0.07649394499045137 -0.18177685402646215
v 0.9999999907043471 -27.716386232980515 11.480503077671472
v 0.9999999907043471 -27.716386232980515 11.480503077671472
v 0.9999999907043471 -27.716386232980515 11.480503077671472
v 0.9999999907043471 -27.716386232980515 11.480503077671472
v 0.9999999907043471 -27.716386232980515 11.480503077671472
v 0.9999999907043471 -27.716386232980515 11.480503077671472
v 0.9999999907043471 -27.716386232980515 11.480503077671472
v 0.9999999907043471 -27.716386232980515 11.480503077671472
v 0.9999999907043471 -27.716386232980515 11.480503077671472
v 0.9999999907043471 -27.716386232980515 11.480503077671472
v 0.9999999907043471 -27.716386232980515 11.480503077671472
v 0.9999999907043471 -27.716386232980515 11.480503077671472
v 0.9999999907043471 -27.716386232980515 11.480503077671472
v 0.9999999907043471 -27.716386232980515 11.480503077671472
v 0.9999999907043471 -27.716386232980515 11.480503077671472
v 0.9999999907043471 -27.716386232980515 11.480503077671472
v 1.0332543482228176 -27.792880435612886 11.298726330363781
v 1.1061512167577903 -27.78450785239479 11.325289157566555
v 1.1628875344853158 -27.76576437537964 11.375481885416312
v 1.1948256818527585 -27.739503518220772 11.441663149629932
v 1.1971033995542866 -27.7097232668347 11.513757435189941
v 1.1693738992933984 -27.680957392006505 11.580789044462012
v 1.115858769607166 -27.65758523319831 11.632553034804781
v 1.0447051780087897 -27.64316500021634 11.661168780335746
v 0.9667456331858766 -27.639892030348143 11.662279824979162
v 0.893848764650904 -27.64826461356624 11.635716997776388
v 0.8371124469233784 -27.66700809058139 11.585524269926632
v 0.8051742995559356 -27.693268947740258 11.519343005713012
v 0.8028965818544076 -27.72304919912633 11.447248720153002
v 0.8306260821152956 -27.751815073954525 11.380217110880931
v 0.8841412118015282 -27.77518723276272 11.328453120538162
v 0.9552948033999044 -27.78960746574469 11.299837375007197
v 1.0332543482228176 -27.792880435612886 11.298726330363781
v 2.000000009295653 2.5764191846633366e-7 -1.0671877070933533e-7
v 2.000000009295653 2.5764191846633366e-7 -1.0671877070933533e-7
v 2.000000009295653 2.5764191846633366e-7 -1.0671877070933533e-7
v 2.000000009295653 2.5764191846633366e-7 -1.0671877070933533e-7
v 2.000000009295653 2.5764191846633366e-7 -1.0671877070933533e-7
v 2.000000009295653 2.5764191846633366e-7 -1.0671877070933533e-7
v 2.000000009295653 2.5764191846633366e-7 -1.0671877070933533e-7
v 2.000000009295653 2.5764191846633366e-7 -1.0671877070933533e-7
v 2.000000009295653 2.5764191846633366e-7 -1.0671877070933533e-7
v 2.000000009295653 2.5764191846633366e-7 -1.0671877070933533e-7
v 2.000000009295653 2.5764191846633366e-7 -1.0671877070933533e-7
v 2.000000009295653 2.5764191846633366e-7 -1.0671877070933533e-7
v 2.000000009295653 2.5764191846633366e-7 -1.0671877070933533e-7
v 2.000000009295653 2.5764191846633366e-7 -1.0671877070933533e-7
v 2.000000009295653 2.5764191846633366e-7 -1.0671877070933533e-7
v 2.000000009295653 2.5764191846633366e-7 -1.0671877070933533e-7
v 2.0332543668141234 -0.07649394499045137 -0.18177685402646215
v 2.106151235349096 -0.06812136177235573 -0.15521402682368635
v 2.1628875530766214 -0.04937788475720417 -0.10502129897393075
v 2.1948257004440643 -0.023117027598337003 -0.038840034760310616
v 2.197103418145592 0.006663223787732875 0.03325425079969957
v 2.1693739178847045 0.03542909861593024 0.10028586007176976
v 2.115858788198472 0.058801257424123676 0.15204985041453867
v 2.0447051966000958 0.0732214904060946 0.1806655959455048
v 1.9667456517771824 0.0764944602742883 0.18177664058892073
v 1.8938487832422097 0.06812187705619266 0.15521381338614493
v 1.8371124655146842 0.049378400041041104 0.10502108553638934
v 1.8051743181472415 0.023117542882173936 0.0388398213227692
v 1.8028966004457134 -0.006662708503895942 -0.03325446423724099
v 1.8306261007066016 -0.03542858333209331 -0.10028607350931118
v 1.884141230392834 -0.058800742140286744 -0.1520500638520801
v 1.9552948219912103 -0.07322097512225767 -0.18066580938304622
v 2.0332543668141234 -0.07649394499045137 -0.18177685402646215
f 1 18 2
f 18 19 2
f 2 19 3
f 19 20 3
f 3 20 4
f 20 21 4
f 4 21 5
f 21 22 5
f 5 22 6
f 22 23 6
f 6 23 7
f 23 24 7
f 7 24 8
f 24 25 8
f 8 25 9
f 25 26 9
f 9 26 10
f 26 27 10
f 10 27 11
f 27 28 11
f 11 28 12
f 28 29 12
f 12 29 13
f 29 30 13
f 13 30 14
f 30 31 14
f 14 31 15
f 31 32 15
f 15 32 16
f 32 33 16
f 16 33 17
f 33 34 17
f 51 52 35
f 52 53 36
f 53 54 37
f 54 55 38
f 55 56 39
f 56 57 40
f 57 58 41
f 58 59 42
f 59 60 43
f 60 61 44
f 61 62 45
f 62 63 46
f 63 64 47
f 64 65 48
f 65 66 49
f 66 67 50
f 85 84 68
f 86 85 69
f 87 86 70
f 88 87 71
f 89 88 72
f 90 89 73
f 91 90 74
f 92 91 75
f 93 92 76
f 94 93 77
f 95 94 78
f 96 95 79
f 97 96 80
f 98 97 81
f 99 98 82
f 100 99 83
