# Object: cabin_roof_3
o cabin_roof_3
v 0 61.46638488769531 11.48050308227539
v 0 61.46638488769531 11.48050308227539
v 0 61.46638488769531 11.48050308227539
v 0 61.46638488769531 11.48050308227539
v 0 61.46638488769531 11.48050308227539
v 0 61.46638488769531 11.48050308227539
v 0 61.46638488769531 11.48050308227539
v 0 61.46638488769531 11.48050308227539
v 0 61.46638488769531 11.48050308227539
v 0 60.96638488769531 12.85550308227539
v 0.9722718000411987 60.96638488769531 12.452775001525879
v 1.375 60.96638488769531 11.48050308227539
v 0.9722718000411987 60.96638488769531 10.508231163024902
v 1.6838893230429323e-16 60.96638488769531 10.10550308227539
v -0.9722718000411987 60.96638488769531 10.508231163024902
v -1.375 60.96638488769531 11.48050308227539
v -0.9722718000411987 60.96638488769531 12.452775001525879
v -3.3677786460858646e-16 60.96638488769531 12.85550308227539
v 0 60.96638488769531 11.48050308227539
v 0 60.96638488769531 11.48050308227539
v 0 60.96638488769531 11.48050308227539
v 0 60.96638488769531 11.48050308227539
v 0 60.96638488769531 11.48050308227539
v 0 60.96638488769531 11.48050308227539
v 0 60.96638488769531 11.48050308227539
v 0 60.96638488769531 11.48050308227539
v 0 60.96638488769531 12.85550308227539
v 0.9722718000411987 60.96638488769531 12.452775001525879
v 1.375 60.96638488769531 11.48050308227539
v 0.9722718000411987 60.96638488769531 10.508231163024902
v 1.6838893230429323e-16 60.96638488769531 10.10550308227539
v -0.9722718000411987 60.96638488769531 10.508231163024902
v -1.375 60.96638488769531 11.48050308227539
v -0.9722718000411987 60.96638488769531 12.452775001525879
v -3.3677786460858646e-16 60.96638488769531 12.85550308227539
vn 0 0.9397934079170227 0.3417430520057678
vn 0.2416488379240036 0.9397934079170227 0.2416488379240036
vn 0.3417430520057678 0.9397934079170227 2.0925727277513326e-17
vn 0.2416488379240036 0.9397934079170227 -0.2416488379240036
vn 4.185145455502665e-17 0.9397934079170227 -0.3417430520057678
vn -0.2416488379240036 0.9397934079170227 -0.2416488379240036
vn -0.3417430520057678 0.9397934079170227 -6.277718514126243e-17
vn -0.2416488379240036 0.9397934079170227 0.2416488379240036
vn -8.37029091100533e-17 0.9397934079170227 0.3417430520057678
vn 0 0.9397934079170227 0.3417430520057678
vn 0.2416488379240036 0.9397934079170227 0.2416488379240036
vn 0.3417430520057678 0.9397934079170227 2.0925727277513326e-17
vn 0.2416488379240036 0.9397934079170227 -0.2416488379240036
vn 4.185145455502665e-17 0.9397934079170227 -0.3417430520057678
vn -0.2416488379240036 0.9397934079170227 -0.2416488379240036
vn -0.3417430520057678 0.9397934079170227 -6.277718514126243e-17
vn -0.2416488379240036 0.9397934079170227 0.2416488379240036
vn -8.37029091100533e-17 0.9397934079170227 0.3417430520057678
vn 0 -1 0
vn 0 -1 0
vn 0 -1 0
vn 0 -1 0
vn 0 -1 0
vn 0 -1 0
vn 0 -1 0
vn 0 -1 0
vn 0 -1 0
vn 0 -1 0
vn 0 -1 0
vn 0 -1 0
vn 0 -1 0
vn 0 -1 0
vn 0 -1 0
vn 0 -1 0
vn 0 -1 0
vt 0 1
vt 0.125 1
vt 0.25 1
vt 0.375 1
vt 0.5 1
vt 0.625 1
vt 0.75 1
vt 0.875 1
vt 1 1
vt 0 0
vt 0.125 0
vt 0.25 0
vt 0.375 0
vt 0.5 0
vt 0.625 0
vt 0.75 0
vt 0.875 0
vt 1 0
vt 0.5 0.5
vt 0.5 0.5
vt 0.5 0.5
vt 0.5 0.5
vt 0.5 0.5
vt 0.5 0.5
vt 0.5 0.5
vt 0.5 0.5
vt 1 0.5
vt 0.8535534143447876 0.1464466154575348
vt 0.5 0
vt 0.1464466154575348 0.1464466154575348
vt 0 0.5
vt 0.1464466154575348 0.8535534143447876
vt 0.5 1
vt 0.8535534143447876 0.8535534143447876
vt 1 0.5
f 10//10 11//11 2//2
f 11//11 12//12 3//3
f 12//12 13//13 4//4
f 13//13 14//14 5//5
f 14//14 15//15 6//6
f 15//15 16//16 7//7
f 16//16 17//17 8//8
f 17//17 18//18 9//9
f 28//28 27//27 19//19
f 29//29 28//28 20//20
f 30//30 29//29 21//21
f 31//31 30//30 22//22
f 32//32 31//31 23//23
f 33//33 32//32 24//24
f 34//34 33//33 25//25
f 35//35 34//34 26//26
