o spoke_front_8
v 1 65 0.20000000298023224
v 2 35 0.20000000298023224
v 1.0764942169189453 65.00254821777344 0.18477590382099152
v 2 35 0.20000000298023224
v 2.0764942169189453 35.00254821777344 0.18477590382099152
v 1.0764942169189453 65.00254821777344 0.18477590382099152
v 1.0764942169189453 65.00254821777344 0.18477590382099152
v 2.0764942169189453 35.00254821777344 0.18477590382099152
v 1.1413428783416748 65.00471496582031 0.1414213627576828
v 2.0764942169189453 35.00254821777344 0.18477590382099152
v 2.141342878341675 35.00471115112305 0.1414213627576828
v 1.1413428783416748 65.00471496582031 0.1414213627576828
v 1.1413428783416748 65.00471496582031 0.1414213627576828
v 2.141342878341675 35.00471115112305 0.1414213627576828
v 1.1846733093261719 65.00615692138672 0.07653668522834778
v 2.141342878341675 35.00471115112305 0.1414213627576828
v 2.184673309326172 35.00615692138672 0.07653668522834778
v 1.1846733093261719 65.00615692138672 0.07653668522834778
v 1.1846733093261719 65.00615692138672 0.07653668522834778
v 2.184673309326172 35.00615692138672 0.07653668522834778
v 1.1998889446258545 65.00666046142578 1.8494206308809855e-15
v 2.184673309326172 35.00615692138672 0.07653668522834778
v 2.1998889446258545 35.00666427612305 1.2450388399180701e-17
v 1.1998889446258545 65.00666046142578 1.8494206308809855e-15
v 1.1998889446258545 65.00666046142578 1.8494206308809855e-15
v 2.1998889446258545 35.00666427612305 1.2450388399180701e-17
v 1.1846733093261719 65.00615692138672 -0.07653668522834778
v 2.1998889446258545 35.00666427612305 1.2450388399180701e-17
v 2.184673309326172 35.00615692138672 -0.07653668522834778
v 1.1846733093261719 65.00615692138672 -0.07653668522834778
v 1.1846733093261719 65.00615692138672 -0.07653668522834778
v 2.184673309326172 35.00615692138672 -0.07653668522834778
v 1.1413428783416748 65.00471496582031 -0.1414213627576828
v 2.184673309326172 35.00615692138672 -0.07653668522834778
v 2.141342878341675 35.00471115112305 -0.1414213627576828
v 1.1413428783416748 65.00471496582031 -0.1414213627576828
v 1.1413428783416748 65.00471496582031 -0.1414213627576828
v 2.141342878341675 35.00471115112305 -0.1414213627576828
v 1.0764942169189453 65.00254821777344 -0.18477590382099152
v 2.141342878341675 35.00471115112305 -0.1414213627576828
v 2.0764942169189453 35.00254821777344 -0.18477590382099152
v 1.0764942169189453 65.00254821777344 -0.18477590382099152
v 1.0764942169189453 65.00254821777344 -0.18477590382099152
v 2.0764942169189453 35.00254821777344 -0.18477590382099152
v 1 65 -0.20000000298023224
v 2.0764942169189453 35.00254821777344 -0.18477590382099152
v 2 35 -0.20000000298023224
v 1 65 -0.20000000298023224
v 1 65 -0.20000000298023224
v 2 35 -0.20000000298023224
v 0.9235057830810547 64.99745178222656 -0.18477590382099152
v 2 35 -0.20000000298023224
v 1.9235057830810547 34.99745178222656 -0.18477590382099152
v 0.9235057830810547 64.99745178222656 -0.18477590382099152
v 0.9235057830810547 64.99745178222656 -0.18477590382099152
v 1.9235057830810547 34.99745178222656 -0.18477590382099152
v 0.8586571216583252 64.99529266357422 -0.1414213627576828
v 1.9235057830810547 34.99745178222656 -0.18477590382099152
v 1.8586571216583252 34.99528884887695 -0.1414213627576828
v 0.8586571216583252 64.99529266357422 -0.1414213627576828
v 0.8586571216583252 64.99529266357422 -0.1414213627576828
v 1.8586571216583252 34.99528884887695 -0.1414213627576828
v 0.8153266310691833 64.99384307861328 -0.07653668522834778
v 1.8586571216583252 34.99528884887695 -0.1414213627576828
v 1.8153266906738281 34.99384307861328 -0.07653668522834778
v 0.8153266310691833 64.99384307861328 -0.07653668522834778
v 0.8153266310691833 64.99384307861328 -0.07653668522834778
v 1.8153266906738281 34.99384307861328 -0.07653668522834778
v 0.8001109957695007 64.99333953857422 1.800026963353035e-15
v 1.8153266906738281 34.99384307861328 -0.07653668522834778
v 1.8001110553741455 34.99333572387695 -3.694336184683101e-17
v 0.8001109957695007 64.99333953857422 1.800026963353035e-15
v 0.8001109957695007 64.99333953857422 1.800026963353035e-15
v 1.8001110553741455 34.99333572387695 -3.694336184683101e-17
v 0.8153266310691833 64.99384307861328 0.07653668522834778
v 1.8001110553741455 34.99333572387695 -3.694336184683101e-17
v 1.8153266906738281 34.99384307861328 0.07653668522834778
v 0.8153266310691833 64.99384307861328 0.07653668522834778
v 0.8153266310691833 64.99384307861328 0.07653668522834778
v 1.8153266906738281 34.99384307861328 0.07653668522834778
v 0.8586571216583252 64.99529266357422 0.1414213627576828
v 1.8153266906738281 34.99384307861328 0.07653668522834778
v 1.8586571216583252 34.99528884887695 0.1414213627576828
v 0.8586571216583252 64.99529266357422 0.1414213627576828
v 0.8586571216583252 64.99529266357422 0.1414213627576828
v 1.8586571216583252 34.99528884887695 0.1414213627576828
v 0.9235057830810547 64.99745178222656 0.18477590382099152
v 1.8586571216583252 34.99528884887695 0.1414213627576828
v 1.9235057830810547 34.99745178222656 0.18477590382099152
v 0.9235057830810547 64.99745178222656 0.18477590382099152
v 0.9235057830810547 64.99745178222656 0.18477590382099152
v 1.9235057830810547 34.99745178222656 0.18477590382099152
v 1 65 0.20000000298023224
v 1.9235057830810547 34.99745178222656 0.18477590382099152
v 2 35 0.20000000298023224
v 1 65 0.20000000298023224
v 1 65 0.20000000298023224
v 1.0764942169189453 65.00254821777344 0.18477590382099152
v 1 65 1.8369703053475314e-15
v 1.0764942169189453 65.00254821777344 0.18477590382099152
v 1.1413428783416748 65.00471496582031 0.1414213627576828
v 1 65 1.8369703053475314e-15
v 1.1413428783416748 65.00471496582031 0.1414213627576828
v 1.1846733093261719 65.00615692138672 0.07653668522834778
v 1 65 1.8369703053475314e-15
v 1.1846733093261719 65.00615692138672 0.07653668522834778
v 1.1998889446258545 65.00666046142578 1.8494206308809855e-15
v 1 65 1.8369703053475314e-15
v 1.1998889446258545 65.00666046142578 1.8494206308809855e-15
v 1.1846733093261719 65.00615692138672 -0.07653668522834778
v 1 65 1.8369703053475314e-15
v 1.1846733093261719 65.00615692138672 -0.07653668522834778
v 1.1413428783416748 65.00471496582031 -0.1414213627576828
v 1 65 1.8369703053475314e-15
v 1.1413428783416748 65.00471496582031 -0.1414213627576828
v 1.0764942169189453 65.00254821777344 -0.18477590382099152
v 1 65 1.8369703053475314e-15
v 1.0764942169189453 65.00254821777344 -0.18477590382099152
v 1 65 -0.20000000298023224
v 1 65 1.8369703053475314e-15
v 1 65 -0.20000000298023224
v 0.9235057830810547 64.99745178222656 -0.18477590382099152
v 1 65 1.8369703053475314e-15
v 0.9235057830810547 64.99745178222656 -0.18477590382099152
v 0.8586571216583252 64.99529266357422 -0.1414213627576828
v 1 65 1.8369703053475314e-15
v 0.8586571216583252 64.99529266357422 -0.1414213627576828
v 0.8153266310691833 64.99384307861328 -0.07653668522834778
v 1 65 1.8369703053475314e-15
v 0.8153266310691833 64.99384307861328 -0.07653668522834778
v 0.8001109957695007 64.99333953857422 1.800026963353035e-15
v 1 65 1.8369703053475314e-15
v 0.8001109957695007 64.99333953857422 1.800026963353035e-15
v 0.8153266310691833 64.99384307861328 0.07653668522834778
v 1 65 1.8369703053475314e-15
v 0.8153266310691833 64.99384307861328 0.07653668522834778
v 0.8586571216583252 64.99529266357422 0.1414213627576828
v 1 65 1.8369703053475314e-15
v 0.8586571216583252 64.99529266357422 0.1414213627576828
v 0.9235057830810547 64.99745178222656 0.18477590382099152
v 1 65 1.8369703053475314e-15
v 0.9235057830810547 64.99745178222656 0.18477590382099152
v 1 65 0.20000000298023224
v 1 65 1.8369703053475314e-15
v 2.0764942169189453 35.00254821777344 0.18477590382099152
v 2 35 0.20000000298023224
v 2 35 -1.7075837771151445e-23
v 2.141342878341675 35.00471115112305 0.1414213627576828
v 2.0764942169189453 35.00254821777344 0.18477590382099152
v 2 35 -1.7075837771151445e-23
v 2.184673309326172 35.00615692138672 0.07653668522834778
v 2.141342878341675 35.00471115112305 0.1414213627576828
v 2 35 -1.7075837771151445e-23
v 2.1998889446258545 35.00666427612305 1.2450388399180701e-17
v 2.184673309326172 35.00615692138672 0.07653668522834778
v 2 35 -1.7075837771151445e-23
v 2.184673309326172 35.00615692138672 -0