o 
v 0 -26.341386795043945 -44.73050308227539
v 0.9722718000411987 -26.74411392211914 -44.73050308227539
v 0 -27.716386795043945 -45.23050308227539
v 0.9722718000411987 -26.74411392211914 -44.73050308227539
v 1.375 -27.716386795043945 -44.73050308227539
v 0 -27.716386795043945 -45.23050308227539
v 1.375 -27.716386795043945 -44.73050308227539
v 0.9722718000411987 -28.688657760620117 -44.73050308227539
v 0 -27.716386795043945 -45.23050308227539
v 0.9722718000411987 -28.688657760620117 -44.73050308227539
v 1.6838893230429323e-16 -29.091386795043945 -44.73050308227539
v 0 -27.716386795043945 -45.23050308227539
v 1.6838893230429323e-16 -29.091386795043945 -44.73050308227539
v -0.9722718000411987 -28.688657760620117 -44.73050308227539
v 0 -27.716386795043945 -45.23050308227539
v -0.9722718000411987 -28.688657760620117 -44.73050308227539
v -1.375 -27.716386795043945 -44.73050308227539
v 0 -27.716386795043945 -45.23050308227539
v -1.375 -27.716386795043945 -44.73050308227539
v -0.9722718000411987 -26.74411392211914 -44.73050308227539
v 0 -27.716386795043945 -45.23050308227539
v -0.9722718000411987 -26.74411392211914 -44.73050308227539
v -3.3677786460858646e-16 -26.341386795043945 -44.73050308227539
v 0 -27.716386795043945 -45.23050308227539
v 0.9722718000411987 -26.74411392211914 -44.73050308227539
v 0 -26.341386795043945 -44.73050308227539
v 0 -27.716386795043945 -44.73050308227539
v 1.375 -27.716386795043945 -44.73050308227539
v 0.9722718000411987 -26.74411392211914 -44.73050308227539
v 0 -27.716386795043945 -44.73050308227539
v 0.9722718000411987 -28.688657760620117 -44.73050308227539
v 1.375 -27.716386795043945 -44.73050308227539
v 0 -27.716386795043945 -44.73050308227539
v 1.6838893230429323e-16 -29.091386795043945 -44.73050308227539
v 0.9722718000411987 -28.688657760620117 -44.73050308227539
v 0 -27.716386795043945 -44.73050308227539
v -0.9722718000411987 -28.688657760620117 -44.73050308227539
v 1.6838893230429323e-16 -29.091386795043945 -44.73050308227539
v 0 -27.716386795043945 -44.73050308227539
v -1.375 -27.716386795043945 -44.73050308227539
v -0.9722718000411987 -28.688657760620117 -44.73050308227539
v 0 -27.716386795043945 -44.73050308227539
v -0.9722718000411987 -26.74411392211914 -44.73050308227539
v -1.375 -27.716386795043945 -44.73050308227539
v 0 -27.716386795043945 -44.73050308227539
v -3.3677786460858646e-16 -26.341386795043945 -44.73050308227539
v -0.9722718000411987 -26.74411392211914 -44.73050308227539
v 0 -27.716386795043945 -44.73050308227539
vt 0 0
vt 0.125 0
vt 0.125 1
vt 0.125 0
vt 0.25 0
vt 0.25 1
vt 0.25 0
vt 0.375 0
vt 0.375 1
vt 0.375 0
vt 0.5 0
vt 0.5 1
vt 0.5 0
vt 0.625 0
vt 0.625 1
vt 0.625 0
vt 0.75 0
vt 0.75 1
vt 0.75 0
vt 0.875 0
vt 0.875 1
vt 0.875 0
vt 1 0
vt 1 1
vt 0.8535534143447876 0.1464466154575348
vt 1 0.5
vt 0.5 0.5
vt 0.5 0
vt 0.8535534143447876 0.1464466154575348
vt 0.5 0.5
vt 0.1464466154575348 0.1464466154575348
vt 0.5 0
vt 0.5 0.5
vt 0 0.5
vt 0.1464466154575348 0.1464466154575348
vt 0.5 0.5
vt 0.1464466154575348 0.8535534143447876
vt 0 0.5
vt 0.5 0.5
vt 0.5 1
vt 0.1464466154575348 0.8535534143447876
vt 0.5 0.5
vt 0.8535534143447876 0.8535534143447876
vt 0.5 1
vt 0.5 0.5
vt 1 0.5
vt 0.8535534143447876 0.8535534143447876
vt 0.5 0.5
vn 0 0.34174305830092994 -0.9397934252287188
vn 0.24164884139114082 0.24164884139114082 -0.9397934214010217
vn 0.24164884139114082 0.24164884139114082 -0.9397934214010217
vn 0.24164884139114082 0.24164884139114082 -0.9397934214010217
vn 0.34174305830092994 7.84714828720813e-17 -0.9397934252287188
vn 0.34174305830092994 7.84714828720813e-17 -0.9397934252287188
vn 0.34174305830092994 7.84714828720813e-17 -0.9397934252287188
vn 0.24164884139114082 -0.24164884139114082 -0.9397934214010217
vn 0.24164884139114082 -0.24164884139114082 -0.9397934214010217
vn 0.24164884139114082 -0.24164884139114082 -0.9397934214010217
vn 4.1851455325961685e-17 -0.34174305830092994 -0.9397934252287188
vn 4.1851455325961685e-17 -0.34174305830092994 -0.9397934252287188
vn 4.1851455325961685e-17 -0.34174305830092994 -0.9397934252287188
vn -0.24164884139114082 -0.24164884139114082 -0.9397934214010217
vn -0.24164884139114082 -0.24164884139114082 -0.9397934214010217
vn -0.24164884139114082 -0.24164884139114082 -0.9397934214010217
vn -0.34174305830092994 -5.23143605164835e-18 -0.9397934252287188
vn -0.34174305830092994 -5.23143605164835e-18 -0.9397934252287188
vn -0.34174305830092994 -5.23143605164835e-18 -0.9397934252287188
vn -0.24164884139114082 0.24164884139114082 -0.9397934214010217
vn -0.24164884139114082 0.24164884139114082 -0.9397934214010217
vn -0.24164884139114082 0.24164884139114082 -0.9397934214010217
vn -8.370291065192337e-17 0.34174305830092994 -0.9397934252287188
vn -8.370291065192337e-17 0.34174305830092994 -0.9397934252287188
vn 0 -6.123234262925839e-17 1
vn 0 -6.123234262925839e-17 1
vn 0 -6.123234262925839e-17 1
vn 0 -6.123234262925839e-17 1
vn 0 -6.123234262925839e-17 1
vn 0 -6.123234262925839e-17 1
vn 0 -6.123234262925839e-17 1
vn 0 -6.123234262925839e-17 1
vn 0 -6.123234262925839e-17 1
vn 0 -6.123234262925839e-17 1
vn 0 -6.123234262925839e-17 1
vn 0 -6.123234262925839e-17 1
vn 0 -6.123234262925839e-17 1
vn 0 -6.123234262925839e-17 1
vn 0 -6.123234262925839e-17 1
vn 0 -6.123234262925839e-17 1
vn 0 -6.123234262925839e-17 1
vn 0 -6.123234262925839e-17 1
vn 0 -6.123234262925839e-17 1
vn 0 -6.123234262925839e-17 1
vn 0 -6.123234262925839e-17 1
vn 0 -6.123234262925839e-17 1
vn 0 -6.123234262925839e-17 1
vn 0 -6.123234262925839e-17 1
f 1/1/1 2/2/2 3/3/3
f 4/4/4 5/5/5 6/6/6
f 7/7/7 8/8/8 9/9/9
f 10/10/10 11/11/11 12/12/12
f 13/13/13 14/14/14 15/15/15
f 16/16/16 17/17/17 18/18/18
f 19/19/19 20/20/20 21/21/21
f 22/22/22 23/23/23 24/24/24
f 25/25/25 26/26/26 27/27/27
f 28/28/28 29/29/29 30/30/30
f 31/31/31 32/32/32 33/33/33
f 34/34/34 35/35/35 36/36/36
f 37/37/37 38/38/38 39/39/39
f 40/40/40 41/41/41 42/42/42
f 43/43/43 44/44/44 45/45/45
f 46/46/46 47/47/47 48/48/48
