o spoke_front_9
v 0.9993439316749573 29.462554931640625 -5.656549453735352
v 1.075887680053711 29.46213722229004 -5.671732425689697
v 1.1408782005310059 29.45584487915039 -5.714467525482178
v 1.1844213008880615 29.444637298583984 -5.7782487869262695
v 1.1998878717422485 29.430221557617188 -5.853365898132324
v 1.1849234104156494 29.414791107177734 -5.9283833503723145
v 1.1418060064315796 29.40069580078125 -5.991879940032959
v 1.0770999193191528 29.39008140563965 -6.034189224243164
v 1.000656008720398 29.38456153869629 -6.048870086669922
v 0.9241123199462891 29.384981155395508 -6.033687114715576
v 0.8591217994689941 29.391273498535156 -5.990952014923096
v 0.8155786991119385 29.40247917175293 -5.927170753479004
v 0.8001120686531067 29.416894912719727 -5.852053642272949
v 0.8150765895843506 29.43232536315918 -5.777036190032959
v 0.8581939935684204 29.446422576904297 -5.7135396003723145
v 0.9229000806808472 29.4570369720459 -5.671230316162109
v 0.9993439316749573 29.462554931640625 -5.656549453735352
v 1.999343991279602 0.0389961339533329 0.19616031646728516
v 2.075887680053711 0.03857751190662384 0.1809774488210678
v 2.140878200531006 0.03228577971458435 0.13824240863323212
v 2.1844213008880615 0.02107878215610981 0.07446121424436569
v 2.199887990951538 0.006662692409008741 -0.0006560065085068345
v 2.1849234104156494 -0.008767773397266865 -0.07567334920167923
v 2.141806125640869 -0.022863468155264854 -0.1391701102256775
v 2.0770998001098633 -0.033478446304798126 -0.18147945404052734
v 2.0006561279296875 -0.038996681571006775 -0.1961602121591568
v 1.924112319946289 -0.038578059524297714 -0.18097732961177826
v 1.8591217994689941 -0.032286327332258224 -0.13824230432510376
v 1.8155786991119385 -0.021079329773783684 -0.07446110993623734
v 1.8001121282577515 -0.006663239561021328 0.0006561153568327427
v 1.8150765895843506 0.008767226710915565 0.07567346096038818
v 1.8581939935684204 0.02286292240023613 0.13917021453380585
v 1.9229000806808472 0.03347789868712425 0.1814795732498169
v 1.999343991279602 0.0389961339533329 0.19616031646728516
v 1 29.423559188842773 -5.852709770202637
v 1 29.423559188842773 -5.852709770202637
v 1 29.423559188842773 -5.852709770202637
v 1 29.423559188842773 -5.852709770202637
v 1 29.423559188842773 -5.852709770202637
v 1 29.423559188842773 -5.852709770202637
v 1 29.423559188842773 -5.852709770202637
v 1 29.423559188842773 -5.852709770202637
v 1 29.423559188842773 -5.852709770202637
v 1 29.423559188842773 -5.852709770202637
v 1 29.423559188842773 -5.852709770202637
v 1 29.423559188842773 -5.852709770202637
v 1 29.423559188842773 -5.852709770202637
v 1 29.423559188842773 -5.852709770202637
v 1 29.423559188842773 -5.852709770202637
v 1 29.423559188842773 -5.852709770202637
v 0.9993439316749573 29.462554931640625 -5.656549453735352
v 1.075887680053711 29.46213722229004 -5.671732425689697
v 1.1408782005310059 29.45584487915039 -5.714467525482178
v 1.1844213008880615 29.444637298583984 -5.7782487869262695
v 1.1998878717422485 29.430221557617188 -5.853365898132324
v 1.1849234104156494 29.414791107177734 -5.9283833503723145
v 1.1418060064315796 29.40069580078125 -5.991879940032959
v 1.0770999193191528 29.39008140563965 -6.034189224243164
v 1.000656008720398 29.38456153869629 -6.048870086669922
v 0.9241123199462891 29.384981155395508 -6.033687114715576
v 0.8591217994689941 29.391273498535156 -5.990952014923096
v 0.8155786991119385 29.40247917175293 -5.927170753479004
v 0.8001120686531067 29.416894912719727 -5.852053642272949
v 0.8150765895843506 29.43232536315918 -5.777036190032959
v 0.8581939935684204 29.446422576904297 -5.7135396003723145
v 0.9229000806808472 29.4570369720459 -5.671230316162109
v 0.9993439316749573 29.462554931640625 -5.656549453735352
v 2 -2.735112047957955e-7 5.4404761584692096e-8
v 2 -2.735112047957955e-7 5.4404761584692096e-8
v 2 -2.735112047957955e-7 5.4404761584692096e-8
v 2 -2.735112047957955e-7 5.4404761584692096e-8
v 2 -2.735112047957955e-7 5.4404761584692096e-8
v 2 -2.735112047957955e-7 5.4404761584692096e-8
v 2 -2.735112047957955e-7 5.4404761584692096e-8
v 2 -2.735112047957955e-7 5.4404761584692096e-8
v 2 -2.735112047957955e-7 5.4404761584692096e-8
v 2 -2.735112047957955e-7 5.4404761584692096e-8
v 2 -2.735112047957955e-7 5.4404761584692096e-8
v 2 -2.735112047957955e-7 5.4404761584692096e-8
v 2 -2.735112047957955e-7 5.4404761584692096e-8
v 2 -2.735112047957955e-7 5.4404761584692096e-8
v 2 -2.735112047957955e-7 5.4404761584692096e-8
v 2 -2.735112047957955e-7 5.4404761584692096e-8
v 1.999343991279602 0.0389961339533329 0.19616031646728516
v 2.075887680053711 0.03857751190662384 0.1809774488210678
v 2.140878200531006 0.03228577971458435 0.13824240863323212
v 2.1844213008880615 0.02107878215610981 0.07446121424436569
v 2.199887990951538 0.006662692409008741 -0.0006560065085068345
v 2.1849234104156494 -0.008767773397266865 -0.07567334920167923
v 2.141806125640869 -0.022863468155264854 -0.1391701102256775
v 2.0770998001098633 -0.033478446304798126 -0.18147945404052734
v 2.0006561279296875 -0.038996681571006775 -0.1961602121591568
v 1.924112319946289 -0.038578059524297714 -0.18097732961177826
v 1.8591217994689941 -0.032286327332258224 -0.13824230432510376
v 1.8155786991119385 -0.021079329773783684 -0.07446110993623734
v 1.8001121282577515 -0.006663239561021328 0.0006561153568327427
v 1.8150765895843506 0.008767226710915565 0.07567346096038818
v 1.8581939935684204 0.02286292240023613 0.13917021453380585
v 1.9229000806808472 0.03347789868712425 0.1814795732498169
v 1.999343991279602 0.0389961339533329 0.19616031646728516
f 1 18 2
f 18 19 2
f 2 19 3
f 19 20 3
f 3 20 4
f 20 21 4
f 4 21 5
f 21 22 5
f 5 22 6
f 22 23 6
f 6 23 7
f 23 24 7
f 7 24 8
f 24 25 8
f 8 25 9
f 25 26 9
f 9 26 10
f 26 27 10
f 10 27 11
f 27 28 11
f 11 28 12
f 28 29 12
f 12 29 13
f 29 30 13
f 13 30 14
f 30 31 14
f 14 31 15
f 31 32 15
f 15 32 16
f 32 33 16
f 16 33 17
f 33 34 17
f 51 52 35
f 52 53 36
f 53 54 37
f 54 55 38
f 55 56 39
f 56 57 40
f 57 58 41
f 58 59 42
f 59 60 43
f 60 61 44
f 61 62 45
f 62 63 46
f 63 64 47
f 64 65 48
f 65 66 49
f 66 67 50
f 85 84 68
f 86 85 69
f 87 86 70
f 88 87 71
f 89 88 72
f 90 89 73
f 91 90 74
f 92 91 75
f 93 92 76
f 94 93 77
f 95 94 78
f 96 95 79
f 97 96 80
f 98 97 81
f 99 98 82
f 100 99 83
