o spoke_front_12
v 0.9972410202026367 21.35454559326172 -21.071731567382812
v 1.0739378929138184 21.346336364746094 -21.083555221557617
v 1.1393784284591675 21.317859649658203 -21.1151180267334
v 1.1835999488830566 21.273448944091797 -21.16161346435547
v 1.199869990348816 21.219865798950195 -21.21596336364746
v 1.1857115030288696 21.16526985168457 -21.2698917388916
v 1.143280267715454 21.117971420288086 -21.3151912689209
v 1.0790358781814575 21.085168838500977 -21.34496307373047
v 1.0027589797973633 21.071861267089844 -21.354677200317383
v 0.9260620474815369 21.08007049560547 -21.342851638793945
v 0.8606215119361877 21.10854721069336 -21.311288833618164
v 0.8164000511169434 21.152957916259766 -21.264793395996094
v 0.8001300692558289 21.206541061401367 -21.210445404052734
v 0.8142884373664856 21.261137008666992 -21.15651512145996
v 0.8567196726799011 21.30843734741211 -21.111215591430664
v 0.9209641218185425 21.341238021850586 -21.081443786621094
v 0.9972410202026367 21.35454559326172 -21.071731567382812
v 1.9972410202026367 0.1413426548242569 0.14147311449050903
v 2.0739378929138184 0.13313338160514832 0.12964829802513123
v 2.139378547668457 0.10465572774410248 0.09808575361967087
v 2.1835999488830566 0.060245148837566376 0.051590558141469955
v 2.1998698711395264 0.00666276877745986 -0.0027587960939854383
v 2.185711622238159 -0.04793398827314377 -0.05668811872601509
v 2.143280267715454 -0.0952332615852356 -0.10198716819286346
v 2.079035997390747 -0.12803415954113007 -0.13175955414772034
v 2.0027589797973633 -0.14134305715560913 -0.1414727121591568
v 1.9260621070861816 -0.13313376903533936 -0.12964791059494019
v 1.8606215715408325 -0.10465612262487411 -0.09808535873889923
v 1.8164000511169434 -0.06024554371833801 -0.05159016326069832
v 1.800130009651184 -0.0066631631925702095 0.002759190509095788
v 1.8142884969711304 0.04793359339237213 0.05668851360678673
v 1.856719732284546 0.09523286670446396 0.1019875630736351
v 1.9209641218185425 0.12803375720977783 0.13175994157791138
v 1.9972410202026367 0.1413426548242569 0.14147311449050903
v 1 21.21320343017578 -21.21320343017578
v 1 21.21320343017578 -21.21320343017578
v 1 21.21320343017578 -21.21320343017578
v 1 21.21320343017578 -21.21320343017578
v 1 21.21320343017578 -21.21320343017578
v 1 21.21320343017578 -21.21320343017578
v 1 21.21320343017578 -21.21320343017578
v 1 21.21320343017578 -21.21320343017578
v 1 21.21320343017578 -21.21320343017578
v 1 21.21320343017578 -21.21320343017578
v 1 21.21320343017578 -21.21320343017578
v 1 21.21320343017578 -21.21320343017578
v 1 21.21320343017578 -21.21320343017578
v 1 21.21320343017578 -21.21320343017578
v 1 21.21320343017578 -21.21320343017578
v 1 21.21320343017578 -21.21320343017578
v 0.9972410202026367 21.35454559326172 -21.071731567382812
v 1.0739378929138184 21.346336364746094 -21.083555221557617
v 1.1393784284591675 21.317859649658203 -21.1151180267334
v 1.1835999488830566 21.273448944091797 -21.16161346435547
v 1.199869990348816 21.219865798950195 -21.21596336364746
v 1.1857115030288696 21.16526985168457 -21.2698917388916
v 1.143280267715454 21.117971420288086 -21.3151912689209
v 1.0790358781814575 21.085168838500977 -21.34496307373047
v 1.0027589797973633 21.071861267089844 -21.354677200317383
v 0.9260620474815369 21.08007049560547 -21.342851638793945
v 0.8606215119361877 21.10854721069336 -21.311288833618164
v 0.8164000511169434 21.152957916259766 -21.264793395996094
v 0.8001300692558289 21.206541061401367 -21.210445404052734
v 0.8142884373664856 21.261137008666992 -21.15651512145996
v 0.8567196726799011 21.30843734741211 -21.111215591430664
v 0.9209641218185425 21.341238021850586 -21.081443786621094
v 0.9972410202026367 21.35454559326172 -21.071731567382812
v 2 -1.9719058741429762e-7 1.9719058741429762e-7
v 2 -1.9719058741429762e-7 1.9719058741429762e-7
v 2 -1.9719058741429762e-7 1.9719058741429762e-7
v 2 -1.9719058741429762e-7 1.9719058741429762e-7
v 2 -1.9719058741429762e-7 1.9719058741429762e-7
v 2 -1.9719058741429762e-7 1.9719058741429762e-7
v 2 -1.9719058741429762e-7 1.9719058741429762e-7
v 2 -1.9719058741429762e-7 1.9719058741429762e-7
v 2 -1.9719058741429762e-7 1.9719058741429762e-7
v 2 -1.9719058741429762e-7 1.9719058741429762e-7
v 2 -1.9719058741429762e-7 1.9719058741429762e-7
v 2 -1.9719058741429762e-7 1.9719058741429762e-7
v 2 -1.9719058741429762e-7 1.9719058741429762e-7
v 2 -1.9719058741429762e-7 1.9719058741429762e-7
v 2 -1.9719058741429762e-7 1.9719058741429762e-7
v 2 -1.9719058741429762e-7 1.9719058741429762e-7
v 1.9972410202026367 0.1413426548242569 0.14147311449050903
v 2.0739378929138184 0.13313338160514832 0.12964829802513123
v 2.139378547668457 0.10465572774410248 0.09808575361967087
v 2.1835999488830566 0.060245148837566376 0.051590558141469955
v 2.1998698711395264 0.00666276877745986 -0.0027587960939854383
v 2.185711622238159 -0.04793398827314377 -0.05668811872601509
v 2.143280267715454 -0.0952332615852356 -0.10198716819286346
v 2.079035997390747 -0.12803415954113007 -0.13175955414772034
v 2.0027589797973633 -0.14134305715560913 -0.1414727121591568
v 1.9260621070861816 -0.13313376903533936 -0.12964791059494019
v 1.8606215715408325 -0.10465612262487411 -0.09808535873889923
v 1.8164000511169434 -0.06024554371833801 -0.05159016326069832
v 1.800130009651184 -0.0066631631925702095 0.002759190509095788
v 1.8142884969711304 0.04793359339237213 0.05668851360678673
v 1.856719732284546 0.09523286670446396 0.1019875630736351
v 1.9209641218185425 0.12803375720977783 0.13175994157791138
v 1.9972410202026367 0.1413426548242569 0.14147311449050903
f 1 18 2
f 18 19 2
f 2 19 3
f 19 20 3
f 3 20 4
f 20 21 4
f 4 21 5
f 21 22 5
f 5 22 6
f 22 23 6
f 6 23 7
f 23 24 7
f 7 24 8
f 24 25 8
f 8 25 9
f 25 26 9
f 9 26 10
f 26 27 10
f 10 27 11
f 27 28 11
f 11 28 12
f 28 29 12
f 12 29 13
f 29 30 13
f 13 30 14
f 30 31 14
f 14 31 15
f 31 32 15
f 15 32 16
f 32 33 16
f 16 33 17
f 33 34 17
f 51 52 35
f 52 53 36
f 53 54 37
f 54 55 38
f 55 56 39
f 56 57 40
f 57 58 41
f 58 59 42
f 59 60 43
f 60 61 44
f 61 62 45
f 62 63 46
f 63 64 47
f 64 65 48
f 65 66 49
f 66 67 50
f 85 84 68
f 86 85 69
f 87 86 70
f 88 87 71
f 89 88 72
f 90 89 73
f 91 90 74
f 92 91 75
f 93 92 76
f 94 93 77
f 95 94 78
f 96 95 79
f 97 96 80
f 98 97 81
f 99 98 82
f 100 99 83
