o spoke_back_21
v -0.9781072735786438 -24.833036422729492 -16.831995010375977
v -0.9037397503852844 -24.844039916992188 -16.811065673828125
v -0.8440269231796265 -24.87027359008789 -16.768220901489258
v -0.8080596327781677 -24.907747268676758 -16.709980010986328
v -0.8013135194778442 -24.95075225830078 -16.645214080810547
v -0.8248156309127808 -24.99274253845215 -16.58378028869629
v -0.8749879002571106 -25.027326583862305 -16.535032272338867
v -0.9441921710968018 -25.049238204956055 -16.506391525268555
v -1.0218926668167114 -25.05514144897461 -16.50221824645996
v -1.0962601900100708 -25.044137954711914 -16.523147583007812
v -1.1559730768203735 -25.017902374267578 -16.565994262695312
v -1.1919403076171875 -24.980430603027344 -16.62423324584961
v -1.1986864805221558 -24.93742561340332 -16.68899917602539
v -1.1751843690872192 -24.895435333251953 -16.75043296813965
v -1.1250120401382446 -24.860851287841797 -16.79918098449707
v -1.0558078289031982 -24.838939666748047 -16.827821731567383
v -0.9781072735786438 -24.833036422729492 -16.831995010375977
v -1.9781073331832886 0.11105260252952576 -0.164887934923172
v -1.9037398099899292 0.10004943609237671 -0.14395859837532043
v -1.8440269231796265 0.07381469011306763 -0.10111285001039505
v -1.8080596923828125 0.036342356353998184 -0.0428735576570034
v -1.8013135194778442 -0.006662734318524599 0.021892862394452095
v -1.8248156309127808 -0.04865344613790512 0.0833263173699379
v -1.8749879598617554 -0.08323708176612854 0.13207413256168365
v -1.9441921710968018 -0.10514858365058899 0.16071484982967377
v -2.021892786026001 -0.11105214059352875 0.16488824784755707
v -2.0962603092193604 -0.1000489667057991 0.1439589112997055
v -2.155972957611084 -0.07381422817707062 0.10111316293478012
v -2.1919403076171875 -0.036341890692710876 0.042873870581388474
v -2.1986865997314453 0.006663198117166758 -0.021892551332712173
v -2.175184488296509 0.04865391179919243 -0.08332600444555283
v -2.125012159347534 0.08323754370212555 -0.13207381963729858
v -2.0558078289031982 0.105149045586586 -0.1607145518064499
v -1.9781073331832886 0.11105260252952576 -0.164887934923172
v -1 -24.944087982177734 -16.66710662841797
v -1 -24.944087982177734 -16.66710662841797
v -1 -24.944087982177734 -16.66710662841797
v -1 -24.944087982177734 -16.66710662841797
v -1 -24.944087982177734 -16.66710662841797
v -1 -24.944087982177734 -16.66710662841797
v -1 -24.944087982177734 -16.66710662841797
v -1 -24.944087982177734 -16.66710662841797
v -1 -24.944087982177734 -16.66710662841797
v -1 -24.944087982177734 -16.66710662841797
v -1 -24.944087982177734 -16.66710662841797
v -1 -24.944087982177734 -16.66710662841797
v -1 -24.944087982177734 -16.66710662841797
v -1 -24.944087982177734 -16.66710662841797
v -1 -24.944087982177734 -16.66710662841797
v -1 -24.944087982177734 -16.66710662841797
v -0.9781072735786438 -24.833036422729492 -16.831995010375977
v -0.9037397503852844 -24.844039916992188 -16.811065673828125
v -0.8440269231796265 -24.87027359008789 -16.768220901489258
v -0.8080596327781677 -24.907747268676758 -16.709980010986328
v -0.8013135194778442 -24.95075225830078 -16.645214080810547
v -0.8248156309127808 -24.99274253845215 -16.58378028869629
v -0.8749879002571106 -25.027326583862305 -16.535032272338867
v -0.9441921710968018 -25.049238204956055 -16.506391525268555
v -1.0218926668167114 -25.05514144897461 -16.50221824645996
v -1.0962601900100708 -25.044137954711914 -16.523147583007812
v -1.1559730768203735 -25.017902374267578 -16.565994262695312
v -1.1919403076171875 -24.980430603027344 -16.62423324584961
v -1.1986864805221558 -24.93742561340332 -16.68899917602539
v -1.1751843690872192 -24.895435333251953 -16.75043296813965
v -1.1250120401382446 -24.860851287841797 -16.79918098449707
v -1.0558078289031982 -24.838939666748047 -16.827821731567383
v -0.9781072735786438 -24.833036422729492 -16.831995010375977
v -2 2.318716099125595e-7 1.549316550608637e-7
v -2 2.318716099125595e-7 1.549316550608637e-7
v -2 2.318716099125595e-7 1.549316550608637e-7
v -2 2.318716099125595e-7 1.549316550608637e-7
v -2 2.318716099125595e-7 1.549316550608637e-7
v -2 2.318716099125595e-7 1.549316550608637e-7
v -2 2.318716099125595e-7 1.549316550608637e-7
v -2 2.318716099125595e-7 1.549316550608637e-7
v -2 2.318716099125595e-7 1.549316550608637e-7
v -2 2.318716099125595e-7 1.549316550608637e-7
v -2 2.318716099125595e-7 1.549316550608637e-7
v -2 2.318716099125595e-7 1.549316550608637e-7
v -2 2.318716099125595e-7 1.549316550608637e-7
v -2 2.318716099125595e-7 1.549316550608637e-7
v -2 2.318716099125595e-7 1.549316550608637e-7
v -2 2.318716099125595e-7 1.549316550608637e-7
v -1.9781073331832886 0.11105260252952576 -0.164887934923172
v -1.9037398099899292 0.10004943609237671 -0.14395859837532043
v -1.8440269231796265 0.07381469011306763 -0.10111285001039505
v -1.8080596923828125 0.036342356353998184 -0.0428735576570034
v -1.8013135194778442 -0.006662734318524599 0.021892862394452095
v -1.8248156309127808 -0.04865344613790512 0.0833263173699379
v -1.8749879598617554 -0.08323708176612854 0.13207413256168365
v -1.9441921710968018 -0.10514858365058899 0.16071484982967377
v -2.021892786026001 -0.11105214059352875 0.16488824784755707
v -2.0962603092193604 -0.1000489667057991 0.1439589112997055
v -2.155972957611084 -0.07381422817707062 0.10111316293478012
v -2.1919403076171875 -0.036341890692710876 0.042873870581388474
v -2.1986865997314453 0.006663198117166758 -0.021892551332712173
v -2.175184488296509 0.04865391179919243 -0.08332600444555283
v -2.125012159347534 0.08323754370212555 -0.13207381963729858
v -2.0558078289031982 0.105149045586586 -0.1607145518064499
v -1.9781073331832886 0.11105260252952576 -0.164887934923172
f 1 18 2
f 18 19 2
f 2 19 3
f 19 20 3
f 3 20 4
f 20 21 4
f 4 21 5
f 21 22 5
f 5 22 6
f 22 23 6
f 6 23 7
f 23 24 7
f 7 24 8
f 24 25 8
f 8 25 9
f 25 26 9
f 9 26 10
f 26 27 10
f 10 27 11
f 27 28 11
f 11 28 12
f 28 29 12
f 12 29 13
f 29 30 13
f 13 30 14
f 30 31 14
f 14 31 15
f 31 32 15
f 15 32 16
f 32 33 16
f 16 33 17
f 33 34 17
f 51 52 35
f 52 53 36
f 53 54 37
f 54 55 38
f 55 56 39
f 56 57 40
f 57 58 41
f 58 59 42
f 59 60 43
f 60 61 44
f 61 62 45
f 62 63 46
f 63 64 47
f 64 65 48
f 65 66 49
f 66 67 50
f 85 84 68
f 86 85 69
f 87 86 70
f 88 87 71
f 89 88 72
f 90 89 73
f 91 90 74
f 92 91 75
f 93 92 76
f 94 93 77
f 95 94 78
f 96 95 79
f 97 96 80
f 98 97 81
f 99 98 82
f 100 99 83
