o spoke_front_10
v 0.9986750483512878 27.79288101196289 -11.295714378356934
v 1.0752683877944946 27.789608001708984 -11.310287475585938
v 1.140402913093567 27.77518653869629 -11.350774765014648
v 1.1841622591018677 27.751815795898438 -11.411011695861816
v 1.1998845338821411 27.72304916381836 -11.481827735900879
v 1.1851762533187866 27.693269729614258 -11.55244255065918
v 1.142276644706726 27.667007446289062 -11.612105369567871
v 1.077716588973999 27.648263931274414 -11.651732444763184
v 1.001325011253357 27.639892578125 -11.665291786193848
v 0.9247315526008606 27.643165588378906 -11.650718688964844
v 0.8595971465110779 27.65758514404297 -11.610231399536133
v 0.8158377408981323 27.680957794189453 -11.549994468688965
v 0.8001154065132141 27.7097225189209 -11.479178428649902
v 0.8148236870765686 27.739503860473633 -11.408563613891602
v 0.8577233552932739 27.765764236450195 -11.34890079498291
v 0.9222833514213562 27.784507751464844 -11.309273719787598
v 0.9986750483512878 27.79288101196289 -11.295714378356934
v 1.998674988746643 0.07649394869804382 0.18478885293006897
v 2.075268507003784 0.07322097569704056 0.17021560668945312
v 2.1404027938842773 0.05880074203014374 0.12972860038280487
v 2.184162139892578 0.03542858362197876 0.06949158757925034
v 2.1998846530914307 0.006662708707153797 -0.0013248571194708347
v 2.185176372528076 -0.023117542266845703 -0.07193959504365921
v 2.1422767639160156 -0.049378398805856705 -0.13160216808319092
v 2.077716588973999 -0.06812188029289246 -0.17122948169708252
v 2.0013248920440674 -0.07649446278810501 -0.18478864431381226
v 1.9247316122055054 -0.07322148978710175 -0.1702153980731964
v 1.859597086906433 -0.058801256120204926 -0.12972839176654816
v 1.8158377408981323 -0.03542909771203995 -0.06949137896299362
v 1.8001154661178589 -0.0066632237285375595 0.0013250706251710653
v 1.8148237466812134 0.023117028176784515 0.07193980365991592
v 1.857723355293274 0.04937788471579552 0.13160237669944763
v 1.922283411026001 0.06812135875225067 0.17122969031333923
v 1.998674988746643 0.07649394869804382 0.18478885293006897
v 1 27.716386795043945 -11.48050308227539
v 1 27.716386795043945 -11.48050308227539
v 1 27.716386795043945 -11.48050308227539
v 1 27.716386795043945 -11.48050308227539
v 1 27.716386795043945 -11.48050308227539
v 1 27.716386795043945 -11.48050308227539
v 1 27.716386795043945 -11.48050308227539
v 1 27.716386795043945 -11.48050308227539
v 1 27.716386795043945 -11.48050308227539
v 1 27.716386795043945 -11.48050308227539
v 1 27.716386795043945 -11.48050308227539
v 1 27.716386795043945 -11.48050308227539
v 1 27.716386795043945 -11.48050308227539
v 1 27.716386795043945 -11.48050308227539
v 1 27.716386795043945 -11.48050308227539
v 1 27.716386795043945 -11.48050308227539
v 0.9986750483512878 27.79288101196289 -11.295714378356934
v 1.0752683877944946 27.789608001708984 -11.310287475585938
v 1.140402913093567 27.77518653869629 -11.350774765014648
v 1.1841622591018677 27.751815795898438 -11.411011695861816
v 1.1998845338821411 27.72304916381836 -11.481827735900879
v 1.1851762533187866 27.693269729614258 -11.55244255065918
v 1.142276644706726 27.667007446289062 -11.612105369567871
v 1.077716588973999 27.648263931274414 -11.651732444763184
v 1.001325011253357 27.639892578125 -11.665291786193848
v 0.9247315526008606 27.643165588378906 -11.650718688964844
v 0.8595971465110779 27.65758514404297 -11.610231399536133
v 0.8158377408981323 27.680957794189453 -11.549994468688965
v 0.8001154065132141 27.7097225189209 -11.479178428649902
v 0.8148236870765686 27.739503860473633 -11.408563613891602
v 0.8577233552932739 27.765764236450195 -11.34890079498291
v 0.9222833514213562 27.784507751464844 -11.309273719787598
v 0.9986750483512878 27.79288101196289 -11.295714378356934
v 2 -2.5764191491362e-7 1.0671877959111953e-7
v 2 -2.5764191491362e-7 1.0671877959111953e-7
v 2 -2.5764191491362e-7 1.0671877959111953e-7
v 2 -2.5764191491362e-7 1.0671877959111953e-7
v 2 -2.5764191491362e-7 1.0671877959111953e-7
v 2 -2.5764191491362e-7 1.0671877959111953e-7
v 2 -2.5764191491362e-7 1.0671877959111953e-7
v 2 -2.5764191491362e-7 1.0671877959111953e-7
v 2 -2.5764191491362e-7 1.0671877959111953e-7
v 2 -2.5764191491362e-7 1.0671877959111953e-7
v 2 -2.5764191491362e-7 1.0671877959111953e-7
v 2 -2.5764191491362e-7 1.0671877959111953e-7
v 2 -2.5764191491362e-7 1.0671877959111953e-7
v 2 -2.5764191491362e-7 1.0671877959111953e-7
v 2 -2.5764191491362e-7 1.0671877959111953e-7
v 2 -2.5764191491362e-7 1.0671877959111953e-7
v 1.998674988746643 0.07649394869804382 0.18478885293006897
v 2.075268507003784 0.07322097569704056 0.17021560668945312
v 2.1404027938842773 0.05880074203014374 0.12972860038280487
v 2.184162139892578 0.03542858362197876 0.06949158757925034
v 2.1998846530914307 0.006662708707153797 -0.0013248571194708347
v 2.185176372528076 -0.023117542266845703 -0.07193959504365921
v 2.1422767639160156 -0.049378398805856705 -0.13160216808319092
v 2.077716588973999 -0.06812188029289246 -0.17122948169708252
v 2.0013248920440674 -0.07649446278810501 -0.18478864431381226
v 1.9247316122055054 -0.07322148978710175 -0.1702153980731964
v 1.859597086906433 -0.058801256120204926 -0.12972839176654816
v 1.8158377408981323 -0.03542909771203995 -0.06949137896299362
v 1.8001154661178589 -0.0066632237285375595 0.0013250706251710653
v 1.8148237466812134 0.023117028176784515 0.07193980365991592
v 1.857723355293274 0.04937788471579552 0.13160237669944763
v 1.922283411026001 0.06812135875225067 0.17122969031333923
v 1.998674988746643 0.07649394869804382 0.18478885293006897
f 1 18 2
f 18 19 2
f 2 19 3
f 19 20 3
f 3 20 4
f 20 21 4
f 4 21 5
f 21 22 5
f 5 22 6
f 22 23 6
f 6 23 7
f 23 24 7
f 7 24 8
f 24 25 8
f 8 25 9
f 25 26 9
f 9 26 10
f 26 27 10
f 10 27 11
f 27 28 11
f 11 28 12
f 28 29 12
f 12 29 13
f 29 30 13
f 13 30 14
f 30 31 14
f 14 31 15
f 31 32 15
f 15 32 16
f 32 33 16
f 16 33 17
f 33 34 17
f 51 52 35
f 52 53 36
f 53 54 37
f 54 55 38
f 55 56 39
f 56 57 40
f 57 58 41
f 58 59 42
f 59 60 43
f 60 61 44
f 61 62 45
f 62 63 46
f 63 64 47
f 64 65 48
f 65 66 49
f 66 67 50
f 85 84 68
f 86 85 69
f 87 86 70
f 88 87 71
f 89 88 72
f 90 89 73
f 91 90 74
f 92 91 75
f 93 92 76
f 94 93 77
f 95 94 78
f 96 95 79
f 97 96 80
f 98 97 81
f 99 98 82
f 100 99 83
