o spoke_back_30
v -1.0099629163742065 -11.665176391601562 27.64025115966797
v -0.9328053593635559 -11.653668403625488 27.642234802246094
v -0.865877628326416 -11.615797996520996 27.655506134033203
v -0.8193687796592712 -11.557330131530762 27.67804718017578
v -0.8003594279289246 -11.487166404724121 27.706422805786133
v -0.8117435574531555 -11.415987014770508 27.736316680908203
v -0.8517879843711853 -11.354630470275879 27.76317596435547
v -0.914396345615387 -11.312437057495117 27.782913208007812
v -0.9900371432304382 -11.295829772949219 27.79252052307129
v -1.0671945810317993 -11.307337760925293 27.790538787841797
v -1.134122371673584 -11.345208168029785 27.777265548706055
v -1.180631160736084 -11.40367603302002 27.75472640991211
v -1.1996405124664307 -11.47383975982666 27.726348876953125
v -1.1882563829421997 -11.545019149780273 27.696455001831055
v -1.14821195602417 -11.606375694274902 27.66959571838379
v -1.0856035947799683 -11.648569107055664 27.649860382080078
v -1.0099629163742065 -11.665176391601562 27.64025115966797
v -2.009962797164917 -0.1846732348203659 -0.07613500207662582
v -1.9328054189682007 -0.17316561937332153 -0.07415221631526947
v -1.865877628326416 -0.1352950930595398 -0.06088046729564667
v -1.819368839263916 -0.07682709395885468 -0.0383402518928051
v -1.8003594875335693 -0.006662859581410885 -0.00996312778443098
v -1.8117436170578003 0.06451575458049774 0.019930755719542503
v -1.85178804397583 0.1258724480867386 0.04679032415151596
v -1.9143964052200317 0.16806621849536896 0.06652645021677017
v -1.9900370836257935 0.18467344343662262 0.07613448798656464
v -2.067194700241089 0.17316582798957825 0.07415169477462769
v -2.134122371673584 0.1352953165769577 0.06087995320558548
v -2.180631160736084 0.07682731002569199 0.03833973780274391
v -2.1996405124664307 0.006663072854280472 0.009962611831724644
v -2.1882565021514893 -0.06451553851366043 -0.01993127167224884
v -2.14821195602417 -0.12587223947048187 -0.04679084196686745
v -2.085603713989258 -0.16806599497795105 -0.06652696430683136
v -2.009962797164917 -0.1846732348203659 -0.07613500207662582
v -1 -11.48050308227539 27.716386795043945
v -1 -11.48050308227539 27.716386795043945
v -1 -11.48050308227539 27.716386795043945
v -1 -11.48050308227539 27.716386795043945
v -1 -11.48050308227539 27.716386795043945
v -1 -11.48050308227539 27.716386795043945
v -1 -11.48050308227539 27.716386795043945
v -1 -11.48050308227539 27.716386795043945
v -1 -11.48050308227539 27.716386795043945
v -1 -11.48050308227539 27.716386795043945
v -1 -11.48050308227539 27.716386795043945
v -1 -11.48050308227539 27.716386795043945
v -1 -11.48050308227539 27.716386795043945
v -1 -11.48050308227539 27.716386795043945
v -1 -11.48050308227539 27.716386795043945
v -1 -11.48050308227539 27.716386795043945
v -1.0099629163742065 -11.665176391601562 27.64025115966797
v -0.9328053593635559 -11.653668403625488 27.642234802246094
v -0.865877628326416 -11.615797996520996 27.655506134033203
v -0.8193687796592712 -11.557330131530762 27.67804718017578
v -0.8003594279289246 -11.487166404724121 27.706422805786133
v -0.8117435574531555 -11.415987014770508 27.736316680908203
v -0.8517879843711853 -11.354630470275879 27.76317596435547
v -0.914396345615387 -11.312437057495117 27.782913208007812
v -0.9900371432304382 -11.295829772949219 27.79252052307129
v -1.0671945810317993 -11.307337760925293 27.790538787841797
v -1.134122371673584 -11.345208168029785 27.777265548706055
v -1.180631160736084 -11.40367603302002 27.75472640991211
v -1.1996405124664307 -11.47383975982666 27.726348876953125
v -1.1882563829421997 -11.545019149780273 27.696455001831055
v -1.14821195602417 -11.606375694274902 27.66959571838379
v -1.0856035947799683 -11.648569107055664 27.649860382080078
v -1.0099629163742065 -11.665176391601562 27.64025115966797
v -2 1.0671878669654689e-7 -2.5764191491362e-7
v -2 1.0671878669654689e-7 -2.5764191491362e-7
v -2 1.0671878669654689e-7 -2.5764191491362e-7
v -2 1.0671878669654689e-7 -2.5764191491362e-7
v -2 1.0671878669654689e-7 -2.5764191491362e-7
v -2 1.0671878669654689e-7 -2.5764191491362e-7
v -2 1.0671878669654689e-7 -2.5764191491362e-7
v -2 1.0671878669654689e-7 -2.5764191491362e-7
v -2 1.0671878669654689e-7 -2.5764191491362e-7
v -2 1.0671878669654689e-7 -2.5764191491362e-7
v -2 1.0671878669654689e-7 -2.5764191491362e-7
v -2 1.0671878669654689e-7 -2.5764191491362e-7
v -2 1.0671878669654689e-7 -2.5764191491362e-7
v -2 1.0671878669654689e-7 -2.5764191491362e-7
v -2 1.0671878669654689e-7 -2.5764191491362e-7
v -2 1.0671878669654689e-7 -2.5764191491362e-7
v -2.009962797164917 -0.1846732348203659 -0.07613500207662582
v -1.9328054189682007 -0.17316561937332153 -0.07415221631526947
v -1.865877628326416 -0.1352950930595398 -0.06088046729564667
v -1.819368839263916 -0.07682709395885468 -0.0383402518928051
v -1.8003594875335693 -0.006662859581410885 -0.00996312778443098
v -1.8117436170578003 0.06451575458049774 0.019930755719542503
v -1.85178804397583 0.1258724480867386 0.04679032415151596
v -1.9143964052200317 0.16806621849536896 0.06652645021677017
v -1.9900370836257935 0.18467344343662262 0.07613448798656464
v -2.067194700241089 0.17316582798957825 0.07415169477462769
v -2.134122371673584 0.1352953165769577 0.06087995320558548
v -2.180631160736084 0.07682731002569199 0.03833973780274391
v -2.1996405124664307 0.006663072854280472 0.009962611831724644
v -2.1882565021514893 -0.06451553851366043 -0.01993127167224884
v -2.14821195602417 -0.12587223947048187 -0.04679084196686745
v -2.085603713989258 -0.16806599497795105 -0.06652696430683136
v -2.009962797164917 -0.1846732348203659 -0.07613500207662582
f 1 18 2
f 18 19 2
f 2 19 3
f 19 20 3
f 3 20 4
f 20 21 4
f 4 21 5
f 21 22 5
f 5 22 6
f 22 23 6
f 6 23 7
f 23 24 7
f 7 24 8
f 24 25 8
f 8 25 9
f 25 26 9
f 9 26 10
f 26 27 10
f 10 27 11
f 27 28 11
f 11 28 12
f 28 29 12
f 12 29 13
f 29 30 13
f 13 30 14
f 30 31 14
f 14 31 15
f 31 32 15
f 15 32 16
f 32 33 16
f 16 33 17
f 33 34 17
f 51 52 35
f 52 53 36
f 53 54 37
f 54 55 38
f 55 56 39
f 56 57 40
f 57 58 41
f 58 59 42
f 59 60 43
f 60 61 44
f 61 62 45
f 62 63 46
f 63 64 47
f 64 65 48
f 65 66 49
f 66 67 50
f 85 84 68
f 86 85 69
f 87 86 70
f 88 87 71
f 89 88 72
f 90 89 73
f 91 90 74
f 92 91 75
f 93 92 76
f 94 93 77
f 95 94 78
f 96 95 79
f 97 96 80
f 98 97 81
f 99 98 82
f 100 99 83
