o spoke_front_5
v 1.0020205974578857 24.833036422729492 16.83342933654785
v 1.0783571004867554 24.844039916992188 16.821542739868164
v 1.1427644491195679 24.87027359008789 16.786144256591797
v 1.1854370832443237 24.907747268676758 16.732622146606445
v 1.1998788118362427 24.95075225830078 16.66912841796875
v 1.183890700340271 24.99274253845215 16.60532569885254
v 1.139906883239746 25.027326583862305 16.550928115844727
v 1.074623465538025 25.049238204956055 16.514217376708984
v 0.9979794025421143 25.05514144897461 16.500783920288086
v 0.9216429591178894 25.044137954711914 16.512672424316406
v 0.8572356104850769 25.017902374267578 16.548070907592773
v 0.8145628571510315 24.980430603027344 16.601591110229492
v 0.8001212477684021 24.93742561340332 16.66508674621582
v 0.8161093592643738 24.895435333251953 16.72888946533203
v 0.8600931167602539 24.860851287841797 16.783287048339844
v 0.9253764748573303 24.838939666748047 16.819995880126953
v 1.0020205974578857 24.833036422729492 16.83342933654785
v 2.0020205974578857 -0.11105260252952576 0.16632269322872162
v 2.078356981277466 -0.10004943609237671 0.15443535149097443
v 2.1427643299102783 -0.07381469011306763 0.11903662234544754
v 2.1854372024536133 -0.036342356353998184 0.06551560759544373
v 2.199878692626953 0.006662734318524599 0.0020204209722578526
v 2.1838905811309814 0.04865344613790512 -0.06178238242864609
v 2.139906883239746 0.08323708176612854 -0.11617940664291382
v 2.0746235847473145 0.10514858365058899 -0.1528891772031784
v 1.9979794025421143 0.11105214059352875 -0.1663230061531067
v 1.9216428995132446 0.1000489667057991 -0.1544356644153595
v 1.8572355508804321 0.07381422817707062 -0.11903693526983261
v 1.8145629167556763 0.036341890692710876 -0.0655159205198288
v 1.8001211881637573 -0.006663198117166758 -0.002020730869844556
v 1.816109299659729 -0.04865391179919243 0.061782073229551315
v 1.860093116760254 -0.08323754370212555 0.11617910116910934
v 1.925376534461975 -0.105149045586586 0.15288887917995453
v 2.0020205974578857 -0.11105260252952576 0.16632269322872162
v 1 24.944087982177734 16.66710662841797
v 1 24.944087982177734 16.66710662841797
v 1 24.944087982177734 16.66710662841797
v 1 24.944087982177734 16.66710662841797
v 1 24.944087982177734 16.66710662841797
v 1 24.944087982177734 16.66710662841797
v 1 24.944087982177734 16.66710662841797
v 1 24.944087982177734 16.66710662841797
v 1 24.944087982177734 16.66710662841797
v 1 24.944087982177734 16.66710662841797
v 1 24.944087982177734 16.66710662841797
v 1 24.944087982177734 16.66710662841797
v 1 24.944087982177734 16.66710662841797
v 1 24.944087982177734 16.66710662841797
v 1 24.944087982177734 16.66710662841797
v 1 24.944087982177734 16.66710662841797
v 1.0020205974578857 24.833036422729492 16.83342933654785
v 1.0783571004867554 24.844039916992188 16.821542739868164
v 1.1427644491195679 24.87027359008789 16.786144256591797
v 1.1854370832443237 24.907747268676758 16.732622146606445
v 1.1998788118362427 24.95075225830078 16.66912841796875
v 1.183890700340271 24.99274253845215 16.60532569885254
v 1.139906883239746 25.027326583862305 16.550928115844727
v 1.074623465538025 25.049238204956055 16.514217376708984
v 0.9979794025421143 25.05514144897461 16.500783920288086
v 0.9216429591178894 25.044137954711914 16.512672424316406
v 0.8572356104850769 25.017902374267578 16.548070907592773
v 0.8145628571510315 24.980430603027344 16.601591110229492
v 0.8001212477684021 24.93742561340332 16.66508674621582
v 0.8161093592643738 24.895435333251953 16.72888946533203
v 0.8600931167602539 24.860851287841797 16.783287048339844
v 0.9253764748573303 24.838939666748047 16.819995880126953
v 1.0020205974578857 24.833036422729492 16.83342933654785
v 2 -2.318716099125595e-7 -1.549316550608637e-7
v 2 -2.318716099125595e-7 -1.549316550608637e-7
v 2 -2.318716099125595e-7 -1.549316550608637e-7
v 2 -2.318716099125595e-7 -1.549316550608637e-7
v 2 -2.318716099125595e-7 -1.549316550608637e-7
v 2 -2.318716099125595e-7 -1.549316550608637e-7
v 2 -2.318716099125595e-7 -1.549316550608637e-7
v 2 -2.318716099125595e-7 -1.549316550608637e-7
v 2 -2.318716099125595e-7 -1.549316550608637e-7
v 2 -2.318716099125595e-7 -1.549316550608637e-7
v 2 -2.318716099125595e-7 -1.549316550608637e-7
v 2 -2.318716099125595e-7 -1.549316550608637e-7
v 2 -2.318716099125595e-7 -1.549316550608637e-7
v 2 -2.318716099125595e-7 -1.549316550608637e-7
v 2 -2.318716099125595e-7 -1.549316550608637e-7
v 2 -2.318716099125595e-7 -1.549316550608637e-7
v 2.0020205974578857 -0.11105260252952576 0.16632269322872162
v 2.078356981277466 -0.10004943609237671 0.15443535149097443
v 2.1427643299102783 -0.07381469011306763 0.11903662234544754
v 2.1854372024536133 -0.036342356353998184 0.06551560759544373
v 2.199878692626953 0.006662734318524599 0.0020204209722578526
v 2.1838905811309814 0.04865344613790512 -0.06178238242864609
v 2.139906883239746 0.08323708176612854 -0.11617940664291382
v 2.0746235847473145 0.10514858365058899 -0.1528891772031784
v 1.9979794025421143 0.11105214059352875 -0.1663230061531067
v 1.9216428995132446 0.1000489667057991 -0.1544356644153595
v 1.8572355508804321 0.07381422817707062 -0.11903693526983261
v 1.8145629167556763 0.036341890692710876 -0.0655159205198288
v 1.8001211881637573 -0.006663198117166758 -0.002020730869844556
v 1.816109299659729 -0.04865391179919243 0.061782073229551315
v 1.860093116760254 -0.08323754370212555 0.11617910116910934
v 1.925376534461975 -0.105149045586586 0.15288887917995453
v 2.0020205974578857 -0.11105260252952576 0.16632269322872162
f 1 18 2
f 18 19 2
f 2 19 3
f 19 20 3
f 3 20 4
f 20 21 4
f 4 21 5
f 21 22 5
f 5 22 6
f 22 23 6
f 6 23 7
f 23 24 7
f 7 24 8
f 24 25 8
f 8 25 9
f 25 26 9
f 9 26 10
f 26 27 10
f 10 27 11
f 27 28 11
f 11 28 12
f 28 29 12
f 12 29 13
f 29 30 13
f 13 30 14
f 30 31 14
f 14 31 15
f 31 32 15
f 15 32 16
f 32 33 16
f 16 33 17
f 33 34 17
f 51 52 35
f 52 53 36
f 53 54 37
f 54 55 38
f 55 56 39
f 56 57 40
f 57 58 41
f 58 59 42
f 59 60 43
f 60 61 44
f 61 62 45
f 62 63 46
f 63 64 47
f 64 65 48
f 65 66 49
f 66 67 50
f 85 84 68
f 86 85 69
f 87 86 70
f 88 87 71
f 89 88 72
f 90 89 73
f 91 90 74
f 92 91 75
f 93 92 76
f 94 93 77
f 95 94 78
f 96 95 79
f 97 96 80
f 98 97 81
f 99 98 82
f 100 99 83
