o spoke_front_26
v 1.0332543849945068 -27.79288101196289 11.298726081848145
v 1.1061512231826782 -27.784507751464844 11.325288772583008
v 1.1628875732421875 -27.765764236450195 11.375481605529785
v 1.1948256492614746 -27.739503860473633 11.441662788391113
v 1.1971033811569214 -27.7097225189209 11.513757705688477
v 1.169373869895935 -27.680957794189453 11.580788612365723
v 1.115858793258667 -27.65758514404297 11.632553100585938
v 1.0447051525115967 -27.643165588378906 11.661169052124023
v 0.9667456150054932 -27.639892578125 11.662280082702637
v 0.8938487768173218 -27.648263931274414 11.635717391967773
v 0.8371124267578125 -27.667007446289062 11.585524559020996
v 0.8051742911338806 -27.693269729614258 11.519343376159668
v 0.8028965592384338 -27.72304916381836 11.447248458862305
v 0.8306260704994202 -27.751815795898438 11.380217552185059
v 0.884141206741333 -27.77518653869629 11.328453063964844
v 0.9552947878837585 -27.789608001708984 11.299837112426758
v 1.0332543849945068 -27.79288101196289 11.298726081848145
v 2.033254384994507 -0.07649394869804382 -0.18177685141563416
v 2.1061513423919678 -0.06812135875225067 -0.15521402657032013
v 2.1628875732421875 -0.04937788471579552 -0.10502129793167114
v 2.1948256492614746 -0.023117028176784515 -0.03884003311395645
v 2.197103500366211 0.0066632237285375595 0.03325425088405609
v 2.1693739891052246 0.03542909771203995 0.1002858579158783
v 2.115858793258667 0.058801256120204926 0.15204985439777374
v 2.0447051525115967 0.07322148978710175 0.18066559731960297
v 1.9667456150054932 0.07649446278810501 0.18177664279937744
v 1.8938487768173218 0.06812188029289246 0.15521381795406342
v 1.8371124267578125 0.049378398805856705 0.10502108186483383
v 1.8051743507385254 0.023117542266845703 0.03883982077240944
v 1.8028966188430786 -0.006662708707153797 -0.033254463225603104
v 1.830626130104065 -0.03542858362197876 -0.1002860739827156
v 1.884141206741333 -0.05880074203014374 -0.15205006301403046
v 1.9552948474884033 -0.07322097569704056 -0.18066580593585968
v 2.033254384994507 -0.07649394869804382 -0.18177685141563416
v 1 -27.716386795043945 11.48050308227539
v 1 -27.716386795043945 11.48050308227539
v 1 -27.716386795043945 11.48050308227539
v 1 -27.716386795043945 11.48050308227539
v 1 -27.716386795043945 11.48050308227539
v 1 -27.716386795043945 11.48050308227539
v 1 -27.716386795043945 11.48050308227539
v 1 -27.716386795043945 11.48050308227539
v 1 -27.716386795043945 11.48050308227539
v 1 -27.716386795043945 11.48050308227539
v 1 -27.716386795043945 11.48050308227539
v 1 -27.716386795043945 11.48050308227539
v 1 -27.716386795043945 11.48050308227539
v 1 -27.716386795043945 11.48050308227539
v 1 -27.716386795043945 11.48050308227539
v 1 -27.716386795043945 11.48050308227539
v 1.0332543849945068 -27.79288101196289 11.298726081848145
v 1.1061512231826782 -27.784507751464844 11.325288772583008
v 1.1628875732421875 -27.765764236450195 11.375481605529785
v 1.1948256492614746 -27.739503860473633 11.441662788391113
v 1.1971033811569214 -27.7097225189209 11.513757705688477
v 1.169373869895935 -27.680957794189453 11.580788612365723
v 1.115858793258667 -27.65758514404297 11.632553100585938
v 1.0447051525115967 -27.643165588378906 11.661169052124023
v 0.9667456150054932 -27.639892578125 11.662280082702637
v 0.8938487768173218 -27.648263931274414 11.635717391967773
v 0.8371124267578125 -27.667007446289062 11.585524559020996
v 0.8051742911338806 -27.693269729614258 11.519343376159668
v 0.8028965592384338 -27.72304916381836 11.447248458862305
v 0.8306260704994202 -27.751815795898438 11.380217552185059
v 0.884141206741333 -27.77518653869629 11.328453063964844
v 0.9552947878837585 -27.789608001708984 11.299837112426758
v 1.0332543849945068 -27.79288101196289 11.298726081848145
v 2 2.5764191491362e-7 -1.0671877248569217e-7
v 2 2.5764191491362e-7 -1.0671877248569217e-7
v 2 2.5764191491362e-7 -1.0671877248569217e-7
v 2 2.5764191491362e-7 -1.0671877248569217e-7
v 2 2.5764191491362e-7 -1.0671877248569217e-7
v 2 2.5764191491362e-7 -1.0671877248569217e-7
v 2 2.5764191491362e-7 -1.0671877248569217e-7
v 2 2.5764191491362e-7 -1.0671877248569217e-7
v 2 2.5764191491362e-7 -1.0671877248569217e-7
v 2 2.5764191491362e-7 -1.0671877248569217e-7
v 2 2.5764191491362e-7 -1.0671877248569217e-7
v 2 2.5764191491362e-7 -1.0671877248569217e-7
v 2 2.5764191491362e-7 -1.0671877248569217e-7
v 2 2.5764191491362e-7 -1.0671877248569217e-7
v 2 2.5764191491362e-7 -1.0671877248569217e-7
v 2 2.5764191491362e-7 -1.0671877248569217e-7
v 2.033254384994507 -0.07649394869804382 -0.18177685141563416
v 2.1061513423919678 -0.06812135875225067 -0.15521402657032013
v 2.1628875732421875 -0.04937788471579552 -0.10502129793167114
v 2.1948256492614746 -0.023117028176784515 -0.03884003311395645
v 2.197103500366211 0.0066632237285375595 0.03325425088405609
v 2.1693739891052246 0.03542909771203995 0.1002858579158783
v 2.115858793258667 0.058801256120204926 0.15204985439777374
v 2.0447051525115967 0.07322148978710175 0.18066559731960297
v 1.9667456150054932 0.07649446278810501 0.18177664279937744
v 1.8938487768173218 0.06812188029289246 0.15521381795406342
v 1.8371124267578125 0.049378398805856705 0.10502108186483383
v 1.8051743507385254 0.023117542266845703 0.03883982077240944
v 1.8028966188430786 -0.006662708707153797 -0.033254463225603104
v 1.830626130104065 -0.03542858362197876 -0.1002860739827156
v 1.884141206741333 -0.05880074203014374 -0.15205006301403046
v 1.9552948474884033 -0.07322097569704056 -0.18066580593585968
v 2.033254384994507 -0.07649394869804382 -0.18177685141563416
f 1 18 2
f 18 19 2
f 2 19 3
f 19 20 3
f 3 20 4
f 20 21 4
f 4 21 5
f 21 22 5
f 5 22 6
f 22 23 6
f 6 23 7
f 23 24 7
f 7 24 8
f 24 25 8
f 8 25 9
f 25 26 9
f 9 26 10
f 26 27 10
f 10 27 11
f 27 28 11
f 11 28 12
f 28 29 12
f 12 29 13
f 29 30 13
f 13 30 14
f 30 31 14
f 14 31 15
f 31 32 15
f 15 32 16
f 32 33 16
f 16 33 17
f 33 34 17
f 51 52 35
f 52 53 36
f 53 54 37
f 54 55 38
f 55 56 39
f 56 57 40
f 57 58 41
f 58 59 42
f 59 60 43
f 60 61 44
f 61 62 45
f 62 63 46
f 63 64 47
f 64 65 48
f 65 66 49
f 66 67 50
f 85 84 68
f 86 85 69
f 87 86 70
f 88 87 71
f 89 88 72
f 90 89 73
f 91 90 74
f 92 91 75
f 93 92 76
f 94 93 77
f 95 94 78
f 96 95 79
f 97 96 80
f 98 97 81
f 99 98 82
f 100 99 83
