o spoke_back_29
v -1.0124499797821045 -16.833309173583984 24.83353614807129
v -0.9351565837860107 -16.82320785522461 24.837186813354492
v -0.8677350282669067 -16.78934097290039 24.857112884521484
v -0.8204495906829834 -16.736865997314453 24.89027976989746
v -0.8004990816116333 -16.673770904541016 24.931638717651367
v -0.8109208345413208 -16.609661102294922 24.97489356994629
v -0.8501281142234802 -16.554296493530273 25.013458251953125
v -0.9121520519256592 -16.5161075592041 25.041461944580078
v -0.9875500202178955 -16.500905990600586 25.054641723632812
v -1.0648434162139893 -16.51100730895996 25.05099105834961
v -1.1322649717330933 -16.54487419128418 25.031064987182617
v -1.1795504093170166 -16.597349166870117 24.99789810180664
v -1.1995009183883667 -16.660444259643555 24.956539154052734
v -1.1890791654586792 -16.72455406188965 24.913284301757812
v -1.1498719453811646 -16.779918670654297 24.874719619750977
v -1.0878479480743408 -16.81810760498047 24.846715927124023
v -1.0124499797821045 -16.833309173583984 24.83353614807129
v -2.0124499797821045 -0.16620145738124847 -0.11055348813533783
v -1.9351565837860107 -0.15609991550445557 -0.10690251737833023
v -1.8677350282669067 -0.1222335696220398 -0.08697665482759476
v -1.8204495906829834 -0.06975822895765305 -0.053809404373168945
v -1.8004990816116333 -0.006662811152637005 -0.012450206093490124
v -1.8109208345413208 0.057446978986263275 0.030804390087723732
v -1.8501280546188354 0.11281102150678635 0.06936926394701004
v -1.9121520519256592 0.15100061893463135 0.09737325459718704
v -1.9875500202178955 0.16620177030563354 0.11055302619934082
v -2.0648434162139893 0.15610022842884064 0.10690205544233322
v -2.132265090942383 0.12223387509584427 0.08697618544101715
v -2.1795504093170166 0.06975853443145752 0.053808942437171936
v -2.199500799179077 0.006663121283054352 0.012449742294847965
v -2.1890792846679688 -0.0574466697871685 -0.03080485388636589
v -2.149871826171875 -0.11281070858240128 -0.06936972588300705
v -2.087847948074341 -0.15100030601024628 -0.09737371653318405
v -2.0124499797821045 -0.16620145738124847 -0.11055348813533783
v -1 -16.66710662841797 24.944087982177734
v -1 -16.66710662841797 24.944087982177734
v -1 -16.66710662841797 24.944087982177734
v -1 -16.66710662841797 24.944087982177734
v -1 -16.66710662841797 24.944087982177734
v -1 -16.66710662841797 24.944087982177734
v -1 -16.66710662841797 24.944087982177734
v -1 -16.66710662841797 24.944087982177734
v -1 -16.66710662841797 24.944087982177734
v -1 -16.66710662841797 24.944087982177734
v -1 -16.66710662841797 24.944087982177734
v -1 -16.66710662841797 24.944087982177734
v -1 -16.66710662841797 24.944087982177734
v -1 -16.66710662841797 24.944087982177734
v -1 -16.66710662841797 24.944087982177734
v -1 -16.66710662841797 24.944087982177734
v -1.0124499797821045 -16.833309173583984 24.83353614807129
v -0.9351565837860107 -16.82320785522461 24.837186813354492
v -0.8677350282669067 -16.78934097290039 24.857112884521484
v -0.8204495906829834 -16.736865997314453 24.89027976989746
v -0.8004990816116333 -16.673770904541016 24.931638717651367
v -0.8109208345413208 -16.609661102294922 24.97489356994629
v -0.8501281142234802 -16.554296493530273 25.013458251953125
v -0.9121520519256592 -16.5161075592041 25.041461944580078
v -0.9875500202178955 -16.500905990600586 25.054641723632812
v -1.0648434162139893 -16.51100730895996 25.05099105834961
v -1.1322649717330933 -16.54487419128418 25.031064987182617
v -1.1795504093170166 -16.597349166870117 24.99789810180664
v -1.1995009183883667 -16.660444259643555 24.956539154052734
v -1.1890791654586792 -16.72455406188965 24.913284301757812
v -1.1498719453811646 -16.779918670654297 24.874719619750977
v -1.0878479480743408 -16.81810760498047 24.846715927124023
v -1.0124499797821045 -16.833309173583984 24.83353614807129
v -2 1.549316550608637e-7 -2.318716099125595e-7
v -2 1.549316550608637e-7 -2.318716099125595e-7
v -2 1.549316550608637e-7 -2.318716099125595e-7
v -2 1.549316550608637e-7 -2.318716099125595e-7
v -2 1.549316550608637e-7 -2.318716099125595e-7
v -2 1.549316550608637e-7 -2.318716099125595e-7
v -2 1.549316550608637e-7 -2.318716099125595e-7
v -2 1.549316550608637e-7 -2.318716099125595e-7
v -2 1.549316550608637e-7 -2.318716099125595e-7
v -2 1.549316550608637e-7 -2.318716099125595e-7
v -2 1.549316550608637e-7 -2.318716099125595e-7
v -2 1.549316550608637e-7 -2.318716099125595e-7
v -2 1.549316550608637e-7 -2.318716099125595e-7
v -2 1.549316550608637e-7 -2.318716099125595e-7
v -2 1.549316550608637e-7 -2.318716099125595e-7
v -2 1.549316550608637e-7 -2.318716099125595e-7
v -2.0124499797821045 -0.16620145738124847 -0.11055348813533783
v -1.9351565837860107 -0.15609991550445557 -0.10690251737833023
v -1.8677350282669067 -0.1222335696220398 -0.08697665482759476
v -1.8204495906829834 -0.06975822895765305 -0.053809404373168945
v -1.8004990816116333 -0.006662811152637005 -0.012450206093490124
v -1.8109208345413208 0.057446978986263275 0.030804390087723732
v -1.8501280546188354 0.11281102150678635 0.06936926394701004
v -1.9121520519256592 0.15100061893463135 0.09737325459718704
v -1.9875500202178955 0.16620177030563354 0.11055302619934082
v -2.0648434162139893 0.15610022842884064 0.10690205544233322
v -2.132265090942383 0.12223387509584427 0.08697618544101715
v -2.1795504093170166 0.06975853443145752 0.053808942437171936
v -2.199500799179077 0.006663121283054352 0.012449742294847965
v -2.1890792846679688 -0.0574466697871685 -0.03080485388636589
v -2.149871826171875 -0.11281070858240128 -0.06936972588300705
v -2.087847948074341 -0.15100030601024628 -0.09737371653318405
v -2.0124499797821045 -0.16620145738124847 -0.11055348813533783
f 1 18 2
f 18 19 2
f 2 19 3
f 19 20 3
f 3 20 4
f 20 21 4
f 4 21 5
f 21 22 5
f 5 22 6
f 22 23 6
f 6 23 7
f 23 24 7
f 7 24 8
f 24 25 8
f 8 25 9
f 25 26 9
f 9 26 10
f 26 27 10
f 10 27 11
f 27 28 11
f 11 28 12
f 28 29 12
f 12 29 13
f 29 30 13
f 13 30 14
f 30 31 14
f 14 31 15
f 31 32 15
f 15 32 16
f 32 33 16
f 16 33 17
f 33 34 17
f 51 52 35
f 52 53 36
f 53 54 37
f 54 55 38
f 55 56 39
f 56 57 40
f 57 58 41
f 58 59 42
f 59 60 43
f 60 61 44
f 61 62 45
f 62 63 46
f 63 64 47
f 64 65 48
f 65 66 49
f 66 67 50
f 85 84 68
f 86 85 69
f 87 86 70
f 88 87 71
f 89 88 72
f 90 89 73
f 91 90 74
f 92 91 75
f 93 92 76
f 94 93 77
f 95 94 78
f 96 95 79
f 97 96 80
f 98 97 81
f 99 98 82
f 100 99 83
