o spoke_front_17
v 0.9918867349624634 -5.656661510467529 -29.4622802734375
v 1.068935513496399 -5.669034957885742 -29.46243667602539
v 1.1354894638061523 -5.709371089935303 -29.456674575805664
v 1.181416392326355 -5.771529674530029 -29.445871353149414
v 1.1997241973876953 -5.8460469245910645 -29.431671142578125
v 1.1876260042190552 -5.921578407287598 -29.416236877441406
v 1.146963357925415 -5.9866251945495605 -29.40191650390625
v 1.083926796913147 -6.031284809112549 -29.39089012145996
v 1.0081132650375366 -6.048758029937744 -29.384838104248047
v 0.9310644865036011 -6.036384582519531 -29.384679794311523
v 0.8645105361938477 -5.9960479736328125 -29.39044189453125
v 0.8185836672782898 -5.933889865875244 -29.4012451171875
v 0.8002757430076599 -5.859372615814209 -29.41544532775879
v 0.8123740553855896 -5.783841133117676 -29.43088150024414
v 0.853036642074585 -5.718794345855713 -29.445201873779297
v 0.9160731434822083 -5.674134731292725 -29.456226348876953
v 0.9918867349624634 -5.656661510467529 -29.4622802734375
v 1.9918867349624634 0.19604822993278503 -0.03872039169073105
v 2.0689353942871094 0.18367475271224976 -0.038877762854099274
v 2.1354894638061523 0.14333848655223846 -0.033116307109594345
v 2.1814162731170654 0.08118021488189697 -0.02231314778327942
v 2.1997241973876953 0.006663020700216293 -0.00811297632753849
v 2.1876258850097656 -0.06886855512857437 0.0073223658837378025
v 2.146963357925415 -0.133915513753891 0.021642986685037613
v 2.0839269161224365 -0.17857502400875092 0.03266869857907295
v 2.008113145828247 -0.19604812562465668 0.03872093930840492
v 1.931064486503601 -0.1836746484041214 0.03887831047177315
v 1.8645105361938477 -0.1433383673429489 0.03311685472726822
v 1.818583607673645 -0.08118011057376862 0.022313695400953293
v 1.8002758026123047 -0.006662911735475063 0.00811352301388979
v 1.8123739957809448 0.06886865943670273 -0.007321818731725216
v 1.853036642074585 0.13391561806201935 -0.02164243906736374
v 1.916073203086853 0.17857514321804047 -0.03266815096139908
v 1.9918867349624634 0.19604822993278503 -0.03872039169073105
v 1 -5.852709770202637 -29.423559188842773
v 1 -5.852709770202637 -29.423559188842773
v 1 -5.852709770202637 -29.423559188842773
v 1 -5.852709770202637 -29.423559188842773
v 1 -5.852709770202637 -29.423559188842773
v 1 -5.852709770202637 -29.423559188842773
v 1 -5.852709770202637 -29.423559188842773
v 1 -5.852709770202637 -29.423559188842773
v 1 -5.852709770202637 -29.423559188842773
v 1 -5.852709770202637 -29.423559188842773
v 1 -5.852709770202637 -29.423559188842773
v 1 -5.852709770202637 -29.423559188842773
v 1 -5.852709770202637 -29.423559188842773
v 1 -5.852709770202637 -29.423559188842773
v 1 -5.852709770202637 -29.423559188842773
v 1 -5.852709770202637 -29.423559188842773
v 0.9918867349624634 -5.656661510467529 -29.4622802734375
v 1.068935513496399 -5.669034957885742 -29.46243667602539
v 1.1354894638061523 -5.709371089935303 -29.456674575805664
v 1.181416392326355 -5.771529674530029 -29.445871353149414
v 1.1997241973876953 -5.8460469245910645 -29.431671142578125
v 1.1876260042190552 -5.921578407287598 -29.416236877441406
v 1.146963357925415 -5.9866251945495605 -29.40191650390625
v 1.083926796913147 -6.031284809112549 -29.39089012145996
v 1.0081132650375366 -6.048758029937744 -29.384838104248047
v 0.9310644865036011 -6.036384582519531 -29.384679794311523
v 0.8645105361938477 -5.9960479736328125 -29.39044189453125
v 0.8185836672782898 -5.933889865875244 -29.4012451171875
v 0.8002757430076599 -5.859372615814209 -29.41544532775879
v 0.8123740553855896 -5.783841133117676 -29.43088150024414
v 0.853036642074585 -5.718794345855713 -29.445201873779297
v 0.9160731434822083 -5.674134731292725 -29.456226348876953
v 0.9918867349624634 -5.656661510467529 -29.4622802734375
v 2 5.4404761584692096e-8 2.735112047957955e-7
v 2 5.4404761584692096e-8 2.735112047957955e-7
v 2 5.4404761584692096e-8 2.735112047957955e-7
v 2 5.4404761584692096e-8 2.735112047957955e-7
v 2 5.4404761584692096e-8 2.735112047957955e-7
v 2 5.4404761584692096e-8 2.735112047957955e-7
v 2 5.4404761584692096e-8 2.735112047957955e-7
v 2 5.4404761584692096e-8 2.735112047957955e-7
v 2 5.4404761584692096e-8 2.735112047957955e-7
v 2 5.4404761584692096e-8 2.735112047957955e-7
v 2 5.4404761584692096e-8 2.735112047957955e-7
v 2 5.4404761584692096e-8 2.735112047957955e-7
v 2 5.4404761584692096e-8 2.735112047957955e-7
v 2 5.4404761584692096e-8 2.735112047957955e-7
v 2 5.4404761584692096e-8 2.735112047957955e-7
v 2 5.4404761584692096e-8 2.735112047957955e-7
v 1.9918867349624634 0.19604822993278503 -0.03872039169073105
v 2.0689353942871094 0.18367475271224976 -0.038877762854099274
v 2.1354894638061523 0.14333848655223846 -0.033116307109594345
v 2.1814162731170654 0.08118021488189697 -0.02231314778327942
v 2.1997241973876953 0.006663020700216293 -0.00811297632753849
v 2.1876258850097656 -0.06886855512857437 0.0073223658837378025
v 2.146963357925415 -0.133915513753891 0.021642986685037613
v 2.0839269161224365 -0.17857502400875092 0.03266869857907295
v 2.008113145828247 -0.19604812562465668 0.03872093930840492
v 1.931064486503601 -0.1836746484041214 0.03887831047177315
v 1.8645105361938477 -0.1433383673429489 0.03311685472726822
v 1.818583607673645 -0.08118011057376862 0.022313695400953293
v 1.8002758026123047 -0.006662911735475063 0.00811352301388979
v 1.8123739957809448 0.06886865943670273 -0.007321818731725216
v 1.853036642074585 0.13391561806201935 -0.02164243906736374
v 1.916073203086853 0.17857514321804047 -0.03266815096139908
v 1.9918867349624634 0.19604822993278503 -0.03872039169073105
f 1 18 2
f 18 19 2
f 2 19 3
f 19 20 3
f 3 20 4
f 20 21 4
f 4 21 5
f 21 22 5
f 5 22 6
f 22 23 6
f 6 23 7
f 23 24 7
f 7 24 8
f 24 25 8
f 8 25 9
f 25 26 9
f 9 26 10
f 26 27 10
f 10 27 11
f 27 28 11
f 11 28 12
f 28 29 12
f 12 29 13
f 29 30 13
f 13 30 14
f 30 31 14
f 14 31 15
f 31 32 15
f 15 32 16
f 32 33 16
f 16 33 17
f 33 34 17
f 51 52 35
f 52 53 36
f 53 54 37
f 54 55 38
f 55 56 39
f 56 57 40
f 57 58 41
f 58 59 42
f 59 60 43
f 60 61 44
f 61 62 45
f 62 63 46
f 63 64 47
f 64 65 48
f 65 66 49
f 66 67 50
f 85 84 68
f 86 85 69
f 87 86 70
f 88 87 71
f 89 88 72
f 90 89 73
f 91 90 74
f 92 91 75
f 93 92 76
f 94 93 77
f 95 94 78
f 96 95 79
f 97 96 80
f 98 97 81
f 99 98 82
f 100 99 83
