o spoke_front_20
v 0.9839445948600769 -21.071861267089844 -21.353790283203125
v 1.0614137649536133 -21.08007049560547 -21.349231719970703
v 1.129533290863037 -21.10854721069336 -21.323965072631836
v 1.1779325008392334 -21.152957916259766 -21.281837463378906
v 1.199243187904358 -21.206541061401367 -21.229259490966797
v 1.190220832824707 -21.261137008666992 -21.174236297607422
v 1.1522390842437744 -21.30843734741211 -21.125146865844727
v 1.0910803079605103 -21.341238021850586 -21.08946418762207
v 1.0160553455352783 -21.35454559326172 -21.07261848449707
v 0.9385861754417419 -21.346336364746094 -21.07717514038086
v 0.8704666495323181 -21.317859649658203 -21.102441787719727
v 0.8220674395561218 -21.273448944091797 -21.14457130432129
v 0.8007568717002869 -21.219865798950195 -21.197147369384766
v 0.8097792267799377 -21.16526985168457 -21.25217056274414
v 0.8477609157562256 -21.117971420288086 -21.301259994506836
v 0.9089196920394897 -21.085168838500977 -21.336944580078125
v 0.9839445948600769 -21.071861267089844 -21.353790283203125
v 1.9839446544647217 0.14134305715560913 -0.140585795044899
v 2.0614137649536133 0.13313376903533936 -0.136028453707695
v 2.129533290863037 0.10465612262487411 -0.11076198518276215
v 2.1779325008392334 0.06024554371833801 -0.06863296777009964
v 2.1992430686950684 0.0066631631925702095 -0.016055181622505188
v 2.190220832824707 -0.04793359339237213 0.03896689414978027
v 2.1522390842437744 -0.09523286670446396 0.08805664628744125
v 2.0910801887512207 -0.12803375720977783 0.12374059110879898
v 2.0160553455352783 -0.1413426548242569 0.14058619737625122
v 1.9385862350463867 -0.13313338160514832 0.13602884113788605
v 1.870466709136963 -0.10465572774410248 0.11076238006353378
v 1.8220674991607666 -0.060245148837566376 0.06863336265087128
v 1.800756812095642 -0.00666276877745986 0.016055574640631676
v 1.809779167175293 0.04793398827314377 -0.038966499269008636
v 1.8477609157562256 0.0952332615852356 -0.08805625140666962
v 1.9089196920394897 0.12803415954113007 -0.12374019622802734
v 1.9839446544647217 0.14134305715560913 -0.140585795044899
v 1 -21.21320343017578 -21.21320343017578
v 1 -21.21320343017578 -21.21320343017578
v 1 -21.21320343017578 -21.21320343017578
v 1 -21.21320343017578 -21.21320343017578
v 1 -21.21320343017578 -21.21320343017578
v 1 -21.21320343017578 -21.21320343017578
v 1 -21.21320343017578 -21.21320343017578
v 1 -21.21320343017578 -21.21320343017578
v 1 -21.21320343017578 -21.21320343017578
v 1 -21.21320343017578 -21.21320343017578
v 1 -21.21320343017578 -21.21320343017578
v 1 -21.21320343017578 -21.21320343017578
v 1 -21.21320343017578 -21.21320343017578
v 1 -21.21320343017578 -21.21320343017578
v 1 -21.21320343017578 -21.21320343017578
v 1 -21.21320343017578 -21.21320343017578
v 0.9839445948600769 -21.071861267089844 -21.353790283203125
v 1.0614137649536133 -21.08007049560547 -21.349231719970703
v 1.129533290863037 -21.10854721069336 -21.323965072631836
v 1.1779325008392334 -21.152957916259766 -21.281837463378906
v 1.199243187904358 -21.206541061401367 -21.229259490966797
v 1.190220832824707 -21.261137008666992 -21.174236297607422
v 1.1522390842437744 -21.30843734741211 -21.125146865844727
v 1.0910803079605103 -21.341238021850586 -21.08946418762207
v 1.0160553455352783 -21.35454559326172 -21.07261848449707
v 0.9385861754417419 -21.346336364746094 -21.07717514038086
v 0.8704666495323181 -21.317859649658203 -21.102441787719727
v 0.8220674395561218 -21.273448944091797 -21.14457130432129
v 0.8007568717002869 -21.219865798950195 -21.197147369384766
v 0.8097792267799377 -21.16526985168457 -21.25217056274414
v 0.8477609157562256 -21.117971420288086 -21.301259994506836
v 0.9089196920394897 -21.085168838500977 -21.336944580078125
v 0.9839445948600769 -21.071861267089844 -21.353790283203125
v 2 1.9719058741429762e-7 1.9719058741429762e-7
v 2 1.9719058741429762e-7 1.9719058741429762e-7
v 2 1.9719058741429762e-7 1.9719058741429762e-7
v 2 1.9719058741429762e-7 1.9719058741429762e-7
v 2 1.9719058741429762e-7 1.9719058741429762e-7
v 2 1.9719058741429762e-7 1.9719058741429762e-7
v 2 1.9719058741429762e-7 1.9719058741429762e-7
v 2 1.9719058741429762e-7 1.9719058741429762e-7
v 2 1.9719058741429762e-7 1.9719058741429762e-7
v 2 1.9719058741429762e-7 1.9719058741429762e-7
v 2 1.9719058741429762e-7 1.9719058741429762e-7
v 2 1.9719058741429762e-7 1.9719058741429762e-7
v 2 1.9719058741429762e-7 1.9719058741429762e-7
v 2 1.9719058741429762e-7 1.9719058741429762e-7
v 2 1.9719058741429762e-7 1.9719058741429762e-7
v 2 1.9719058741429762e-7 1.9719058741429762e-7
v 1.9839446544647217 0.14134305715560913 -0.140585795044899
v 2.0614137649536133 0.13313376903533936 -0.136028453707695
v 2.129533290863037 0.10465612262487411 -0.11076198518276215
v 2.1779325008392334 0.06024554371833801 -0.06863296777009964
v 2.1992430686950684 0.0066631631925702095 -0.016055181622505188
v 2.190220832824707 -0.04793359339237213 0.03896689414978027
v 2.1522390842437744 -0.09523286670446396 0.08805664628744125
v 2.0910801887512207 -0.12803375720977783 0.12374059110879898
v 2.0160553455352783 -0.1413426548242569 0.14058619737625122
v 1.9385862350463867 -0.13313338160514832 0.13602884113788605
v 1.870466709136963 -0.10465572774410248 0.11076238006353378
v 1.8220674991607666 -0.060245148837566376 0.06863336265087128
v 1.800756812095642 -0.00666276877745986 0.016055574640631676
v 1.809779167175293 0.04793398827314377 -0.038966499269008636
v 1.8477609157562256 0.0952332615852356 -0.08805625140666962
v 1.9089196920394897 0.12803415954113007 -0.12374019622802734
v 1.9839446544647217 0.14134305715560913 -0.140585795044899
f 1 18 2
f 18 19 2
f 2 19 3
f 19 20 3
f 3 20 4
f 20 21 4
f 4 21 5
f 21 22 5
f 5 22 6
f 22 23 6
f 6 23 7
f 23 24 7
f 7 24 8
f 24 25 8
f 8 25 9
f 25 26 9
f 9 26 10
f 26 27 10
f 10 27 11
f 27 28 11
f 11 28 12
f 28 29 12
f 12 29 13
f 29 30 13
f 13 30 14
f 30 31 14
f 14 31 15
f 31 32 15
f 15 32 16
f 32 33 16
f 16 33 17
f 33 34 17
f 51 52 35
f 52 53 36
f 53 54 37
f 54 55 38
f 55 56 39
f 56 57 40
f 57 58 41
f 58 59 42
f 59 60 43
f 60 61 44
f 61 62 45
f 62 63 46
f 63 64 47
f 64 65 48
f 65 66 49
f 66 67 50
f 85 84 68
f 86 85 69
f 87 86 70
f 88 87 71
f 89 88 72
f 90 89 73
f 91 90 74
f 92 91 75
f 93 92 76
f 94 93 77
f 95 94 78
f 96 95 79
f 97 96 80
f 98 97 81
f 99 98 82
f 100 99 83
