o spoke_front_25
v 1.0657497644424438 -29.462554931640625 5.667895793914795
v 1.1329823732376099 -29.4570369720459 5.707125186920166
v 1.1799697875976562 -29.446422576904297 5.768518447875977
v 1.1995582580566406 -29.43232536315918 5.842729091644287
v 1.1887658834457397 -29.416894912719727 5.918459415435791
v 1.1492356061935425 -29.40247917175293 5.984179973602295
v 1.0869855880737305 -29.391273498535156 6.029885292053223
v 1.0114927291870117 -29.384981155395508 6.048616886138916
v 0.9342502355575562 -29.38456153869629 6.0375237464904785
v 0.8670175671577454 -29.39008140563965 5.998294353485107
v 0.8200302124023438 -29.40069580078125 5.936901092529297
v 0.8004416823387146 -29.414791107177734 5.862689971923828
v 0.8112340569496155 -29.430221557617188 5.786960124969482
v 0.8507643342018127 -29.444637298583984 5.7212395668029785
v 0.9130144119262695 -29.45584487915039 5.675534248352051
v 0.9885072112083435 -29.46213722229004 5.656802654266357
v 1.0657497644424438 -29.462554931640625 5.667895793914795
v 2.0657496452331543 -0.0389961339533329 -0.18481415510177612
v 2.1329824924468994 -0.03347789868712425 -0.14558468759059906
v 2.1799697875976562 -0.02286292240023613 -0.08419127762317657
v 2.1995582580566406 -0.008767226710915565 -0.009980516508221626
v 2.1887660026550293 0.006663239561021328 0.06574968248605728
v 2.149235725402832 0.021079329773783684 0.13147006928920746
v 2.0869855880737305 0.032286327332258224 0.1771753430366516
v 2.0114927291870117 0.038578059524297714 0.19590725004673004
v 1.9342502355575562 0.038996681571006775 0.18481405079364777
v 1.8670176267623901 0.033478446304798126 0.1455845832824707
v 1.8200302124023438 0.022863468155264854 0.08419117331504822
v 1.8004417419433594 0.008767773397266865 0.009980407543480396
v 1.8112341165542603 -0.006662692409008741 -0.06574978679418564
v 1.8507643938064575 -0.02107878215610981 -0.131470188498497
v 1.9130144119262695 -0.03228577971458435 -0.17717544734477997
v 1.9885072708129883 -0.03857751190662384 -0.1959073543548584
v 2.0657496452331543 -0.0389961339533329 -0.18481415510177612
v 1 -29.423559188842773 5.852709770202637
v 1 -29.423559188842773 5.852709770202637
v 1 -29.423559188842773 5.852709770202637
v 1 -29.423559188842773 5.852709770202637
v 1 -29.423559188842773 5.852709770202637
v 1 -29.423559188842773 5.852709770202637
v 1 -29.423559188842773 5.852709770202637
v 1 -29.423559188842773 5.852709770202637
v 1 -29.423559188842773 5.852709770202637
v 1 -29.423559188842773 5.852709770202637
v 1 -29.423559188842773 5.852709770202637
v 1 -29.423559188842773 5.852709770202637
v 1 -29.423559188842773 5.852709770202637
v 1 -29.423559188842773 5.852709770202637
v 1 -29.423559188842773 5.852709770202637
v 1 -29.423559188842773 5.852709770202637
v 1.0657497644424438 -29.462554931640625 5.667895793914795
v 1.1329823732376099 -29.4570369720459 5.707125186920166
v 1.1799697875976562 -29.446422576904297 5.768518447875977
v 1.1995582580566406 -29.43232536315918 5.842729091644287
v 1.1887658834457397 -29.416894912719727 5.918459415435791
v 1.1492356061935425 -29.40247917175293 5.984179973602295
v 1.0869855880737305 -29.391273498535156 6.029885292053223
v 1.0114927291870117 -29.384981155395508 6.048616886138916
v 0.9342502355575562 -29.38456153869629 6.0375237464904785
v 0.8670175671577454 -29.39008140563965 5.998294353485107
v 0.8200302124023438 -29.40069580078125 5.936901092529297
v 0.8004416823387146 -29.414791107177734 5.862689971923828
v 0.8112340569496155 -29.430221557617188 5.786960124969482
v 0.8507643342018127 -29.444637298583984 5.7212395668029785
v 0.9130144119262695 -29.45584487915039 5.675534248352051
v 0.9885072112083435 -29.46213722229004 5.656802654266357
v 1.0657497644424438 -29.462554931640625 5.667895793914795
v 2 2.735112047957955e-7 -5.44047438211237e-8
v 2 2.735112047957955e-7 -5.44047438211237e-8
v 2 2.735112047957955e-7 -5.44047438211237e-8
v 2 2.735112047957955e-7 -5.44047438211237e-8
v 2 2.735112047957955e-7 -5.44047438211237e-8
v 2 2.735112047957955e-7 -5.44047438211237e-8
v 2 2.735112047957955e-7 -5.44047438211237e-8
v 2 2.735112047957955e-7 -5.44047438211237e-8
v 2 2.735112047957955e-7 -5.44047438211237e-8
v 2 2.735112047957955e-7 -5.44047438211237e-8
v 2 2.735112047957955e-7 -5.44047438211237e-8
v 2 2.735112047957955e-7 -5.44047438211237e-8
v 2 2.735112047957955e-7 -5.44047438211237e-8
v 2 2.735112047957955e-7 -5.44047438211237e-8
v 2 2.735112047957955e-7 -5.44047438211237e-8
v 2 2.735112047957955e-7 -5.44047438211237e-8
v 2.0657496452331543 -0.0389961339533329 -0.18481415510177612
v 2.1329824924468994 -0.03347789868712425 -0.14558468759059906
v 2.1799697875976562 -0.02286292240023613 -0.08419127762317657
v 2.1995582580566406 -0.008767226710915565 -0.009980516508221626
v 2.1887660026550293 0.006663239561021328 0.06574968248605728
v 2.149235725402832 0.021079329773783684 0.13147006928920746
v 2.0869855880737305 0.032286327332258224 0.1771753430366516
v 2.0114927291870117 0.038578059524297714 0.19590725004673004
v 1.9342502355575562 0.038996681571006775 0.18481405079364777
v 1.8670176267623901 0.033478446304798126 0.1455845832824707
v 1.8200302124023438 0.022863468155264854 0.08419117331504822
v 1.8004417419433594 0.008767773397266865 0.009980407543480396
v 1.8112341165542603 -0.006662692409008741 -0.06574978679418564
v 1.8507643938064575 -0.02107878215610981 -0.131470188498497
v 1.9130144119262695 -0.03228577971458435 -0.17717544734477997
v 1.9885072708129883 -0.03857751190662384 -0.1959073543548584
v 2.0657496452331543 -0.0389961339533329 -0.18481415510177612
f 1 18 2
f 18 19 2
f 2 19 3
f 19 20 3
f 3 20 4
f 20 21 4
f 4 21 5
f 21 22 5
f 5 22 6
f 22 23 6
f 6 23 7
f 23 24 7
f 7 24 8
f 24 25 8
f 8 25 9
f 25 26 9
f 9 26 10
f 26 27 10
f 10 27 11
f 27 28 11
f 11 28 12
f 28 29 12
f 12 29 13
f 29 30 13
f 13 30 14
f 30 31 14
f 14 31 15
f 31 32 15
f 15 32 16
f 32 33 16
f 16 33 17
f 33 34 17
f 51 52 35
f 52 53 36
f 53 54 37
f 54 55 38
f 55 56 39
f 56 57 40
f 57 58 41
f 58 59 42
f 59 60 43
f 60 61 44
f 61 62 45
f 62 63 46
f 63 64 47
f 64 65 48
f 65 66 49
f 66 67 50
f 85 84 68
f 86 85 69
f 87 86 70
f 88 87 71
f 89 88 72
f 90 89 73
f 91 90 74
f 92 91 75
f 93 92 76
f 94 93 77
f 95 94 78
f 96 95 79
f 97 96 80
f 98 97 81
f 99 98 82
f 100 99 83
