o spoke_front_8
v 1 30 0.20000000298023224
v 1.0764942169189453 30.00255012512207 0.18477590382099152
v 1.1413428783416748 30.004711151123047 0.1414213627576828
v 1.1846733093261719 30.00615692138672 0.07653668522834778
v 1.1998889446258545 30.006662368774414 1.8494206308809855e-15
v 1.1846733093261719 30.00615692138672 -0.07653668522834778
v 1.1413428783416748 30.004711151123047 -0.1414213627576828
v 1.0764942169189453 30.00255012512207 -0.18477590382099152
v 1 30 -0.20000000298023224
v 0.9235057830810547 29.99744987487793 -0.18477590382099152
v 0.8586571216583252 29.995288848876953 -0.1414213627576828
v 0.8153266310691833 29.993844985961914 -0.07653668522834778
v 0.8001109957695007 29.993337631225586 1.800026963353035e-15
v 0.8153266310691833 29.993844985961914 0.07653668522834778
v 0.8586571216583252 29.995288848876953 0.1414213627576828
v 0.9235057830810547 29.99744987487793 0.18477590382099152
v 1 30 0.20000000298023224
v 2 -2.788696065181284e-7 0.20000000298023224
v 2.0764942169189453 0.0025495279114693403 0.18477590382099152
v 2.141342878341675 0.004711149726063013 0.1414213627576828
v 2.184673309326172 0.006155498791486025 0.07653668522834778
v 2.1998889446258545 0.006662687286734581 1.2450388399180701e-17
v 2.184673309326172 0.006155498791486025 -0.07653668522834778
v 2.141342878341675 0.004711149726063013 -0.1414213627576828
v 2.0764942169189453 0.0025495279114693403 -0.18477590382099152
v 2 -2.788696065181284e-7 -0.20000000298023224
v 1.9235057830810547 -0.0025500855408608913 -0.18477590382099152
v 1.8586571216583252 -0.004711707588285208 -0.1414213627576828
v 1.8153266906738281 -0.0061560566537082195 -0.07653668522834778
v 1.8001110553741455 -0.006663245148956776 -3.694336184683101e-17
v 1.8153266906738281 -0.0061560566537082195 0.07653668522834778
v 1.8586571216583252 -0.004711707588285208 0.1414213627576828
v 1.9235057830810547 -0.0025500855408608913 0.18477590382099152
v 2 -2.788696065181284e-7 0.20000000298023224
v 1 30 1.8369703053475314e-15
v 1 30 1.8369703053475314e-15
v 1 30 1.8369703053475314e-15
v 1 30 1.8369703053475314e-15
v 1 30 1.8369703053475314e-15
v 1 30 1.8369703053475314e-15
v 1 30 1.8369703053475314e-15
v 1 30 1.8369703053475314e-15
v 1 30 1.8369703053475314e-15
v 1 30 1.8369703053475314e-15
v 1 30 1.8369703053475314e-15
v 1 30 1.8369703053475314e-15
v 1 30 1.8369703053475314e-15
v 1 30 1.8369703053475314e-15
v 1 30 1.8369703053475314e-15
v 1 30 1.8369703053475314e-15
v 1 30 0.20000000298023224
v 1.0764942169189453 30.00255012512207 0.18477590382099152
v 1.1413428783416748 30.004711151123047 0.1414213627576828
v 1.1846733093261719 30.00615692138672 0.07653668522834778
v 1.1998889446258545 30.006662368774414 1.8494206308809855e-15
v 1.1846733093261719 30.00615692138672 -0.07653668522834778
v 1.1413428783416748 30.004711151123047 -0.1414213627576828
v 1.0764942169189453 30.00255012512207 -0.18477590382099152
v 1 30 -0.20000000298023224
v 0.9235057830810547 29.99744987487793 -0.18477590382099152
v 0.8586571216583252 29.995288848876953 -0.1414213627576828
v 0.8153266310691833 29.993844985961914 -0.07653668522834778
v 0.8001109957695007 29.993337631225586 1.800026963353035e-15
v 0.8153266310691833 29.993844985961914 0.07653668522834778
v 0.8586571216583252 29.995288848876953 0.1414213627576828
v 0.9235057830810547 29.99744987487793 0.18477590382099152
v 1 30 0.20000000298023224
v 2 -2.788696065181284e-7 -1.7075837771151445e-23
v 2 -2.788696065181284e-7 -1.7075837771151445e-23
v 2 -2.788696065181284e-7 -1.7075837771151445e-23
v 2 -2.788696065181284e-7 -1.7075837771151445e-23
v 2 -2.788696065181284e-7 -1.7075837771151445e-23
v 2 -2.788696065181284e-7 -1.7075837771151445e-23
v 2 -2.788696065181284e-7 -1.7075837771151445e-23
v 2 -2.788696065181284e-7 -1.7075837771151445e-23
v 2 -2.788696065181284e-7 -1.7075837771151445e-23
v 2 -2.788696065181284e-7 -1.7075837771151445e-23
v 2 -2.788696065181284e-7 -1.7075837771151445e-23
v 2 -2.788696065181284e-7 -1.7075837771151445e-23
v 2 -2.788696065181284e-7 -1.7075837771151445e-23
v 2 -2.788696065181284e-7 -1.7075837771151445e-23
v 2 -2.788696065181284e-7 -1.7075837771151445e-23
v 2 -2.788696065181284e-7 -1.7075837771151445e-23
v 2 -2.788696065181284e-7 0.20000000298023224
v 2.0764942169189453 0.0025495279114693403 0.18477590382099152
v 2.141342878341675 0.004711149726063013 0.1414213627576828
v 2.184673309326172 0.006155498791486025 0.07653668522834778
v 2.1998889446258545 0.006662687286734581 1.2450388399180701e-17
v 2.184673309326172 0.006155498791486025 -0.07653668522834778
v 2.141342878341675 0.004711149726063013 -0.1414213627576828
v 2.0764942169189453 0.0025495279114693403 -0.18477590382099152
v 2 -2.788696065181284e-7 -0.20000000298023224
v 1.9235057830810547 -0.0025500855408608913 -0.18477590382099152
v 1.8586571216583252 -0.004711707588285208 -0.1414213627576828
v 1.8153266906738281 -0.0061560566537082195 -0.07653668522834778
v 1.8001110553741455 -0.006663245148956776 -3.694336184683101e-17
v 1.8153266906738281 -0.0061560566537082195 0.07653668522834778
v 1.8586571216583252 -0.004711707588285208 0.1414213627576828
v 1.9235057830810547 -0.0025500855408608913 0.18477590382099152
v 2 -2.788696065181284e-7 0.20000000298023224
f 1 18 2
f 18 19 2
f 2 19 3
f 19 20 3
f 3 20 4
f 20 21 4
f 4 21 5
f 21 22 5
f 5 22 6
f 22 23 6
f 6 23 7
f 23 24 7
f 7 24 8
f 24 25 8
f 8 25 9
f 25 26 9
f 9 26 10
f 26 27 10
f 10 27 11
f 27 28 11
f 11 28 12
f 28 29 12
f 12 29 13
f 29 30 13
f 13 30 14
f 30 31 14
f 14 31 15
f 31 32 15
f 15 32 16
f 32 33 16
f 16 33 17
f 33 34 17
f 51 52 35
f 52 53 36
f 53 54 37
f 54 55 38
f 55 56 39
f 56 57 40
f 57 58 41
f 58 59 42
f 59 60 43
f 60 61 44
f 61 62 45
f 62 63 46
f 63 64 47
f 64 65 48
f 65 66 49
f 66 67 50
f 85 84 68
f 86 85 69
f 87 86 70
f 88 87 71
f 89 88 72
f 90 89 73
f 91 90 74
f 92 91 75
f 93 92 76
f 94 93 77
f 95 94 78
f 96 95 79
f 97 96 80
f 98 97 81
f 99 98 82
f 100 99 83
