o spoke_back_3
v -1.003560185432434 16.500905990600586 25.05528450012207
v -0.9268071055412292 16.51100730895996 25.04545783996582
v -0.8611969351768494 16.54487419128418 25.020198822021484
v -0.816718339920044 16.597349166870117 24.983352661132812
v -0.8001427054405212 16.660444259643555 24.940528869628906
v -0.813993513584137 16.72455406188965 24.89824676513672
v -0.8561621308326721 16.779918670654297 24.862943649291992
v -0.9202287793159485 16.81810760498047 24.839994430541992
v -0.9964398145675659 16.833309173583984 24.83289337158203
v -1.0731929540634155 16.82320785522461 24.84272003173828
v -1.1388030052185059 16.78934097290039 24.867979049682617
v -1.183281660079956 16.736865997314453 24.90482521057129
v -1.199857234954834 16.673770904541016 24.947649002075195
v -1.1860064268112183 16.609661102294922 24.989931106567383
v -1.143837809562683 16.554296493530273 25.025232315063477
v -1.0797711610794067 16.5161075592041 25.048181533813477
v -1.003560185432434 16.500905990600586 25.05528450012207
v -2.0035600662231445 -0.16620177030563354 0.11119486391544342
v -1.9268070459365845 -0.15610022842884064 0.10136822611093521
v -1.8611969947814941 -0.12223387509584427 0.07610916346311569
v -1.816718339920044 -0.06975853443145752 0.039263129234313965
v -1.800142765045166 -0.006663121283054352 -0.0035603903234004974
v -1.8139935731887817 0.0574466697871685 -0.04584190994501114
v -1.856162190437317 0.11281070858240128 -0.08114445209503174
v -1.9202288389205933 0.15100030601024628 -0.1040935143828392
v -1.996439814567566 0.16620145738124847 -0.11119532585144043
v -2.073192834854126 0.15609991550445557 -0.10136868804693222
v -2.138803005218506 0.1222335696220398 -0.0761096253991127
v -2.183281660079956 0.06975822895765305 -0.03926359489560127
v -2.199857234954834 0.006662811152637005 0.003559926524758339
v -2.186006546020508 -0.057446978986263275 0.04584144428372383
v -2.1438379287719727 -0.11281102150678635 0.08114399015903473
v -2.0797712802886963 -0.15100061893463135 0.1040930524468422
v -2.0035600662231445 -0.16620177030563354 0.11119486391544342
v -1 16.66710662841797 24.944087982177734
v -1 16.66710662841797 24.944087982177734
v -1 16.66710662841797 24.944087982177734
v -1 16.66710662841797 24.944087982177734
v -1 16.66710662841797 24.944087982177734
v -1 16.66710662841797 24.944087982177734
v -1 16.66710662841797 24.944087982177734
v -1 16.66710662841797 24.944087982177734
v -1 16.66710662841797 24.944087982177734
v -1 16.66710662841797 24.944087982177734
v -1 16.66710662841797 24.944087982177734
v -1 16.66710662841797 24.944087982177734
v -1 16.66710662841797 24.944087982177734
v -1 16.66710662841797 24.944087982177734
v -1 16.66710662841797 24.944087982177734
v -1 16.66710662841797 24.944087982177734
v -1.003560185432434 16.500905990600586 25.05528450012207
v -0.9268071055412292 16.51100730895996 25.04545783996582
v -0.8611969351768494 16.54487419128418 25.020198822021484
v -0.816718339920044 16.597349166870117 24.983352661132812
v -0.8001427054405212 16.660444259643555 24.940528869628906
v -0.813993513584137 16.72455406188965 24.89824676513672
v -0.8561621308326721 16.779918670654297 24.862943649291992
v -0.9202287793159485 16.81810760498047 24.839994430541992
v -0.9964398145675659 16.833309173583984 24.83289337158203
v -1.0731929540634155 16.82320785522461 24.84272003173828
v -1.1388030052185059 16.78934097290039 24.867979049682617
v -1.183281660079956 16.736865997314453 24.90482521057129
v -1.199857234954834 16.673770904541016 24.947649002075195
v -1.1860064268112183 16.609661102294922 24.989931106567383
v -1.143837809562683 16.554296493530273 25.025232315063477
v -1.0797711610794067 16.5161075592041 25.048181533813477
v -1.003560185432434 16.500905990600586 25.05528450012207
v -2 -1.549316550608637e-7 -2.318716099125595e-7
v -2 -1.549316550608637e-7 -2.318716099125595e-7
v -2 -1.549316550608637e-7 -2.318716099125595e-7
v -2 -1.549316550608637e-7 -2.318716099125595e-7
v -2 -1.549316550608637e-7 -2.318716099125595e-7
v -2 -1.549316550608637e-7 -2.318716099125595e-7
v -2 -1.549316550608637e-7 -2.318716099125595e-7
v -2 -1.549316550608637e-7 -2.318716099125595e-7
v -2 -1.549316550608637e-7 -2.318716099125595e-7
v -2 -1.549316550608637e-7 -2.318716099125595e-7
v -2 -1.549316550608637e-7 -2.318716099125595e-7
v -2 -1.549316550608637e-7 -2.318716099125595e-7
v -2 -1.549316550608637e-7 -2.318716099125595e-7
v -2 -1.549316550608637e-7 -2.318716099125595e-7
v -2 -1.549316550608637e-7 -2.318716099125595e-7
v -2 -1.549316550608637e-7 -2.318716099125595e-7
v -2.0035600662231445 -0.16620177030563354 0.11119486391544342
v -1.9268070459365845 -0.15610022842884064 0.10136822611093521
v -1.8611969947814941 -0.12223387509584427 0.07610916346311569
v -1.816718339920044 -0.06975853443145752 0.039263129234313965
v -1.800142765045166 -0.006663121283054352 -0.0035603903234004974
v -1.8139935731887817 0.0574466697871685 -0.04584190994501114
v -1.856162190437317 0.11281070858240128 -0.08114445209503174
v -1.9202288389205933 0.15100030601024628 -0.1040935143828392
v -1.996439814567566 0.16620145738124847 -0.11119532585144043
v -2.073192834854126 0.15609991550445557 -0.10136868804693222
v -2.138803005218506 0.1222335696220398 -0.0761096253991127
v -2.183281660079956 0.06975822895765305 -0.03926359489560127
v -2.199857234954834 0.006662811152637005 0.003559926524758339
v -2.186006546020508 -0.057446978986263275 0.04584144428372383
v -2.1438379287719727 -0.11281102150678635 0.08114399015903473
v -2.0797712802886963 -0.15100061893463135 0.1040930524468422
v -2.0035600662231445 -0.16620177030563354 0.11119486391544342
f 1 18 2
f 18 19 2
f 2 19 3
f 19 20 3
f 3 20 4
f 20 21 4
f 4 21 5
f 21 22 5
f 5 22 6
f 22 23 6
f 6 23 7
f 23 24 7
f 7 24 8
f 24 25 8
f 8 25 9
f 25 26 9
f 9 26 10
f 26 27 10
f 10 27 11
f 27 28 11
f 11 28 12
f 28 29 12
f 12 29 13
f 29 30 13
f 13 30 14
f 30 31 14
f 14 31 15
f 31 32 15
f 15 32 16
f 32 33 16
f 16 33 17
f 33 34 17
f 51 52 35
f 52 53 36
f 53 54 37
f 54 55 38
f 55 56 39
f 56 57 40
f 57 58 41
f 58 59 42
f 59 60 43
f 60 61 44
f 61 62 45
f 62 63 46
f 63 64 47
f 64 65 48
f 65 66 49
f 66 67 50
f 85 84 68
f 86 85 69
f 87 86 70
f 88 87 71
f 89 88 72
f 90 89 73
f 91 90 74
f 92 91 75
f 93 92 76
f 94 93 77
f 95 94 78
f 96 95 79
f 97 96 80
f 98 97 81
f 99 98 82
f 100 99 83
