# Exported from Three.js
o spoke_front_2
v 1.004450254749878 11.295829736233486 27.793040999982633
v 1.080586738355492 11.312436969009564 27.788909043467044
v 1.14445462928669 11.354630730252987 27.77373615221225
v 1.186330594661652 11.415987429572905 27.749832249154878
v 1.199839429314841 11.487166043817282 27.720836497026056
v 1.182924510128048 11.557330281503795 27.69116323229619
v 1.138161005320966 11.615798282473033 27.665329937714525
v 1.0723637228654728 11.653668799683278 27.647269507027616
v 0.9955497266588149 11.665176419109454 27.639731465978418
v 0.9194132430532009 11.648569186333376 27.643863422494007
v 0.855545352122003 11.606375425089952 27.6590363137488
v 0.8136693867470408 11.545018725770035 27.682940216806173
v 0.8001605520938517 11.473840111525657 27.711935968934995
v 0.817075471280645 11.403675873839145 27.74160923366486
v 0.8618389760877266 11.345207872869906 27.767442528246526
v 0.9276362585432201 11.307337355659662 27.785502958933435
v 1.004450254749878 11.295829736233486 27.793040999982633
v 2.004450273341185 -0.18467344815676068 0.07665450936018559
v 2.080586756946799 -0.1680662153806809 0.0725225528445943
v 2.144454647877997 -0.12587245413725867 0.05734966158980548
v 2.1863306132529594 -0.06451575481734206 0.033445758532431924
v 2.1998394479061485 0.006662859427037482 0.004450006403610374
v 2.1829245287193553 0.07682709711354807 -0.025223258326258602
v 2.1381610239122733 0.1352950980827874 -0.05105655290792477
v 2.0723637414567797 0.17316561529303076 -0.06911698359483331
v 1.995549745250122 0.1846732347192086 -0.07665502464402962
v 1.919413261644508 0.16806600194312882 -0.07252306812843834
v 1.85554537071331 0.1258722406997066 -0.05735017687364952
v 1.813669405338348 0.06451554137978999 -0.03344627381627596
v 1.800160570685159 -0.006663072864589559 -0.004450521687454412
v 1.817075489871952 -0.07682731055110015 0.025222743042414564
v 1.861838994679034 -0.13529531152033947 0.05105603762408073
v 1.9276362771345272 -0.17316582873058284 0.06911646831098928
v 2.004450273341185 -0.18467344815676068 0.07665450936018559
v 0.9999999907043464 11.48050307767147 27.716386232980526
v 0.9999999907043464 11.48050307767147 27.716386232980526
v 0.9999999907043464 11.48050307767147 27.716386232980526
v 0.9999999907043464 11.48050307767147 27.716386232980526
v 0.9999999907043464 11.48050307767147 27.716386232980526
v 0.9999999907043464 11.48050307767147 27.716386232980526
v 0.9999999907043464 11.48050307767147 27.716386232980526
v 0.9999999907043464 11.48050307767147 27.716386232980526
v 0.9999999907043464 11.48050307767147 27.716386232980526
v 0.9999999907043464 11.48050307767147 27.716386232980526
v 0.9999999907043464 11.48050307767147 27.716386232980526
v 0.9999999907043464 11.48050307767147 27.716386232980526
v 0.9999999907043464 11.48050307767147 27.716386232980526
v 0.9999999907043464 11.48050307767147 27.716386232980526
v 0.9999999907043464 11.48050307767147 27.716386232980526
v 0.9999999907043464 11.48050307767147 27.716386232980526
v 1.004450254749878 11.295829736233486 27.793040999982633
v 1.080586738355492 11.312436969009564 27.788909043467044
v 1.14445462928669 11.354630730252987 27.77373615221225
v 1.186330594661652 11.415987429572905 27.749832249154878
v 1.199839429314841 11.487166043817282 27.720836497026056
v 1.182924510128048 11.557330281503795 27.69116323229619
v 1.138161005320966 11.615798282473033 27.665329937714525
v 1.0723637228654728 11.653668799683278 27.647269507027616
v 0.9955497266588149 11.665176419109454 27.639731465978418
v 0.9194132430532009 11.648569186333376 27.643863422494007
v 0.855545352122003 11.606375425089952 27.6590363137488
v 0.8136693867470408 11.545018725770035 27.682940216806173
v 0.8001605520938517 11.473840111525657 27.711935968934995
v 0.817075471280645 11.403675873839145 27.74160923366486
v 0.8618389760877266 11.345207872869906 27.767442528246526
v 0.9276362585432201 11.307337355659662 27.785502958933435
v 1.004450254749878 11.295829736233486 27.793040999982633
v 2.0000000092956536 -1.0671877603840585e-7 -2.5764192201904734e-7
v 2.0000000092956536 -1.0671877603840585e-7 -2.5764192201904734e-7
v 2.0000000092956536 -1.0671877603840585e-7 -2.5764192201904734e-7
v 2.0000000092956536 -1.0671877603840585e-7 -2.5764192201904734e-7
v 2.0000000092956536 -1.0671877603840585e-7 -2.5764192201904734e-7
v 2.0000000092956536 -1.0671877603840585e-7 -2.5764192201904734e-7
v 2.0000000092956536 -1.0671877603840585e-7 -2.5764192201904734e-7
v 2.0000000092956536 -1.0671877603840585e-7 -2.5764192201904734e-7
v 2.0000000092956536 -1.0671877603840585e-7 -2.5764192201904734e-7
v 2.0000000092956536 -1.0671877603840585e-7 -2.5764192201904734e-7
v 2.0000000092956536 -1.0671877603840585e-7 -2.5764192201904734e-7
v 2.0000000092956536 -1.0671877603840585e-7 -2.5764192201904734e-7
v 2.0000000092956536 -1.0671877603840585e-7 -2.5764192201904734e-7
v 2.0000000092956536 -1.0671877603840585e-7 -2.5764192201904734e-7
v 2.0000000092956536 -1.0671877603840585e-7 -2.5764192201904734e-7
v 2.0000000092956536 -1.0671877603840585e-7 -2.5764192201904734e-7
v 2.004450273341185 -0.18467344815676068 0.07665450936018559
v 2.080586756946799 -0.1680662153806809 0.0725225528445943
v 2.144454647877997 -0.12587245413725867 0.05734966158980548
v 2.1863306132529594 -0.06451575481734206 0.033445758532431924
v 2.1998394479061485 0.006662859427037482 0.004450006403610374
v 2.1829245287193553 0.07682709711354807 -0.025223258326258602
v 2.1381610239122733 0.1352950980827874 -0.05105655290792477
v 2.0723637414567797 0.17316561529303076 -0.06911698359483331
v 1.995549745250122 0.1846732347192086 -0.07665502464402962
v 1.919413261644508 0.16806600194312882 -0.07252306812843834
v 1.85554537071331 0.1258722406997066 -0.05735017687364952
v 1.813669405338348 0.06451554137978999 -0.03344627381627596
v 1.800160570685159 -0.006663072864589559 -0.004450521687454412
v 1.817075489871952 -0.07682731055110015 0.025222743042414564
v 1.861838994679034 -0.13529531152033947 0.05105603762408073
v 1.9276362771345272 -0.17316582873058284 0.06911646831098928
v 2.004450273341185 -0.18467344815676068 0.07665450936018559
f 1 18 2
f 18 19 2
f 2 19 3
f 19 20 3
f 3 20 4
f 20 21 4
f 4 21 5
f 21 22 5
f 5 22 6
f 22 23 6
f 6 23 7
f 23 24 7
f 7 24 8
f 24 25 8
f 8 25 9
f 25 26 9
f 9 26 10
f 26 27 10
f 10 27 11
f 27 28 11
f 11 28 12
f 28 29 12
f 12 29 13
f 29 30 13
f 13 30 14
f 30 31 14
f 14 31 15
f 31 32 15
f 15 32 16
f 32 33 16
f 16 33 17
f 33 34 17
f 51 52 35
f 52 53 36
f 53 54 37
f 54 55 38
f 55 56 39
f 56 57 40
f 57 58 41
f 58 59 42
f 59 60 43
f 60 61 44
f 61 62 45
f 62 63 46
f 63 64 47
f 64 65 48
f 65 66 49
f 66 67 50
f 85 84 68
f 86 85 69
f 87 86 70
f 88 87 71
f 89 88 72
f 90 89 73
f 91 90 74
f 92 91 75
f 93 92 76
f 94 93 77
f 95 94 78
f 96 95 79
f 97 96 80
f 98 97 81
f 99 98 82
f 100 99 83
