# Exported from Three.js
o spoke_back_1
v -1.005465605637007 5.656661541299439 29.462740848359182
v -0.9285839609992868 5.66903501857566 29.45766668253141
v -0.8625747510792344 5.7093712888870956 29.44739988595267
v -0.8174873036518454 5.771529551381747 29.433503480049552
v -0.8001857441460979 5.846046748742796 29.418093070675457
v -0.8133041032173759 5.9215783226617145 29.403514751925975
v -0.8548452040735576 5.986625283507043 29.391987938257884
v -0.918484821758577 6.031284797851656 29.385267488250356
v -0.9945343757716858 6.04875788847778 29.384376522857053
v -1.0714160204094059 6.036384411201559 29.389450688684825
v -1.1374252303294585 5.996048140890124 29.399717485263565
v -1.1825126777568475 5.9338898783954726 29.413613891166683
v -1.1998142372625948 5.859372681034423 29.429024300540778
v -1.186695878191317 5.783841107115505 29.44360261929026
v -1.1451547773351352 5.718794146270176 29.45512943295835
v -1.0815151596501158 5.674134631925563 29.46184988296588
v -1.005465605637007 5.656661541299439 29.462740848359182
v -2.0054656242283144 -0.19604822799393373 0.03918188923985966
v -1.9285839795905941 -0.1836747507177119 0.034107723412089896
v -1.8625747696705415 -0.1433384804062765 0.023840926833349485
v -1.8174873222431525 -0.081180217911625 0.009944520930227796
v -1.8001857627374052 -0.006663020550575993 -0.005465888443865197
v -1.813304121808683 0.06886855336834286 -0.020044207193345542
v -1.8548452226648648 0.13391551421367076 -0.031571020861436594
v -1.9184848403498842 0.1785750285582841 -0.03829147086896789
v -1.994534394362993 0.1960481191844088 -0.03918243626226925
v -2.071416039000713 0.18367464190818694 -0.03410827043449949
v -2.1374252489207657 0.14333837159675156 -0.023841473855759077
v -2.1825126963481547 0.08118010910210005 -0.009945067952637388
v -2.199814255853902 0.0066629117410510474 0.005465341421455605
v -2.186695896782624 -0.0688686621778678 0.02004366017093595
v -2.1451547959264423 -0.1339156230231957 0.031570473839027
v -2.081515178241423 -0.17857513736780906 0.0382909238465583
v -2.0054656242283144 -0.19604822799393373 0.03918188923985966
v -0.9999999907043464 5.85270971488861 29.423558685608118
v -0.9999999907043464 5.85270971488861 29.423558685608118
v -0.9999999907043464 5.85270971488861 29.423558685608118
v -0.9999999907043464 5.85270971488861 29.423558685608118
v -0.9999999907043464 5.85270971488861 29.423558685608118
v -0.9999999907043464 5.85270971488861 29.423558685608118
v -0.9999999907043464 5.85270971488861 29.423558685608118
v -0.9999999907043464 5.85270971488861 29.423558685608118
v -0.9999999907043464 5.85270971488861 29.423558685608118
v -0.9999999907043464 5.85270971488861 29.423558685608118
v -0.9999999907043464 5.85270971488861 29.423558685608118
v -0.9999999907043464 5.85270971488861 29.423558685608118
v -0.9999999907043464 5.85270971488861 29.423558685608118
v -0.9999999907043464 5.85270971488861 29.423558685608118
v -0.9999999907043464 5.85270971488861 29.423558685608118
v -0.9999999907043464 5.85270971488861 29.423558685608118
v -1.005465605637007 5.656661541299439 29.462740848359182
v -0.9285839609992868 5.66903501857566 29.45766668253141
v -0.8625747510792344 5.7093712888870956 29.44739988595267
v -0.8174873036518454 5.771529551381747 29.433503480049552
v -0.8001857441460979 5.846046748742796 29.418093070675457
v -0.8133041032173759 5.9215783226617145 29.403514751925975
v -0.8548452040735576 5.986625283507043 29.391987938257884
v -0.918484821758577 6.031284797851656 29.385267488250356
v -0.9945343757716858 6.04875788847778 29.384376522857053
v -1.0714160204094059 6.036384411201559 29.389450688684825
v -1.1374252303294585 5.996048140890124 29.399717485263565
v -1.1825126777568475 5.9338898783954726 29.413613891166683
v -1.1998142372625948 5.859372681034423 29.429024300540778
v -1.186695878191317 5.783841107115505 29.44360261929026
v -1.1451547773351352 5.718794146270176 29.45512943295835
v -1.0815151596501158 5.674134631925563 29.46184988296588
v -1.005465605637007 5.656661541299439 29.462740848359182
v -2.0000000092956536 -5.4404762472870516e-8 -2.735112047957955e-7
v -2.0000000092956536 -5.4404762472870516e-8 -2.735112047957955e-7
v -2.0000000092956536 -5.4404762472870516e-8 -2.735112047957955e-7
v -2.0000000092956536 -5.4404762472870516e-8 -2.735112047957955e-7
v -2.0000000092956536 -5.4404762472870516e-8 -2.735112047957955e-7
v -2.0000000092956536 -5.4404762472870516e-8 -2.735112047957955e-7
v -2.0000000092956536 -5.4404762472870516e-8 -2.735112047957955e-7
v -2.0000000092956536 -5.4404762472870516e-8 -2.735112047957955e-7
v -2.0000000092956536 -5.4404762472870516e-8 -2.735112047957955e-7
v -2.0000000092956536 -5.4404762472870516e-8 -2.735112047957955e-7
v -2.0000000092956536 -5.4404762472870516e-8 -2.735112047957955e-7
v -2.0000000092956536 -5.4404762472870516e-8 -2.735112047957955e-7
v -2.0000000092956536 -5.4404762472870516e-8 -2.735112047957955e-7
v -2.0000000092956536 -5.4404762472870516e-8 -2.735112047957955e-7
v -2.0000000092956536 -5.4404762472870516e-8 -2.735112047957955e-7
v -2.0000000092956536 -5.4404762472870516e-8 -2.735112047957955e-7
v -2.0054656242283144 -0.19604822799393373 0.03918188923985966
v -1.9285839795905941 -0.1836747507177119 0.034107723412089896
v -1.8625747696705415 -0.1433384804062765 0.023840926833349485
v -1.8174873222431525 -0.081180217911625 0.009944520930227796
v -1.8001857627374052 -0.006663020550575993 -0.005465888443865197
v -1.813304121808683 0.06886855336834286 -0.020044207193345542
v -1.8548452226648648 0.13391551421367076 -0.031571020861436594
v -1.9184848403498842 0.1785750285582841 -0.03829147086896789
v -1.994534394362993 0.1960481191844088 -0.03918243626226925
v -2.071416039000713 0.18367464190818694 -0.03410827043449949
v -2.1374252489207657 0.14333837159675156 -0.023841473855759077
v -2.1825126963481547 0.08118010910210005 -0.009945067952637388
v -2.199814255853902 0.0066629117410510474 0.005465341421455605
v -2.186695896782624 -0.0688686621778678 0.02004366017093595
v -2.1451547959264423 -0.1339156230231957 0.031570473839027
v -2.081515178241423 -0.17857513736780906 0.0382909238465583
v -2.0054656242283144 -0.19604822799393373 0.03918188923985966
f 1 18 2
f 18 19 2
f 2 19 3
f 19 20 3
f 3 20 4
f 20 21 4
f 4 21 5
f 21 22 5
f 5 22 6
f 22 23 6
f 6 23 7
f 23 24 7
f 7 24 8
f 24 25 8
f 8 25 9
f 25 26 9
f 9 26 10
f 26 27 10
f 10 27 11
f 27 28 11
f 11 28 12
f 28 29 12
f 12 29 13
f 29 30 13
f 13 30 14
f 30 31 14
f 14 31 15
f 31 32 15
f 15 32 16
f 32 33 16
f 16 33 17
f 33 34 17
f 51 52 35
f 52 53 36
f 53 54 37
f 54 55 38
f 55 56 39
f 56 57 40
f 57 58 41
f 58 59 42
f 59 60 43
f 60 61 44
f 61 62 45
f 62 63 46
f 63 64 47
f 64 65 48
f 65 66 49
f 66 67 50
f 85 84 68
f 86 85 69
f 87 86 70
f 88 87 71
f 89 88 72
f 90 89 73
f 91 90 74
f 92 91 75
f 93 92 76
f 94 93 77
f 95 94 78
f 96 95 79
f 97 96 80
f 98 97 81
f 99 98 82
f 100 99 83
