# Exported from Three.js
o spoke_back_29
v -1.0124499649342777 -16.833308761861066 24.83353534654406
v -0.9351565846297668 -16.823207219286502 24.83718631623308
v -0.8677350171947765 -16.78934086783766 24.857112181159053
v -0.8204496079314177 -16.73686552641065 24.890279427378957
v -0.800499102947157 -16.67377011166554 24.93163862671803
v -0.8109208104860349 -16.609660320362558 24.974893222450923
v -0.8501280942381909 -16.55429628058488 25.01345809778028
v -0.9121520325637252 -16.51610668510285 25.041462088217457
v -0.9875500164744151 -16.500905529178386 25.05464185535186
v -1.064843396778926 -16.51100707175295 25.05099088566284
v -1.1322649642139164 -16.544873423201793 25.031065020736868
v -1.179550373477275 -16.5973487646288 24.997897774516964
v -1.199500878461536 -16.66044417937391 24.95653857517789
v -1.1890791709226578 -16.724553970676894 24.913283979444998
v -1.149871887170502 -16.779918010454573 24.87471910411564
v -1.0878479488449677 -16.8181076059366 24.846715113678464
v -1.0124499649342777 -16.833308761861066 24.83353534654406
v -2.0124499835255847 -0.16620146140968117 -0.1105534862755011
v -1.935156603221074 -0.15609991883511753 -0.10690251658648364
v -1.8677350357860836 -0.12223356738627267 -0.08697665166050861
v -1.820449626522725 -0.06975822595926573 -0.05380940544060486
v -1.800499121538464 -0.006662811214155795 -0.012450206101533468
v -1.8109208290773422 0.05744698008882665 0.03080438963135812
v -1.850128112829498 0.11281101986650732 0.06936926496071827
v -1.9121520511550323 0.15100061534853282 0.0973732553978941
v -1.9875500350657223 0.1662017712729984 0.11055302253229549
v -2.064843415370233 0.15610022869843476 0.10690205284327803
v -2.1322649828052236 0.1222338772495899 0.086976187917303
v -2.1795503920685824 0.06975853582258296 0.05380894169739925
v -2.199500897052843 0.006663121077473022 0.012449742358327853
v -2.189079189513965 -0.05744667022550942 -0.030804853374563734
v -2.149871905761809 -0.1128107100031901 -0.06936972870392388
v -2.0878479674362747 -0.1510003054852156 -0.09737371914109971
v -2.0124499835255847 -0.16620146140968117 -0.1105534862755011
v -0.9999999907043464 -16.667107145519726 24.94408860094796
v -0.9999999907043464 -16.667107145519726 24.94408860094796
v -0.9999999907043464 -16.667107145519726 24.94408860094796
v -0.9999999907043464 -16.667107145519726 24.94408860094796
v -0.9999999907043464 -16.667107145519726 24.94408860094796
v -0.9999999907043464 -16.667107145519726 24.94408860094796
v -0.9999999907043464 -16.667107145519726 24.94408860094796
v -0.9999999907043464 -16.667107145519726 24.94408860094796
v -0.9999999907043464 -16.667107145519726 24.94408860094796
v -0.9999999907043464 -16.667107145519726 24.94408860094796
v -0.9999999907043464 -16.667107145519726 24.94408860094796
v -0.9999999907043464 -16.667107145519726 24.94408860094796
v -0.9999999907043464 -16.667107145519726 24.94408860094796
v -0.9999999907043464 -16.667107145519726 24.94408860094796
v -0.9999999907043464 -16.667107145519726 24.94408860094796
v -0.9999999907043464 -16.667107145519726 24.94408860094796
v -1.0124499649342777 -16.833308761861066 24.83353534654406
v -0.9351565846297668 -16.823207219286502 24.83718631623308
v -0.8677350171947765 -16.78934086783766 24.857112181159053
v -0.8204496079314177 -16.73686552641065 24.890279427378957
v -0.800499102947157 -16.67377011166554 24.93163862671803
v -0.8109208104860349 -16.609660320362558 24.974893222450923
v -0.8501280942381909 -16.55429628058488 25.01345809778028
v -0.9121520325637252 -16.51610668510285 25.041462088217457
v -0.9875500164744151 -16.500905529178386 25.05464185535186
v -1.064843396778926 -16.51100707175295 25.05099088566284
v -1.1322649642139164 -16.544873423201793 25.031065020736868
v -1.179550373477275 -16.5973487646288 24.997897774516964
v -1.199500878461536 -16.66044417937391 24.95653857517789
v -1.1890791709226578 -16.724553970676894 24.913283979444998
v -1.149871887170502 -16.779918010454573 24.87471910411564
v -1.0878479488449677 -16.8181076059366 24.846715113678464
v -1.0124499649342777 -16.833308761861066 24.83353534654406
v -2.0000000092956536 1.5493165861357738e-7 -2.3187160280713215e-7
v -2.0000000092956536 1.5493165861357738e-7 -2.3187160280713215e-7
v -2.0000000092956536 1.5493165861357738e-7 -2.3187160280713215e-7
v -2.0000000092956536 1.5493165861357738e-7 -2.3187160280713215e-7
v -2.0000000092956536 1.5493165861357738e-7 -2.3187160280713215e-7
v -2.0000000092956536 1.5493165861357738e-7 -2.3187160280713215e-7
v -2.0000000092956536 1.5493165861357738e-7 -2.3187160280713215e-7
v -2.0000000092956536 1.5493165861357738e-7 -2.3187160280713215e-7
v -2.0000000092956536 1.5493165861357738e-7 -2.3187160280713215e-7
v -2.0000000092956536 1.5493165861357738e-7 -2.3187160280713215e-7
v -2.0000000092956536 1.5493165861357738e-7 -2.3187160280713215e-7
v -2.0000000092956536 1.5493165861357738e-7 -2.3187160280713215e-7
v -2.0000000092956536 1.5493165861357738e-7 -2.3187160280713215e-7
v -2.0000000092956536 1.5493165861357738e-7 -2.3187160280713215e-7
v -2.0000000092956536 1.5493165861357738e-7 -2.3187160280713215e-7
v -2.0000000092956536 1.5493165861357738e-7 -2.3187160280713215e-7
v -2.0124499835255847 -0.16620146140968117 -0.1105534862755011
v -1.935156603221074 -0.15609991883511753 -0.10690251658648364
v -1.8677350357860836 -0.12223356738627267 -0.08697665166050861
v -1.820449626522725 -0.06975822595926573 -0.05380940544060486
v -1.800499121538464 -0.006662811214155795 -0.012450206101533468
v -1.8109208290773422 0.05744698008882665 0.03080438963135812
v -1.850128112829498 0.11281101986650732 0.06936926496071827
v -1.9121520511550323 0.15100061534853282 0.0973732553978941
v -1.9875500350657223 0.1662017712729984 0.11055302253229549
v -2.064843415370233 0.15610022869843476 0.10690205284327803
v -2.1322649828052236 0.1222338772495899 0.086976187917303
v -2.1795503920685824 0.06975853582258296 0.05380894169739925
v -2.199500897052843 0.006663121077473022 0.012449742358327853
v -2.189079189513965 -0.05744667022550942 -0.030804853374563734
v -2.149871905761809 -0.1128107100031901 -0.06936972870392388
v -2.0878479674362747 -0.1510003054852156 -0.09737371914109971
v -2.0124499835255847 -0.16620146140968117 -0.1105534862755011
f 1 18 2
f 18 19 2
f 2 19 3
f 19 20 3
f 3 20 4
f 20 21 4
f 4 21 5
f 21 22 5
f 5 22 6
f 22 23 6
f 6 23 7
f 23 24 7
f 7 24 8
f 24 25 8
f 8 25 9
f 25 26 9
f 9 26 10
f 26 27 10
f 10 27 11
f 27 28 11
f 11 28 12
f 28 29 12
f 12 29 13
f 29 30 13
f 13 30 14
f 30 31 14
f 14 31 15
f 31 32 15
f 15 32 16
f 32 33 16
f 16 33 17
f 33 34 17
f 51 52 35
f 52 53 36
f 53 54 37
f 54 55 38
f 55 56 39
f 56 57 40
f 57 58 41
f 58 59 42
f 59 60 43
f 60 61 44
f 61 62 45
f 62 63 46
f 63 64 47
f 64 65 48
f 65 66 49
f 66 67 50
f 85 84 68
f 86 85 69
f 87 86 70
f 88 87 71
f 89 88 72
f 90 89 73
f 91 90 74
f 92 91 75
f 93 92 76
f 94 93 77
f 95 94 78
f 96 95 79
f 97 96 80
f 98 97 81
f 99 98 82
f 100 99 83
