# Exported from Three.js
o spoke_front_20
v 0.9839446126201878 -21.071860776451377 -21.353789631341463
v 1.0614138042457948 -21.080070057917624 -21.34923228259065
v 1.1295333071037703 -21.108547708789516 -21.323965815878886
v 1.1779325221311505 -21.152958287202953 -21.281836798342113
v 1.1992431359033908 -21.2065406666412 -21.229259010871175
v 1.1902207761345351 -21.26113742263732 -21.174236936756728
v 1.1522390412479444 -21.30843669940143 -21.125147183839317
v 1.091080273770612 -21.341237594306502 -21.089463236986763
v 1.0160553687885057 -21.35454648912265 -21.072617634232564
v 0.9385861771628988 -21.346337207656404 -21.07717498298338
v 0.8704666743049232 -21.317859556784512 -21.102441449695142
v 0.822067459277543 -21.273448978371075 -21.144570467231915
v 0.8007568455053027 -21.21986659893283 -21.197148254702853
v 0.8097792052741584 -21.16526984293671 -21.2521703288173
v 0.8477609401607491 -21.1179705661726 -21.30126008173471
v 0.9089197076380816 -21.085169671267526 -21.336944028587265
v 0.9839446126201878 -21.071860776451377 -21.353789631341463
v 1.9839446312114943 0.1413430535262279 -0.1405858013638639
v 2.061413822837101 0.13313377205998123 -0.13602845261305063
v 2.1295333256950766 0.1046561211880892 -0.11076198590128783
v 2.1779325407224572 0.060245542774651994 -0.0686329683645166
v 2.199243154494697 0.0066631633364053755 -0.016055180893575383
v 2.1902207947258416 -0.04793359265971375 0.038966893220868215
v 2.1522390598392507 -0.0952328694238247 0.08805664613828057
v 2.0910802923619185 -0.12803376432889735 0.12374059299083484
v 2.0160553873798124 -0.14134265914504596 0.14058619574503162
v 1.9385861957542052 -0.1331333776787993 0.13602884699421836
v 1.8704666928962297 -0.10465572680690727 0.11076238028245555
v 1.8220674778688495 -0.06024514839347006 0.06863336274568432
v 1.8007568640966092 -0.0066627689552234415 0.016055575274743106
v 1.8097792238654649 0.04793398704089569 -0.03896649883970049
v 1.8477609587520556 0.09523326380500663 -0.08805625175711285
v 1.908919726229388 0.12803415871007928 -0.12374019860966712
v 1.9839446312114943 0.1413430535262279 -0.1405858013638639
v 0.9999999907043468 -21.213203632787014 -21.213203632787014
v 0.9999999907043468 -21.213203632787014 -21.213203632787014
v 0.9999999907043468 -21.213203632787014 -21.213203632787014
v 0.9999999907043468 -21.213203632787014 -21.213203632787014
v 0.9999999907043468 -21.213203632787014 -21.213203632787014
v 0.9999999907043468 -21.213203632787014 -21.213203632787014
v 0.9999999907043468 -21.213203632787014 -21.213203632787014
v 0.9999999907043468 -21.213203632787014 -21.213203632787014
v 0.9999999907043468 -21.213203632787014 -21.213203632787014
v 0.9999999907043468 -21.213203632787014 -21.213203632787014
v 0.9999999907043468 -21.213203632787014 -21.213203632787014
v 0.9999999907043468 -21.213203632787014 -21.213203632787014
v 0.9999999907043468 -21.213203632787014 -21.213203632787014
v 0.9999999907043468 -21.213203632787014 -21.213203632787014
v 0.9999999907043468 -21.213203632787014 -21.213203632787014
v 0.9999999907043468 -21.213203632787014 -21.213203632787014
v 0.9839446126201878 -21.071860776451377 -21.353789631341463
v 1.0614138042457948 -21.080070057917624 -21.34923228259065
v 1.1295333071037703 -21.108547708789516 -21.323965815878886
v 1.1779325221311505 -21.152958287202953 -21.281836798342113
v 1.1992431359033908 -21.2065406666412 -21.229259010871175
v 1.1902207761345351 -21.26113742263732 -21.174236936756728
v 1.1522390412479444 -21.30843669940143 -21.125147183839317
v 1.091080273770612 -21.341237594306502 -21.089463236986763
v 1.0160553687885057 -21.35454648912265 -21.072617634232564
v 0.9385861771628988 -21.346337207656404 -21.07717498298338
v 0.8704666743049232 -21.317859556784512 -21.102441449695142
v 0.822067459277543 -21.273448978371075 -21.144570467231915
v 0.8007568455053027 -21.21986659893283 -21.197148254702853
v 0.8097792052741584 -21.16526984293671 -21.2521703288173
v 0.8477609401607491 -21.1179705661726 -21.30126008173471
v 0.9089197076380816 -21.085169671267526 -21.336944028587265
v 0.9839446126201878 -21.071860776451377 -21.353789631341463
v 2.000000009295653 1.971905909670113e-7 1.9719058386158395e-7
v 2.000000009295653 1.971905909670113e-7 1.9719058386158395e-7
v 2.000000009295653 1.971905909670113e-7 1.9719058386158395e-7
v 2.000000009295653 1.971905909670113e-7 1.9719058386158395e-7
v 2.000000009295653 1.971905909670113e-7 1.9719058386158395e-7
v 2.000000009295653 1.971905909670113e-7 1.9719058386158395e-7
v 2.000000009295653 1.971905909670113e-7 1.9719058386158395e-7
v 2.000000009295653 1.971905909670113e-7 1.9719058386158395e-7
v 2.000000009295653 1.971905909670113e-7 1.9719058386158395e-7
v 2.000000009295653 1.971905909670113e-7 1.9719058386158395e-7
v 2.000000009295653 1.971905909670113e-7 1.9719058386158395e-7
v 2.000000009295653 1.971905909670113e-7 1.9719058386158395e-7
v 2.000000009295653 1.971905909670113e-7 1.9719058386158395e-7
v 2.000000009295653 1.971905909670113e-7 1.9719058386158395e-7
v 2.000000009295653 1.971905909670113e-7 1.9719058386158395e-7
v 2.000000009295653 1.971905909670113e-7 1.9719058386158395e-7
v 1.9839446312114943 0.1413430535262279 -0.1405858013638639
v 2.061413822837101 0.13313377205998123 -0.13602845261305063
v 2.1295333256950766 0.1046561211880892 -0.11076198590128783
v 2.1779325407224572 0.060245542774651994 -0.0686329683645166
v 2.199243154494697 0.0066631633364053755 -0.016055180893575383
v 2.1902207947258416 -0.04793359265971375 0.038966893220868215
v 2.1522390598392507 -0.0952328694238247 0.08805664613828057
v 2.0910802923619185 -0.12803376432889735 0.12374059299083484
v 2.0160553873798124 -0.14134265914504596 0.14058619574503162
v 1.9385861957542052 -0.1331333776787993 0.13602884699421836
v 1.8704666928962297 -0.10465572680690727 0.11076238028245555
v 1.8220674778688495 -0.06024514839347006 0.06863336274568432
v 1.8007568640966092 -0.0066627689552234415 0.016055575274743106
v 1.8097792238654649 0.04793398704089569 -0.03896649883970049
v 1.8477609587520556 0.09523326380500663 -0.08805625175711285
v 1.908919726229388 0.12803415871007928 -0.12374019860966712
v 1.9839446312114943 0.1413430535262279 -0.1405858013638639
f 1 18 2
f 18 19 2
f 2 19 3
f 19 20 3
f 3 20 4
f 20 21 4
f 4 21 5
f 21 22 5
f 5 22 6
f 22 23 6
f 6 23 7
f 23 24 7
f 7 24 8
f 24 25 8
f 8 25 9
f 25 26 9
f 9 26 10
f 26 27 10
f 10 27 11
f 27 28 11
f 11 28 12
f 28 29 12
f 12 29 13
f 29 30 13
f 13 30 14
f 30 31 14
f 14 31 15
f 31 32 15
f 15 32 16
f 32 33 16
f 16 33 17
f 33 34 17
f 51 52 35
f 52 53 36
f 53 54 37
f 54 55 38
f 55 56 39
f 56 57 40
f 57 58 41
f 58 59 42
f 59 60 43
f 60 61 44
f 61 62 45
f 62 63 46
f 63 64 47
f 64 65 48
f 65 66 49
f 66 67 50
f 85 84 68
f 86 85 69
f 87 86 70
f 88 87 71
f 89 88 72
f 90 89 73
f 91 90 74
f 92 91 75
f 93 92 76
f 94 93 77
f 95 94 78
f 96 95 79
f 97 96 80
f 98 97 81
f 99 98 82
f 100 99 83
