# Exported from Three.js
o spoke_back_23
v -0.9342502557165966 -29.384562279279038 -6.037523821045445
v -0.8670175641898583 -29.390080511693796 -5.998294346386196
v -0.8200302285344221 -29.400695490082 -5.9369009417671545
v -0.8004416780675858 -29.414791185316144 -5.8626901765415464
v -0.811234055156451 -29.430221651753932 -5.786959979900857
v -0.8507643450237681 -29.44463774163385 -5.721239587962483
v -0.9130143983780936 -29.45584473851732 -5.675534318166392
v -0.9885072294630466 -29.462136472872345 -5.656802416434839
v -1.0657497256921005 -29.462555091937197 -5.667895608731772
v -1.1329824172188387 -29.45703685952244 -5.707125083391022
v -1.179969752874275 -29.44642188113424 -5.768518488010063
v -1.1995583033411112 -29.432326185900095 -5.842729253235671
v -1.188765926252246 -29.416895719462303 -5.9184594498763605
v -1.149235636384929 -29.402479629582388 -5.9841798418147345
v -1.0869855830306032 -29.391272632698918 -6.029885111610826
v -1.0114927519456505 -29.384980898343898 -6.048617013342378
v -0.9342502557165966 -29.384562279279038 -6.037523821045445
v -1.9342502743078995 0.03899667984028987 -0.18481405175208776
v -1.8670175827811613 0.033478447425531854 -0.14558457709283745
v -1.820030247125725 0.022863469037329054 -0.08419117247379626
v -1.8004416966588888 0.008767773803185719 -0.00998040724818905
v -1.811234073747754 -0.006662692634604284 0.06574978939250098
v -1.850764363615071 -0.021078782514521777 0.1314701813308754
v -1.9130144169693968 -0.032285779397991377 0.17717545112696653
v -1.9885072480543495 -0.03857751375301355 0.195907352858518
v -2.065749744283403 -0.03899613281786962 0.18481416056158606
v -2.132982435810142 -0.033477900403111605 0.14558468590233575
v -2.179969771465578 -0.022862922014908804 0.08419128128329456
v -2.199558321932414 -0.008767226780765469 0.00998051605768735
v -2.1887659448435492 0.006663239657024533 -0.06574968058300268
v -2.149235654976232 0.021079329536942026 -0.1314700725213771
v -2.0869856016219064 0.032286326420411626 -0.17717534231746823
v -2.0114927705369534 0.0385780607754338 -0.1959072440490197
v -1.9342502743078995 0.03899667984028987 -0.18481405175208776
v -0.9999999907043485 -29.42355868560812 -5.852709714888609
v -0.9999999907043485 -29.42355868560812 -5.852709714888609
v -0.9999999907043485 -29.42355868560812 -5.852709714888609
v -0.9999999907043485 -29.42355868560812 -5.852709714888609
v -0.9999999907043485 -29.42355868560812 -5.852709714888609
v -0.9999999907043485 -29.42355868560812 -5.852709714888609
v -0.9999999907043485 -29.42355868560812 -5.852709714888609
v -0.9999999907043485 -29.42355868560812 -5.852709714888609
v -0.9999999907043485 -29.42355868560812 -5.852709714888609
v -0.9999999907043485 -29.42355868560812 -5.852709714888609
v -0.9999999907043485 -29.42355868560812 -5.852709714888609
v -0.9999999907043485 -29.42355868560812 -5.852709714888609
v -0.9999999907043485 -29.42355868560812 -5.852709714888609
v -0.9999999907043485 -29.42355868560812 -5.852709714888609
v -0.9999999907043485 -29.42355868560812 -5.852709714888609
v -0.9999999907043485 -29.42355868560812 -5.852709714888609
v -0.9342502557165966 -29.384562279279038 -6.037523821045445
v -0.8670175641898583 -29.390080511693796 -5.998294346386196
v -0.8200302285344221 -29.400695490082 -5.9369009417671545
v -0.8004416780675858 -29.414791185316144 -5.8626901765415464
v -0.811234055156451 -29.430221651753932 -5.786959979900857
v -0.8507643450237681 -29.44463774163385 -5.721239587962483
v -0.9130143983780936 -29.45584473851732 -5.675534318166392
v -0.9885072294630466 -29.462136472872345 -5.656802416434839
v -1.0657497256921005 -29.462555091937197 -5.667895608731772
v -1.1329824172188387 -29.45703685952244 -5.707125083391022
v -1.179969752874275 -29.44642188113424 -5.768518488010063
v -1.1995583033411112 -29.432326185900095 -5.842729253235671
v -1.188765926252246 -29.416895719462303 -5.9184594498763605
v -1.149235636384929 -29.402479629582388 -5.9841798418147345
v -1.0869855830306032 -29.391272632698918 -6.029885111610826
v -1.0114927519456505 -29.384980898343898 -6.048617013342378
v -0.9342502557165966 -29.384562279279038 -6.037523821045445
v -2.0000000092956514 2.73511210124866e-7 5.440474915019422e-8
v -2.0000000092956514 2.73511210124866e-7 5.440474915019422e-8
v -2.0000000092956514 2.73511210124866e-7 5.440474915019422e-8
v -2.0000000092956514 2.73511210124866e-7 5.440474915019422e-8
v -2.0000000092956514 2.73511210124866e-7 5.440474915019422e-8
v -2.0000000092956514 2.73511210124866e-7 5.440474915019422e-8
v -2.0000000092956514 2.73511210124866e-7 5.440474915019422e-8
v -2.0000000092956514 2.73511210124866e-7 5.440474915019422e-8
v -2.0000000092956514 2.73511210124866e-7 5.440474915019422e-8
v -2.0000000092956514 2.73511210124866e-7 5.440474915019422e-8
v -2.0000000092956514 2.73511210124866e-7 5.440474915019422e-8
v -2.0000000092956514 2.73511210124866e-7 5.440474915019422e-8
v -2.0000000092956514 2.73511210124866e-7 5.440474915019422e-8
v -2.0000000092956514 2.73511210124866e-7 5.440474915019422e-8
v -2.0000000092956514 2.73511210124866e-7 5.440474915019422e-8
v -2.0000000092956514 2.73511210124866e-7 5.440474915019422e-8
v -1.9342502743078995 0.03899667984028987 -0.18481405175208776
v -1.8670175827811613 0.033478447425531854 -0.14558457709283745
v -1.820030247125725 0.022863469037329054 -0.08419117247379626
v -1.8004416966588888 0.008767773803185719 -0.00998040724818905
v -1.811234073747754 -0.006662692634604284 0.06574978939250098
v -1.850764363615071 -0.021078782514521777 0.1314701813308754
v -1.9130144169693968 -0.032285779397991377 0.17717545112696653
v -1.9885072480543495 -0.03857751375301355 0.195907352858518
v -2.065749744283403 -0.03899613281786962 0.18481416056158606
v -2.132982435810142 -0.033477900403111605 0.14558468590233575
v -2.179969771465578 -0.022862922014908804 0.08419128128329456
v -2.199558321932414 -0.008767226780765469 0.00998051605768735
v -2.1887659448435492 0.006663239657024533 -0.06574968058300268
v -2.149235654976232 0.021079329536942026 -0.1314700725213771
v -2.0869856016219064 0.032286326420411626 -0.17717534231746823
v -2.0114927705369534 0.0385780607754338 -0.1959072440490197
v -1.9342502743078995 0.03899667984028987 -0.18481405175208776
f 1 18 2
f 18 19 2
f 2 19 3
f 19 20 3
f 3 20 4
f 20 21 4
f 4 21 5
f 21 22 5
f 5 22 6
f 22 23 6
f 6 23 7
f 23 24 7
f 7 24 8
f 24 25 8
f 8 25 9
f 25 26 9
f 9 26 10
f 26 27 10
f 10 27 11
f 27 28 11
f 11 28 12
f 28 29 12
f 12 29 13
f 29 30 13
f 13 30 14
f 30 31 14
f 14 31 15
f 31 32 15
f 15 32 16
f 32 33 16
f 16 33 17
f 33 34 17
f 51 52 35
f 52 53 36
f 53 54 37
f 54 55 38
f 55 56 39
f 56 57 40
f 57 58 41
f 58 59 42
f 59 60 43
f 60 61 44
f 61 62 45
f 62 63 46
f 63 64 47
f 64 65 48
f 65 66 49
f 66 67 50
f 85 84 68
f 86 85 69
f 87 86 70
f 88 87 71
f 89 88 72
f 90 89 73
f 91 90 74
f 92 91 75
f 93 92 76
f 94 93 77
f 95 94 78
f 96 95 79
f 97 96 80
f 98 97 81
f 99 98 82
f 100 99 83
