# Exported from Three.js
o spoke_back_15
v -0.9945343757716859 6.04875788847779 -29.384376522857053
v -0.9184848217585772 6.031284797851665 -29.385267488250353
v -0.8548452040735577 5.986625283507053 -29.391987938257884
v -0.8133041032173759 5.921578322661724 -29.403514751925975
v -0.800185744146098 5.846046748742806 -29.418093070675454
v -0.8174873036518454 5.771529551381756 -29.43350348004955
v -0.8625747510792345 5.709371288887105 -29.44739988595267
v -0.9285839609992869 5.66903501857567 -29.45766668253141
v -1.0054656056370073 5.656661541299448 -29.462740848359182
v -1.0815151596501158 5.674134631925572 -29.46184988296588
v -1.1451547773351354 5.718794146270186 -29.455129432958348
v -1.186695878191317 5.783841107115514 -29.443602619290257
v -1.199814237262595 5.859372681034433 -29.429024300540775
v -1.1825126777568475 5.933889878395481 -29.413613891166683
v -1.1374252303294585 5.996048140890133 -29.39971748526356
v -1.071416020409406 6.036384411201569 -29.38945068868482
v -0.9945343757716859 6.04875788847779 -29.384376522857053
v -1.9945343943629927 0.196048119184411 0.03918243626226747
v -1.9184848403498842 0.17857502855828633 0.038291470868966115
v -1.8548452226648646 0.13391551421367298 0.03157102086143482
v -1.813304121808683 0.06886855336834508 0.020044207193343766
v -1.800185762737405 -0.006663020550573773 0.00546588844386342
v -1.8174873222431525 -0.08118021791162278 -0.009944520930229572
v -1.8625747696705415 -0.14333848040627428 -0.02384092683335126
v -1.928583979590594 -0.18367475071770967 -0.03410772341209167
v -2.005465624228314 -0.1960482279939315 -0.039181889239861434
v -2.081515178241423 -0.17857513736780684 -0.038290923846560077
v -2.1451547959264423 -0.1339156230231935 -0.03157047383902878
v -2.186695896782624 -0.06886866217786558 -0.020043660170937727
v -2.199814255853902 0.006662911741053268 -0.0054653414214573814
v -2.1825126963481547 0.08118010910210227 0.009945067952635611
v -2.1374252489207652 0.14333837159675378 0.0238414738557573
v -2.071416039000713 0.18367464190818916 0.03410827043449771
v -1.9945343943629927 0.196048119184411 0.03918243626226747
v -0.9999999907043465 5.8527097148886185 -29.423558685608114
v -0.9999999907043465 5.8527097148886185 -29.423558685608114
v -0.9999999907043465 5.8527097148886185 -29.423558685608114
v -0.9999999907043465 5.8527097148886185 -29.423558685608114
v -0.9999999907043465 5.8527097148886185 -29.423558685608114
v -0.9999999907043465 5.8527097148886185 -29.423558685608114
v -0.9999999907043465 5.8527097148886185 -29.423558685608114
v -0.9999999907043465 5.8527097148886185 -29.423558685608114
v -0.9999999907043465 5.8527097148886185 -29.423558685608114
v -0.9999999907043465 5.8527097148886185 -29.423558685608114
v -0.9999999907043465 5.8527097148886185 -29.423558685608114
v -0.9999999907043465 5.8527097148886185 -29.423558685608114
v -0.9999999907043465 5.8527097148886185 -29.423558685608114
v -0.9999999907043465 5.8527097148886185 -29.423558685608114
v -0.9999999907043465 5.8527097148886185 -29.423558685608114
v -0.9999999907043465 5.8527097148886185 -29.423558685608114
v -0.9945343757716859 6.04875788847779 -29.384376522857053
v -0.9184848217585772 6.031284797851665 -29.385267488250353
v -0.8548452040735577 5.986625283507053 -29.391987938257884
v -0.8133041032173759 5.921578322661724 -29.403514751925975
v -0.800185744146098 5.846046748742806 -29.418093070675454
v -0.8174873036518454 5.771529551381756 -29.43350348004955
v -0.8625747510792345 5.709371288887105 -29.44739988595267
v -0.9285839609992869 5.66903501857567 -29.45766668253141
v -1.0054656056370073 5.656661541299448 -29.462740848359182
v -1.0815151596501158 5.674134631925572 -29.46184988296588
v -1.1451547773351354 5.718794146270186 -29.455129432958348
v -1.186695878191317 5.783841107115514 -29.443602619290257
v -1.199814237262595 5.859372681034433 -29.429024300540775
v -1.1825126777568475 5.933889878395481 -29.413613891166683
v -1.1374252303294585 5.996048140890133 -29.39971748526356
v -1.071416020409406 6.036384411201569 -29.38945068868482
v -0.9945343757716859 6.04875788847779 -29.384376522857053
v -2.0000000092956536 -5.4404760252424467e-8 2.7351120301943865e-7
v -2.0000000092956536 -5.4404760252424467e-8 2.7351120301943865e-7
v -2.0000000092956536 -5.4404760252424467e-8 2.7351120301943865e-7
v -2.0000000092956536 -5.4404760252424467e-8 2.7351120301943865e-7
v -2.0000000092956536 -5.4404760252424467e-8 2.7351120301943865e-7
v -2.0000000092956536 -5.4404760252424467e-8 2.7351120301943865e-7
v -2.0000000092956536 -5.4404760252424467e-8 2.7351120301943865e-7
v -2.0000000092956536 -5.4404760252424467e-8 2.7351120301943865e-7
v -2.0000000092956536 -5.4404760252424467e-8 2.7351120301943865e-7
v -2.0000000092956536 -5.4404760252424467e-8 2.7351120301943865e-7
v -2.0000000092956536 -5.4404760252424467e-8 2.7351120301943865e-7
v -2.0000000092956536 -5.4404760252424467e-8 2.7351120301943865e-7
v -2.0000000092956536 -5.4404760252424467e-8 2.7351120301943865e-7
v -2.0000000092956536 -5.4404760252424467e-8 2.7351120301943865e-7
v -2.0000000092956536 -5.4404760252424467e-8 2.7351120301943865e-7
v -2.0000000092956536 -5.4404760252424467e-8 2.7351120301943865e-7
v -1.9945343943629927 0.196048119184411 0.03918243626226747
v -1.9184848403498842 0.17857502855828633 0.038291470868966115
v -1.8548452226648646 0.13391551421367298 0.03157102086143482
v -1.813304121808683 0.06886855336834508 0.020044207193343766
v -1.800185762737405 -0.006663020550573773 0.00546588844386342
v -1.8174873222431525 -0.08118021791162278 -0.009944520930229572
v -1.8625747696705415 -0.14333848040627428 -0.02384092683335126
v -1.928583979590594 -0.18367475071770967 -0.03410772341209167
v -2.005465624228314 -0.1960482279939315 -0.039181889239861434
v -2.081515178241423 -0.17857513736780684 -0.038290923846560077
v -2.1451547959264423 -0.1339156230231935 -0.03157047383902878
v -2.186695896782624 -0.06886866217786558 -0.020043660170937727
v -2.199814255853902 0.006662911741053268 -0.0054653414214573814
v -2.1825126963481547 0.08118010910210227 0.009945067952635611
v -2.1374252489207652 0.14333837159675378 0.0238414738557573
v -2.071416039000713 0.18367464190818916 0.03410827043449771
v -1.9945343943629927 0.196048119184411 0.03918243626226747
f 1 18 2
f 18 19 2
f 2 19 3
f 19 20 3
f 3 20 4
f 20 21 4
f 4 21 5
f 21 22 5
f 5 22 6
f 22 23 6
f 6 23 7
f 23 24 7
f 7 24 8
f 24 25 8
f 8 25 9
f 25 26 9
f 9 26 10
f 26 27 10
f 10 27 11
f 27 28 11
f 11 28 12
f 28 29 12
f 12 29 13
f 29 30 13
f 13 30 14
f 30 31 14
f 14 31 15
f 31 32 15
f 15 32 16
f 32 33 16
f 16 33 17
f 33 34 17
f 51 52 35
f 52 53 36
f 53 54 37
f 54 55 38
f 55 56 39
f 56 57 40
f 57 58 41
f 58 59 42
f 59 60 43
f 60 61 44
f 61 62 45
f 62 63 46
f 63 64 47
f 64 65 48
f 65 66 49
f 66 67 50
f 85 84 68
f 86 85 69
f 87 86 70
f 88 87 71
f 89 88 72
f 90 89 73
f 91 90 74
f 92 91 75
f 93 92 76
f 94 93 77
f 95 94 78
f 96 95 79
f 97 96 80
f 98 97 81
f 99 98 82
f 100 99 83
