# Exported from Three.js
o spoke_front_7
v 1.0006560516346852 29.384562279279038 6.048869983723984
v 1.0770999001882557 29.390080511693796 6.0341892306680585
v 1.1418059952980182 29.400695490082 5.991879880656976
v 1.1849233956655651 29.41479118531614 5.928383118768619
v 1.1998878984383772 29.430221651753932 5.853365775818949
v 1.184421268383888 29.444637741633848 5.778248553504188
v 1.1408781850036378 29.45584473851732 5.714467359414625
v 1.07588765769267 29.46213647287234 5.67173232639084
v 0.9993439297740079 29.462555091937197 5.656549446053237
v 0.9229000812204372 29.45703685952244 5.6712301991091625
v 0.858193986110675 29.446421881134235 5.713539549120245
v 0.8150765857431279 29.432326185900095 5.777036311008602
v 0.8001120829703159 29.416895719462303 5.852053653958272
v 0.8155787130248051 29.402479629582388 5.927170876273033
v 0.8591217964050551 29.391272632698914 5.990952070362596
v 0.924112323716023 29.384980898343894 6.033687103386381
v 1.0006560516346852 29.384562279279038 6.048869983723984
v 2.0006560702259923 -0.03899667984028454 0.19616021443061227
v 2.0770999187795627 -0.033478447425526525 0.18147946137468685
v 2.141806013889325 -0.022863469037323725 0.13917011136360413
v 2.184923414256872 -0.00876777380318039 0.07567334947524795
v 2.199887917029684 0.006662692634609613 0.0006560065255780678
v 2.184421286975195 0.021078782514527106 -0.0744612157891833
v 2.1408782035949447 0.032285779397996706 -0.1382424098787456
v 2.075887676283977 0.03857751375301888 -0.18097744290253148
v 1.9993439483653148 0.03899613281787495 -0.19616032324013366
v 1.9229000998117443 0.033477900403116934 -0.18147957018420824
v 1.8581940047019818 0.022862922014914133 -0.13917022017312553
v 1.8150766043344349 0.008767226780770798 -0.07567345828476935
v 1.8001121015616228 -0.006663239657019204 -0.0006561153350994609
v 1.815578731616112 -0.021079329536936697 0.0744611069796619
v 1.8591218149963622 -0.0322863264204063 0.1382423010692242
v 1.92411234230733 -0.03857806077542847 0.1809773340930101
v 2.0006560702259923 -0.03899667984028454 0.19616021443061227
v 0.9999999907043465 29.423558685608118 5.8527097148886105
v 0.9999999907043465 29.423558685608118 5.8527097148886105
v 0.9999999907043465 29.423558685608118 5.8527097148886105
v 0.9999999907043465 29.423558685608118 5.8527097148886105
v 0.9999999907043465 29.423558685608118 5.8527097148886105
v 0.9999999907043465 29.423558685608118 5.8527097148886105
v 0.9999999907043465 29.423558685608118 5.8527097148886105
v 0.9999999907043465 29.423558685608118 5.8527097148886105
v 0.9999999907043465 29.423558685608118 5.8527097148886105
v 0.9999999907043465 29.423558685608118 5.8527097148886105
v 0.9999999907043465 29.423558685608118 5.8527097148886105
v 0.9999999907043465 29.423558685608118 5.8527097148886105
v 0.9999999907043465 29.423558685608118 5.8527097148886105
v 0.9999999907043465 29.423558685608118 5.8527097148886105
v 0.9999999907043465 29.423558685608118 5.8527097148886105
v 0.9999999907043465 29.423558685608118 5.8527097148886105
v 1.0006560516346852 29.384562279279038 6.048869983723984
v 1.0770999001882557 29.390080511693796 6.0341892306680585
v 1.1418059952980182 29.400695490082 5.991879880656976
v 1.1849233956655651 29.41479118531614 5.928383118768619
v 1.1998878984383772 29.430221651753932 5.853365775818949
v 1.184421268383888 29.444637741633848 5.778248553504188
v 1.1408781850036378 29.45584473851732 5.714467359414625
v 1.07588765769267 29.46213647287234 5.67173232639084
v 0.9993439297740079 29.462555091937197 5.656549446053237
v 0.9229000812204372 29.45703685952244 5.6712301991091625
v 0.858193986110675 29.446421881134235 5.713539549120245
v 0.8150765857431279 29.432326185900095 5.777036311008602
v 0.8001120829703159 29.416895719462303 5.852053653958272
v 0.8155787130248051 29.402479629582388 5.927170876273033
v 0.8591217964050551 29.391272632698914 5.990952070362596
v 0.924112323716023 29.384980898343894 6.033687103386381
v 1.0006560516346852 29.384562279279038 6.048869983723984
v 2.0000000092956536 -2.735112047957955e-7 -5.4404760696513677e-8
v 2.0000000092956536 -2.735112047957955e-7 -5.4404760696513677e-8
v 2.0000000092956536 -2.735112047957955e-7 -5.4404760696513677e-8
v 2.0000000092956536 -2.735112047957955e-7 -5.4404760696513677e-8
v 2.0000000092956536 -2.735112047957955e-7 -5.4404760696513677e-8
v 2.0000000092956536 -2.735112047957955e-7 -5.4404760696513677e-8
v 2.0000000092956536 -2.735112047957955e-7 -5.4404760696513677e-8
v 2.0000000092956536 -2.735112047957955e-7 -5.4404760696513677e-8
v 2.0000000092956536 -2.735112047957955e-7 -5.4404760696513677e-8
v 2.0000000092956536 -2.735112047957955e-7 -5.4404760696513677e-8
v 2.0000000092956536 -2.735112047957955e-7 -5.4404760696513677e-8
v 2.0000000092956536 -2.735112047957955e-7 -5.4404760696513677e-8
v 2.0000000092956536 -2.735112047957955e-7 -5.4404760696513677e-8
v 2.0000000092956536 -2.735112047957955e-7 -5.4404760696513677e-8
v 2.0000000092956536 -2.735112047957955e-7 -5.4404760696513677e-8
v 2.0000000092956536 -2.735112047957955e-7 -5.4404760696513677e-8
v 2.0006560702259923 -0.03899667984028454 0.19616021443061227
v 2.0770999187795627 -0.033478447425526525 0.18147946137468685
v 2.141806013889325 -0.022863469037323725 0.13917011136360413
v 2.184923414256872 -0.00876777380318039 0.07567334947524795
v 2.199887917029684 0.006662692634609613 0.0006560065255780678
v 2.184421286975195 0.021078782514527106 -0.0744612157891833
v 2.1408782035949447 0.032285779397996706 -0.1382424098787456
v 2.075887676283977 0.03857751375301888 -0.18097744290253148
v 1.9993439483653148 0.03899613281787495 -0.19616032324013366
v 1.9229000998117443 0.033477900403116934 -0.18147957018420824
v 1.8581940047019818 0.022862922014914133 -0.13917022017312553
v 1.8150766043344349 0.008767226780770798 -0.07567345828476935
v 1.8001121015616228 -0.006663239657019204 -0.0006561153350994609
v 1.815578731616112 -0.021079329536936697 0.0744611069796619
v 1.8591218149963622 -0.0322863264204063 0.1382423010692242
v 1.92411234230733 -0.03857806077542847 0.1809773340930101
v 2.0006560702259923 -0.03899667984028454 0.19616021443061227
f 1 18 2
f 18 19 2
f 2 19 3
f 19 20 3
f 3 20 4
f 20 21 4
f 4 21 5
f 21 22 5
f 5 22 6
f 22 23 6
f 6 23 7
f 23 24 7
f 7 24 8
f 24 25 8
f 8 25 9
f 25 26 9
f 9 26 10
f 26 27 10
f 10 27 11
f 27 28 11
f 11 28 12
f 28 29 12
f 12 29 13
f 29 30 13
f 13 30 14
f 30 31 14
f 14 31 15
f 31 32 15
f 15 32 16
f 32 33 16
f 16 33 17
f 33 34 17
f 51 52 35
f 52 53 36
f 53 54 37
f 54 55 38
f 55 56 39
f 56 57 40
f 57 58 41
f 58 59 42
f 59 60 43
f 60 61 44
f 61 62 45
f 62 63 46
f 63 64 47
f 64 65 48
f 65 66 49
f 66 67 50
f 85 84 68
f 86 85 69
f 87 86 70
f 88 87 71
f 89 88 72
f 90 89 73
f 91 90 74
f 92 91 75
f 93 92 76
f 94 93 77
f 95 94 78
f 96 95 79
f 97 96 80
f 98 97 81
f 99 98 82
f 100 99 83
