# Exported from Three.js
o spoke_back_16
v -0.9933407231245386 0.19988898437441557 -29.99977830328361
v -0.9173958910149539 0.1821235293314155 -29.997246808879957
v -0.8540267749833199 0.13663143205468373 -29.99513450501224
v -0.8128807742828783 0.070338422381667 -29.993762971655556
v -0.8002219633101079 -0.006662966145806778 -29.993341011289793
v -0.8179775568730014 -0.08264997811541068 -29.993932864408556
v -0.8634444018040313 -0.14605428943775126 -29.99544842590626
v -0.9297006126900477 -0.18722314268130447 -29.997656966269126
v -1.0066592582841545 -0.19988898437440192 -30.000222254455597
v -1.082604090393739 -0.18212352933140186 -30.00275374885925
v -1.1459732064253731 -0.13663143205467007 -30.004866052726967
v -1.1871192071258148 -0.07033842238165335 -30.00623758608365
v -1.199778018098585 0.006662966145820425 -30.006659546449413
v -1.1820224245356916 0.08264997811542434 -30.00606769333065
v -1.1365555796046618 0.1460542894377649 -30.004552131832945
v -1.0702993687186453 0.18722314268131812 -30.00234359147008
v -0.9933407231245386 0.19988898437441557 -29.99977830328361
v -1.9933407417158455 0.19988898437440558 0.00022225445559698187
v -1.917395909606261 0.18212352933140552 0.002753748859248617
v -1.8540267935746269 0.13663143205467373 0.004866052726969272
v -1.8128807928741852 0.07033842238165701 0.006237586083651436
v -1.800221981901415 -0.0066629661458167755 0.006659546449411025
v -1.8179775754643084 -0.08264997811542067 0.0060676933306478276
v -1.8634444203953382 -0.14605428943776125 0.004552131832946671
v -1.9297006312813547 -0.18722314268131446 0.0023435914700797866
v -2.006659276875461 -0.1998889843744119 -0.00022169671639105104
v -2.082604108985046 -0.18212352933141185 -0.002753191120042686
v -2.14597322501668 -0.13663143205468006 -0.004865494987763341
v -2.1871192257171215 -0.07033842238166334 -0.0062370283444455055
v -2.1997780366898922 0.006662966145810428 -0.006658988710205094
v -2.1820224431269986 0.08264997811541434 -0.006067135591441897
v -2.1365555981959687 0.14605428943775492 -0.00455157409374074
v -2.0702993873099524 0.18722314268130813 -0.002343033730873856
v -1.9933407417158455 0.19988898437440558 0.00022225445559698187
v -0.9999999907043465 6.83574868946944e-15 -30.000000278869603
v -0.9999999907043465 6.83574868946944e-15 -30.000000278869603
v -0.9999999907043465 6.83574868946944e-15 -30.000000278869603
v -0.9999999907043465 6.83574868946944e-15 -30.000000278869603
v -0.9999999907043465 6.83574868946944e-15 -30.000000278869603
v -0.9999999907043465 6.83574868946944e-15 -30.000000278869603
v -0.9999999907043465 6.83574868946944e-15 -30.000000278869603
v -0.9999999907043465 6.83574868946944e-15 -30.000000278869603
v -0.9999999907043465 6.83574868946944e-15 -30.000000278869603
v -0.9999999907043465 6.83574868946944e-15 -30.000000278869603
v -0.9999999907043465 6.83574868946944e-15 -30.000000278869603
v -0.9999999907043465 6.83574868946944e-15 -30.000000278869603
v -0.9999999907043465 6.83574868946944e-15 -30.000000278869603
v -0.9999999907043465 6.83574868946944e-15 -30.000000278869603
v -0.9999999907043465 6.83574868946944e-15 -30.000000278869603
v -0.9999999907043465 6.83574868946944e-15 -30.000000278869603
v -0.9933407231245386 0.19988898437441557 -29.99977830328361
v -0.9173958910149539 0.1821235293314155 -29.997246808879957
v -0.8540267749833199 0.13663143205468373 -29.99513450501224
v -0.8128807742828783 0.070338422381667 -29.993762971655556
v -0.8002219633101079 -0.006662966145806778 -29.993341011289793
v -0.8179775568730014 -0.08264997811541068 -29.993932864408556
v -0.8634444018040313 -0.14605428943775126 -29.99544842590626
v -0.9297006126900477 -0.18722314268130447 -29.997656966269126
v -1.0066592582841545 -0.19988898437440192 -30.000222254455597
v -1.082604090393739 -0.18212352933140186 -30.00275374885925
v -1.1459732064253731 -0.13663143205467007 -30.004866052726967
v -1.1871192071258148 -0.07033842238165335 -30.00623758608365
v -1.199778018098585 0.006662966145820425 -30.006659546449413
v -1.1820224245356916 0.08264997811542434 -30.00606769333065
v -1.1365555796046618 0.1460542894377649 -30.004552131832945
v -1.0702993687186453 0.18722314268131812 -30.00234359147008
v -0.9933407231245386 0.19988898437441557 -29.99977830328361
v -2.0000000092956536 -3.1618082920273795e-15 2.7886960296541474e-7
v -2.0000000092956536 -3.1618082920273795e-15 2.7886960296541474e-7
v -2.0000000092956536 -3.1618082920273795e-15 2.7886960296541474e-7
v -2.0000000092956536 -3.1618082920273795e-15 2.7886960296541474e-7
v -2.0000000092956536 -3.1618082920273795e-15 2.7886960296541474e-7
v -2.0000000092956536 -3.1618082920273795e-15 2.7886960296541474e-7
v -2.0000000092956536 -3.1618082920273795e-15 2.7886960296541474e-7
v -2.0000000092956536 -3.1618082920273795e-15 2.7886960296541474e-7
v -2.0000000092956536 -3.1618082920273795e-15 2.7886960296541474e-7
v -2.0000000092956536 -3.1618082920273795e-15 2.7886960296541474e-7
v -2.0000000092956536 -3.1618082920273795e-15 2.7886960296541474e-7
v -2.0000000092956536 -3.1618082920273795e-15 2.7886960296541474e-7
v -2.0000000092956536 -3.1618082920273795e-15 2.7886960296541474e-7
v -2.0000000092956536 -3.1618082920273795e-15 2.7886960296541474e-7
v -2.0000000092956536 -3.1618082920273795e-15 2.7886960296541474e-7
v -2.0000000092956536 -3.1618082920273795e-15 2.7886960296541474e-7
v -1.9933407417158455 0.19988898437440558 0.00022225445559698187
v -1.917395909606261 0.18212352933140552 0.002753748859248617
v -1.8540267935746269 0.13663143205467373 0.004866052726969272
v -1.8128807928741852 0.07033842238165701 0.006237586083651436
v -1.800221981901415 -0.0066629661458167755 0.006659546449411025
v -1.8179775754643084 -0.08264997811542067 0.0060676933306478276
v -1.8634444203953382 -0.14605428943776125 0.004552131832946671
v -1.9297006312813547 -0.18722314268131446 0.0023435914700797866
v -2.006659276875461 -0.1998889843744119 -0.00022169671639105104
v -2.082604108985046 -0.18212352933141185 -0.002753191120042686
v -2.14597322501668 -0.13663143205468006 -0.004865494987763341
v -2.1871192257171215 -0.07033842238166334 -0.0062370283444455055
v -2.1997780366898922 0.006662966145810428 -0.006658988710205094
v -2.1820224431269986 0.08264997811541434 -0.006067135591441897
v -2.1365555981959687 0.14605428943775492 -0.00455157409374074
v -2.0702993873099524 0.18722314268130813 -0.002343033730873856
v -1.9933407417158455 0.19988898437440558 0.00022225445559698187
f 1 18 2
f 18 19 2
f 2 19 3
f 19 20 3
f 3 20 4
f 20 21 4
f 4 21 5
f 21 22 5
f 5 22 6
f 22 23 6
f 6 23 7
f 23 24 7
f 7 24 8
f 24 25 8
f 8 25 9
f 25 26 9
f 9 26 10
f 26 27 10
f 10 27 11
f 27 28 11
f 11 28 12
f 28 29 12
f 12 29 13
f 29 30 13
f 13 30 14
f 30 31 14
f 14 31 15
f 31 32 15
f 15 32 16
f 32 33 16
f 16 33 17
f 33 34 17
f 51 52 35
f 52 53 36
f 53 54 37
f 54 55 38
f 55 56 39
f 56 57 40
f 57 58 41
f 58 59 42
f 59 60 43
f 60 61 44
f 61 62 45
f 62 63 46
f 63 64 47
f 64 65 48
f 65 66 49
f 66 67 50
f 85 84 68
f 86 85 69
f 87 86 70
f 88 87 71
f 89 88 72
f 90 89 73
f 91 90 74
f 92 91 75
f 93 92 76
f 94 93 77
f 95 94 78
f 96 95 79
f 97 96 80
f 98 97 81
f 99 98 82
f 100 99 83
