o spoke_back_1
v -1.005465605637007 5.656661541299439 29.462740848359182
v -0.9285839609992868 5.66903501857566 29.45766668253141
v -0.8625747510792344 5.7093712888870956 29.44739988595267
v -0.8174873036518454 5.771529551381747 29.433503480049552
v -0.8001857441460979 5.846046748742796 29.418093070675457
v -0.8133041032173759 5.9215783226617145 29.403514751925975
v -0.8548452040735576 5.986625283507043 29.391987938257884
v -0.918484821758577 6.031284797851656 29.385267488250356
v -0.9945343757716858 6.04875788847778 29.384376522857053
v -1.0714160204094059 6.036384411201559 29.389450688684825
v -1.1374252303294585 5.996048140890124 29.399717485263565
v -1.1825126777568475 5.9338898783954726 29.413613891166683
v -1.1998142372625948 5.859372681034423 29.429024300540778
v -1.186695878191317 5.783841107115505 29.44360261929026
v -1.1451547773351352 5.718794146270176 29.45512943295835
v -1.0815151596501158 5.674134631925563 29.46184988296588
v -1.005465605637007 5.656661541299439 29.462740848359182
v -2.0054656242283144 -0.19604822799393373 0.03918188923985966
v -1.9285839795905941 -0.1836747507177119 0.034107723412089896
v -1.8625747696705415 -0.1433384804062765 0.023840926833349485
v -1.8174873222431525 -0.081180217911625 0.009944520930227796
v -1.8001857627374052 -0.006663020550575993 -0.005465888443865197
v -1.813304121808683 0.06886855336834286 -0.020044207193345542
v -1.8548452226648648 0.13391551421367076 -0.031571020861436594
v -1.9184848403498842 0.1785750285582841 -0.03829147086896789
v -1.994534394362993 0.1960481191844088 -0.03918243626226925
v -2.071416039000713 0.18367464190818694 -0.03410827043449949
v -2.1374252489207657 0.14333837159675156 -0.023841473855759077
v -2.1825126963481547 0.08118010910210005 -0.009945067952637388
v -2.199814255853902 0.0066629117410510474 0.005465341421455605
v -2.186695896782624 -0.0688686621778678 0.02004366017093595
v -2.1451547959264423 -0.1339156230231957 0.031570473839027
v -2.081515178241423 -0.17857513736780906 0.0382909238465583
v -2.0054656242283144 -0.19604822799393373 0.03918188923985966
v -0.9999999907043464 5.85270971488861 29.423558685608118
v -0.9999999907043464 5.85270971488861 29.423558685608118
v -0.9999999907043464 5.85270971488861 29.423558685608118
v -0.9999999907043464 5.85270971488861 29.423558685608118
v -0.9999999907043464 5.85270971488861 29.423558685608118
v -0.9999999907043464 5.85270971488861 29.423558685608118
v -0.9999999907043464 5.85270971488861 29.423558685608118
v -0.9999999907043464 5.85270971488861 29.423558685608118
v -0.9999999907043464 5.85270971488861 29.423558685608118
v -0.9999999907043464 5.85270971488861 29.423558685608118
v -0.9999999907043464 5.85270971488861 29.423558685608118
v -0.9999999907043464 5.85270971488861 29.423558685608118
v -0.9999999907043464 5.85270971488861 29.423558685608118
v -0.9999999907043464 5.85270971488861 29.423558685608118
v -0.9999999907043464 5.85270971488861 29.423558685608118
v -0.9999999907043464 5.85270971488861 29.423558685608118
v -1.005465605637007 5.656661541299439 29.462740848359182
v -0.9285839609992868 5.66903501857566 29.45766668253141
v -0.8625747510792344 5.7093712888870956 29.44739988595267
v -0.8174873036518454 5.771529551381747 29.433503480049552
v -0.8001857441460979 5.846046748742796 29.418093070675457
v -0.8133041032173759 5.9215783226617145 29.403514751925975
v -0.8548452040735576 5.986625283507043 29.391987938257884
v -0.918484821758577 6.031284797851656 29.385267488250356
v -0.9945343757716858 6.04875788847778 29.384376522857053
v -1.0714160204094059 6.036384411201559 29.389450688684825
v -1.1374252303294585 5.996048140890124 29.399717485263565
v -1.1825126777568475 5.9338898783954726 29.413613891166683
v -1.1998142372625948 5.859372681034423 29.429024300540778
v -1.186695878191317 5.783841107115505 29.44360261929026
v -1.1451547773351352 5.718794146270176 29.45512943295835
v -1.0815151596501158 5.674134631925563 29.46184988296588
v -1.005465605637007 5.656661541299439 29.462740848359182
v -2.0000000092956536 -5.4404762472870516e-8 -2.735112047957955e-7
v -2.0000000092956536 -5.4404762472870516e-8 -2.735112047957955e-7
v -2.0000000092956536 -5.4404762472870516e-8 -2.735112047957955e-7
v -2.0000000092956536 -5.4404762472870516e-8 -2.735112047957955e-7
v -2.0000000092956536 -5.4404762472870516e-8 -2.735112047957955e-7
v -2.0000000092956536 -5.4404762472870516e-8 -2.735112047957955e-7
v -2.0000000092956536 -5.4404762472870516e-8 -2.735112047957955e-7
v -2.0000000092956536 -5.4404762472870516e-8 -2.735112047957955e-7
v -2.0000000092956536 -5.4404762472870516e-8 -2.735112047957955e-7
v -2.0000000092956536 -5.4404762472870516e-8 -2.735112047957955e-7
v -2.0000000092956536 -5.4404762472870516e-8 -2.735112047957955e-7
v -2.0000000092956536 -5.4404762472870516e-8 -2.735112047957955e-7
v -2.0000000092956536 -5.4404762472870516e-8 -2.735112047957955e-7
v -2.0000000092956536 -5.4404762472870516e-8 -2.735112047957955e-7
v -2.0000000092956536 -5.4404762472870516e-8 -2.735112047957955e-7
v -2.0000000092956536 -5.4404762472870516e-8 -2.735112047957955e-7
v -2.0054656242283144 -0.19604822799393373 0.03918188923985966
v -1.9285839795905941 -0.1836747507177119 0.034107723412089896
v -1.8625747696705415 -0.1433384804062765 0.023840926833349485
v -1.8174873222431525 -0.081180217911625 0.009944520930227796
v -1.8001857627374052 -0.006663020550575993 -0.005465888443865197
v -1.813304121808683 0.06886855336834286 -0.020044207193345542
v -1.8548452226648648 0.13391551421367076 -0.031571020861436594
v -1.9184848403498842 0.1785750285582841 -0.03829147086896789
v -1.994534394362993 0.1960481191844088 -0.03918243626226925
v -2.071416039000713 0.18367464190818694 -0.03410827043449949
v -2.1374252489207657 0.14333837159675156 -0.023841473855759077
v -2.1825126963481547 0.08118010910210005 -0.009945067952637388
v -2.199814255853902 0.0066629117410510474 0.005465341421455605
v -2.186695896782624 -0.0688686621778678 0.02004366017093595
v -2.1451547959264423 -0.1339156230231957 0.031570473839027
v -2.081515178241423 -0.17857513736780906 0.0382909238465583
v -2.0054656242283144 -0.19604822799393373 0.03918188923985966
vt 0 1
vt 0.0625 1
vt 0.125 1
vt 0.1875 1
vt 0.25 1
vt 0.3125 1
vt 0.375 1
vt 0.4375 1
vt 0.5 1
vt 0.5625 1
vt 0.625 1
vt 0.6875 1
vt 0.75 1
vt 0.8125 1
vt 0.875 1
vt 0.9375 1
vt 1 1
vt 0 0
vt 0.0625 0
vt 0.125 0
vt 0.1875 0
vt 0.25 0
vt 0.3125 0
vt 0.375 0
vt 0.4375 0
vt 0.5 0
vt 0.5625 0
vt 0.625 0
vt 0.6875 0
vt 0.75 0
vt 0.8125 0
vt 0.875 0
vt 0.9375 0
vt 1 0
vt 0.5 0.5
vt 0.5 0.5
vt 0.5 0.5
vt 0.5 0.5
vt 0.5 0.5
vt 0.5 0.5
vt 0.5 0.5
vt 0.5 0.5
vt 0.5 0.5
vt 0.5 0.5
vt 0.5 0.5
vt 0.5 0.5
vt 0.5 0.5
vt 0.5 0.5
vt 0.5 0.5
vt 0.5 0.5
vt 1 0.5
vt 0.9619397521018982 0.6913416981697083
vt 0.8535534143447876 0.8535534143447876
vt 0.6913416981697083 0.9619397521018982
vt 0.5 1
vt 0.30865827202796936 0.9619397521018982
vt 0.1464466154575348 0.8535534143447876
vt 0.03806023299694061 0.6913416981697083
vt 0 0.5
vt 0.03806023299694061 0.30865827202796936
vt 0.1464466154575348 0.1464466154575348
vt 0.30865827202796936 0.03806023299694061
vt 0.5 0
vt 0.6913416981697083 0.03806023299694061
vt 0.8535534143447876 0.1464466154575348
vt 0.9619397521018982 0.30865827202796936
vt 1 0.5
vt 0.5 0.5
vt 0.5 0.5
vt 0.5 0.5
vt 0.5 0.5
vt 0.5 0.5
vt 0.5 0.5
vt 0.5 0.5
vt 0.5 0.5
vt 0.5 0.5
vt 0.5 0.5
vt 0.5 0.5
vt 0.5 0.5
vt 0.5 0.5
vt 0.5 0.5
vt 0.5 0.5
vt 0.5 0.5
vt 1 0.5
vt 0.9619397521018982 0.30865827202796936
vt 0.8535534143447876 0.1464466154575348
vt 0.6913416981697083 0.03806023299694061
vt 0.5 0
vt 0.30865827202796936 0.03806023299694061
vt 0.1464466154575348 0.1464466154575348
vt 0.03806023299694061 0.30865827202796936
vt 0 0.5
vt 0.03806023299694061 0.6913416981697083
vt 0.1464466154575348 0.8535534143447876
vt 0.30865827202796936 0.9619397521018982
vt 0.5 1
vt 0.6913416981697083 0.9619397521018982
vt 0.8535534143447876 0.8535534143447876
vt 0.9619397521018982 0.6913416981697083
vt 1 0.5
vn -0.027328074256082954 -0.9802408533391306 0.1959108108360214
vn 0.3570801591215446 -0.918373493163149 0.17053998656340993
vn 0.6871261664449198 -0.7166920969637645 0.11920599622665991
vn 0.9125634464145289 -0.4059008286199736 0.04972397403321834
vn 0.9990712179039213 -0.033314830232638544 -0.027328074256082944
vn 0.9334794491836995 0.34434304918753905 -0.10021967086318581
vn 0.7257738996914114 0.6695778122206099 -0.15785372947315146
vn 0.40757585595151213 0.8928754256860668 -0.19145598933258046
vn 0.027328074256083076 0.9802408533391306 -0.1959108108360214
vn -0.3570801591215446 0.918373493163149 -0.17053998656340993
vn -0.6871261664449198 0.7166920969637645 -0.11920599622665991
vn -0.9125634464145289 0.4059008286199736 -0.04972397403321834
vn -0.9990712179039213 0.03331483023263866 0.02732807425608292
vn -0.9334794491836995 -0.34434304918753905 0.10021967086318581
vn -0.7257738996914114 -0.6695778122206099 0.15785372947315146
vn -0.40757585595151213 -0.8928754256860668 0.19145598933258046
vn -0.0273280742560832 -0.9802408533391306 0.1959108108360214
vn -0.027328074256082954 -0.9802408533391306 0.1959108108360214
vn 0.3570801591215446 -0.918373493163149 0.17053998656340993
vn 0.6871261664449198 -0.7166920969637645 0.11920599622665991
vn 0.9125634464145289 -0.4059008286199736 0.04972397403321834
vn 0.9990712179039213 -0.033314830232638544 -0.027328074256082944
vn 0.9334794491836995 0.34434304918753905 -0.10021967086318581
vn 0.7257738996914114 0.6695778122206099 -0.15785372947315146
vn 0.40757585595151213 0.8928754256860668 -0.19145598933258046
vn 0.027328074256083076 0.9802408533391306 -0.1959108108360214
vn -0.3570801591215446 0.918373493163149 -0.17053998656340993
vn -0.6871261664449198 0.7166920969637645 -0.11920599622665991
vn -0.9125634464145289 0.4059008286199736 -0.04972397403321834
vn -0.9990712179039213 0.03331483023263866 0.02732807425608292
vn -0.9334794491836995 -0.34434304918753905 0.10021967086318581
vn -0.7257738996914114 -0.6695778122206099 0.15785372947315146
vn -0.40757585595151213 -0.8928754256860668 0.19145598933258046
vn -0.0273280742560832 -0.9802408533391306 0.1959108108360214
vn 0.03331483023263848 0.1949820287399426 0.9802408533391306
vn 0.03331483023263848 0.1949820287399426 0.9802408533391306
vn 0.03331483023263848 0.1949820287399426 0.9802408533391306
vn 0.03331483023263848 0.1949820287399426 0.9802408533391306
vn 0.03331483023263848 0.1949820287399426 0.9802408533391306
vn 0.03331483023263848 0.1949820287399426 0.9802408533391306
vn 0.03331483023263848 0.1949820287399426 0.9802408533391306
vn 0.03331483023263848 0.1949820287399426 0.9802408533391306
vn 0.03331483023263848 0.1949820287399426 0.9802408533391306
vn 0.03331483023263848 0.1949820287399426 0.9802408533391306
vn 0.03331483023263848 0.1949820287399426 0.9802408533391306
vn 0.03331483023263848 0.1949820287399426 0.9802408533391306
vn 0.03331483023263848 0.1949820287399426 0.9802408533391306
vn 0.03331483023263848 0.1949820287399426 0.9802408533391306
vn 0.03331483023263848 0.1949820287399426 0.9802408533391306
vn 0.03331483023263848 0.1949820287399426 0.9802408533391306
vn 0.03331483023263848 0.1949820287399426 0.9802408533391306
vn 0.03331483023263848 0.1949820287399426 0.9802408533391306
vn 0.03331483023263848 0.1949820287399426 0.9802408533391306
vn 0.03331483023263848 0.1949820287399426 0.9802408533391306
vn 0.03331483023263848 0.1949820287399426 0.9802408533391306
vn 0.03331483023263848 0.1949820287399426 0.9802408533391306
vn 0.03331483023263848 0.1949820287399426 0.9802408533391306
vn 0.03331483023263848 0.1949820287399426 0.9802408533391306
vn 0.03331483023263848 0.1949820287399426 0.9802408533391306
vn 0.03331483023263848 0.1949820287399426 0.9802408533391306
vn 0.03331483023263848 0.1949820287399426 0.9802408533391306
vn 0.03331483023263848 0.1949820287399426 0.9802408533391306
vn 0.03331483023263848 0.1949820287399426 0.9802408533391306
vn 0.03331483023263848 0.1949820287399426 0.9802408533391306
vn 0.03331483023263848 0.1949820287399426 0.9802408533391306
vn 0.03331483023263848 0.1949820287399426 0.9802408533391306
vn 0.03331483023263848 0.1949820287399426 0.9802408533391306
vn -0.03331483023263848 -0.1949820287399426 -0.9802408533391306
vn -0.03331483023263848 -0.1949820287399426 -0.9802408533391306
vn -0.03331483023263848 -0.1949820287399426 -0.9802408533391306
vn -0.03331483023263848 -0.1949820287399426 -0.9802408533391306
vn -0.03331483023263848 -0.1949820287399426 -0.9802408533391306
vn -0.03331483023263848 -0.1949820287399426 -0.9802408533391306
vn -0.03331483023263848 -0.1949820287399426 -0.9802408533391306
vn -0.03331483023263848 -0.1949820287399426 -0.9802408533391306
vn -0.03331483023263848 -0.1949820287399426 -0.9802408533391306
vn -0.03331483023263848 -0.1949820287399426 -0.9802408533391306
vn -0.03331483023263848 -0.1949820287399426 -0.9802408533391306
vn -0.03331483023263848 -0.1949820287399426 -0.9802408533391306
vn -0.03331483023263848 -0.1949820287399426 -0.9802408533391306
vn -0.03331483023263848 -0.1949820287399426 -0.9802408533391306
vn -0.03331483023263848 -0.1949820287399426 -0.9802408533391306
vn -0.03331483023263848 -0.1949820287399426 -0.9802408533391306
vn -0.03331483023263848 -0.1949820287399426 -0.9802408533391306
vn -0.03331483023263848 -0.1949820287399426 -0.9802408533391306
vn -0.03331483023263848 -0.1949820287399426 -0.9802408533391306
vn -0.03331483023263848 -0.1949820287399426 -0.9802408533391306
vn -0.03331483023263848 -0.1949820287399426 -0.9802408533391306
vn -0.03331483023263848 -0.1949820287399426 -0.9802408533391306
vn -0.03331483023263848 -0.1949820287399426 -0.9802408533391306
vn -0.03331483023263848 -0.1949820287399426 -0.9802408533391306
vn -0.03331483023263848 -0.1949820287399426 -0.9802408533391306
vn -0.03331483023263848 -0.1949820287399426 -0.9802408533391306
vn -0.03331483023263848 -0.1949820287399426 -0.9802408533391306
vn -0.03331483023263848 -0.1949820287399426 -0.9802408533391306
vn -0.03331483023263848 -0.1949820287399426 -0.9802408533391306
vn -0.03331483023263848 -0.1949820287399426 -0.9802408533391306
vn -0.03331483023263848 -0.1949820287399426 -0.9802408533391306
vn -0.03331483023263848 -0.1949820287399426 -0.9802408533391306
vn -0.03331483023263848 -0.1949820287399426 -0.9802408533391306
f 1/1/1 18/18/18 2/2/2
f 18/18/18 19/19/19 2/2/2
f 2/2/2 19/19/19 3/3/3
f 19/19/19 20/20/20 3/3/3
f 3/3/3 20/20/20 4/4/4
f 20/20/20 21/21/21 4/4/4
f 4/4/4 21/21/21 5/5/5
f 21/21/21 22/22/22 5/5/5
f 5/5/5 22/22/22 6/6/6
f 22/22/22 23/23/23 6/6/6
f 6/6/6 23/23/23 7/7/7
f 23/23/23 24/24/24 7/7/7
f 7/7/7 24/24/24 8/8/8
f 24/24/24 25/25/25 8/8/8
f 8/8/8 25/25/25 9/9/9
f 25/25/25 26/26/26 9/9/9
f 9/9/9 26/26/26 10/10/10
f 26/26/26 27/27/27 10/10/10
f 10/10/10 27/27/27 11/11/11
f 27/27/27 28/28/28 11/11/11
f 11/11/11 28/28/28 12/12/12
f 28/28/28 29/29/29 12/12/12
f 12/12/12 29/29/29 13/13/13
f 29/29/29 30/30/30 13/13/13
f 13/13/13 30/30/30 14/14/14
f 30/30/30 31/31/31 14/14/14
f 14/14/14 31/31/31 15/15/15
f 31/31/31 32/32/32 15/15/15
f 15/15/15 32/32/32 16/16/16
f 32/32/32 33/33/33 16/16/16
f 16/16/16 33/33/33 17/17/17
f 33/33/33 34/34/34 17/17/17
f 51/51/51 52/52/52 35/35/35
f 52/52/52 53/53/53 36/36/36
f 53/53/53 54/54/54 37/37/37
f 54/54/54 55/55/55 38/38/38
f 55/55/55 56/56/56 39/39/39
f 56/56/56 57/57/57 40/40/40
f 57/57/57 58/58/58 41/41/41
f 58/58/58 59/59/59 42/42/42
f 59/59/59 60/60/60 43/43/43
f 60/60/60 61/61/61 44/44/44
f 61/61/61 62/62/62 45/45/45
f 62/62/62 63/63/63 46/46/46
f 63/63/63 64/64/64 47/47/47
f 64/64/64 65/65/65 48/48/48
f 65/65/65 66/66/66 49/49/49
f 66/66/66 67/67/67 50/50/50
f 85/85/85 84/84/84 68/68/68
f 86/86/86 85/85/85 69/69/69
f 87/87/87 86/86/86 70/70/70
f 88/88/88 87/87/87 71/71/71
f 89/89/89 88/88/88 72/72/72
f 90/90/90 89/89/89 73/73/73
f 91/91/91 90/90/90 74/74/74
f 92/92/92 91/91/91 75/75/75
f 93/93/93 92/92/92 76/76/76
f 94/94/94 93/93/93 77/77/77
f 95/95/95 94/94/94 78/78/78
f 96/96/96 95/95/95 79/79/79
f 97/97/97 96/96/96 80/80/80
f 98/98/98 97/97/97 81/81/81
f 99/99/99 98/98/98 82/82/82
f 100/100/100 99/99/99 83/83/83
