o spoke_back_15
v -0.9945343757716859 6.04875788847779 -29.384376522857053
v -0.9184848217585772 6.031284797851665 -29.385267488250353
v -0.8548452040735577 5.986625283507053 -29.391987938257884
v -0.8133041032173759 5.921578322661724 -29.403514751925975
v -0.800185744146098 5.846046748742806 -29.418093070675454
v -0.8174873036518454 5.771529551381756 -29.43350348004955
v -0.8625747510792345 5.709371288887105 -29.44739988595267
v -0.9285839609992869 5.66903501857567 -29.45766668253141
v -1.0054656056370073 5.656661541299448 -29.462740848359182
v -1.0815151596501158 5.674134631925572 -29.46184988296588
v -1.1451547773351354 5.718794146270186 -29.455129432958348
v -1.186695878191317 5.783841107115514 -29.443602619290257
v -1.199814237262595 5.859372681034433 -29.429024300540775
v -1.1825126777568475 5.933889878395481 -29.413613891166683
v -1.1374252303294585 5.996048140890133 -29.39971748526356
v -1.071416020409406 6.036384411201569 -29.38945068868482
v -0.9945343757716859 6.04875788847779 -29.384376522857053
v -1.9945343943629927 0.196048119184411 0.03918243626226747
v -1.9184848403498842 0.17857502855828633 0.038291470868966115
v -1.8548452226648646 0.13391551421367298 0.03157102086143482
v -1.813304121808683 0.06886855336834508 0.020044207193343766
v -1.800185762737405 -0.006663020550573773 0.00546588844386342
v -1.8174873222431525 -0.08118021791162278 -0.009944520930229572
v -1.8625747696705415 -0.14333848040627428 -0.02384092683335126
v -1.928583979590594 -0.18367475071770967 -0.03410772341209167
v -2.005465624228314 -0.1960482279939315 -0.039181889239861434
v -2.081515178241423 -0.17857513736780684 -0.038290923846560077
v -2.1451547959264423 -0.1339156230231935 -0.03157047383902878
v -2.186695896782624 -0.06886866217786558 -0.020043660170937727
v -2.199814255853902 0.006662911741053268 -0.0054653414214573814
v -2.1825126963481547 0.08118010910210227 0.009945067952635611
v -2.1374252489207652 0.14333837159675378 0.0238414738557573
v -2.071416039000713 0.18367464190818916 0.03410827043449771
v -1.9945343943629927 0.196048119184411 0.03918243626226747
v -0.9999999907043465 5.8527097148886185 -29.423558685608114
v -0.9999999907043465 5.8527097148886185 -29.423558685608114
v -0.9999999907043465 5.8527097148886185 -29.423558685608114
v -0.9999999907043465 5.8527097148886185 -29.423558685608114
v -0.9999999907043465 5.8527097148886185 -29.423558685608114
v -0.9999999907043465 5.8527097148886185 -29.423558685608114
v -0.9999999907043465 5.8527097148886185 -29.423558685608114
v -0.9999999907043465 5.8527097148886185 -29.423558685608114
v -0.9999999907043465 5.8527097148886185 -29.423558685608114
v -0.9999999907043465 5.8527097148886185 -29.423558685608114
v -0.9999999907043465 5.8527097148886185 -29.423558685608114
v -0.9999999907043465 5.8527097148886185 -29.423558685608114
v -0.9999999907043465 5.8527097148886185 -29.423558685608114
v -0.9999999907043465 5.8527097148886185 -29.423558685608114
v -0.9999999907043465 5.8527097148886185 -29.423558685608114
v -0.9999999907043465 5.8527097148886185 -29.423558685608114
v -0.9945343757716859 6.04875788847779 -29.384376522857053
v -0.9184848217585772 6.031284797851665 -29.385267488250353
v -0.8548452040735577 5.986625283507053 -29.391987938257884
v -0.8133041032173759 5.921578322661724 -29.403514751925975
v -0.800185744146098 5.846046748742806 -29.418093070675454
v -0.8174873036518454 5.771529551381756 -29.43350348004955
v -0.8625747510792345 5.709371288887105 -29.44739988595267
v -0.9285839609992869 5.66903501857567 -29.45766668253141
v -1.0054656056370073 5.656661541299448 -29.462740848359182
v -1.0815151596501158 5.674134631925572 -29.46184988296588
v -1.1451547773351354 5.718794146270186 -29.455129432958348
v -1.186695878191317 5.783841107115514 -29.443602619290257
v -1.199814237262595 5.859372681034433 -29.429024300540775
v -1.1825126777568475 5.933889878395481 -29.413613891166683
v -1.1374252303294585 5.996048140890133 -29.39971748526356
v -1.071416020409406 6.036384411201569 -29.38945068868482
v -0.9945343757716859 6.04875788847779 -29.384376522857053
v -2.0000000092956536 -5.4404760252424467e-8 2.7351120301943865e-7
v -2.0000000092956536 -5.4404760252424467e-8 2.7351120301943865e-7
v -2.0000000092956536 -5.4404760252424467e-8 2.7351120301943865e-7
v -2.0000000092956536 -5.4404760252424467e-8 2.7351120301943865e-7
v -2.0000000092956536 -5.4404760252424467e-8 2.7351120301943865e-7
v -2.0000000092956536 -5.4404760252424467e-8 2.7351120301943865e-7
v -2.0000000092956536 -5.4404760252424467e-8 2.7351120301943865e-7
v -2.0000000092956536 -5.4404760252424467e-8 2.7351120301943865e-7
v -2.0000000092956536 -5.4404760252424467e-8 2.7351120301943865e-7
v -2.0000000092956536 -5.4404760252424467e-8 2.7351120301943865e-7
v -2.0000000092956536 -5.4404760252424467e-8 2.7351120301943865e-7
v -2.0000000092956536 -5.4404760252424467e-8 2.7351120301943865e-7
v -2.0000000092956536 -5.4404760252424467e-8 2.7351120301943865e-7
v -2.0000000092956536 -5.4404760252424467e-8 2.7351120301943865e-7
v -2.0000000092956536 -5.4404760252424467e-8 2.7351120301943865e-7
v -2.0000000092956536 -5.4404760252424467e-8 2.7351120301943865e-7
v -1.9945343943629927 0.196048119184411 0.03918243626226747
v -1.9184848403498842 0.17857502855828633 0.038291470868966115
v -1.8548452226648646 0.13391551421367298 0.03157102086143482
v -1.813304121808683 0.06886855336834508 0.020044207193343766
v -1.800185762737405 -0.006663020550573773 0.00546588844386342
v -1.8174873222431525 -0.08118021791162278 -0.009944520930229572
v -1.8625747696705415 -0.14333848040627428 -0.02384092683335126
v -1.928583979590594 -0.18367475071770967 -0.03410772341209167
v -2.005465624228314 -0.1960482279939315 -0.039181889239861434
v -2.081515178241423 -0.17857513736780684 -0.038290923846560077
v -2.1451547959264423 -0.1339156230231935 -0.03157047383902878
v -2.186695896782624 -0.06886866217786558 -0.020043660170937727
v -2.199814255853902 0.006662911741053268 -0.0054653414214573814
v -2.1825126963481547 0.08118010910210227 0.009945067952635611
v -2.1374252489207652 0.14333837159675378 0.0238414738557573
v -2.071416039000713 0.18367464190818916 0.03410827043449771
v -1.9945343943629927 0.196048119184411 0.03918243626226747
vt 0 1
vt 0.0625 1
vt 0.125 1
vt 0.1875 1
vt 0.25 1
vt 0.3125 1
vt 0.375 1
vt 0.4375 1
vt 0.5 1
vt 0.5625 1
vt 0.625 1
vt 0.6875 1
vt 0.75 1
vt 0.8125 1
vt 0.875 1
vt 0.9375 1
vt 1 1
vt 0 0
vt 0.0625 0
vt 0.125 0
vt 0.1875 0
vt 0.25 0
vt 0.3125 0
vt 0.375 0
vt 0.4375 0
vt 0.5 0
vt 0.5625 0
vt 0.625 0
vt 0.6875 0
vt 0.75 0
vt 0.8125 0
vt 0.875 0
vt 0.9375 0
vt 1 0
vt 0.5 0.5
vt 0.5 0.5
vt 0.5 0.5
vt 0.5 0.5
vt 0.5 0.5
vt 0.5 0.5
vt 0.5 0.5
vt 0.5 0.5
vt 0.5 0.5
vt 0.5 0.5
vt 0.5 0.5
vt 0.5 0.5
vt 0.5 0.5
vt 0.5 0.5
vt 0.5 0.5
vt 0.5 0.5
vt 1 0.5
vt 0.9619397521018982 0.6913416981697083
vt 0.8535534143447876 0.8535534143447876
vt 0.6913416981697083 0.9619397521018982
vt 0.5 1
vt 0.30865827202796936 0.9619397521018982
vt 0.1464466154575348 0.8535534143447876
vt 0.03806023299694061 0.6913416981697083
vt 0 0.5
vt 0.03806023299694061 0.30865827202796936
vt 0.1464466154575348 0.1464466154575348
vt 0.30865827202796936 0.03806023299694061
vt 0.5 0
vt 0.6913416981697083 0.03806023299694061
vt 0.8535534143447876 0.1464466154575348
vt 0.9619397521018982 0.30865827202796936
vt 1 0.5
vt 0.5 0.5
vt 0.5 0.5
vt 0.5 0.5
vt 0.5 0.5
vt 0.5 0.5
vt 0.5 0.5
vt 0.5 0.5
vt 0.5 0.5
vt 0.5 0.5
vt 0.5 0.5
vt 0.5 0.5
vt 0.5 0.5
vt 0.5 0.5
vt 0.5 0.5
vt 0.5 0.5
vt 0.5 0.5
vt 1 0.5
vt 0.9619397521018982 0.30865827202796936
vt 0.8535534143447876 0.1464466154575348
vt 0.6913416981697083 0.03806023299694061
vt 0.5 0
vt 0.30865827202796936 0.03806023299694061
vt 0.1464466154575348 0.1464466154575348
vt 0.03806023299694061 0.30865827202796936
vt 0 0.5
vt 0.03806023299694061 0.6913416981697083
vt 0.1464466154575348 0.8535534143447876
vt 0.30865827202796936 0.9619397521018982
vt 0.5 1
vt 0.6913416981697083 0.9619397521018982
vt 0.8535534143447876 0.8535534143447876
vt 0.9619397521018982 0.6913416981697083
vt 1 0.5
vn 0.027328074256082944 0.9802408533391305 0.19591081083602163
vn 0.4075758559515122 0.8928754256860669 0.19145598933258073
vn 0.7257738996914114 0.6695778122206099 0.15785372947315163
vn 0.9334794491836994 0.344343049187539 0.1002196708631859
vn 0.9990712179039214 -0.03331483023263841 0.02732807425608296
vn 0.9125634464145289 -0.4059008286199736 -0.049723974033218425
vn 0.6871261664449198 -0.7166920969637645 -0.11920599622666009
vn 0.3570801591215446 -0.9183734931631489 -0.17053998656341018
vn -0.027328074256082822 -0.9802408533391305 -0.19591081083602163
vn -0.4075758559515122 -0.8928754256860669 -0.19145598933258073
vn -0.7257738996914114 -0.6695778122206099 -0.15785372947315163
vn -0.9334794491836994 -0.344343049187539 -0.1002196708631859
vn -0.9990712179039214 0.033314830232638294 -0.027328074256082985
vn -0.9125634464145289 0.4059008286199736 0.049723974033218425
vn -0.6871261664449198 0.7166920969637645 0.11920599622666009
vn -0.3570801591215446 0.9183734931631489 0.17053998656341018
vn 0.027328074256082698 0.9802408533391305 0.19591081083602163
vn 0.027328074256082944 0.9802408533391305 0.19591081083602163
vn 0.4075758559515122 0.8928754256860669 0.19145598933258073
vn 0.7257738996914114 0.6695778122206099 0.15785372947315163
vn 0.9334794491836994 0.344343049187539 0.1002196708631859
vn 0.9990712179039214 -0.03331483023263841 0.02732807425608296
vn 0.9125634464145289 -0.4059008286199736 -0.049723974033218425
vn 0.6871261664449198 -0.7166920969637645 -0.11920599622666009
vn 0.3570801591215446 -0.9183734931631489 -0.17053998656341018
vn -0.027328074256082822 -0.9802408533391305 -0.19591081083602163
vn -0.4075758559515122 -0.8928754256860669 -0.19145598933258073
vn -0.7257738996914114 -0.6695778122206099 -0.15785372947315163
vn -0.9334794491836994 -0.344343049187539 -0.1002196708631859
vn -0.9990712179039214 0.033314830232638294 -0.027328074256082985
vn -0.9125634464145289 0.4059008286199736 0.049723974033218425
vn -0.6871261664449198 0.7166920969637645 0.11920599622666009
vn -0.3570801591215446 0.9183734931631489 0.17053998656341018
vn 0.027328074256082698 0.9802408533391305 0.19591081083602163
vn 0.03331483023263847 0.19498202873994283 -0.9802408533391305
vn 0.03331483023263847 0.19498202873994283 -0.9802408533391305
vn 0.03331483023263847 0.19498202873994283 -0.9802408533391305
vn 0.03331483023263847 0.19498202873994283 -0.9802408533391305
vn 0.03331483023263847 0.19498202873994283 -0.9802408533391305
vn 0.03331483023263847 0.19498202873994283 -0.9802408533391305
vn 0.03331483023263847 0.19498202873994283 -0.9802408533391305
vn 0.03331483023263847 0.19498202873994283 -0.9802408533391305
vn 0.03331483023263847 0.19498202873994283 -0.9802408533391305
vn 0.03331483023263847 0.19498202873994283 -0.9802408533391305
vn 0.03331483023263847 0.19498202873994283 -0.9802408533391305
vn 0.03331483023263847 0.19498202873994283 -0.9802408533391305
vn 0.03331483023263847 0.19498202873994283 -0.9802408533391305
vn 0.03331483023263847 0.19498202873994283 -0.9802408533391305
vn 0.03331483023263847 0.19498202873994283 -0.9802408533391305
vn 0.03331483023263847 0.19498202873994283 -0.9802408533391305
vn 0.03331483023263847 0.19498202873994283 -0.9802408533391305
vn 0.03331483023263847 0.19498202873994283 -0.9802408533391305
vn 0.03331483023263847 0.19498202873994283 -0.9802408533391305
vn 0.03331483023263847 0.19498202873994283 -0.9802408533391305
vn 0.03331483023263847 0.19498202873994283 -0.9802408533391305
vn 0.03331483023263847 0.19498202873994283 -0.9802408533391305
vn 0.03331483023263847 0.19498202873994283 -0.9802408533391305
vn 0.03331483023263847 0.19498202873994283 -0.9802408533391305
vn 0.03331483023263847 0.19498202873994283 -0.9802408533391305
vn 0.03331483023263847 0.19498202873994283 -0.9802408533391305
vn 0.03331483023263847 0.19498202873994283 -0.9802408533391305
vn 0.03331483023263847 0.19498202873994283 -0.9802408533391305
vn 0.03331483023263847 0.19498202873994283 -0.9802408533391305
vn 0.03331483023263847 0.19498202873994283 -0.9802408533391305
vn 0.03331483023263847 0.19498202873994283 -0.9802408533391305
vn 0.03331483023263847 0.19498202873994283 -0.9802408533391305
vn 0.03331483023263847 0.19498202873994283 -0.9802408533391305
vn -0.03331483023263847 -0.19498202873994283 0.9802408533391305
vn -0.03331483023263847 -0.19498202873994283 0.9802408533391305
vn -0.03331483023263847 -0.19498202873994283 0.9802408533391305
vn -0.03331483023263847 -0.19498202873994283 0.9802408533391305
vn -0.03331483023263847 -0.19498202873994283 0.9802408533391305
vn -0.03331483023263847 -0.19498202873994283 0.9802408533391305
vn -0.03331483023263847 -0.19498202873994283 0.9802408533391305
vn -0.03331483023263847 -0.19498202873994283 0.9802408533391305
vn -0.03331483023263847 -0.19498202873994283 0.9802408533391305
vn -0.03331483023263847 -0.19498202873994283 0.9802408533391305
vn -0.03331483023263847 -0.19498202873994283 0.9802408533391305
vn -0.03331483023263847 -0.19498202873994283 0.9802408533391305
vn -0.03331483023263847 -0.19498202873994283 0.9802408533391305
vn -0.03331483023263847 -0.19498202873994283 0.9802408533391305
vn -0.03331483023263847 -0.19498202873994283 0.9802408533391305
vn -0.03331483023263847 -0.19498202873994283 0.9802408533391305
vn -0.03331483023263847 -0.19498202873994283 0.9802408533391305
vn -0.03331483023263847 -0.19498202873994283 0.9802408533391305
vn -0.03331483023263847 -0.19498202873994283 0.9802408533391305
vn -0.03331483023263847 -0.19498202873994283 0.9802408533391305
vn -0.03331483023263847 -0.19498202873994283 0.9802408533391305
vn -0.03331483023263847 -0.19498202873994283 0.9802408533391305
vn -0.03331483023263847 -0.19498202873994283 0.9802408533391305
vn -0.03331483023263847 -0.19498202873994283 0.9802408533391305
vn -0.03331483023263847 -0.19498202873994283 0.9802408533391305
vn -0.03331483023263847 -0.19498202873994283 0.9802408533391305
vn -0.03331483023263847 -0.19498202873994283 0.9802408533391305
vn -0.03331483023263847 -0.19498202873994283 0.9802408533391305
vn -0.03331483023263847 -0.19498202873994283 0.9802408533391305
vn -0.03331483023263847 -0.19498202873994283 0.9802408533391305
vn -0.03331483023263847 -0.19498202873994283 0.9802408533391305
vn -0.03331483023263847 -0.19498202873994283 0.9802408533391305
vn -0.03331483023263847 -0.19498202873994283 0.9802408533391305
f 1/1/1 18/18/18 2/2/2
f 18/18/18 19/19/19 2/2/2
f 2/2/2 19/19/19 3/3/3
f 19/19/19 20/20/20 3/3/3
f 3/3/3 20/20/20 4/4/4
f 20/20/20 21/21/21 4/4/4
f 4/4/4 21/21/21 5/5/5
f 21/21/21 22/22/22 5/5/5
f 5/5/5 22/22/22 6/6/6
f 22/22/22 23/23/23 6/6/6
f 6/6/6 23/23/23 7/7/7
f 23/23/23 24/24/24 7/7/7
f 7/7/7 24/24/24 8/8/8
f 24/24/24 25/25/25 8/8/8
f 8/8/8 25/25/25 9/9/9
f 25/25/25 26/26/26 9/9/9
f 9/9/9 26/26/26 10/10/10
f 26/26/26 27/27/27 10/10/10
f 10/10/10 27/27/27 11/11/11
f 27/27/27 28/28/28 11/11/11
f 11/11/11 28/28/28 12/12/12
f 28/28/28 29/29/29 12/12/12
f 12/12/12 29/29/29 13/13/13
f 29/29/29 30/30/30 13/13/13
f 13/13/13 30/30/30 14/14/14
f 30/30/30 31/31/31 14/14/14
f 14/14/14 31/31/31 15/15/15
f 31/31/31 32/32/32 15/15/15
f 15/15/15 32/32/32 16/16/16
f 32/32/32 33/33/33 16/16/16
f 16/16/16 33/33/33 17/17/17
f 33/33/33 34/34/34 17/17/17
f 51/51/51 52/52/52 35/35/35
f 52/52/52 53/53/53 36/36/36
f 53/53/53 54/54/54 37/37/37
f 54/54/54 55/55/55 38/38/38
f 55/55/55 56/56/56 39/39/39
f 56/56/56 57/57/57 40/40/40
f 57/57/57 58/58/58 41/41/41
f 58/58/58 59/59/59 42/42/42
f 59/59/59 60/60/60 43/43/43
f 60/60/60 61/61/61 44/44/44
f 61/61/61 62/62/62 45/45/45
f 62/62/62 63/63/63 46/46/46
f 63/63/63 64/64/64 47/47/47
f 64/64/64 65/65/65 48/48/48
f 65/65/65 66/66/66 49/49/49
f 66/66/66 67/67/67 50/50/50
f 85/85/85 84/84/84 68/68/68
f 86/86/86 85/85/85 69/69/69
f 87/87/87 86/86/86 70/70/70
f 88/88/88 87/87/87 71/71/71
f 89/89/89 88/88/88 72/72/72
f 90/90/90 89/89/89 73/73/73
f 91/91/91 90/90/90 74/74/74
f 92/92/92 91/91/91 75/75/75
f 93/93/93 92/92/92 76/76/76
f 94/94/94 93/93/93 77/77/77
f 95/95/95 94/94/94 78/78/78
f 96/96/96 95/95/95 79/79/79
f 97/97/97 96/96/96 80/80/80
f 98/98/98 97/97/97 81/81/81
f 99/99/99 98/98/98 82/82/82
f 100/100/100 99/99/99 83/83/83
