o spoke_back_24
v -0.9999999907044371 -30.00000027886961 0.20000000298022674
v -1.0764941909529762 -30.002550085544563 0.18477590382098685
v -1.1413428514506554 -30.00471170756115 0.14142136275767886
v -1.1846733267107985 -30.006156056736486 0.0765366852283443
v -1.1998889750788482 -30.006663245015424 -3.2949117219898025e-15
v -1.1846733267108003 -30.006156056736486 -0.07653668522835126
v -1.1413428514506585 -30.00471170756115 -0.14142136275768674
v -1.0764941909529804 -30.002550085544563 -0.18477590382099618
v -0.9999999907044416 -30.00000027886961 -0.20000000298023773
v -0.9235057904559024 -29.997450472194657 -0.18477590382099787
v -0.8586571299582233 -29.99528885017807 -0.14142136275768985
v -0.8153266546980802 -29.993844501002734 -0.07653668522835533
v -0.8001110063300305 -29.993337312723796 -7.751402510669266e-15
v -0.8153266546980784 -29.993844501002734 0.07653668522834023
v -0.8586571299582202 -29.99528885017807 0.14142136275767575
v -0.9235057904558984 -29.997450472194657 0.18477590382098516
v -0.9999999907044371 -30.00000027886961 0.20000000298022674
v -2.0000000092955585 2.788696100708421e-7 0.20000000298023224
v -2.0764942095440975 -0.002549527805340901 0.18477590382099238
v -2.1413428700417767 -0.004711149821929439 0.14142136275768435
v -2.1846733453019196 -0.006155498997268083 0.0765366852283498
v -2.1998889936699695 -0.006662687276202561 2.215998976627294e-15
v -2.1846733453019214 -0.006155498997268083 -0.07653668522834575
v -2.14134287004178 -0.004711149821929439 -0.14142136275768125
v -2.0764942095441015 -0.002549527805340901 -0.18477590382099066
v -2.000000009295563 2.788696100708421e-7 -0.20000000298023224
v -1.9235058090470238 0.0025500855445610426 -0.18477590382099235
v -1.8586571485493446 0.004711707561149581 -0.14142136275768435
v -1.8153266732892015 0.006156056736488225 -0.07653668522834982
v -1.8001110249211518 0.006663245015422703 -2.2404918120521703e-15
v -1.8153266732891997 0.006156056736488225 0.07653668522834574
v -1.8586571485493415 0.004711707561149581 0.14142136275768125
v -1.9235058090470196 0.0025500855445610426 0.18477590382099068
v -2.0000000092955585 2.788696100708421e-7 0.20000000298023224
v -0.9999999907044393 -30.00000027886961 -5.5109106473900925e-15
v -0.9999999907044393 -30.00000027886961 -5.5109106473900925e-15
v -0.9999999907044393 -30.00000027886961 -5.5109106473900925e-15
v -0.9999999907044393 -30.00000027886961 -5.5109106473900925e-15
v -0.9999999907044393 -30.00000027886961 -5.5109106473900925e-15
v -0.9999999907044393 -30.00000027886961 -5.5109106473900925e-15
v -0.9999999907044393 -30.00000027886961 -5.5109106473900925e-15
v -0.9999999907044393 -30.00000027886961 -5.5109106473900925e-15
v -0.9999999907044393 -30.00000027886961 -5.5109106473900925e-15
v -0.9999999907044393 -30.00000027886961 -5.5109106473900925e-15
v -0.9999999907044393 -30.00000027886961 -5.5109106473900925e-15
v -0.9999999907044393 -30.00000027886961 -5.5109106473900925e-15
v -0.9999999907044393 -30.00000027886961 -5.5109106473900925e-15
v -0.9999999907044393 -30.00000027886961 -5.5109106473900925e-15
v -0.9999999907044393 -30.00000027886961 -5.5109106473900925e-15
v -0.9999999907044393 -30.00000027886961 -5.5109106473900925e-15
v -0.9999999907044371 -30.00000027886961 0.20000000298022674
v -1.0764941909529762 -30.002550085544563 0.18477590382098685
v -1.1413428514506554 -30.00471170756115 0.14142136275767886
v -1.1846733267107985 -30.006156056736486 0.0765366852283443
v -1.1998889750788482 -30.006663245015424 -3.2949117219898025e-15
v -1.1846733267108003 -30.006156056736486 -0.07653668522835126
v -1.1413428514506585 -30.00471170756115 -0.14142136275768674
v -1.0764941909529804 -30.002550085544563 -0.18477590382099618
v -0.9999999907044416 -30.00000027886961 -0.20000000298023773
v -0.9235057904559024 -29.997450472194657 -0.18477590382099787
v -0.8586571299582233 -29.99528885017807 -0.14142136275768985
v -0.8153266546980802 -29.993844501002734 -0.07653668522835533
v -0.8001110063300305 -29.993337312723796 -7.751402510669266e-15
v -0.8153266546980784 -29.993844501002734 0.07653668522834023
v -0.8586571299582202 -29.99528885017807 0.14142136275767575
v -0.9235057904558984 -29.997450472194657 0.18477590382098516
v -0.9999999907044371 -30.00000027886961 0.20000000298022674
v -2.0000000092955608 2.788696100708421e-7 5.122700370930956e-23
v -2.0000000092955608 2.788696100708421e-7 5.122700370930956e-23
v -2.0000000092955608 2.788696100708421e-7 5.122700370930956e-23
v -2.0000000092955608 2.788696100708421e-7 5.122700370930956e-23
v -2.0000000092955608 2.788696100708421e-7 5.122700370930956e-23
v -2.0000000092955608 2.788696100708421e-7 5.122700370930956e-23
v -2.0000000092955608 2.788696100708421e-7 5.122700370930956e-23
v -2.0000000092955608 2.788696100708421e-7 5.122700370930956e-23
v -2.0000000092955608 2.788696100708421e-7 5.122700370930956e-23
v -2.0000000092955608 2.788696100708421e-7 5.122700370930956e-23
v -2.0000000092955608 2.788696100708421e-7 5.122700370930956e-23
v -2.0000000092955608 2.788696100708421e-7 5.122700370930956e-23
v -2.0000000092955608 2.788696100708421e-7 5.122700370930956e-23
v -2.0000000092955608 2.788696100708421e-7 5.122700370930956e-23
v -2.0000000092955608 2.788696100708421e-7 5.122700370930956e-23
v -2.0000000092955608 2.788696100708421e-7 5.122700370930956e-23
v -2.0000000092955585 2.788696100708421e-7 0.20000000298023224
v -2.0764942095440975 -0.002549527805340901 0.18477590382099238
v -2.1413428700417767 -0.004711149821929439 0.14142136275768435
v -2.1846733453019196 -0.006155498997268083 0.0765366852283498
v -2.1998889936699695 -0.006662687276202561 2.215998976627294e-15
v -2.1846733453019214 -0.006155498997268083 -0.07653668522834575
v -2.14134287004178 -0.004711149821929439 -0.14142136275768125
v -2.0764942095441015 -0.002549527805340901 -0.18477590382099066
v -2.000000009295563 2.788696100708421e-7 -0.20000000298023224
v -1.9235058090470238 0.0025500855445610426 -0.18477590382099235
v -1.8586571485493446 0.004711707561149581 -0.14142136275768435
v -1.8153266732892015 0.006156056736488225 -0.07653668522834982
v -1.8001110249211518 0.006663245015422703 -2.2404918120521703e-15
v -1.8153266732891997 0.006156056736488225 0.07653668522834574
v -1.8586571485493415 0.004711707561149581 0.14142136275768125
v -1.9235058090470196 0.0025500855445610426 0.18477590382099068
v -2.0000000092955585 2.788696100708421e-7 0.20000000298023224
vt 0 1
vt 0.0625 1
vt 0.125 1
vt 0.1875 1
vt 0.25 1
vt 0.3125 1
vt 0.375 1
vt 0.4375 1
vt 0.5 1
vt 0.5625 1
vt 0.625 1
vt 0.6875 1
vt 0.75 1
vt 0.8125 1
vt 0.875 1
vt 0.9375 1
vt 1 1
vt 0 0
vt 0.0625 0
vt 0.125 0
vt 0.1875 0
vt 0.25 0
vt 0.3125 0
vt 0.375 0
vt 0.4375 0
vt 0.5 0
vt 0.5625 0
vt 0.625 0
vt 0.6875 0
vt 0.75 0
vt 0.8125 0
vt 0.875 0
vt 0.9375 0
vt 1 0
vt 0.5 0.5
vt 0.5 0.5
vt 0.5 0.5
vt 0.5 0.5
vt 0.5 0.5
vt 0.5 0.5
vt 0.5 0.5
vt 0.5 0.5
vt 0.5 0.5
vt 0.5 0.5
vt 0.5 0.5
vt 0.5 0.5
vt 0.5 0.5
vt 0.5 0.5
vt 0.5 0.5
vt 0.5 0.5
vt 1 0.5
vt 0.9619397521018982 0.6913416981697083
vt 0.8535534143447876 0.8535534143447876
vt 0.6913416981697083 0.9619397521018982
vt 0.5 1
vt 0.30865827202796936 0.9619397521018982
vt 0.1464466154575348 0.8535534143447876
vt 0.03806023299694061 0.6913416981697083
vt 0 0.5
vt 0.03806023299694061 0.30865827202796936
vt 0.1464466154575348 0.1464466154575348
vt 0.30865827202796936 0.03806023299694061
vt 0.5 0
vt 0.6913416981697083 0.03806023299694061
vt 0.8535534143447876 0.1464466154575348
vt 0.9619397521018982 0.30865827202796936
vt 1 0.5
vt 0.5 0.5
vt 0.5 0.5
vt 0.5 0.5
vt 0.5 0.5
vt 0.5 0.5
vt 0.5 0.5
vt 0.5 0.5
vt 0.5 0.5
vt 0.5 0.5
vt 0.5 0.5
vt 0.5 0.5
vt 0.5 0.5
vt 0.5 0.5
vt 0.5 0.5
vt 0.5 0.5
vt 0.5 0.5
vt 1 0.5
vt 0.9619397521018982 0.30865827202796936
vt 0.8535534143447876 0.1464466154575348
vt 0.6913416981697083 0.03806023299694061
vt 0.5 0
vt 0.30865827202796936 0.03806023299694061
vt 0.1464466154575348 0.1464466154575348
vt 0.03806023299694061 0.30865827202796936
vt 0 0.5
vt 0.03806023299694061 0.6913416981697083
vt 0.1464466154575348 0.8535534143447876
vt 0.30865827202796936 0.9619397521018982
vt 0.5 1
vt 0.6913416981697083 0.9619397521018982
vt 0.8535534143447876 0.8535534143447876
vt 0.9619397521018982 0.6913416981697083
vt 1 0.5
vn 1.1018762124315742e-14 1.8359505093838764e-16 1
vn -0.3824710121562208 -0.01274903373853849 0.9238795305660419
vn -0.7067142711473106 -0.023557142371572765 0.7071067811865553
vn -0.9233666914865142 -0.030778889716211483 0.38268343706134705
vn -0.9994449069791547 -0.03331483023263229 1.1079994466945003e-14
vn -0.9233666914865226 -0.03077888971621162 -0.38268343706132674
vn -0.7067142711473261 -0.023557142371573022 -0.7071067811865398
vn -0.38247101215624113 -0.01274903373853883 -0.9238795305660334
vn -1.1141158830282171e-14 -1.8767494113726788e-16 -1
vn 0.3824710121562208 0.01274903373853849 -0.9238795305660419
vn 0.7067142711473106 0.023557142371572765 -0.7071067811865553
vn 0.9233666914865142 0.030778889716211483 -0.38268343706134705
vn 0.9994449069791547 0.03331483023263229 -1.120245913896863e-14
vn 0.9233666914865226 0.03077888971621162 0.38268343706132674
vn 0.7067142711473261 0.023557142371573022 0.7071067811865398
vn 0.38247101215624113 0.01274903373853883 0.9238795305660334
vn 1.1263555536248602e-14 1.917548313361481e-16 1
vn 1.1018762124315742e-14 1.8359505093838764e-16 1
vn -0.3824710121562208 -0.01274903373853849 0.9238795305660419
vn -0.7067142711473106 -0.023557142371572765 0.7071067811865553
vn -0.9233666914865142 -0.030778889716211483 0.38268343706134705
vn -0.9994449069791547 -0.03331483023263229 1.1079994466945003e-14
vn -0.9233666914865226 -0.03077888971621162 -0.38268343706132674
vn -0.7067142711473261 -0.023557142371573022 -0.7071067811865398
vn -0.38247101215624113 -0.01274903373853883 -0.9238795305660334
vn -1.1141158830282171e-14 -1.8767494113726788e-16 -1
vn 0.3824710121562208 0.01274903373853849 -0.9238795305660419
vn 0.7067142711473106 0.023557142371572765 -0.7071067811865553
vn 0.9233666914865142 0.030778889716211483 -0.38268343706134705
vn 0.9994449069791547 0.03331483023263229 -1.120245913896863e-14
vn 0.9233666914865226 0.03077888971621162 0.38268343706132674
vn 0.7067142711473261 0.023557142371573022 0.7071067811865398
vn 0.38247101215624113 0.01274903373853883 0.9238795305660334
vn 1.1263555536248602e-14 1.917548313361481e-16 1
vn 0.03331483023263229 -0.9994449069791547 -1.8359505093838768e-16
vn 0.03331483023263229 -0.9994449069791547 -1.8359505093838768e-16
vn 0.03331483023263229 -0.9994449069791547 -1.8359505093838768e-16
vn 0.03331483023263229 -0.9994449069791547 -1.8359505093838768e-16
vn 0.03331483023263229 -0.9994449069791547 -1.8359505093838768e-16
vn 0.03331483023263229 -0.9994449069791547 -1.8359505093838768e-16
vn 0.03331483023263229 -0.9994449069791547 -1.8359505093838768e-16
vn 0.03331483023263229 -0.9994449069791547 -1.8359505093838768e-16
vn 0.03331483023263229 -0.9994449069791547 -1.8359505093838768e-16
vn 0.03331483023263229 -0.9994449069791547 -1.8359505093838768e-16
vn 0.03331483023263229 -0.9994449069791547 -1.8359505093838768e-16
vn 0.03331483023263229 -0.9994449069791547 -1.8359505093838768e-16
vn 0.03331483023263229 -0.9994449069791547 -1.8359505093838768e-16
vn 0.03331483023263229 -0.9994449069791547 -1.8359505093838768e-16
vn 0.03331483023263229 -0.9994449069791547 -1.8359505093838768e-16
vn 0.03331483023263229 -0.9994449069791547 -1.8359505093838768e-16
vn 0.03331483023263229 -0.9994449069791547 -1.8359505093838768e-16
vn 0.03331483023263229 -0.9994449069791547 -1.8359505093838768e-16
vn 0.03331483023263229 -0.9994449069791547 -1.8359505093838768e-16
vn 0.03331483023263229 -0.9994449069791547 -1.8359505093838768e-16
vn 0.03331483023263229 -0.9994449069791547 -1.8359505093838768e-16
vn 0.03331483023263229 -0.9994449069791547 -1.8359505093838768e-16
vn 0.03331483023263229 -0.9994449069791547 -1.8359505093838768e-16
vn 0.03331483023263229 -0.9994449069791547 -1.8359505093838768e-16
vn 0.03331483023263229 -0.9994449069791547 -1.8359505093838768e-16
vn 0.03331483023263229 -0.9994449069791547 -1.8359505093838768e-16
vn 0.03331483023263229 -0.9994449069791547 -1.8359505093838768e-16
vn 0.03331483023263229 -0.9994449069791547 -1.8359505093838768e-16
vn 0.03331483023263229 -0.9994449069791547 -1.8359505093838768e-16
vn 0.03331483023263229 -0.9994449069791547 -1.8359505093838768e-16
vn 0.03331483023263229 -0.9994449069791547 -1.8359505093838768e-16
vn 0.03331483023263229 -0.9994449069791547 -1.8359505093838768e-16
vn 0.03331483023263229 -0.9994449069791547 -1.8359505093838768e-16
vn -0.03331483023263229 0.9994449069791547 1.8359505093838768e-16
vn -0.03331483023263229 0.9994449069791547 1.8359505093838768e-16
vn -0.03331483023263229 0.9994449069791547 1.8359505093838768e-16
vn -0.03331483023263229 0.9994449069791547 1.8359505093838768e-16
vn -0.03331483023263229 0.9994449069791547 1.8359505093838768e-16
vn -0.03331483023263229 0.9994449069791547 1.8359505093838768e-16
vn -0.03331483023263229 0.9994449069791547 1.8359505093838768e-16
vn -0.03331483023263229 0.9994449069791547 1.8359505093838768e-16
vn -0.03331483023263229 0.9994449069791547 1.8359505093838768e-16
vn -0.03331483023263229 0.9994449069791547 1.8359505093838768e-16
vn -0.03331483023263229 0.9994449069791547 1.8359505093838768e-16
vn -0.03331483023263229 0.9994449069791547 1.8359505093838768e-16
vn -0.03331483023263229 0.9994449069791547 1.8359505093838768e-16
vn -0.03331483023263229 0.9994449069791547 1.8359505093838768e-16
vn -0.03331483023263229 0.9994449069791547 1.8359505093838768e-16
vn -0.03331483023263229 0.9994449069791547 1.8359505093838768e-16
vn -0.03331483023263229 0.9994449069791547 1.8359505093838768e-16
vn -0.03331483023263229 0.9994449069791547 1.8359505093838768e-16
vn -0.03331483023263229 0.9994449069791547 1.8359505093838768e-16
vn -0.03331483023263229 0.9994449069791547 1.8359505093838768e-16
vn -0.03331483023263229 0.9994449069791547 1.8359505093838768e-16
vn -0.03331483023263229 0.9994449069791547 1.8359505093838768e-16
vn -0.03331483023263229 0.9994449069791547 1.8359505093838768e-16
vn -0.03331483023263229 0.9994449069791547 1.8359505093838768e-16
vn -0.03331483023263229 0.9994449069791547 1.8359505093838768e-16
vn -0.03331483023263229 0.9994449069791547 1.8359505093838768e-16
vn -0.03331483023263229 0.9994449069791547 1.8359505093838768e-16
vn -0.03331483023263229 0.9994449069791547 1.8359505093838768e-16
vn -0.03331483023263229 0.9994449069791547 1.8359505093838768e-16
vn -0.03331483023263229 0.9994449069791547 1.8359505093838768e-16
vn -0.03331483023263229 0.9994449069791547 1.8359505093838768e-16
vn -0.03331483023263229 0.9994449069791547 1.8359505093838768e-16
vn -0.03331483023263229 0.9994449069791547 1.8359505093838768e-16
f 1/1/1 18/18/18 2/2/2
f 18/18/18 19/19/19 2/2/2
f 2/2/2 19/19/19 3/3/3
f 19/19/19 20/20/20 3/3/3
f 3/3/3 20/20/20 4/4/4
f 20/20/20 21/21/21 4/4/4
f 4/4/4 21/21/21 5/5/5
f 21/21/21 22/22/22 5/5/5
f 5/5/5 22/22/22 6/6/6
f 22/22/22 23/23/23 6/6/6
f 6/6/6 23/23/23 7/7/7
f 23/23/23 24/24/24 7/7/7
f 7/7/7 24/24/24 8/8/8
f 24/24/24 25/25/25 8/8/8
f 8/8/8 25/25/25 9/9/9
f 25/25/25 26/26/26 9/9/9
f 9/9/9 26/26/26 10/10/10
f 26/26/26 27/27/27 10/10/10
f 10/10/10 27/27/27 11/11/11
f 27/27/27 28/28/28 11/11/11
f 11/11/11 28/28/28 12/12/12
f 28/28/28 29/29/29 12/12/12
f 12/12/12 29/29/29 13/13/13
f 29/29/29 30/30/30 13/13/13
f 13/13/13 30/30/30 14/14/14
f 30/30/30 31/31/31 14/14/14
f 14/14/14 31/31/31 15/15/15
f 31/31/31 32/32/32 15/15/15
f 15/15/15 32/32/32 16/16/16
f 32/32/32 33/33/33 16/16/16
f 16/16/16 33/33/33 17/17/17
f 33/33/33 34/34/34 17/17/17
f 51/51/51 52/52/52 35/35/35
f 52/52/52 53/53/53 36/36/36
f 53/53/53 54/54/54 37/37/37
f 54/54/54 55/55/55 38/38/38
f 55/55/55 56/56/56 39/39/39
f 56/56/56 57/57/57 40/40/40
f 57/57/57 58/58/58 41/41/41
f 58/58/58 59/59/59 42/42/42
f 59/59/59 60/60/60 43/43/43
f 60/60/60 61/61/61 44/44/44
f 61/61/61 62/62/62 45/45/45
f 62/62/62 63/63/63 46/46/46
f 63/63/63 64/64/64 47/47/47
f 64/64/64 65/65/65 48/48/48
f 65/65/65 66/66/66 49/49/49
f 66/66/66 67/67/67 50/50/50
f 85/85/85 84/84/84 68/68/68
f 86/86/86 85/85/85 69/69/69
f 87/87/87 86/86/86 70/70/70
f 88/88/88 87/87/87 71/71/71
f 89/89/89 88/88/88 72/72/72
f 90/90/90 89/89/89 73/73/73
f 91/91/91 90/90/90 74/74/74
f 92/92/92 91/91/91 75/75/75
f 93/93/93 92/92/92 76/76/76
f 94/94/94 93/93/93 77/77/77
f 95/95/95 94/94/94 78/78/78
f 96/96/96 95/95/95 79/79/79
f 97/97/97 96/96/96 80/80/80
f 98/98/98 97/97/97 81/81/81
f 99/99/99 98/98/98 82/82/82
f 100/100/100 99/99/99 83/83/83
