o spoke_back_9
v -0.9993439297740079 29.462555091937197 -5.6565494460532335
v -0.9229000812204372 29.45703685952244 -5.671230199109159
v -0.858193986110675 29.446421881134235 -5.713539549120242
v -0.8150765857431279 29.432326185900095 -5.777036311008598
v -0.8001120829703159 29.416895719462303 -5.852053653958269
v -0.8155787130248051 29.402479629582388 -5.9271708762730295
v -0.8591217964050551 29.391272632698914 -5.990952070362592
v -0.924112323716023 29.384980898343894 -6.033687103386377
v -1.0006560516346852 29.384562279279038 -6.04886998372398
v -1.0770999001882557 29.390080511693796 -6.034189230668055
v -1.1418059952980182 29.400695490082 -5.991879880656972
v -1.1849233956655651 29.41479118531614 -5.928383118768616
v -1.1998878984383772 29.430221651753932 -5.853365775818945
v -1.184421268383888 29.444637741633848 -5.778248553504184
v -1.1408781850036378 29.45584473851732 -5.714467359414622
v -1.07588765769267 29.46213647287234 -5.671732326390837
v -0.9993439297740079 29.462555091937197 -5.6565494460532335
v -1.9993439483653148 0.03899613281787495 0.19616032324013366
v -1.9229000998117443 0.033477900403116934 0.18147957018420824
v -1.8581940047019818 0.022862922014914133 0.13917022017312553
v -1.8150766043344349 0.008767226780770798 0.07567345828476935
v -1.8001121015616228 -0.006663239657019204 0.0006561153350994609
v -1.815578731616112 -0.021079329536936697 -0.0744611069796619
v -1.8591218149963622 -0.0322863264204063 -0.1382423010692242
v -1.92411234230733 -0.03857806077542847 -0.1809773340930101
v -2.0006560702259923 -0.03899667984028454 -0.19616021443061227
v -2.0770999187795627 -0.033478447425526525 -0.18147946137468685
v -2.141806013889325 -0.022863469037323725 -0.13917011136360413
v -2.184923414256872 -0.00876777380318039 -0.07567334947524795
v -2.199887917029684 0.006662692634609613 -0.0006560065255780678
v -2.184421286975195 0.021078782514527106 0.0744612157891833
v -2.1408782035949447 0.032285779397996706 0.1382424098787456
v -2.075887676283977 0.03857751375301888 0.18097744290253148
v -1.9993439483653148 0.03899613281787495 0.19616032324013366
v -0.9999999907043465 29.423558685608118 -5.852709714888607
v -0.9999999907043465 29.423558685608118 -5.852709714888607
v -0.9999999907043465 29.423558685608118 -5.852709714888607
v -0.9999999907043465 29.423558685608118 -5.852709714888607
v -0.9999999907043465 29.423558685608118 -5.852709714888607
v -0.9999999907043465 29.423558685608118 -5.852709714888607
v -0.9999999907043465 29.423558685608118 -5.852709714888607
v -0.9999999907043465 29.423558685608118 -5.852709714888607
v -0.9999999907043465 29.423558685608118 -5.852709714888607
v -0.9999999907043465 29.423558685608118 -5.852709714888607
v -0.9999999907043465 29.423558685608118 -5.852709714888607
v -0.9999999907043465 29.423558685608118 -5.852709714888607
v -0.9999999907043465 29.423558685608118 -5.852709714888607
v -0.9999999907043465 29.423558685608118 -5.852709714888607
v -0.9999999907043465 29.423558685608118 -5.852709714888607
v -0.9999999907043465 29.423558685608118 -5.852709714888607
v -0.9993439297740079 29.462555091937197 -5.6565494460532335
v -0.9229000812204372 29.45703685952244 -5.671230199109159
v -0.858193986110675 29.446421881134235 -5.713539549120242
v -0.8150765857431279 29.432326185900095 -5.777036311008598
v -0.8001120829703159 29.416895719462303 -5.852053653958269
v -0.8155787130248051 29.402479629582388 -5.9271708762730295
v -0.8591217964050551 29.391272632698914 -5.990952070362592
v -0.924112323716023 29.384980898343894 -6.033687103386377
v -1.0006560516346852 29.384562279279038 -6.04886998372398
v -1.0770999001882557 29.390080511693796 -6.034189230668055
v -1.1418059952980182 29.400695490082 -5.991879880656972
v -1.1849233956655651 29.41479118531614 -5.928383118768616
v -1.1998878984383772 29.430221651753932 -5.853365775818945
v -1.184421268383888 29.444637741633848 -5.778248553504184
v -1.1408781850036378 29.45584473851732 -5.714467359414622
v -1.07588765769267 29.46213647287234 -5.671732326390837
v -0.9993439297740079 29.462555091937197 -5.6565494460532335
v -2.0000000092956536 -2.735112047957955e-7 5.4404760696513677e-8
v -2.0000000092956536 -2.735112047957955e-7 5.4404760696513677e-8
v -2.0000000092956536 -2.735112047957955e-7 5.4404760696513677e-8
v -2.0000000092956536 -2.735112047957955e-7 5.4404760696513677e-8
v -2.0000000092956536 -2.735112047957955e-7 5.4404760696513677e-8
v -2.0000000092956536 -2.735112047957955e-7 5.4404760696513677e-8
v -2.0000000092956536 -2.735112047957955e-7 5.4404760696513677e-8
v -2.0000000092956536 -2.735112047957955e-7 5.4404760696513677e-8
v -2.0000000092956536 -2.735112047957955e-7 5.4404760696513677e-8
v -2.0000000092956536 -2.735112047957955e-7 5.4404760696513677e-8
v -2.0000000092956536 -2.735112047957955e-7 5.4404760696513677e-8
v -2.0000000092956536 -2.735112047957955e-7 5.4404760696513677e-8
v -2.0000000092956536 -2.735112047957955e-7 5.4404760696513677e-8
v -2.0000000092956536 -2.735112047957955e-7 5.4404760696513677e-8
v -2.0000000092956536 -2.735112047957955e-7 5.4404760696513677e-8
v -2.0000000092956536 -2.735112047957955e-7 5.4404760696513677e-8
v -1.9993439483653148 0.03899613281787495 0.19616032324013366
v -1.9229000998117443 0.033477900403116934 0.18147957018420824
v -1.8581940047019818 0.022862922014914133 0.13917022017312553
v -1.8150766043344349 0.008767226780770798 0.07567345828476935
v -1.8001121015616228 -0.006663239657019204 0.0006561153350994609
v -1.815578731616112 -0.021079329536936697 -0.0744611069796619
v -1.8591218149963622 -0.0322863264204063 -0.1382423010692242
v -1.92411234230733 -0.03857806077542847 -0.1809773340930101
v -2.0006560702259923 -0.03899667984028454 -0.19616021443061227
v -2.0770999187795627 -0.033478447425526525 -0.18147946137468685
v -2.141806013889325 -0.022863469037323725 -0.13917011136360413
v -2.184923414256872 -0.00876777380318039 -0.07567334947524795
v -2.199887917029684 0.006662692634609613 -0.0006560065255780678
v -2.184421286975195 0.021078782514527106 0.0744612157891833
v -2.1408782035949447 0.032285779397996706 0.1382424098787456
v -2.075887676283977 0.03857751375301888 0.18097744290253148
v -1.9993439483653148 0.03899613281787495 0.19616032324013366
vt 0 1
vt 0.0625 1
vt 0.125 1
vt 0.1875 1
vt 0.25 1
vt 0.3125 1
vt 0.375 1
vt 0.4375 1
vt 0.5 1
vt 0.5625 1
vt 0.625 1
vt 0.6875 1
vt 0.75 1
vt 0.8125 1
vt 0.875 1
vt 0.9375 1
vt 1 1
vt 0 0
vt 0.0625 0
vt 0.125 0
vt 0.1875 0
vt 0.25 0
vt 0.3125 0
vt 0.375 0
vt 0.4375 0
vt 0.5 0
vt 0.5625 0
vt 0.625 0
vt 0.6875 0
vt 0.75 0
vt 0.8125 0
vt 0.875 0
vt 0.9375 0
vt 1 0
vt 0.5 0.5
vt 0.5 0.5
vt 0.5 0.5
vt 0.5 0.5
vt 0.5 0.5
vt 0.5 0.5
vt 0.5 0.5
vt 0.5 0.5
vt 0.5 0.5
vt 0.5 0.5
vt 0.5 0.5
vt 0.5 0.5
vt 0.5 0.5
vt 0.5 0.5
vt 0.5 0.5
vt 0.5 0.5
vt 1 0.5
vt 0.9619397521018982 0.6913416981697083
vt 0.8535534143447876 0.8535534143447876
vt 0.6913416981697083 0.9619397521018982
vt 0.5 1
vt 0.30865827202796936 0.9619397521018982
vt 0.1464466154575348 0.8535534143447876
vt 0.03806023299694061 0.6913416981697083
vt 0 0.5
vt 0.03806023299694061 0.30865827202796936
vt 0.1464466154575348 0.1464466154575348
vt 0.30865827202796936 0.03806023299694061
vt 0.5 0
vt 0.6913416981697083 0.03806023299694061
vt 0.8535534143447876 0.1464466154575348
vt 0.9619397521018982 0.30865827202796936
vt 1 0.5
vt 0.5 0.5
vt 0.5 0.5
vt 0.5 0.5
vt 0.5 0.5
vt 0.5 0.5
vt 0.5 0.5
vt 0.5 0.5
vt 0.5 0.5
vt 0.5 0.5
vt 0.5 0.5
vt 0.5 0.5
vt 0.5 0.5
vt 0.5 0.5
vt 0.5 0.5
vt 0.5 0.5
vt 0.5 0.5
vt 1 0.5
vt 0.9619397521018982 0.30865827202796936
vt 0.8535534143447876 0.1464466154575348
vt 0.6913416981697083 0.03806023299694061
vt 0.5 0
vt 0.30865827202796936 0.03806023299694061
vt 0.1464466154575348 0.1464466154575348
vt 0.03806023299694061 0.30865827202796936
vt 0 0.5
vt 0.03806023299694061 0.6913416981697083
vt 0.1464466154575348 0.8535534143447876
vt 0.30865827202796936 0.9619397521018982
vt 0.5 1
vt 0.6913416981697083 0.9619397521018982
vt 0.8535534143447876 0.8535534143447876
vt 0.9619397521018982 0.6913416981697083
vt 1 0.5
vn 0.0032803046028129627 0.19498202873994253 0.980801329561787
vn 0.38549955837061994 0.1673908714425307 0.9073975901741018
vn 0.7090299902778197 0.11431597235994641 0.6958507967589279
vn 0.9246170362965689 0.04383750320717632 0.3783670301475941
vn 0.9994395237773437 -0.03331483023263846 0.0032803046028130234
vn 0.9221063998165436 -0.10539528263961084 -0.3723058175944732
vn 0.7043909390198068 -0.16143025710310094 -0.691211745500915
vn 0.379438345817499 -0.19288893891961276 -0.9048869536940766
vn -0.0032803046028128404 -0.19498202873994253 -0.980801329561787
vn -0.38549955837061994 -0.1673908714425307 -0.9073975901741018
vn -0.7090299902778197 -0.11431597235994641 -0.6958507967589279
vn -0.9246170362965689 -0.04383750320717632 -0.3783670301475941
vn -0.9994395237773437 0.03331483023263844 -0.0032803046028131435
vn -0.9221063998165436 0.10539528263961084 0.3723058175944732
vn -0.7043909390198068 0.16143025710310094 0.691211745500915
vn -0.379438345817499 0.19288893891961276 0.9048869536940766
vn 0.003280304602812718 0.19498202873994253 0.980801329561787
vn 0.0032803046028129627 0.19498202873994253 0.980801329561787
vn 0.38549955837061994 0.1673908714425307 0.9073975901741018
vn 0.7090299902778197 0.11431597235994641 0.6958507967589279
vn 0.9246170362965689 0.04383750320717632 0.3783670301475941
vn 0.9994395237773437 -0.03331483023263846 0.0032803046028130234
vn 0.9221063998165436 -0.10539528263961084 -0.3723058175944732
vn 0.7043909390198068 -0.16143025710310094 -0.691211745500915
vn 0.379438345817499 -0.19288893891961276 -0.9048869536940766
vn -0.0032803046028128404 -0.19498202873994253 -0.980801329561787
vn -0.38549955837061994 -0.1673908714425307 -0.9073975901741018
vn -0.7090299902778197 -0.11431597235994641 -0.6958507967589279
vn -0.9246170362965689 -0.04383750320717632 -0.3783670301475941
vn -0.9994395237773437 0.03331483023263844 -0.0032803046028131435
vn -0.9221063998165436 0.10539528263961084 0.3723058175944732
vn -0.7043909390198068 0.16143025710310094 0.691211745500915
vn -0.379438345817499 0.19288893891961276 0.9048869536940766
vn 0.003280304602812718 0.19498202873994253 0.980801329561787
vn 0.03331483023263847 0.9802408533391305 -0.19498202873994253
vn 0.03331483023263847 0.9802408533391305 -0.19498202873994253
vn 0.03331483023263847 0.9802408533391305 -0.19498202873994253
vn 0.03331483023263847 0.9802408533391305 -0.19498202873994253
vn 0.03331483023263847 0.9802408533391305 -0.19498202873994253
vn 0.03331483023263847 0.9802408533391305 -0.19498202873994253
vn 0.03331483023263847 0.9802408533391305 -0.19498202873994253
vn 0.03331483023263847 0.9802408533391305 -0.19498202873994253
vn 0.03331483023263847 0.9802408533391305 -0.19498202873994253
vn 0.03331483023263847 0.9802408533391305 -0.19498202873994253
vn 0.03331483023263847 0.9802408533391305 -0.19498202873994253
vn 0.03331483023263847 0.9802408533391305 -0.19498202873994253
vn 0.03331483023263847 0.9802408533391305 -0.19498202873994253
vn 0.03331483023263847 0.9802408533391305 -0.19498202873994253
vn 0.03331483023263847 0.9802408533391305 -0.19498202873994253
vn 0.03331483023263847 0.9802408533391305 -0.19498202873994253
vn 0.03331483023263847 0.9802408533391305 -0.19498202873994253
vn 0.03331483023263847 0.9802408533391305 -0.19498202873994253
vn 0.03331483023263847 0.9802408533391305 -0.19498202873994253
vn 0.03331483023263847 0.9802408533391305 -0.19498202873994253
vn 0.03331483023263847 0.9802408533391305 -0.19498202873994253
vn 0.03331483023263847 0.9802408533391305 -0.19498202873994253
vn 0.03331483023263847 0.9802408533391305 -0.19498202873994253
vn 0.03331483023263847 0.9802408533391305 -0.19498202873994253
vn 0.03331483023263847 0.9802408533391305 -0.19498202873994253
vn 0.03331483023263847 0.9802408533391305 -0.19498202873994253
vn 0.03331483023263847 0.9802408533391305 -0.19498202873994253
vn 0.03331483023263847 0.9802408533391305 -0.19498202873994253
vn 0.03331483023263847 0.9802408533391305 -0.19498202873994253
vn 0.03331483023263847 0.9802408533391305 -0.19498202873994253
vn 0.03331483023263847 0.9802408533391305 -0.19498202873994253
vn 0.03331483023263847 0.9802408533391305 -0.19498202873994253
vn 0.03331483023263847 0.9802408533391305 -0.19498202873994253
vn -0.03331483023263847 -0.9802408533391305 0.19498202873994253
vn -0.03331483023263847 -0.9802408533391305 0.19498202873994253
vn -0.03331483023263847 -0.9802408533391305 0.19498202873994253
vn -0.03331483023263847 -0.9802408533391305 0.19498202873994253
vn -0.03331483023263847 -0.9802408533391305 0.19498202873994253
vn -0.03331483023263847 -0.9802408533391305 0.19498202873994253
vn -0.03331483023263847 -0.9802408533391305 0.19498202873994253
vn -0.03331483023263847 -0.9802408533391305 0.19498202873994253
vn -0.03331483023263847 -0.9802408533391305 0.19498202873994253
vn -0.03331483023263847 -0.9802408533391305 0.19498202873994253
vn -0.03331483023263847 -0.9802408533391305 0.19498202873994253
vn -0.03331483023263847 -0.9802408533391305 0.19498202873994253
vn -0.03331483023263847 -0.9802408533391305 0.19498202873994253
vn -0.03331483023263847 -0.9802408533391305 0.19498202873994253
vn -0.03331483023263847 -0.9802408533391305 0.19498202873994253
vn -0.03331483023263847 -0.9802408533391305 0.19498202873994253
vn -0.03331483023263847 -0.9802408533391305 0.19498202873994253
vn -0.03331483023263847 -0.9802408533391305 0.19498202873994253
vn -0.03331483023263847 -0.9802408533391305 0.19498202873994253
vn -0.03331483023263847 -0.9802408533391305 0.19498202873994253
vn -0.03331483023263847 -0.9802408533391305 0.19498202873994253
vn -0.03331483023263847 -0.9802408533391305 0.19498202873994253
vn -0.03331483023263847 -0.9802408533391305 0.19498202873994253
vn -0.03331483023263847 -0.9802408533391305 0.19498202873994253
vn -0.03331483023263847 -0.9802408533391305 0.19498202873994253
vn -0.03331483023263847 -0.9802408533391305 0.19498202873994253
vn -0.03331483023263847 -0.9802408533391305 0.19498202873994253
vn -0.03331483023263847 -0.9802408533391305 0.19498202873994253
vn -0.03331483023263847 -0.9802408533391305 0.19498202873994253
vn -0.03331483023263847 -0.9802408533391305 0.19498202873994253
vn -0.03331483023263847 -0.9802408533391305 0.19498202873994253
vn -0.03331483023263847 -0.9802408533391305 0.19498202873994253
vn -0.03331483023263847 -0.9802408533391305 0.19498202873994253
f 1/1/1 18/18/18 2/2/2
f 18/18/18 19/19/19 2/2/2
f 2/2/2 19/19/19 3/3/3
f 19/19/19 20/20/20 3/3/3
f 3/3/3 20/20/20 4/4/4
f 20/20/20 21/21/21 4/4/4
f 4/4/4 21/21/21 5/5/5
f 21/21/21 22/22/22 5/5/5
f 5/5/5 22/22/22 6/6/6
f 22/22/22 23/23/23 6/6/6
f 6/6/6 23/23/23 7/7/7
f 23/23/23 24/24/24 7/7/7
f 7/7/7 24/24/24 8/8/8
f 24/24/24 25/25/25 8/8/8
f 8/8/8 25/25/25 9/9/9
f 25/25/25 26/26/26 9/9/9
f 9/9/9 26/26/26 10/10/10
f 26/26/26 27/27/27 10/10/10
f 10/10/10 27/27/27 11/11/11
f 27/27/27 28/28/28 11/11/11
f 11/11/11 28/28/28 12/12/12
f 28/28/28 29/29/29 12/12/12
f 12/12/12 29/29/29 13/13/13
f 29/29/29 30/30/30 13/13/13
f 13/13/13 30/30/30 14/14/14
f 30/30/30 31/31/31 14/14/14
f 14/14/14 31/31/31 15/15/15
f 31/31/31 32/32/32 15/15/15
f 15/15/15 32/32/32 16/16/16
f 32/32/32 33/33/33 16/16/16
f 16/16/16 33/33/33 17/17/17
f 33/33/33 34/34/34 17/17/17
f 51/51/51 52/52/52 35/35/35
f 52/52/52 53/53/53 36/36/36
f 53/53/53 54/54/54 37/37/37
f 54/54/54 55/55/55 38/38/38
f 55/55/55 56/56/56 39/39/39
f 56/56/56 57/57/57 40/40/40
f 57/57/57 58/58/58 41/41/41
f 58/58/58 59/59/59 42/42/42
f 59/59/59 60/60/60 43/43/43
f 60/60/60 61/61/61 44/44/44
f 61/61/61 62/62/62 45/45/45
f 62/62/62 63/63/63 46/46/46
f 63/63/63 64/64/64 47/47/47
f 64/64/64 65/65/65 48/48/48
f 65/65/65 66/66/66 49/49/49
f 66/66/66 67/67/67 50/50/50
f 85/85/85 84/84/84 68/68/68
f 86/86/86 85/85/85 69/69/69
f 87/87/87 86/86/86 70/70/70
f 88/88/88 87/87/87 71/71/71
f 89/89/89 88/88/88 72/72/72
f 90/90/90 89/89/89 73/73/73
f 91/91/91 90/90/90 74/74/74
f 92/92/92 91/91/91 75/75/75
f 93/93/93 92/92/92 76/76/76
f 94/94/94 93/93/93 77/77/77
f 95/95/95 94/94/94 78/78/78
f 96/96/96 95/95/95 79/79/79
f 97/97/97 96/96/96 80/80/80
f 98/98/98 97/97/97 81/81/81
f 99/99/99 98/98/98 82/82/82
f 100/100/100 99/99/99 83/83/83
