o spoke_front_30
v 1.0099628606146653 -11.66517641910948 27.640251488104262
v 1.0856036087335736 -11.6485691863334 27.649859527679876
v 1.1482119915306968 -11.606375425089979 27.669595650008183
v 1.188256424006101 -11.545018725770062 27.696455219721493
v 1.1996405359284634 -11.473840111525682 27.726349102890836
v 1.1806311737367554 -11.403675873839171 27.75472622888853
v 1.1341223653437003 -11.345207872869931 27.77726644213985
v 1.0671946260845875 -11.307337355659689 27.790538188550507
v 0.9900371207940274 -11.295829736233511 27.792520977856775
v 0.9143963726751191 -11.31243696900959 27.78291293828116
v 0.851787989877996 -11.354630730253014 27.763176815952853
v 0.8117435574025919 -11.41598742957293 27.736317246239544
v 0.8003594454802294 -11.487166043817309 27.7064233630702
v 0.8193688076719373 -11.55733028150382 27.678046237072508
v 0.8658776160649925 -11.615798282473058 27.655506023821186
v 0.9328053553241055 -11.653668799683302 27.64223427741053
v 1.0099628606146653 -11.66517641910948 27.640251488104262
v 2.0099628792059727 -0.1846732347192006 -0.0761350025181784
v 2.085603627324881 -0.16806600194312082 -0.06652696294256444
v 2.148212010122004 -0.1258722406996986 -0.04679084061425698
v 2.188256442597408 -0.064515541379782 -0.01993127090094937
v 2.1996405545197706 0.006663072864597552 0.009962612268397564
v 2.180631192328063 0.07682731055110814 0.038339738266090606
v 2.1341223839350074 0.13529531152034746 0.06087995151741055
v 2.0671946446758946 0.17316582873059083 0.07415169792806608
v 1.9900371393853347 0.18467344815676867 0.07613448723433436
v 1.9143963912664264 0.1680662153806889 0.0665264476587204
v 1.8517880084693032 0.12587245413726666 0.04679032533041294
v 1.811743575993899 0.06451575481735006 0.019930755617105333
v 1.8003594640715366 -0.006662859427029488 -0.009963127552241602
v 1.8193688262632446 -0.07682709711354008 -0.038340253549934644
v 1.8658776346562997 -0.1352950980827794 -0.060880466801254585
v 1.9328053739154125 -0.17316561529302277 -0.07415221321191012
v 2.0099628792059727 -0.1846732347192006 -0.0761350025181784
v 0.9999999907043464 -11.480503077671496 27.71638623298052
v 0.9999999907043464 -11.480503077671496 27.71638623298052
v 0.9999999907043464 -11.480503077671496 27.71638623298052
v 0.9999999907043464 -11.480503077671496 27.71638623298052
v 0.9999999907043464 -11.480503077671496 27.71638623298052
v 0.9999999907043464 -11.480503077671496 27.71638623298052
v 0.9999999907043464 -11.480503077671496 27.71638623298052
v 0.9999999907043464 -11.480503077671496 27.71638623298052
v 0.9999999907043464 -11.480503077671496 27.71638623298052
v 0.9999999907043464 -11.480503077671496 27.71638623298052
v 0.9999999907043464 -11.480503077671496 27.71638623298052
v 0.9999999907043464 -11.480503077671496 27.71638623298052
v 0.9999999907043464 -11.480503077671496 27.71638623298052
v 0.9999999907043464 -11.480503077671496 27.71638623298052
v 0.9999999907043464 -11.480503077671496 27.71638623298052
v 0.9999999907043464 -11.480503077671496 27.71638623298052
v 1.0099628606146653 -11.66517641910948 27.640251488104262
v 1.0856036087335736 -11.6485691863334 27.649859527679876
v 1.1482119915306968 -11.606375425089979 27.669595650008183
v 1.188256424006101 -11.545018725770062 27.696455219721493
v 1.1996405359284634 -11.473840111525682 27.726349102890836
v 1.1806311737367554 -11.403675873839171 27.75472622888853
v 1.1341223653437003 -11.345207872869931 27.77726644213985
v 1.0671946260845875 -11.307337355659689 27.790538188550507
v 0.9900371207940274 -11.295829736233511 27.792520977856775
v 0.9143963726751191 -11.31243696900959 27.78291293828116
v 0.851787989877996 -11.354630730253014 27.763176815952853
v 0.8117435574025919 -11.41598742957293 27.736317246239544
v 0.8003594454802294 -11.487166043817309 27.7064233630702
v 0.8193688076719373 -11.55733028150382 27.678046237072508
v 0.8658776160649925 -11.615798282473058 27.655506023821186
v 0.9328053553241055 -11.653668799683302 27.64223427741053
v 1.0099628606146653 -11.66517641910948 27.640251488104262
v 2.0000000092956536 1.0671878403201163e-7 -2.5764192201904734e-7
v 2.0000000092956536 1.0671878403201163e-7 -2.5764192201904734e-7
v 2.0000000092956536 1.0671878403201163e-7 -2.5764192201904734e-7
v 2.0000000092956536 1.0671878403201163e-7 -2.5764192201904734e-7
v 2.0000000092956536 1.0671878403201163e-7 -2.5764192201904734e-7
v 2.0000000092956536 1.0671878403201163e-7 -2.5764192201904734e-7
v 2.0000000092956536 1.0671878403201163e-7 -2.5764192201904734e-7
v 2.0000000092956536 1.0671878403201163e-7 -2.5764192201904734e-7
v 2.0000000092956536 1.0671878403201163e-7 -2.5764192201904734e-7
v 2.0000000092956536 1.0671878403201163e-7 -2.5764192201904734e-7
v 2.0000000092956536 1.0671878403201163e-7 -2.5764192201904734e-7
v 2.0000000092956536 1.0671878403201163e-7 -2.5764192201904734e-7
v 2.0000000092956536 1.0671878403201163e-7 -2.5764192201904734e-7
v 2.0000000092956536 1.0671878403201163e-7 -2.5764192201904734e-7
v 2.0000000092956536 1.0671878403201163e-7 -2.5764192201904734e-7
v 2.0000000092956536 1.0671878403201163e-7 -2.5764192201904734e-7
v 2.0099628792059727 -0.1846732347192006 -0.0761350025181784
v 2.085603627324881 -0.16806600194312082 -0.06652696294256444
v 2.148212010122004 -0.1258722406996986 -0.04679084061425698
v 2.188256442597408 -0.064515541379782 -0.01993127090094937
v 2.1996405545197706 0.006663072864597552 0.009962612268397564
v 2.180631192328063 0.07682731055110814 0.038339738266090606
v 2.1341223839350074 0.13529531152034746 0.06087995151741055
v 2.0671946446758946 0.17316582873059083 0.07415169792806608
v 1.9900371393853347 0.18467344815676867 0.07613448723433436
v 1.9143963912664264 0.1680662153806889 0.0665264476587204
v 1.8517880084693032 0.12587245413726666 0.04679032533041294
v 1.811743575993899 0.06451575481735006 0.019930755617105333
v 1.8003594640715366 -0.006662859427029488 -0.009963127552241602
v 1.8193688262632446 -0.07682709711354008 -0.038340253549934644
v 1.8658776346562997 -0.1352950980827794 -0.060880466801254585
v 1.9328053739154125 -0.17316561529302277 -0.07415221321191012
v 2.0099628792059727 -0.1846732347192006 -0.0761350025181784
vt 0 1
vt 0.0625 1
vt 0.125 1
vt 0.1875 1
vt 0.25 1
vt 0.3125 1
vt 0.375 1
vt 0.4375 1
vt 0.5 1
vt 0.5625 1
vt 0.625 1
vt 0.6875 1
vt 0.75 1
vt 0.8125 1
vt 0.875 1
vt 0.9375 1
vt 1 1
vt 0 0
vt 0.0625 0
vt 0.125 0
vt 0.1875 0
vt 0.25 0
vt 0.3125 0
vt 0.375 0
vt 0.4375 0
vt 0.5 0
vt 0.5625 0
vt 0.625 0
vt 0.6875 0
vt 0.75 0
vt 0.8125 0
vt 0.875 0
vt 0.9375 0
vt 1 0
vt 0.5 0.5
vt 0.5 0.5
vt 0.5 0.5
vt 0.5 0.5
vt 0.5 0.5
vt 0.5 0.5
vt 0.5 0.5
vt 0.5 0.5
vt 0.5 0.5
vt 0.5 0.5
vt 0.5 0.5
vt 0.5 0.5
vt 0.5 0.5
vt 0.5 0.5
vt 0.5 0.5
vt 0.5 0.5
vt 1 0.5
vt 0.9619397521018982 0.6913416981697083
vt 0.8535534143447876 0.8535534143447876
vt 0.6913416981697083 0.9619397521018982
vt 0.5 1
vt 0.30865827202796936 0.9619397521018982
vt 0.1464466154575348 0.8535534143447876
vt 0.03806023299694061 0.6913416981697083
vt 0 0.5
vt 0.03806023299694061 0.30865827202796936
vt 0.1464466154575348 0.1464466154575348
vt 0.30865827202796936 0.03806023299694061
vt 0.5 0
vt 0.6913416981697083 0.03806023299694061
vt 0.8535534143447876 0.1464466154575348
vt 0.9619397521018982 0.30865827202796936
vt 1 0.5
vt 0.5 0.5
vt 0.5 0.5
vt 0.5 0.5
vt 0.5 0.5
vt 0.5 0.5
vt 0.5 0.5
vt 0.5 0.5
vt 0.5 0.5
vt 0.5 0.5
vt 0.5 0.5
vt 0.5 0.5
vt 0.5 0.5
vt 0.5 0.5
vt 0.5 0.5
vt 0.5 0.5
vt 0.5 0.5
vt 1 0.5
vt 0.9619397521018982 0.30865827202796936
vt 0.8535534143447876 0.1464466154575348
vt 0.6913416981697083 0.03806023299694061
vt 0.5 0
vt 0.30865827202796936 0.03806023299694061
vt 0.1464466154575348 0.1464466154575348
vt 0.03806023299694061 0.30865827202796936
vt 0 0.5
vt 0.03806023299694061 0.6913416981697083
vt 0.1464466154575348 0.8535534143447876
vt 0.30865827202796936 0.9619397521018982
vt 0.5 1
vt 0.6913416981697083 0.9619397521018982
vt 0.8535534143447876 0.8535534143447876
vt 0.9619397521018982 0.6913416981697083
vt 1 0.5
vn 0.04981434880930325 -0.9233666934306872 -0.3806737187087971
vn 0.4280181016170352 -0.8403305535285166 -0.3326335303221948
vn 0.7410599699644395 -0.6293617080750614 -0.23395290407504032
vn 0.9412821784932067 -0.3225782501937998 -0.09965506988101105
vn 0.9982027112462055 0.033314830232638405 0.049814348809303216
vn 0.9031559260585739 0.3841360296262343 0.19169998426779492
vn 0.6706118422775389 0.676475992818216 0.304401031761941
vn 0.3359731872302513 0.8658286210055988 0.3707597827568278
vn -0.049814348809303126 0.9233666934306872 0.3806737187087971
vn -0.4280181016170352 0.8403305535285166 0.3326335303221948
vn -0.7410599699644395 0.6293617080750614 0.23395290407504032
vn -0.9412821784932067 0.3225782501937998 0.09965506988101105
vn -0.9982027112462055 -0.033314830232638294 -0.04981434880930317
vn -0.9031559260585739 -0.3841360296262343 -0.19169998426779492
vn -0.6706118422775389 -0.676475992818216 -0.304401031761941
vn -0.3359731872302513 -0.8658286210055988 -0.3707597827568278
vn 0.04981434880930301 -0.9233666934306872 -0.3806737187087971
vn 0.04981434880930325 -0.9233666934306872 -0.3806737187087971
vn 0.4280181016170352 -0.8403305535285166 -0.3326335303221948
vn 0.7410599699644395 -0.6293617080750614 -0.23395290407504032
vn 0.9412821784932067 -0.3225782501937998 -0.09965506988101105
vn 0.9982027112462055 0.033314830232638405 0.049814348809303216
vn 0.9031559260585739 0.3841360296262343 0.19169998426779492
vn 0.6706118422775389 0.676475992818216 0.304401031761941
vn 0.3359731872302513 0.8658286210055988 0.3707597827568278
vn -0.049814348809303126 0.9233666934306872 0.3806737187087971
vn -0.4280181016170352 0.8403305535285166 0.3326335303221948
vn -0.7410599699644395 0.6293617080750614 0.23395290407504032
vn -0.9412821784932067 0.3225782501937998 0.09965506988101105
vn -0.9982027112462055 -0.033314830232638294 -0.04981434880930317
vn -0.9031559260585739 -0.3841360296262343 -0.19169998426779492
vn -0.6706118422775389 -0.676475992818216 -0.304401031761941
vn -0.3359731872302513 -0.8658286210055988 -0.3707597827568278
vn 0.04981434880930301 -0.9233666934306872 -0.3806737187087971
vn -0.03331483023263847 -0.3824710074625916 0.9233666934306872
vn -0.03331483023263847 -0.3824710074625916 0.9233666934306872
vn -0.03331483023263847 -0.3824710074625916 0.9233666934306872
vn -0.03331483023263847 -0.3824710074625916 0.9233666934306872
vn -0.03331483023263847 -0.3824710074625916 0.9233666934306872
vn -0.03331483023263847 -0.3824710074625916 0.9233666934306872
vn -0.03331483023263847 -0.3824710074625916 0.9233666934306872
vn -0.03331483023263847 -0.3824710074625916 0.9233666934306872
vn -0.03331483023263847 -0.3824710074625916 0.9233666934306872
vn -0.03331483023263847 -0.3824710074625916 0.9233666934306872
vn -0.03331483023263847 -0.3824710074625916 0.9233666934306872
vn -0.03331483023263847 -0.3824710074625916 0.9233666934306872
vn -0.03331483023263847 -0.3824710074625916 0.9233666934306872
vn -0.03331483023263847 -0.3824710074625916 0.9233666934306872
vn -0.03331483023263847 -0.3824710074625916 0.9233666934306872
vn -0.03331483023263847 -0.3824710074625916 0.9233666934306872
vn -0.03331483023263847 -0.3824710074625916 0.9233666934306872
vn -0.03331483023263847 -0.3824710074625916 0.9233666934306872
vn -0.03331483023263847 -0.3824710074625916 0.9233666934306872
vn -0.03331483023263847 -0.3824710074625916 0.9233666934306872
vn -0.03331483023263847 -0.3824710074625916 0.9233666934306872
vn -0.03331483023263847 -0.3824710074625916 0.9233666934306872
vn -0.03331483023263847 -0.3824710074625916 0.9233666934306872
vn -0.03331483023263847 -0.3824710074625916 0.9233666934306872
vn -0.03331483023263847 -0.3824710074625916 0.9233666934306872
vn -0.03331483023263847 -0.3824710074625916 0.9233666934306872
vn -0.03331483023263847 -0.3824710074625916 0.9233666934306872
vn -0.03331483023263847 -0.3824710074625916 0.9233666934306872
vn -0.03331483023263847 -0.3824710074625916 0.9233666934306872
vn -0.03331483023263847 -0.3824710074625916 0.9233666934306872
vn -0.03331483023263847 -0.3824710074625916 0.9233666934306872
vn -0.03331483023263847 -0.3824710074625916 0.9233666934306872
vn -0.03331483023263847 -0.3824710074625916 0.9233666934306872
vn 0.03331483023263847 0.3824710074625916 -0.9233666934306872
vn 0.03331483023263847 0.3824710074625916 -0.9233666934306872
vn 0.03331483023263847 0.3824710074625916 -0.9233666934306872
vn 0.03331483023263847 0.3824710074625916 -0.9233666934306872
vn 0.03331483023263847 0.3824710074625916 -0.9233666934306872
vn 0.03331483023263847 0.3824710074625916 -0.9233666934306872
vn 0.03331483023263847 0.3824710074625916 -0.9233666934306872
vn 0.03331483023263847 0.3824710074625916 -0.9233666934306872
vn 0.03331483023263847 0.3824710074625916 -0.9233666934306872
vn 0.03331483023263847 0.3824710074625916 -0.9233666934306872
vn 0.03331483023263847 0.3824710074625916 -0.9233666934306872
vn 0.03331483023263847 0.3824710074625916 -0.9233666934306872
vn 0.03331483023263847 0.3824710074625916 -0.9233666934306872
vn 0.03331483023263847 0.3824710074625916 -0.9233666934306872
vn 0.03331483023263847 0.3824710074625916 -0.9233666934306872
vn 0.03331483023263847 0.3824710074625916 -0.9233666934306872
vn 0.03331483023263847 0.3824710074625916 -0.9233666934306872
vn 0.03331483023263847 0.3824710074625916 -0.9233666934306872
vn 0.03331483023263847 0.3824710074625916 -0.9233666934306872
vn 0.03331483023263847 0.3824710074625916 -0.9233666934306872
vn 0.03331483023263847 0.3824710074625916 -0.9233666934306872
vn 0.03331483023263847 0.3824710074625916 -0.9233666934306872
vn 0.03331483023263847 0.3824710074625916 -0.9233666934306872
vn 0.03331483023263847 0.3824710074625916 -0.9233666934306872
vn 0.03331483023263847 0.3824710074625916 -0.9233666934306872
vn 0.03331483023263847 0.3824710074625916 -0.9233666934306872
vn 0.03331483023263847 0.3824710074625916 -0.9233666934306872
vn 0.03331483023263847 0.3824710074625916 -0.9233666934306872
vn 0.03331483023263847 0.3824710074625916 -0.9233666934306872
vn 0.03331483023263847 0.3824710074625916 -0.9233666934306872
vn 0.03331483023263847 0.3824710074625916 -0.9233666934306872
vn 0.03331483023263847 0.3824710074625916 -0.9233666934306872
vn 0.03331483023263847 0.3824710074625916 -0.9233666934306872
f 1/1/1 18/18/18 2/2/2
f 18/18/18 19/19/19 2/2/2
f 2/2/2 19/19/19 3/3/3
f 19/19/19 20/20/20 3/3/3
f 3/3/3 20/20/20 4/4/4
f 20/20/20 21/21/21 4/4/4
f 4/4/4 21/21/21 5/5/5
f 21/21/21 22/22/22 5/5/5
f 5/5/5 22/22/22 6/6/6
f 22/22/22 23/23/23 6/6/6
f 6/6/6 23/23/23 7/7/7
f 23/23/23 24/24/24 7/7/7
f 7/7/7 24/24/24 8/8/8
f 24/24/24 25/25/25 8/8/8
f 8/8/8 25/25/25 9/9/9
f 25/25/25 26/26/26 9/9/9
f 9/9/9 26/26/26 10/10/10
f 26/26/26 27/27/27 10/10/10
f 10/10/10 27/27/27 11/11/11
f 27/27/27 28/28/28 11/11/11
f 11/11/11 28/28/28 12/12/12
f 28/28/28 29/29/29 12/12/12
f 12/12/12 29/29/29 13/13/13
f 29/29/29 30/30/30 13/13/13
f 13/13/13 30/30/30 14/14/14
f 30/30/30 31/31/31 14/14/14
f 14/14/14 31/31/31 15/15/15
f 31/31/31 32/32/32 15/15/15
f 15/15/15 32/32/32 16/16/16
f 32/32/32 33/33/33 16/16/16
f 16/16/16 33/33/33 17/17/17
f 33/33/33 34/34/34 17/17/17
f 51/51/51 52/52/52 35/35/35
f 52/52/52 53/53/53 36/36/36
f 53/53/53 54/54/54 37/37/37
f 54/54/54 55/55/55 38/38/38
f 55/55/55 56/56/56 39/39/39
f 56/56/56 57/57/57 40/40/40
f 57/57/57 58/58/58 41/41/41
f 58/58/58 59/59/59 42/42/42
f 59/59/59 60/60/60 43/43/43
f 60/60/60 61/61/61 44/44/44
f 61/61/61 62/62/62 45/45/45
f 62/62/62 63/63/63 46/46/46
f 63/63/63 64/64/64 47/47/47
f 64/64/64 65/65/65 48/48/48
f 65/65/65 66/66/66 49/49/49
f 66/66/66 67/67/67 50/50/50
f 85/85/85 84/84/84 68/68/68
f 86/86/86 85/85/85 69/69/69
f 87/87/87 86/86/86 70/70/70
f 88/88/88 87/87/87 71/71/71
f 89/89/89 88/88/88 72/72/72
f 90/90/90 89/89/89 73/73/73
f 91/91/91 90/90/90 74/74/74
f 92/92/92 91/91/91 75/75/75
f 93/93/93 92/92/92 76/76/76
f 94/94/94 93/93/93 77/77/77
f 95/95/95 94/94/94 78/78/78
f 96/96/96 95/95/95 79/79/79
f 97/97/97 96/96/96 80/80/80
f 98/98/98 97/97/97 81/81/81
f 99/99/99 98/98/98 82/82/82
f 100/100/100 99/99/99 83/83/83
