o spoke_front_22
v 0.9667456331858763 -27.639892030348157 -11.662279824979176
v 1.0447051780087895 -27.643165000216353 -11.66116878033576
v 1.1158587696071658 -27.657585233198326 -11.632553034804793
v 1.1693738992933982 -27.68095739200652 -11.580789044462025
v 1.1971033995542864 -27.709723266834715 -11.513757435189955
v 1.1948256818527583 -27.739503518220786 -11.441663149629944
v 1.1628875344853156 -27.765764375379653 -11.375481885416324
v 1.1061512167577898 -27.784507852394803 -11.32528915756657
v 1.0332543482228171 -27.7928804356129 -11.298726330363792
v 0.955294803399904 -27.789607465744705 -11.299837375007208
v 0.8841412118015278 -27.775187232762732 -11.328453120538175
v 0.8306260821152954 -27.75181507395454 -11.380217110880944
v 0.8028965818544073 -27.723049199126343 -11.447248720153013
v 0.8051742995559353 -27.693268947740272 -11.519343005713024
v 0.837112446923378 -27.667008090581405 -11.585524269926644
v 0.8938487646509037 -27.648264613566255 -11.635716997776399
v 0.9667456331858763 -27.639892030348157 -11.662279824979176
v 1.9667456517771829 0.07649446027430251 -0.18177664058891807
v 2.0447051966000958 0.07322149040610881 -0.18066559594550125
v 2.115858788198472 0.05880125742413789 -0.15204985041453511
v 2.1693739178847045 0.035429098615944454 -0.10028586007176621
v 2.1971034181455926 0.006663223787747086 -0.03325425079969602
v 2.1948257004440648 -0.023117027598322792 0.03884003476031417
v 2.162887553076622 -0.04937788475718996 0.10502129897393431
v 2.1061512353490963 -0.06812136177234152 0.1552140268236899
v 2.033254366814124 -0.07649394499043716 0.1817768540264666
v 1.9552948219912105 -0.07322097512224346 0.18066580938304977
v 1.8841412303928342 -0.05880074214027253 0.15205006385208364
v 1.8306261007066018 -0.0354285833320791 0.10028607350931473
v 1.8028966004457136 -0.006662708503881731 0.03325446423724454
v 1.8051743181472417 0.023117542882188147 -0.038839821322765644
v 1.8371124655146844 0.049378400041055315 -0.10502108553638578
v 1.8938487832422102 0.06812187705620687 -0.15521381338614137
v 1.9667456517771829 0.07649446027430251 -0.18177664058891807
v 0.9999999907043468 -27.71638623298053 -11.480503077671484
v 0.9999999907043468 -27.71638623298053 -11.480503077671484
v 0.9999999907043468 -27.71638623298053 -11.480503077671484
v 0.9999999907043468 -27.71638623298053 -11.480503077671484
v 0.9999999907043468 -27.71638623298053 -11.480503077671484
v 0.9999999907043468 -27.71638623298053 -11.480503077671484
v 0.9999999907043468 -27.71638623298053 -11.480503077671484
v 0.9999999907043468 -27.71638623298053 -11.480503077671484
v 0.9999999907043468 -27.71638623298053 -11.480503077671484
v 0.9999999907043468 -27.71638623298053 -11.480503077671484
v 0.9999999907043468 -27.71638623298053 -11.480503077671484
v 0.9999999907043468 -27.71638623298053 -11.480503077671484
v 0.9999999907043468 -27.71638623298053 -11.480503077671484
v 0.9999999907043468 -27.71638623298053 -11.480503077671484
v 0.9999999907043468 -27.71638623298053 -11.480503077671484
v 0.9999999907043468 -27.71638623298053 -11.480503077671484
v 0.9667456331858763 -27.639892030348157 -11.662279824979176
v 1.0447051780087895 -27.643165000216353 -11.66116878033576
v 1.1158587696071658 -27.657585233198326 -11.632553034804793
v 1.1693738992933982 -27.68095739200652 -11.580789044462025
v 1.1971033995542864 -27.709723266834715 -11.513757435189955
v 1.1948256818527583 -27.739503518220786 -11.441663149629944
v 1.1628875344853156 -27.765764375379653 -11.375481885416324
v 1.1061512167577898 -27.784507852394803 -11.32528915756657
v 1.0332543482228171 -27.7928804356129 -11.298726330363792
v 0.955294803399904 -27.789607465744705 -11.299837375007208
v 0.8841412118015278 -27.775187232762732 -11.328453120538175
v 0.8306260821152954 -27.75181507395454 -11.380217110880944
v 0.8028965818544073 -27.723049199126343 -11.447248720153013
v 0.8051742995559353 -27.693268947740272 -11.519343005713024
v 0.837112446923378 -27.667008090581405 -11.585524269926644
v 0.8938487646509037 -27.648264613566255 -11.635716997776399
v 0.9667456331858763 -27.639892030348157 -11.662279824979176
v 2.000000009295653 2.576419326771884e-7 1.0671877426204901e-7
v 2.000000009295653 2.576419326771884e-7 1.0671877426204901e-7
v 2.000000009295653 2.576419326771884e-7 1.0671877426204901e-7
v 2.000000009295653 2.576419326771884e-7 1.0671877426204901e-7
v 2.000000009295653 2.576419326771884e-7 1.0671877426204901e-7
v 2.000000009295653 2.576419326771884e-7 1.0671877426204901e-7
v 2.000000009295653 2.576419326771884e-7 1.0671877426204901e-7
v 2.000000009295653 2.576419326771884e-7 1.0671877426204901e-7
v 2.000000009295653 2.576419326771884e-7 1.0671877426204901e-7
v 2.000000009295653 2.576419326771884e-7 1.0671877426204901e-7
v 2.000000009295653 2.576419326771884e-7 1.0671877426204901e-7
v 2.000000009295653 2.576419326771884e-7 1.0671877426204901e-7
v 2.000000009295653 2.576419326771884e-7 1.0671877426204901e-7
v 2.000000009295653 2.576419326771884e-7 1.0671877426204901e-7
v 2.000000009295653 2.576419326771884e-7 1.0671877426204901e-7
v 2.000000009295653 2.576419326771884e-7 1.0671877426204901e-7
v 1.9667456517771829 0.07649446027430251 -0.18177664058891807
v 2.0447051966000958 0.07322149040610881 -0.18066559594550125
v 2.115858788198472 0.05880125742413789 -0.15204985041453511
v 2.1693739178847045 0.035429098615944454 -0.10028586007176621
v 2.1971034181455926 0.006663223787747086 -0.03325425079969602
v 2.1948257004440648 -0.023117027598322792 0.03884003476031417
v 2.162887553076622 -0.04937788475718996 0.10502129897393431
v 2.1061512353490963 -0.06812136177234152 0.1552140268236899
v 2.033254366814124 -0.07649394499043716 0.1817768540264666
v 1.9552948219912105 -0.07322097512224346 0.18066580938304977
v 1.8841412303928342 -0.05880074214027253 0.15205006385208364
v 1.8306261007066018 -0.0354285833320791 0.10028607350931473
v 1.8028966004457136 -0.006662708503881731 0.03325446423724454
v 1.8051743181472417 0.023117542882188147 -0.038839821322765644
v 1.8371124655146844 0.049378400041055315 -0.10502108553638578
v 1.8938487832422102 0.06812187705620687 -0.15521381338614137
v 1.9667456517771829 0.07649446027430251 -0.18177664058891807
vt 0 1
vt 0.0625 1
vt 0.125 1
vt 0.1875 1
vt 0.25 1
vt 0.3125 1
vt 0.375 1
vt 0.4375 1
vt 0.5 1
vt 0.5625 1
vt 0.625 1
vt 0.6875 1
vt 0.75 1
vt 0.8125 1
vt 0.875 1
vt 0.9375 1
vt 1 1
vt 0 0
vt 0.0625 0
vt 0.125 0
vt 0.1875 0
vt 0.25 0
vt 0.3125 0
vt 0.375 0
vt 0.4375 0
vt 0.5 0
vt 0.5625 0
vt 0.625 0
vt 0.6875 0
vt 0.75 0
vt 0.8125 0
vt 0.875 0
vt 0.9375 0
vt 1 0
vt 0.5 0.5
vt 0.5 0.5
vt 0.5 0.5
vt 0.5 0.5
vt 0.5 0.5
vt 0.5 0.5
vt 0.5 0.5
vt 0.5 0.5
vt 0.5 0.5
vt 0.5 0.5
vt 0.5 0.5
vt 0.5 0.5
vt 0.5 0.5
vt 0.5 0.5
vt 0.5 0.5
vt 0.5 0.5
vt 1 0.5
vt 0.9619397521018982 0.6913416981697083
vt 0.8535534143447876 0.8535534143447876
vt 0.6913416981697083 0.9619397521018982
vt 0.5 1
vt 0.30865827202796936 0.9619397521018982
vt 0.1464466154575348 0.8535534143447876
vt 0.03806023299694061 0.6913416981697083
vt 0 0.5
vt 0.03806023299694061 0.30865827202796936
vt 0.1464466154575348 0.1464466154575348
vt 0.30865827202796936 0.03806023299694061
vt 0.5 0
vt 0.6913416981697083 0.03806023299694061
vt 0.8535534143447876 0.1464466154575348
vt 0.9619397521018982 0.30865827202796936
vt 1 0.5
vt 0.5 0.5
vt 0.5 0.5
vt 0.5 0.5
vt 0.5 0.5
vt 0.5 0.5
vt 0.5 0.5
vt 0.5 0.5
vt 0.5 0.5
vt 0.5 0.5
vt 0.5 0.5
vt 0.5 0.5
vt 0.5 0.5
vt 0.5 0.5
vt 0.5 0.5
vt 0.5 0.5
vt 0.5 0.5
vt 1 0.5
vt 0.9619397521018982 0.30865827202796936
vt 0.8535534143447876 0.1464466154575348
vt 0.6913416981697083 0.03806023299694061
vt 0.5 0
vt 0.30865827202796936 0.03806023299694061
vt 0.1464466154575348 0.1464466154575348
vt 0.03806023299694061 0.30865827202796936
vt 0 0.5
vt 0.03806023299694061 0.6913416981697083
vt 0.1464466154575348 0.8535534143447876
vt 0.30865827202796936 0.9619397521018982
vt 0.5 1
vt 0.6913416981697083 0.9619397521018982
vt 0.8535534143447876 0.8535534143447876
vt 0.9619397521018982 0.6913416981697083
vt 1 0.5
vn -0.1662717851147099 0.3824710074625908 -0.9088837229950368
vn 0.2235259453780093 0.3661061685681988 -0.9033285255537882
vn 0.579293867805171 0.2940049853556257 -0.7602497506144698
vn 0.8468695524247256 0.1771442094283136 -0.5014298457829998
vn 0.9855170295643493 0.03331483023263845 -0.16627178511470986
vn 0.9741284688527679 -0.11558642999587915 0.19419964822668934
vn 0.8144376813543784 -0.24689070061247118 0.525105937065262
vn 0.5307561429343197 -0.3406081010911167 0.7760696091257457
vn 0.16627178511471002 -0.3824710074625908 0.9088837229950368
vn -0.2235259453780093 -0.3661061685681988 0.9033285255537882
vn -0.579293867805171 -0.2940049853556257 0.7602497506144698
vn -0.8468695524247256 -0.1771442094283136 0.5014298457829998
vn -0.9855170295643493 -0.033314830232638495 0.16627178511470997
vn -0.9741284688527679 0.11558642999587915 -0.19419964822668934
vn -0.8144376813543784 0.24689070061247118 -0.525105937065262
vn -0.5307561429343197 0.3406081010911167 -0.7760696091257457
vn -0.16627178511471014 0.3824710074625907 -0.9088837229950366
vn -0.1662717851147099 0.3824710074625908 -0.9088837229950368
vn 0.2235259453780093 0.3661061685681988 -0.9033285255537882
vn 0.579293867805171 0.2940049853556257 -0.7602497506144698
vn 0.8468695524247256 0.1771442094283136 -0.5014298457829998
vn 0.9855170295643493 0.03331483023263845 -0.16627178511470986
vn 0.9741284688527679 -0.11558642999587915 0.19419964822668934
vn 0.8144376813543784 -0.24689070061247118 0.525105937065262
vn 0.5307561429343197 -0.3406081010911167 0.7760696091257457
vn 0.16627178511471002 -0.3824710074625908 0.9088837229950368
vn -0.2235259453780093 -0.3661061685681988 0.9033285255537882
vn -0.579293867805171 -0.2940049853556257 0.7602497506144698
vn -0.8468695524247256 -0.1771442094283136 0.5014298457829998
vn -0.9855170295643493 -0.033314830232638495 0.16627178511470997
vn -0.9741284688527679 0.11558642999587915 -0.19419964822668934
vn -0.8144376813543784 0.24689070061247118 -0.525105937065262
vn -0.5307561429343197 0.3406081010911167 -0.7760696091257457
vn -0.16627178511471014 0.3824710074625907 -0.9088837229950366
vn -0.03331483023263845 -0.9233666934306877 -0.3824710074625908
vn -0.03331483023263845 -0.9233666934306877 -0.3824710074625908
vn -0.03331483023263845 -0.9233666934306877 -0.3824710074625908
vn -0.03331483023263845 -0.9233666934306877 -0.3824710074625908
vn -0.03331483023263845 -0.9233666934306877 -0.3824710074625908
vn -0.03331483023263845 -0.9233666934306877 -0.3824710074625908
vn -0.03331483023263845 -0.9233666934306877 -0.3824710074625908
vn -0.03331483023263845 -0.9233666934306877 -0.3824710074625908
vn -0.03331483023263845 -0.9233666934306877 -0.3824710074625908
vn -0.03331483023263845 -0.9233666934306877 -0.3824710074625908
vn -0.03331483023263845 -0.9233666934306877 -0.3824710074625908
vn -0.03331483023263845 -0.9233666934306877 -0.3824710074625908
vn -0.03331483023263845 -0.9233666934306877 -0.3824710074625908
vn -0.03331483023263845 -0.9233666934306877 -0.3824710074625908
vn -0.03331483023263845 -0.9233666934306877 -0.3824710074625908
vn -0.03331483023263845 -0.9233666934306877 -0.3824710074625908
vn -0.03331483023263845 -0.9233666934306877 -0.3824710074625908
vn -0.03331483023263845 -0.9233666934306877 -0.3824710074625908
vn -0.03331483023263845 -0.9233666934306877 -0.3824710074625908
vn -0.03331483023263845 -0.9233666934306877 -0.3824710074625908
vn -0.03331483023263845 -0.9233666934306877 -0.3824710074625908
vn -0.03331483023263845 -0.9233666934306877 -0.3824710074625908
vn -0.03331483023263845 -0.9233666934306877 -0.3824710074625908
vn -0.03331483023263845 -0.9233666934306877 -0.3824710074625908
vn -0.03331483023263845 -0.9233666934306877 -0.3824710074625908
vn -0.03331483023263845 -0.9233666934306877 -0.3824710074625908
vn -0.03331483023263845 -0.9233666934306877 -0.3824710074625908
vn -0.03331483023263845 -0.9233666934306877 -0.3824710074625908
vn -0.03331483023263845 -0.9233666934306877 -0.3824710074625908
vn -0.03331483023263845 -0.9233666934306877 -0.3824710074625908
vn -0.03331483023263845 -0.9233666934306877 -0.3824710074625908
vn -0.03331483023263845 -0.9233666934306877 -0.3824710074625908
vn -0.03331483023263845 -0.9233666934306877 -0.3824710074625908
vn 0.03331483023263845 0.9233666934306877 0.3824710074625908
vn 0.03331483023263845 0.9233666934306877 0.3824710074625908
vn 0.03331483023263845 0.9233666934306877 0.3824710074625908
vn 0.03331483023263845 0.9233666934306877 0.3824710074625908
vn 0.03331483023263845 0.9233666934306877 0.3824710074625908
vn 0.03331483023263845 0.9233666934306877 0.3824710074625908
vn 0.03331483023263845 0.9233666934306877 0.3824710074625908
vn 0.03331483023263845 0.9233666934306877 0.3824710074625908
vn 0.03331483023263845 0.9233666934306877 0.3824710074625908
vn 0.03331483023263845 0.9233666934306877 0.3824710074625908
vn 0.03331483023263845 0.9233666934306877 0.3824710074625908
vn 0.03331483023263845 0.9233666934306877 0.3824710074625908
vn 0.03331483023263845 0.9233666934306877 0.3824710074625908
vn 0.03331483023263845 0.9233666934306877 0.3824710074625908
vn 0.03331483023263845 0.9233666934306877 0.3824710074625908
vn 0.03331483023263845 0.9233666934306877 0.3824710074625908
vn 0.03331483023263845 0.9233666934306877 0.3824710074625908
vn 0.03331483023263845 0.9233666934306877 0.3824710074625908
vn 0.03331483023263845 0.9233666934306877 0.3824710074625908
vn 0.03331483023263845 0.9233666934306877 0.3824710074625908
vn 0.03331483023263845 0.9233666934306877 0.3824710074625908
vn 0.03331483023263845 0.9233666934306877 0.3824710074625908
vn 0.03331483023263845 0.9233666934306877 0.3824710074625908
vn 0.03331483023263845 0.9233666934306877 0.3824710074625908
vn 0.03331483023263845 0.9233666934306877 0.3824710074625908
vn 0.03331483023263845 0.9233666934306877 0.3824710074625908
vn 0.03331483023263845 0.9233666934306877 0.3824710074625908
vn 0.03331483023263845 0.9233666934306877 0.3824710074625908
vn 0.03331483023263845 0.9233666934306877 0.3824710074625908
vn 0.03331483023263845 0.9233666934306877 0.3824710074625908
vn 0.03331483023263845 0.9233666934306877 0.3824710074625908
vn 0.03331483023263845 0.9233666934306877 0.3824710074625908
vn 0.03331483023263845 0.9233666934306877 0.3824710074625908
f 1/1/1 18/18/18 2/2/2
f 18/18/18 19/19/19 2/2/2
f 2/2/2 19/19/19 3/3/3
f 19/19/19 20/20/20 3/3/3
f 3/3/3 20/20/20 4/4/4
f 20/20/20 21/21/21 4/4/4
f 4/4/4 21/21/21 5/5/5
f 21/21/21 22/22/22 5/5/5
f 5/5/5 22/22/22 6/6/6
f 22/22/22 23/23/23 6/6/6
f 6/6/6 23/23/23 7/7/7
f 23/23/23 24/24/24 7/7/7
f 7/7/7 24/24/24 8/8/8
f 24/24/24 25/25/25 8/8/8
f 8/8/8 25/25/25 9/9/9
f 25/25/25 26/26/26 9/9/9
f 9/9/9 26/26/26 10/10/10
f 26/26/26 27/27/27 10/10/10
f 10/10/10 27/27/27 11/11/11
f 27/27/27 28/28/28 11/11/11
f 11/11/11 28/28/28 12/12/12
f 28/28/28 29/29/29 12/12/12
f 12/12/12 29/29/29 13/13/13
f 29/29/29 30/30/30 13/13/13
f 13/13/13 30/30/30 14/14/14
f 30/30/30 31/31/31 14/14/14
f 14/14/14 31/31/31 15/15/15
f 31/31/31 32/32/32 15/15/15
f 15/15/15 32/32/32 16/16/16
f 32/32/32 33/33/33 16/16/16
f 16/16/16 33/33/33 17/17/17
f 33/33/33 34/34/34 17/17/17
f 51/51/51 52/52/52 35/35/35
f 52/52/52 53/53/53 36/36/36
f 53/53/53 54/54/54 37/37/37
f 54/54/54 55/55/55 38/38/38
f 55/55/55 56/56/56 39/39/39
f 56/56/56 57/57/57 40/40/40
f 57/57/57 58/58/58 41/41/41
f 58/58/58 59/59/59 42/42/42
f 59/59/59 60/60/60 43/43/43
f 60/60/60 61/61/61 44/44/44
f 61/61/61 62/62/62 45/45/45
f 62/62/62 63/63/63 46/46/46
f 63/63/63 64/64/64 47/47/47
f 64/64/64 65/65/65 48/48/48
f 65/65/65 66/66/66 49/49/49
f 66/66/66 67/67/67 50/50/50
f 85/85/85 84/84/84 68/68/68
f 86/86/86 85/85/85 69/69/69
f 87/87/87 86/86/86 70/70/70
f 88/88/88 87/87/87 71/71/71
f 89/89/89 88/88/88 72/72/72
f 90/90/90 89/89/89 73/73/73
f 91/91/91 90/90/90 74/74/74
f 92/92/92 91/91/91 75/75/75
f 93/93/93 92/92/92 76/76/76
f 94/94/94 93/93/93 77/77/77
f 95/95/95 94/94/94 78/78/78
f 96/96/96 95/95/95 79/79/79
f 97/97/97 96/96/96 80/80/80
f 98/98/98 97/97/97 81/81/81
f 99/99/99 98/98/98 82/82/82
f 100/100/100 99/99/99 83/83/83
