# OBJ file exported from Three.js - merged geometries
# Mesh: base_platform
v 10.000000 2.000000 12.500000
v 10.000000 2.000000 -12.500000
v 10.000000 0.000000 12.500000
v 10.000000 0.000000 -12.500000
v -10.000000 2.000000 -12.500000
v -10.000000 2.000000 12.500000
v -10.000000 0.000000 -12.500000
v -10.000000 0.000000 12.500000
v -10.000000 2.000000 -12.500000
v 10.000000 2.000000 -12.500000
v -10.000000 2.000000 12.500000
v 10.000000 2.000000 12.500000
v -10.000000 0.000000 12.500000
v 10.000000 0.000000 12.500000
v -10.000000 0.000000 -12.500000
v 10.000000 0.000000 -12.500000
v -10.000000 2.000000 12.500000
v 10.000000 2.000000 12.500000
v -10.000000 0.000000 12.500000
v 10.000000 0.000000 12.500000
v 10.000000 2.000000 -12.500000
v -10.000000 2.000000 -12.500000
v 10.000000 0.000000 -12.500000
v -10.000000 0.000000 -12.500000
vn 1.000000 0.000000 0.000000
vn 1.000000 0.000000 0.000000
vn 1.000000 0.000000 0.000000
vn 1.000000 0.000000 0.000000
vn -1.000000 0.000000 0.000000
vn -1.000000 0.000000 0.000000
vn -1.000000 0.000000 0.000000
vn -1.000000 0.000000 0.000000
vn 0.000000 1.000000 0.000000
vn 0.000000 1.000000 0.000000
vn 0.000000 1.000000 0.000000
vn 0.000000 1.000000 0.000000
vn 0.000000 -1.000000 0.000000
vn 0.000000 -1.000000 0.000000
vn 0.000000 -1.000000 0.000000
vn 0.000000 -1.000000 0.000000
vn 0.000000 0.000000 1.000000
vn 0.000000 0.000000 1.000000
vn 0.000000 0.000000 1.000000
vn 0.000000 0.000000 1.000000
vn 0.000000 0.000000 -1.000000
vn 0.000000 0.000000 -1.000000
vn 0.000000 0.000000 -1.000000
vn 0.000000 0.000000 -1.000000
f 1//1 3//3 2//2
f 3//3 4//4 2//2
f 5//5 7//7 6//6
f 7//7 8//8 6//6
f 9//9 11//11 10//10
f 11//11 12//12 10//10
f 13//13 15//15 14//14
f 15//15 16//16 14//14
f 17//17 19//19 18//18
f 19//19 20//20 18//18
f 21//21 23//23 22//22
f 23//23 24//24 22//22
# Mesh: support_leg_front_left
v 0.024899 35.226707 3.266801
v 0.322004 35.144382 3.217961
v 0.570087 35.040077 3.059817
v 0.731380 34.929672 2.816446
v 0.781326 34.829971 2.524899
v 0.712323 34.756157 2.229561
v 0.534875 34.719467 1.975395
v 0.275997 34.725487 1.801096
v -0.024899 34.773296 1.733198
v -0.322004 34.855621 1.782039
v -0.570087 34.959923 1.940183
v -0.731379 35.070332 2.183554
v -0.781326 35.170029 2.475101
v -0.712323 35.243843 2.770439
v -0.534875 35.280533 3.024604
v -0.275997 35.274517 3.198904
v 0.024899 35.226707 3.266801
v -7.475101 2.226705 13.266802
v -7.177996 2.144381 13.217961
v -6.929913 2.040076 13.059817
v -6.768621 1.929669 12.816446
v -6.718674 1.829970 12.524899
v -6.787677 1.756157 12.229562
v -6.965126 1.719466 11.975395
v -7.224003 1.725484 11.801096
v -7.524899 1.773294 11.733198
v -7.822004 1.855618 11.782040
v -8.070087 1.959923 11.940184
v -8.231380 2.070329 12.183555
v -8.281326 2.170028 12.475101
v -8.212323 2.243842 12.770439
v -8.034875 2.280533 13.024605
v -7.775997 2.274515 13.198904
v -7.475101 2.226705 13.266802
v 0.000000 35.000000 2.500000
v 0.000000 35.000000 2.500000
v 0.000000 35.000000 2.500000
v 0.000000 35.000000 2.500000
v 0.000000 35.000000 2.500000
v 0.000000 35.000000 2.500000
v 0.000000 35.000000 2.500000
v 0.000000 35.000000 2.500000
v 0.000000 35.000000 2.500000
v 0.000000 35.000000 2.500000
v 0.000000 35.000000 2.500000
v 0.000000 35.000000 2.500000
v 0.000000 35.000000 2.500000
v 0.000000 35.000000 2.500000
v 0.000000 35.000000 2.500000
v 0.000000 35.000000 2.500000
v 0.024899 35.226707 3.266801
v 0.322004 35.144382 3.217961
v 0.570087 35.040077 3.059817
v 0.731380 34.929672 2.816446
v 0.781326 34.829971 2.524899
v 0.712323 34.756157 2.229561
v 0.534875 34.719467 1.975395
v 0.275997 34.725487 1.801096
v -0.024899 34.773296 1.733198
v -0.322004 34.855621 1.782039
v -0.570087 34.959923 1.940183
v -0.731379 35.070332 2.183554
v -0.781326 35.170029 2.475101
v -0.712323 35.243843 2.770439
v -0.534875 35.280533 3.024604
v -0.275997 35.274517 3.198904
v 0.024899 35.226707 3.266801
v -7.500000 1.999999 12.500000
v -7.500000 1.999999 12.500000
v -7.500000 1.999999 12.500000
v -7.500000 1.999999 12.500000
v -7.500000 1.999999 12.500000
v -7.500000 1.999999 12.500000
v -7.500000 1.999999 12.500000
v -7.500000 1.999999 12.500000
v -7.500000 1.999999 12.500000
v -7.500000 1.999999 12.500000
v -7.500000 1.999999 12.500000
v -7.500000 1.999999 12.500000
v -7.500000 1.999999 12.500000
v -7.500000 1.999999 12.500000
v -7.500000 1.999999 12.500000
v -7.500000 1.999999 12.500000
v -7.475101 2.226705 13.266802
v -7.177996 2.144381 13.217961
v -6.929913 2.040076 13.059817
v -6.768621 1.929669 12.816446
v -6.718674 1.829970 12.524899
v -6.787677 1.756157 12.229562
v -6.965126 1.719466 11.975395
v -7.224003 1.725484 11.801096
v -7.524899 1.773294 11.733198
v -7.822004 1.855618 11.782040
v -8.070087 1.959923 11.940184
v -8.231380 2.070329 12.183555
v -8.281326 2.170028 12.475101
v -8.212323 2.243842 12.770439
v -8.034875 2.280533 13.024605
v -7.775997 2.274515 13.198904
v -7.475101 2.226705 13.266802
vn 0.120458 0.530014 0.839390
vn 0.459399 0.337548 0.821592
vn 0.728401 0.093694 0.678715
vn 0.886510 -0.164424 0.432509
vn 0.909657 -0.397511 0.120458
vn 0.794316 -0.570079 -0.209932
vn 0.558048 -0.655859 -0.508362
vn 0.236822 -0.641790 -0.729398
vn -0.120458 -0.530014 -0.839390
vn -0.459399 -0.337548 -0.821592
vn -0.728401 -0.093694 -0.678715
vn -0.886510 0.164424 -0.432509
vn -0.909657 0.397511 -0.120458
vn -0.794316 0.570079 0.209932
vn -0.558048 0.655859 0.508362
vn -0.236822 0.641790 0.729398
vn 0.120458 0.530014 0.839390
vn 0.120458 0.530014 0.839390
vn 0.459399 0.337548 0.821592
vn 0.728401 0.093694 0.678715
vn 0.886510 -0.164424 0.432509
vn 0.909657 -0.397511 0.120458
vn 0.794316 -0.570079 -0.209932
vn 0.558048 -0.655859 -0.508362
vn 0.236822 -0.641790 -0.729398
vn -0.120458 -0.530014 -0.839390
vn -0.459399 -0.337548 -0.821592
vn -0.728401 -0.093694 -0.678715
vn -0.886510 0.164424 -0.432509
vn -0.909657 0.397511 -0.120458
vn -0.794316 0.570079 0.209932
vn -0.558048 0.655859 0.508362
vn -0.236822 0.641790 0.729398
vn 0.120458 0.530014 0.839390
vn 0.397511 0.749046 -0.530014
vn 0.397511 0.749046 -0.530014
vn 0.397511 0.749046 -0.530014
vn 0.397511 0.749046 -0.530014
vn 0.397511 0.749046 -0.530014
vn 0.397511 0.749046 -0.530014
vn 0.397511 0.749046 -0.530014
vn 0.397511 0.749046 -0.530014
vn 0.397511 0.749046 -0.530014
vn 0.397511 0.749046 -0.530014
vn 0.397511 0.749046 -0.530014
vn 0.397511 0.749046 -0.530014
vn 0.397511 0.749046 -0.530014
vn 0.397511 0.749046 -0.530014
vn 0.397511 0.749046 -0.530014
vn 0.397511 0.749046 -0.530014
vn 0.397511 0.749046 -0.530014
vn 0.397511 0.749046 -0.530014
vn 0.397511 0.749046 -0.530014
vn 0.397511 0.749046 -0.530014
vn 0.397511 0.749046 -0.530014
vn 0.397511 0.749046 -0.530014
vn 0.397511 0.749046 -0.530014
vn 0.397511 0.749046 -0.530014
vn 0.397511 0.749046 -0.530014
vn 0.397511 0.749046 -0.530014
vn 0.397511 0.749046 -0.530014
vn 0.397511 0.749046 -0.530014
vn 0.397511 0.749046 -0.530014
vn 0.397511 0.749046 -0.530014
vn 0.397511 0.749046 -0.530014
vn 0.397511 0.749046 -0.530014
vn 0.397511 0.749046 -0.530014
vn -0.397511 -0.749046 0.530014
vn -0.397511 -0.749046 0.530014
vn -0.397511 -0.749046 0.530014
vn -0.397511 -0.749046 0.530014
vn -0.397511 -0.749046 0.530014
vn -0.397511 -0.749046 0.530014
vn -0.397511 -0.749046 0.530014
vn -0.397511 -0.749046 0.530014
vn -0.397511 -0.749046 0.530014
vn -0.397511 -0.749046 0.530014
vn -0.397511 -0.749046 0.530014
vn -0.397511 -0.749046 0.530014
vn -0.397511 -0.749046 0.530014
vn -0.397511 -0.749046 0.530014
vn -0.397511 -0.749046 0.530014
vn -0.397511 -0.749046 0.530014
vn -0.397511 -0.749046 0.530014
vn -0.397511 -0.749046 0.530014
vn -0.397511 -0.749046 0.530014
vn -0.397511 -0.749046 0.530014
vn -0.397511 -0.749046 0.530014
vn -0.397511 -0.749046 0.530014
vn -0.397511 -0.749046 0.530014
vn -0.397511 -0.749046 0.530014
vn -0.397511 -0.749046 0.530014
vn -0.397511 -0.749046 0.530014
vn -0.397511 -0.749046 0.530014
vn -0.397511 -0.749046 0.530014
vn -0.397511 -0.749046 0.530014
vn -0.397511 -0.749046 0.530014
vn -0.397511 -0.749046 0.530014
vn -0.397511 -0.749046 0.530014
vn -0.397511 -0.749046 0.530014
f 25//25 42//42 26//26
f 42//42 43//43 26//26
f 26//26 43//43 27//27
f 43//43 44//44 27//27
f 27//27 44//44 28//28
f 44//44 45//45 28//28
f 28//28 45//45 29//29
f 45//45 46//46 29//29
f 29//29 46//46 30//30
f 46//46 47//47 30//30
f 30//30 47//47 31//31
f 47//47 48//48 31//31
f 31//31 48//48 32//32
f 48//48 49//49 32//32
f 32//32 49//49 33//33
f 49//49 50//50 33//33
f 33//33 50//50 34//34
f 50//50 51//51 34//34
f 34//34 51//51 35//35
f 51//51 52//52 35//35
f 35//35 52//52 36//36
f 52//52 53//53 36//36
f 36//36 53//53 37//37
f 53//53 54//54 37//37
f 37//37 54//54 38//38
f 54//54 55//55 38//38
f 38//38 55//55 39//39
f 55//55 56//56 39//39
f 39//39 56//56 40//40
f 56//56 57//57 40//40
f 40//40 57//57 41//41
f 57//57 58//58 41//41
f 75//75 76//76 59//59
f 76//76 77//77 60//60
f 77//77 78//78 61//61
f 78//78 79//79 62//62
f 79//79 80//80 63//63
f 80//80 81//81 64//64
f 81//81 82//82 65//65
f 82//82 83//83 66//66
f 83//83 84//84 67//67
f 84//84 85//85 68//68
f 85//85 86//86 69//69
f 86//86 87//87 70//70
f 87//87 88//88 71//71
f 88//88 89//89 72//72
f 89//89 90//90 73//73
f 90//90 91//91 74//74
f 109//109 108//108 92//92
f 110//110 109//109 93//93
f 111//111 110//110 94//94
f 112//112 111//111 95//95
f 113//113 112//112 96//96
f 114//114 113//113 97//97
f 115//115 114//114 98//98
f 116//116 115//115 99//99
f 117//117 116//116 100//100
f 118//118 117//117 101//101
f 119//119 118//118 102//102
f 120//120 119//119 103//103
f 121//121 120//120 104//104
f 122//122 121//121 105//105
f 123//123 122//122 106//106
f 124//124 123//123 107//107
# Mesh: support_leg_front_right
v -0.024899 35.226707 3.266801
v 0.275997 35.274517 3.198904
v 0.534875 35.280533 3.024604
v 0.712323 35.243843 2.770439
v 0.781326 35.170029 2.475101
v 0.731379 35.070332 2.183554
v 0.570087 34.959923 1.940183
v 0.322004 34.855621 1.782039
v 0.024899 34.773296 1.733198
v -0.275997 34.725487 1.801096
v -0.534875 34.719467 1.975395
v -0.712323 34.756157 2.229561
v -0.781326 34.829971 2.524899
v -0.731380 34.929672 2.816446
v -0.570087 35.040077 3.059817
v -0.322004 35.144382 3.217961
v -0.024899 35.226707 3.266801
v 7.475101 2.226705 13.266802
v 7.775997 2.274515 13.198904
v 8.034875 2.280533 13.024605
v 8.212323 2.243842 12.770439
v 8.281326 2.170028 12.475101
v 8.231380 2.070329 12.183555
v 8.070087 1.959923 11.940184
v 7.822004 1.855618 11.782040
v 7.524899 1.773294 11.733198
v 7.224003 1.725484 11.801096
v 6.965126 1.719466 11.975395
v 6.787677 1.756157 12.229562
v 6.718674 1.829970 12.524899
v 6.768621 1.929669 12.816446
v 6.929913 2.040076 13.059817
v 7.177996 2.144381 13.217961
v 7.475101 2.226705 13.266802
v -0.000000 35.000000 2.500000
v -0.000000 35.000000 2.500000
v -0.000000 35.000000 2.500000
v -0.000000 35.000000 2.500000
v -0.000000 35.000000 2.500000
v -0.000000 35.000000 2.500000
v -0.000000 35.000000 2.500000
v -0.000000 35.000000 2.500000
v -0.000000 35.000000 2.500000
v -0.000000 35.000000 2.500000
v -0.000000 35.000000 2.500000
v -0.000000 35.000000 2.500000
v -0.000000 35.000000 2.500000
v -0.000000 35.000000 2.500000
v -0.000000 35.000000 2.500000
v -0.000000 35.000000 2.500000
v -0.024899 35.226707 3.266801
v 0.275997 35.274517 3.198904
v 0.534875 35.280533 3.024604
v 0.712323 35.243843 2.770439
v 0.781326 35.170029 2.475101
v 0.731379 35.070332 2.183554
v 0.570087 34.959923 1.940183
v 0.322004 34.855621 1.782039
v 0.024899 34.773296 1.733198
v -0.275997 34.725487 1.801096
v -0.534875 34.719467 1.975395
v -0.712323 34.756157 2.229561
v -0.781326 34.829971 2.524899
v -0.731380 34.929672 2.816446
v -0.570087 35.040077 3.059817
v -0.322004 35.144382 3.217961
v -0.024899 35.226707 3.266801
v 7.500000 1.999999 12.500000
v 7.500000 1.999999 12.500000
v 7.500000 1.999999 12.500000
v 7.500000 1.999999 12.500000
v 7.500000 1.999999 12.500000
v 7.500000 1.999999 12.500000
v 7.500000 1.999999 12.500000
v 7.500000 1.999999 12.500000
v 7.500000 1.999999 12.500000
v 7.500000 1.999999 12.500000
v 7.500000 1.999999 12.500000
v 7.500000 1.999999 12.500000
v 7.500000 1.999999 12.500000
v 7.500000 1.999999 12.500000
v 7.500000 1.999999 12.500000
v 7.500000 1.999999 12.500000
v 7.475101 2.226705 13.266802
v 7.775997 2.274515 13.198904
v 8.034875 2.280533 13.024605
v 8.212323 2.243842 12.770439
v 8.281326 2.170028 12.475101
v 8.231380 2.070329 12.183555
v 8.070087 1.959923 11.940184
v 7.822004 1.855618 11.782040
v 7.524899 1.773294 11.733198
v 7.224003 1.725484 11.801096
v 6.965126 1.719466 11.975395
v 6.787677 1.756157 12.229562
v 6.718674 1.829970 12.524899
v 6.768621 1.929669 12.816446
v 6.929913 2.040076 13.059817
v 7.177996 2.144381 13.217961
v 7.475101 2.226705 13.266802
vn -0.120458 0.530014 0.839390
vn 0.236822 0.641790 0.729398
vn 0.558048 0.655859 0.508362
vn 0.794316 0.570079 0.209932
vn 0.909657 0.397511 -0.120458
vn 0.886510 0.164424 -0.432509
vn 0.728401 -0.093694 -0.678715
vn 0.459399 -0.337548 -0.821592
vn 0.120458 -0.530014 -0.839390
vn -0.236822 -0.641790 -0.729398
vn -0.558048 -0.655859 -0.508362
vn -0.794316 -0.570079 -0.209932
vn -0.909657 -0.397511 0.120458
vn -0.886510 -0.164424 0.432509
vn -0.728401 0.093694 0.678715
vn -0.459399 0.337548 0.821592
vn -0.120458 0.530014 0.839390
vn -0.120458 0.530014 0.839390
vn 0.236822 0.641790 0.729398
vn 0.558048 0.655859 0.508362
vn 0.794316 0.570079 0.209932
vn 0.909657 0.397511 -0.120458
vn 0.886510 0.164424 -0.432509
vn 0.728401 -0.093694 -0.678715
vn 0.459399 -0.337548 -0.821592
vn 0.120458 -0.530014 -0.839390
vn -0.236822 -0.641790 -0.729398
vn -0.558048 -0.655859 -0.508362
vn -0.794316 -0.570079 -0.209932
vn -0.909657 -0.397511 0.120458
vn -0.886510 -0.164424 0.432509
vn -0.728401 0.093694 0.678715
vn -0.459399 0.337548 0.821592
vn -0.120458 0.530014 0.839390
vn -0.397511 0.749046 -0.530014
vn -0.397511 0.749046 -0.530014
vn -0.397511 0.749046 -0.530014
vn -0.397511 0.749046 -0.530014
vn -0.397511 0.749046 -0.530014
vn -0.397511 0.749046 -0.530014
vn -0.397511 0.749046 -0.530014
vn -0.397511 0.749046 -0.530014
vn -0.397511 0.749046 -0.530014
vn -0.397511 0.749046 -0.530014
vn -0.397511 0.749046 -0.530014
vn -0.397511 0.749046 -0.530014
vn -0.397511 0.749046 -0.530014
vn -0.397511 0.749046 -0.530014
vn -0.397511 0.749046 -0.530014
vn -0.397511 0.749046 -0.530014
vn -0.397511 0.749046 -0.530014
vn -0.397511 0.749046 -0.530014
vn -0.397511 0.749046 -0.530014
vn -0.397511 0.749046 -0.530014
vn -0.397511 0.749046 -0.530014
vn -0.397511 0.749046 -0.530014
vn -0.397511 0.749046 -0.530014
vn -0.397511 0.749046 -0.530014
vn -0.397511 0.749046 -0.530014
vn -0.397511 0.749046 -0.530014
vn -0.397511 0.749046 -0.530014
vn -0.397511 0.749046 -0.530014
vn -0.397511 0.749046 -0.530014
vn -0.397511 0.749046 -0.530014
vn -0.397511 0.749046 -0.530014
vn -0.397511 0.749046 -0.530014
vn -0.397511 0.749046 -0.530014
vn 0.397511 -0.749046 0.530014
vn 0.397511 -0.749046 0.530014
vn 0.397511 -0.749046 0.530014
vn 0.397511 -0.749046 0.530014
vn 0.397511 -0.749046 0.530014
vn 0.397511 -0.749046 0.530014
vn 0.397511 -0.749046 0.530014
vn 0.397511 -0.749046 0.530014
vn 0.397511 -0.749046 0.530014
vn 0.397511 -0.749046 0.530014
vn 0.397511 -0.749046 0.530014
vn 0.397511 -0.749046 0.530014
vn 0.397511 -0.749046 0.530014
vn 0.397511 -0.749046 0.530014
vn 0.397511 -0.749046 0.530014
vn 0.397511 -0.749046 0.530014
vn 0.397511 -0.749046 0.530014
vn 0.397511 -0.749046 0.530014
vn 0.397511 -0.749046 0.530014
vn 0.397511 -0.749046 0.530014
vn 0.397511 -0.749046 0.530014
vn 0.397511 -0.749046 0.530014
vn 0.397511 -0.749046 0.530014
vn 0.397511 -0.749046 0.530014
vn 0.397511 -0.749046 0.530014
vn 0.397511 -0.749046 0.530014
vn 0.397511 -0.749046 0.530014
vn 0.397511 -0.749046 0.530014
vn 0.397511 -0.749046 0.530014
vn 0.397511 -0.749046 0.530014
vn 0.397511 -0.749046 0.530014
vn 0.397511 -0.749046 0.530014
vn 0.397511 -0.749046 0.530014
f 125//125 142//142 126//126
f 142//142 143//143 126//126
f 126//126 143//143 127//127
f 143//143 144//144 127//127
f 127//127 144//144 128//128
f 144//144 145//145 128//128
f 128//128 145//145 129//129
f 145//145 146//146 129//129
f 129//129 146//146 130//130
f 146//146 147//147 130//130
f 130//130 147//147 131//131
f 147//147 148//148 131//131
f 131//131 148//148 132//132
f 148//148 149//149 132//132
f 132//132 149//149 133//133
f 149//149 150//150 133//133
f 133//133 150//150 134//134
f 150//150 151//151 134//134
f 134//134 151//151 135//135
f 151//151 152//152 135//135
f 135//135 152//152 136//136
f 152//152 153//153 136//136
f 136//136 153//153 137//137
f 153//153 154//154 137//137
f 137//137 154//154 138//138
f 154//154 155//155 138//138
f 138//138 155//155 139//139
f 155//155 156//156 139//139
f 139//139 156//156 140//140
f 156//156 157//157 140//140
f 140//140 157//157 141//141
f 157//157 158//158 141//141
f 175//175 176//176 159//159
f 176//176 177//177 160//160
f 177//177 178//178 161//161
f 178//178 179//179 162//162
f 179//179 180//180 163//163
f 180//180 181//181 164//164
f 181//181 182//182 165//165
f 182//182 183//183 166//166
f 183//183 184//184 167//167
f 184//184 185//185 168//168
f 185//185 186//186 169//169
f 186//186 187//187 170//170
f 187//187 188//188 171//171
f 188//188 189//189 172//172
f 189//189 190//190 173//173
f 190//190 191//191 174//174
f 209//209 208//208 192//192
f 210//210 209//209 193//193
f 211//211 210//210 194//194
f 212//212 211//211 195//195
f 213//213 212//212 196//196
f 214//214 213//213 197//197
f 215//215 214//214 198//198
f 216//216 215//215 199//199
f 217//217 216//216 200//200
f 218//218 217//217 201//201
f 219//219 218//218 202//202
f 220//220 219//219 203//203
f 221//221 220//220 204//204
f 222//222 221//221 205//205
f 223//223 222//222 206//206
f 224//224 223//223 207//207
# Mesh: support_leg_back_left
v -0.024899 34.773296 -1.733198
v 0.275997 34.725487 -1.801096
v 0.534875 34.719467 -1.975395
v 0.712323 34.756157 -2.229561
v 0.781326 34.829971 -2.524899
v 0.731380 34.929672 -2.816446
v 0.570087 35.040077 -3.059817
v 0.322004 35.144382 -3.217961
v 0.024899 35.226707 -3.266801
v -0.275997 35.274517 -3.198904
v -0.534875 35.280533 -3.024604
v -0.712323 35.243843 -2.770439
v -0.781326 35.170029 -2.475101
v -0.731379 35.070332 -2.183554
v -0.570087 34.959923 -1.940183
v -0.322004 34.855621 -1.782039
v -0.024899 34.773296 -1.733198
v -7.524899 1.773294 -11.733198
v -7.224003 1.725484 -11.801096
v -6.965126 1.719466 -11.975395
v -6.787677 1.756157 -12.229562
v -6.718674 1.829970 -12.524899
v -6.768621 1.929669 -12.816446
v -6.929913 2.040076 -13.059817
v -7.177996 2.144381 -13.217961
v -7.475101 2.226705 -13.266802
v -7.775997 2.274515 -13.198904
v -8.034875 2.280533 -13.024605
v -8.212323 2.243842 -12.770439
v -8.281326 2.170028 -12.475101
v -8.231380 2.070329 -12.183555
v -8.070087 1.959923 -11.940184
v -7.822004 1.855618 -11.782040
v -7.524899 1.773294 -11.733198
v 0.000000 35.000000 -2.500000
v 0.000000 35.000000 -2.500000
v 0.000000 35.000000 -2.500000
v 0.000000 35.000000 -2.500000
v 0.000000 35.000000 -2.500000
v 0.000000 35.000000 -2.500000
v 0.000000 35.000000 -2.500000
v 0.000000 35.000000 -2.500000
v 0.000000 35.000000 -2.500000
v 0.000000 35.000000 -2.500000
v 0.000000 35.000000 -2.500000
v 0.000000 35.000000 -2.500000
v 0.000000 35.000000 -2.500000
v 0.000000 35.000000 -2.500000
v 0.000000 35.000000 -2.500000
v 0.000000 35.000000 -2.500000
v -0.024899 34.773296 -1.733198
v 0.275997 34.725487 -1.801096
v 0.534875 34.719467 -1.975395
v 0.712323 34.756157 -2.229561
v 0.781326 34.829971 -2.524899
v 0.731380 34.929672 -2.816446
v 0.570087 35.040077 -3.059817
v 0.322004 35.144382 -3.217961
v 0.024899 35.226707 -3.266801
v -0.275997 35.274517 -3.198904
v -0.534875 35.280533 -3.024604
v -0.712323 35.243843 -2.770439
v -0.781326 35.170029 -2.475101
v -0.731379 35.070332 -2.183554
v -0.570087 34.959923 -1.940183
v -0.322004 34.855621 -1.782039
v -0.024899 34.773296 -1.733198
v -7.500000 1.999999 -12.500000
v -7.500000 1.999999 -12.500000
v -7.500000 1.999999 -12.500000
v -7.500000 1.999999 -12.500000
v -7.500000 1.999999 -12.500000
v -7.500000 1.999999 -12.500000
v -7.500000 1.999999 -12.500000
v -7.500000 1.999999 -12.500000
v -7.500000 1.999999 -12.500000
v -7.500000 1.999999 -12.500000
v -7.500000 1.999999 -12.500000
v -7.500000 1.999999 -12.500000
v -7.500000 1.999999 -12.500000
v -7.500000 1.999999 -12.500000
v -7.500000 1.999999 -12.500000
v -7.500000 1.999999 -12.500000
v -7.524899 1.773294 -11.733198
v -7.224003 1.725484 -11.801096
v -6.965126 1.719466 -11.975395
v -6.787677 1.756157 -12.229562
v -6.718674 1.829970 -12.524899
v -6.768621 1.929669 -12.816446
v -6.929913 2.040076 -13.059817
v -7.177996 2.144381 -13.217961
v -7.475101 2.226705 -13.266802
v -7.775997 2.274515 -13.198904
v -8.034875 2.280533 -13.024605
v -8.212323 2.243842 -12.770439
v -8.281326 2.170028 -12.475101
v -8.231380 2.070329 -12.183555
v -8.070087 1.959923 -11.940184
v -7.822004 1.855618 -11.782040
v -7.524899 1.773294 -11.733198
vn -0.120458 -0.530014 0.839390
vn 0.236822 -0.641790 0.729398
vn 0.558048 -0.655859 0.508362
vn 0.794316 -0.570079 0.209932
vn 0.909657 -0.397511 -0.120458
vn 0.886510 -0.164424 -0.432509
vn 0.728401 0.093694 -0.678715
vn 0.459399 0.337548 -0.821592
vn 0.120458 0.530014 -0.839390
vn -0.236822 0.641790 -0.729398
vn -0.558048 0.655859 -0.508362
vn -0.794316 0.570079 -0.209932
vn -0.909657 0.397511 0.120458
vn -0.886510 0.164424 0.432509
vn -0.728401 -0.093694 0.678715
vn -0.459399 -0.337548 0.821592
vn -0.120458 -0.530014 0.839390
vn -0.120458 -0.530014 0.839390
vn 0.236822 -0.641790 0.729398
vn 0.558048 -0.655859 0.508362
vn 0.794316 -0.570079 0.209932
vn 0.909657 -0.397511 -0.120458
vn 0.886510 -0.164424 -0.432509
vn 0.728401 0.093694 -0.678715
vn 0.459399 0.337548 -0.821592
vn 0.120458 0.530014 -0.839390
vn -0.236822 0.641790 -0.729398
vn -0.558048 0.655859 -0.508362
vn -0.794316 0.570079 -0.209932
vn -0.909657 0.397511 0.120458
vn -0.886510 0.164424 0.432509
vn -0.728401 -0.093694 0.678715
vn -0.459399 -0.337548 0.821592
vn -0.120458 -0.530014 0.839390
vn 0.397511 0.749046 0.530014
vn 0.397511 0.749046 0.530014
vn 0.397511 0.749046 0.530014
vn 0.397511 0.749046 0.530014
vn 0.397511 0.749046 0.530014
vn 0.397511 0.749046 0.530014
vn 0.397511 0.749046 0.530014
vn 0.397511 0.749046 0.530014
vn 0.397511 0.749046 0.530014
vn 0.397511 0.749046 0.530014
vn 0.397511 0.749046 0.530014
vn 0.397511 0.749046 0.530014
vn 0.397511 0.749046 0.530014
vn 0.397511 0.749046 0.530014
vn 0.397511 0.749046 0.530014
vn 0.397511 0.749046 0.530014
vn 0.397511 0.749046 0.530014
vn 0.397511 0.749046 0.530014
vn 0.397511 0.749046 0.530014
vn 0.397511 0.749046 0.530014
vn 0.397511 0.749046 0.530014
vn 0.397511 0.749046 0.530014
vn 0.397511 0.749046 0.530014
vn 0.397511 0.749046 0.530014
vn 0.397511 0.749046 0.530014
vn 0.397511 0.749046 0.530014
vn 0.397511 0.749046 0.530014
vn 0.397511 0.749046 0.530014
vn 0.397511 0.749046 0.530014
vn 0.397511 0.749046 0.530014
vn 0.397511 0.749046 0.530014
vn 0.397511 0.749046 0.530014
vn 0.397511 0.749046 0.530014
vn -0.397511 -0.749046 -0.530014
vn -0.397511 -0.749046 -0.530014
vn -0.397511 -0.749046 -0.530014
vn -0.397511 -0.749046 -0.530014
vn -0.397511 -0.749046 -0.530014
vn -0.397511 -0.749046 -0.530014
vn -0.397511 -0.749046 -0.530014
vn -0.397511 -0.749046 -0.530014
vn -0.397511 -0.749046 -0.530014
vn -0.397511 -0.749046 -0.530014
vn -0.397511 -0.749046 -0.530014
vn -0.397511 -0.749046 -0.530014
vn -0.397511 -0.749046 -0.530014
vn -0.397511 -0.749046 -0.530014
vn -0.397511 -0.749046 -0.530014
vn -0.397511 -0.749046 -0.530014
vn -0.397511 -0.749046 -0.530014
vn -0.397511 -0.749046 -0.530014
vn -0.397511 -0.749046 -0.530014
vn -0.397511 -0.749046 -0.530014
vn -0.397511 -0.749046 -0.530014
vn -0.397511 -0.749046 -0.530014
vn -0.397511 -0.749046 -0.530014
vn -0.397511 -0.749046 -0.530014
vn -0.397511 -0.749046 -0.530014
vn -0.397511 -0.749046 -0.530014
vn -0.397511 -0.749046 -0.530014
vn -0.397511 -0.749046 -0.530014
vn -0.397511 -0.749046 -0.530014
vn -0.397511 -0.749046 -0.530014
vn -0.397511 -0.749046 -0.530014
vn -0.397511 -0.749046 -0.530014
vn -0.397511 -0.749046 -0.530014
f 225//225 242//242 226//226
f 242//242 243//243 226//226
f 226//226 243//243 227//227
f 243//243 244//244 227//227
f 227//227 244//244 228//228
f 244//244 245//245 228//228
f 228//228 245//245 229//229
f 245//245 246//246 229//229
f 229//229 246//246 230//230
f 246//246 247//247 230//230
f 230//230 247//247 231//231
f 247//247 248//248 231//231
f 231//231 248//248 232//232
f 248//248 249//249 232//232
f 232//232 249//249 233//233
f 249//249 250//250 233//233
f 233//233 250//250 234//234
f 250//250 251//251 234//234
f 234//234 251//251 235//235
f 251//251 252//252 235//235
f 235//235 252//252 236//236
f 252//252 253//253 236//236
f 236//236 253//253 237//237
f 253//253 254//254 237//237
f 237//237 254//254 238//238
f 254//254 255//255 238//238
f 238//238 255//255 239//239
f 255//255 256//256 239//239
f 239//239 256//256 240//240
f 256//256 257//257 240//240
f 240//240 257//257 241//241
f 257//257 258//258 241//241
f 275//275 276//276 259//259
f 276//276 277//277 260//260
f 277//277 278//278 261//261
f 278//278 279//279 262//262
f 279//279 280//280 263//263
f 280//280 281//281 264//264
f 281//281 282//282 265//265
f 282//282 283//283 266//266
f 283//283 284//284 267//267
f 284//284 285//285 268//268
f 285//285 286//286 269//269
f 286//286 287//287 270//270
f 287//287 288//288 271//271
f 288//288 289//289 272//272
f 289//289 290//290 273//273
f 290//290 291//291 274//274
f 309//309 308//308 292//292
f 310//310 309//309 293//293
f 311//311 310//310 294//294
f 312//312 311//311 295//295
f 313//313 312//312 296//296
f 314//314 313//313 297//297
f 315//315 314//314 298//298
f 316//316 315//315 299//299
f 317//317 316//316 300//300
f 318//318 317//317 301//301
f 319//319 318//318 302//302
f 320//320 319//319 303//303
f 321//321 320//320 304//304
f 322//322 321//321 305//305
f 323//323 322//322 306//306
f 324//324 323//323 307//307
# Mesh: support_leg_back_right
v 0.024899 34.773296 -1.733198
v 0.322004 34.855621 -1.782039
v 0.570087 34.959923 -1.940183
v 0.731379 35.070332 -2.183554
v 0.781326 35.170029 -2.475101
v 0.712323 35.243843 -2.770439
v 0.534875 35.280533 -3.024604
v 0.275997 35.274517 -3.198904
v -0.024899 35.226707 -3.266801
v -0.322004 35.144382 -3.217961
v -0.570087 35.040077 -3.059817
v -0.731380 34.929672 -2.816446
v -0.781326 34.829971 -2.524899
v -0.712323 34.756157 -2.229561
v -0.534875 34.719467 -1.975395
v -0.275997 34.725487 -1.801096
v 0.024899 34.773296 -1.733198
v 7.524899 1.773294 -11.733198
v 7.822004 1.855618 -11.782040
v 8.070087 1.959923 -11.940184
v 8.231380 2.070329 -12.183555
v 8.281326 2.170028 -12.475101
v 8.212323 2.243842 -12.770439
v 8.034875 2.280533 -13.024605
v 7.775997 2.274515 -13.198904
v 7.475101 2.226705 -13.266802
v 7.177996 2.144381 -13.217961
v 6.929913 2.040076 -13.059817
v 6.768621 1.929669 -12.816446
v 6.718674 1.829970 -12.524899
v 6.787677 1.756157 -12.229562
v 6.965126 1.719466 -11.975395
v 7.224003 1.725484 -11.801096
v 7.524899 1.773294 -11.733198
v -0.000000 35.000000 -2.500000
v -0.000000 35.000000 -2.500000
v -0.000000 35.000000 -2.500000
v -0.000000 35.000000 -2.500000
v -0.000000 35.000000 -2.500000
v -0.000000 35.000000 -2.500000
v -0.000000 35.000000 -2.500000
v -0.000000 35.000000 -2.500000
v -0.000000 35.000000 -2.500000
v -0.000000 35.000000 -2.500000
v -0.000000 35.000000 -2.500000
v -0.000000 35.000000 -2.500000
v -0.000000 35.000000 -2.500000
v -0.000000 35.000000 -2.500000
v -0.000000 35.000000 -2.500000
v -0.000000 35.000000 -2.500000
v 0.024899 34.773296 -1.733198
v 0.322004 34.855621 -1.782039
v 0.570087 34.959923 -1.940183
v 0.731379 35.070332 -2.183554
v 0.781326 35.170029 -2.475101
v 0.712323 35.243843 -2.770439
v 0.534875 35.280533 -3.024604
v 0.275997 35.274517 -3.198904
v -0.024899 35.226707 -3.266801
v -0.322004 35.144382 -3.217961
v -0.570087 35.040077 -3.059817
v -0.731380 34.929672 -2.816446
v -0.781326 34.829971 -2.524899
v -0.712323 34.756157 -2.229561
v -0.534875 34.719467 -1.975395
v -0.275997 34.725487 -1.801096
v 0.024899 34.773296 -1.733198
v 7.500000 1.999999 -12.500000
v 7.500000 1.999999 -12.500000
v 7.500000 1.999999 -12.500000
v 7.500000 1.999999 -12.500000
v 7.500000 1.999999 -12.500000
v 7.500000 1.999999 -12.500000
v 7.500000 1.999999 -12.500000
v 7.500000 1.999999 -12.500000
v 7.500000 1.999999 -12.500000
v 7.500000 1.999999 -12.500000
v 7.500000 1.999999 -12.500000
v 7.500000 1.999999 -12.500000
v 7.500000 1.999999 -12.500000
v 7.500000 1.999999 -12.500000
v 7.500000 1.999999 -12.500000
v 7.500000 1.999999 -12.500000
v 7.524899 1.773294 -11.733198
v 7.822004 1.855618 -11.782040
v 8.070087 1.959923 -11.940184
v 8.231380 2.070329 -12.183555
v 8.281326 2.170028 -12.475101
v 8.212323 2.243842 -12.770439
v 8.034875 2.280533 -13.024605
v 7.775997 2.274515 -13.198904
v 7.475101 2.226705 -13.266802
v 7.177996 2.144381 -13.217961
v 6.929913 2.040076 -13.059817
v 6.768621 1.929669 -12.816446
v 6.718674 1.829970 -12.524899
v 6.787677 1.756157 -12.229562
v 6.965126 1.719466 -11.975395
v 7.224003 1.725484 -11.801096
v 7.524899 1.773294 -11.733198
vn 0.120458 -0.530014 0.839390
vn 0.459399 -0.337548 0.821592
vn 0.728401 -0.093694 0.678715
vn 0.886510 0.164424 0.432509
vn 0.909657 0.397511 0.120458
vn 0.794316 0.570079 -0.209932
vn 0.558048 0.655859 -0.508362
vn 0.236822 0.641790 -0.729398
vn -0.120458 0.530014 -0.839390
vn -0.459399 0.337548 -0.821592
vn -0.728401 0.093694 -0.678715
vn -0.886510 -0.164424 -0.432509
vn -0.909657 -0.397511 -0.120458
vn -0.794316 -0.570079 0.209932
vn -0.558048 -0.655859 0.508362
vn -0.236822 -0.641790 0.729398
vn 0.120458 -0.530014 0.839390
vn 0.120458 -0.530014 0.839390
vn 0.459399 -0.337548 0.821592
vn 0.728401 -0.093694 0.678715
vn 0.886510 0.164424 0.432509
vn 0.909657 0.397511 0.120458
vn 0.794316 0.570079 -0.209932
vn 0.558048 0.655859 -0.508362
vn 0.236822 0.641790 -0.729398
vn -0.120458 0.530014 -0.839390
vn -0.459399 0.337548 -0.821592
vn -0.728401 0.093694 -0.678715
vn -0.886510 -0.164424 -0.432509
vn -0.909657 -0.397511 -0.120458
vn -0.794316 -0.570079 0.209932
vn -0.558048 -0.655859 0.508362
vn -0.236822 -0.641790 0.729398
vn 0.120458 -0.530014 0.839390
vn -0.397511 0.749046 0.530014
vn -0.397511 0.749046 0.530014
vn -0.397511 0.749046 0.530014
vn -0.397511 0.749046 0.530014
vn -0.397511 0.749046 0.530014
vn -0.397511 0.749046 0.530014
vn -0.397511 0.749046 0.530014
vn -0.397511 0.749046 0.530014
vn -0.397511 0.749046 0.530014
vn -0.397511 0.749046 0.530014
vn -0.397511 0.749046 0.530014
vn -0.397511 0.749046 0.530014
vn -0.397511 0.749046 0.530014
vn -0.397511 0.749046 0.530014
vn -0.397511 0.749046 0.530014
vn -0.397511 0.749046 0.530014
vn -0.397511 0.749046 0.530014
vn -0.397511 0.749046 0.530014
vn -0.397511 0.749046 0.530014
vn -0.397511 0.749046 0.530014
vn -0.397511 0.749046 0.530014
vn -0.397511 0.749046 0.530014
vn -0.397511 0.749046 0.530014
vn -0.397511 0.749046 0.530014
vn -0.397511 0.749046 0.530014
vn -0.397511 0.749046 0.530014
vn -0.397511 0.749046 0.530014
vn -0.397511 0.749046 0.530014
vn -0.397511 0.749046 0.530014
vn -0.397511 0.749046 0.530014
vn -0.397511 0.749046 0.530014
vn -0.397511 0.749046 0.530014
vn -0.397511 0.749046 0.530014
vn 0.397511 -0.749046 -0.530014
vn 0.397511 -0.749046 -0.530014
vn 0.397511 -0.749046 -0.530014
vn 0.397511 -0.749046 -0.530014
vn 0.397511 -0.749046 -0.530014
vn 0.397511 -0.749046 -0.530014
vn 0.397511 -0.749046 -0.530014
vn 0.397511 -0.749046 -0.530014
vn 0.397511 -0.749046 -0.530014
vn 0.397511 -0.749046 -0.530014
vn 0.397511 -0.749046 -0.530014
vn 0.397511 -0.749046 -0.530014
vn 0.397511 -0.749046 -0.530014
vn 0.397511 -0.749046 -0.530014
vn 0.397511 -0.749046 -0.530014
vn 0.397511 -0.749046 -0.530014
vn 0.397511 -0.749046 -0.530014
vn 0.397511 -0.749046 -0.530014
vn 0.397511 -0.749046 -0.530014
vn 0.397511 -0.749046 -0.530014
vn 0.397511 -0.749046 -0.530014
vn 0.397511 -0.749046 -0.530014
vn 0.397511 -0.749046 -0.530014
vn 0.397511 -0.749046 -0.530014
vn 0.397511 -0.749046 -0.530014
vn 0.397511 -0.749046 -0.530014
vn 0.397511 -0.749046 -0.530014
vn 0.397511 -0.749046 -0.530014
vn 0.397511 -0.749046 -0.530014
vn 0.397511 -0.749046 -0.530014
vn 0.397511 -0.749046 -0.530014
vn 0.397511 -0.749046 -0.530014
vn 0.397511 -0.749046 -0.530014
f 325//325 342//342 326//326
f 342//342 343//343 326//326
f 326//326 343//343 327//327
f 343//343 344//344 327//327
f 327//327 344//344 328//328
f 344//344 345//345 328//328
f 328//328 345//345 329//329
f 345//345 346//346 329//329
f 329//329 346//346 330//330
f 346//346 347//347 330//330
f 330//330 347//347 331//331
f 347//347 348//348 331//331
f 331//331 348//348 332//332
f 348//348 349//349 332//332
f 332//332 349//349 333//333
f 349//349 350//350 333//333
f 333//333 350//350 334//334
f 350//350 351//351 334//334
f 334//334 351//351 335//335
f 351//351 352//352 335//335
f 335//335 352//352 336//336
f 352//352 353//353 336//336
f 336//336 353//353 337//337
f 353//353 354//354 337//337
f 337//337 354//354 338//338
f 354//354 355//355 338//338
f 338//338 355//355 339//339
f 355//355 356//356 339//339
f 339//339 356//356 340//340
f 356//356 357//357 340//340
f 340//340 357//357 341//341
f 357//357 358//358 341//341
f 375//375 376//376 359//359
f 376//376 377//377 360//360
f 377//377 378//378 361//361
f 378//378 379//379 362//362
f 379//379 380//380 363//363
f 380//380 381//381 364//364
f 381//381 382//382 365//365
f 382//382 383//383 366//366
f 383//383 384//384 367//367
f 384//384 385//385 368//368
f 385//385 386//386 369//369
f 386//386 387//387 370//370
f 387//387 388//388 371//371
f 388//388 389//389 372//372
f 389//389 390//390 373//373
f 390//390 391//391 374//374
f 409//409 408//408 392//392
f 410//410 409//409 393//393
f 411//411 410//410 394//394
f 412//412 411//411 395//395
f 413//413 412//412 396//396
f 414//414 413//413 397//397
f 415//415 414//414 398//398
f 416//416 415//415 399//399
f 417//417 416//416 400//400
f 418//418 417//417 401//401
f 419//419 418//418 402//402
f 420//420 419//419 403//403
f 421//421 420//420 404//404
f 422//422 421//421 405//405
f 423//423 422//422 406//406
f 424//424 423//423 407//407
# Mesh: cross_brace_front
v 3.522727 19.500000 7.796970
v 3.522727 19.270390 7.751297
v 3.522727 19.075735 7.621234
v 3.522727 18.945673 7.426580
v 3.522727 18.900000 7.196970
v 3.522727 18.945673 6.967360
v 3.522727 19.075735 6.772706
v 3.522727 19.270390 6.642642
v 3.522727 19.500000 6.596970
v 3.522727 19.729610 6.642642
v 3.522727 19.924265 6.772706
v 3.522727 20.054327 6.967360
v 3.522727 20.100000 7.196970
v 3.522727 20.054327 7.426580
v 3.522727 19.924265 7.621234
v 3.522727 19.729610 7.751297
v 3.522727 19.500000 7.796970
v -3.522727 19.500000 7.796970
v -3.522727 19.270390 7.751297
v -3.522727 19.075735 7.621234
v -3.522727 18.945673 7.426580
v -3.522727 18.900000 7.196970
v -3.522727 18.945673 6.967360
v -3.522727 19.075735 6.772706
v -3.522727 19.270390 6.642642
v -3.522727 19.500000 6.596970
v -3.522727 19.729610 6.642642
v -3.522727 19.924265 6.772706
v -3.522727 20.054327 6.967360
v -3.522727 20.100000 7.196970
v -3.522727 20.054327 7.426580
v -3.522727 19.924265 7.621234
v -3.522727 19.729610 7.751297
v -3.522727 19.500000 7.796970
v 3.522727 19.500000 7.196970
v 3.522727 19.500000 7.196970
v 3.522727 19.500000 7.196970
v 3.522727 19.500000 7.196970
v 3.522727 19.500000 7.196970
v 3.522727 19.500000 7.196970
v 3.522727 19.500000 7.196970
v 3.522727 19.500000 7.196970
v 3.522727 19.500000 7.196970
v 3.522727 19.500000 7.196970
v 3.522727 19.500000 7.196970
v 3.522727 19.500000 7.196970
v 3.522727 19.500000 7.196970
v 3.522727 19.500000 7.196970
v 3.522727 19.500000 7.196970
v 3.522727 19.500000 7.196970
v 3.522727 19.500000 7.796970
v 3.522727 19.270390 7.751297
v 3.522727 19.075735 7.621234
v 3.522727 18.945673 7.426580
v 3.522727 18.900000 7.196970
v 3.522727 18.945673 6.967360
v 3.522727 19.075735 6.772706
v 3.522727 19.270390 6.642642
v 3.522727 19.500000 6.596970
v 3.522727 19.729610 6.642642
v 3.522727 19.924265 6.772706
v 3.522727 20.054327 6.967360
v 3.522727 20.100000 7.196970
v 3.522727 20.054327 7.426580
v 3.522727 19.924265 7.621234
v 3.522727 19.729610 7.751297
v 3.522727 19.500000 7.796970
v -3.522727 19.500000 7.196970
v -3.522727 19.500000 7.196970
v -3.522727 19.500000 7.196970
v -3.522727 19.500000 7.196970
v -3.522727 19.500000 7.196970
v -3.522727 19.500000 7.196970
v -3.522727 19.500000 7.196970
v -3.522727 19.500000 7.196970
v -3.522727 19.500000 7.196970
v -3.522727 19.500000 7.196970
v -3.522727 19.500000 7.196970
v -3.522727 19.500000 7.196970
v -3.522727 19.500000 7.196970
v -3.522727 19.500000 7.196970
v -3.522727 19.500000 7.196970
v -3.522727 19.500000 7.196970
v -3.522727 19.500000 7.796970
v -3.522727 19.270390 7.751297
v -3.522727 19.075735 7.621234
v -3.522727 18.945673 7.426580
v -3.522727 18.900000 7.196970
v -3.522727 18.945673 6.967360
v -3.522727 19.075735 6.772706
v -3.522727 19.270390 6.642642
v -3.522727 19.500000 6.596970
v -3.522727 19.729610 6.642642
v -3.522727 19.924265 6.772706
v -3.522727 20.054327 6.967360
v -3.522727 20.100000 7.196970
v -3.522727 20.054327 7.426580
v -3.522727 19.924265 7.621234
v -3.522727 19.729610 7.751297
v -3.522727 19.500000 7.796970
vn 0.000000 0.000000 1.000000
vn -0.382683 -0.000000 0.923880
vn -0.707107 -0.000000 0.707107
vn -0.923880 -0.000000 0.382683
vn -1.000000 -0.000000 0.000000
vn -0.923880 -0.000000 -0.382683
vn -0.707107 -0.000000 -0.707107
vn -0.382683 -0.000000 -0.923880
vn -0.000000 -0.000000 -1.000000
vn 0.382683 0.000000 -0.923880
vn 0.707107 0.000000 -0.707107
vn 0.923880 0.000000 -0.382683
vn 1.000000 0.000000 -0.000000
vn 0.923880 0.000000 0.382683
vn 0.707107 0.000000 0.707107
vn 0.382683 0.000000 0.923880
vn 0.000000 0.000000 1.000000
vn 0.000000 0.000000 1.000000
vn -0.382683 -0.000000 0.923880
vn -0.707107 -0.000000 0.707107
vn -0.923880 -0.000000 0.382683
vn -1.000000 -0.000000 0.000000
vn -0.923880 -0.000000 -0.382683
vn -0.707107 -0.000000 -0.707107
vn -0.382683 -0.000000 -0.923880
vn -0.000000 -0.000000 -1.000000
vn 0.382683 0.000000 -0.923880
vn 0.707107 0.000000 -0.707107
vn 0.923880 0.000000 -0.382683
vn 1.000000 0.000000 -0.000000
vn 0.923880 0.000000 0.382683
vn 0.707107 0.000000 0.707107
vn 0.382683 0.000000 0.923880
vn 0.000000 0.000000 1.000000
vn 0.000000 -1.000000 0.000000
vn 0.000000 -1.000000 0.000000
vn 0.000000 -1.000000 0.000000
vn 0.000000 -1.000000 0.000000
vn 0.000000 -1.000000 0.000000
vn 0.000000 -1.000000 0.000000
vn 0.000000 -1.000000 0.000000
vn 0.000000 -1.000000 0.000000
vn 0.000000 -1.000000 0.000000
vn 0.000000 -1.000000 0.000000
vn 0.000000 -1.000000 0.000000
vn 0.000000 -1.000000 0.000000
vn 0.000000 -1.000000 0.000000
vn 0.000000 -1.000000 0.000000
vn 0.000000 -1.000000 0.000000
vn 0.000000 -1.000000 0.000000
vn 0.000000 -1.000000 0.000000
vn 0.000000 -1.000000 0.000000
vn 0.000000 -1.000000 0.000000
vn 0.000000 -1.000000 0.000000
vn 0.000000 -1.000000 0.000000
vn 0.000000 -1.000000 0.000000
vn 0.000000 -1.000000 0.000000
vn 0.000000 -1.000000 0.000000
vn 0.000000 -1.000000 0.000000
vn 0.000000 -1.000000 0.000000
vn 0.000000 -1.000000 0.000000
vn 0.000000 -1.000000 0.000000
vn 0.000000 -1.000000 0.000000
vn 0.000000 -1.000000 0.000000
vn 0.000000 -1.000000 0.000000
vn 0.000000 -1.000000 0.000000
vn 0.000000 -1.000000 0.000000
vn -0.000000 1.000000 0.000000
vn -0.000000 1.000000 0.000000
vn -0.000000 1.000000 0.000000
vn -0.000000 1.000000 0.000000
vn -0.000000 1.000000 0.000000
vn -0.000000 1.000000 0.000000
vn -0.000000 1.000000 0.000000
vn -0.000000 1.000000 0.000000
vn -0.000000 1.000000 0.000000
vn -0.000000 1.000000 0.000000
vn -0.000000 1.000000 0.000000
vn -0.000000 1.000000 0.000000
vn -0.000000 1.000000 0.000000
vn -0.000000 1.000000 0.000000
vn -0.000000 1.000000 0.000000
vn -0.000000 1.000000 0.000000
vn -0.000000 1.000000 0.000000
vn -0.000000 1.000000 0.000000
vn -0.000000 1.000000 0.000000
vn -0.000000 1.000000 0.000000
vn -0.000000 1.000000 0.000000
vn -0.000000 1.000000 0.000000
vn -0.000000 1.000000 0.000000
vn -0.000000 1.000000 0.000000
vn -0.000000 1.000000 0.000000
vn -0.000000 1.000000 0.000000
vn -0.000000 1.000000 0.000000
vn -0.000000 1.000000 0.000000
vn -0.000000 1.000000 0.000000
vn -0.000000 1.000000 0.000000
vn -0.000000 1.000000 0.000000
vn -0.000000 1.000000 0.000000
vn -0.000000 1.000000 0.000000
f 425//425 442//442 426//426
f 442//442 443//443 426//426
f 426//426 443//443 427//427
f 443//443 444//444 427//427
f 427//427 444//444 428//428
f 444//444 445//445 428//428
f 428//428 445//445 429//429
f 445//445 446//446 429//429
f 429//429 446//446 430//430
f 446//446 447//447 430//430
f 430//430 447//447 431//431
f 447//447 448//448 431//431
f 431//431 448//448 432//432
f 448//448 449//449 432//432
f 432//432 449//449 433//433
f 449//449 450//450 433//433
f 433//433 450//450 434//434
f 450//450 451//451 434//434
f 434//434 451//451 435//435
f 451//451 452//452 435//435
f 435//435 452//452 436//436
f 452//452 453//453 436//436
f 436//436 453//453 437//437
f 453//453 454//454 437//437
f 437//437 454//454 438//438
f 454//454 455//455 438//438
f 438//438 455//455 439//439
f 455//455 456//456 439//439
f 439//439 456//456 440//440
f 456//456 457//457 440//440
f 440//440 457//457 441//441
f 457//457 458//458 441//441
f 475//475 476//476 459//459
f 476//476 477//477 460//460
f 477//477 478//478 461//461
f 478//478 479//479 462//462
f 479//479 480//480 463//463
f 480//480 481//481 464//464
f 481//481 482//482 465//465
f 482//482 483//483 466//466
f 483//483 484//484 467//467
f 484//484 485//485 468//468
f 485//485 486//486 469//469
f 486//486 487//487 470//470
f 487//487 488//488 471//471
f 488//488 489//489 472//472
f 489//489 490//490 473//473
f 490//490 491//491 474//474
f 509//509 508//508 492//492
f 510//510 509//509 493//493
f 511//511 510//510 494//494
f 512//512 511//511 495//495
f 513//513 512//512 496//496
f 514//514 513//513 497//497
f 515//515 514//514 498//498
f 516//516 515//515 499//499
f 517//517 516//516 500//500
f 518//518 517//517 501//501
f 519//519 518//518 502//502
f 520//520 519//519 503//503
f 521//521 520//520 504//504
f 522//522 521//521 505//505
f 523//523 522//522 506//506
f 524//524 523//523 507//507
# Mesh: cross_brace_back
v 3.522727 19.500000 -6.596970
v 3.522727 19.270390 -6.642642
v 3.522727 19.075735 -6.772706
v 3.522727 18.945673 -6.967360
v 3.522727 18.900000 -7.196970
v 3.522727 18.945673 -7.426580
v 3.522727 19.075735 -7.621234
v 3.522727 19.270390 -7.751297
v 3.522727 19.500000 -7.796970
v 3.522727 19.729610 -7.751297
v 3.522727 19.924265 -7.621234
v 3.522727 20.054327 -7.426580
v 3.522727 20.100000 -7.196970
v 3.522727 20.054327 -6.967360
v 3.522727 19.924265 -6.772706
v 3.522727 19.729610 -6.642642
v 3.522727 19.500000 -6.596970
v -3.522727 19.500000 -6.596970
v -3.522727 19.270390 -6.642642
v -3.522727 19.075735 -6.772706
v -3.522727 18.945673 -6.967360
v -3.522727 18.900000 -7.196970
v -3.522727 18.945673 -7.426580
v -3.522727 19.075735 -7.621234
v -3.522727 19.270390 -7.751297
v -3.522727 19.500000 -7.796970
v -3.522727 19.729610 -7.751297
v -3.522727 19.924265 -7.621234
v -3.522727 20.054327 -7.426580
v -3.522727 20.100000 -7.196970
v -3.522727 20.054327 -6.967360
v -3.522727 19.924265 -6.772706
v -3.522727 19.729610 -6.642642
v -3.522727 19.500000 -6.596970
v 3.522727 19.500000 -7.196970
v 3.522727 19.500000 -7.196970
v 3.522727 19.500000 -7.196970
v 3.522727 19.500000 -7.196970
v 3.522727 19.500000 -7.196970
v 3.522727 19.500000 -7.196970
v 3.522727 19.500000 -7.196970
v 3.522727 19.500000 -7.196970
v 3.522727 19.500000 -7.196970
v 3.522727 19.500000 -7.196970
v 3.522727 19.500000 -7.196970
v 3.522727 19.500000 -7.196970
v 3.522727 19.500000 -7.196970
v 3.522727 19.500000 -7.196970
v 3.522727 19.500000 -7.196970
v 3.522727 19.500000 -7.196970
v 3.522727 19.500000 -6.596970
v 3.522727 19.270390 -6.642642
v 3.522727 19.075735 -6.772706
v 3.522727 18.945673 -6.967360
v 3.522727 18.900000 -7.196970
v 3.522727 18.945673 -7.426580
v 3.522727 19.075735 -7.621234
v 3.522727 19.270390 -7.751297
v 3.522727 19.500000 -7.796970
v 3.522727 19.729610 -7.751297
v 3.522727 19.924265 -7.621234
v 3.522727 20.054327 -7.426580
v 3.522727 20.100000 -7.196970
v 3.522727 20.054327 -6.967360
v 3.522727 19.924265 -6.772706
v 3.522727 19.729610 -6.642642
v 3.522727 19.500000 -6.596970
v -3.522727 19.500000 -7.196970
v -3.522727 19.500000 -7.196970
v -3.522727 19.500000 -7.196970
v -3.522727 19.500000 -7.196970
v -3.522727 19.500000 -7.196970
v -3.522727 19.500000 -7.196970
v -3.522727 19.500000 -7.196970
v -3.522727 19.500000 -7.196970
v -3.522727 19.500000 -7.196970
v -3.522727 19.500000 -7.196970
v -3.522727 19.500000 -7.196970
v -3.522727 19.500000 -7.196970
v -3.522727 19.500000 -7.196970
v -3.522727 19.500000 -7.196970
v -3.522727 19.500000 -7.196970
v -3.522727 19.500000 -7.196970
v -3.522727 19.500000 -6.596970
v -3.522727 19.270390 -6.642642
v -3.522727 19.075735 -6.772706
v -3.522727 18.945673 -6.967360
v -3.522727 18.900000 -7.196970
v -3.522727 18.945673 -7.426580
v -3.522727 19.075735 -7.621234
v -3.522727 19.270390 -7.751297
v -3.522727 19.500000 -7.796970
v -3.522727 19.729610 -7.751297
v -3.522727 19.924265 -7.621234
v -3.522727 20.054327 -7.426580
v -3.522727 20.100000 -7.196970
v -3.522727 20.054327 -6.967360
v -3.522727 19.924265 -6.772706
v -3.522727 19.729610 -6.642642
v -3.522727 19.500000 -6.596970
vn 0.000000 0.000000 1.000000
vn -0.382683 -0.000000 0.923880
vn -0.707107 -0.000000 0.707107
vn -0.923880 -0.000000 0.382683
vn -1.000000 -0.000000 0.000000
vn -0.923880 -0.000000 -0.382683
vn -0.707107 -0.000000 -0.707107
vn -0.382683 -0.000000 -0.923880
vn -0.000000 -0.000000 -1.000000
vn 0.382683 0.000000 -0.923880
vn 0.707107 0.000000 -0.707107
vn 0.923880 0.000000 -0.382683
vn 1.000000 0.000000 -0.000000
vn 0.923880 0.000000 0.382683
vn 0.707107 0.000000 0.707107
vn 0.382683 0.000000 0.923880
vn 0.000000 0.000000 1.000000
vn 0.000000 0.000000 1.000000
vn -0.382683 -0.000000 0.923880
vn -0.707107 -0.000000 0.707107
vn -0.923880 -0.000000 0.382683
vn -1.000000 -0.000000 0.000000
vn -0.923880 -0.000000 -0.382683
vn -0.707107 -0.000000 -0.707107
vn -0.382683 -0.000000 -0.923880
vn -0.000000 -0.000000 -1.000000
vn 0.382683 0.000000 -0.923880
vn 0.707107 0.000000 -0.707107
vn 0.923880 0.000000 -0.382683
vn 1.000000 0.000000 -0.000000
vn 0.923880 0.000000 0.382683
vn 0.707107 0.000000 0.707107
vn 0.382683 0.000000 0.923880
vn 0.000000 0.000000 1.000000
vn 0.000000 -1.000000 0.000000
vn 0.000000 -1.000000 0.000000
vn 0.000000 -1.000000 0.000000
vn 0.000000 -1.000000 0.000000
vn 0.000000 -1.000000 0.000000
vn 0.000000 -1.000000 0.000000
vn 0.000000 -1.000000 0.000000
vn 0.000000 -1.000000 0.000000
vn 0.000000 -1.000000 0.000000
vn 0.000000 -1.000000 0.000000
vn 0.000000 -1.000000 0.000000
vn 0.000000 -1.000000 0.000000
vn 0.000000 -1.000000 0.000000
vn 0.000000 -1.000000 0.000000
vn 0.000000 -1.000000 0.000000
vn 0.000000 -1.000000 0.000000
vn 0.000000 -1.000000 0.000000
vn 0.000000 -1.000000 0.000000
vn 0.000000 -1.000000 0.000000
vn 0.000000 -1.000000 0.000000
vn 0.000000 -1.000000 0.000000
vn 0.000000 -1.000000 0.000000
vn 0.000000 -1.000000 0.000000
vn 0.000000 -1.000000 0.000000
vn 0.000000 -1.000000 0.000000
vn 0.000000 -1.000000 0.000000
vn 0.000000 -1.000000 0.000000
vn 0.000000 -1.000000 0.000000
vn 0.000000 -1.000000 0.000000
vn 0.000000 -1.000000 0.000000
vn 0.000000 -1.000000 0.000000
vn 0.000000 -1.000000 0.000000
vn 0.000000 -1.000000 0.000000
vn -0.000000 1.000000 0.000000
vn -0.000000 1.000000 0.000000
vn -0.000000 1.000000 0.000000
vn -0.000000 1.000000 0.000000
vn -0.000000 1.000000 0.000000
vn -0.000000 1.000000 0.000000
vn -0.000000 1.000000 0.000000
vn -0.000000 1.000000 0.000000
vn -0.000000 1.000000 0.000000
vn -0.000000 1.000000 0.000000
vn -0.000000 1.000000 0.000000
vn -0.000000 1.000000 0.000000
vn -0.000000 1.000000 0.000000
vn -0.000000 1.000000 0.000000
vn -0.000000 1.000000 0.000000
vn -0.000000 1.000000 0.000000
vn -0.000000 1.000000 0.000000
vn -0.000000 1.000000 0.000000
vn -0.000000 1.000000 0.000000
vn -0.000000 1.000000 0.000000
vn -0.000000 1.000000 0.000000
vn -0.000000 1.000000 0.000000
vn -0.000000 1.000000 0.000000
vn -0.000000 1.000000 0.000000
vn -0.000000 1.000000 0.000000
vn -0.000000 1.000000 0.000000
vn -0.000000 1.000000 0.000000
vn -0.000000 1.000000 0.000000
vn -0.000000 1.000000 0.000000
vn -0.000000 1.000000 0.000000
vn -0.000000 1.000000 0.000000
vn -0.000000 1.000000 0.000000
vn -0.000000 1.000000 0.000000
f 525//525 542//542 526//526
f 542//542 543//543 526//526
f 526//526 543//543 527//527
f 543//543 544//544 527//527
f 527//527 544//544 528//528
f 544//544 545//545 528//528
f 528//528 545//545 529//529
f 545//545 546//546 529//529
f 529//529 546//546 530//530
f 546//546 547//547 530//530
f 530//530 547//547 531//531
f 547//547 548//548 531//531
f 531//531 548//548 532//532
f 548//548 549//549 532//532
f 532//532 549//549 533//533
f 549//549 550//550 533//533
f 533//533 550//550 534//534
f 550//550 551//551 534//534
f 534//534 551//551 535//535
f 551//551 552//552 535//535
f 535//535 552//552 536//536
f 552//552 553//553 536//536
f 536//536 553//553 537//537
f 553//553 554//554 537//537
f 537//537 554//554 538//538
f 554//554 555//555 538//538
f 538//538 555//555 539//539
f 555//555 556//556 539//539
f 539//539 556//556 540//540
f 556//556 557//557 540//540
f 540//540 557//557 541//541
f 557//557 558//558 541//541
f 575//575 576//576 559//559
f 576//576 577//577 560//560
f 577//577 578//578 561//561
f 578//578 579//579 562//562
f 579//579 580//580 563//563
f 580//580 581//581 564//564
f 581//581 582//582 565//565
f 582//582 583//583 566//566
f 583//583 584//584 567//567
f 584//584 585//585 568//568
f 585//585 586//586 569//569
f 586//586 587//587 570//570
f 587//587 588//588 571//571
f 588//588 589//589 572//572
f 589//589 590//590 573//573
f 590//590 591//591 574//574
f 609//609 608//608 592//592
f 610//610 609//609 593//593
f 611//611 610//610 594//594
f 612//612 611//611 595//595
f 613//613 612//612 596//596
f 614//614 613//613 597//597
f 615//615 614//614 598//598
f 616//616 615//615 599//599
f 617//617 616//616 600//600
f 618//618 617//617 601//601
f 619//619 618//618 602//602
f 620//620 619//619 603//603
f 621//621 620//620 604//604
f 622//622 621//621 605//605
f 623//623 622//622 606//606
f 624//624 623//623 607//607
# Mesh: cross_brace_left
v -3.522727 20.100000 -7.196970
v -3.293117 20.054327 -7.196970
v -3.098463 19.924265 -7.196970
v -2.968400 19.729610 -7.196970
v -2.922727 19.500000 -7.196970
v -2.968400 19.270390 -7.196970
v -3.098463 19.075735 -7.196970
v -3.293117 18.945673 -7.196970
v -3.522727 18.900000 -7.196970
v -3.752337 18.945673 -7.196970
v -3.946991 19.075735 -7.196970
v -4.077055 19.270390 -7.196970
v -4.122727 19.500000 -7.196970
v -4.077055 19.729610 -7.196970
v -3.946991 19.924265 -7.196970
v -3.752337 20.054327 -7.196970
v -3.522727 20.100000 -7.196970
v -3.522727 20.100000 7.196970
v -3.293117 20.054327 7.196970
v -3.098463 19.924265 7.196970
v -2.968400 19.729610 7.196970
v -2.922727 19.500000 7.196970
v -2.968400 19.270390 7.196970
v -3.098463 19.075735 7.196970
v -3.293117 18.945673 7.196970
v -3.522727 18.900000 7.196970
v -3.752337 18.945673 7.196970
v -3.946991 19.075735 7.196970
v -4.077055 19.270390 7.196970
v -4.122727 19.500000 7.196970
v -4.077055 19.729610 7.196970
v -3.946991 19.924265 7.196970
v -3.752337 20.054327 7.196970
v -3.522727 20.100000 7.196970
v -3.522727 19.500000 -7.196970
v -3.522727 19.500000 -7.196970
v -3.522727 19.500000 -7.196970
v -3.522727 19.500000 -7.196970
v -3.522727 19.500000 -7.196970
v -3.522727 19.500000 -7.196970
v -3.522727 19.500000 -7.196970
v -3.522727 19.500000 -7.196970
v -3.522727 19.500000 -7.196970
v -3.522727 19.500000 -7.196970
v -3.522727 19.500000 -7.196970
v -3.522727 19.500000 -7.196970
v -3.522727 19.500000 -7.196970
v -3.522727 19.500000 -7.196970
v -3.522727 19.500000 -7.196970
v -3.522727 19.500000 -7.196970
v -3.522727 20.100000 -7.196970
v -3.293117 20.054327 -7.196970
v -3.098463 19.924265 -7.196970
v -2.968400 19.729610 -7.196970
v -2.922727 19.500000 -7.196970
v -2.968400 19.270390 -7.196970
v -3.098463 19.075735 -7.196970
v -3.293117 18.945673 -7.196970
v -3.522727 18.900000 -7.196970
v -3.752337 18.945673 -7.196970
v -3.946991 19.075735 -7.196970
v -4.077055 19.270390 -7.196970
v -4.122727 19.500000 -7.196970
v -4.077055 19.729610 -7.196970
v -3.946991 19.924265 -7.196970
v -3.752337 20.054327 -7.196970
v -3.522727 20.100000 -7.196970
v -3.522727 19.500000 7.196970
v -3.522727 19.500000 7.196970
v -3.522727 19.500000 7.196970
v -3.522727 19.500000 7.196970
v -3.522727 19.500000 7.196970
v -3.522727 19.500000 7.196970
v -3.522727 19.500000 7.196970
v -3.522727 19.500000 7.196970
v -3.522727 19.500000 7.196970
v -3.522727 19.500000 7.196970
v -3.522727 19.500000 7.196970
v -3.522727 19.500000 7.196970
v -3.522727 19.500000 7.196970
v -3.522727 19.500000 7.196970
v -3.522727 19.500000 7.196970
v -3.522727 19.500000 7.196970
v -3.522727 20.100000 7.196970
v -3.293117 20.054327 7.196970
v -3.098463 19.924265 7.196970
v -2.968400 19.729610 7.196970
v -2.922727 19.500000 7.196970
v -2.968400 19.270390 7.196970
v -3.098463 19.075735 7.196970
v -3.293117 18.945673 7.196970
v -3.522727 18.900000 7.196970
v -3.752337 18.945673 7.196970
v -3.946991 19.075735 7.196970
v -4.077055 19.270390 7.196970
v -4.122727 19.500000 7.196970
v -4.077055 19.729610 7.196970
v -3.946991 19.924265 7.196970
v -3.752337 20.054327 7.196970
v -3.522727 20.100000 7.196970
vn 0.000000 0.000000 -1.000000
vn 0.382683 0.000000 -0.923880
vn 0.707107 0.000000 -0.707107
vn 0.923880 0.000000 -0.382683
vn 1.000000 0.000000 -0.000000
vn 0.923880 -0.000000 0.382683
vn 0.707107 -0.000000 0.707107
vn 0.382683 -0.000000 0.923880
vn 0.000000 -0.000000 1.000000
vn -0.382683 -0.000000 0.923880
vn -0.707107 -0.000000 0.707107
vn -0.923880 -0.000000 0.382683
vn -1.000000 -0.000000 0.000000
vn -0.923880 0.000000 -0.382683
vn -0.707107 0.000000 -0.707107
vn -0.382683 0.000000 -0.923880
vn -0.000000 0.000000 -1.000000
vn 0.000000 0.000000 -1.000000
vn 0.382683 0.000000 -0.923880
vn 0.707107 0.000000 -0.707107
vn 0.923880 0.000000 -0.382683
vn 1.000000 0.000000 -0.000000
vn 0.923880 -0.000000 0.382683
vn 0.707107 -0.000000 0.707107
vn 0.382683 -0.000000 0.923880
vn 0.000000 -0.000000 1.000000
vn -0.382683 -0.000000 0.923880
vn -0.707107 -0.000000 0.707107
vn -0.923880 -0.000000 0.382683
vn -1.000000 -0.000000 0.000000
vn -0.923880 0.000000 -0.382683
vn -0.707107 0.000000 -0.707107
vn -0.382683 0.000000 -0.923880
vn -0.000000 0.000000 -1.000000
vn 0.000000 -1.000000 -0.000000
vn 0.000000 -1.000000 -0.000000
vn 0.000000 -1.000000 -0.000000
vn 0.000000 -1.000000 -0.000000
vn 0.000000 -1.000000 -0.000000
vn 0.000000 -1.000000 -0.000000
vn 0.000000 -1.000000 -0.000000
vn 0.000000 -1.000000 -0.000000
vn 0.000000 -1.000000 -0.000000
vn 0.000000 -1.000000 -0.000000
vn 0.000000 -1.000000 -0.000000
vn 0.000000 -1.000000 -0.000000
vn 0.000000 -1.000000 -0.000000
vn 0.000000 -1.000000 -0.000000
vn 0.000000 -1.000000 -0.000000
vn 0.000000 -1.000000 -0.000000
vn 0.000000 -1.000000 -0.000000
vn 0.000000 -1.000000 -0.000000
vn 0.000000 -1.000000 -0.000000
vn 0.000000 -1.000000 -0.000000
vn 0.000000 -1.000000 -0.000000
vn 0.000000 -1.000000 -0.000000
vn 0.000000 -1.000000 -0.000000
vn 0.000000 -1.000000 -0.000000
vn 0.000000 -1.000000 -0.000000
vn 0.000000 -1.000000 -0.000000
vn 0.000000 -1.000000 -0.000000
vn 0.000000 -1.000000 -0.000000
vn 0.000000 -1.000000 -0.000000
vn 0.000000 -1.000000 -0.000000
vn 0.000000 -1.000000 -0.000000
vn 0.000000 -1.000000 -0.000000
vn 0.000000 -1.000000 -0.000000
vn 0.000000 1.000000 0.000000
vn 0.000000 1.000000 0.000000
vn 0.000000 1.000000 0.000000
vn 0.000000 1.000000 0.000000
vn 0.000000 1.000000 0.000000
vn 0.000000 1.000000 0.000000
vn 0.000000 1.000000 0.000000
vn 0.000000 1.000000 0.000000
vn 0.000000 1.000000 0.000000
vn 0.000000 1.000000 0.000000
vn 0.000000 1.000000 0.000000
vn 0.000000 1.000000 0.000000
vn 0.000000 1.000000 0.000000
vn 0.000000 1.000000 0.000000
vn 0.000000 1.000000 0.000000
vn 0.000000 1.000000 0.000000
vn 0.000000 1.000000 0.000000
vn 0.000000 1.000000 0.000000
vn 0.000000 1.000000 0.000000
vn 0.000000 1.000000 0.000000
vn 0.000000 1.000000 0.000000
vn 0.000000 1.000000 0.000000
vn 0.000000 1.000000 0.000000
vn 0.000000 1.000000 0.000000
vn 0.000000 1.000000 0.000000
vn 0.000000 1.000000 0.000000
vn 0.000000 1.000000 0.000000
vn 0.000000 1.000000 0.000000
vn 0.000000 1.000000 0.000000
vn 0.000000 1.000000 0.000000
vn 0.000000 1.000000 0.000000
vn 0.000000 1.000000 0.000000
vn 0.000000 1.000000 0.000000
f 625//625 642//642 626//626
f 642//642 643//643 626//626
f 626//626 643//643 627//627
f 643//643 644//644 627//627
f 627//627 644//644 628//628
f 644//644 645//645 628//628
f 628//628 645//645 629//629
f 645//645 646//646 629//629
f 629//629 646//646 630//630
f 646//646 647//647 630//630
f 630//630 647//647 631//631
f 647//647 648//648 631//631
f 631//631 648//648 632//632
f 648//648 649//649 632//632
f 632//632 649//649 633//633
f 649//649 650//650 633//633
f 633//633 650//650 634//634
f 650//650 651//651 634//634
f 634//634 651//651 635//635
f 651//651 652//652 635//635
f 635//635 652//652 636//636
f 652//652 653//653 636//636
f 636//636 653//653 637//637
f 653//653 654//654 637//637
f 637//637 654//654 638//638
f 654//654 655//655 638//638
f 638//638 655//655 639//639
f 655//655 656//656 639//639
f 639//639 656//656 640//640
f 656//656 657//657 640//640
f 640//640 657//657 641//641
f 657//657 658//658 641//641
f 675//675 676//676 659//659
f 676//676 677//677 660//660
f 677//677 678//678 661//661
f 678//678 679//679 662//662
f 679//679 680//680 663//663
f 680//680 681//681 664//664
f 681//681 682//682 665//665
f 682//682 683//683 666//666
f 683//683 684//684 667//667
f 684//684 685//685 668//668
f 685//685 686//686 669//669
f 686//686 687//687 670//670
f 687//687 688//688 671//671
f 688//688 689//689 672//672
f 689//689 690//690 673//673
f 690//690 691//691 674//674
f 709//709 708//708 692//692
f 710//710 709//709 693//693
f 711//711 710//710 694//694
f 712//712 711//711 695//695
f 713//713 712//712 696//696
f 714//714 713//713 697//697
f 715//715 714//714 698//698
f 716//716 715//715 699//699
f 717//717 716//716 700//700
f 718//718 717//717 701//701
f 719//719 718//718 702//702
f 720//720 719//719 703//703
f 721//721 720//720 704//704
f 722//722 721//721 705//705
f 723//723 722//722 706//706
f 724//724 723//723 707//707
# Mesh: cross_brace_right
v 3.522727 20.100000 -7.196970
v 3.752337 20.054327 -7.196970
v 3.946991 19.924265 -7.196970
v 4.077055 19.729610 -7.196970
v 4.122727 19.500000 -7.196970
v 4.077055 19.270390 -7.196970
v 3.946991 19.075735 -7.196970
v 3.752337 18.945673 -7.196970
v 3.522727 18.900000 -7.196970
v 3.293117 18.945673 -7.196970
v 3.098463 19.075735 -7.196970
v 2.968400 19.270390 -7.196970
v 2.922727 19.500000 -7.196970
v 2.968400 19.729610 -7.196970
v 3.098463 19.924265 -7.196970
v 3.293117 20.054327 -7.196970
v 3.522727 20.100000 -7.196970
v 3.522727 20.100000 7.196970
v 3.752337 20.054327 7.196970
v 3.946991 19.924265 7.196970
v 4.077055 19.729610 7.196970
v 4.122727 19.500000 7.196970
v 4.077055 19.270390 7.196970
v 3.946991 19.075735 7.196970
v 3.752337 18.945673 7.196970
v 3.522727 18.900000 7.196970
v 3.293117 18.945673 7.196970
v 3.098463 19.075735 7.196970
v 2.968400 19.270390 7.196970
v 2.922727 19.500000 7.196970
v 2.968400 19.729610 7.196970
v 3.098463 19.924265 7.196970
v 3.293117 20.054327 7.196970
v 3.522727 20.100000 7.196970
v 3.522727 19.500000 -7.196970
v 3.522727 19.500000 -7.196970
v 3.522727 19.500000 -7.196970
v 3.522727 19.500000 -7.196970
v 3.522727 19.500000 -7.196970
v 3.522727 19.500000 -7.196970
v 3.522727 19.500000 -7.196970
v 3.522727 19.500000 -7.196970
v 3.522727 19.500000 -7.196970
v 3.522727 19.500000 -7.196970
v 3.522727 19.500000 -7.196970
v 3.522727 19.500000 -7.196970
v 3.522727 19.500000 -7.196970
v 3.522727 19.500000 -7.196970
v 3.522727 19.500000 -7.196970
v 3.522727 19.500000 -7.196970
v 3.522727 20.100000 -7.196970
v 3.752337 20.054327 -7.196970
v 3.946991 19.924265 -7.196970
v 4.077055 19.729610 -7.196970
v 4.122727 19.500000 -7.196970
v 4.077055 19.270390 -7.196970
v 3.946991 19.075735 -7.196970
v 3.752337 18.945673 -7.196970
v 3.522727 18.900000 -7.196970
v 3.293117 18.945673 -7.196970
v 3.098463 19.075735 -7.196970
v 2.968400 19.270390 -7.196970
v 2.922727 19.500000 -7.196970
v 2.968400 19.729610 -7.196970
v 3.098463 19.924265 -7.196970
v 3.293117 20.054327 -7.196970
v 3.522727 20.100000 -7.196970
v 3.522727 19.500000 7.196970
v 3.522727 19.500000 7.196970
v 3.522727 19.500000 7.196970
v 3.522727 19.500000 7.196970
v 3.522727 19.500000 7.196970
v 3.522727 19.500000 7.196970
v 3.522727 19.500000 7.196970
v 3.522727 19.500000 7.196970
v 3.522727 19.500000 7.196970
v 3.522727 19.500000 7.196970
v 3.522727 19.500000 7.196970
v 3.522727 19.500000 7.196970
v 3.522727 19.500000 7.196970
v 3.522727 19.500000 7.196970
v 3.522727 19.500000 7.196970
v 3.522727 19.500000 7.196970
v 3.522727 20.100000 7.196970
v 3.752337 20.054327 7.196970
v 3.946991 19.924265 7.196970
v 4.077055 19.729610 7.196970
v 4.122727 19.500000 7.196970
v 4.077055 19.270390 7.196970
v 3.946991 19.075735 7.196970
v 3.752337 18.945673 7.196970
v 3.522727 18.900000 7.196970
v 3.293117 18.945673 7.196970
v 3.098463 19.075735 7.196970
v 2.968400 19.270390 7.196970
v 2.922727 19.500000 7.196970
v 2.968400 19.729610 7.196970
v 3.098463 19.924265 7.196970
v 3.293117 20.054327 7.196970
v 3.522727 20.100000 7.196970
vn 0.000000 0.000000 -1.000000
vn 0.382683 0.000000 -0.923880
vn 0.707107 0.000000 -0.707107
vn 0.923880 0.000000 -0.382683
vn 1.000000 0.000000 -0.000000
vn 0.923880 -0.000000 0.382683
vn 0.707107 -0.000000 0.707107
vn 0.382683 -0.000000 0.923880
vn 0.000000 -0.000000 1.000000
vn -0.382683 -0.000000 0.923880
vn -0.707107 -0.000000 0.707107
vn -0.923880 -0.000000 0.382683
vn -1.000000 -0.000000 0.000000
vn -0.923880 0.000000 -0.382683
vn -0.707107 0.000000 -0.707107
vn -0.382683 0.000000 -0.923880
vn -0.000000 0.000000 -1.000000
vn 0.000000 0.000000 -1.000000
vn 0.382683 0.000000 -0.923880
vn 0.707107 0.000000 -0.707107
vn 0.923880 0.000000 -0.382683
vn 1.000000 0.000000 -0.000000
vn 0.923880 -0.000000 0.382683
vn 0.707107 -0.000000 0.707107
vn 0.382683 -0.000000 0.923880
vn 0.000000 -0.000000 1.000000
vn -0.382683 -0.000000 0.923880
vn -0.707107 -0.000000 0.707107
vn -0.923880 -0.000000 0.382683
vn -1.000000 -0.000000 0.000000
vn -0.923880 0.000000 -0.382683
vn -0.707107 0.000000 -0.707107
vn -0.382683 0.000000 -0.923880
vn -0.000000 0.000000 -1.000000
vn 0.000000 -1.000000 -0.000000
vn 0.000000 -1.000000 -0.000000
vn 0.000000 -1.000000 -0.000000
vn 0.000000 -1.000000 -0.000000
vn 0.000000 -1.000000 -0.000000
vn 0.000000 -1.000000 -0.000000
vn 0.000000 -1.000000 -0.000000
vn 0.000000 -1.000000 -0.000000
vn 0.000000 -1.000000 -0.000000
vn 0.000000 -1.000000 -0.000000
vn 0.000000 -1.000000 -0.000000
vn 0.000000 -1.000000 -0.000000
vn 0.000000 -1.000000 -0.000000
vn 0.000000 -1.000000 -0.000000
vn 0.000000 -1.000000 -0.000000
vn 0.000000 -1.000000 -0.000000
vn 0.000000 -1.000000 -0.000000
vn 0.000000 -1.000000 -0.000000
vn 0.000000 -1.000000 -0.000000
vn 0.000000 -1.000000 -0.000000
vn 0.000000 -1.000000 -0.000000
vn 0.000000 -1.000000 -0.000000
vn 0.000000 -1.000000 -0.000000
vn 0.000000 -1.000000 -0.000000
vn 0.000000 -1.000000 -0.000000
vn 0.000000 -1.000000 -0.000000
vn 0.000000 -1.000000 -0.000000
vn 0.000000 -1.000000 -0.000000
vn 0.000000 -1.000000 -0.000000
vn 0.000000 -1.000000 -0.000000
vn 0.000000 -1.000000 -0.000000
vn 0.000000 -1.000000 -0.000000
vn 0.000000 -1.000000 -0.000000
vn 0.000000 1.000000 0.000000
vn 0.000000 1.000000 0.000000
vn 0.000000 1.000000 0.000000
vn 0.000000 1.000000 0.000000
vn 0.000000 1.000000 0.000000
vn 0.000000 1.000000 0.000000
vn 0.000000 1.000000 0.000000
vn 0.000000 1.000000 0.000000
vn 0.000000 1.000000 0.000000
vn 0.000000 1.000000 0.000000
vn 0.000000 1.000000 0.000000
vn 0.000000 1.000000 0.000000
vn 0.000000 1.000000 0.000000
vn 0.000000 1.000000 0.000000
vn 0.000000 1.000000 0.000000
vn 0.000000 1.000000 0.000000
vn 0.000000 1.000000 0.000000
vn 0.000000 1.000000 0.000000
vn 0.000000 1.000000 0.000000
vn 0.000000 1.000000 0.000000
vn 0.000000 1.000000 0.000000
vn 0.000000 1.000000 0.000000
vn 0.000000 1.000000 0.000000
vn 0.000000 1.000000 0.000000
vn 0.000000 1.000000 0.000000
vn 0.000000 1.000000 0.000000
vn 0.000000 1.000000 0.000000
vn 0.000000 1.000000 0.000000
vn 0.000000 1.000000 0.000000
vn 0.000000 1.000000 0.000000
vn 0.000000 1.000000 0.000000
vn 0.000000 1.000000 0.000000
vn 0.000000 1.000000 0.000000
f 725//725 742//742 726//726
f 742//742 743//743 726//726
f 726//726 743//743 727//727
f 743//743 744//744 727//727
f 727//727 744//744 728//728
f 744//744 745//745 728//728
f 728//728 745//745 729//729
f 745//745 746//746 729//729
f 729//729 746//746 730//730
f 746//746 747//747 730//730
f 730//730 747//747 731//731
f 747//747 748//748 731//731
f 731//731 748//748 732//732
f 748//748 749//749 732//732
f 732//732 749//749 733//733
f 749//749 750//750 733//733
f 733//733 750//750 734//734
f 750//750 751//751 734//734
f 734//734 751//751 735//735
f 751//751 752//752 735//735
f 735//735 752//752 736//736
f 752//752 753//753 736//736
f 736//736 753//753 737//737
f 753//753 754//754 737//737
f 737//737 754//754 738//738
f 754//754 755//755 738//738
f 738//738 755//755 739//739
f 755//755 756//756 739//739
f 739//739 756//756 740//740
f 756//756 757//757 740//740
f 740//740 757//757 741//741
f 757//757 758//758 741//741
f 775//775 776//776 759//759
f 776//776 777//777 760//760
f 777//777 778//778 761//761
f 778//778 779//779 762//762
f 779//779 780//780 763//763
f 780//780 781//781 764//764
f 781//781 782//782 765//765
f 782//782 783//783 766//766
f 783//783 784//784 767//767
f 784//784 785//785 768//768
f 785//785 786//786 769//769
f 786//786 787//787 770//770
f 787//787 788//788 771//771
f 788//788 789//789 772//772
f 789//789 790//790 773//773
f 790//790 791//791 774//774
f 809//809 808//808 792//792
f 810//810 809//809 793//793
f 811//811 810//810 794//794
f 812//812 811//811 795//795
f 813//813 812//812 796//796
f 814//814 813//813 797//797
f 815//815 814//814 798//798
f 816//816 815//815 799//799
f 817//817 816//816 800//800
f 818//818 817//817 801//801
f 819//819 818//818 802//802
f 820//820 819//819 803//803
f 821//821 820//820 804//804
f 822//822 821//821 805//805
f 823//823 822//822 806//806
f 824//824 823//823 807//807
# Mesh: axle_housing
v 3.750000 36.000000 3.500000
v 3.750000 36.000000 -3.500000
v 3.750000 34.000000 3.500000
v 3.750000 34.000000 -3.500000
v -3.750000 36.000000 -3.500000
v -3.750000 36.000000 3.500000
v -3.750000 34.000000 -3.500000
v -3.750000 34.000000 3.500000
v -3.750000 36.000000 -3.500000
v 3.750000 36.000000 -3.500000
v -3.750000 36.000000 3.500000
v 3.750000 36.000000 3.500000
v -3.750000 34.000000 3.500000
v 3.750000 34.000000 3.500000
v -3.750000 34.000000 -3.500000
v 3.750000 34.000000 -3.500000
v -3.750000 36.000000 3.500000
v 3.750000 36.000000 3.500000
v -3.750000 34.000000 3.500000
v 3.750000 34.000000 3.500000
v 3.750000 36.000000 -3.500000
v -3.750000 36.000000 -3.500000
v 3.750000 34.000000 -3.500000
v -3.750000 34.000000 -3.500000
vn 1.000000 0.000000 0.000000
vn 1.000000 0.000000 0.000000
vn 1.000000 0.000000 0.000000
vn 1.000000 0.000000 0.000000
vn -1.000000 0.000000 0.000000
vn -1.000000 0.000000 0.000000
vn -1.000000 0.000000 0.000000
vn -1.000000 0.000000 0.000000
vn 0.000000 1.000000 0.000000
vn 0.000000 1.000000 0.000000
vn 0.000000 1.000000 0.000000
vn 0.000000 1.000000 0.000000
vn 0.000000 -1.000000 0.000000
vn 0.000000 -1.000000 0.000000
vn 0.000000 -1.000000 0.000000
vn 0.000000 -1.000000 0.000000
vn 0.000000 0.000000 1.000000
vn 0.000000 0.000000 1.000000
vn 0.000000 0.000000 1.000000
vn 0.000000 0.000000 1.000000
vn 0.000000 0.000000 -1.000000
vn 0.000000 0.000000 -1.000000
vn 0.000000 0.000000 -1.000000
vn 0.000000 0.000000 -1.000000
f 825//825 827//827 826//826
f 827//827 828//828 826//826
f 829//829 831//831 830//830
f 831//831 832//832 830//830
f 833//833 835//835 834//834
f 835//835 836//836 834//834
f 837//837 839//839 838//838
f 839//839 840//840 838//838
f 841//841 843//843 842//842
f 843//843 844//844 842//842
f 845//845 847//847 846//846
f 847//847 848//848 846//846
