v 3.5227272510528556 19.5 -6.596969673127839
v 3.5227272510528556 19.270389944314957 -6.6426419706055615
v 3.5227272510528556 19.075735926628113 -6.77270562359781
v 3.5227272510528556 18.945672273635864 -6.967359641284654
v 3.5227272510528556 18.899999976158142 -7.196969696969697
v 3.5227272510528556 18.945672273635864 -7.426579752654741
v 3.5227272510528556 19.075735926628113 -7.6212337703415844
v 3.5227272510528556 19.270389944314957 -7.751297423333833
v 3.5227272510528556 19.5 -7.796969720811555
v 3.5227272510528556 19.729610055685043 -7.751297423333833
v 3.5227272510528556 19.924264073371887 -7.6212337703415844
v 3.5227272510528556 20.054327726364136 -7.426579752654741
v 3.5227272510528556 20.100000023841858 -7.196969696969697
v 3.5227272510528556 20.054327726364136 -6.967359641284654
v 3.5227272510528556 19.924264073371887 -6.77270562359781
v 3.5227272510528556 19.729610055685043 -6.6426419706055615
v 3.5227272510528556 19.5 -6.596969673127839
v -3.5227272510528556 19.5 -6.596969673127839
v -3.5227272510528556 19.270389944314957 -6.6426419706055615
v -3.5227272510528556 19.075735926628113 -6.77270562359781
v -3.5227272510528556 18.945672273635864 -6.967359641284654
v -3.5227272510528556 18.899999976158142 -7.196969696969697
v -3.5227272510528556 18.945672273635864 -7.426579752654741
v -3.5227272510528556 19.075735926628113 -7.6212337703415844
v -3.5227272510528556 19.270389944314957 -7.751297423333833
v -3.5227272510528556 19.5 -7.796969720811555
v -3.5227272510528556 19.729610055685043 -7.751297423333833
v -3.5227272510528556 19.924264073371887 -7.6212337703415844
v -3.5227272510528556 20.054327726364136 -7.426579752654741
v -3.5227272510528556 20.100000023841858 -7.196969696969697
v -3.5227272510528556 20.054327726364136 -6.967359641284654
v -3.5227272510528556 19.924264073371887 -6.77270562359781
v -3.5227272510528556 19.729610055685043 -6.6426419706055615
v -3.5227272510528556 19.5 -6.596969673127839
v 3.5227272510528556 19.5 -7.196969696969697
v 3.5227272510528556 19.5 -7.196969696969697
v 3.5227272510528556 19.5 -7.196969696969697
v 3.5227272510528556 19.5 -7.196969696969697
v 3.5227272510528556 19.5 -7.196969696969697
v 3.5227272510528556 19.5 -7.196969696969697
v 3.5227272510528556 19.5 -7.196969696969697
v 3.5227272510528556 19.5 -7.196969696969697
v 3.5227272510528556 19.5 -7.196969696969697
v 3.5227272510528556 19.5 -7.196969696969697
v 3.5227272510528556 19.5 -7.196969696969697
v 3.5227272510528556 19.5 -7.196969696969697
v 3.5227272510528556 19.5 -7.196969696969697
v 3.5227272510528556 19.5 -7.196969696969697
v 3.5227272510528556 19.5 -7.196969696969697
v 3.5227272510528556 19.5 -7.196969696969697
v 3.5227272510528556 19.5 -6.596969673127839
v 3.5227272510528556 19.270389944314957 -6.6426419706055615
v 3.5227272510528556 19.075735926628113 -6.77270562359781
v 3.5227272510528556 18.945672273635864 -6.967359641284654
v 3.5227272510528556 18.899999976158142 -7.196969696969697
v 3.5227272510528556 18.945672273635864 -7.426579752654741
v 3.5227272510528556 19.075735926628113 -7.6212337703415844
v 3.5227272510528556 19.270389944314957 -7.751297423333833
v 3.5227272510528556 19.5 -7.796969720811555
v 3.5227272510528556 19.729610055685043 -7.751297423333833
v 3.5227272510528556 19.924264073371887 -7.6212337703415844
v 3.5227272510528556 20.054327726364136 -7.426579752654741
v 3.5227272510528556 20.100000023841858 -7.196969696969697
v 3.5227272510528556 20.054327726364136 -6.967359641284654
v 3.5227272510528556 19.924264073371887 -6.77270562359781
v 3.5227272510528556 19.729610055685043 -6.6426419706055615
v 3.5227272510528556 19.5 -6.596969673127839
v -3.5227272510528556 19.5 -7.196969696969697
v -3.5227272510528556 19.5 -7.196969696969697
v -3.5227272510528556 19.5 -7.196969696969697
v -3.5227272510528556 19.5 -7.196969696969697
v -3.5227272510528556 19.5 -7.196969696969697
v -3.5227272510528556 19.5 -7.196969696969697
v -3.5227272510528556 19.5 -7.196969696969697
v -3.5227272510528556 19.5 -7.196969696969697
v -3.5227272510528556 19.5 -7.196969696969697
v -3.5227272510528556 19.5 -7.196969696969697
v -3.5227272510528556 19.5 -7.196969696969697
v -3.5227272510528556 19.5 -7.196969696969697
v -3.5227272510528556 19.5 -7.196969696969697
v -3.5227272510528556 19.5 -7.196969696969697
v -3.5227272510528556 19.5 -7.196969696969697
v -3.5227272510528556 19.5 -7.196969696969697
v -3.5227272510528556 19.5 -6.596969673127839
v -3.5227272510528556 19.270389944314957 -6.6426419706055615
v -3.5227272510528556 19.075735926628113 -6.77270562359781
v -3.5227272510528556 18.945672273635864 -6.967359641284654
v -3.5227272510528556 18.899999976158142 -7.196969696969697
v -3.5227272510528556 18.945672273635864 -7.426579752654741
v -3.5227272510528556 19.075735926628113 -7.6212337703415844
v -3.5227272510528556 19.270389944314957 -7.751297423333833
v -3.5227272510528556 19.5 -7.796969720811555
v -3.5227272510528556 19.729610055685043 -7.751297423333833
v -3.5227272510528556 19.924264073371887 -7.6212337703415844
v -3.5227272510528556 20.054327726364136 -7.426579752654741
v -3.5227272510528556 20.100000023841858 -7.196969696969697
v -3.5227272510528556 20.054327726364136 -6.967359641284654
v -3.5227272510528556 19.924264073371887 -6.77270562359781
v -3.5227272510528556 19.729610055685043 -6.6426419706055615
v -3.5227272510528556 19.5 -6.596969673127839
f 1 18 2
f 18 19 2
f 2 19 3
f 19 20 3
f 3 20 4
f 20 21 4
f 4 21 5
f 21 22 5
f 5 22 6
f 22 23 6
f 6 23 7
f 23 24 7
f 7 24 8
f 24 25 8
f 8 25 9
f 25 26 9
f 9 26 10
f 26 27 10
f 10 27 11
f 27 28 11
f 11 28 12
f 28 29 12
f 12 29 13
f 29 30 13
f 13 30 14
f 30 31 14
f 14 31 15
f 31 32 15
f 15 32 16
f 32 33 16
f 16 33 17
f 33 34 17
f 51 52 35
f 52 53 36
f 53 54 37
f 54 55 38
f 55 56 39
f 56 57 40
f 57 58 41
f 58 59 42
f 59 60 43
f 60 61 44
f 61 62 45
f 62 63 46
f 63 64 47
f 64 65 48
f 65 66 49
f 66 67 50
f 85 84 68
f 86 85 69
f 87 86 70
f 88 87 71
f 89 88 72
f 90 89 73
f 91 90 74
f 92 91 75
f 93 92 76
f 94 93 77
f 95 94 78
f 96 95 79
f 97 96 80
f 98 97 81
f 99 98 82
f 100 99 83
