# spoke_back_17
o spoke_back_17
v -0.991887 29.343338 -29.462280
v -0.916073 29.325865 -29.456226
v -0.853037 29.281206 -29.445202
v -0.812374 29.216160 -29.430882
v -0.800276 29.140627 -29.415445
v -0.818584 29.066111 -29.401245
v -0.864511 29.003952 -29.390442
v -0.931064 28.963615 -29.384680
v -1.008113 28.951242 -29.384838
v -1.083927 28.968716 -29.390890
v -1.146963 29.013374 -29.401917
v -1.187626 29.078423 -29.416237
v -1.199724 29.153954 -29.431671
v -1.181416 29.228470 -29.445871
v -1.135489 29.290628 -29.456675
v -1.068936 29.330965 -29.462437
v -0.991887 29.343338 -29.462280
v -1.991887 35.196049 -0.038720
v -1.916073 35.178574 -0.032668
v -1.853037 35.133915 -0.021642
v -1.812374 35.068871 -0.007322
v -1.800276 34.993336 0.008114
v -1.818584 34.918819 0.022314
v -1.864511 34.856663 0.033117
v -1.931064 34.816326 0.038878
v -2.008113 34.803951 0.038721
v -2.083927 34.821426 0.032669
v -2.146963 34.866085 0.021643
v -2.187626 34.931133 0.007322
v -2.199724 35.006664 -0.008113
v -2.181416 35.081181 -0.022313
v -2.135489 35.143337 -0.033116
v -2.068935 35.183674 -0.038878
v -1.991887 35.196049 -0.038720
v -1.000000 29.147291 -29.423559
v -1.000000 29.147291 -29.423559
v -1.000000 29.147291 -29.423559
v -1.000000 29.147291 -29.423559
v -1.000000 29.147291 -29.423559
v -1.000000 29.147291 -29.423559
v -1.000000 29.147291 -29.423559
v -1.000000 29.147291 -29.423559
v -1.000000 29.147291 -29.423559
v -1.000000 29.147291 -29.423559
v -1.000000 29.147291 -29.423559
v -1.000000 29.147291 -29.423559
v -1.000000 29.147291 -29.423559
v -1.000000 29.147291 -29.423559
v -1.000000 29.147291 -29.423559
v -1.000000 29.147291 -29.423559
v -0.991887 29.343338 -29.462280
v -0.916073 29.325865 -29.456226
v -0.853037 29.281206 -29.445202
v -0.812374 29.216160 -29.430882
v -0.800276 29.140627 -29.415445
v -0.818584 29.066111 -29.401245
v -0.864511 29.003952 -29.390442
v -0.931064 28.963615 -29.384680
v -1.008113 28.951242 -29.384838
v -1.083927 28.968716 -29.390890
v -1.146963 29.013374 -29.401917
v -1.187626 29.078423 -29.416237
v -1.199724 29.153954 -29.431671
v -1.181416 29.228470 -29.445871
v -1.135489 29.290628 -29.456675
v -1.068936 29.330965 -29.462437
v -0.991887 29.343338 -29.462280
v -2.000000 35.000000 0.000000
v -2.000000 35.000000 0.000000
v -2.000000 35.000000 0.000000
v -2.000000 35.000000 0.000000
v -2.000000 35.000000 0.000000
v -2.000000 35.000000 0.000000
v -2.000000 35.000000 0.000000
v -2.000000 35.000000 0.000000
v -2.000000 35.000000 0.000000
v -2.000000 35.000000 0.000000
v -2.000000 35.000000 0.000000
v -2.000000 35.000000 0.000000
v -2.000000 35.000000 0.000000
v -2.000000 35.000000 0.000000
v -2.000000 35.000000 0.000000
v -2.000000 35.000000 0.000000
v -1.991887 35.196049 -0.038720
v -1.916073 35.178574 -0.032668
v -1.853037 35.133915 -0.021642
v -1.812374 35.068871 -0.007322
v -1.800276 34.993336 0.008114
v -1.818584 34.918819 0.022314
v -1.864511 34.856663 0.033117
v -1.931064 34.816326 0.038878
v -2.008113 34.803951 0.038721
v -2.083927 34.821426 0.032669
v -2.146963 34.866085 0.021643
v -2.187626 34.931133 0.007322
v -2.199724 35.006664 -0.008113
v -2.181416 35.081181 -0.022313
v -2.135489 35.143337 -0.033116
v -2.068935 35.183674 -0.038878
v -1.991887 35.196049 -0.038720
vn 0.040566 0.980241 -0.193603
vn 0.419634 0.892875 -0.163342
vn 0.734817 0.669578 -0.108214
vn 0.938130 0.344343 -0.036610
vn 0.998621 -0.033315 0.040566
vn 0.907082 -0.405901 0.111567
vn 0.677447 -0.716692 0.165583
vn 0.344678 -0.918373 0.194390
vn -0.040566 -0.980241 0.193603
vn -0.419634 -0.892875 0.163342
vn -0.734817 -0.669578 0.108214
vn -0.938130 -0.344343 0.036610
vn -0.998621 0.033315 -0.040566
vn -0.907082 0.405901 -0.111567
vn -0.677447 0.716692 -0.165583
vn -0.344678 0.918373 -0.194390
vn 0.040566 0.980241 -0.193603
vn 0.040566 0.980241 -0.193603
vn 0.419634 0.892875 -0.163342
vn 0.734817 0.669578 -0.108214
vn 0.938130 0.344343 -0.036610
vn 0.998621 -0.033315 0.040566
vn 0.907082 -0.405901 0.111567
vn 0.677447 -0.716692 0.165583
vn 0.344678 -0.918373 0.194390
vn -0.040566 -0.980241 0.193603
vn -0.419634 -0.892875 0.163342
vn -0.734817 -0.669578 0.108214
vn -0.938130 -0.344343 0.036610
vn -0.998621 0.033315 -0.040566
vn -0.907082 0.405901 -0.111567
vn -0.677447 0.716692 -0.165583
vn -0.344678 0.918373 -0.194390
vn 0.040566 0.980241 -0.193603
vn 0.033315 -0.194982 -0.980241
vn 0.033315 -0.194982 -0.980241
vn 0.033315 -0.194982 -0.980241
vn 0.033315 -0.194982 -0.980241
vn 0.033315 -0.194982 -0.980241
vn 0.033315 -0.194982 -0.980241
vn 0.033315 -0.194982 -0.980241
vn 0.033315 -0.194982 -0.980241
vn 0.033315 -0.194982 -0.980241
vn 0.033315 -0.194982 -0.980241
vn 0.033315 -0.194982 -0.980241
vn 0.033315 -0.194982 -0.980241
vn 0.033315 -0.194982 -0.980241
vn 0.033315 -0.194982 -0.980241
vn 0.033315 -0.194982 -0.980241
vn 0.033315 -0.194982 -0.980241
vn 0.033315 -0.194982 -0.980241
vn 0.033315 -0.194982 -0.980241
vn 0.033315 -0.194982 -0.980241
vn 0.033315 -0.194982 -0.980241
vn 0.033315 -0.194982 -0.980241
vn 0.033315 -0.194982 -0.980241
vn 0.033315 -0.194982 -0.980241
vn 0.033315 -0.194982 -0.980241
vn 0.033315 -0.194982 -0.980241
vn 0.033315 -0.194982 -0.980241
vn 0.033315 -0.194982 -0.980241
vn 0.033315 -0.194982 -0.980241
vn 0.033315 -0.194982 -0.980241
vn 0.033315 -0.194982 -0.980241
vn 0.033315 -0.194982 -0.980241
vn 0.033315 -0.194982 -0.980241
vn 0.033315 -0.194982 -0.980241
vn -0.033315 0.194982 0.980241
vn -0.033315 0.194982 0.980241
vn -0.033315 0.194982 0.980241
vn -0.033315 0.194982 0.980241
vn -0.033315 0.194982 0.980241
vn -0.033315 0.194982 0.980241
vn -0.033315 0.194982 0.980241
vn -0.033315 0.194982 0.980241
vn -0.033315 0.194982 0.980241
vn -0.033315 0.194982 0.980241
vn -0.033315 0.194982 0.980241
vn -0.033315 0.194982 0.980241
vn -0.033315 0.194982 0.980241
vn -0.033315 0.194982 0.980241
vn -0.033315 0.194982 0.980241
vn -0.033315 0.194982 0.980241
vn -0.033315 0.194982 0.980241
vn -0.033315 0.194982 0.980241
vn -0.033315 0.194982 0.980241
vn -0.033315 0.194982 0.980241
vn -0.033315 0.194982 0.980241
vn -0.033315 0.194982 0.980241
vn -0.033315 0.194982 0.980241
vn -0.033315 0.194982 0.980241
vn -0.033315 0.194982 0.980241
vn -0.033315 0.194982 0.980241
vn -0.033315 0.194982 0.980241
vn -0.033315 0.194982 0.980241
vn -0.033315 0.194982 0.980241
vn -0.033315 0.194982 0.980241
vn -0.033315 0.194982 0.980241
vn -0.033315 0.194982 0.980241
vn -0.033315 0.194982 0.980241
f 1//1 18//18 2//2
f 18//18 19//19 2//2
f 2//2 19//19 3//3
f 19//19 20//20 3//3
f 3//3 20//20 4//4
f 20//20 21//21 4//4
f 4//4 21//21 5//5
f 21//21 22//22 5//5
f 5//5 22//22 6//6
f 22//22 23//23 6//6
f 6//6 23//23 7//7
f 23//23 24//24 7//7
f 7//7 24//24 8//8
f 24//24 25//25 8//8
f 8//8 25//25 9//9
f 25//25 26//26 9//9
f 9//9 26//26 10//10
f 26//26 27//27 10//10
f 10//10 27//27 11//11
f 27//27 28//28 11//11
f 11//11 28//28 12//12
f 28//28 29//29 12//12
f 12//12 29//29 13//13
f 29//29 30//30 13//13
f 13//13 30//30 14//14
f 30//30 31//31 14//14
f 14//14 31//31 15//15
f 31//31 32//32 15//15
f 15//15 32//32 16//16
f 32//32 33//33 16//16
f 16//16 33//33 17//17
f 33//33 34//34 17//17
f 51//51 52//52 35//35
f 52//52 53//53 36//36
f 53//53 54//54 37//37
f 54//54 55//55 38//38
f 55//55 56//56 39//39
f 56//56 57//57 40//40
f 57//57 58//58 41//41
f 58//58 59//59 42//42
f 59//59 60//60 43//43
f 60//60 61//61 44//44
f 61//61 62//62 45//45
f 62//62 63//63 46//46
f 63//63 64//64 47//47
f 64//64 65//65 48//48
f 65//65 66//66 49//49
f 66//66 67//67 50//50
f 85//85 84//84 68//68
f 86//86 85//85 69//69
f 87//87 86//86 70//70
f 88//88 87//87 71//71
f 89//89 88//88 72//72
f 90//90 89//89 73//73
f 91//91 90//90 74//74
f 92//92 91//91 75//75
f 93//93 92//92 76//76
f 94//94 93//93 77//77
f 95//95 94//94 78//78
f 96//96 95//95 79//79
f 97//97 96//96 80//80
f 98//98 97//97 81//81
f 99//99 98//98 82//82
f 100//100 99//99 83//83
