# Generated OBJ from Three.js geometry
v 0 2 2
v 0.39018064737319946 2 1.9615705013275146
v 0.7653668522834778 2 1.8477590084075928
v 1.111140489578247 2 1.662939190864563
v 1.4142135381698608 2 1.4142135381698608
v 1.662939190864563 2 1.111140489578247
v 1.8477590084075928 2 0.7653668522834778
v 1.9615705013275146 2 0.39018064737319946
v 2 2 1.2246468525851679e-16
v 1.9615705013275146 2 -0.39018064737319946
v 1.8477590084075928 2 -0.7653668522834778
v 1.662939190864563 2 -1.111140489578247
v 1.4142135381698608 2 -1.4142135381698608
v 1.111140489578247 2 -1.662939190864563
v 0.7653668522834778 2 -1.8477590084075928
v 0.39018064737319946 2 -1.9615705013275146
v 2.4492937051703357e-16 2 -2
v -0.39018064737319946 2 -1.9615705013275146
v -0.7653668522834778 2 -1.8477590084075928
v -1.111140489578247 2 -1.662939190864563
v -1.4142135381698608 2 -1.4142135381698608
v -1.662939190864563 2 -1.111140489578247
v -1.8477590084075928 2 -0.7653668522834778
v -1.9615705013275146 2 -0.39018064737319946
v -2 2 -3.6739402930577075e-16
v -1.9615705013275146 2 0.39018064737319946
v -1.8477590084075928 2 0.7653668522834778
v -1.662939190864563 2 1.111140489578247
v -1.4142135381698608 2 1.4142135381698608
v -1.111140489578247 2 1.662939190864563
v -0.7653668522834778 2 1.8477590084075928
v -0.39018064737319946 2 1.9615705013275146
v -4.898587410340671e-16 2 2
v 0 -2 2
v 0.39018064737319946 -2 1.9615705013275146
v 0.7653668522834778 -2 1.8477590084075928
v 1.111140489578247 -2 1.662939190864563
v 1.4142135381698608 -2 1.4142135381698608
v 1.662939190864563 -2 1.111140489578247
v 1.8477590084075928 -2 0.7653668522834778
v 1.9615705013275146 -2 0.39018064737319946
v 2 -2 1.2246468525851679e-16
v 1.9615705013275146 -2 -0.39018064737319946
v 1.8477590084075928 -2 -0.7653668522834778
v 1.662939190864563 -2 -1.111140489578247
v 1.4142135381698608 -2 -1.4142135381698608
v 1.111140489578247 -2 -1.662939190864563
v 0.7653668522834778 -2 -1.8477590084075928
v 0.39018064737319946 -2 -1.9615705013275146
v 2.4492937051703357e-16 -2 -2
v -0.39018064737319946 -2 -1.9615705013275146
v -0.7653668522834778 -2 -1.8477590084075928
v -1.111140489578247 -2 -1.662939190864563
v -1.4142135381698608 -2 -1.4142135381698608
v -1.662939190864563 -2 -1.111140489578247
v -1.8477590084075928 -2 -0.7653668522834778
v -1.9615705013275146 -2 -0.39018064737319946
v -2 -2 -3.6739402930577075e-16
v -1.9615705013275146 -2 0.39018064737319946
v -1.8477590084075928 -2 0.7653668522834778
v -1.662939190864563 -2 1.111140489578247
v -1.4142135381698608 -2 1.4142135381698608
v -1.111140489578247 -2 1.662939190864563
v -0.7653668522834778 -2 1.8477590084075928
v -0.39018064737319946 -2 1.9615705013275146
v -4.898587410340671e-16 -2 2
v 0 2 0
v 0 2 0
v 0 2 0
v 0 2 0
v 0 2 0
v 0 2 0
v 0 2 0
v 0 2 0
v 0 2 0
v 0 2 0
v 0 2 0
v 0 2 0
v 0 2 0
v 0 2 0
v 0 2 0
v 0 2 0
v 0 2 0
v 0 2 0
v 0 2 0
v 0 2 0
v 0 2 0
v 0 2 0
v 0 2 0
v 0 2 0
v 0 2 0
v 0 2 0
v 0 2 0
v 0 2 0
v 0 2 0
v 0 2 0
v 0 2 0
v 0 2 0
v 0 2 2
v 0.39018064737319946 2 1.9615705013275146
v 0.7653668522834778 2 1.8477590084075928
v 1.111140489578247 2 1.662939190864563
v 1.4142135381698608 2 1.4142135381698608
v 1.662939190864563 2 1.111140489578247
v 1.8477590084075928 2 0.7653668522834778
v 1.9615705013275146 2 0.39018064737319946
v 2 2 1.2246468525851679e-16
v 1.9615705013275146 2 -0.39018064737319946
v 1.8477590084075928 2 -0.7653668522834778
v 1.662939190864563 2 -1.111140489578247
v 1.4142135381698608 2 -1.4142135381698608
v 1.111140489578247 2 -1.662939190864563
v 0.7653668522834778 2 -1.8477590084075928
v 0.39018064737319946 2 -1.9615705013275146
v 2.4492937051703357e-16 2 -2
v -0.39018064737319946 2 -1.9615705013275146
v -0.7653668522834778 2 -1.8477590084075928
v -1.111140489578247 2 -1.662939190864563
v -1.4142135381698608 2 -1.4142135381698608
v -1.662939190864563 2 -1.111140489578247
v -1.8477590084075928 2 -0.7653668522834778
v -1.9615705013275146 2 -0.39018064737319946
v -2 2 -3.6739402930577075e-16
v -1.9615705013275146 2 0.39018064737319946
v -1.8477590084075928 2 0.7653668522834778
v -1.662939190864563 2 1.111140489578247
v -1.4142135381698608 2 1.4142135381698608
v -1.111140489578247 2 1.662939190864563
v -0.7653668522834778 2 1.8477590084075928
v -0.39018064737319946 2 1.9615705013275146
v -4.898587410340671e-16 2 2
v 0 -2 0
v 0 -2 0
v 0 -2 0
v 0 -2 0
v 0 -2 0
v 0 -2 0
v 0 -2 0
v 0 -2 0
v 0 -2 0
v 0 -2 0
v 0 -2 0
v 0 -2 0
v 0 -2 0
v 0 -2 0
v 0 -2 0
v 0 -2 0
v 0 -2 0
v 0 -2 0
v 0 -2 0
v 0 -2 0
v 0 -2 0
v 0 -2 0
v 0 -2 0
v 0 -2 0
v 0 -2 0
v 0 -2 0
v 0 -2 0
v 0 -2 0
v 0 -2 0
v 0 -2 0
v 0 -2 0
v 0 -2 0
v 0 -2 2
v 0.39018064737319946 -2 1.9615705013275146
v 0.7653668522834778 -2 1.8477590084075928
v 1.111140489578247 -2 1.662939190864563
v 1.4142135381698608 -2 1.4142135381698608
v 1.662939190864563 -2 1.111140489578247
v 1.8477590084075928 -2 0.7653668522834778
v 1.9615705013275146 -2 0.39018064737319946
v 2 -2 1.2246468525851679e-16
v 1.9615705013275146 -2 -0.39018064737319946
v 1.8477590084075928 -2 -0.7653668522834778
v 1.662939190864563 -2 -1.111140489578247
v 1.4142135381698608 -2 -1.4142135381698608
v 1.111140489578247 -2 -1.662939190864563
v 0.7653668522834778 -2 -1.8477590084075928
v 0.39018064737319946 -2 -1.9615705013275146
v 2.4492937051703357e-16 -2 -2
v -0.39018064737319946 -2 -1.9615705013275146
v -0.7653668522834778 -2 -1.8477590084075928
v -1.111140489578247 -2 -1.662939190864563
v -1.4142135381698608 -2 -1.4142135381698608
v -1.662939190864563 -2 -1.111140489578247
v -1.8477590084075928 -2 -0.7653668522834778
v -1.9615705013275146 -2 -0.39018064737319946
v -2 -2 -3.6739402930577075e-16
v -1.9615705013275146 -2 0.39018064737319946
v -1.8477590084075928 -2 0.7653668522834778
v -1.662939190864563 -2 1.111140489578247
v -1.4142135381698608 -2 1.4142135381698608
v -1.111140489578247 -2 1.662939190864563
v -0.7653668522834778 -2 1.8477590084075928
v -0.39018064737319946 -2 1.9615705013275146
v -4.898587410340671e-16 -2 2
f 1 34 2
f 34 35 2
f 2 35 3
f 35 36 3
f 3 36 4
f 36 37 4
f 4 37 5
f 37 38 5
f 5 38 6
f 38 39 6
f 6 39 7
f 39 40 7
f 7 40 8
f 40 41 8
f 8 41 9
f 41 42 9
f 9 42 10
f 42 43 10
f 10 43 11
f 43 44 11
f 11 44 12
f 44 45 12
f 12 45 13
f 45 46 13
f 13 46 14
f 46 47 14
f 14 47 15
f 47 48 15
f 15 48 16
f 48 49 16
f 16 49 17
f 49 50 17
f 17 50 18
f 50 51 18
f 18 51 19
f 51 52 19
f 19 52 20
f 52 53 20
f 20 53 21
f 53 54 21
f 21 54 22
f 54 55 22
f 22 55 23
f 55 56 23
f 23 56 24
f 56 57 24
f 24 57 25
f 57 58 25
f 25 58 26
f 58 59 26
f 26 59 27
f 59 60 27
f 27 60 28
f 60 61 28
f 28 61 29
f 61 62 29
f 29 62 30
f 62 63 30
f 30 63 31
f 63 64 31
f 31 64 32
f 64 65 32
f 32 65 33
f 65 66 33
f 99 100 67
f 100 101 68
f 101 102 69
f 102 103 70
f 103 104 71
f 104 105 72
f 105 106 73
f 106 107 74
f 107 108 75
f 108 109 76
f 109 110 77
f 110 111 78
f 111 112 79
f 112 113 80
f 113 114 81
f 114 115 82
f 115 116 83
f 116 117 84
f 117 118 85
f 118 119 86
f 119 120 87
f 120 121 88
f 121 122 89
f 122 123 90
f 123 124 91
f 124 125 92
f 125 126 93
f 126 127 94
f 127 128 95
f 128 129 96
f 129 130 97
f 130 131 98
f 165 164 132
f 166 165 133
f 167 166 134
f 168 167 135
f 169 168 136
f 170 169 137
f 171 170 138
f 172 171 139
f 173 172 140
f 174 173 141
f 175 174 142
f 176 175 143
f 177 176 144
f 178 177 145
f 179 178 146
f 180 179 147
f 181 180 148
f 182 181 149
f 183 182 150
f 184 183 151
f 185 184 152
f 186 185 153
f 187 186 154
f 188 187 155
f 189 188 156
f 190 189 157
f 191 190 158
f 192 191 159
f 193 192 160
f 194 193 161
f 195 194 162
f 196 195 163
