o support_structure
v 3.75 36 3.5
v 3.75 36 -3.5
v 3.75 34 3.5
v 3.75 34 -3.5
v -3.75 36 -3.5
v -3.75 36 3.5
v -3.75 34 -3.5
v -3.75 34 3.5
v -3.75 36 -3.5
v 3.75 36 -3.5
v -3.75 36 3.5
v 3.75 36 3.5
v -3.75 34 3.5
v 3.75 34 3.5
v -3.75 34 -3.5
v 3.75 34 -3.5
v -3.75 36 3.5
v 3.75 36 3.5
v -3.75 34 3.5
v 3.75 34 3.5
v 3.75 36 -3.5
v -3.75 36 -3.5
v 3.75 34 -3.5
v -3.75 34 -3.5
vn 1 0 0
vn 1 0 0
vn 1 0 0
vn 1 0 0
vn -1 0 0
vn -1 0 0
vn -1 0 0
vn -1 0 0
vn 0 1 0
vn 0 1 0
vn 0 1 0
vn 0 1 0
vn 0 -1 0
vn 0 -1 0
vn 0 -1 0
vn 0 -1 0
vn 0 0 1
vn 0 0 1
vn 0 0 1
vn 0 0 1
vn 0 0 -1
vn 0 0 -1
vn 0 0 -1
vn 0 0 -1
f 1//1 3//3 2//2
f 3//3 4//4 2//2
f 5//5 7//7 6//6
f 7//7 8//8 6//6
f 9//9 11//11 10//10
f 11//11 12//12 10//10
f 13//13 15//15 14//14
f 15//15 16//16 14//14
f 17//17 19//19 18//18
f 19//19 20//20 18//18
f 21//21 23//23 22//22
f 23//23 24//24 22//22
v 10 2 12.5
v 10 2 -12.5
v 10 0 12.5
v 10 0 -12.5
v -10 2 -12.5
v -10 2 12.5
v -10 0 -12.5
v -10 0 12.5
v -10 2 -12.5
v 10 2 -12.5
v -10 2 12.5
v 10 2 12.5
v -10 0 12.5
v 10 0 12.5
v -10 0 -12.5
v 10 0 -12.5
v -10 2 12.5
v 10 2 12.5
v -10 0 12.5
v 10 0 12.5
v 10 2 -12.5
v -10 2 -12.5
v 10 0 -12.5
v -10 0 -12.5
vn 1 0 0
vn 1 0 0
vn 1 0 0
vn 1 0 0
vn -1 0 0
vn -1 0 0
vn -1 0 0
vn -1 0 0
vn 0 1 0
vn 0 1 0
vn 0 1 0
vn 0 1 0
vn 0 -1 0
vn 0 -1 0
vn 0 -1 0
vn 0 -1 0
vn 0 0 1
vn 0 0 1
vn 0 0 1
vn 0 0 1
vn 0 0 -1
vn 0 0 -1
vn 0 0 -1
vn 0 0 -1
f 25//25 27//27 26//26
f 27//27 28//28 26//26
f 29//29 31//31 30//30
f 31//31 32//32 30//30
f 33//33 35//35 34//34
f 35//35 36//36 34//34
f 37//37 39//39 38//38
f 39//39 40//40 38//38
f 41//41 43//43 42//42
f 43//43 44//44 42//42
f 45//45 47//47 46//46
f 47//47 48//48 46//46
v 3.5227272510528564 19.5 -6.5969696044921875
v 3.5227272510528564 19.270389556884766 -6.642642021179199
v 3.5227272510528564 19.075735092163086 -6.772705554962158
v 3.5227272510528564 18.9456729888916 -6.96735954284668
v 3.5227272510528564 18.899999618530273 -7.196969509124756
v 3.5227272510528564 18.9456729888916 -7.42657995223999
v 3.5227272510528564 19.075735092163086 -7.621233940124512
v 3.5227272510528564 19.270389556884766 -7.751297473907471
v 3.5227272510528564 19.5 -7.796969890594482
v 3.5227272510528564 19.729610443115234 -7.751297473907471
v 3.5227272510528564 19.924264907836914 -7.621233940124512
v 3.5227272510528564 20.0543270111084 -7.42657995223999
v 3.5227272510528564 20.100000381469727 -7.196969509124756
v 3.5227272510528564 20.0543270111084 -6.96735954284668
v 3.5227272510528564 19.924264907836914 -6.772705554962158
v 3.5227272510528564 19.729610443115234 -6.642642021179199
v 3.5227272510528564 19.5 -6.5969696044921875
v -3.5227272510528564 19.5 -6.5969696044921875
v -3.5227272510528564 19.270389556884766 -6.642642021179199
v -3.5227272510528564 19.075735092163086 -6.772705554962158
v -3.5227272510528564 18.9456729888916 -6.96735954284668
v -3.5227272510528564 18.899999618530273 -7.196969509124756
v -3.5227272510528564 18.9456729888916 -7.42657995223999
v -3.5227272510528564 19.075735092163086 -7.621233940124512
v -3.5227272510528564 19.270389556884766 -7.751297473907471
v -3.5227272510528564 19.5 -7.796969890594482
v -3.5227272510528564 19.729610443115234 -7.751297473907471
v -3.5227272510528564 19.924264907836914 -7.621233940124512
v -3.5227272510528564 20.0543270111084 -7.42657995223999
v -3.5227272510528564 20.100000381469727 -7.196969509124756
v -3.5227272510528564 20.0543270111084 -6.96735954284668
v -3.5227272510528564 19.924264907836914 -6.772705554962158
v -3.5227272510528564 19.729610443115234 -6.642642021179199
v -3.5227272510528564 19.5 -6.5969696044921875
v 3.5227272510528564 19.5 -7.196969509124756
v 3.5227272510528564 19.5 -7.196969509124756
v 3.5227272510528564 19.5 -7.196969509124756
v 3.5227272510528564 19.5 -7.196969509124756
v 3.5227272510528564 19.5 -7.196969509124756
v 3.5227272510528564 19.5 -7.196969509124756
v 3.5227272510528564 19.5 -7.196969509124756
v 3.5227272510528564 19.5 -7.196969509124756
v 3.5227272510528564 19.5 -7.196969509124756
v 3.5227272510528564 19.5 -7.196969509124756
v 3.5227272510528564 19.5 -7.196969509124756
v 3.5227272510528564 19.5 -7.196969509124756
v 3.5227272510528564 19.5 -7.196969509124756
v 3.5227272510528564 19.5 -7.196969509124756
v 3.5227272510528564 19.5 -7.196969509124756
v 3.5227272510528564 19.5 -7.196969509124756
v 3.5227272510528564 19.5 -6.5969696044921875
v 3.5227272510528564 19.270389556884766 -6.642642021179199
v 3.5227272510528564 19.075735092163086 -6.772705554962158
v 3.5227272510528564 18.9456729888916 -6.96735954284668
v 3.5227272510528564 18.899999618530273 -7.196969509124756
v 3.5227272510528564 18.9456729888916 -7.42657995223999
v 3.5227272510528564 19.075735092163086 -7.621233940124512
v 3.5227272510528564 19.270389556884766 -7.751297473907471
v 3.5227272510528564 19.5 -7.796969890594482
v 3.5227272510528564 19.729610443115234 -7.751297473907471
v 3.5227272510528564 19.924264907836914 -7.621233940124512
v 3.5227272510528564 20.0543270111084 -7.42657995223999
v 3.5227272510528564 20.100000381469727 -7.196969509124756
v 3.5227272510528564 20.0543270111084 -6.96735954284668
v 3.5227272510528564 19.924264907836914 -6.772705554962158
v 3.5227272510528564 19.729610443115234 -6.642642021179199
v 3.5227272510528564 19.5 -6.5969696044921875
v -3.5227272510528564 19.5 -7.196969509124756
v -3.5227272510528564 19.5 -7.196969509124756
v -3.5227272510528564 19.5 -7.196969509124756
v -3.5227272510528564 19.5 -7.196969509124756
v -3.5227272510528564 19.5 -7.196969509124756
v -3.5227272510528564 19.5 -7.196969509124756
v -3.5227272510528564 19.5 -7.196969509124756
v -3.5227272510528564 19.5 -7.196969509124756
v -3.5227272510528564 19.5 -7.196969509124756
v -3.5227272510528564 19.5 -7.196969509124756
v -3.5227272510528564 19.5 -7.196969509124756
v -3.5227272510528564 19.5 -7.196969509124756
v -3.5227272510528564 19.5 -7.196969509124756
v -3.5227272510528564 19.5 -7.196969509124756
v -3.5227272510528564 19.5 -7.196969509124756
v -3.5227272510528564 19.5 -7.196969509124756
v -3.5227272510528564 19.5 -6.5969696044921875
v -3.5227272510528564 19.270389556884766 -6.642642021179199
v -3.5227272510528564 19.075735092163086 -6.772705554962158
v -3.5227272510528564 18.9456729888916 -6.96735954284668
v -3.5227272510528564 18.899999618530273 -7.196969509124756
v -3.5227272510528564 18.9456729888916 -7.42657995223999
v -3.5227272510528564 19.075735092163086 -7.621233940124512
v -3.5227272510528564 19.270389556884766 -7.751297473907471
v -3.5227272510528564 19.5 -7.796969890594482
v -3.5227272510528564 19.729610443115234 -7.751297473907471
v -3.5227272510528564 19.924264907836914 -7.621233940124512
v -3.5227272510528564 20.0543270111084 -7.42657995223999
v -3.5227272510528564 20.100000381469727 -7.196969509124756
v -3.5227272510528564 20.0543270111084 -6.96735954284668
v -3.5227272510528564 19.924264907836914 -6.772705554962158
v -3.5227272510528564 19.729610443115234 -6.642642021179199
v -3.5227272510528564 19.5 -6.5969696044921875
vn 0 0 1
vn 8.497279016899981e-17 -0.3826834261417389 0.9238795042037964
vn 1.5700924318127872e-16 -0.7071067690849304 0.7071067690849304
vn 2.0514245950926577e-16 -0.9238795042037964 0.3826834261417389
vn 2.220446049250313e-16 -1 6.123234262925839e-17
vn 2.0514245950926577e-16 -0.9238795042037964 -0.3826834261417389
vn 1.5700924318127872e-16 -0.7071067690849304 -0.7071067690849304
vn 8.497279016899981e-17 -0.3826834261417389 -0.9238795042037964
vn 2.7192622655495665e-32 -1.2246468525851679e-16 -1
vn -8.497279016899981e-17 0.3826834261417389 -0.9238795042037964
vn -1.5700924318127872e-16 0.7071067690849304 -0.7071067690849304
vn -2.0514245950926577e-16 0.9238795042037964 -0.3826834261417389
vn -2.220446049250313e-16 1 -1.8369701465288538e-16
vn -2.0514245950926577e-16 0.9238795042037964 0.3826834261417389
vn -1.5700924318127872e-16 0.7071067690849304 0.7071067690849304
vn -8.497279016899981e-17 0.3826834261417389 0.9238795042037964
vn -5.438524531099133e-32 2.4492937051703357e-16 1
vn 0 0 1
vn 8.497279016899981e-17 -0.3826834261417389 0.9238795042037964
vn 1.5700924318127872e-16 -0.7071067690849304 0.7071067690849304
vn 2.0514245950926577e-16 -0.9238795042037964 0.3826834261417389
vn 2.220446049250313e-16 -1 6.123234262925839e-17
vn 2.0514245950926577e-16 -0.9238795042037964 -0.3826834261417389
vn 1.5700924318127872e-16 -0.7071067690849304 -0.7071067690849304
vn 8.497279016899981e-17 -0.3826834261417389 -0.9238795042037964
vn 2.7192622655495665e-32 -1.2246468525851679e-16 -1
vn -8.497279016899981e-17 0.3826834261417389 -0.9238795042037964
vn -1.5700924318127872e-16 0.7071067690849304 -0.7071067690849304
vn -2.0514245950926577e-16 0.9238795042037964 -0.3826834261417389
vn -2.220446049250313e-16 1 -1.8369701465288538e-16
vn -2.0514245950926577e-16 0.9238795042037964 0.3826834261417389
vn -1.5700924318127872e-16 0.7071067690849304 0.7071067690849304
vn -8.497279016899981e-17 0.3826834261417389 0.9238795042037964
vn -5.438524531099133e-32 2.4492937051703357e-16 1
vn 1 2.220446049250313e-16 0
vn 1 2.220446049250313e-16 0
vn 1 2.220446049250313e-16 0
vn 1 2.220446049250313e-16 0
vn 1 2.220446049250313e-16 0
vn 1 2.220446049250313e-16 0
vn 1 2.220446049250313e-16 0
vn 1 2.220446049250313e-16 0
vn 1 2.220446049250313e-16 0
vn 1 2.220446049250313e-16 0
vn 1 2.220446049250313e-16 0
vn 1 2.220446049250313e-16 0
vn 1 2.220446049250313e-16 0
vn 1 2.220446049250313e-16 0
vn 1 2.220446049250313e-16 0
vn 1 2.220446049250313e-16 0
vn 1 2.220446049250313e-16 0
vn 1 2.220446049250313e-16 0
vn 1 2.220446049250313e-16 0
vn 1 2.220446049250313e-16 0
vn 1 2.220446049250313e-16 0
vn 1 2.220446049250313e-16 0
vn 1 2.220446049250313e-16 0
vn 1 2.220446049250313e-16 0
vn 1 2.220446049250313e-16 0
vn 1 2.220446049250313e-16 0
vn 1 2.220446049250313e-16 0
vn 1 2.220446049250313e-16 0
vn 1 2.220446049250313e-16 0
vn 1 2.220446049250313e-16 0
vn 1 2.220446049250313e-16 0
vn 1 2.220446049250313e-16 0
vn 1 2.220446049250313e-16 0
vn -1 -2.220446049250313e-16 0
vn -1 -2.220446049250313e-16 0
vn -1 -2.220446049250313e-16 0
vn -1 -2.220446049250313e-16 0
vn -1 -2.220446049250313e-16 0
vn -1 -2.220446049250313e-16 0
vn -1 -2.220446049250313e-16 0
vn -1 -2.220446049250313e-16 0
vn -1 -2.220446049250313e-16 0
vn -1 -2.220446049250313e-16 0
vn -1 -2.220446049250313e-16 0
vn -1 -2.220446049250313e-16 0
vn -1 -2.220446049250313e-16 0
vn -1 -2.220446049250313e-16 0
vn -1 -2.220446049250313e-16 0
vn -1 -2.220446049250313e-16 0
vn -1 -2.220446049250313e-16 0
vn -1 -2.220446049250313e-16 0
vn -1 -2.220446049250313e-16 0
vn -1 -2.220446049250313e-16 0
vn -1 -2.220446049250313e-16 0
vn -1 -2.220446049250313e-16 0
vn -1 -2.220446049250313e-16 0
vn -1 -2.220446049250313e-16 0
vn -1 -2.220446049250313e-16 0
vn -1 -2.220446049250313e-16 0
vn -1 -2.220446049250313e-16 0
vn -1 -2.220446049250313e-16 0
vn -1 -2.220446049250313e-16 0
vn -1 -2.220446049250313e-16 0
vn -1 -2.220446049250313e-16 0
vn -1 -2.220446049250313e-16 0
vn -1 -2.220446049250313e-16 0
f 49//49 66//66 50//50
f 66//66 67//67 50//50
f 50//50 67//67 51//51
f 67//67 68//68 51//51
f 51//51 68//68 52//52
f 68//68 69//69 52//52
f 52//52 69//69 53//53
f 69//69 70//70 53//53
f 53//53 70//70 54//54
f 70//70 71//71 54//54
f 54//54 71//71 55//55
f 71//71 72//72 55//55
f 55//55 72//72 56//56
f 72//72 73//73 56//56
f 56//56 73//73 57//57
f 73//73 74//74 57//57
f 57//57 74//74 58//58
f 74//74 75//75 58//58
f 58//58 75//75 59//59
f 75//75 76//76 59//59
f 59//59 76//76 60//60
f 76//76 77//77 60//60
f 60//60 77//77 61//61
f 77//77 78//78 61//61
f 61//61 78//78 62//62
f 78//78 79//79 62//62
f 62//62 79//79 63//63
f 79//79 80//80 63//63
f 63//63 80//80 64//64
f 80//80 81//81 64//64
f 64//64 81//81 65//65
f 81//81 82//82 65//65
f 99//99 100//100 83//83
f 100//100 101//101 84//84
f 101//101 102//102 85//85
f 102//102 103//103 86//86
f 103//103 104//104 87//87
f 104//104 105//105 88//88
f 105//105 106//106 89//89
f 106//106 107//107 90//90
f 107//107 108//108 91//91
f 108//108 109//109 92//92
f 109//109 110//110 93//93
f 110//110 111//111 94//94
f 111//111 112//112 95//95
f 112//112 113//113 96//96
f 113//113 114//114 97//97
f 114//114 115//115 98//98
f 133//133 132//132 116//116
f 134//134 133//133 117//117
f 135//135 134//134 118//118
f 136//136 135//135 119//119
f 137//137 136//136 120//120
f 138//138 137//137 121//121
f 139//139 138//138 122//122
f 140//140 139//139 123//123
f 141//141 140//140 124//124
f 142//142 141//141 125//125
f 143//143 142//142 126//126
f 144//144 143//143 127//127
f 145//145 144//144 128//128
f 146//146 145//145 129//129
f 147//147 146//146 130//130
f 148//148 147//147 131//131
v 3.5227272510528564 19.5 7.796969890594482
v 3.5227272510528564 19.270389556884766 7.751297473907471
v 3.5227272510528564 19.075735092163086 7.621233940124512
v 3.5227272510528564 18.9456729888916 7.42657995223999
v 3.5227272510528564 18.899999618530273 7.196969509124756
v 3.5227272510528564 18.9456729888916 6.96735954284668
v 3.5227272510528564 19.075735092163086 6.772705554962158
v 3.5227272510528564 19.270389556884766 6.642642021179199
v 3.5227272510528564 19.5 6.5969696044921875
v 3.5227272510528564 19.729610443115234 6.642642021179199
v 3.5227272510528564 19.924264907836914 6.772705554962158
v 3.5227272510528564 20.0543270111084 6.96735954284668
v 3.5227272510528564 20.100000381469727 7.196969509124756
v 3.5227272510528564 20.0543270111084 7.42657995223999
v 3.5227272510528564 19.924264907836914 7.621233940124512
v 3.5227272510528564 19.729610443115234 7.751297473907471
v 3.5227272510528564 19.5 7.796969890594482
v -3.5227272510528564 19.5 7.796969890594482
v -3.5227272510528564 19.270389556884766 7.751297473907471
v -3.5227272510528564 19.075735092163086 7.621233940124512
v -3.5227272510528564 18.9456729888916 7.42657995223999
v -3.5227272510528564 18.899999618530273 7.196969509124756
v -3.5227272510528564 18.9456729888916 6.96735954284668
v -3.5227272510528564 19.075735092163086 6.772705554962158
v -3.5227272510528564 19.270389556884766 6.642642021179199
v -3.5227272510528564 19.5 6.5969696044921875
v -3.5227272510528564 19.729610443115234 6.642642021179199
v -3.5227272510528564 19.924264907836914 6.772705554962158
v -3.5227272510528564 20.0543270111084 6.96735954284668
v -3.5227272510528564 20.100000381469727 7.196969509124756
v -3.5227272510528564 20.0543270111084 7.42657995223999
v -3.5227272510528564 19.924264907836914 7.621233940124512
v -3.5227272510528564 19.729610443115234 7.751297473907471
v -3.5227272510528564 19.5 7.796969890594482
v 3.5227272510528564 19.5 7.196969509124756
v 3.5227272510528564 19.5 7.196969509124756
v 3.5227272510528564 19.5 7.196969509124756
v 3.5227272510528564 19.5 7.196969509124756
v 3.5227272510528564 19.5 7.196969509124756
v 3.5227272510528564 19.5 7.196969509124756
v 3.5227272510528564 19.5 7.196969509124756
v 3.5227272510528564 19.5 7.196969509124756
v 3.5227272510528564 19.5 7.196969509124756
v 3.5227272510528564 19.5 7.196969509124756
v 3.5227272510528564 19.5 7.196969509124756
v 3.5227272510528564 19.5 7.196969509124756
v 3.5227272510528564 19.5 7.196969509124756
v 3.5227272510528564 19.5 7.196969509124756
v 3.5227272510528564 19.5 7.196969509124756
v 3.5227272510528564 19.5 7.196969509124756
v 3.5227272510528564 19.5 7.796969890594482
v 3.5227272510528564 19.270389556884766 7.751297473907471
v 3.5227272510528564 19.075735092163086 7.621233940124512
v 3.5227272510528564 18.9456729888916 7.42657995223999
v 3.5227272510528564 18.899999618530273 7.196969509124756
v 3.5227272510528564 18.9456729888916 6.96735954284668
v 3.5227272510528564 19.075735092163086 6.772705554962158
v 3.5227272510528564 19.270389556884766 6.642642021179199
v 3.5227272510528564 19.5 6.5969696044921875
v 3.5227272510528564 19.729610443115234 6.642642021179199
v 3.5227272510528564 19.924264907836914 6.772705554962158
v 3.5227272510528564 20.0543270111084 6.96735954284668
v 3.5227272510528564 20.100000381469727 7.196969509124756
v 3.5227272510528564 20.0543270111084 7.42657995223999
v 3.5227272510528564 19.924264907836914 7.621233940124512
v 3.5227272510528564 19.729610443115234 7.751297473907471
v 3.5227272510528564 19.5 7.796969890594482
v -3.5227272510528564 19.5 7.196969509124756
v -3.5227272510528564 19.5 7.196969509124756
v -3.5227272510528564 19.5 7.196969509124756
v -3.5227272510528564 19.5 7.196969509124756
v -3.5227272510528564 19.5 7.196969509124756
v -3.5227272510528564 19.5 7.196969509124756
v -3.5227272510528564 19.5 7.196969509124756
v -3.5227272510528564 19.5 7.196969509124756
v -3.5227272510528564 19.5 7.196969509124756
v -3.5227272510528564 19.5 7.196969509124756
v -3.5227272510528564 19.5 7.196969509124756
v -3.5227272510528564 19.5 7.196969509124756
v -3.5227272510528564 19.5 7.196969509124756
v -3.5227272510528564 19.5 7.196969509124756
v -3.5227272510528564 19.5 7.196969509124756
v -3.5227272510528564 19.5 7.196969509124756
v -3.5227272510528564 19.5 7.796969890594482
v -3.5227272510528564 19.270389556884766 7.751297473907471
v -3.5227272510528564 19.075735092163086 7.621233940124512
v -3.5227272510528564 18.9456729888916 7.42657995223999
v -3.5227272510528564 18.899999618530273 7.196969509124756
v -3.5227272510528564 18.9456729888916 6.96735954284668
v -3.5227272510528564 19.075735092163086 6.772705554962158
v -3.5227272510528564 19.270389556884766 6.642642021179199
v -3.5227272510528564 19.5 6.5969696044921875
v -3.5227272510528564 19.729610443115234 6.642642021179199
v -3.5227272510528564 19.924264907836914 6.772705554962158
v -3.5227272510528564 20.0543270111084 6.96735954284668
v -3.5227272510528564 20.100000381469727 7.196969509124756
v -3.5227272510528564 20.0543270111084 7.42657995223999
v -3.5227272510528564 19.924264907836914 7.621233940124512
v -3.5227272510528564 19.729610443115234 7.751297473907471
v -3.5227272510528564 19.5 7.796969890594482
vn 0 0 1
vn 8.497279016899981e-17 -0.3826834261417389 0.9238795042037964
vn 1.5700924318127872e-16 -0.7071067690849304 0.7071067690849304
vn 2.0514245950926577e-16 -0.9238795042037964 0.3826834261417389
vn 2.220446049250313e-16 -1 6.123234262925839e-17
vn 2.0514245950926577e-16 -0.9238795042037964 -0.3826834261417389
vn 1.5700924318127872e-16 -0.7071067690849304 -0.7071067690849304
vn 8.497279016899981e-17 -0.3826834261417389 -0.9238795042037964
vn 2.7192622655495665e-32 -1.2246468525851679e-16 -1
vn -8.497279016899981e-17 0.3826834261417389 -0.9238795042037964
vn -1.5700924318127872e-16 0.7071067690849304 -0.7071067690849304
vn -2.0514245950926577e-16 0.9238795042037964 -0.3826834261417389
vn -2.220446049250313e-16 1 -1.8369701465288538e-16
vn -2.0514245950926577e-16 0.9238795042037964 0.3826834261417389
vn -1.5700924318127872e-16 0.7071067690849304 0.7071067690849304
vn -8.497279016899981e-17 0.3826834261417389 0.9238795042037964
vn -5.438524531099133e-32 2.4492937051703357e-16 1
vn 0 0 1
vn 8.497279016899981e-17 -0.3826834261417389 0.9238795042037964
vn 1.5700924318127872e-16 -0.7071067690849304 0.7071067690849304
vn 2.0514245950926577e-16 -0.9238795042037964 0.3826834261417389
vn 2.220446049250313e-16 -1 6.123234262925839e-17
vn 2.0514245950926577e-16 -0.9238795042037964 -0.3826834261417389
vn 1.5700924318127872e-16 -0.7071067690849304 -0.7071067690849304
vn 8.497279016899981e-17 -0.3826834261417389 -0.9238795042037964
vn 2.7192622655495665e-32 -1.2246468525851679e-16 -1
vn -8.497279016899981e-17 0.3826834261417389 -0.9238795042037964
vn -1.5700924318127872e-16 0.7071067690849304 -0.7071067690849304
vn -2.0514245950926577e-16 0.9238795042037964 -0.3826834261417389
vn -2.220446049250313e-16 1 -1.8369701465288538e-16
vn -2.0514245950926577e-16 0.9238795042037964 0.3826834261417389
vn -1.5700924318127872e-16 0.7071067690849304 0.7071067690849304
vn -8.497279016899981e-17 0.3826834261417389 0.9238795042037964
vn -5.438524531099133e-32 2.4492937051703357e-16 1
vn 1 2.220446049250313e-16 0
vn 1 2.220446049250313e-16 0
vn 1 2.220446049250313e-16 0
vn 1 2.220446049250313e-16 0
vn 1 2.220446049250313e-16 0
vn 1 2.220446049250313e-16 0
vn 1 2.220446049250313e-16 0
vn 1 2.220446049250313e-16 0
vn 1 2.220446049250313e-16 0
vn 1 2.220446049250313e-16 0
vn 1 2.220446049250313e-16 0
vn 1 2.220446049250313e-16 0
vn 1 2.220446049250313e-16 0
vn 1 2.220446049250313e-16 0
vn 1 2.220446049250313e-16 0
vn 1 2.220446049250313e-16 0
vn 1 2.220446049250313e-16 0
vn 1 2.220446049250313e-16 0
vn 1 2.220446049250313e-16 0
vn 1 2.220446049250313e-16 0
vn 1 2.220446049250313e-16 0
vn 1 2.220446049250313e-16 0
vn 1 2.220446049250313e-16 0
vn 1 2.220446049250313e-16 0
vn 1 2.220446049250313e-16 0
vn 1 2.220446049250313e-16 0
vn 1 2.220446049250313e-16 0
vn 1 2.220446049250313e-16 0
vn 1 2.220446049250313e-16 0
vn 1 2.220446049250313e-16 0
vn 1 2.220446049250313e-16 0
vn 1 2.220446049250313e-16 0
vn 1 2.220446049250313e-16 0
vn -1 -2.220446049250313e-16 0
vn -1 -2.220446049250313e-16 0
vn -1 -2.220446049250313e-16 0
vn -1 -2.220446049250313e-16 0
vn -1 -2.220446049250313e-16 0
vn -1 -2.220446049250313e-16 0
vn -1 -2.220446049250313e-16 0
vn -1 -2.220446049250313e-16 0
vn -1 -2.220446049250313e-16 0
vn -1 -2.220446049250313e-16 0
vn -1 -2.220446049250313e-16 0
vn -1 -2.220446049250313e-16 0
vn -1 -2.220446049250313e-16 0
vn -1 -2.220446049250313e-16 0
vn -1 -2.220446049250313e-16 0
vn -1 -2.220446049250313e-16 0
vn -1 -2.220446049250313e-16 0
vn -1 -2.220446049250313e-16 0
vn -1 -2.220446049250313e-16 0
vn -1 -2.220446049250313e-16 0
vn -1 -2.220446049250313e-16 0
vn -1 -2.220446049250313e-16 0
vn -1 -2.220446049250313e-16 0
vn -1 -2.220446049250313e-16 0
vn -1 -2.220446049250313e-16 0
vn -1 -2.220446049250313e-16 0
vn -1 -2.220446049250313e-16 0
vn -1 -2.220446049250313e-16 0
vn -1 -2.220446049250313e-16 0
vn -1 -2.220446049250313e-16 0
vn -1 -2.220446049250313e-16 0
vn -1 -2.220446049250313e-16 0
vn -1 -2.220446049250313e-16 0
f 149//149 166//166 150//150
f 166//166 167//167 150//150
f 150//150 167//167 151//151
f 167//167 168//168 151//151
f 151//151 168//168 152//152
f 168//168 169//169 152//152
f 152//152 169//169 153//153
f 169//169 170//170 153//153
f 153//153 170//170 154//154
f 170//170 171//171 154//154
f 154//154 171//171 155//155
f 171//171 172//172 155//155
f 155//155 172//172 156//156
f 172//172 173//173 156//156
f 156//156 173//173 157//157
f 173//173 174//174 157//157
f 157//157 174//174 158//158
f 174//174 175//175 158//158
f 158//158 175//175 159//159
f 175//175 176//176 159//159
f 159//159 176//176 160//160
f 176//176 177//177 160//160
f 160//160 177//177 161//161
f 177//177 178//178 161//161
f 161//161 178//178 162//162
f 178//178 179//179 162//162
f 162//162 179//179 163//163
f 179//179 180//180 163//163
f 163//163 180//180 164//164
f 180//180 181//181 164//164
f 164//164 181//181 165//165
f 181//181 182//182 165//165
f 199//199 200//200 183//183
f 200//200 201//201 184//184
f 201//201 202//202 185//185
f 202//202 203//203 186//186
f 203//203 204//204 187//187
f 204//204 205//205 188//188
f 205//205 206//206 189//189
f 206//206 207//207 190//190
f 207//207 208//208 191//191
f 208//208 209//209 192//192
f 209//209 210//210 193//193
f 210//210 211//211 194//194
f 211//211 212//212 195//195
f 212//212 213//213 196//196
f 213//213 214//214 197//197
f 214//214 215//215 198//198
f 233//233 232//232 216//216
f 234//234 233//233 217//217
f 235//235 234//234 218//218
f 236//236 235//235 219//219
f 237//237 236//236 220//220
f 238//238 237//237 221//221
f 239//239 238//238 222//222
f 240//240 239//239 223//223
f 241//241 240//240 224//224
f 242//242 241//241 225//225
f 243//243 242//242 226//226
f 244//244 243//243 227//227
f 245//245 244//244 228//228
f 246//246 245//245 229//229
f 247//247 246//246 230//230
f 248//248 247//247 231//231
v -3.5227272510528564 20.100000381469727 -7.196969509124756
v -3.2931172847747803 20.0543270111084 -7.196969509124756
v -3.098463296890259 19.924264907836914 -7.196969509124756
v -2.9683995246887207 19.729610443115234 -7.196969509124756
v -2.922727346420288 19.5 -7.196969509124756
v -2.9683995246887207 19.270389556884766 -7.196969509124756
v -3.098463296890259 19.075735092163086 -7.196969509124756
v -3.2931172847747803 18.9456729888916 -7.196969509124756
v -3.5227272510528564 18.899999618530273 -7.196969509124756
v -3.7523372173309326 18.9456729888916 -7.196969509124756
v -3.946991443634033 19.075735092163086 -7.196969509124756
v -4.077054977416992 19.270389556884766 -7.196969509124756
v -4.122727394104004 19.5 -7.196969509124756
v -4.077054977416992 19.729610443115234 -7.196969509124756
v -3.946991443634033 19.924264907836914 -7.196969509124756
v -3.7523372173309326 20.0543270111084 -7.196969509124756
v -3.5227272510528564 20.100000381469727 -7.196969509124756
v -3.5227272510528564 20.100000381469727 7.196969509124756
v -3.2931172847747803 20.0543270111084 7.196969509124756
v -3.098463296890259 19.924264907836914 7.196969509124756
v -2.9683995246887207 19.729610443115234 7.196969509124756
v -2.922727346420288 19.5 7.196969509124756
v -2.9683995246887207 19.270389556884766 7.196969509124756
v -3.098463296890259 19.075735092163086 7.196969509124756
v -3.2931172847747803 18.9456729888916 7.196969509124756
v -3.5227272510528564 18.899999618530273 7.196969509124756
v -3.7523372173309326 18.9456729888916 7.196969509124756
v -3.946991443634033 19.075735092163086 7.196969509124756
v -4.077054977416992 19.270389556884766 7.196969509124756
v -4.122727394104004 19.5 7.196969509124756
v -4.077054977416992 19.729610443115234 7.196969509124756
v -3.946991443634033 19.924264907836914 7.196969509124756
v -3.7523372173309326 20.0543270111084 7.196969509124756
v -3.5227272510528564 20.100000381469727 7.196969509124756
v -3.5227272510528564 19.5 -7.196969509124756
v -3.5227272510528564 19.5 -7.196969509124756
v -3.5227272510528564 19.5 -7.196969509124756
v -3.5227272510528564 19.5 -7.196969509124756
v -3.5227272510528564 19.5 -7.196969509124756
v -3.5227272510528564 19.5 -7.196969509124756
v -3.5227272510528564 19.5 -7.196969509124756
v -3.5227272510528564 19.5 -7.196969509124756
v -3.5227272510528564 19.5 -7.196969509124756
v -3.5227272510528564 19.5 -7.196969509124756
v -3.5227272510528564 19.5 -7.196969509124756
v -3.5227272510528564 19.5 -7.196969509124756
v -3.5227272510528564 19.5 -7.196969509124756
v -3.5227272510528564 19.5 -7.196969509124756
v -3.5227272510528564 19.5 -7.196969509124756
v -3.5227272510528564 19.5 -7.196969509124756
v -3.5227272510528564 20.100000381469727 -7.196969509124756
v -3.2931172847747803 20.0543270111084 -7.196969509124756
v -3.098463296890259 19.924264907836914 -7.196969509124756
v -2.9683995246887207 19.729610443115234 -7.196969509124756
v -2.922727346420288 19.5 -7.196969509124756
v -2.9683995246887207 19.270389556884766 -7.196969509124756
v -3.098463296890259 19.075735092163086 -7.196969509124756
v -3.2931172847747803 18.9456729888916 -7.196969509124756
v -3.5227272510528564 18.899999618530273 -7.196969509124756
v -3.7523372173309326 18.9456729888916 -7.196969509124756
v -3.946991443634033 19.075735092163086 -7.196969509124756
v -4.077054977416992 19.270389556884766 -7.196969509124756
v -4.122727394104004 19.5 -7.196969509124756
v -4.077054977416992 19.729610443115234 -7.196969509124756
v -3.946991443634033 19.924264907836914 -7.196969509124756
v -3.7523372173309326 20.0543270111084 -7.196969509124756
v -3.5227272510528564 20.100000381469727 -7.196969509124756
v -3.5227272510528564 19.5 7.196969509124756
v -3.5227272510528564 19.5 7.196969509124756
v -3.5227272510528564 19.5 7.196969509124756
v -3.5227272510528564 19.5 7.196969509124756
v -3.5227272510528564 19.5 7.196969509124756
v -3.5227272510528564 19.5 7.196969509124756
v -3.5227272510528564 19.5 7.196969509124756
v -3.5227272510528564 19.5 7.196969509124756
v -3.5227272510528564 19.5 7.196969509124756
v -3.5227272510528564 19.5 7.196969509124756
v -3.5227272510528564 19.5 7.196969509124756
v -3.5227272510528564 19.5 7.196969509124756
v -3.5227272510528564 19.5 7.196969509124756
v -3.5227272510528564 19.5 7.196969509124756
v -3.5227272510528564 19.5 7.196969509124756
v -3.5227272510528564 19.5 7.196969509124756
v -3.5227272510528564 20.100000381469727 7.196969509124756
v -3.2931172847747803 20.0543270111084 7.196969509124756
v -3.098463296890259 19.924264907836914 7.196969509124756
v -2.9683995246887207 19.729610443115234 7.196969509124756
v -2.922727346420288 19.5 7.196969509124756
v -2.9683995246887207 19.270389556884766 7.196969509124756
v -3.098463296890259 19.075735092163086 7.196969509124756
v -3.2931172847747803 18.9456729888916 7.196969509124756
v -3.5227272510528564 18.899999618530273 7.196969509124756
v -3.7523372173309326 18.9456729888916 7.196969509124756
v -3.946991443634033 19.075735092163086 7.196969509124756
v -4.077054977416992 19.270389556884766 7.196969509124756
v -4.122727394104004 19.5 7.196969509124756
v -4.077054977416992 19.729610443115234 7.196969509124756
v -3.946991443634033 19.924264907836914 7.196969509124756
v -3.7523372173309326 20.0543270111084 7.196969509124756
v -3.5227272510528564 20.100000381469727 7.196969509124756
vn 0 1 2.220446049250313e-16
vn 0.3826834261417389 0.9238795042037964 2.0514245950926577e-16
vn 0.7071067690849304 0.7071067690849304 1.5700924318127872e-16
vn 0.9238795042037964 0.3826834261417389 8.497279016899981e-17
vn 1 6.123234262925839e-17 1.3596311327747833e-32
vn 0.9238795042037964 -0.3826834261417389 -8.497279016899981e-17
vn 0.7071067690849304 -0.7071067690849304 -1.5700924318127872e-16
vn 0.3826834261417389 -0.9238795042037964 -2.0514245950926577e-16
vn 1.2246468525851679e-16 -1 -2.220446049250313e-16
vn -0.3826834261417389 -0.9238795042037964 -2.0514245950926577e-16
vn -0.7071067690849304 -0.7071067690849304 -1.5700924318127872e-16
vn -0.9238795042037964 -0.3826834261417389 -8.497279016899981e-17
vn -1 -1.8369701465288538e-16 -4.078893104450762e-32
vn -0.9238795042037964 0.3826834261417389 8.497279016899981e-17
vn -0.7071067690849304 0.7071067690849304 1.5700924318127872e-16
vn -0.3826834261417389 0.9238795042037964 2.0514245950926577e-16
vn -2.4492937051703357e-16 1 2.220446049250313e-16
vn 0 1 2.220446049250313e-16
vn 0.3826834261417389 0.9238795042037964 2.0514245950926577e-16
vn 0.7071067690849304 0.7071067690849304 1.5700924318127872e-16
vn 0.9238795042037964 0.3826834261417389 8.497279016899981e-17
vn 1 6.123234262925839e-17 1.3596311327747833e-32
vn 0.9238795042037964 -0.3826834261417389 -8.497279016899981e-17
vn 0.7071067690849304 -0.7071067690849304 -1.5700924318127872e-16
vn 0.3826834261417389 -0.9238795042037964 -2.0514245950926577e-16
vn 1.2246468525851679e-16 -1 -2.220446049250313e-16
vn -0.3826834261417389 -0.9238795042037964 -2.0514245950926577e-16
vn -0.7071067690849304 -0.7071067690849304 -1.5700924318127872e-16
vn -0.9238795042037964 -0.3826834261417389 -8.497279016899981e-17
vn -1 -1.8369701465288538e-16 -4.078893104450762e-32
vn -0.9238795042037964 0.3826834261417389 8.497279016899981e-17
vn -0.7071067690849304 0.7071067690849304 1.5700924318127872e-16
vn -0.3826834261417389 0.9238795042037964 2.0514245950926577e-16
vn -2.4492937051703357e-16 1 2.220446049250313e-16
vn 0 2.220446049250313e-16 -1
vn 0 2.220446049250313e-16 -1
vn 0 2.220446049250313e-16 -1
vn 0 2.220446049250313e-16 -1
vn 0 2.220446049250313e-16 -1
vn 0 2.220446049250313e-16 -1
vn 0 2.220446049250313e-16 -1
vn 0 2.220446049250313e-16 -1
vn 0 2.220446049250313e-16 -1
vn 0 2.220446049250313e-16 -1
vn 0 2.220446049250313e-16 -1
vn 0 2.220446049250313e-16 -1
vn 0 2.220446049250313e-16 -1
vn 0 2.220446049250313e-16 -1
vn 0 2.220446049250313e-16 -1
vn 0 2.220446049250313e-16 -1
vn 0 2.220446049250313e-16 -1
vn 0 2.220446049250313e-16 -1
vn 0 2.220446049250313e-16 -1
vn 0 2.220446049250313e-16 -1
vn 0 2.220446049250313e-16 -1
vn 0 2.220446049250313e-16 -1
vn 0 2.220446049250313e-16 -1
vn 0 2.220446049250313e-16 -1
vn 0 2.220446049250313e-16 -1
vn 0 2.220446049250313e-16 -1
vn 0 2.220446049250313e-16 -1
vn 0 2.220446049250313e-16 -1
vn 0 2.220446049250313e-16 -1
vn 0 2.220446049250313e-16 -1
vn 0 2.220446049250313e-16 -1
vn 0 2.220446049250313e-16 -1
vn 0 2.220446049250313e-16 -1
vn 0 -2.220446049250313e-16 1
vn 0 -2.220446049250313e-16 1
vn 0 -2.220446049250313e-16 1
vn 0 -2.220446049250313e-16 1
vn 0 -2.220446049250313e-16 1
vn 0 -2.220446049250313e-16 1
vn 0 -2.220446049250313e-16 1
vn 0 -2.220446049250313e-16 1
vn 0 -2.220446049250313e-16 1
vn 0 -2.220446049250313e-16 1
vn 0 -2.220446049250313e-16 1
vn 0 -2.220446049250313e-16 1
vn 0 -2.220446049250313e-16 1
vn 0 -2.220446049250313e-16 1
vn 0 -2.220446049250313e-16 1
vn 0 -2.220446049250313e-16 1
vn 0 -2.220446049250313e-16 1
vn 0 -2.220446049250313e-16 1
vn 0 -2.220446049250313e-16 1
vn 0 -2.220446049250313e-16 1
vn 0 -2.220446049250313e-16 1
vn 0 -2.220446049250313e-16 1
vn 0 -2.220446049250313e-16 1
vn 0 -2.220446049250313e-16 1
vn 0 -2.220446049250313e-16 1
vn 0 -2.220446049250313e-16 1
vn 0 -2.220446049250313e-16 1
vn 0 -2.220446049250313e-16 1
vn 0 -2.220446049250313e-16 1
vn 0 -2.220446049250313e-16 1
vn 0 -2.220446049250313e-16 1
vn 0 -2.220446049250313e-16 1
vn 0 -2.220446049250313e-16 1
f 249//249 266//266 250//250
f 266//266 267//267 250//250
f 250//250 267//267 251//251
f 267//267 268//268 251//251
f 251//251 268//268 252//252
f 268//268 269//269 252//252
f 252//252 269//269 253//253
f 269//269 270//270 253//253
f 253//253 270//270 254//254
f 270//270 271//271 254//254
f 254//254 271//271 255//255
f 271//271 272//272 255//255
f 255//255 272//272 256//256
f 272//272 273//273 256//256
f 256//256 273//273 257//257
f 273//273 274//274 257//257
f 257//257 274//274 258//258
f 274//274 275//275 258//258
f 258//258 275//275 259//259
f 275//275 276//276 259//259
f 259//259 276//276 260//260
f 276//276 277//277 260//260
f 260//260 277//277 261//261
f 277//277 278//278 261//261
f 261//261 278//278 262//262
f 278//278 279//279 262//262
f 262//262 279//279 263//263
f 279//279 280//280 263//263
f 263//263 280//280 264//264
f 280//280 281//281 264//264
f 264//264 281//281 265//265
f 281//281 282//282 265//265
f 299//299 300//300 283//283
f 300//300 301//301 284//284
f 301//301 302//302 285//285
f 302//302 303//303 286//286
f 303//303 304//304 287//287
f 304//304 305//305 288//288
f 305//305 306//306 289//289
f 306//306 307//307 290//290
f 307//307 308//308 291//291
f 308//308 309//309 292//292
f 309//309 310//310 293//293
f 310//310 311//311 294//294
f 311//311 312//312 295//295
f 312//312 313//313 296//296
f 313//313 314//314 297//297
f 314//314 315//315 298//298
f 333//333 332//332 316//316
f 334//334 333//333 317//317
f 335//335 334//334 318//318
f 336//336 335//335 319//319
f 337//337 336//336 320//320
f 338//338 337//337 321//321
f 339//339 338//338 322//322
f 340//340 339//339 323//323
f 341//341 340//340 324//324
f 342//342 341//341 325//325
f 343//343 342//342 326//326
f 344//344 343//343 327//327
f 345//345 344//344 328//328
f 346//346 345//345 329//329
f 347//347 346//346 330//330
f 348//348 347//347 331//331
v 3.5227272510528564 20.100000381469727 -7.196969509124756
v 3.7523372173309326 20.0543270111084 -7.196969509124756
v 3.946991443634033 19.924264907836914 -7.196969509124756
v 4.077054977416992 19.729610443115234 -7.196969509124756
v 4.122727394104004 19.5 -7.196969509124756
v 4.077054977416992 19.270389556884766 -7.196969509124756
v 3.946991443634033 19.075735092163086 -7.196969509124756
v 3.7523372173309326 18.9456729888916 -7.196969509124756
v 3.5227272510528564 18.899999618530273 -7.196969509124756
v 3.2931172847747803 18.9456729888916 -7.196969509124756
v 3.098463296890259 19.075735092163086 -7.196969509124756
v 2.9683995246887207 19.270389556884766 -7.196969509124756
v 2.922727346420288 19.5 -7.196969509124756
v 2.9683995246887207 19.729610443115234 -7.196969509124756
v 3.098463296890259 19.924264907836914 -7.196969509124756
v 3.2931172847747803 20.0543270111084 -7.196969509124756
v 3.5227272510528564 20.100000381469727 -7.196969509124756
v 3.5227272510528564 20.100000381469727 7.196969509124756
v 3.7523372173309326 20.0543270111084 7.196969509124756
v 3.946991443634033 19.924264907836914 7.196969509124756
v 4.077054977416992 19.729610443115234 7.196969509124756
v 4.122727394104004 19.5 7.196969509124756
v 4.077054977416992 19.270389556884766 7.196969509124756
v 3.946991443634033 19.075735092163086 7.196969509124756
v 3.7523372173309326 18.9456729888916 7.196969509124756
v 3.5227272510528564 18.899999618530273 7.196969509124756
v 3.2931172847747803 18.9456729888916 7.196969509124756
v 3.098463296890259 19.075735092163086 7.196969509124756
v 2.9683995246887207 19.270389556884766 7.196969509124756
v 2.922727346420288 19.5 7.196969509124756
v 2.9683995246887207 19.729610443115234 7.196969509124756
v 3.098463296890259 19.924264907836914 7.196969509124756
v 3.2931172847747803 20.0543270111084 7.196969509124756
v 3.5227272510528564 20.100000381469727 7.196969509124756
v 3.5227272510528564 19.5 -7.196969509124756
v 3.5227272510528564 19.5 -7.196969509124756
v 3.5227272510528564 19.5 -7.196969509124756
v 3.5227272510528564 19.5 -7.196969509124756
v 3.5227272510528564 19.5 -7.196969509124756
v 3.5227272510528564 19.5 -7.196969509124756
v 3.5227272510528564 19.5 -7.196969509124756
v 3.5227272510528564 19.5 -7.196969509124756
v 3.5227272510528564 19.5 -7.196969509124756
v 3.5227272510528564 19.5 -7.196969509124756
v 3.5227272510528564 19.5 -7.196969509124756
v 3.5227272510528564 19.5 -7.196969509124756
v 3.5227272510528564 19.5 -7.196969509124756
v 3.5227272510528564 19.5 -7.196969509124756
v 3.5227272510528564 19.5 -7.196969509124756
v 3.5227272510528564 19.5 -7.196969509124756
v 3.5227272510528564 20.100000381469727 -7.196969509124756
v 3.7523372173309326 20.0543270111084 -7.196969509124756
v 3.946991443634033 19.924264907836914 -7.196969509124756
v 4.077054977416992 19.729610443115234 -7.196969509124756
v 4.122727394104004 19.5 -7.196969509124756
v 4.077054977416992 19.270389556884766 -7.196969509124756
v 3.946991443634033 19.075735092163086 -7.196969509124756
v 3.7523372173309326 18.9456729888916 -7.196969509124756
v 3.5227272510528564 18.899999618530273 -7.196969509124756
v 3.2931172847747803 18.9456729888916 -7.196969509124756
v 3.098463296890259 19.075735092163086 -7.196969509124756
v 2.9683995246887207 19.270389556884766 -7.196969509124756
v 2.922727346420288 19.5 -7.196969509124756
v 2.9683995246887207 19.729610443115234 -7.196969509124756
v 3.098463296890259 19.924264907836914 -7.196969509124756
v 3.2931172847747803 20.0543270111084 -7.196969509124756
v 3.5227272510528564 20.100000381469727 -7.196969509124756
v 3.5227272510528564 19.5 7.196969509124756
v 3.5227272510528564 19.5 7.196969509124756
v 3.5227272510528564 19.5 7.196969509124756
v 3.5227272510528564 19.5 7.196969509124756
v 3.5227272510528564 19.5 7.196969509124756
v 3.5227272510528564 19.5 7.196969509124756
v 3.5227272510528564 19.5 7.196969509124756
v 3.5227272510528564 19.5 7.196969509124756
v 3.5227272510528564 19.5 7.196969509124756
v 3.5227272510528564 19.5 7.196969509124756
v 3.5227272510528564 19.5 7.196969509124756
v 3.5227272510528564 19.5 7.196969509124756
v 3.5227272510528564 19.5 7.196969509124756
v 3.5227272510528564 19.5 7.196969509124756
v 3.5227272510528564 19.5 7.196969509124756
v 3.5227272510528564 19.5 7.196969509124756
v 3.5227272510528564 20.100000381469727 7.196969509124756
v 3.7523372173309326 20.0543270111084 7.196969509124756
v 3.946991443634033 19.924264907836914 7.196969509124756
v 4.077054977416992 19.729610443115234 7.196969509124756
v 4.122727394104004 19.5 7.196969509124756
v 4.077054977416992 19.270389556884766 7.196969509124756
v 3.946991443634033 19.075735092163086 7.196969509124756
v 3.7523372173309326 18.9456729888916 7.196969509124756
v 3.5227272510528564 18.899999618530273 7.196969509124756
v 3.2931172847747803 18.9456729888916 7.196969509124756
v 3.098463296890259 19.075735092163086 7.196969509124756
v 2.9683995246887207 19.270389556884766 7.196969509124756
v 2.922727346420288 19.5 7.196969509124756
v 2.9683995246887207 19.729610443115234 7.196969509124756
v 3.098463296890259 19.924264907836914 7.196969509124756
v 3.2931172847747803 20.0543270111084 7.196969509124756
v 3.5227272510528564 20.100000381469727 7.196969509124756
vn 0 1 2.220446049250313e-16
vn 0.3826834261417389 0.9238795042037964 2.0514245950926577e-16
vn 0.7071067690849304 0.7071067690849304 1.5700924318127872e-16
vn 0.9238795042037964 0.3826834261417389 8.497279016899981e-17
vn 1 6.123234262925839e-17 1.3596311327747833e-32
vn 0.9238795042037964 -0.3826834261417389 -8.497279016899981e-17
vn 0.7071067690849304 -0.7071067690849304 -1.5700924318127872e-16
vn 0.3826834261417389 -0.9238795042037964 -2.0514245950926577e-16
vn 1.2246468525851679e-16 -1 -2.220446049250313e-16
vn -0.3826834261417389 -0.9238795042037964 -2.0514245950926577e-16
vn -0.7071067690849304 -0.7071067690849304 -1.5700924318127872e-16
vn -0.9238795042037964 -0.3826834261417389 -8.497279016899981e-17
vn -1 -1.8369701465288538e-16 -4.078893104450762e-32
vn -0.9238795042037964 0.3826834261417389 8.497279016899981e-17
vn -0.7071067690849304 0.7071067690849304 1.5700924318127872e-16
vn -0.3826834261417389 0.9238795042037964 2.0514245950926577e-16
vn -2.4492937051703357e-16 1 2.220446049250313e-16
vn 0 1 2.220446049250313e-16
vn 0.3826834261417389 0.9238795042037964 2.0514245950926577e-16
vn 0.7071067690849304 0.7071067690849304 1.5700924318127872e-16
vn 0.9238795042037964 0.3826834261417389 8.497279016899981e-17
vn 1 6.123234262925839e-17 1.3596311327747833e-32
vn 0.9238795042037964 -0.3826834261417389 -8.497279016899981e-17
vn 0.7071067690849304 -0.7071067690849304 -1.5700924318127872e-16
vn 0.3826834261417389 -0.9238795042037964 -2.0514245950926577e-16
vn 1.2246468525851679e-16 -1 -2.220446049250313e-16
vn -0.3826834261417389 -0.9238795042037964 -2.0514245950926577e-16
vn -0.7071067690849304 -0.7071067690849304 -1.5700924318127872e-16
vn -0.9238795042037964 -0.3826834261417389 -8.497279016899981e-17
vn -1 -1.8369701465288538e-16 -4.078893104450762e-32
vn -0.9238795042037964 0.3826834261417389 8.497279016899981e-17
vn -0.7071067690849304 0.7071067690849304 1.5700924318127872e-16
vn -0.3826834261417389 0.9238795042037964 2.0514245950926577e-16
vn -2.4492937051703357e-16 1 2.220446049250313e-16
vn 0 2.220446049250313e-16 -1
vn 0 2.220446049250313e-16 -1
vn 0 2.220446049250313e-16 -1
vn 0 2.220446049250313e-16 -1
vn 0 2.220446049250313e-16 -1
vn 0 2.220446049250313e-16 -1
vn 0 2.220446049250313e-16 -1
vn 0 2.220446049250313e-16 -1
vn 0 2.220446049250313e-16 -1
vn 0 2.220446049250313e-16 -1
vn 0 2.220446049250313e-16 -1
vn 0 2.220446049250313e-16 -1
vn 0 2.220446049250313e-16 -1
vn 0 2.220446049250313e-16 -1
vn 0 2.220446049250313e-16 -1
vn 0 2.220446049250313e-16 -1
vn 0 2.220446049250313e-16 -1
vn 0 2.220446049250313e-16 -1
vn 0 2.220446049250313e-16 -1
vn 0 2.220446049250313e-16 -1
vn 0 2.220446049250313e-16 -1
vn 0 2.220446049250313e-16 -1
vn 0 2.220446049250313e-16 -1
vn 0 2.220446049250313e-16 -1
vn 0 2.220446049250313e-16 -1
vn 0 2.220446049250313e-16 -1
vn 0 2.220446049250313e-16 -1
vn 0 2.220446049250313e-16 -1
vn 0 2.220446049250313e-16 -1
vn 0 2.220446049250313e-16 -1
vn 0 2.220446049250313e-16 -1
vn 0 2.220446049250313e-16 -1
vn 0 2.220446049250313e-16 -1
vn 0 -2.220446049250313e-16 1
vn 0 -2.220446049250313e-16 1
vn 0 -2.220446049250313e-16 1
vn 0 -2.220446049250313e-16 1
vn 0 -2.220446049250313e-16 1
vn 0 -2.220446049250313e-16 1
vn 0 -2.220446049250313e-16 1
vn 0 -2.220446049250313e-16 1
vn 0 -2.220446049250313e-16 1
vn 0 -2.220446049250313e-16 1
vn 0 -2.220446049250313e-16 1
vn 0 -2.220446049250313e-16 1
vn 0 -2.220446049250313e-16 1
vn 0 -2.220446049250313e-16 1
vn 0 -2.220446049250313e-16 1
vn 0 -2.220446049250313e-16 1
vn 0 -2.220446049250313e-16 1
vn 0 -2.220446049250313e-16 1
vn 0 -2.220446049250313e-16 1
vn 0 -2.220446049250313e-16 1
vn 0 -2.220446049250313e-16 1
vn 0 -2.220446049250313e-16 1
vn 0 -2.220446049250313e-16 1
vn 0 -2.220446049250313e-16 1
vn 0 -2.220446049250313e-16 1
vn 0 -2.220446049250313e-16 1
vn 0 -2.220446049250313e-16 1
vn 0 -2.220446049250313e-16 1
vn 0 -2.220446049250313e-16 1
vn 0 -2.220446049250313e-16 1
vn 0 -2.220446049250313e-16 1
vn 0 -2.220446049250313e-16 1
vn 0 -2.220446049250313e-16 1
f 349//349 366//366 350//350
f 366//366 367//367 350//350
f 350//350 367//367 351//351
f 367//367 368//368 351//351
f 351//351 368//368 352//352
f 368//368 369//369 352//352
f 352//352 369//369 353//353
f 369//369 370//370 353//353
f 353//353 370//370 354//354
f 370//370 371//371 354//354
f 354//354 371//371 355//355
f 371//371 372//372 355//355
f 355//355 372//372 356//356
f 372//372 373//373 356//356
f 356//356 373//373 357//357
f 373//373 374//374 357//357
f 357//357 374//374 358//358
f 374//374 375//375 358//358
f 358//358 375//375 359//359
f 375//375 376//376 359//359
f 359//359 376//376 360//360
f 376//376 377//377 360//360
f 360//360 377//377 361//361
f 377//377 378//378 361//361
f 361//361 378//378 362//362
f 378//378 379//379 362//362
f 362//362 379//379 363//363
f 379//379 380//380 363//363
f 363//363 380//380 364//364
f 380//380 381//381 364//364
f 364//364 381//381 365//365
f 381//381 382//382 365//365
f 399//399 400//400 383//383
f 400//400 401//401 384//384
f 401//401 402//402 385//385
f 402//402 403//403 386//386
f 403//403 404//404 387//387
f 404//404 405//405 388//388
f 405//405 406//406 389//389
f 406//406 407//407 390//390
f 407//407 408//408 391//391
f 408//408 409//409 392//392
f 409//409 410//410 393//393
f 410//410 411//411 394//394
f 411//411 412//412 395//395
f 412//412 413//413 396//396
f 413//413 414//414 397//397
f 414//414 415//415 398//398
f 433//433 432//432 416//416
f 434//434 433//433 417//417
f 435//435 434//434 418//418
f 436//436 435//435 419//419
f 437//437 436//436 420//420
f 438//438 437//437 421//421
f 439//439 438//438 422//422
f 440//440 439//439 423//423
f 441//441 440//440 424//424
f 442//442 441//441 425//425
f 443//443 442//442 426//426
f 444//444 443//443 427//427
f 445//445 444//444 428//428
f 446//446 445//445 429//429
f 447//447 446//446 430//430
f 448//448 447//447 431//431
v -0.024898644536733627 34.77329635620117 -1.7331981658935547
v 0.275997132062912 34.725486755371094 -1.8010958433151245
v 0.5348749160766602 34.71946716308594 -1.9753952026367188
v 0.7123227715492249 34.75615692138672 -2.2295610904693604
v 0.7813260555267334 34.82997131347656 -2.5248985290527344
v 0.731379508972168 34.92967224121094 -2.8164455890655518
v 0.5700870752334595 35.040077209472656 -3.059816598892212
v 0.3220040798187256 35.14438247680664 -3.2179605960845947
v 0.02489890344440937 35.226707458496094 -3.266801357269287
v -0.2759968936443329 35.27451705932617 -3.198903799057007
v -0.534874677658081 35.28053283691406 -3.024604320526123
v -0.7123225331306458 35.24384307861328 -2.7704386711120605
v -0.7813258171081543 35.17002868652344 -2.4751009941101074
v -0.7313792109489441 35.07033157348633 -2.183554172515869
v -0.5700868368148804 34.959922790527344 -1.9401830434799194
v -0.3220038115978241 34.855621337890625 -1.7820391654968262
v -0.024898644536733627 34.77329635620117 -1.7331981658935547
v -7.524899005889893 1.7732940912246704 -11.733198165893555
v -7.224003314971924 1.725483775138855 -11.801095962524414
v -6.965125560760498 1.7194658517837524 -11.975395202636719
v -6.78767728805542 1.7561568021774292 -12.229561805725098
v -6.718674182891846 1.8299704790115356 -12.524898529052734
v -6.76862096786499 1.9296694993972778 -12.816446304321289
v -6.92991304397583 2.0400755405426025 -13.05981731414795
v -7.1779961585998535 2.144380569458008 -13.217961311340332
v -7.475101470947266 2.2267048358917236 -13.266801834106445
v -7.775997161865234 2.274515151977539 -13.198904037475586
v -8.03487491607666 2.2805330753326416 -13.024604797363281
v -8.212323188781738 2.243842124938965 -12.770439147949219
v -8.281326293945312 2.1700284481048584 -12.475101470947266
v -8.231379508972168 2.070329427719116 -12.183554649353027
v -8.070087432861328 1.959923267364502 -11.940183639526367
v -7.8220038414001465 1.8556183576583862 -11.782039642333984
v -7.524899005889893 1.7732940912246704 -11.733198165893555
v 1.295515943411374e-7 35 -2.499999761581421
v 1.295515943411374e-7 35 -2.499999761581421
v 1.295515943411374e-7 35 -2.499999761581421
v 1.295515943411374e-7 35 -2.499999761581421
v 1.295515943411374e-7 35 -2.499999761581421
v 1.295515943411374e-7 35 -2.499999761581421
v 1.295515943411374e-7 35 -2.499999761581421
v 1.295515943411374e-7 35 -2.499999761581421
v 1.295515943411374e-7 35 -2.499999761581421
v 1.295515943411374e-7 35 -2.499999761581421
v 1.295515943411374e-7 35 -2.499999761581421
v 1.295515943411374e-7 35 -2.499999761581421
v 1.295515943411374e-7 35 -2.499999761581421
v 1.295515943411374e-7 35 -2.499999761581421
v 1.295515943411374e-7 35 -2.499999761581421
v 1.295515943411374e-7 35 -2.499999761581421
v -0.024898644536733627 34.77329635620117 -1.7331981658935547
v 0.275997132062912 34.725486755371094 -1.8010958433151245
v 0.5348749160766602 34.71946716308594 -1.9753952026367188
v 0.7123227715492249 34.75615692138672 -2.2295610904693604
v 0.7813260555267334 34.82997131347656 -2.5248985290527344
v 0.731379508972168 34.92967224121094 -2.8164455890655518
v 0.5700870752334595 35.040077209472656 -3.059816598892212
v 0.3220040798187256 35.14438247680664 -3.2179605960845947
v 0.02489890344440937 35.226707458496094 -3.266801357269287
v -0.2759968936443329 35.27451705932617 -3.198903799057007
v -0.534874677658081 35.28053283691406 -3.024604320526123
v -0.7123225331306458 35.24384307861328 -2.7704386711120605
v -0.7813258171081543 35.17002868652344 -2.4751009941101074
v -0.7313792109489441 35.07033157348633 -2.183554172515869
v -0.5700868368148804 34.959922790527344 -1.9401830434799194
v -0.3220038115978241 34.855621337890625 -1.7820391654968262
v -0.024898644536733627 34.77329635620117 -1.7331981658935547
v -7.5 1.9999994039535522 -12.5
v -7.5 1.9999994039535522 -12.5
v -7.5 1.9999994039535522 -12.5
v -7.5 1.9999994039535522 -12.5
v -7.5 1.9999994039535522 -12.5
v -7.5 1.9999994039535522 -12.5
v -7.5 1.9999994039535522 -12.5
v -7.5 1.9999994039535522 -12.5
v -7.5 1.9999994039535522 -12.5
v -7.5 1.9999994039535522 -12.5
v -7.5 1.9999994039535522 -12.5
v -7.5 1.9999994039535522 -12.5
v -7.5 1.9999994039535522 -12.5
v -7.5 1.9999994039535522 -12.5
v -7.5 1.9999994039535522 -12.5
v -7.5 1.9999994039535522 -12.5
v -7.524899005889893 1.7732940912246704 -11.733198165893555
v -7.224003314971924 1.725483775138855 -11.801095962524414
v -6.965125560760498 1.7194658517837524 -11.975395202636719
v -6.78767728805542 1.7561568021774292 -12.229561805725098
v -6.718674182891846 1.8299704790115356 -12.524898529052734
v -6.76862096786499 1.9296694993972778 -12.816446304321289
v -6.92991304397583 2.0400755405426025 -13.05981731414795
v -7.1779961585998535 2.144380569458008 -13.217961311340332
v -7.475101470947266 2.2267048358917236 -13.266801834106445
v -7.775997161865234 2.274515151977539 -13.198904037475586
v -8.03487491607666 2.2805330753326416 -13.024604797363281
v -8.212323188781738 2.243842124938965 -12.770439147949219
v -8.281326293945312 2.1700284481048584 -12.475101470947266
v -8.231379508972168 2.070329427719116 -12.183554649353027
v -8.070087432861328 1.959923267364502 -11.940183639526367
v -7.8220038414001465 1.8556183576583862 -11.782039642333984
v -7.524899005889893 1.7732940912246704 -11.733198165893555
vn -0.031123466789722443 -0.2833816409111023 0.9585020542144775
vn 0.34499627351760864 -0.34314459562301636 0.8736299872398376
vn 0.6685934662818909 -0.35066691040992737 0.6557556986808777
vn 0.8904033303260803 -0.30480334162712097 0.33804851770401
vn 0.9766573905944824 -0.21253623068332672 -0.031123466789722443
vn 0.9142242074012756 -0.087912417948246 -0.3955571949481964
vn 0.7126086950302124 0.050095271319150925 -0.6997709274291992
vn 0.40250495076179504 0.18047641217708588 -0.897450864315033
vn 0.031123466789722443 0.2833816409111023 -0.9585020542144775
vn -0.34499627351760864 0.34314459562301636 -0.8736299872398376
vn -0.6685934662818909 0.35066691040992737 -0.6557556986808777
vn -0.8904033303260803 0.30480334162712097 -0.33804851770401
vn -0.9766573905944824 0.21253623068332672 0.031123466789722443
vn -0.9142242074012756 0.087912417948246 0.3955571949481964
vn -0.7126086950302124 -0.050095271319150925 0.6997709274291992
vn -0.40250495076179504 -0.18047641217708588 0.897450864315033
vn -0.031123466789722443 -0.2833816409111023 0.9585020542144775
vn -0.031123466789722443 -0.2833816409111023 0.9585020542144775
vn 0.34499627351760864 -0.34314459562301636 0.8736299872398376
vn 0.6685934662818909 -0.35066691040992737 0.6557556986808777
vn 0.8904033303260803 -0.30480334162712097 0.33804851770401
vn 0.9766573905944824 -0.21253623068332672 -0.031123466789722443
vn 0.9142242074012756 -0.087912417948246 -0.3955571949481964
vn 0.7126086950302124 0.050095271319150925 -0.6997709274291992
vn 0.40250495076179504 0.18047641217708588 -0.897450864315033
vn 0.031123466789722443 0.2833816409111023 -0.9585020542144775
vn -0.34499627351760864 0.34314459562301636 -0.8736299872398376
vn -0.6685934662818909 0.35066691040992737 -0.6557556986808777
vn -0.8904033303260803 0.30480334162712097 -0.33804851770401
vn -0.9766573905944824 0.21253623068332672 0.031123466789722443
vn -0.9142242074012756 0.087912417948246 0.3955571949481964
vn -0.7126086950302124 -0.050095271319150925 0.6997709274291992
vn -0.40250495076179504 -0.18047641217708588 0.897450864315033
vn -0.031123466789722443 -0.2833816409111023 0.9585020542144775
vn 0.21253623068332672 0.93515944480896 0.2833816409111023
vn 0.21253623068332672 0.93515944480896 0.2833816409111023
vn 0.21253623068332672 0.93515944480896 0.2833816409111023
vn 0.21253623068332672 0.93515944480896 0.2833816409111023
vn 0.21253623068332672 0.93515944480896 0.2833816409111023
vn 0.21253623068332672 0.93515944480896 0.2833816409111023
vn 0.21253623068332672 0.93515944480896 0.2833816409111023
vn 0.21253623068332672 0.93515944480896 0.2833816409111023
vn 0.21253623068332672 0.93515944480896 0.2833816409111023
vn 0.21253623068332672 0.93515944480896 0.2833816409111023
vn 0.21253623068332672 0.93515944480896 0.2833816409111023
vn 0.21253623068332672 0.93515944480896 0.2833816409111023
vn 0.21253623068332672 0.93515944480896 0.2833816409111023
vn 0.21253623068332672 0.93515944480896 0.2833816409111023
vn 0.21253623068332672 0.93515944480896 0.2833816409111023
vn 0.21253623068332672 0.93515944480896 0.2833816409111023
vn 0.21253623068332672 0.93515944480896 0.2833816409111023
vn 0.21253623068332672 0.93515944480896 0.2833816409111023
vn 0.21253623068332672 0.93515944480896 0.2833816409111023
vn 0.21253623068332672 0.93515944480896 0.2833816409111023
vn 0.21253623068332672 0.93515944480896 0.2833816409111023
vn 0.21253623068332672 0.93515944480896 0.2833816409111023
vn 0.21253623068332672 0.93515944480896 0.2833816409111023
vn 0.21253623068332672 0.93515944480896 0.2833816409111023
vn 0.21253623068332672 0.93515944480896 0.2833816409111023
vn 0.21253623068332672 0.93515944480896 0.2833816409111023
vn 0.21253623068332672 0.93515944480896 0.2833816409111023
vn 0.21253623068332672 0.93515944480896 0.2833816409111023
vn 0.21253623068332672 0.93515944480896 0.2833816409111023
vn 0.21253623068332672 0.93515944480896 0.2833816409111023
vn 0.21253623068332672 0.93515944480896 0.2833816409111023
vn 0.21253623068332672 0.93515944480896 0.2833816409111023
vn 0.21253623068332672 0.93515944480896 0.2833816409111023
vn -0.21253623068332672 -0.93515944480896 -0.2833816409111023
vn -0.21253623068332672 -0.93515944480896 -0.2833816409111023
vn -0.21253623068332672 -0.93515944480896 -0.2833816409111023
vn -0.21253623068332672 -0.93515944480896 -0.2833816409111023
vn -0.21253623068332672 -0.93515944480896 -0.2833816409111023
vn -0.21253623068332672 -0.93515944480896 -0.2833816409111023
vn -0.21253623068332672 -0.93515944480896 -0.2833816409111023
vn -0.21253623068332672 -0.93515944480896 -0.2833816409111023
vn -0.21253623068332672 -0.93515944480896 -0.2833816409111023
vn -0.21253623068332672 -0.93515944480896 -0.2833816409111023
vn -0.21253623068332672 -0.93515944480896 -0.2833816409111023
vn -0.21253623068332672 -0.93515944480896 -0.2833816409111023
vn -0.21253623068332672 -0.93515944480896 -0.2833816409111023
vn -0.21253623068332672 -0.93515944480896 -0.2833816409111023
vn -0.21253623068332672 -0.93515944480896 -0.2833816409111023
vn -0.21253623068332672 -0.93515944480896 -0.2833816409111023
vn -0.21253623068332672 -0.93515944480896 -0.2833816409111023
vn -0.21253623068332672 -0.93515944480896 -0.2833816409111023
vn -0.21253623068332672 -0.93515944480896 -0.2833816409111023
vn -0.21253623068332672 -0.93515944480896 -0.2833816409111023
vn -0.21253623068332672 -0.93515944480896 -0.2833816409111023
vn -0.21253623068332672 -0.93515944480896 -0.2833816409111023
vn -0.21253623068332672 -0.93515944480896 -0.2833816409111023
vn -0.21253623068332672 -0.93515944480896 -0.2833816409111023
vn -0.21253623068332672 -0.93515944480896 -0.2833816409111023
vn -0.21253623068332672 -0.93515944480896 -0.2833816409111023
vn -0.21253623068332672 -0.93515944480896 -0.2833816409111023
vn -0.21253623068332672 -0.93515944480896 -0.2833816409111023
vn -0.21253623068332672 -0.93515944480896 -0.2833816409111023
vn -0.21253623068332672 -0.93515944480896 -0.2833816409111023
vn -0.21253623068332672 -0.93515944480896 -0.2833816409111023
vn -0.21253623068332672 -0.93515944480896 -0.2833816409111023
vn -0.21253623068332672 -0.93515944480896 -0.2833816409111023
f 449//449 466//466 450//450
f 466//466 467//467 450//450
f 450//450 467//467 451//451
f 467//467 468//468 451//451
f 451//451 468//468 452//452
f 468//468 469//469 452//452
f 452//452 469//469 453//453
f 469//469 470//470 453//453
f 453//453 470//470 454//454
f 470//470 471//471 454//454
f 454//454 471//471 455//455
f 471//471 472//472 455//455
f 455//455 472//472 456//456
f 472//472 473//473 456//456
f 456//456 473//473 457//457
f 473//473 474//474 457//457
f 457//457 474//474 458//458
f 474//474 475//475 458//458
f 458//458 475//475 459//459
f 475//475 476//476 459//459
f 459//459 476//476 460//460
f 476//476 477//477 460//460
f 460//460 477//477 461//461
f 477//477 478//478 461//461
f 461//461 478//478 462//462
f 478//478 479//479 462//462
f 462//462 479//479 463//463
f 479//479 480//480 463//463
f 463//463 480//480 464//464
f 480//480 481//481 464//464
f 464//464 481//481 465//465
f 481//481 482//482 465//465
f 499//499 500//500 483//483
f 500//500 501//501 484//484
f 501//501 502//502 485//485
f 502//502 503//503 486//486
f 503//503 504//504 487//487
f 504//504 505//505 488//488
f 505//505 506//506 489//489
f 506//506 507//507 490//490
f 507//507 508//508 491//491
f 508//508 509//509 492//492
f 509//509 510//510 493//493
f 510//510 511//511 494//494
f 511//511 512//512 495//495
f 512//512 513//513 496//496
f 513//513 514//514 497//497
f 514//514 515//515 498//498
f 533//533 532//532 516//516
f 534//534 533//533 517//517
f 535//535 534//534 518//518
f 536//536 535//535 519//519
f 537//537 536//536 520//520
f 538//538 537//537 521//521
f 539//539 538//538 522//522
f 540//540 539//539 523//523
f 541//541 540//540 524//524
f 542//542 541//541 525//525
f 543//543 542//542 526//526
f 544//544 543//543 527//527
f 545//545 544//544 528//528
f 546//546 545//545 529//529
f 547//547 546//546 530//530
f 548//548 547//547 531//531
v 0.024898644536733627 34.77329635620117 -1.7331981658935547
v 0.3220038115978241 34.855621337890625 -1.7820391654968262
v 0.5700868368148804 34.959922790527344 -1.9401830434799194
v 0.7313792109489441 35.07033157348633 -2.183554172515869
v 0.7813258171081543 35.17002868652344 -2.4751009941101074
v 0.7123225331306458 35.24384307861328 -2.7704386711120605
v 0.534874677658081 35.28053283691406 -3.024604320526123
v 0.2759968936443329 35.27451705932617 -3.198903799057007
v -0.02489890344440937 35.226707458496094 -3.266801357269287
v -0.3220040798187256 35.14438247680664 -3.2179605960845947
v -0.5700870752334595 35.040077209472656 -3.059816598892212
v -0.731379508972168 34.92967224121094 -2.8164455890655518
v -0.7813260555267334 34.82997131347656 -2.5248985290527344
v -0.7123227715492249 34.75615692138672 -2.2295610904693604
v -0.5348749160766602 34.71946716308594 -1.9753952026367188
v -0.275997132062912 34.725486755371094 -1.8010958433151245
v 0.024898644536733627 34.77329635620117 -1.7331981658935547
v 7.524899005889893 1.7732940912246704 -11.733198165893555
v 7.8220038414001465 1.8556183576583862 -11.782039642333984
v 8.070087432861328 1.959923267364502 -11.940183639526367
v 8.231379508972168 2.070329427719116 -12.183554649353027
v 8.281326293945312 2.1700284481048584 -12.475101470947266
v 8.212323188781738 2.243842124938965 -12.770439147949219
v 8.03487491607666 2.2805330753326416 -13.024604797363281
v 7.775997161865234 2.274515151977539 -13.198904037475586
v 7.475101470947266 2.2267048358917236 -13.266801834106445
v 7.1779961585998535 2.144380569458008 -13.217961311340332
v 6.92991304397583 2.0400755405426025 -13.05981731414795
v 6.76862096786499 1.9296694993972778 -12.816446304321289
v 6.718674182891846 1.8299704790115356 -12.524898529052734
v 6.78767728805542 1.7561568021774292 -12.229561805725098
v 6.965125560760498 1.7194658517837524 -11.975395202636719
v 7.224003314971924 1.725483775138855 -11.801095962524414
v 7.524899005889893 1.7732940912246704 -11.733198165893555
v -1.295515943411374e-7 35 -2.499999761581421
v -1.295515943411374e-7 35 -2.499999761581421
v -1.295515943411374e-7 35 -2.499999761581421
v -1.295515943411374e-7 35 -2.499999761581421
v -1.295515943411374e-7 35 -2.499999761581421
v -1.295515943411374e-7 35 -2.499999761581421
v -1.295515943411374e-7 35 -2.499999761581421
v -1.295515943411374e-7 35 -2.499999761581421
v -1.295515943411374e-7 35 -2.499999761581421
v -1.295515943411374e-7 35 -2.499999761581421
v -1.295515943411374e-7 35 -2.499999761581421
v -1.295515943411374e-7 35 -2.499999761581421
v -1.295515943411374e-7 35 -2.499999761581421
v -1.295515943411374e-7 35 -2.499999761581421
v -1.295515943411374e-7 35 -2.499999761581421
v -1.295515943411374e-7 35 -2.499999761581421
v 0.024898644536733627 34.77329635620117 -1.7331981658935547
v 0.3220038115978241 34.855621337890625 -1.7820391654968262
v 0.5700868368148804 34.959922790527344 -1.9401830434799194
v 0.7313792109489441 35.07033157348633 -2.183554172515869
v 0.7813258171081543 35.17002868652344 -2.4751009941101074
v 0.7123225331306458 35.24384307861328 -2.7704386711120605
v 0.534874677658081 35.28053283691406 -3.024604320526123
v 0.2759968936443329 35.27451705932617 -3.198903799057007
v -0.02489890344440937 35.226707458496094 -3.266801357269287
v -0.3220040798187256 35.14438247680664 -3.2179605960845947
v -0.5700870752334595 35.040077209472656 -3.059816598892212
v -0.731379508972168 34.92967224121094 -2.8164455890655518
v -0.7813260555267334 34.82997131347656 -2.5248985290527344
v -0.7123227715492249 34.75615692138672 -2.2295610904693604
v -0.5348749160766602 34.71946716308594 -1.9753952026367188
v -0.275997132062912 34.725486755371094 -1.8010958433151245
v 0.024898644536733627 34.77329635620117 -1.7331981658935547
v 7.5 1.9999994039535522 -12.5
v 7.5 1.9999994039535522 -12.5
v 7.5 1.9999994039535522 -12.5
v 7.5 1.9999994039535522 -12.5
v 7.5 1.9999994039535522 -12.5
v 7.5 1.9999994039535522 -12.5
v 7.5 1.9999994039535522 -12.5
v 7.5 1.9999994039535522 -12.5
v 7.5 1.9999994039535522 -12.5
v 7.5 1.9999994039535522 -12.5
v 7.5 1.9999994039535522 -12.5
v 7.5 1.9999994039535522 -12.5
v 7.5 1.9999994039535522 -12.5
v 7.5 1.9999994039535522 -12.5
v 7.5 1.9999994039535522 -12.5
v 7.5 1.9999994039535522 -12.5
v 7.524899005889893 1.7732940912246704 -11.733198165893555
v 7.8220038414001465 1.8556183576583862 -11.782039642333984
v 8.070087432861328 1.959923267364502 -11.940183639526367
v 8.231379508972168 2.070329427719116 -12.183554649353027
v 8.281326293945312 2.1700284481048584 -12.475101470947266
v 8.212323188781738 2.243842124938965 -12.770439147949219
v 8.03487491607666 2.2805330753326416 -13.024604797363281
v 7.775997161865234 2.274515151977539 -13.198904037475586
v 7.475101470947266 2.2267048358917236 -13.266801834106445
v 7.1779961585998535 2.144380569458008 -13.217961311340332
v 6.92991304397583 2.0400755405426025 -13.05981731414795
v 6.76862096786499 1.9296694993972778 -12.816446304321289
v 6.718674182891846 1.8299704790115356 -12.524898529052734
v 6.78767728805542 1.7561568021774292 -12.229561805725098
v 6.965125560760498 1.7194658517837524 -11.975395202636719
v 7.224003314971924 1.725483775138855 -11.801095962524414
v 7.524899005889893 1.7732940912246704 -11.733198165893555
vn 0.031123466789722443 -0.2833816409111023 0.9585020542144775
vn 0.40250495076179504 -0.18047641217708588 0.897450864315033
vn 0.7126086950302124 -0.050095271319150925 0.6997709274291992
vn 0.9142242074012756 0.087912417948246 0.3955571949481964
vn 0.9766573905944824 0.21253623068332672 0.031123466789722443
vn 0.8904033303260803 0.30480334162712097 -0.33804851770401
vn 0.6685934662818909 0.35066691040992737 -0.6557556986808777
vn 0.34499627351760864 0.34314459562301636 -0.8736299872398376
vn -0.031123466789722443 0.2833816409111023 -0.9585020542144775
vn -0.40250495076179504 0.18047641217708588 -0.897450864315033
vn -0.7126086950302124 0.050095271319150925 -0.6997709274291992
vn -0.9142242074012756 -0.087912417948246 -0.3955571949481964
vn -0.9766573905944824 -0.21253623068332672 -0.031123466789722443
vn -0.8904033303260803 -0.30480334162712097 0.33804851770401
vn -0.6685934662818909 -0.35066691040992737 0.6557556986808777
vn -0.34499627351760864 -0.34314459562301636 0.8736299872398376
vn 0.031123466789722443 -0.2833816409111023 0.9585020542144775
vn 0.031123466789722443 -0.2833816409111023 0.9585020542144775
vn 0.40250495076179504 -0.18047641217708588 0.897450864315033
vn 0.7126086950302124 -0.050095271319150925 0.6997709274291992
vn 0.9142242074012756 0.087912417948246 0.3955571949481964
vn 0.9766573905944824 0.21253623068332672 0.031123466789722443
vn 0.8904033303260803 0.30480334162712097 -0.33804851770401
vn 0.6685934662818909 0.35066691040992737 -0.6557556986808777
vn 0.34499627351760864 0.34314459562301636 -0.8736299872398376
vn -0.031123466789722443 0.2833816409111023 -0.9585020542144775
vn -0.40250495076179504 0.18047641217708588 -0.897450864315033
vn -0.7126086950302124 0.050095271319150925 -0.6997709274291992
vn -0.9142242074012756 -0.087912417948246 -0.3955571949481964
vn -0.9766573905944824 -0.21253623068332672 -0.031123466789722443
vn -0.8904033303260803 -0.30480334162712097 0.33804851770401
vn -0.6685934662818909 -0.35066691040992737 0.6557556986808777
vn -0.34499627351760864 -0.34314459562301636 0.8736299872398376
vn 0.031123466789722443 -0.2833816409111023 0.9585020542144775
vn -0.21253623068332672 0.93515944480896 0.2833816409111023
vn -0.21253623068332672 0.93515944480896 0.2833816409111023
vn -0.21253623068332672 0.93515944480896 0.2833816409111023
vn -0.21253623068332672 0.93515944480896 0.2833816409111023
vn -0.21253623068332672 0.93515944480896 0.2833816409111023
vn -0.21253623068332672 0.93515944480896 0.2833816409111023
vn -0.21253623068332672 0.93515944480896 0.2833816409111023
vn -0.21253623068332672 0.93515944480896 0.2833816409111023
vn -0.21253623068332672 0.93515944480896 0.2833816409111023
vn -0.21253623068332672 0.93515944480896 0.2833816409111023
vn -0.21253623068332672 0.93515944480896 0.2833816409111023
vn -0.21253623068332672 0.93515944480896 0.2833816409111023
vn -0.21253623068332672 0.93515944480896 0.2833816409111023
vn -0.21253623068332672 0.93515944480896 0.2833816409111023
vn -0.21253623068332672 0.93515944480896 0.2833816409111023
vn -0.21253623068332672 0.93515944480896 0.2833816409111023
vn -0.21253623068332672 0.93515944480896 0.2833816409111023
vn -0.21253623068332672 0.93515944480896 0.2833816409111023
vn -0.21253623068332672 0.93515944480896 0.2833816409111023
vn -0.21253623068332672 0.93515944480896 0.2833816409111023
vn -0.21253623068332672 0.93515944480896 0.2833816409111023
vn -0.21253623068332672 0.93515944480896 0.2833816409111023
vn -0.21253623068332672 0.93515944480896 0.2833816409111023
vn -0.21253623068332672 0.93515944480896 0.2833816409111023
vn -0.21253623068332672 0.93515944480896 0.2833816409111023
vn -0.21253623068332672 0.93515944480896 0.2833816409111023
vn -0.21253623068332672 0.93515944480896 0.2833816409111023
vn -0.21253623068332672 0.93515944480896 0.2833816409111023
vn -0.21253623068332672 0.93515944480896 0.2833816409111023
vn -0.21253623068332672 0.93515944480896 0.2833816409111023
vn -0.21253623068332672 0.93515944480896 0.2833816409111023
vn -0.21253623068332672 0.93515944480896 0.2833816409111023
vn -0.21253623068332672 0.93515944480896 0.2833816409111023
vn 0.21253623068332672 -0.93515944480896 -0.2833816409111023
vn 0.21253623068332672 -0.93515944480896 -0.2833816409111023
vn 0.21253623068332672 -0.93515944480896 -0.2833816409111023
vn 0.21253623068332672 -0.93515944480896 -0.2833816409111023
vn 0.21253623068332672 -0.93515944480896 -0.2833816409111023
vn 0.21253623068332672 -0.93515944480896 -0.2833816409111023
vn 0.21253623068332672 -0.93515944480896 -0.2833816409111023
vn 0.21253623068332672 -0.93515944480896 -0.2833816409111023
vn 0.21253623068332672 -0.93515944480896 -0.2833816409111023
vn 0.21253623068332672 -0.93515944480896 -0.2833816409111023
vn 0.21253623068332672 -0.93515944480896 -0.2833816409111023
vn 0.21253623068332672 -0.93515944480896 -0.2833816409111023
vn 0.21253623068332672 -0.93515944480896 -0.2833816409111023
vn 0.21253623068332672 -0.93515944480896 -0.2833816409111023
vn 0.21253623068332672 -0.93515944480896 -0.2833816409111023
vn 0.21253623068332672 -0.93515944480896 -0.2833816409111023
vn 0.21253623068332672 -0.93515944480896 -0.2833816409111023
vn 0.21253623068332672 -0.93515944480896 -0.2833816409111023
vn 0.21253623068332672 -0.93515944480896 -0.2833816409111023
vn 0.21253623068332672 -0.93515944480896 -0.2833816409111023
vn 0.21253623068332672 -0.93515944480896 -0.2833816409111023
vn 0.21253623068332672 -0.93515944480896 -0.2833816409111023
vn 0.21253623068332672 -0.93515944480896 -0.2833816409111023
vn 0.21253623068332672 -0.93515944480896 -0.2833816409111023
vn 0.21253623068332672 -0.93515944480896 -0.2833816409111023
vn 0.21253623068332672 -0.93515944480896 -0.2833816409111023
vn 0.21253623068332672 -0.93515944480896 -0.2833816409111023
vn 0.21253623068332672 -0.93515944480896 -0.2833816409111023
vn 0.21253623068332672 -0.93515944480896 -0.2833816409111023
vn 0.21253623068332672 -0.93515944480896 -0.2833816409111023
vn 0.21253623068332672 -0.93515944480896 -0.2833816409111023
vn 0.21253623068332672 -0.93515944480896 -0.2833816409111023
vn 0.21253623068332672 -0.93515944480896 -0.2833816409111023
f 549//549 566//566 550//550
f 566//566 567//567 550//550
f 550//550 567//567 551//551
f 567//567 568//568 551//551
f 551//551 568//568 552//552
f 568//568 569//569 552//552
f 552//552 569//569 553//553
f 569//569 570//570 553//553
f 553//553 570//570 554//554
f 570//570 571//571 554//554
f 554//554 571//571 555//555
f 571//571 572//572 555//555
f 555//555 572//572 556//556
f 572//572 573//573 556//556
f 556//556 573//573 557//557
f 573//573 574//574 557//557
f 557//557 574//574 558//558
f 574//574 575//575 558//558
f 558//558 575//575 559//559
f 575//575 576//576 559//559
f 559//559 576//576 560//560
f 576//576 577//577 560//560
f 560//560 577//577 561//561
f 577//577 578//578 561//561
f 561//561 578//578 562//562
f 578//578 579//579 562//562
f 562//562 579//579 563//563
f 579//579 580//580 563//563
f 563//563 580//580 564//564
f 580//580 581//581 564//564
f 564//564 581//581 565//565
f 581//581 582//582 565//565
f 599//599 600//600 583//583
f 600//600 601//601 584//584
f 601//601 602//602 585//585
f 602//602 603//603 586//586
f 603//603 604//604 587//587
f 604//604 605//605 588//588
f 605//605 606//606 589//589
f 606//606 607//607 590//590
f 607//607 608//608 591//591
f 608//608 609//609 592//592
f 609//609 610//610 593//593
f 610//610 611//611 594//594
f 611//611 612//612 595//595
f 612//612 613//613 596//596
f 613//613 614//614 597//597
f 614//614 615//615 598//598
f 633//633 632//632 616//616
f 634//634 633//633 617//617
f 635//635 634//634 618//618
f 636//636 635//635 619//619
f 637//637 636//636 620//620
f 638//638 637//637 621//621
f 639//639 638//638 622//622
f 640//640 639//639 623//623
f 641//641 640//640 624//624
f 642//642 641//641 625//625
f 643//643 642//642 626//626
f 644//644 643//643 627//627
f 645//645 644//644 628//628
f 646//646 645//645 629//629
f 647//647 646//646 630//630
f 648//648 647//647 631//631
v 0.02489890344440937 35.226707458496094 3.266801357269287
v 0.3220040798187256 35.14438247680664 3.2179605960845947
v 0.5700870752334595 35.040077209472656 3.059816598892212
v 0.731379508972168 34.92967224121094 2.8164455890655518
v 0.7813260555267334 34.82997131347656 2.5248985290527344
v 0.7123227715492249 34.75615692138672 2.2295610904693604
v 0.5348749160766602 34.71946716308594 1.9753952026367188
v 0.275997132062912 34.725486755371094 1.8010958433151245
v -0.024898644536733627 34.77329635620117 1.7331981658935547
v -0.3220038115978241 34.855621337890625 1.7820391654968262
v -0.5700868368148804 34.959922790527344 1.9401830434799194
v -0.7313792109489441 35.07033157348633 2.183554172515869
v -0.7813258171081543 35.17002868652344 2.4751009941101074
v -0.7123225331306458 35.24384307861328 2.7704386711120605
v -0.534874677658081 35.28053283691406 3.024604320526123
v -0.2759968936443329 35.27451705932617 3.198903799057007
v 0.02489890344440937 35.226707458496094 3.266801357269287
v -7.475101470947266 2.2267048358917236 13.266801834106445
v -7.1779961585998535 2.144380569458008 13.217961311340332
v -6.92991304397583 2.0400755405426025 13.05981731414795
v -6.76862096786499 1.9296694993972778 12.816446304321289
v -6.718674182891846 1.8299704790115356 12.524898529052734
v -6.78767728805542 1.7561568021774292 12.229561805725098
v -6.965125560760498 1.7194658517837524 11.975395202636719
v -7.224003314971924 1.725483775138855 11.801095962524414
v -7.524899005889893 1.7732940912246704 11.733198165893555
v -7.8220038414001465 1.8556183576583862 11.782039642333984
v -8.070087432861328 1.959923267364502 11.940183639526367
v -8.231379508972168 2.070329427719116 12.183554649353027
v -8.281326293945312 2.1700284481048584 12.475101470947266
v -8.212323188781738 2.243842124938965 12.770439147949219
v -8.03487491607666 2.2805330753326416 13.024604797363281
v -7.775997161865234 2.274515151977539 13.198904037475586
v -7.475101470947266 2.2267048358917236 13.266801834106445
v 1.295515943411374e-7 35 2.499999761581421
v 1.295515943411374e-7 35 2.499999761581421
v 1.295515943411374e-7 35 2.499999761581421
v 1.295515943411374e-7 35 2.499999761581421
v 1.295515943411374e-7 35 2.499999761581421
v 1.295515943411374e-7 35 2.499999761581421
v 1.295515943411374e-7 35 2.499999761581421
v 1.295515943411374e-7 35 2.499999761581421
v 1.295515943411374e-7 35 2.499999761581421
v 1.295515943411374e-7 35 2.499999761581421
v 1.295515943411374e-7 35 2.499999761581421
v 1.295515943411374e-7 35 2.499999761581421
v 1.295515943411374e-7 35 2.499999761581421
v 1.295515943411374e-7 35 2.499999761581421
v 1.295515943411374e-7 35 2.499999761581421
v 1.295515943411374e-7 35 2.499999761581421
v 0.02489890344440937 35.226707458496094 3.266801357269287
v 0.3220040798187256 35.14438247680664 3.2179605960845947
v 0.5700870752334595 35.040077209472656 3.059816598892212
v 0.731379508972168 34.92967224121094 2.8164455890655518
v 0.7813260555267334 34.82997131347656 2.5248985290527344
v 0.7123227715492249 34.75615692138672 2.2295610904693604
v 0.5348749160766602 34.71946716308594 1.9753952026367188
v 0.275997132062912 34.725486755371094 1.8010958433151245
v -0.024898644536733627 34.77329635620117 1.7331981658935547
v -0.3220038115978241 34.855621337890625 1.7820391654968262
v -0.5700868368148804 34.959922790527344 1.9401830434799194
v -0.7313792109489441 35.07033157348633 2.183554172515869
v -0.7813258171081543 35.17002868652344 2.4751009941101074
v -0.7123225331306458 35.24384307861328 2.7704386711120605
v -0.534874677658081 35.28053283691406 3.024604320526123
v -0.2759968936443329 35.27451705932617 3.198903799057007
v 0.02489890344440937 35.226707458496094 3.266801357269287
v -7.5 1.9999994039535522 12.5
v -7.5 1.9999994039535522 12.5
v -7.5 1.9999994039535522 12.5
v -7.5 1.9999994039535522 12.5
v -7.5 1.9999994039535522 12.5
v -7.5 1.9999994039535522 12.5
v -7.5 1.9999994039535522 12.5
v -7.5 1.9999994039535522 12.5
v -7.5 1.9999994039535522 12.5
v -7.5 1.9999994039535522 12.5
v -7.5 1.9999994039535522 12.5
v -7.5 1.9999994039535522 12.5
v -7.5 1.9999994039535522 12.5
v -7.5 1.9999994039535522 12.5
v -7.5 1.9999994039535522 12.5
v -7.5 1.9999994039535522 12.5
v -7.475101470947266 2.2267048358917236 13.266801834106445
v -7.1779961585998535 2.144380569458008 13.217961311340332
v -6.92991304397583 2.0400755405426025 13.05981731414795
v -6.76862096786499 1.9296694993972778 12.816446304321289
v -6.718674182891846 1.8299704790115356 12.524898529052734
v -6.78767728805542 1.7561568021774292 12.229561805725098
v -6.965125560760498 1.7194658517837524 11.975395202636719
v -7.224003314971924 1.725483775138855 11.801095962524414
v -7.524899005889893 1.7732940912246704 11.733198165893555
v -7.8220038414001465 1.8556183576583862 11.782039642333984
v -8.070087432861328 1.959923267364502 11.940183639526367
v -8.231379508972168 2.070329427719116 12.183554649353027
v -8.281326293945312 2.1700284481048584 12.475101470947266
v -8.212323188781738 2.243842124938965 12.770439147949219
v -8.03487491607666 2.2805330753326416 13.024604797363281
v -7.775997161865234 2.274515151977539 13.198904037475586
v -7.475101470947266 2.2267048358917236 13.266801834106445
vn 0.031123466789722443 0.2833816409111023 0.9585020542144775
vn 0.40250495076179504 0.18047641217708588 0.897450864315033
vn 0.7126086950302124 0.050095271319150925 0.6997709274291992
vn 0.9142242074012756 -0.087912417948246 0.3955571949481964
vn 0.9766573905944824 -0.21253623068332672 0.031123466789722443
vn 0.8904033303260803 -0.30480334162712097 -0.33804851770401
vn 0.6685934662818909 -0.35066691040992737 -0.6557556986808777
vn 0.34499627351760864 -0.34314459562301636 -0.8736299872398376
vn -0.031123466789722443 -0.2833816409111023 -0.9585020542144775
vn -0.40250495076179504 -0.18047641217708588 -0.897450864315033
vn -0.7126086950302124 -0.050095271319150925 -0.6997709274291992
vn -0.9142242074012756 0.087912417948246 -0.3955571949481964
vn -0.9766573905944824 0.21253623068332672 -0.031123466789722443
vn -0.8904033303260803 0.30480334162712097 0.33804851770401
vn -0.6685934662818909 0.35066691040992737 0.6557556986808777
vn -0.34499627351760864 0.34314459562301636 0.8736299872398376
vn 0.031123466789722443 0.2833816409111023 0.9585020542144775
vn 0.031123466789722443 0.2833816409111023 0.9585020542144775
vn 0.40250495076179504 0.18047641217708588 0.897450864315033
vn 0.7126086950302124 0.050095271319150925 0.6997709274291992
vn 0.9142242074012756 -0.087912417948246 0.3955571949481964
vn 0.9766573905944824 -0.21253623068332672 0.031123466789722443
vn 0.8904033303260803 -0.30480334162712097 -0.33804851770401
vn 0.6685934662818909 -0.35066691040992737 -0.6557556986808777
vn 0.34499627351760864 -0.34314459562301636 -0.8736299872398376
vn -0.031123466789722443 -0.2833816409111023 -0.9585020542144775
vn -0.40250495076179504 -0.18047641217708588 -0.897450864315033
vn -0.7126086950302124 -0.050095271319150925 -0.6997709274291992
vn -0.9142242074012756 0.087912417948246 -0.3955571949481964
vn -0.9766573905944824 0.21253623068332672 -0.031123466789722443
vn -0.8904033303260803 0.30480334162712097 0.33804851770401
vn -0.6685934662818909 0.35066691040992737 0.6557556986808777
vn -0.34499627351760864 0.34314459562301636 0.8736299872398376
vn 0.031123466789722443 0.2833816409111023 0.9585020542144775
vn 0.21253623068332672 0.93515944480896 -0.2833816409111023
vn 0.21253623068332672 0.93515944480896 -0.2833816409111023
vn 0.21253623068332672 0.93515944480896 -0.2833816409111023
vn 0.21253623068332672 0.93515944480896 -0.2833816409111023
vn 0.21253623068332672 0.93515944480896 -0.2833816409111023
vn 0.21253623068332672 0.93515944480896 -0.2833816409111023
vn 0.21253623068332672 0.93515944480896 -0.2833816409111023
vn 0.21253623068332672 0.93515944480896 -0.2833816409111023
vn 0.21253623068332672 0.93515944480896 -0.2833816409111023
vn 0.21253623068332672 0.93515944480896 -0.2833816409111023
vn 0.21253623068332672 0.93515944480896 -0.2833816409111023
vn 0.21253623068332672 0.93515944480896 -0.2833816409111023
vn 0.21253623068332672 0.93515944480896 -0.2833816409111023
vn 0.21253623068332672 0.93515944480896 -0.2833816409111023
vn 0.21253623068332672 0.93515944480896 -0.2833816409111023
vn 0.21253623068332672 0.93515944480896 -0.2833816409111023
vn 0.21253623068332672 0.93515944480896 -0.2833816409111023
vn 0.21253623068332672 0.93515944480896 -0.2833816409111023
vn 0.21253623068332672 0.93515944480896 -0.2833816409111023
vn 0.21253623068332672 0.93515944480896 -0.2833816409111023
vn 0.21253623068332672 0.93515944480896 -0.2833816409111023
vn 0.21253623068332672 0.93515944480896 -0.2833816409111023
vn 0.21253623068332672 0.93515944480896 -0.2833816409111023
vn 0.21253623068332672 0.93515944480896 -0.2833816409111023
vn 0.21253623068332672 0.93515944480896 -0.2833816409111023
vn 0.21253623068332672 0.93515944480896 -0.2833816409111023
vn 0.21253623068332672 0.93515944480896 -0.2833816409111023
vn 0.21253623068332672 0.93515944480896 -0.2833816409111023
vn 0.21253623068332672 0.93515944480896 -0.2833816409111023
vn 0.21253623068332672 0.93515944480896 -0.2833816409111023
vn 0.21253623068332672 0.93515944480896 -0.2833816409111023
vn 0.21253623068332672 0.93515944480896 -0.2833816409111023
vn 0.21253623068332672 0.93515944480896 -0.2833816409111023
vn -0.21253623068332672 -0.93515944480896 0.2833816409111023
vn -0.21253623068332672 -0.93515944480896 0.2833816409111023
vn -0.21253623068332672 -0.93515944480896 0.2833816409111023
vn -0.21253623068332672 -0.93515944480896 0.2833816409111023
vn -0.21253623068332672 -0.93515944480896 0.2833816409111023
vn -0.21253623068332672 -0.93515944480896 0.2833816409111023
vn -0.21253623068332672 -0.93515944480896 0.2833816409111023
vn -0.21253623068332672 -0.93515944480896 0.2833816409111023
vn -0.21253623068332672 -0.93515944480896 0.2833816409111023
vn -0.21253623068332672 -0.93515944480896 0.2833816409111023
vn -0.21253623068332672 -0.93515944480896 0.2833816409111023
vn -0.21253623068332672 -0.93515944480896 0.2833816409111023
vn -0.21253623068332672 -0.93515944480896 0.2833816409111023
vn -0.21253623068332672 -0.93515944480896 0.2833816409111023
vn -0.21253623068332672 -0.93515944480896 0.2833816409111023
vn -0.21253623068332672 -0.93515944480896 0.2833816409111023
vn -0.21253623068332672 -0.93515944480896 0.2833816409111023
vn -0.21253623068332672 -0.93515944480896 0.2833816409111023
vn -0.21253623068332672 -0.93515944480896 0.2833816409111023
vn -0.21253623068332672 -0.93515944480896 0.2833816409111023
vn -0.21253623068332672 -0.93515944480896 0.2833816409111023
vn -0.21253623068332672 -0.93515944480896 0.2833816409111023
vn -0.21253623068332672 -0.93515944480896 0.2833816409111023
vn -0.21253623068332672 -0.93515944480896 0.2833816409111023
vn -0.21253623068332672 -0.93515944480896 0.2833816409111023
vn -0.21253623068332672 -0.93515944480896 0.2833816409111023
vn -0.21253623068332672 -0.93515944480896 0.2833816409111023
vn -0.21253623068332672 -0.93515944480896 0.2833816409111023
vn -0.21253623068332672 -0.93515944480896 0.2833816409111023
vn -0.21253623068332672 -0.93515944480896 0.2833816409111023
vn -0.21253623068332672 -0.93515944480896 0.2833816409111023
vn -0.21253623068332672 -0.93515944480896 0.2833816409111023
vn -0.21253623068332672 -0.93515944480896 0.2833816409111023
f 649//649 666//666 650//650
f 666//666 667//667 650//650
f 650//650 667//667 651//651
f 667//667 668//668 651//651
f 651//651 668//668 652//652
f 668//668 669//669 652//652
f 652//652 669//669 653//653
f 669//669 670//670 653//653
f 653//653 670//670 654//654
f 670//670 671//671 654//654
f 654//654 671//671 655//655
f 671//671 672//672 655//655
f 655//655 672//672 656//656
f 672//672 673//673 656//656
f 656//656 673//673 657//657
f 673//673 674//674 657//657
f 657//657 674//674 658//658
f 674//674 675//675 658//658
f 658//658 675//675 659//659
f 675//675 676//676 659//659
f 659//659 676//676 660//660
f 676//676 677//677 660//660
f 660//660 677//677 661//661
f 677//677 678//678 661//661
f 661//661 678//678 662//662
f 678//678 679//679 662//662
f 662//662 679//679 663//663
f 679//679 680//680 663//663
f 663//663 680//680 664//664
f 680//680 681//681 664//664
f 664//664 681//681 665//665
f 681//681 682//682 665//665
f 699//699 700//700 683//683
f 700//700 701//701 684//684
f 701//701 702//702 685//685
f 702//702 703//703 686//686
f 703//703 704//704 687//687
f 704//704 705//705 688//688
f 705//705 706//706 689//689
f 706//706 707//707 690//690
f 707//707 708//708 691//691
f 708//708 709//709 692//692
f 709//709 710//710 693//693
f 710//710 711//711 694//694
f 711//711 712//712 695//695
f 712//712 713//713 696//696
f 713//713 714//714 697//697
f 714//714 715//715 698//698
f 733//733 732//732 716//716
f 734//734 733//733 717//717
f 735//735 734//734 718//718
f 736//736 735//735 719//719
f 737//737 736//736 720//720
f 738//738 737//737 721//721
f 739//739 738//738 722//722
f 740//740 739//739 723//723
f 741//741 740//740 724//724
f 742//742 741//741 725//725
f 743//743 742//742 726//726
f 744//744 743//743 727//727
f 745//745 744//744 728//728
f 746//746 745//745 729//729
f 747//747 746//746 730//730
f 748//748 747//747 731//731
v -0.02489890344440937 35.226707458496094 3.266801357269287
v 0.2759968936443329 35.27451705932617 3.198903799057007
v 0.534874677658081 35.28053283691406 3.024604320526123
v 0.7123225331306458 35.24384307861328 2.7704386711120605
v 0.7813258171081543 35.17002868652344 2.4751009941101074
v 0.7313792109489441 35.07033157348633 2.183554172515869
v 0.5700868368148804 34.959922790527344 1.9401830434799194
v 0.3220038115978241 34.855621337890625 1.7820391654968262
v 0.024898644536733627 34.77329635620117 1.7331981658935547
v -0.275997132062912 34.725486755371094 1.8010958433151245
v -0.5348749160766602 34.71946716308594 1.9753952026367188
v -0.7123227715492249 34.75615692138672 2.2295610904693604
v -0.7813260555267334 34.82997131347656 2.5248985290527344
v -0.731379508972168 34.92967224121094 2.8164455890655518
v -0.5700870752334595 35.040077209472656 3.059816598892212
v -0.3220040798187256 35.14438247680664 3.2179605960845947
v -0.02489890344440937 35.226707458496094 3.266801357269287
v 7.475101470947266 2.2267048358917236 13.266801834106445
v 7.775997161865234 2.274515151977539 13.198904037475586
v 8.03487491607666 2.2805330753326416 13.024604797363281
v 8.212323188781738 2.243842124938965 12.770439147949219
v 8.281326293945312 2.1700284481048584 12.475101470947266
v 8.231379508972168 2.070329427719116 12.183554649353027
v 8.070087432861328 1.959923267364502 11.940183639526367
v 7.8220038414001465 1.8556183576583862 11.782039642333984
v 7.524899005889893 1.7732940912246704 11.733198165893555
v 7.224003314971924 1.725483775138855 11.801095962524414
v 6.965125560760498 1.7194658517837524 11.975395202636719
v 6.78767728805542 1.7561568021774292 12.229561805725098
v 6.718674182891846 1.8299704790115356 12.524898529052734
v 6.76862096786499 1.9296694993972778 12.816446304321289
v 6.92991304397583 2.0400755405426025 13.05981731414795
v 7.1779961585998535 2.144380569458008 13.217961311340332
v 7.475101470947266 2.2267048358917236 13.266801834106445
v -1.295515943411374e-7 35 2.499999761581421
v -1.295515943411374e-7 35 2.499999761581421
v -1.295515943411374e-7 35 2.499999761581421
v -1.295515943411374e-7 35 2.499999761581421
v -1.295515943411374e-7 35 2.499999761581421
v -1.295515943411374e-7 35 2.499999761581421
v -1.295515943411374e-7 35 2.499999761581421
v -1.295515943411374e-7 35 2.499999761581421
v -1.295515943411374e-7 35 2.499999761581421
v -1.295515943411374e-7 35 2.499999761581421
v -1.295515943411374e-7 35 2.499999761581421
v -1.295515943411374e-7 35 2.499999761581421
v -1.295515943411374e-7 35 2.499999761581421
v -1.295515943411374e-7 35 2.499999761581421
v -1.295515943411374e-7 35 2.499999761581421
v -1.295515943411374e-7 35 2.499999761581421
v -0.02489890344440937 35.226707458496094 3.266801357269287
v 0.2759968936443329 35.27451705932617 3.198903799057007
v 0.534874677658081 35.28053283691406 3.024604320526123
v 0.7123225331306458 35.24384307861328 2.7704386711120605
v 0.7813258171081543 35.17002868652344 2.4751009941101074
v 0.7313792109489441 35.07033157348633 2.183554172515869
v 0.5700868368148804 34.959922790527344 1.9401830434799194
v 0.3220038115978241 34.855621337890625 1.7820391654968262
v 0.024898644536733627 34.77329635620117 1.7331981658935547
v -0.275997132062912 34.725486755371094 1.8010958433151245
v -0.5348749160766602 34.71946716308594 1.9753952026367188
v -0.7123227715492249 34.75615692138672 2.2295610904693604
v -0.7813260555267334 34.82997131347656 2.5248985290527344
v -0.731379508972168 34.92967224121094 2.8164455890655518
v -0.5700870752334595 35.040077209472656 3.059816598892212
v -0.3220040798187256 35.14438247680664 3.2179605960845947
v -0.02489890344440937 35.226707458496094 3.266801357269287
v 7.5 1.9999994039535522 12.5
v 7.5 1.9999994039535522 12.5
v 7.5 1.9999994039535522 12.5
v 7.5 1.9999994039535522 12.5
v 7.5 1.9999994039535522 12.5
v 7.5 1.9999994039535522 12.5
v 7.5 1.9999994039535522 12.5
v 7.5 1.9999994039535522 12.5
v 7.5 1.9999994039535522 12.5
v 7.5 1.9999994039535522 12.5
v 7.5 1.9999994039535522 12.5
v 7.5 1.9999994039535522 12.5
v 7.5 1.9999994039535522 12.5
v 7.5 1.9999994039535522 12.5
v 7.5 1.9999994039535522 12.5
v 7.5 1.9999994039535522 12.5
v 7.475101470947266 2.2267048358917236 13.266801834106445
v 7.775997161865234 2.274515151977539 13.198904037475586
v 8.03487491607666 2.2805330753326416 13.024604797363281
v 8.212323188781738 2.243842124938965 12.770439147949219
v 8.281326293945312 2.1700284481048584 12.475101470947266
v 8.231379508972168 2.070329427719116 12.183554649353027
v 8.070087432861328 1.959923267364502 11.940183639526367
v 7.8220038414001465 1.8556183576583862 11.782039642333984
v 7.524899005889893 1.7732940912246704 11.733198165893555
v 7.224003314971924 1.725483775138855 11.801095962524414
v 6.965125560760498 1.7194658517837524 11.975395202636719
v 6.78767728805542 1.7561568021774292 12.229561805725098
v 6.718674182891846 1.8299704790115356 12.524898529052734
v 6.76862096786499 1.9296694993972778 12.816446304321289
v 6.92991304397583 2.0400755405426025 13.05981731414795
v 7.1779961585998535 2.144380569458008 13.217961311340332
v 7.475101470947266 2.2267048358917236 13.266801834106445
vn -0.031123466789722443 0.2833816409111023 0.9585020542144775
vn 0.34499627351760864 0.34314459562301636 0.8736299872398376
vn 0.6685934662818909 0.35066691040992737 0.6557556986808777
vn 0.8904033303260803 0.30480334162712097 0.33804851770401
vn 0.9766573905944824 0.21253623068332672 -0.031123466789722443
vn 0.9142242074012756 0.087912417948246 -0.3955571949481964
vn 0.7126086950302124 -0.050095271319150925 -0.6997709274291992
vn 0.40250495076179504 -0.18047641217708588 -0.897450864315033
vn 0.031123466789722443 -0.2833816409111023 -0.9585020542144775
vn -0.34499627351760864 -0.34314459562301636 -0.8736299872398376
vn -0.6685934662818909 -0.35066691040992737 -0.6557556986808777
vn -0.8904033303260803 -0.30480334162712097 -0.33804851770401
vn -0.9766573905944824 -0.21253623068332672 0.031123466789722443
vn -0.9142242074012756 -0.087912417948246 0.3955571949481964
vn -0.7126086950302124 0.050095271319150925 0.6997709274291992
vn -0.40250495076179504 0.18047641217708588 0.897450864315033
vn -0.031123466789722443 0.2833816409111023 0.9585020542144775
vn -0.031123466789722443 0.2833816409111023 0.9585020542144775
vn 0.34499627351760864 0.34314459562301636 0.8736299872398376
vn 0.6685934662818909 0.35066691040992737 0.6557556986808777
vn 0.8904033303260803 0.30480334162712097 0.33804851770401
vn 0.9766573905944824 0.21253623068332672 -0.031123466789722443
vn 0.9142242074012756 0.087912417948246 -0.3955571949481964
vn 0.7126086950302124 -0.050095271319150925 -0.6997709274291992
vn 0.40250495076179504 -0.18047641217708588 -0.897450864315033
vn 0.031123466789722443 -0.2833816409111023 -0.9585020542144775
vn -0.34499627351760864 -0.34314459562301636 -0.8736299872398376
vn -0.6685934662818909 -0.35066691040992737 -0.6557556986808777
vn -0.8904033303260803 -0.30480334162712097 -0.33804851770401
vn -0.9766573905944824 -0.21253623068332672 0.031123466789722443
vn -0.9142242074012756 -0.087912417948246 0.3955571949481964
vn -0.7126086950302124 0.050095271319150925 0.6997709274291992
vn -0.40250495076179504 0.18047641217708588 0.897450864315033
vn -0.031123466789722443 0.2833816409111023 0.9585020542144775
vn -0.21253623068332672 0.93515944480896 -0.2833816409111023
vn -0.21253623068332672 0.93515944480896 -0.2833816409111023
vn -0.21253623068332672 0.93515944480896 -0.2833816409111023
vn -0.21253623068332672 0.93515944480896 -0.2833816409111023
vn -0.21253623068332672 0.93515944480896 -0.2833816409111023
vn -0.21253623068332672 0.93515944480896 -0.2833816409111023
vn -0.21253623068332672 0.93515944480896 -0.2833816409111023
vn -0.21253623068332672 0.93515944480896 -0.2833816409111023
vn -0.21253623068332672 0.93515944480896 -0.2833816409111023
vn -0.21253623068332672 0.93515944480896 -0.2833816409111023
vn -0.21253623068332672 0.93515944480896 -0.2833816409111023
vn -0.21253623068332672 0.93515944480896 -0.2833816409111023
vn -0.21253623068332672 0.93515944480896 -0.2833816409111023
vn -0.21253623068332672 0.93515944480896 -0.2833816409111023
vn -0.21253623068332672 0.93515944480896 -0.2833816409111023
vn -0.21253623068332672 0.93515944480896 -0.2833816409111023
vn -0.21253623068332672 0.93515944480896 -0.2833816409111023
vn -0.21253623068332672 0.93515944480896 -0.2833816409111023
vn -0.21253623068332672 0.93515944480896 -0.2833816409111023
vn -0.21253623068332672 0.93515944480896 -0.2833816409111023
vn -0.21253623068332672 0.93515944480896 -0.2833816409111023
vn -0.21253623068332672 0.93515944480896 -0.2833816409111023
vn -0.21253623068332672 0.93515944480896 -0.2833816409111023
vn -0.21253623068332672 0.93515944480896 -0.2833816409111023
vn -0.21253623068332672 0.93515944480896 -0.2833816409111023
vn -0.21253623068332672 0.93515944480896 -0.2833816409111023
vn -0.21253623068332672 0.93515944480896 -0.2833816409111023
vn -0.21253623068332672 0.93515944480896 -0.2833816409111023
vn -0.21253623068332672 0.93515944480896 -0.2833816409111023
vn -0.21253623068332672 0.93515944480896 -0.2833816409111023
vn -0.21253623068332672 0.93515944480896 -0.2833816409111023
vn -0.21253623068332672 0.93515944480896 -0.2833816409111023
vn -0.21253623068332672 0.93515944480896 -0.2833816409111023
vn 0.21253623068332672 -0.93515944480896 0.2833816409111023
vn 0.21253623068332672 -0.93515944480896 0.2833816409111023
vn 0.21253623068332672 -0.93515944480896 0.2833816409111023
vn 0.21253623068332672 -0.93515944480896 0.2833816409111023
vn 0.21253623068332672 -0.93515944480896 0.2833816409111023
vn 0.21253623068332672 -0.93515944480896 0.2833816409111023
vn 0.21253623068332672 -0.93515944480896 0.2833816409111023
vn 0.21253623068332672 -0.93515944480896 0.2833816409111023
vn 0.21253623068332672 -0.93515944480896 0.2833816409111023
vn 0.21253623068332672 -0.93515944480896 0.2833816409111023
vn 0.21253623068332672 -0.93515944480896 0.2833816409111023
vn 0.21253623068332672 -0.93515944480896 0.2833816409111023
vn 0.21253623068332672 -0.93515944480896 0.2833816409111023
vn 0.21253623068332672 -0.93515944480896 0.2833816409111023
vn 0.21253623068332672 -0.93515944480896 0.2833816409111023
vn 0.21253623068332672 -0.93515944480896 0.2833816409111023
vn 0.21253623068332672 -0.93515944480896 0.2833816409111023
vn 0.21253623068332672 -0.93515944480896 0.2833816409111023
vn 0.21253623068332672 -0.93515944480896 0.2833816409111023
vn 0.21253623068332672 -0.93515944480896 0.2833816409111023
vn 0.21253623068332672 -0.93515944480896 0.2833816409111023
vn 0.21253623068332672 -0.93515944480896 0.2833816409111023
vn 0.21253623068332672 -0.93515944480896 0.2833816409111023
vn 0.21253623068332672 -0.93515944480896 0.2833816409111023
vn 0.21253623068332672 -0.93515944480896 0.2833816409111023
vn 0.21253623068332672 -0.93515944480896 0.2833816409111023
vn 0.21253623068332672 -0.93515944480896 0.2833816409111023
vn 0.21253623068332672 -0.93515944480896 0.2833816409111023
vn 0.21253623068332672 -0.93515944480896 0.2833816409111023
vn 0.21253623068332672 -0.93515944480896 0.2833816409111023
vn 0.21253623068332672 -0.93515944480896 0.2833816409111023
vn 0.21253623068332672 -0.93515944480896 0.2833816409111023
vn 0.21253623068332672 -0.93515944480896 0.2833816409111023
f 749//749 766//766 750//750
f 766//766 767//767 750//750
f 750//750 767//767 751//751
f 767//767 768//768 751//751
f 751//751 768//768 752//752
f 768//768 769//769 752//752
f 752//752 769//769 753//753
f 769//769 770//770 753//753
f 753//753 770//770 754//754
f 770//770 771//771 754//754
f 754//754 771//771 755//755
f 771//771 772//772 755//755
f 755//755 772//772 756//756
f 772//772 773//773 756//756
f 756//756 773//773 757//757
f 773//773 774//774 757//757
f 757//757 774//774 758//758
f 774//774 775//775 758//758
f 758//758 775//775 759//759
f 775//775 776//776 759//759
f 759//759 776//776 760//760
f 776//776 777//777 760//760
f 760//760 777//777 761//761
f 777//777 778//778 761//761
f 761//761 778//778 762//762
f 778//778 779//779 762//762
f 762//762 779//779 763//763
f 779//779 780//780 763//763
f 763//763 780//780 764//764
f 780//780 781//781 764//764
f 764//764 781//781 765//765
f 781//781 782//782 765//765
f 799//799 800//800 783//783
f 800//800 801//801 784//784
f 801//801 802//802 785//785
f 802//802 803//803 786//786
f 803//803 804//804 787//787
f 804//804 805//805 788//788
f 805//805 806//806 789//789
f 806//806 807//807 790//790
f 807//807 808//808 791//791
f 808//808 809//809 792//792
f 809//809 810//810 793//793
f 810//810 811//811 794//794
f 811//811 812//812 795//795
f 812//812 813//813 796//796
f 813//813 814//814 797//797
f 814//814 815//815 798//798
f 833//833 832//832 816//816
f 834//834 833//833 817//817
f 835//835 834//834 818//818
f 836//836 835//835 819//819
f 837//837 836//836 820//820
f 838//838 837//837 821//821
f 839//839 838//838 822//822
f 840//840 839//839 823//823
f 841//841 840//840 824//824
f 842//842 841//841 825//825
f 843//843 842//842 826//826
f 844//844 843//843 827//827
f 845//845 844//844 828//828
f 846//846 845//845 829//829
f 847//847 846//846 830//830
f 848//848 847//847 831//831
