# spoke_back_1
# Vertices: 192
v -1.005466 40.656662 29.462740
v -2.005466 34.803951 0.039182
v -0.928584 40.669037 29.457666
v -2.005466 34.803951 0.039182
v -1.928584 34.816326 0.034108
v -0.928584 40.669037 29.457666
v -0.928584 40.669037 29.457666
v -1.928584 34.816326 0.034108
v -0.862575 40.709370 29.447399
v -1.928584 34.816326 0.034108
v -1.862575 34.856663 0.023841
v -0.862575 40.709370 29.447399
v -0.862575 40.709370 29.447399
v -1.862575 34.856663 0.023841
v -0.817487 40.771530 29.433504
v -1.862575 34.856663 0.023841
v -1.817487 34.918819 0.009945
v -0.817487 40.771530 29.433504
v -0.817487 40.771530 29.433504
v -1.817487 34.918819 0.009945
v -0.800186 40.846046 29.418093
v -1.817487 34.918819 0.009945
v -1.800186 34.993336 -0.005466
v -0.800186 40.846046 29.418093
v -0.800186 40.846046 29.418093
v -1.800186 34.993336 -0.005466
v -0.813304 40.921577 29.403515
v -1.800186 34.993336 -0.005466
v -1.813304 35.068867 -0.020044
v -0.813304 40.921577 29.403515
v -0.813304 40.921577 29.403515
v -1.813304 35.068867 -0.020044
v -0.854845 40.986626 29.391989
v -1.813304 35.068867 -0.020044
v -1.854845 35.133915 -0.031571
v -0.854845 40.986626 29.391989
v -0.854845 40.986626 29.391989
v -1.854845 35.133915 -0.031571
v -0.918485 41.031284 29.385267
v -1.854845 35.133915 -0.031571
v -1.918485 35.178574 -0.038291
v -0.918485 41.031284 29.385267
v -0.918485 41.031284 29.385267
v -1.918485 35.178574 -0.038291
v -0.994534 41.048759 29.384377
v -1.918485 35.178574 -0.038291
v -1.994534 35.196049 -0.039182
v -0.994534 41.048759 29.384377
v -0.994534 41.048759 29.384377
v -1.994534 35.196049 -0.039182
v -1.071416 41.036385 29.389450
v -1.994534 35.196049 -0.039182
v -2.071416 35.183674 -0.034108
v -1.071416 41.036385 29.389450
v -1.071416 41.036385 29.389450
v -2.071416 35.183674 -0.034108
v -1.137425 40.996048 29.399717
v -2.071416 35.183674 -0.034108
v -2.137425 35.143337 -0.023841
v -1.137425 40.996048 29.399717
v -1.137425 40.996048 29.399717
v -2.137425 35.143337 -0.023841
v -1.182513 40.933891 29.413614
v -2.137425 35.143337 -0.023841
v -2.182513 35.081181 -0.009945
v -1.182513 40.933891 29.413614
v -1.182513 40.933891 29.413614
v -2.182513 35.081181 -0.009945
v -1.199814 40.859371 29.429024
v -2.182513 35.081181 -0.009945
v -2.199814 35.006664 0.005465
v -1.199814 40.859371 29.429024
v -1.199814 40.859371 29.429024
v -2.199814 35.006664 0.005465
v -1.186696 40.783840 29.443604
v -2.199814 35.006664 0.005465
v -2.186696 34.931129 0.020044
v -1.186696 40.783840 29.443604
v -1.186696 40.783840 29.443604
v -2.186696 34.931129 0.020044
v -1.145155 40.718796 29.455130
v -2.186696 34.931129 0.020044
v -2.145155 34.866085 0.031570
v -1.145155 40.718796 29.455130
v -1.145155 40.718796 29.455130
v -2.145155 34.866085 0.031570
v -1.081515 40.674133 29.461849
v -2.145155 34.866085 0.031570
v -2.081515 34.821426 0.038291
v -1.081515 40.674133 29.461849
v -1.081515 40.674133 29.461849
v -2.081515 34.821426 0.038291
v -1.005466 40.656662 29.462740
v -2.081515 34.821426 0.038291
v -2.005466 34.803951 0.039182
v -1.005466 40.656662 29.462740
v -1.005466 40.656662 29.462740
v -0.928584 40.669037 29.457666
v -1.000000 40.852711 29.423559
v -0.928584 40.669037 29.457666
v -0.862575 40.709370 29.447399
v -1.000000 40.852711 29.423559
v -0.862575 40.709370 29.447399
v -0.817487 40.771530 29.433504
v -1.000000 40.852711 29.423559
v -0.817487 40.771530 29.433504
v -0.800186 40.846046 29.418093
v -1.000000 40.852711 29.423559
v -0.800186 40.846046 29.418093
v -0.813304 40.921577 29.403515
v -1.000000 40.852711 29.423559
v -0.813304 40.921577 29.403515
v -0.854845 40.986626 29.391989
v -1.000000 40.852711 29.423559
v -0.854845 40.986626 29.391989
v -0.918485 41.031284 29.385267
v -1.000000 40.852711 29.423559
v -0.918485 41.031284 29.385267
v -0.994534 41.048759 29.384377
v -1.000000 40.852711 29.423559
v -0.994534 41.048759 29.384377
v -1.071416 41.036385 29.389450
v -1.000000 40.852711 29.423559
v -1.071416 41.036385 29.389450
v -1.137425 40.996048 29.399717
v -1.000000 40.852711 29.423559
v -1.137425 40.996048 29.399717
v -1.182513 40.933891 29.413614
v -1.000000 40.852711 29.423559
v -1.182513 40.933891 29.413614
v -1.199814 40.859371 29.429024
v -1.000000 40.852711 29.423559
v -1.199814 40.859371 29.429024
v -1.186696 40.783840 29.443604
v -1.000000 40.852711 29.423559
v -1.186696 40.783840 29.443604
v -1.145155 40.718796 29.455130
v -1.000000 40.852711 29.423559
v -1.145155 40.718796 29.455130
v -1.081515 40.674133 29.461849
v -1.000000 40.852711 29.423559
v -1.081515 40.674133 29.461849
v -1.005466 40.656662 29.462740
v -1.000000 40.852711 29.423559
v -1.928584 34.816326 0.034108
v -2.005466 34.803951 0.039182
v -2.000000 35.000000 -0.000000
v -1.862575 34.856663 0.023841
v -1.928584 34.816326 0.034108
v -2.000000 35.000000 -0.000000
v -1.817487 34.918819 0.009945
v -1.862575 34.856663 0.023841
v -2.000000 35.000000 -0.000000
v -1.800186 34.993336 -0.005466
v -1.817487 34.918819 0.009945
v -2.000000 35.000000 -0.000000
v -1.813304 35.068867 -0.020044
v -1.800186 34.993336 -0.005466
v -2.000000 35.000000 -0.000000
v -1.854845 35.133915 -0.031571
v -1.813304 35.068867 -0.020044
v -2.000000 35.000000 -0.000000
v -1.918485 35.178574 -0.038291
v -1.854845 35.133915 -0.031571
v -2.000000 35.000000 -0.000000
v -1.994534 35.196049 -0.039182
v -1.918485 35.178574 -0.038291
v -2.000000 35.000000 -0.000000
v -2.071416 35.183674 -0.034108
v -1.994534 35.196049 -0.039182
v -2.000000 35.000000 -0.000000
v -2.137425 35.143337 -0.023841
v -2.071416 35.183674 -0.034108
v -2.000000 35.000000 -0.000000
v -2.182513 35.081181 -0.009945
v -2.137425 35.143337 -0.023841
v -2.000000 35.000000 -0.000000
v -2.199814 35.006664 0.005465
v -2.182513 35.081181 -0.009945
v -2.000000 35.000000 -0.000000
v -2.186696 34.931129 0.020044
v -2.199814 35.006664 0.005465
v -2.000000 35.000000 -0.000000
v -2.145155 34.866085 0.031570
v -2.186696 34.931129 0.020044
v -2.000000 35.000000 -0.000000
v -2.081515 34.821426 0.038291
v -2.145155 34.866085 0.031570
v -2.000000 35.000000 -0.000000
v -2.005466 34.803951 0.039182
v -2.081515 34.821426 0.038291
v -2.000000 35.000000 -0.000000
vn -0.027328 -0.980241 0.195911
vn -0.027328 -0.980241 0.195911
vn 0.357080 -0.918373 0.170540
vn -0.027328 -0.980241 0.195911
vn 0.357080 -0.918373 0.170540
vn 0.357080 -0.918373 0.170540
vn 0.357080 -0.918373 0.170540
vn 0.357080 -0.918373 0.170540
vn 0.687126 -0.716692 0.119206
vn 0.357080 -0.918373 0.170540
vn 0.687126 -0.716692 0.119206
vn 0.687126 -0.716692 0.119206
vn 0.687126 -0.716692 0.119206
vn 0.687126 -0.716692 0.119206
vn 0.912563 -0.405901 0.049724
vn 0.687126 -0.716692 0.119206
vn 0.912563 -0.405901 0.049724
vn 0.912563 -0.405901 0.049724
vn 0.912563 -0.405901 0.049724
vn 0.912563 -0.405901 0.049724
vn 0.999071 -0.033315 -0.027328
vn 0.912563 -0.405901 0.049724
vn 0.999071 -0.033315 -0.027328
vn 0.999071 -0.033315 -0.027328
vn 0.999071 -0.033315 -0.027328
vn 0.999071 -0.033315 -0.027328
vn 0.933479 0.344343 -0.100220
vn 0.999071 -0.033315 -0.027328
vn 0.933479 0.344343 -0.100220
vn 0.933479 0.344343 -0.100220
vn 0.933479 0.344343 -0.100220
vn 0.933479 0.344343 -0.100220
vn 0.725774 0.669578 -0.157854
vn 0.933479 0.344343 -0.100220
vn 0.725774 0.669578 -0.157854
vn 0.725774 0.669578 -0.157854
vn 0.725774 0.669578 -0.157854
vn 0.725774 0.669578 -0.157854
vn 0.407576 0.892875 -0.191456
vn 0.725774 0.669578 -0.157854
vn 0.407576 0.892875 -0.191456
vn 0.407576 0.892875 -0.191456
vn 0.407576 0.892875 -0.191456
vn 0.407576 0.892875 -0.191456
vn 0.027328 0.980241 -0.195911
vn 0.407576 0.892875 -0.191456
vn 0.027328 0.980241 -0.195911
vn 0.027328 0.980241 -0.195911
vn 0.027328 0.980241 -0.195911
vn 0.027328 0.980241 -0.195911
vn -0.357080 0.918373 -0.170540
vn 0.027328 0.980241 -0.195911
vn -0.357080 0.918373 -0.170540
vn -0.357080 0.918373 -0.170540
vn -0.357080 0.918373 -0.170540
vn -0.357080 0.918373 -0.170540
vn -0.687126 0.716692 -0.119206
vn -0.357080 0.918373 -0.170540
vn -0.687126 0.716692 -0.119206
vn -0.687126 0.716692 -0.119206
vn -0.687126 0.716692 -0.119206
vn -0.687126 0.716692 -0.119206
vn -0.912563 0.405901 -0.049724
vn -0.687126 0.716692 -0.119206
vn -0.912563 0.405901 -0.049724
vn -0.912563 0.405901 -0.049724
vn -0.912563 0.405901 -0.049724
vn -0.912563 0.405901 -0.049724
vn -0.999071 0.033315 0.027328
vn -0.912563 0.405901 -0.049724
vn -0.999071 0.033315 0.027328
vn -0.999071 0.033315 0.027328
vn -0.999071 0.033315 0.027328
vn -0.999071 0.033315 0.027328
vn -0.933479 -0.344343 0.100220
vn -0.999071 0.033315 0.027328
vn -0.933479 -0.344343 0.100220
vn -0.933479 -0.344343 0.100220
vn -0.933479 -0.344343 0.100220
vn -0.933479 -0.344343 0.100220
vn -0.725774 -0.669578 0.157854
vn -0.933479 -0.344343 0.100220
vn -0.725774 -0.669578 0.157854
vn -0.725774 -0.669578 0.157854
vn -0.725774 -0.669578 0.157854
vn -0.725774 -0.669578 0.157854
vn -0.407576 -0.892875 0.191456
vn -0.725774 -0.669578 0.157854
vn -0.407576 -0.892875 0.191456
vn -0.407576 -0.892875 0.191456
vn -0.407576 -0.892875 0.191456
vn -0.407576 -0.892875 0.191456
vn -0.027328 -0.980241 0.195911
vn -0.407576 -0.892875 0.191456
vn -0.027328 -0.980241 0.195911
vn -0.027328 -0.980241 0.195911
vn 0.033315 0.194982 0.980241
vn 0.033315 0.194982 0.980241
vn 0.033315 0.194982 0.980241
vn 0.033315 0.194982 0.980241
vn 0.033315 0.194982 0.980241
vn 0.033315 0.194982 0.980241
vn 0.033315 0.194982 0.980241
vn 0.033315 0.194982 0.980241
vn 0.033315 0.194982 0.980241
vn 0.033315 0.194982 0.980241
vn 0.033315 0.194982 0.980241
vn 0.033315 0.194982 0.980241
vn 0.033315 0.194982 0.980241
vn 0.033315 0.194982 0.980241
vn 0.033315 0.194982 0.980241
vn 0.033315 0.194982 0.980241
vn 0.033315 0.194982 0.980241
vn 0.033315 0.194982 0.980241
vn 0.033315 0.194982 0.980241
vn 0.033315 0.194982 0.980241
vn 0.033315 0.194982 0.980241
vn 0.033315 0.194982 0.980241
vn 0.033315 0.194982 0.980241
vn 0.033315 0.194982 0.980241
vn 0.033315 0.194982 0.980241
vn 0.033315 0.194982 0.980241
vn 0.033315 0.194982 0.980241
vn 0.033315 0.194982 0.980241
vn 0.033315 0.194982 0.980241
vn 0.033315 0.194982 0.980241
vn 0.033315 0.194982 0.980241
vn 0.033315 0.194982 0.980241
vn 0.033315 0.194982 0.980241
vn 0.033315 0.194982 0.980241
vn 0.033315 0.194982 0.980241
vn 0.033315 0.194982 0.980241
vn 0.033315 0.194982 0.980241
vn 0.033315 0.194982 0.980241
vn 0.033315 0.194982 0.980241
vn 0.033315 0.194982 0.980241
vn 0.033315 0.194982 0.980241
vn 0.033315 0.194982 0.980241
vn 0.033315 0.194982 0.980241
vn 0.033315 0.194982 0.980241
vn 0.033315 0.194982 0.980241
vn 0.033315 0.194982 0.980241
vn 0.033315 0.194982 0.980241
vn 0.033315 0.194982 0.980241
vn -0.033315 -0.194982 -0.980241
vn -0.033315 -0.194982 -0.980241
vn -0.033315 -0.194982 -0.980241
vn -0.033315 -0.194982 -0.980241
vn -0.033315 -0.194982 -0.980241
vn -0.033315 -0.194982 -0.980241
vn -0.033315 -0.194982 -0.980241
vn -0.033315 -0.194982 -0.980241
vn -0.033315 -0.194982 -0.980241
vn -0.033315 -0.194982 -0.980241
vn -0.033315 -0.194982 -0.980241
vn -0.033315 -0.194982 -0.980241
vn -0.033315 -0.194982 -0.980241
vn -0.033315 -0.194982 -0.980241
vn -0.033315 -0.194982 -0.980241
vn -0.033315 -0.194982 -0.980241
vn -0.033315 -0.194982 -0.980241
vn -0.033315 -0.194982 -0.980241
vn -0.033315 -0.194982 -0.980241
vn -0.033315 -0.194982 -0.980241
vn -0.033315 -0.194982 -0.980241
vn -0.033315 -0.194982 -0.980241
vn -0.033315 -0.194982 -0.980241
vn -0.033315 -0.194982 -0.980241
vn -0.033315 -0.194982 -0.980241
vn -0.033315 -0.194982 -0.980241
vn -0.033315 -0.194982 -0.980241
vn -0.033315 -0.194982 -0.980241
vn -0.033315 -0.194982 -0.980241
vn -0.033315 -0.194982 -0.980241
vn -0.033315 -0.194982 -0.980241
vn -0.033315 -0.194982 -0.980241
vn -0.033315 -0.194982 -0.980241
vn -0.033315 -0.194982 -0.980241
vn -0.033315 -0.194982 -0.980241
vn -0.033315 -0.194982 -0.980241
vn -0.033315 -0.194982 -0.980241
vn -0.033315 -0.194982 -0.980241
vn -0.033315 -0.194982 -0.980241
vn -0.033315 -0.194982 -0.980241
vn -0.033315 -0.194982 -0.980241
vn -0.033315 -0.194982 -0.980241
vn -0.033315 -0.194982 -0.980241
vn -0.033315 -0.194982 -0.980241
vn -0.033315 -0.194982 -0.980241
vn -0.033315 -0.194982 -0.980241
vn -0.033315 -0.194982 -0.980241
vn -0.033315 -0.194982 -0.980241
f 1//1 2//2 3//3
f 4//4 5//5 6//6
f 7//7 8//8 9//9
f 10//10 11//11 12//12
f 13//13 14//14 15//15
f 16//16 17//17 18//18
f 19//19 20//20 21//21
f 22//22 23//23 24//24
f 25//25 26//26 27//27
f 28//28 29//29 30//30
f 31//31 32//32 33//33
f 34//34 35//35 36//36
f 37//37 38//38 39//39
f 40//40 41//41 42//42
f 43//43 44//44 45//45
f 46//46 47//47 48//48
f 49//49 50//50 51//51
f 52//52 53//53 54//54
f 55//55 56//56 57//57
f 58//58 59//59 60//60
f 61//61 62//62 63//63
f 64//64 65//65 66//66
f 67//67 68//68 69//69
f 70//70 71//71 72//72
f 73//73 74//74 75//75
f 76//76 77//77 78//78
f 79//79 80//80 81//81
f 82//82 83//83 84//84
f 85//85 86//86 87//87
f 88//88 89//89 90//90
f 91//91 92//92 93//93
f 94//94 95//95 96//96
f 97//97 98//98 99//99
f 100//100 101//101 102//102
f 103//103 104//104 105//105
f 106//106 107//107 108//108
f 109//109 110//110 111//111
f 112//112 113//113 114//114
f 115//115 116//116 117//117
f 118//118 119//119 120//120
f 121//121 122//122 123//123
f 124//124 125//125 126//126
f 127//127 128//128 129//129
f 130//130 131//131 132//132
f 133//133 134//134 135//135
f 136//136 137//137 138//138
f 139//139 140//140 141//141
f 142//142 143//143 144//144
f 145//145 146//146 147//147
f 148//148 149//149 150//150
f 151//151 152//152 153//153
f 154//154 155//155 156//156
f 157//157 158//158 159//159
f 160//160 161//161 162//162
f 163//163 164//164 165//165
f 166//166 167//167 168//168
f 169//169 170//170 171//171
f 172//172 173//173 174//174
f 175//175 176//176 177//177
f 178//178 179//179 180//180
f 181//181 182//182 183//183
f 184//184 185//185 186//186
f 187//187 188//188 189//189
f 190//190 191//191 192//192
