# spoke_front_12
# Vertices: 192
v 0.997241 56.354546 -21.071732
v 1.997241 35.141342 0.141473
v 1.073938 56.346336 -21.083555
v 1.997241 35.141342 0.141473
v 2.073938 35.133133 0.129648
v 1.073938 56.346336 -21.083555
v 1.073938 56.346336 -21.083555
v 2.073938 35.133133 0.129648
v 1.139378 56.317860 -21.115118
v 2.073938 35.133133 0.129648
v 2.139379 35.104656 0.098086
v 1.139378 56.317860 -21.115118
v 1.139378 56.317860 -21.115118
v 2.139379 35.104656 0.098086
v 1.183600 56.273449 -21.161613
v 2.139379 35.104656 0.098086
v 2.183600 35.060246 0.051591
v 1.183600 56.273449 -21.161613
v 1.183600 56.273449 -21.161613
v 2.183600 35.060246 0.051591
v 1.199870 56.219868 -21.215963
v 2.183600 35.060246 0.051591
v 2.199870 35.006664 -0.002759
v 1.199870 56.219868 -21.215963
v 1.199870 56.219868 -21.215963
v 2.199870 35.006664 -0.002759
v 1.185712 56.165268 -21.269892
v 2.199870 35.006664 -0.002759
v 2.185712 34.952065 -0.056688
v 1.185712 56.165268 -21.269892
v 1.185712 56.165268 -21.269892
v 2.185712 34.952065 -0.056688
v 1.143280 56.117970 -21.315191
v 2.185712 34.952065 -0.056688
v 2.143280 34.904766 -0.101987
v 1.143280 56.117970 -21.315191
v 1.143280 56.117970 -21.315191
v 2.143280 34.904766 -0.101987
v 1.079036 56.085171 -21.344963
v 2.143280 34.904766 -0.101987
v 2.079036 34.871967 -0.131760
v 1.079036 56.085171 -21.344963
v 1.079036 56.085171 -21.344963
v 2.079036 34.871967 -0.131760
v 1.002759 56.071861 -21.354677
v 2.079036 34.871967 -0.131760
v 2.002759 34.858658 -0.141473
v 1.002759 56.071861 -21.354677
v 1.002759 56.071861 -21.354677
v 2.002759 34.858658 -0.141473
v 0.926062 56.080070 -21.342852
v 2.002759 34.858658 -0.141473
v 1.926062 34.866867 -0.129648
v 0.926062 56.080070 -21.342852
v 0.926062 56.080070 -21.342852
v 1.926062 34.866867 -0.129648
v 0.860622 56.108547 -21.311289
v 1.926062 34.866867 -0.129648
v 1.860622 34.895344 -0.098085
v 0.860622 56.108547 -21.311289
v 0.860622 56.108547 -21.311289
v 1.860622 34.895344 -0.098085
v 0.816400 56.152958 -21.264793
v 1.860622 34.895344 -0.098085
v 1.816400 34.939754 -0.051590
v 0.816400 56.152958 -21.264793
v 0.816400 56.152958 -21.264793
v 1.816400 34.939754 -0.051590
v 0.800130 56.206539 -21.210445
v 1.816400 34.939754 -0.051590
v 1.800130 34.993336 0.002759
v 0.800130 56.206539 -21.210445
v 0.800130 56.206539 -21.210445
v 1.800130 34.993336 0.002759
v 0.814288 56.261139 -21.156515
v 1.800130 34.993336 0.002759
v 1.814288 35.047935 0.056689
v 0.814288 56.261139 -21.156515
v 0.814288 56.261139 -21.156515
v 1.814288 35.047935 0.056689
v 0.856720 56.308437 -21.111216
v 1.814288 35.047935 0.056689
v 1.856720 35.095234 0.101988
v 0.856720 56.308437 -21.111216
v 0.856720 56.308437 -21.111216
v 1.856720 35.095234 0.101988
v 0.920964 56.341236 -21.081444
v 1.856720 35.095234 0.101988
v 1.920964 35.128033 0.131760
v 0.920964 56.341236 -21.081444
v 0.920964 56.341236 -21.081444
v 1.920964 35.128033 0.131760
v 0.997241 56.354546 -21.071732
v 1.920964 35.128033 0.131760
v 1.997241 35.141342 0.141473
v 0.997241 56.354546 -21.071732
v 0.997241 56.354546 -21.071732
v 1.073938 56.346336 -21.083555
v 1.000000 56.213203 -21.213203
v 1.073938 56.346336 -21.083555
v 1.139378 56.317860 -21.115118
v 1.000000 56.213203 -21.213203
v 1.139378 56.317860 -21.115118
v 1.183600 56.273449 -21.161613
v 1.000000 56.213203 -21.213203
v 1.183600 56.273449 -21.161613
v 1.199870 56.219868 -21.215963
v 1.000000 56.213203 -21.213203
v 1.199870 56.219868 -21.215963
v 1.185712 56.165268 -21.269892
v 1.000000 56.213203 -21.213203
v 1.185712 56.165268 -21.269892
v 1.143280 56.117970 -21.315191
v 1.000000 56.213203 -21.213203
v 1.143280 56.117970 -21.315191
v 1.079036 56.085171 -21.344963
v 1.000000 56.213203 -21.213203
v 1.079036 56.085171 -21.344963
v 1.002759 56.071861 -21.354677
v 1.000000 56.213203 -21.213203
v 1.002759 56.071861 -21.354677
v 0.926062 56.080070 -21.342852
v 1.000000 56.213203 -21.213203
v 0.926062 56.080070 -21.342852
v 0.860622 56.108547 -21.311289
v 1.000000 56.213203 -21.213203
v 0.860622 56.108547 -21.311289
v 0.816400 56.152958 -21.264793
v 1.000000 56.213203 -21.213203
v 0.816400 56.152958 -21.264793
v 0.800130 56.206539 -21.210445
v 1.000000 56.213203 -21.213203
v 0.800130 56.206539 -21.210445
v 0.814288 56.261139 -21.156515
v 1.000000 56.213203 -21.213203
v 0.814288 56.261139 -21.156515
v 0.856720 56.308437 -21.111216
v 1.000000 56.213203 -21.213203
v 0.856720 56.308437 -21.111216
v 0.920964 56.341236 -21.081444
v 1.000000 56.213203 -21.213203
v 0.920964 56.341236 -21.081444
v 0.997241 56.354546 -21.071732
v 1.000000 56.213203 -21.213203
v 2.073938 35.133133 0.129648
v 1.997241 35.141342 0.141473
v 2.000000 35.000000 0.000000
v 2.139379 35.104656 0.098086
v 2.073938 35.133133 0.129648
v 2.000000 35.000000 0.000000
v 2.183600 35.060246 0.051591
v 2.139379 35.104656 0.098086
v 2.000000 35.000000 0.000000
v 2.199870 35.006664 -0.002759
v 2.183600 35.060246 0.051591
v 2.000000 35.000000 0.000000
v 2.185712 34.952065 -0.056688
v 2.199870 35.006664 -0.002759
v 2.000000 35.000000 0.000000
v 2.143280 34.904766 -0.101987
v 2.185712 34.952065 -0.056688
v 2.000000 35.000000 0.000000
v 2.079036 34.871967 -0.131760
v 2.143280 34.904766 -0.101987
v 2.000000 35.000000 0.000000
v 2.002759 34.858658 -0.141473
v 2.079036 34.871967 -0.131760
v 2.000000 35.000000 0.000000
v 1.926062 34.866867 -0.129648
v 2.002759 34.858658 -0.141473
v 2.000000 35.000000 0.000000
v 1.860622 34.895344 -0.098085
v 1.926062 34.866867 -0.129648
v 2.000000 35.000000 0.000000
v 1.816400 34.939754 -0.051590
v 1.860622 34.895344 -0.098085
v 2.000000 35.000000 0.000000
v 1.800130 34.993336 0.002759
v 1.816400 34.939754 -0.051590
v 2.000000 35.000000 0.000000
v 1.814288 35.047935 0.056689
v 1.800130 34.993336 0.002759
v 2.000000 35.000000 0.000000
v 1.856720 35.095234 0.101988
v 1.814288 35.047935 0.056689
v 2.000000 35.000000 0.000000
v 1.920964 35.128033 0.131760
v 1.856720 35.095234 0.101988
v 2.000000 35.000000 0.000000
v 1.997241 35.141342 0.141473
v 1.920964 35.128033 0.131760
v 2.000000 35.000000 0.000000
vn -0.013795 0.706714 0.707365
vn -0.013795 0.706714 0.707365
vn 0.369690 0.665668 0.648241
vn -0.013795 0.706714 0.707365
vn 0.369690 0.665668 0.648241
vn 0.369690 0.665668 0.648241
vn 0.369690 0.665668 0.648241
vn 0.369690 0.665668 0.648241
vn 0.696892 0.523280 0.490428
vn 0.369690 0.665668 0.648241
vn 0.696892 0.523280 0.490428
vn 0.696892 0.523280 0.490428
vn 0.696892 0.523280 0.490428
vn 0.696892 0.523280 0.490428
vn 0.918000 0.301227 0.257952
vn 0.696892 0.523280 0.490428
vn 0.918000 0.301227 0.257952
vn 0.918000 0.301227 0.257952
vn 0.918000 0.301227 0.257952
vn 0.918000 0.301227 0.257952
vn 0.999350 0.033315 -0.013795
vn 0.918000 0.301227 0.257952
vn 0.999350 0.033315 -0.013795
vn 0.999350 0.033315 -0.013795
vn 0.999350 0.033315 -0.013795
vn 0.999350 0.033315 -0.013795
vn 0.928558 -0.239669 -0.283442
vn 0.999350 0.033315 -0.013795
vn 0.928558 -0.239669 -0.283442
vn 0.928558 -0.239669 -0.283442
vn 0.928558 -0.239669 -0.283442
vn 0.928558 -0.239669 -0.283442
vn 0.716401 -0.476165 -0.509937
vn 0.928558 -0.239669 -0.283442
vn 0.716401 -0.476165 -0.509937
vn 0.716401 -0.476165 -0.509937
vn 0.716401 -0.476165 -0.509937
vn 0.716401 -0.476165 -0.509937
vn 0.395179 -0.640170 -0.658799
vn 0.716401 -0.476165 -0.509937
vn 0.395179 -0.640170 -0.658799
vn 0.395179 -0.640170 -0.658799
vn 0.395179 -0.640170 -0.658799
vn 0.395179 -0.640170 -0.658799
vn 0.013795 -0.706714 -0.707365
vn 0.395179 -0.640170 -0.658799
vn 0.013795 -0.706714 -0.707365
vn 0.013795 -0.706714 -0.707365
vn 0.013795 -0.706714 -0.707365
vn 0.013795 -0.706714 -0.707365
vn -0.369690 -0.665668 -0.648241
vn 0.013795 -0.706714 -0.707365
vn -0.369690 -0.665668 -0.648241
vn -0.369690 -0.665668 -0.648241
vn -0.369690 -0.665668 -0.648241
vn -0.369690 -0.665668 -0.648241
vn -0.696892 -0.523280 -0.490428
vn -0.369690 -0.665668 -0.648241
vn -0.696892 -0.523280 -0.490428
vn -0.696892 -0.523280 -0.490428
vn -0.696892 -0.523280 -0.490428
vn -0.696892 -0.523280 -0.490428
vn -0.918000 -0.301227 -0.257952
vn -0.696892 -0.523280 -0.490428
vn -0.918000 -0.301227 -0.257952
vn -0.918000 -0.301227 -0.257952
vn -0.918000 -0.301227 -0.257952
vn -0.918000 -0.301227 -0.257952
vn -0.999350 -0.033315 0.013795
vn -0.918000 -0.301227 -0.257952
vn -0.999350 -0.033315 0.013795
vn -0.999350 -0.033315 0.013795
vn -0.999350 -0.033315 0.013795
vn -0.999350 -0.033315 0.013795
vn -0.928558 0.239669 0.283442
vn -0.999350 -0.033315 0.013795
vn -0.928558 0.239669 0.283442
vn -0.928558 0.239669 0.283442
vn -0.928558 0.239669 0.283442
vn -0.928558 0.239669 0.283442
vn -0.716401 0.476165 0.509937
vn -0.928558 0.239669 0.283442
vn -0.716401 0.476165 0.509937
vn -0.716401 0.476165 0.509937
vn -0.716401 0.476165 0.509937
vn -0.716401 0.476165 0.509937
vn -0.395179 0.640170 0.658799
vn -0.716401 0.476165 0.509937
vn -0.395179 0.640170 0.658799
vn -0.395179 0.640170 0.658799
vn -0.395179 0.640170 0.658799
vn -0.395179 0.640170 0.658799
vn -0.013795 0.706714 0.707365
vn -0.395179 0.640170 0.658799
vn -0.013795 0.706714 0.707365
vn -0.013795 0.706714 0.707365
vn -0.033315 0.706714 -0.706714
vn -0.033315 0.706714 -0.706714
vn -0.033315 0.706714 -0.706714
vn -0.033315 0.706714 -0.706714
vn -0.033315 0.706714 -0.706714
vn -0.033315 0.706714 -0.706714
vn -0.033315 0.706714 -0.706714
vn -0.033315 0.706714 -0.706714
vn -0.033315 0.706714 -0.706714
vn -0.033315 0.706714 -0.706714
vn -0.033315 0.706714 -0.706714
vn -0.033315 0.706714 -0.706714
vn -0.033315 0.706714 -0.706714
vn -0.033315 0.706714 -0.706714
vn -0.033315 0.706714 -0.706714
vn -0.033315 0.706714 -0.706714
vn -0.033315 0.706714 -0.706714
vn -0.033315 0.706714 -0.706714
vn -0.033315 0.706714 -0.706714
vn -0.033315 0.706714 -0.706714
vn -0.033315 0.706714 -0.706714
vn -0.033315 0.706714 -0.706714
vn -0.033315 0.706714 -0.706714
vn -0.033315 0.706714 -0.706714
vn -0.033315 0.706714 -0.706714
vn -0.033315 0.706714 -0.706714
vn -0.033315 0.706714 -0.706714
vn -0.033315 0.706714 -0.706714
vn -0.033315 0.706714 -0.706714
vn -0.033315 0.706714 -0.706714
vn -0.033315 0.706714 -0.706714
vn -0.033315 0.706714 -0.706714
vn -0.033315 0.706714 -0.706714
vn -0.033315 0.706714 -0.706714
vn -0.033315 0.706714 -0.706714
vn -0.033315 0.706714 -0.706714
vn -0.033315 0.706714 -0.706714
vn -0.033315 0.706714 -0.706714
vn -0.033315 0.706714 -0.706714
vn -0.033315 0.706714 -0.706714
vn -0.033315 0.706714 -0.706714
vn -0.033315 0.706714 -0.706714
vn -0.033315 0.706714 -0.706714
vn -0.033315 0.706714 -0.706714
vn -0.033315 0.706714 -0.706714
vn -0.033315 0.706714 -0.706714
vn -0.033315 0.706714 -0.706714
vn -0.033315 0.706714 -0.706714
vn 0.033315 -0.706714 0.706714
vn 0.033315 -0.706714 0.706714
vn 0.033315 -0.706714 0.706714
vn 0.033315 -0.706714 0.706714
vn 0.033315 -0.706714 0.706714
vn 0.033315 -0.706714 0.706714
vn 0.033315 -0.706714 0.706714
vn 0.033315 -0.706714 0.706714
vn 0.033315 -0.706714 0.706714
vn 0.033315 -0.706714 0.706714
vn 0.033315 -0.706714 0.706714
vn 0.033315 -0.706714 0.706714
vn 0.033315 -0.706714 0.706714
vn 0.033315 -0.706714 0.706714
vn 0.033315 -0.706714 0.706714
vn 0.033315 -0.706714 0.706714
vn 0.033315 -0.706714 0.706714
vn 0.033315 -0.706714 0.706714
vn 0.033315 -0.706714 0.706714
vn 0.033315 -0.706714 0.706714
vn 0.033315 -0.706714 0.706714
vn 0.033315 -0.706714 0.706714
vn 0.033315 -0.706714 0.706714
vn 0.033315 -0.706714 0.706714
vn 0.033315 -0.706714 0.706714
vn 0.033315 -0.706714 0.706714
vn 0.033315 -0.706714 0.706714
vn 0.033315 -0.706714 0.706714
vn 0.033315 -0.706714 0.706714
vn 0.033315 -0.706714 0.706714
vn 0.033315 -0.706714 0.706714
vn 0.033315 -0.706714 0.706714
vn 0.033315 -0.706714 0.706714
vn 0.033315 -0.706714 0.706714
vn 0.033315 -0.706714 0.706714
vn 0.033315 -0.706714 0.706714
vn 0.033315 -0.706714 0.706714
vn 0.033315 -0.706714 0.706714
vn 0.033315 -0.706714 0.706714
vn 0.033315 -0.706714 0.706714
vn 0.033315 -0.706714 0.706714
vn 0.033315 -0.706714 0.706714
vn 0.033315 -0.706714 0.706714
vn 0.033315 -0.706714 0.706714
vn 0.033315 -0.706714 0.706714
vn 0.033315 -0.706714 0.706714
vn 0.033315 -0.706714 0.706714
vn 0.033315 -0.706714 0.706714
f 1//1 2//2 3//3
f 4//4 5//5 6//6
f 7//7 8//8 9//9
f 10//10 11//11 12//12
f 13//13 14//14 15//15
f 16//16 17//17 18//18
f 19//19 20//20 21//21
f 22//22 23//23 24//24
f 25//25 26//26 27//27
f 28//28 29//29 30//30
f 31//31 32//32 33//33
f 34//34 35//35 36//36
f 37//37 38//38 39//39
f 40//40 41//41 42//42
f 43//43 44//44 45//45
f 46//46 47//47 48//48
f 49//49 50//50 51//51
f 52//52 53//53 54//54
f 55//55 56//56 57//57
f 58//58 59//59 60//60
f 61//61 62//62 63//63
f 64//64 65//65 66//66
f 67//67 68//68 69//69
f 70//70 71//71 72//72
f 73//73 74//74 75//75
f 76//76 77//77 78//78
f 79//79 80//80 81//81
f 82//82 83//83 84//84
f 85//85 86//86 87//87
f 88//88 89//89 90//90
f 91//91 92//92 93//93
f 94//94 95//95 96//96
f 97//97 98//98 99//99
f 100//100 101//101 102//102
f 103//103 104//104 105//105
f 106//106 107//107 108//108
f 109//109 110//110 111//111
f 112//112 113//113 114//114
f 115//115 116//116 117//117
f 118//118 119//119 120//120
f 121//121 122//122 123//123
f 124//124 125//125 126//126
f 127//127 128//128 129//129
f 130//130 131//131 132//132
f 133//133 134//134 135//135
f 136//136 137//137 138//138
f 139//139 140//140 141//141
f 142//142 143//143 144//144
f 145//145 146//146 147//147
f 148//148 149//149 150//150
f 151//151 152//152 153//153
f 154//154 155//155 156//156
f 157//157 158//158 159//159
f 160//160 161//161 162//162
f 163//163 164//164 165//165
f 166//166 167//167 168//168
f 169//169 170//170 171//171
f 172//172 173//173 174//174
f 175//175 176//176 177//177
f 178//178 179//179 180//180
f 181//181 182//182 183//183
f 184//184 185//185 186//186
f 187//187 188//188 189//189
f 190//190 191//191 192//192
