# spoke_back_21
# Vertices: 192
v -0.978107 10.166964 -16.831995
v -1.978107 35.111053 -0.164888
v -0.903740 10.155961 -16.811066
v -1.978107 35.111053 -0.164888
v -1.903740 35.100048 -0.143959
v -0.903740 10.155961 -16.811066
v -0.903740 10.155961 -16.811066
v -1.903740 35.100048 -0.143959
v -0.844027 10.129725 -16.768221
v -1.903740 35.100048 -0.143959
v -1.844027 35.073814 -0.101113
v -0.844027 10.129725 -16.768221
v -0.844027 10.129725 -16.768221
v -1.844027 35.073814 -0.101113
v -0.808060 10.092254 -16.709980
v -1.844027 35.073814 -0.101113
v -1.808060 35.036343 -0.042874
v -0.808060 10.092254 -16.709980
v -0.808060 10.092254 -16.709980
v -1.808060 35.036343 -0.042874
v -0.801314 10.049249 -16.645214
v -1.808060 35.036343 -0.042874
v -1.801314 34.993336 0.021893
v -0.801314 10.049249 -16.645214
v -0.801314 10.049249 -16.645214
v -1.801314 34.993336 0.021893
v -0.824816 10.007257 -16.583780
v -1.801314 34.993336 0.021893
v -1.824816 34.951347 0.083326
v -0.824816 10.007257 -16.583780
v -0.824816 10.007257 -16.583780
v -1.824816 34.951347 0.083326
v -0.874988 9.972674 -16.535032
v -1.824816 34.951347 0.083326
v -1.874988 34.916763 0.132074
v -0.874988 9.972674 -16.535032
v -0.874988 9.972674 -16.535032
v -1.874988 34.916763 0.132074
v -0.944192 9.950763 -16.506392
v -1.874988 34.916763 0.132074
v -1.944192 34.894852 0.160715
v -0.944192 9.950763 -16.506392
v -0.944192 9.950763 -16.506392
v -1.944192 34.894852 0.160715
v -1.021893 9.944860 -16.502218
v -1.944192 34.894852 0.160715
v -2.021893 34.888947 0.164888
v -1.021893 9.944860 -16.502218
v -1.021893 9.944860 -16.502218
v -2.021893 34.888947 0.164888
v -1.096260 9.955862 -16.523148
v -2.021893 34.888947 0.164888
v -2.096260 34.899952 0.143959
v -1.096260 9.955862 -16.523148
v -1.096260 9.955862 -16.523148
v -2.096260 34.899952 0.143959
v -1.155973 9.982097 -16.565994
v -2.096260 34.899952 0.143959
v -2.155973 34.926186 0.101113
v -1.155973 9.982097 -16.565994
v -1.155973 9.982097 -16.565994
v -2.155973 34.926186 0.101113
v -1.191940 10.019569 -16.624233
v -2.155973 34.926186 0.101113
v -2.191940 34.963657 0.042874
v -1.191940 10.019569 -16.624233
v -1.191940 10.019569 -16.624233
v -2.191940 34.963657 0.042874
v -1.198686 10.062574 -16.688999
v -2.191940 34.963657 0.042874
v -2.198687 35.006664 -0.021893
v -1.198686 10.062574 -16.688999
v -1.198686 10.062574 -16.688999
v -2.198687 35.006664 -0.021893
v -1.175184 10.104565 -16.750433
v -2.198687 35.006664 -0.021893
v -2.175184 35.048653 -0.083326
v -1.175184 10.104565 -16.750433
v -1.175184 10.104565 -16.750433
v -2.175184 35.048653 -0.083326
v -1.125012 10.139149 -16.799181
v -2.175184 35.048653 -0.083326
v -2.125012 35.083237 -0.132074
v -1.125012 10.139149 -16.799181
v -1.125012 10.139149 -16.799181
v -2.125012 35.083237 -0.132074
v -1.055808 10.161060 -16.827822
v -2.125012 35.083237 -0.132074
v -2.055808 35.105148 -0.160715
v -1.055808 10.161060 -16.827822
v -1.055808 10.161060 -16.827822
v -2.055808 35.105148 -0.160715
v -0.978107 10.166964 -16.831995
v -2.055808 35.105148 -0.160715
v -1.978107 35.111053 -0.164888
v -0.978107 10.166964 -16.831995
v -0.978107 10.166964 -16.831995
v -0.903740 10.155961 -16.811066
v -1.000000 10.055911 -16.667107
v -0.903740 10.155961 -16.811066
v -0.844027 10.129725 -16.768221
v -1.000000 10.055911 -16.667107
v -0.844027 10.129725 -16.768221
v -0.808060 10.092254 -16.709980
v -1.000000 10.055911 -16.667107
v -0.808060 10.092254 -16.709980
v -0.801314 10.049249 -16.645214
v -1.000000 10.055911 -16.667107
v -0.801314 10.049249 -16.645214
v -0.824816 10.007257 -16.583780
v -1.000000 10.055911 -16.667107
v -0.824816 10.007257 -16.583780
v -0.874988 9.972674 -16.535032
v -1.000000 10.055911 -16.667107
v -0.874988 9.972674 -16.535032
v -0.944192 9.950763 -16.506392
v -1.000000 10.055911 -16.667107
v -0.944192 9.950763 -16.506392
v -1.021893 9.944860 -16.502218
v -1.000000 10.055911 -16.667107
v -1.021893 9.944860 -16.502218
v -1.096260 9.955862 -16.523148
v -1.000000 10.055911 -16.667107
v -1.096260 9.955862 -16.523148
v -1.155973 9.982097 -16.565994
v -1.000000 10.055911 -16.667107
v -1.155973 9.982097 -16.565994
v -1.191940 10.019569 -16.624233
v -1.000000 10.055911 -16.667107
v -1.191940 10.019569 -16.624233
v -1.198686 10.062574 -16.688999
v -1.000000 10.055911 -16.667107
v -1.198686 10.062574 -16.688999
v -1.175184 10.104565 -16.750433
v -1.000000 10.055911 -16.667107
v -1.175184 10.104565 -16.750433
v -1.125012 10.139149 -16.799181
v -1.000000 10.055911 -16.667107
v -1.125012 10.139149 -16.799181
v -1.055808 10.161060 -16.827822
v -1.000000 10.055911 -16.667107
v -1.055808 10.161060 -16.827822
v -0.978107 10.166964 -16.831995
v -1.000000 10.055911 -16.667107
v -1.903740 35.100048 -0.143959
v -1.978107 35.111053 -0.164888
v -2.000000 35.000000 0.000000
v -1.844027 35.073814 -0.101113
v -1.903740 35.100048 -0.143959
v -2.000000 35.000000 0.000000
v -1.808060 35.036343 -0.042874
v -1.844027 35.073814 -0.101113
v -2.000000 35.000000 0.000000
v -1.801314 34.993336 0.021893
v -1.808060 35.036343 -0.042874
v -2.000000 35.000000 0.000000
v -1.824816 34.951347 0.083326
v -1.801314 34.993336 0.021893
v -2.000000 35.000000 0.000000
v -1.874988 34.916763 0.132074
v -1.824816 34.951347 0.083326
v -2.000000 35.000000 0.000000
v -1.944192 34.894852 0.160715
v -1.874988 34.916763 0.132074
v -2.000000 35.000000 0.000000
v -2.021893 34.888947 0.164888
v -1.944192 34.894852 0.160715
v -2.000000 35.000000 0.000000
v -2.096260 34.899952 0.143959
v -2.021893 34.888947 0.164888
v -2.000000 35.000000 0.000000
v -2.155973 34.926186 0.101113
v -2.096260 34.899952 0.143959
v -2.000000 35.000000 0.000000
v -2.191940 34.963657 0.042874
v -2.155973 34.926186 0.101113
v -2.000000 35.000000 0.000000
v -2.198687 35.006664 -0.021893
v -2.191940 34.963657 0.042874
v -2.000000 35.000000 0.000000
v -2.175184 35.048653 -0.083326
v -2.198687 35.006664 -0.021893
v -2.000000 35.000000 0.000000
v -2.125012 35.083237 -0.132074
v -2.175184 35.048653 -0.083326
v -2.000000 35.000000 0.000000
v -2.055808 35.105148 -0.160715
v -2.125012 35.083237 -0.132074
v -2.000000 35.000000 0.000000
v -1.978107 35.111053 -0.164888
v -2.055808 35.105148 -0.160715
v -2.000000 35.000000 0.000000
vn 0.109464 0.555262 -0.824440
vn 0.109464 0.555262 -0.824440
vn 0.481301 0.500246 -0.719794
vn 0.109464 0.555262 -0.824440
vn 0.481301 0.500246 -0.719794
vn 0.481301 0.500246 -0.719794
vn 0.481301 0.500246 -0.719794
vn 0.481301 0.500246 -0.719794
vn 0.779865 0.369072 -0.505565
vn 0.481301 0.500246 -0.719794
vn 0.779865 0.369072 -0.505565
vn 0.779865 0.369072 -0.505565
vn 0.779865 0.369072 -0.505565
vn 0.779865 0.369072 -0.505565
vn 0.959702 0.181711 -0.214369
vn 0.779865 0.369072 -0.505565
vn 0.959702 0.181711 -0.214369
vn 0.959702 0.181711 -0.214369
vn 0.959702 0.181711 -0.214369
vn 0.959702 0.181711 -0.214369
vn 0.993432 -0.033315 0.109464
vn 0.959702 0.181711 -0.214369
vn 0.993432 -0.033315 0.109464
vn 0.993432 -0.033315 0.109464
vn 0.993432 -0.033315 0.109464
vn 0.993432 -0.033315 0.109464
vn 0.875922 -0.243268 0.416631
vn 0.993432 -0.033315 0.109464
vn 0.875922 -0.243268 0.416631
vn 0.875922 -0.243268 0.416631
vn 0.875922 -0.243268 0.416631
vn 0.875922 -0.243268 0.416631
vn 0.625060 -0.416187 0.660370
vn 0.875922 -0.243268 0.416631
vn 0.625060 -0.416187 0.660370
vn 0.625060 -0.416187 0.660370
vn 0.625060 -0.416187 0.660370
vn 0.625060 -0.416187 0.660370
vn 0.279039 -0.525744 0.803574
vn 0.625060 -0.416187 0.660370
vn 0.279039 -0.525744 0.803574
vn 0.279039 -0.525744 0.803574
vn 0.279039 -0.525744 0.803574
vn 0.279039 -0.525744 0.803574
vn -0.109464 -0.555262 0.824440
vn 0.279039 -0.525744 0.803574
vn -0.109464 -0.555262 0.824440
vn -0.109464 -0.555262 0.824440
vn -0.109464 -0.555262 0.824440
vn -0.109464 -0.555262 0.824440
vn -0.481301 -0.500246 0.719794
vn -0.109464 -0.555262 0.824440
vn -0.481301 -0.500246 0.719794
vn -0.481301 -0.500246 0.719794
vn -0.481301 -0.500246 0.719794
vn -0.481301 -0.500246 0.719794
vn -0.779865 -0.369072 0.505565
vn -0.481301 -0.500246 0.719794
vn -0.779865 -0.369072 0.505565
vn -0.779865 -0.369072 0.505565
vn -0.779865 -0.369072 0.505565
vn -0.779865 -0.369072 0.505565
vn -0.959702 -0.181711 0.214369
vn -0.779865 -0.369072 0.505565
vn -0.959702 -0.181711 0.214369
vn -0.959702 -0.181711 0.214369
vn -0.959702 -0.181711 0.214369
vn -0.959702 -0.181711 0.214369
vn -0.993432 0.033315 -0.109464
vn -0.959702 -0.181711 0.214369
vn -0.993432 0.033315 -0.109464
vn -0.993432 0.033315 -0.109464
vn -0.993432 0.033315 -0.109464
vn -0.993432 0.033315 -0.109464
vn -0.875922 0.243268 -0.416631
vn -0.993432 0.033315 -0.109464
vn -0.875922 0.243268 -0.416631
vn -0.875922 0.243268 -0.416631
vn -0.875922 0.243268 -0.416631
vn -0.875922 0.243268 -0.416631
vn -0.625060 0.416187 -0.660370
vn -0.875922 0.243268 -0.416631
vn -0.625060 0.416187 -0.660370
vn -0.625060 0.416187 -0.660370
vn -0.625060 0.416187 -0.660370
vn -0.625060 0.416187 -0.660370
vn -0.279039 0.525744 -0.803574
vn -0.625060 0.416187 -0.660370
vn -0.279039 0.525744 -0.803574
vn -0.279039 0.525744 -0.803574
vn -0.279039 0.525744 -0.803574
vn -0.279039 0.525744 -0.803574
vn 0.109464 0.555262 -0.824440
vn -0.279039 0.525744 -0.803574
vn 0.109464 0.555262 -0.824440
vn 0.109464 0.555262 -0.824440
vn 0.033315 -0.831008 -0.555262
vn 0.033315 -0.831008 -0.555262
vn 0.033315 -0.831008 -0.555262
vn 0.033315 -0.831008 -0.555262
vn 0.033315 -0.831008 -0.555262
vn 0.033315 -0.831008 -0.555262
vn 0.033315 -0.831008 -0.555262
vn 0.033315 -0.831008 -0.555262
vn 0.033315 -0.831008 -0.555262
vn 0.033315 -0.831008 -0.555262
vn 0.033315 -0.831008 -0.555262
vn 0.033315 -0.831008 -0.555262
vn 0.033315 -0.831008 -0.555262
vn 0.033315 -0.831008 -0.555262
vn 0.033315 -0.831008 -0.555262
vn 0.033315 -0.831008 -0.555262
vn 0.033315 -0.831008 -0.555262
vn 0.033315 -0.831008 -0.555262
vn 0.033315 -0.831008 -0.555262
vn 0.033315 -0.831008 -0.555262
vn 0.033315 -0.831008 -0.555262
vn 0.033315 -0.831008 -0.555262
vn 0.033315 -0.831008 -0.555262
vn 0.033315 -0.831008 -0.555262
vn 0.033315 -0.831008 -0.555262
vn 0.033315 -0.831008 -0.555262
vn 0.033315 -0.831008 -0.555262
vn 0.033315 -0.831008 -0.555262
vn 0.033315 -0.831008 -0.555262
vn 0.033315 -0.831008 -0.555262
vn 0.033315 -0.831008 -0.555262
vn 0.033315 -0.831008 -0.555262
vn 0.033315 -0.831008 -0.555262
vn 0.033315 -0.831008 -0.555262
vn 0.033315 -0.831008 -0.555262
vn 0.033315 -0.831008 -0.555262
vn 0.033315 -0.831008 -0.555262
vn 0.033315 -0.831008 -0.555262
vn 0.033315 -0.831008 -0.555262
vn 0.033315 -0.831008 -0.555262
vn 0.033315 -0.831008 -0.555262
vn 0.033315 -0.831008 -0.555262
vn 0.033315 -0.831008 -0.555262
vn 0.033315 -0.831008 -0.555262
vn 0.033315 -0.831008 -0.555262
vn 0.033315 -0.831008 -0.555262
vn 0.033315 -0.831008 -0.555262
vn 0.033315 -0.831008 -0.555262
vn -0.033315 0.831008 0.555262
vn -0.033315 0.831008 0.555262
vn -0.033315 0.831008 0.555262
vn -0.033315 0.831008 0.555262
vn -0.033315 0.831008 0.555262
vn -0.033315 0.831008 0.555262
vn -0.033315 0.831008 0.555262
vn -0.033315 0.831008 0.555262
vn -0.033315 0.831008 0.555262
vn -0.033315 0.831008 0.555262
vn -0.033315 0.831008 0.555262
vn -0.033315 0.831008 0.555262
vn -0.033315 0.831008 0.555262
vn -0.033315 0.831008 0.555262
vn -0.033315 0.831008 0.555262
vn -0.033315 0.831008 0.555262
vn -0.033315 0.831008 0.555262
vn -0.033315 0.831008 0.555262
vn -0.033315 0.831008 0.555262
vn -0.033315 0.831008 0.555262
vn -0.033315 0.831008 0.555262
vn -0.033315 0.831008 0.555262
vn -0.033315 0.831008 0.555262
vn -0.033315 0.831008 0.555262
vn -0.033315 0.831008 0.555262
vn -0.033315 0.831008 0.555262
vn -0.033315 0.831008 0.555262
vn -0.033315 0.831008 0.555262
vn -0.033315 0.831008 0.555262
vn -0.033315 0.831008 0.555262
vn -0.033315 0.831008 0.555262
vn -0.033315 0.831008 0.555262
vn -0.033315 0.831008 0.555262
vn -0.033315 0.831008 0.555262
vn -0.033315 0.831008 0.555262
vn -0.033315 0.831008 0.555262
vn -0.033315 0.831008 0.555262
vn -0.033315 0.831008 0.555262
vn -0.033315 0.831008 0.555262
vn -0.033315 0.831008 0.555262
vn -0.033315 0.831008 0.555262
vn -0.033315 0.831008 0.555262
vn -0.033315 0.831008 0.555262
vn -0.033315 0.831008 0.555262
vn -0.033315 0.831008 0.555262
vn -0.033315 0.831008 0.555262
vn -0.033315 0.831008 0.555262
vn -0.033315 0.831008 0.555262
f 1//1 2//2 3//3
f 4//4 5//5 6//6
f 7//7 8//8 9//9
f 10//10 11//11 12//12
f 13//13 14//14 15//15
f 16//16 17//17 18//18
f 19//19 20//20 21//21
f 22//22 23//23 24//24
f 25//25 26//26 27//27
f 28//28 29//29 30//30
f 31//31 32//32 33//33
f 34//34 35//35 36//36
f 37//37 38//38 39//39
f 40//40 41//41 42//42
f 43//43 44//44 45//45
f 46//46 47//47 48//48
f 49//49 50//50 51//51
f 52//52 53//53 54//54
f 55//55 56//56 57//57
f 58//58 59//59 60//60
f 61//61 62//62 63//63
f 64//64 65//65 66//66
f 67//67 68//68 69//69
f 70//70 71//71 72//72
f 73//73 74//74 75//75
f 76//76 77//77 78//78
f 79//79 80//80 81//81
f 82//82 83//83 84//84
f 85//85 86//86 87//87
f 88//88 89//89 90//90
f 91//91 92//92 93//93
f 94//94 95//95 96//96
f 97//97 98//98 99//99
f 100//100 101//101 102//102
f 103//103 104//104 105//105
f 106//106 107//107 108//108
f 109//109 110//110 111//111
f 112//112 113//113 114//114
f 115//115 116//116 117//117
f 118//118 119//119 120//120
f 121//121 122//122 123//123
f 124//124 125//125 126//126
f 127//127 128//128 129//129
f 130//130 131//131 132//132
f 133//133 134//134 135//135
f 136//136 137//137 138//138
f 139//139 140//140 141//141
f 142//142 143//143 144//144
f 145//145 146//146 147//147
f 148//148 149//149 150//150
f 151//151 152//152 153//153
f 154//154 155//155 156//156
f 157//157 158//158 159//159
f 160//160 161//161 162//162
f 163//163 164//164 165//165
f 166//166 167//167 168//168
f 169//169 170//170 171//171
f 172//172 173//173 174//174
f 175//175 176//176 177//177
f 178//178 179//179 180//180
f 181//181 182//182 183//183
f 184//184 185//185 186//186
f 187//187 188//188 189//189
f 190//190 191//191 192//192
