# spoke_back_23
# Vertices: 192
v -0.934250 5.615438 -6.037524
v -1.934250 35.038998 -0.184814
v -0.867018 5.609920 -5.998294
v -1.934250 35.038998 -0.184814
v -1.867018 35.033478 -0.145585
v -0.867018 5.609920 -5.998294
v -0.867018 5.609920 -5.998294
v -1.867018 35.033478 -0.145585
v -0.820030 5.599305 -5.936901
v -1.867018 35.033478 -0.145585
v -1.820030 35.022865 -0.084191
v -0.820030 5.599305 -5.936901
v -0.820030 5.599305 -5.936901
v -1.820030 35.022865 -0.084191
v -0.800442 5.585209 -5.862690
v -1.820030 35.022865 -0.084191
v -1.800442 35.008766 -0.009980
v -0.800442 5.585209 -5.862690
v -0.800442 5.585209 -5.862690
v -1.800442 35.008766 -0.009980
v -0.811234 5.569778 -5.786960
v -1.800442 35.008766 -0.009980
v -1.811234 34.993336 0.065750
v -0.811234 5.569778 -5.786960
v -0.811234 5.569778 -5.786960
v -1.811234 34.993336 0.065750
v -0.850764 5.555362 -5.721240
v -1.811234 34.993336 0.065750
v -1.850764 34.978920 0.131470
v -0.850764 5.555362 -5.721240
v -0.850764 5.555362 -5.721240
v -1.850764 34.978920 0.131470
v -0.913014 5.544155 -5.675534
v -1.850764 34.978920 0.131470
v -1.913014 34.967712 0.177175
v -0.913014 5.544155 -5.675534
v -0.913014 5.544155 -5.675534
v -1.913014 34.967712 0.177175
v -0.988507 5.537864 -5.656803
v -1.913014 34.967712 0.177175
v -1.988507 34.961422 0.195907
v -0.988507 5.537864 -5.656803
v -0.988507 5.537864 -5.656803
v -1.988507 34.961422 0.195907
v -1.065750 5.537445 -5.667896
v -1.988507 34.961422 0.195907
v -2.065750 34.961002 0.184814
v -1.065750 5.537445 -5.667896
v -1.065750 5.537445 -5.667896
v -2.065750 34.961002 0.184814
v -1.132982 5.542963 -5.707125
v -2.065750 34.961002 0.184814
v -2.132982 34.966522 0.145585
v -1.132982 5.542963 -5.707125
v -1.132982 5.542963 -5.707125
v -2.132982 34.966522 0.145585
v -1.179970 5.553578 -5.768518
v -2.132982 34.966522 0.145585
v -2.179970 34.977139 0.084191
v -1.179970 5.553578 -5.768518
v -1.179970 5.553578 -5.768518
v -2.179970 34.977139 0.084191
v -1.199558 5.567674 -5.842729
v -2.179970 34.977139 0.084191
v -2.199558 34.991234 0.009981
v -1.199558 5.567674 -5.842729
v -1.199558 5.567674 -5.842729
v -2.199558 34.991234 0.009981
v -1.188766 5.583104 -5.918459
v -2.199558 34.991234 0.009981
v -2.188766 35.006664 -0.065750
v -1.188766 5.583104 -5.918459
v -1.188766 5.583104 -5.918459
v -2.188766 35.006664 -0.065750
v -1.149236 5.597520 -5.984180
v -2.188766 35.006664 -0.065750
v -2.149236 35.021080 -0.131470
v -1.149236 5.597520 -5.984180
v -1.149236 5.597520 -5.984180
v -2.149236 35.021080 -0.131470
v -1.086986 5.608727 -6.029885
v -2.149236 35.021080 -0.131470
v -2.086986 35.032288 -0.177175
v -1.086986 5.608727 -6.029885
v -1.086986 5.608727 -6.029885
v -2.086986 35.032288 -0.177175
v -1.011493 5.615019 -6.048617
v -2.086986 35.032288 -0.177175
v -2.011493 35.038578 -0.195907
v -1.011493 5.615019 -6.048617
v -1.011493 5.615019 -6.048617
v -2.011493 35.038578 -0.195907
v -0.934250 5.615438 -6.037524
v -2.011493 35.038578 -0.195907
v -1.934250 35.038998 -0.184814
v -0.934250 5.615438 -6.037524
v -0.934250 5.615438 -6.037524
v -0.867018 5.609920 -5.998294
v -1.000000 5.576441 -5.852710
v -0.867018 5.609920 -5.998294
v -0.820030 5.599305 -5.936901
v -1.000000 5.576441 -5.852710
v -0.820030 5.599305 -5.936901
v -0.800442 5.585209 -5.862690
v -1.000000 5.576441 -5.852710
v -0.800442 5.585209 -5.862690
v -0.811234 5.569778 -5.786960
v -1.000000 5.576441 -5.852710
v -0.811234 5.569778 -5.786960
v -0.850764 5.555362 -5.721240
v -1.000000 5.576441 -5.852710
v -0.850764 5.555362 -5.721240
v -0.913014 5.544155 -5.675534
v -1.000000 5.576441 -5.852710
v -0.913014 5.544155 -5.675534
v -0.988507 5.537864 -5.656803
v -1.000000 5.576441 -5.852710
v -0.988507 5.537864 -5.656803
v -1.065750 5.537445 -5.667896
v -1.000000 5.576441 -5.852710
v -1.065750 5.537445 -5.667896
v -1.132982 5.542963 -5.707125
v -1.000000 5.576441 -5.852710
v -1.132982 5.542963 -5.707125
v -1.179970 5.553578 -5.768518
v -1.000000 5.576441 -5.852710
v -1.179970 5.553578 -5.768518
v -1.199558 5.567674 -5.842729
v -1.000000 5.576441 -5.852710
v -1.199558 5.567674 -5.842729
v -1.188766 5.583104 -5.918459
v -1.000000 5.576441 -5.852710
v -1.188766 5.583104 -5.918459
v -1.149236 5.597520 -5.984180
v -1.000000 5.576441 -5.852710
v -1.149236 5.597520 -5.984180
v -1.086986 5.608727 -6.029885
v -1.000000 5.576441 -5.852710
v -1.086986 5.608727 -6.029885
v -1.011493 5.615019 -6.048617
v -1.000000 5.576441 -5.852710
v -1.011493 5.615019 -6.048617
v -0.934250 5.615438 -6.037524
v -1.000000 5.576441 -5.852710
v -1.867018 35.033478 -0.145585
v -1.934250 35.038998 -0.184814
v -2.000000 35.000000 0.000000
v -1.820030 35.022865 -0.084191
v -1.867018 35.033478 -0.145585
v -2.000000 35.000000 0.000000
v -1.800442 35.008766 -0.009980
v -1.820030 35.022865 -0.084191
v -2.000000 35.000000 0.000000
v -1.811234 34.993336 0.065750
v -1.800442 35.008766 -0.009980
v -2.000000 35.000000 0.000000
v -1.850764 34.978920 0.131470
v -1.811234 34.993336 0.065750
v -2.000000 35.000000 0.000000
v -1.913014 34.967712 0.177175
v -1.850764 34.978920 0.131470
v -2.000000 35.000000 0.000000
v -1.988507 34.961422 0.195907
v -1.913014 34.967712 0.177175
v -2.000000 35.000000 0.000000
v -2.065750 34.961002 0.184814
v -1.988507 34.961422 0.195907
v -2.000000 35.000000 0.000000
v -2.132982 34.966522 0.145585
v -2.065750 34.961002 0.184814
v -2.000000 35.000000 0.000000
v -2.179970 34.977139 0.084191
v -2.132982 34.966522 0.145585
v -2.000000 35.000000 0.000000
v -2.199558 34.991234 0.009981
v -2.179970 34.977139 0.084191
v -2.000000 35.000000 0.000000
v -2.188766 35.006664 -0.065750
v -2.199558 34.991234 0.009981
v -2.000000 35.000000 0.000000
v -2.149236 35.021080 -0.131470
v -2.188766 35.006664 -0.065750
v -2.000000 35.000000 0.000000
v -2.086986 35.032288 -0.177175
v -2.149236 35.021080 -0.131470
v -2.000000 35.000000 0.000000
v -2.011493 35.038578 -0.195907
v -2.086986 35.032288 -0.177175
v -2.000000 35.000000 0.000000
v -1.934250 35.038998 -0.184814
v -2.011493 35.038578 -0.195907
v -2.000000 35.000000 0.000000
vn 0.328749 0.194982 -0.924071
vn 0.328749 0.194982 -0.924071
vn 0.664912 0.167391 -0.727923
vn 0.328749 0.194982 -0.924071
vn 0.664912 0.167391 -0.727923
vn 0.664912 0.167391 -0.727923
vn 0.664912 0.167391 -0.727923
vn 0.664912 0.167391 -0.727923
vn 0.899849 0.114316 -0.420956
vn 0.664912 0.167391 -0.727923
vn 0.899849 0.114316 -0.420956
vn 0.899849 0.114316 -0.420956
vn 0.899849 0.114316 -0.420956
vn 0.899849 0.114316 -0.420956
vn 0.997792 0.043838 -0.049902
vn 0.899849 0.114316 -0.420956
vn 0.997792 0.043838 -0.049902
vn 0.997792 0.043838 -0.049902
vn 0.997792 0.043838 -0.049902
vn 0.997792 0.043838 -0.049902
vn 0.943830 -0.033315 0.328749
vn 0.997792 0.043838 -0.049902
vn 0.943830 -0.033315 0.328749
vn 0.943830 -0.033315 0.328749
vn 0.943830 -0.033315 0.328749
vn 0.943830 -0.033315 0.328749
vn 0.746178 -0.105395 0.657351
vn 0.943830 -0.033315 0.328749
vn 0.746178 -0.105395 0.657351
vn 0.746178 -0.105395 0.657351
vn 0.746178 -0.105395 0.657351
vn 0.746178 -0.105395 0.657351
vn 0.434928 -0.161430 0.885877
vn 0.746178 -0.105395 0.657351
vn 0.434928 -0.161430 0.885877
vn 0.434928 -0.161430 0.885877
vn 0.434928 -0.161430 0.885877
vn 0.434928 -0.161430 0.885877
vn 0.057464 -0.192889 0.979537
vn 0.434928 -0.161430 0.885877
vn 0.057464 -0.192889 0.979537
vn 0.057464 -0.192889 0.979537
vn 0.057464 -0.192889 0.979537
vn 0.057464 -0.192889 0.979537
vn -0.328749 -0.194982 0.924071
vn 0.057464 -0.192889 0.979537
vn -0.328749 -0.194982 0.924071
vn -0.328749 -0.194982 0.924071
vn -0.328749 -0.194982 0.924071
vn -0.328749 -0.194982 0.924071
vn -0.664912 -0.167391 0.727923
vn -0.328749 -0.194982 0.924071
vn -0.664912 -0.167391 0.727923
vn -0.664912 -0.167391 0.727923
vn -0.664912 -0.167391 0.727923
vn -0.664912 -0.167391 0.727923
vn -0.899849 -0.114316 0.420956
vn -0.664912 -0.167391 0.727923
vn -0.899849 -0.114316 0.420956
vn -0.899849 -0.114316 0.420956
vn -0.899849 -0.114316 0.420956
vn -0.899849 -0.114316 0.420956
vn -0.997792 -0.043838 0.049902
vn -0.899849 -0.114316 0.420956
vn -0.997792 -0.043838 0.049902
vn -0.997792 -0.043838 0.049902
vn -0.997792 -0.043838 0.049902
vn -0.997792 -0.043838 0.049902
vn -0.943830 0.033315 -0.328749
vn -0.997792 -0.043838 0.049902
vn -0.943830 0.033315 -0.328749
vn -0.943830 0.033315 -0.328749
vn -0.943830 0.033315 -0.328749
vn -0.943830 0.033315 -0.328749
vn -0.746178 0.105395 -0.657351
vn -0.943830 0.033315 -0.328749
vn -0.746178 0.105395 -0.657351
vn -0.746178 0.105395 -0.657351
vn -0.746178 0.105395 -0.657351
vn -0.746178 0.105395 -0.657351
vn -0.434928 0.161430 -0.885877
vn -0.746178 0.105395 -0.657351
vn -0.434928 0.161430 -0.885877
vn -0.434928 0.161430 -0.885877
vn -0.434928 0.161430 -0.885877
vn -0.434928 0.161430 -0.885877
vn -0.057464 0.192889 -0.979537
vn -0.434928 0.161430 -0.885877
vn -0.057464 0.192889 -0.979537
vn -0.057464 0.192889 -0.979537
vn -0.057464 0.192889 -0.979537
vn -0.057464 0.192889 -0.979537
vn 0.328749 0.194982 -0.924071
vn -0.057464 0.192889 -0.979537
vn 0.328749 0.194982 -0.924071
vn 0.328749 0.194982 -0.924071
vn 0.033315 -0.980241 -0.194982
vn 0.033315 -0.980241 -0.194982
vn 0.033315 -0.980241 -0.194982
vn 0.033315 -0.980241 -0.194982
vn 0.033315 -0.980241 -0.194982
vn 0.033315 -0.980241 -0.194982
vn 0.033315 -0.980241 -0.194982
vn 0.033315 -0.980241 -0.194982
vn 0.033315 -0.980241 -0.194982
vn 0.033315 -0.980241 -0.194982
vn 0.033315 -0.980241 -0.194982
vn 0.033315 -0.980241 -0.194982
vn 0.033315 -0.980241 -0.194982
vn 0.033315 -0.980241 -0.194982
vn 0.033315 -0.980241 -0.194982
vn 0.033315 -0.980241 -0.194982
vn 0.033315 -0.980241 -0.194982
vn 0.033315 -0.980241 -0.194982
vn 0.033315 -0.980241 -0.194982
vn 0.033315 -0.980241 -0.194982
vn 0.033315 -0.980241 -0.194982
vn 0.033315 -0.980241 -0.194982
vn 0.033315 -0.980241 -0.194982
vn 0.033315 -0.980241 -0.194982
vn 0.033315 -0.980241 -0.194982
vn 0.033315 -0.980241 -0.194982
vn 0.033315 -0.980241 -0.194982
vn 0.033315 -0.980241 -0.194982
vn 0.033315 -0.980241 -0.194982
vn 0.033315 -0.980241 -0.194982
vn 0.033315 -0.980241 -0.194982
vn 0.033315 -0.980241 -0.194982
vn 0.033315 -0.980241 -0.194982
vn 0.033315 -0.980241 -0.194982
vn 0.033315 -0.980241 -0.194982
vn 0.033315 -0.980241 -0.194982
vn 0.033315 -0.980241 -0.194982
vn 0.033315 -0.980241 -0.194982
vn 0.033315 -0.980241 -0.194982
vn 0.033315 -0.980241 -0.194982
vn 0.033315 -0.980241 -0.194982
vn 0.033315 -0.980241 -0.194982
vn 0.033315 -0.980241 -0.194982
vn 0.033315 -0.980241 -0.194982
vn 0.033315 -0.980241 -0.194982
vn 0.033315 -0.980241 -0.194982
vn 0.033315 -0.980241 -0.194982
vn 0.033315 -0.980241 -0.194982
vn -0.033315 0.980241 0.194982
vn -0.033315 0.980241 0.194982
vn -0.033315 0.980241 0.194982
vn -0.033315 0.980241 0.194982
vn -0.033315 0.980241 0.194982
vn -0.033315 0.980241 0.194982
vn -0.033315 0.980241 0.194982
vn -0.033315 0.980241 0.194982
vn -0.033315 0.980241 0.194982
vn -0.033315 0.980241 0.194982
vn -0.033315 0.980241 0.194982
vn -0.033315 0.980241 0.194982
vn -0.033315 0.980241 0.194982
vn -0.033315 0.980241 0.194982
vn -0.033315 0.980241 0.194982
vn -0.033315 0.980241 0.194982
vn -0.033315 0.980241 0.194982
vn -0.033315 0.980241 0.194982
vn -0.033315 0.980241 0.194982
vn -0.033315 0.980241 0.194982
vn -0.033315 0.980241 0.194982
vn -0.033315 0.980241 0.194982
vn -0.033315 0.980241 0.194982
vn -0.033315 0.980241 0.194982
vn -0.033315 0.980241 0.194982
vn -0.033315 0.980241 0.194982
vn -0.033315 0.980241 0.194982
vn -0.033315 0.980241 0.194982
vn -0.033315 0.980241 0.194982
vn -0.033315 0.980241 0.194982
vn -0.033315 0.980241 0.194982
vn -0.033315 0.980241 0.194982
vn -0.033315 0.980241 0.194982
vn -0.033315 0.980241 0.194982
vn -0.033315 0.980241 0.194982
vn -0.033315 0.980241 0.194982
vn -0.033315 0.980241 0.194982
vn -0.033315 0.980241 0.194982
vn -0.033315 0.980241 0.194982
vn -0.033315 0.980241 0.194982
vn -0.033315 0.980241 0.194982
vn -0.033315 0.980241 0.194982
vn -0.033315 0.980241 0.194982
vn -0.033315 0.980241 0.194982
vn -0.033315 0.980241 0.194982
vn -0.033315 0.980241 0.194982
vn -0.033315 0.980241 0.194982
vn -0.033315 0.980241 0.194982
f 1//1 2//2 3//3
f 4//4 5//5 6//6
f 7//7 8//8 9//9
f 10//10 11//11 12//12
f 13//13 14//14 15//15
f 16//16 17//17 18//18
f 19//19 20//20 21//21
f 22//22 23//23 24//24
f 25//25 26//26 27//27
f 28//28 29//29 30//30
f 31//31 32//32 33//33
f 34//34 35//35 36//36
f 37//37 38//38 39//39
f 40//40 41//41 42//42
f 43//43 44//44 45//45
f 46//46 47//47 48//48
f 49//49 50//50 51//51
f 52//52 53//53 54//54
f 55//55 56//56 57//57
f 58//58 59//59 60//60
f 61//61 62//62 63//63
f 64//64 65//65 66//66
f 67//67 68//68 69//69
f 70//70 71//71 72//72
f 73//73 74//74 75//75
f 76//76 77//77 78//78
f 79//79 80//80 81//81
f 82//82 83//83 84//84
f 85//85 86//86 87//87
f 88//88 89//89 90//90
f 91//91 92//92 93//93
f 94//94 95//95 96//96
f 97//97 98//98 99//99
f 100//100 101//101 102//102
f 103//103 104//104 105//105
f 106//106 107//107 108//108
f 109//109 110//110 111//111
f 112//112 113//113 114//114
f 115//115 116//116 117//117
f 118//118 119//119 120//120
f 121//121 122//122 123//123
f 124//124 125//125 126//126
f 127//127 128//128 129//129
f 130//130 131//131 132//132
f 133//133 134//134 135//135
f 136//136 137//137 138//138
f 139//139 140//140 141//141
f 142//142 143//143 144//144
f 145//145 146//146 147//147
f 148//148 149//149 150//150
f 151//151 152//152 153//153
f 154//154 155//155 156//156
f 157//157 158//158 159//159
f 160//160 161//161 162//162
f 163//163 164//164 165//165
f 166//166 167//167 168//168
f 169//169 170//170 171//171
f 172//172 173//173 174//174
f 175//175 176//176 177//177
f 178//178 179//179 180//180
f 181//181 182//182 183//183
f 184//184 185//185 186//186
f 187//187 188//188 189//189
f 190//190 191//191 192//192
