# spoke_front_13
# Vertices: 192
v 0.996440 51.833309 -24.832893
v 1.996440 35.166203 0.111195
v 1.073193 51.823208 -24.842720
v 1.996440 35.166203 0.111195
v 2.073193 35.156101 0.101369
v 1.073193 51.823208 -24.842720
v 1.073193 51.823208 -24.842720
v 2.073193 35.156101 0.101369
v 1.138803 51.789341 -24.867979
v 2.073193 35.156101 0.101369
v 2.138803 35.122234 0.076110
v 1.138803 51.789341 -24.867979
v 1.138803 51.789341 -24.867979
v 2.138803 35.122234 0.076110
v 1.183282 51.736866 -24.904825
v 2.138803 35.122234 0.076110
v 2.183282 35.069759 0.039264
v 1.183282 51.736866 -24.904825
v 1.183282 51.736866 -24.904825
v 2.183282 35.069759 0.039264
v 1.199857 51.673771 -24.947649
v 2.183282 35.069759 0.039264
v 2.199857 35.006664 -0.003560
v 1.199857 51.673771 -24.947649
v 1.199857 51.673771 -24.947649
v 2.199857 35.006664 -0.003560
v 1.186006 51.609661 -24.989931
v 2.199857 35.006664 -0.003560
v 2.186007 34.942554 -0.045841
v 1.186006 51.609661 -24.989931
v 1.186006 51.609661 -24.989931
v 2.186007 34.942554 -0.045841
v 1.143838 51.554295 -25.025232
v 2.186007 34.942554 -0.045841
v 2.143838 34.887188 -0.081144
v 1.143838 51.554295 -25.025232
v 1.143838 51.554295 -25.025232
v 2.143838 34.887188 -0.081144
v 1.079771 51.516106 -25.048182
v 2.143838 34.887188 -0.081144
v 2.079771 34.848999 -0.104093
v 1.079771 51.516106 -25.048182
v 1.079771 51.516106 -25.048182
v 2.079771 34.848999 -0.104093
v 1.003560 51.500904 -25.055285
v 2.079771 34.848999 -0.104093
v 2.003560 34.833797 -0.111195
v 1.003560 51.500904 -25.055285
v 1.003560 51.500904 -25.055285
v 2.003560 34.833797 -0.111195
v 0.926807 51.511005 -25.045458
v 2.003560 34.833797 -0.111195
v 1.926807 34.843899 -0.101368
v 0.926807 51.511005 -25.045458
v 0.926807 51.511005 -25.045458
v 1.926807 34.843899 -0.101368
v 0.861197 51.544872 -25.020199
v 1.926807 34.843899 -0.101368
v 1.861197 34.877766 -0.076109
v 0.861197 51.544872 -25.020199
v 0.861197 51.544872 -25.020199
v 1.861197 34.877766 -0.076109
v 0.816718 51.597347 -24.983353
v 1.861197 34.877766 -0.076109
v 1.816718 34.930241 -0.039263
v 0.816718 51.597347 -24.983353
v 0.816718 51.597347 -24.983353
v 1.816718 34.930241 -0.039263
v 0.800143 51.660442 -24.940529
v 1.816718 34.930241 -0.039263
v 1.800143 34.993336 0.003560
v 0.800143 51.660442 -24.940529
v 0.800143 51.660442 -24.940529
v 1.800143 34.993336 0.003560
v 0.813994 51.724552 -24.898247
v 1.800143 34.993336 0.003560
v 1.813994 35.057446 0.045842
v 0.813994 51.724552 -24.898247
v 0.813994 51.724552 -24.898247
v 1.813994 35.057446 0.045842
v 0.856162 51.779919 -24.862944
v 1.813994 35.057446 0.045842
v 1.856162 35.112812 0.081144
v 0.856162 51.779919 -24.862944
v 0.856162 51.779919 -24.862944
v 1.856162 35.112812 0.081144
v 0.920229 51.818108 -24.839994
v 1.856162 35.112812 0.081144
v 1.920229 35.151001 0.104094
v 0.920229 51.818108 -24.839994
v 0.920229 51.818108 -24.839994
v 1.920229 35.151001 0.104094
v 0.996440 51.833309 -24.832893
v 1.920229 35.151001 0.104094
v 1.996440 35.166203 0.111195
v 0.996440 51.833309 -24.832893
v 0.996440 51.833309 -24.832893
v 1.073193 51.823208 -24.842720
v 1.000000 51.667107 -24.944088
v 1.073193 51.823208 -24.842720
v 1.138803 51.789341 -24.867979
v 1.000000 51.667107 -24.944088
v 1.138803 51.789341 -24.867979
v 1.183282 51.736866 -24.904825
v 1.000000 51.667107 -24.944088
v 1.183282 51.736866 -24.904825
v 1.199857 51.673771 -24.947649
v 1.000000 51.667107 -24.944088
v 1.199857 51.673771 -24.947649
v 1.186006 51.609661 -24.989931
v 1.000000 51.667107 -24.944088
v 1.186006 51.609661 -24.989931
v 1.143838 51.554295 -25.025232
v 1.000000 51.667107 -24.944088
v 1.143838 51.554295 -25.025232
v 1.079771 51.516106 -25.048182
v 1.000000 51.667107 -24.944088
v 1.079771 51.516106 -25.048182
v 1.003560 51.500904 -25.055285
v 1.000000 51.667107 -24.944088
v 1.003560 51.500904 -25.055285
v 0.926807 51.511005 -25.045458
v 1.000000 51.667107 -24.944088
v 0.926807 51.511005 -25.045458
v 0.861197 51.544872 -25.020199
v 1.000000 51.667107 -24.944088
v 0.861197 51.544872 -25.020199
v 0.816718 51.597347 -24.983353
v 1.000000 51.667107 -24.944088
v 0.816718 51.597347 -24.983353
v 0.800143 51.660442 -24.940529
v 1.000000 51.667107 -24.944088
v 0.800143 51.660442 -24.940529
v 0.813994 51.724552 -24.898247
v 1.000000 51.667107 -24.944088
v 0.813994 51.724552 -24.898247
v 0.856162 51.779919 -24.862944
v 1.000000 51.667107 -24.944088
v 0.856162 51.779919 -24.862944
v 0.920229 51.818108 -24.839994
v 1.000000 51.667107 -24.944088
v 0.920229 51.818108 -24.839994
v 0.996440 51.833309 -24.832893
v 1.000000 51.667107 -24.944088
v 2.073193 35.156101 0.101369
v 1.996440 35.166203 0.111195
v 2.000000 35.000000 0.000000
v 2.138803 35.122234 0.076110
v 2.073193 35.156101 0.101369
v 2.000000 35.000000 0.000000
v 2.183282 35.069759 0.039264
v 2.138803 35.122234 0.076110
v 2.000000 35.000000 0.000000
v 2.199857 35.006664 -0.003560
v 2.183282 35.069759 0.039264
v 2.000000 35.000000 0.000000
v 2.186007 34.942554 -0.045841
v 2.199857 35.006664 -0.003560
v 2.000000 35.000000 0.000000
v 2.143838 34.887188 -0.081144
v 2.186007 34.942554 -0.045841
v 2.000000 35.000000 0.000000
v 2.079771 34.848999 -0.104093
v 2.143838 34.887188 -0.081144
v 2.000000 35.000000 0.000000
v 2.003560 34.833797 -0.111195
v 2.079771 34.848999 -0.104093
v 2.000000 35.000000 0.000000
v 1.926807 34.843899 -0.101368
v 2.003560 34.833797 -0.111195
v 2.000000 35.000000 0.000000
v 1.861197 34.877766 -0.076109
v 1.926807 34.843899 -0.101368
v 2.000000 35.000000 0.000000
v 1.816718 34.930241 -0.039263
v 1.861197 34.877766 -0.076109
v 2.000000 35.000000 0.000000
v 1.800143 34.993336 0.003560
v 1.816718 34.930241 -0.039263
v 2.000000 35.000000 0.000000
v 1.813994 35.057446 0.045842
v 1.800143 34.993336 0.003560
v 2.000000 35.000000 0.000000
v 1.856162 35.112812 0.081144
v 1.813994 35.057446 0.045842
v 2.000000 35.000000 0.000000
v 1.920229 35.151001 0.104094
v 1.856162 35.112812 0.081144
v 2.000000 35.000000 0.000000
v 1.996440 35.166203 0.111195
v 1.920229 35.151001 0.104094
v 2.000000 35.000000 0.000000
vn -0.017801 0.831008 0.555975
vn -0.017801 0.831008 0.555975
vn 0.365965 0.780500 0.506842
vn -0.017801 0.831008 0.555975
vn 0.365965 0.780500 0.506842
vn 0.365965 0.780500 0.506842
vn 0.365965 0.780500 0.506842
vn 0.365965 0.780500 0.506842
vn 0.694015 0.611169 0.380547
vn 0.365965 0.780500 0.506842
vn 0.694015 0.611169 0.380547
vn 0.694015 0.611169 0.380547
vn 0.694015 0.611169 0.380547
vn 0.694015 0.611169 0.380547
vn 0.916408 0.348792 0.196317
vn 0.694015 0.611169 0.380547
vn 0.916408 0.348792 0.196317
vn 0.916408 0.348792 0.196317
vn 0.916408 0.348792 0.196317
vn 0.916408 0.348792 0.196317
vn 0.999286 0.033315 -0.017801
vn 0.916408 0.348792 0.196317
vn 0.999286 0.033315 -0.017801
vn 0.999286 0.033315 -0.017801
vn 0.999286 0.033315 -0.017801
vn 0.999286 0.033315 -0.017801
vn 0.930032 -0.287234 -0.229208
vn 0.999286 0.033315 -0.017801
vn 0.930032 -0.287234 -0.229208
vn 0.930032 -0.287234 -0.229208
vn 0.930032 -0.287234 -0.229208
vn 0.930032 -0.287234 -0.229208
vn 0.719189 -0.564054 -0.405721
vn 0.930032 -0.287234 -0.229208
vn 0.719189 -0.564054 -0.405721
vn 0.719189 -0.564054 -0.405721
vn 0.719189 -0.564054 -0.405721
vn 0.719189 -0.564054 -0.405721
vn 0.398856 -0.755002 -0.520466
vn 0.719189 -0.564054 -0.405721
vn 0.398856 -0.755002 -0.520466
vn 0.398856 -0.755002 -0.520466
vn 0.398856 -0.755002 -0.520466
vn 0.398856 -0.755002 -0.520466
vn 0.017801 -0.831008 -0.555975
vn 0.398856 -0.755002 -0.520466
vn 0.017801 -0.831008 -0.555975
vn 0.017801 -0.831008 -0.555975
vn 0.017801 -0.831008 -0.555975
vn 0.017801 -0.831008 -0.555975
vn -0.365965 -0.780500 -0.506842
vn 0.017801 -0.831008 -0.555975
vn -0.365965 -0.780500 -0.506842
vn -0.365965 -0.780500 -0.506842
vn -0.365965 -0.780500 -0.506842
vn -0.365965 -0.780500 -0.506842
vn -0.694015 -0.611169 -0.380547
vn -0.365965 -0.780500 -0.506842
vn -0.694015 -0.611169 -0.380547
vn -0.694015 -0.611169 -0.380547
vn -0.694015 -0.611169 -0.380547
vn -0.694015 -0.611169 -0.380547
vn -0.916408 -0.348792 -0.196317
vn -0.694015 -0.611169 -0.380547
vn -0.916408 -0.348792 -0.196317
vn -0.916408 -0.348792 -0.196317
vn -0.916408 -0.348792 -0.196317
vn -0.916408 -0.348792 -0.196317
vn -0.999286 -0.033315 0.017801
vn -0.916408 -0.348792 -0.196317
vn -0.999286 -0.033315 0.017801
vn -0.999286 -0.033315 0.017801
vn -0.999286 -0.033315 0.017801
vn -0.999286 -0.033315 0.017801
vn -0.930032 0.287234 0.229208
vn -0.999286 -0.033315 0.017801
vn -0.930032 0.287234 0.229208
vn -0.930032 0.287234 0.229208
vn -0.930032 0.287234 0.229208
vn -0.930032 0.287234 0.229208
vn -0.719189 0.564054 0.405721
vn -0.930032 0.287234 0.229208
vn -0.719189 0.564054 0.405721
vn -0.719189 0.564054 0.405721
vn -0.719189 0.564054 0.405721
vn -0.719189 0.564054 0.405721
vn -0.398856 0.755002 0.520466
vn -0.719189 0.564054 0.405721
vn -0.398856 0.755002 0.520466
vn -0.398856 0.755002 0.520466
vn -0.398856 0.755002 0.520466
vn -0.398856 0.755002 0.520466
vn -0.017801 0.831008 0.555975
vn -0.398856 0.755002 0.520466
vn -0.017801 0.831008 0.555975
vn -0.017801 0.831008 0.555975
vn -0.033315 0.555262 -0.831008
vn -0.033315 0.555262 -0.831008
vn -0.033315 0.555262 -0.831008
vn -0.033315 0.555262 -0.831008
vn -0.033315 0.555262 -0.831008
vn -0.033315 0.555262 -0.831008
vn -0.033315 0.555262 -0.831008
vn -0.033315 0.555262 -0.831008
vn -0.033315 0.555262 -0.831008
vn -0.033315 0.555262 -0.831008
vn -0.033315 0.555262 -0.831008
vn -0.033315 0.555262 -0.831008
vn -0.033315 0.555262 -0.831008
vn -0.033315 0.555262 -0.831008
vn -0.033315 0.555262 -0.831008
vn -0.033315 0.555262 -0.831008
vn -0.033315 0.555262 -0.831008
vn -0.033315 0.555262 -0.831008
vn -0.033315 0.555262 -0.831008
vn -0.033315 0.555262 -0.831008
vn -0.033315 0.555262 -0.831008
vn -0.033315 0.555262 -0.831008
vn -0.033315 0.555262 -0.831008
vn -0.033315 0.555262 -0.831008
vn -0.033315 0.555262 -0.831008
vn -0.033315 0.555262 -0.831008
vn -0.033315 0.555262 -0.831008
vn -0.033315 0.555262 -0.831008
vn -0.033315 0.555262 -0.831008
vn -0.033315 0.555262 -0.831008
vn -0.033315 0.555262 -0.831008
vn -0.033315 0.555262 -0.831008
vn -0.033315 0.555262 -0.831008
vn -0.033315 0.555262 -0.831008
vn -0.033315 0.555262 -0.831008
vn -0.033315 0.555262 -0.831008
vn -0.033315 0.555262 -0.831008
vn -0.033315 0.555262 -0.831008
vn -0.033315 0.555262 -0.831008
vn -0.033315 0.555262 -0.831008
vn -0.033315 0.555262 -0.831008
vn -0.033315 0.555262 -0.831008
vn -0.033315 0.555262 -0.831008
vn -0.033315 0.555262 -0.831008
vn -0.033315 0.555262 -0.831008
vn -0.033315 0.555262 -0.831008
vn -0.033315 0.555262 -0.831008
vn -0.033315 0.555262 -0.831008
vn 0.033315 -0.555262 0.831008
vn 0.033315 -0.555262 0.831008
vn 0.033315 -0.555262 0.831008
vn 0.033315 -0.555262 0.831008
vn 0.033315 -0.555262 0.831008
vn 0.033315 -0.555262 0.831008
vn 0.033315 -0.555262 0.831008
vn 0.033315 -0.555262 0.831008
vn 0.033315 -0.555262 0.831008
vn 0.033315 -0.555262 0.831008
vn 0.033315 -0.555262 0.831008
vn 0.033315 -0.555262 0.831008
vn 0.033315 -0.555262 0.831008
vn 0.033315 -0.555262 0.831008
vn 0.033315 -0.555262 0.831008
vn 0.033315 -0.555262 0.831008
vn 0.033315 -0.555262 0.831008
vn 0.033315 -0.555262 0.831008
vn 0.033315 -0.555262 0.831008
vn 0.033315 -0.555262 0.831008
vn 0.033315 -0.555262 0.831008
vn 0.033315 -0.555262 0.831008
vn 0.033315 -0.555262 0.831008
vn 0.033315 -0.555262 0.831008
vn 0.033315 -0.555262 0.831008
vn 0.033315 -0.555262 0.831008
vn 0.033315 -0.555262 0.831008
vn 0.033315 -0.555262 0.831008
vn 0.033315 -0.555262 0.831008
vn 0.033315 -0.555262 0.831008
vn 0.033315 -0.555262 0.831008
vn 0.033315 -0.555262 0.831008
vn 0.033315 -0.555262 0.831008
vn 0.033315 -0.555262 0.831008
vn 0.033315 -0.555262 0.831008
vn 0.033315 -0.555262 0.831008
vn 0.033315 -0.555262 0.831008
vn 0.033315 -0.555262 0.831008
vn 0.033315 -0.555262 0.831008
vn 0.033315 -0.555262 0.831008
vn 0.033315 -0.555262 0.831008
vn 0.033315 -0.555262 0.831008
vn 0.033315 -0.555262 0.831008
vn 0.033315 -0.555262 0.831008
vn 0.033315 -0.555262 0.831008
vn 0.033315 -0.555262 0.831008
vn 0.033315 -0.555262 0.831008
vn 0.033315 -0.555262 0.831008
f 1//1 2//2 3//3
f 4//4 5//5 6//6
f 7//7 8//8 9//9
f 10//10 11//11 12//12
f 13//13 14//14 15//15
f 16//16 17//17 18//18
f 19//19 20//20 21//21
f 22//22 23//23 24//24
f 25//25 26//26 27//27
f 28//28 29//29 30//30
f 31//31 32//32 33//33
f 34//34 35//35 36//36
f 37//37 38//38 39//39
f 40//40 41//41 42//42
f 43//43 44//44 45//45
f 46//46 47//47 48//48
f 49//49 50//50 51//51
f 52//52 53//53 54//54
f 55//55 56//56 57//57
f 58//58 59//59 60//60
f 61//61 62//62 63//63
f 64//64 65//65 66//66
f 67//67 68//68 69//69
f 70//70 71//71 72//72
f 73//73 74//74 75//75
f 76//76 77//77 78//78
f 79//79 80//80 81//81
f 82//82 83//83 84//84
f 85//85 86//86 87//87
f 88//88 89//89 90//90
f 91//91 92//92 93//93
f 94//94 95//95 96//96
f 97//97 98//98 99//99
f 100//100 101//101 102//102
f 103//103 104//104 105//105
f 106//106 107//107 108//108
f 109//109 110//110 111//111
f 112//112 113//113 114//114
f 115//115 116//116 117//117
f 118//118 119//119 120//120
f 121//121 122//122 123//123
f 124//124 125//125 126//126
f 127//127 128//128 129//129
f 130//130 131//131 132//132
f 133//133 134//134 135//135
f 136//136 137//137 138//138
f 139//139 140//140 141//141
f 142//142 143//143 144//144
f 145//145 146//146 147//147
f 148//148 149//149 150//150
f 151//151 152//152 153//153
f 154//154 155//155 156//156
f 157//157 158//158 159//159
f 160//160 161//161 162//162
f 163//163 164//164 165//165
f 166//166 167//167 168//168
f 169//169 170//170 171//171
f 172//172 173//173 174//174
f 175//175 176//176 177//177
f 178//178 179//179 180//180
f 181//181 182//182 183//183
f 184//184 185//185 186//186
f 187//187 188//188 189//189
f 190//190 191//191 192//192
