# spoke_front_19
# Vertices: 192
v 0.987550 18.499094 -25.054642
v 1.987550 35.166203 -0.110553
v 1.064843 18.488993 -25.050991
v 1.987550 35.166203 -0.110553
v 2.064843 35.156101 -0.106902
v 1.064843 18.488993 -25.050991
v 1.064843 18.488993 -25.050991
v 2.064843 35.156101 -0.106902
v 1.132265 18.455126 -25.031065
v 2.064843 35.156101 -0.106902
v 2.132265 35.122234 -0.086976
v 1.132265 18.455126 -25.031065
v 1.132265 18.455126 -25.031065
v 2.132265 35.122234 -0.086976
v 1.179550 18.402651 -24.997898
v 2.132265 35.122234 -0.086976
v 2.179550 35.069759 -0.053809
v 1.179550 18.402651 -24.997898
v 1.179550 18.402651 -24.997898
v 2.179550 35.069759 -0.053809
v 1.199501 18.339556 -24.956539
v 2.179550 35.069759 -0.053809
v 2.199501 35.006664 -0.012450
v 1.199501 18.339556 -24.956539
v 1.199501 18.339556 -24.956539
v 2.199501 35.006664 -0.012450
v 1.189079 18.275446 -24.913284
v 2.199501 35.006664 -0.012450
v 2.189079 34.942554 0.030805
v 1.189079 18.275446 -24.913284
v 1.189079 18.275446 -24.913284
v 2.189079 34.942554 0.030805
v 1.149872 18.220081 -24.874720
v 2.189079 34.942554 0.030805
v 2.149872 34.887188 0.069370
v 1.149872 18.220081 -24.874720
v 1.149872 18.220081 -24.874720
v 2.149872 34.887188 0.069370
v 1.087848 18.181892 -24.846716
v 2.149872 34.887188 0.069370
v 2.087848 34.848999 0.097374
v 1.087848 18.181892 -24.846716
v 1.087848 18.181892 -24.846716
v 2.087848 34.848999 0.097374
v 1.012450 18.166691 -24.833536
v 2.087848 34.848999 0.097374
v 2.012450 34.833797 0.110553
v 1.012450 18.166691 -24.833536
v 1.012450 18.166691 -24.833536
v 2.012450 34.833797 0.110553
v 0.935157 18.176792 -24.837187
v 2.012450 34.833797 0.110553
v 1.935157 34.843899 0.106903
v 0.935157 18.176792 -24.837187
v 0.935157 18.176792 -24.837187
v 1.935157 34.843899 0.106903
v 0.867735 18.210659 -24.857113
v 1.935157 34.843899 0.106903
v 1.867735 34.877766 0.086977
v 0.867735 18.210659 -24.857113
v 0.867735 18.210659 -24.857113
v 1.867735 34.877766 0.086977
v 0.820450 18.263134 -24.890280
v 1.867735 34.877766 0.086977
v 1.820450 34.930241 0.053809
v 0.820450 18.263134 -24.890280
v 0.820450 18.263134 -24.890280
v 1.820450 34.930241 0.053809
v 0.800499 18.326229 -24.931639
v 1.820450 34.930241 0.053809
v 1.800499 34.993336 0.012450
v 0.800499 18.326229 -24.931639
v 0.800499 18.326229 -24.931639
v 1.800499 34.993336 0.012450
v 0.810921 18.390339 -24.974894
v 1.800499 34.993336 0.012450
v 1.810921 35.057446 -0.030804
v 0.810921 18.390339 -24.974894
v 0.810921 18.390339 -24.974894
v 1.810921 35.057446 -0.030804
v 0.850128 18.445704 -25.013458
v 1.810921 35.057446 -0.030804
v 1.850128 35.112812 -0.069369
v 0.850128 18.445704 -25.013458
v 0.850128 18.445704 -25.013458
v 1.850128 35.112812 -0.069369
v 0.912152 18.483892 -25.041462
v 1.850128 35.112812 -0.069369
v 1.912152 35.151001 -0.097373
v 0.912152 18.483892 -25.041462
v 0.912152 18.483892 -25.041462
v 1.912152 35.151001 -0.097373
v 0.987550 18.499094 -25.054642
v 1.912152 35.151001 -0.097373
v 1.987550 35.166203 -0.110553
v 0.987550 18.499094 -25.054642
v 0.987550 18.499094 -25.054642
v 1.064843 18.488993 -25.050991
v 1.000000 18.332893 -24.944088
v 1.064843 18.488993 -25.050991
v 1.132265 18.455126 -25.031065
v 1.000000 18.332893 -24.944088
v 1.132265 18.455126 -25.031065
v 1.179550 18.402651 -24.997898
v 1.000000 18.332893 -24.944088
v 1.179550 18.402651 -24.997898
v 1.199501 18.339556 -24.956539
v 1.000000 18.332893 -24.944088
v 1.199501 18.339556 -24.956539
v 1.189079 18.275446 -24.913284
v 1.000000 18.332893 -24.944088
v 1.189079 18.275446 -24.913284
v 1.149872 18.220081 -24.874720
v 1.000000 18.332893 -24.944088
v 1.149872 18.220081 -24.874720
v 1.087848 18.181892 -24.846716
v 1.000000 18.332893 -24.944088
v 1.087848 18.181892 -24.846716
v 1.012450 18.166691 -24.833536
v 1.000000 18.332893 -24.944088
v 1.012450 18.166691 -24.833536
v 0.935157 18.176792 -24.837187
v 1.000000 18.332893 -24.944088
v 0.935157 18.176792 -24.837187
v 0.867735 18.210659 -24.857113
v 1.000000 18.332893 -24.944088
v 0.867735 18.210659 -24.857113
v 0.820450 18.263134 -24.890280
v 1.000000 18.332893 -24.944088
v 0.820450 18.263134 -24.890280
v 0.800499 18.326229 -24.931639
v 1.000000 18.332893 -24.944088
v 0.800499 18.326229 -24.931639
v 0.810921 18.390339 -24.974894
v 1.000000 18.332893 -24.944088
v 0.810921 18.390339 -24.974894
v 0.850128 18.445704 -25.013458
v 1.000000 18.332893 -24.944088
v 0.850128 18.445704 -25.013458
v 0.912152 18.483892 -25.041462
v 1.000000 18.332893 -24.944088
v 0.912152 18.483892 -25.041462
v 0.987550 18.499094 -25.054642
v 1.000000 18.332893 -24.944088
v 2.064843 35.156101 -0.106902
v 1.987550 35.166203 -0.110553
v 2.000000 35.000000 0.000000
v 2.132265 35.122234 -0.086976
v 2.064843 35.156101 -0.106902
v 2.000000 35.000000 0.000000
v 2.179550 35.069759 -0.053809
v 2.132265 35.122234 -0.086976
v 2.000000 35.000000 0.000000
v 2.199501 35.006664 -0.012450
v 2.179550 35.069759 -0.053809
v 2.000000 35.000000 0.000000
v 2.189079 34.942554 0.030805
v 2.199501 35.006664 -0.012450
v 2.000000 35.000000 0.000000
v 2.149872 34.887188 0.069370
v 2.189079 34.942554 0.030805
v 2.000000 35.000000 0.000000
v 2.087848 34.848999 0.097374
v 2.149872 34.887188 0.069370
v 2.000000 35.000000 0.000000
v 2.012450 34.833797 0.110553
v 2.087848 34.848999 0.097374
v 2.000000 35.000000 0.000000
v 1.935157 34.843899 0.106903
v 2.012450 34.833797 0.110553
v 2.000000 35.000000 0.000000
v 1.867735 34.877766 0.086977
v 1.935157 34.843899 0.106903
v 2.000000 35.000000 0.000000
v 1.820450 34.930241 0.053809
v 1.867735 34.877766 0.086977
v 2.000000 35.000000 0.000000
v 1.800499 34.993336 0.012450
v 1.820450 34.930241 0.053809
v 2.000000 35.000000 0.000000
v 1.810921 35.057446 -0.030804
v 1.800499 34.993336 0.012450
v 2.000000 35.000000 0.000000
v 1.850128 35.112812 -0.069369
v 1.810921 35.057446 -0.030804
v 2.000000 35.000000 0.000000
v 1.912152 35.151001 -0.097373
v 1.850128 35.112812 -0.069369
v 2.000000 35.000000 0.000000
v 1.987550 35.166203 -0.110553
v 1.912152 35.151001 -0.097373
v 2.000000 35.000000 0.000000
vn -0.062250 0.831008 -0.552766
vn -0.062250 0.831008 -0.552766
vn 0.324217 0.780500 -0.534511
vn -0.062250 0.831008 -0.552766
vn 0.324217 0.780500 -0.534511
vn 0.324217 0.780500 -0.534511
vn 0.324217 0.780500 -0.534511
vn 0.324217 0.780500 -0.534511
vn 0.661325 0.611169 -0.434882
vn 0.324217 0.780500 -0.534511
vn 0.661325 0.611169 -0.434882
vn 0.661325 0.611169 -0.434882
vn 0.661325 0.611169 -0.434882
vn 0.661325 0.611169 -0.434882
vn 0.897752 0.348792 -0.269046
vn 0.661325 0.611169 -0.434882
vn 0.897752 0.348792 -0.269046
vn 0.897752 0.348792 -0.269046
vn 0.897752 0.348792 -0.269046
vn 0.897752 0.348792 -0.269046
vn 0.997504 0.033315 -0.062250
vn 0.897752 0.348792 -0.269046
vn 0.997504 0.033315 -0.062250
vn 0.997504 0.033315 -0.062250
vn 0.997504 0.033315 -0.062250
vn 0.997504 0.033315 -0.062250
vn 0.945396 -0.287234 0.154023
vn 0.997504 0.033315 -0.062250
vn 0.945396 -0.287234 0.154023
vn 0.945396 -0.287234 0.154023
vn 0.945396 -0.287234 0.154023
vn 0.945396 -0.287234 0.154023
vn 0.749359 -0.564054 0.346847
vn 0.945396 -0.287234 0.154023
vn 0.749359 -0.564054 0.346847
vn 0.749359 -0.564054 0.346847
vn 0.749359 -0.564054 0.346847
vn 0.749359 -0.564054 0.346847
vn 0.439240 -0.755002 0.486867
vn 0.749359 -0.564054 0.346847
vn 0.439240 -0.755002 0.486867
vn 0.439240 -0.755002 0.486867
vn 0.439240 -0.755002 0.486867
vn 0.439240 -0.755002 0.486867
vn 0.062250 -0.831008 0.552766
vn 0.439240 -0.755002 0.486867
vn 0.062250 -0.831008 0.552766
vn 0.062250 -0.831008 0.552766
vn 0.062250 -0.831008 0.552766
vn 0.062250 -0.831008 0.552766
vn -0.324217 -0.780500 0.534511
vn 0.062250 -0.831008 0.552766
vn -0.324217 -0.780500 0.534511
vn -0.324217 -0.780500 0.534511
vn -0.324217 -0.780500 0.534511
vn -0.324217 -0.780500 0.534511
vn -0.661325 -0.611169 0.434882
vn -0.324217 -0.780500 0.534511
vn -0.661325 -0.611169 0.434882
vn -0.661325 -0.611169 0.434882
vn -0.661325 -0.611169 0.434882
vn -0.661325 -0.611169 0.434882
vn -0.897752 -0.348792 0.269046
vn -0.661325 -0.611169 0.434882
vn -0.897752 -0.348792 0.269046
vn -0.897752 -0.348792 0.269046
vn -0.897752 -0.348792 0.269046
vn -0.897752 -0.348792 0.269046
vn -0.997504 -0.033315 0.062250
vn -0.897752 -0.348792 0.269046
vn -0.997504 -0.033315 0.062250
vn -0.997504 -0.033315 0.062250
vn -0.997504 -0.033315 0.062250
vn -0.997504 -0.033315 0.062250
vn -0.945396 0.287234 -0.154023
vn -0.997504 -0.033315 0.062250
vn -0.945396 0.287234 -0.154023
vn -0.945396 0.287234 -0.154023
vn -0.945396 0.287234 -0.154023
vn -0.945396 0.287234 -0.154023
vn -0.749359 0.564054 -0.346847
vn -0.945396 0.287234 -0.154023
vn -0.749359 0.564054 -0.346847
vn -0.749359 0.564054 -0.346847
vn -0.749359 0.564054 -0.346847
vn -0.749359 0.564054 -0.346847
vn -0.439240 0.755002 -0.486867
vn -0.749359 0.564054 -0.346847
vn -0.439240 0.755002 -0.486867
vn -0.439240 0.755002 -0.486867
vn -0.439240 0.755002 -0.486867
vn -0.439240 0.755002 -0.486867
vn -0.062250 0.831008 -0.552766
vn -0.439240 0.755002 -0.486867
vn -0.062250 0.831008 -0.552766
vn -0.062250 0.831008 -0.552766
vn -0.033315 -0.555262 -0.831008
vn -0.033315 -0.555262 -0.831008
vn -0.033315 -0.555262 -0.831008
vn -0.033315 -0.555262 -0.831008
vn -0.033315 -0.555262 -0.831008
vn -0.033315 -0.555262 -0.831008
vn -0.033315 -0.555262 -0.831008
vn -0.033315 -0.555262 -0.831008
vn -0.033315 -0.555262 -0.831008
vn -0.033315 -0.555262 -0.831008
vn -0.033315 -0.555262 -0.831008
vn -0.033315 -0.555262 -0.831008
vn -0.033315 -0.555262 -0.831008
vn -0.033315 -0.555262 -0.831008
vn -0.033315 -0.555262 -0.831008
vn -0.033315 -0.555262 -0.831008
vn -0.033315 -0.555262 -0.831008
vn -0.033315 -0.555262 -0.831008
vn -0.033315 -0.555262 -0.831008
vn -0.033315 -0.555262 -0.831008
vn -0.033315 -0.555262 -0.831008
vn -0.033315 -0.555262 -0.831008
vn -0.033315 -0.555262 -0.831008
vn -0.033315 -0.555262 -0.831008
vn -0.033315 -0.555262 -0.831008
vn -0.033315 -0.555262 -0.831008
vn -0.033315 -0.555262 -0.831008
vn -0.033315 -0.555262 -0.831008
vn -0.033315 -0.555262 -0.831008
vn -0.033315 -0.555262 -0.831008
vn -0.033315 -0.555262 -0.831008
vn -0.033315 -0.555262 -0.831008
vn -0.033315 -0.555262 -0.831008
vn -0.033315 -0.555262 -0.831008
vn -0.033315 -0.555262 -0.831008
vn -0.033315 -0.555262 -0.831008
vn -0.033315 -0.555262 -0.831008
vn -0.033315 -0.555262 -0.831008
vn -0.033315 -0.555262 -0.831008
vn -0.033315 -0.555262 -0.831008
vn -0.033315 -0.555262 -0.831008
vn -0.033315 -0.555262 -0.831008
vn -0.033315 -0.555262 -0.831008
vn -0.033315 -0.555262 -0.831008
vn -0.033315 -0.555262 -0.831008
vn -0.033315 -0.555262 -0.831008
vn -0.033315 -0.555262 -0.831008
vn -0.033315 -0.555262 -0.831008
vn 0.033315 0.555262 0.831008
vn 0.033315 0.555262 0.831008
vn 0.033315 0.555262 0.831008
vn 0.033315 0.555262 0.831008
vn 0.033315 0.555262 0.831008
vn 0.033315 0.555262 0.831008
vn 0.033315 0.555262 0.831008
vn 0.033315 0.555262 0.831008
vn 0.033315 0.555262 0.831008
vn 0.033315 0.555262 0.831008
vn 0.033315 0.555262 0.831008
vn 0.033315 0.555262 0.831008
vn 0.033315 0.555262 0.831008
vn 0.033315 0.555262 0.831008
vn 0.033315 0.555262 0.831008
vn 0.033315 0.555262 0.831008
vn 0.033315 0.555262 0.831008
vn 0.033315 0.555262 0.831008
vn 0.033315 0.555262 0.831008
vn 0.033315 0.555262 0.831008
vn 0.033315 0.555262 0.831008
vn 0.033315 0.555262 0.831008
vn 0.033315 0.555262 0.831008
vn 0.033315 0.555262 0.831008
vn 0.033315 0.555262 0.831008
vn 0.033315 0.555262 0.831008
vn 0.033315 0.555262 0.831008
vn 0.033315 0.555262 0.831008
vn 0.033315 0.555262 0.831008
vn 0.033315 0.555262 0.831008
vn 0.033315 0.555262 0.831008
vn 0.033315 0.555262 0.831008
vn 0.033315 0.555262 0.831008
vn 0.033315 0.555262 0.831008
vn 0.033315 0.555262 0.831008
vn 0.033315 0.555262 0.831008
vn 0.033315 0.555262 0.831008
vn 0.033315 0.555262 0.831008
vn 0.033315 0.555262 0.831008
vn 0.033315 0.555262 0.831008
vn 0.033315 0.555262 0.831008
vn 0.033315 0.555262 0.831008
vn 0.033315 0.555262 0.831008
vn 0.033315 0.555262 0.831008
vn 0.033315 0.555262 0.831008
vn 0.033315 0.555262 0.831008
vn 0.033315 0.555262 0.831008
vn 0.033315 0.555262 0.831008
f 1//1 2//2 3//3
f 4//4 5//5 6//6
f 7//7 8//8 9//9
f 10//10 11//11 12//12
f 13//13 14//14 15//15
f 16//16 17//17 18//18
f 19//19 20//20 21//21
f 22//22 23//23 24//24
f 25//25 26//26 27//27
f 28//28 29//29 30//30
f 31//31 32//32 33//33
f 34//34 35//35 36//36
f 37//37 38//38 39//39
f 40//40 41//41 42//42
f 43//43 44//44 45//45
f 46//46 47//47 48//48
f 49//49 50//50 51//51
f 52//52 53//53 54//54
f 55//55 56//56 57//57
f 58//58 59//59 60//60
f 61//61 62//62 63//63
f 64//64 65//65 66//66
f 67//67 68//68 69//69
f 70//70 71//71 72//72
f 73//73 74//74 75//75
f 76//76 77//77 78//78
f 79//79 80//80 81//81
f 82//82 83//83 84//84
f 85//85 86//86 87//87
f 88//88 89//89 90//90
f 91//91 92//92 93//93
f 94//94 95//95 96//96
f 97//97 98//98 99//99
f 100//100 101//101 102//102
f 103//103 104//104 105//105
f 106//106 107//107 108//108
f 109//109 110//110 111//111
f 112//112 113//113 114//114
f 115//115 116//116 117//117
f 118//118 119//119 120//120
f 121//121 122//122 123//123
f 124//124 125//125 126//126
f 127//127 128//128 129//129
f 130//130 131//131 132//132
f 133//133 134//134 135//135
f 136//136 137//137 138//138
f 139//139 140//140 141//141
f 142//142 143//143 144//144
f 145//145 146//146 147//147
f 148//148 149//149 150//150
f 151//151 152//152 153//153
f 154//154 155//155 156//156
f 157//157 158//158 159//159
f 160//160 161//161 162//162
f 163//163 164//164 165//165
f 166//166 167//167 168//168
f 169//169 170//170 171//171
f 172//172 173//173 174//174
f 175//175 176//176 177//177
f 178//178 179//179 180//180
f 181//181 182//182 183//183
f 184//184 185//185 186//186
f 187//187 188//188 189//189
f 190//190 191//191 192//192
