# spoke_back_26
# Vertices: 192
v -1.033254 7.207119 11.298726
v -2.033254 34.923508 -0.181777
v -0.955295 7.210392 11.299837
v -2.033254 34.923508 -0.181777
v -1.955295 34.926781 -0.180666
v -0.955295 7.210392 11.299837
v -0.955295 7.210392 11.299837
v -1.955295 34.926781 -0.180666
v -0.884141 7.224813 11.328453
v -1.955295 34.926781 -0.180666
v -1.884141 34.941200 -0.152050
v -0.884141 7.224813 11.328453
v -0.884141 7.224813 11.328453
v -1.884141 34.941200 -0.152050
v -0.830626 7.248185 11.380218
v -1.884141 34.941200 -0.152050
v -1.830626 34.964573 -0.100286
v -0.830626 7.248185 11.380218
v -0.830626 7.248185 11.380218
v -1.830626 34.964573 -0.100286
v -0.802897 7.276951 11.447248
v -1.830626 34.964573 -0.100286
v -1.802897 34.993336 -0.033254
v -0.802897 7.276951 11.447248
v -0.802897 7.276951 11.447248
v -1.802897 34.993336 -0.033254
v -0.805174 7.306731 11.519343
v -1.802897 34.993336 -0.033254
v -1.805174 35.023117 0.038840
v -0.805174 7.306731 11.519343
v -0.805174 7.306731 11.519343
v -1.805174 35.023117 0.038840
v -0.837112 7.332992 11.585525
v -1.805174 35.023117 0.038840
v -1.837112 35.049377 0.105021
v -0.837112 7.332992 11.585525
v -0.837112 7.332992 11.585525
v -1.837112 35.049377 0.105021
v -0.893849 7.351736 11.635717
v -1.837112 35.049377 0.105021
v -1.893849 35.068123 0.155214
v -0.893849 7.351736 11.635717
v -0.893849 7.351736 11.635717
v -1.893849 35.068123 0.155214
v -0.966746 7.360108 11.662280
v -1.893849 35.068123 0.155214
v -1.966746 35.076496 0.181777
v -0.966746 7.360108 11.662280
v -0.966746 7.360108 11.662280
v -1.966746 35.076496 0.181777
v -1.044705 7.356835 11.661169
v -1.966746 35.076496 0.181777
v -2.044705 35.073223 0.180666
v -1.044705 7.356835 11.661169
v -1.044705 7.356835 11.661169
v -2.044705 35.073223 0.180666
v -1.115859 7.342415 11.632553
v -2.044705 35.073223 0.180666
v -2.115859 35.058800 0.152050
v -1.115859 7.342415 11.632553
v -1.115859 7.342415 11.632553
v -2.115859 35.058800 0.152050
v -1.169374 7.319043 11.580789
v -2.115859 35.058800 0.152050
v -2.169374 35.035431 0.100286
v -1.169374 7.319043 11.580789
v -1.169374 7.319043 11.580789
v -2.169374 35.035431 0.100286
v -1.197103 7.290277 11.513758
v -2.169374 35.035431 0.100286
v -2.197104 35.006664 0.033254
v -1.197103 7.290277 11.513758
v -1.197103 7.290277 11.513758
v -2.197104 35.006664 0.033254
v -1.194826 7.260497 11.441663
v -2.197104 35.006664 0.033254
v -2.194826 34.976883 -0.038840
v -1.194826 7.260497 11.441663
v -1.194826 7.260497 11.441663
v -2.194826 34.976883 -0.038840
v -1.162888 7.234236 11.375482
v -2.194826 34.976883 -0.038840
v -2.162888 34.950623 -0.105021
v -1.162888 7.234236 11.375482
v -1.162888 7.234236 11.375482
v -2.162888 34.950623 -0.105021
v -1.106151 7.215492 11.325289
v -2.162888 34.950623 -0.105021
v -2.106151 34.931877 -0.155214
v -1.106151 7.215492 11.325289
v -1.106151 7.215492 11.325289
v -2.106151 34.931877 -0.155214
v -1.033254 7.207119 11.298726
v -2.106151 34.931877 -0.155214
v -2.033254 34.923508 -0.181777
v -1.033254 7.207119 11.298726
v -1.033254 7.207119 11.298726
v -0.955295 7.210392 11.299837
v -1.000000 7.283614 11.480503
v -0.955295 7.210392 11.299837
v -0.884141 7.224813 11.328453
v -1.000000 7.283614 11.480503
v -0.884141 7.224813 11.328453
v -0.830626 7.248185 11.380218
v -1.000000 7.283614 11.480503
v -0.830626 7.248185 11.380218
v -0.802897 7.276951 11.447248
v -1.000000 7.283614 11.480503
v -0.802897 7.276951 11.447248
v -0.805174 7.306731 11.519343
v -1.000000 7.283614 11.480503
v -0.805174 7.306731 11.519343
v -0.837112 7.332992 11.585525
v -1.000000 7.283614 11.480503
v -0.837112 7.332992 11.585525
v -0.893849 7.351736 11.635717
v -1.000000 7.283614 11.480503
v -0.893849 7.351736 11.635717
v -0.966746 7.360108 11.662280
v -1.000000 7.283614 11.480503
v -0.966746 7.360108 11.662280
v -1.044705 7.356835 11.661169
v -1.000000 7.283614 11.480503
v -1.044705 7.356835 11.661169
v -1.115859 7.342415 11.632553
v -1.000000 7.283614 11.480503
v -1.115859 7.342415 11.632553
v -1.169374 7.319043 11.580789
v -1.000000 7.283614 11.480503
v -1.169374 7.319043 11.580789
v -1.197103 7.290277 11.513758
v -1.000000 7.283614 11.480503
v -1.197103 7.290277 11.513758
v -1.194826 7.260497 11.441663
v -1.000000 7.283614 11.480503
v -1.194826 7.260497 11.441663
v -1.162888 7.234236 11.375482
v -1.000000 7.283614 11.480503
v -1.162888 7.234236 11.375482
v -1.106151 7.215492 11.325289
v -1.000000 7.283614 11.480503
v -1.106151 7.215492 11.325289
v -1.033254 7.207119 11.298726
v -1.000000 7.283614 11.480503
v -1.955295 34.926781 -0.180666
v -2.033254 34.923508 -0.181777
v -2.000000 35.000000 -0.000000
v -1.884141 34.941200 -0.152050
v -1.955295 34.926781 -0.180666
v -2.000000 35.000000 -0.000000
v -1.830626 34.964573 -0.100286
v -1.884141 34.941200 -0.152050
v -2.000000 35.000000 -0.000000
v -1.802897 34.993336 -0.033254
v -1.830626 34.964573 -0.100286
v -2.000000 35.000000 -0.000000
v -1.805174 35.023117 0.038840
v -1.802897 34.993336 -0.033254
v -2.000000 35.000000 -0.000000
v -1.837112 35.049377 0.105021
v -1.805174 35.023117 0.038840
v -2.000000 35.000000 -0.000000
v -1.893849 35.068123 0.155214
v -1.837112 35.049377 0.105021
v -2.000000 35.000000 -0.000000
v -1.966746 35.076496 0.181777
v -1.893849 35.068123 0.155214
v -2.000000 35.000000 -0.000000
v -2.044705 35.073223 0.180666
v -1.966746 35.076496 0.181777
v -2.000000 35.000000 -0.000000
v -2.115859 35.058800 0.152050
v -2.044705 35.073223 0.180666
v -2.000000 35.000000 -0.000000
v -2.169374 35.035431 0.100286
v -2.115859 35.058800 0.152050
v -2.000000 35.000000 -0.000000
v -2.197104 35.006664 0.033254
v -2.169374 35.035431 0.100286
v -2.000000 35.000000 -0.000000
v -2.194826 34.976883 -0.038840
v -2.197104 35.006664 0.033254
v -2.000000 35.000000 -0.000000
v -2.162888 34.950623 -0.105021
v -2.194826 34.976883 -0.038840
v -2.000000 35.000000 -0.000000
v -2.106151 34.931877 -0.155214
v -2.162888 34.950623 -0.105021
v -2.000000 35.000000 -0.000000
v -2.033254 34.923508 -0.181777
v -2.106151 34.931877 -0.155214
v -2.000000 35.000000 -0.000000
vn -0.166272 -0.382471 -0.908884
vn -0.166272 -0.382471 -0.908884
vn 0.223526 -0.366106 -0.903329
vn -0.166272 -0.382471 -0.908884
vn 0.223526 -0.366106 -0.903329
vn 0.223526 -0.366106 -0.903329
vn 0.223526 -0.366106 -0.903329
vn 0.223526 -0.366106 -0.903329
vn 0.579294 -0.294005 -0.760250
vn 0.223526 -0.366106 -0.903329
vn 0.579294 -0.294005 -0.760250
vn 0.579294 -0.294005 -0.760250
vn 0.579294 -0.294005 -0.760250
vn 0.579294 -0.294005 -0.760250
vn 0.846870 -0.177144 -0.501430
vn 0.579294 -0.294005 -0.760250
vn 0.846870 -0.177144 -0.501430
vn 0.846870 -0.177144 -0.501430
vn 0.846870 -0.177144 -0.501430
vn 0.846870 -0.177144 -0.501430
vn 0.985517 -0.033315 -0.166272
vn 0.846870 -0.177144 -0.501430
vn 0.985517 -0.033315 -0.166272
vn 0.985517 -0.033315 -0.166272
vn 0.985517 -0.033315 -0.166272
vn 0.985517 -0.033315 -0.166272
vn 0.974128 0.115586 0.194200
vn 0.985517 -0.033315 -0.166272
vn 0.974128 0.115586 0.194200
vn 0.974128 0.115586 0.194200
vn 0.974128 0.115586 0.194200
vn 0.974128 0.115586 0.194200
vn 0.814438 0.246891 0.525106
vn 0.974128 0.115586 0.194200
vn 0.814438 0.246891 0.525106
vn 0.814438 0.246891 0.525106
vn 0.814438 0.246891 0.525106
vn 0.814438 0.246891 0.525106
vn 0.530756 0.340608 0.776070
vn 0.814438 0.246891 0.525106
vn 0.530756 0.340608 0.776070
vn 0.530756 0.340608 0.776070
vn 0.530756 0.340608 0.776070
vn 0.530756 0.340608 0.776070
vn 0.166272 0.382471 0.908884
vn 0.530756 0.340608 0.776070
vn 0.166272 0.382471 0.908884
vn 0.166272 0.382471 0.908884
vn 0.166272 0.382471 0.908884
vn 0.166272 0.382471 0.908884
vn -0.223526 0.366106 0.903329
vn 0.166272 0.382471 0.908884
vn -0.223526 0.366106 0.903329
vn -0.223526 0.366106 0.903329
vn -0.223526 0.366106 0.903329
vn -0.223526 0.366106 0.903329
vn -0.579294 0.294005 0.760250
vn -0.223526 0.366106 0.903329
vn -0.579294 0.294005 0.760250
vn -0.579294 0.294005 0.760250
vn -0.579294 0.294005 0.760250
vn -0.579294 0.294005 0.760250
vn -0.846870 0.177144 0.501430
vn -0.579294 0.294005 0.760250
vn -0.846870 0.177144 0.501430
vn -0.846870 0.177144 0.501430
vn -0.846870 0.177144 0.501430
vn -0.846870 0.177144 0.501430
vn -0.985517 0.033315 0.166272
vn -0.846870 0.177144 0.501430
vn -0.985517 0.033315 0.166272
vn -0.985517 0.033315 0.166272
vn -0.985517 0.033315 0.166272
vn -0.985517 0.033315 0.166272
vn -0.974128 -0.115586 -0.194200
vn -0.985517 0.033315 0.166272
vn -0.974128 -0.115586 -0.194200
vn -0.974128 -0.115586 -0.194200
vn -0.974128 -0.115586 -0.194200
vn -0.974128 -0.115586 -0.194200
vn -0.814438 -0.246891 -0.525106
vn -0.974128 -0.115586 -0.194200
vn -0.814438 -0.246891 -0.525106
vn -0.814438 -0.246891 -0.525106
vn -0.814438 -0.246891 -0.525106
vn -0.814438 -0.246891 -0.525106
vn -0.530756 -0.340608 -0.776070
vn -0.814438 -0.246891 -0.525106
vn -0.530756 -0.340608 -0.776070
vn -0.530756 -0.340608 -0.776070
vn -0.530756 -0.340608 -0.776070
vn -0.530756 -0.340608 -0.776070
vn -0.166272 -0.382471 -0.908884
vn -0.530756 -0.340608 -0.776070
vn -0.166272 -0.382471 -0.908884
vn -0.166272 -0.382471 -0.908884
vn 0.033315 -0.923367 0.382471
vn 0.033315 -0.923367 0.382471
vn 0.033315 -0.923367 0.382471
vn 0.033315 -0.923367 0.382471
vn 0.033315 -0.923367 0.382471
vn 0.033315 -0.923367 0.382471
vn 0.033315 -0.923367 0.382471
vn 0.033315 -0.923367 0.382471
vn 0.033315 -0.923367 0.382471
vn 0.033315 -0.923367 0.382471
vn 0.033315 -0.923367 0.382471
vn 0.033315 -0.923367 0.382471
vn 0.033315 -0.923367 0.382471
vn 0.033315 -0.923367 0.382471
vn 0.033315 -0.923367 0.382471
vn 0.033315 -0.923367 0.382471
vn 0.033315 -0.923367 0.382471
vn 0.033315 -0.923367 0.382471
vn 0.033315 -0.923367 0.382471
vn 0.033315 -0.923367 0.382471
vn 0.033315 -0.923367 0.382471
vn 0.033315 -0.923367 0.382471
vn 0.033315 -0.923367 0.382471
vn 0.033315 -0.923367 0.382471
vn 0.033315 -0.923367 0.382471
vn 0.033315 -0.923367 0.382471
vn 0.033315 -0.923367 0.382471
vn 0.033315 -0.923367 0.382471
vn 0.033315 -0.923367 0.382471
vn 0.033315 -0.923367 0.382471
vn 0.033315 -0.923367 0.382471
vn 0.033315 -0.923367 0.382471
vn 0.033315 -0.923367 0.382471
vn 0.033315 -0.923367 0.382471
vn 0.033315 -0.923367 0.382471
vn 0.033315 -0.923367 0.382471
vn 0.033315 -0.923367 0.382471
vn 0.033315 -0.923367 0.382471
vn 0.033315 -0.923367 0.382471
vn 0.033315 -0.923367 0.382471
vn 0.033315 -0.923367 0.382471
vn 0.033315 -0.923367 0.382471
vn 0.033315 -0.923367 0.382471
vn 0.033315 -0.923367 0.382471
vn 0.033315 -0.923367 0.382471
vn 0.033315 -0.923367 0.382471
vn 0.033315 -0.923367 0.382471
vn 0.033315 -0.923367 0.382471
vn -0.033315 0.923367 -0.382471
vn -0.033315 0.923367 -0.382471
vn -0.033315 0.923367 -0.382471
vn -0.033315 0.923367 -0.382471
vn -0.033315 0.923367 -0.382471
vn -0.033315 0.923367 -0.382471
vn -0.033315 0.923367 -0.382471
vn -0.033315 0.923367 -0.382471
vn -0.033315 0.923367 -0.382471
vn -0.033315 0.923367 -0.382471
vn -0.033315 0.923367 -0.382471
vn -0.033315 0.923367 -0.382471
vn -0.033315 0.923367 -0.382471
vn -0.033315 0.923367 -0.382471
vn -0.033315 0.923367 -0.382471
vn -0.033315 0.923367 -0.382471
vn -0.033315 0.923367 -0.382471
vn -0.033315 0.923367 -0.382471
vn -0.033315 0.923367 -0.382471
vn -0.033315 0.923367 -0.382471
vn -0.033315 0.923367 -0.382471
vn -0.033315 0.923367 -0.382471
vn -0.033315 0.923367 -0.382471
vn -0.033315 0.923367 -0.382471
vn -0.033315 0.923367 -0.382471
vn -0.033315 0.923367 -0.382471
vn -0.033315 0.923367 -0.382471
vn -0.033315 0.923367 -0.382471
vn -0.033315 0.923367 -0.382471
vn -0.033315 0.923367 -0.382471
vn -0.033315 0.923367 -0.382471
vn -0.033315 0.923367 -0.382471
vn -0.033315 0.923367 -0.382471
vn -0.033315 0.923367 -0.382471
vn -0.033315 0.923367 -0.382471
vn -0.033315 0.923367 -0.382471
vn -0.033315 0.923367 -0.382471
vn -0.033315 0.923367 -0.382471
vn -0.033315 0.923367 -0.382471
vn -0.033315 0.923367 -0.382471
vn -0.033315 0.923367 -0.382471
vn -0.033315 0.923367 -0.382471
vn -0.033315 0.923367 -0.382471
vn -0.033315 0.923367 -0.382471
vn -0.033315 0.923367 -0.382471
vn -0.033315 0.923367 -0.382471
vn -0.033315 0.923367 -0.382471
vn -0.033315 0.923367 -0.382471
f 1//1 2//2 3//3
f 4//4 5//5 6//6
f 7//7 8//8 9//9
f 10//10 11//11 12//12
f 13//13 14//14 15//15
f 16//16 17//17 18//18
f 19//19 20//20 21//21
f 22//22 23//23 24//24
f 25//25 26//26 27//27
f 28//28 29//29 30//30
f 31//31 32//32 33//33
f 34//34 35//35 36//36
f 37//37 38//38 39//39
f 40//40 41//41 42//42
f 43//43 44//44 45//45
f 46//46 47//47 48//48
f 49//49 50//50 51//51
f 52//52 53//53 54//54
f 55//55 56//56 57//57
f 58//58 59//59 60//60
f 61//61 62//62 63//63
f 64//64 65//65 66//66
f 67//67 68//68 69//69
f 70//70 71//71 72//72
f 73//73 74//74 75//75
f 76//76 77//77 78//78
f 79//79 80//80 81//81
f 82//82 83//83 84//84
f 85//85 86//86 87//87
f 88//88 89//89 90//90
f 91//91 92//92 93//93
f 94//94 95//95 96//96
f 97//97 98//98 99//99
f 100//100 101//101 102//102
f 103//103 104//104 105//105
f 106//106 107//107 108//108
f 109//109 110//110 111//111
f 112//112 113//113 114//114
f 115//115 116//116 117//117
f 118//118 119//119 120//120
f 121//121 122//122 123//123
f 124//124 125//125 126//126
f 127//127 128//128 129//129
f 130//130 131//131 132//132
f 133//133 134//134 135//135
f 136//136 137//137 138//138
f 139//139 140//140 141//141
f 142//142 143//143 144//144
f 145//145 146//146 147//147
f 148//148 149//149 150//150
f 151//151 152//152 153//153
f 154//154 155//155 156//156
f 157//157 158//158 159//159
f 160//160 161//161 162//162
f 163//163 164//164 165//165
f 166//166 167//167 168//168
f 169//169 170//170 171//171
f 172//172 173//173 174//174
f 175//175 176//176 177//177
f 178//178 179//179 180//180
f 181//181 182//182 183//183
f 184//184 185//185 186//186
f 187//187 188//188 189//189
f 190//190 191//191 192//192
