# spoke_back_31
# Vertices: 192
v -1.008113 28.951242 29.384838
v -2.008113 34.803951 -0.038721
v -0.931064 28.963615 29.384680
v -2.008113 34.803951 -0.038721
v -1.931064 34.816326 -0.038878
v -0.931064 28.963615 29.384680
v -0.931064 28.963615 29.384680
v -1.931064 34.816326 -0.038878
v -0.864511 29.003952 29.390442
v -1.931064 34.816326 -0.038878
v -1.864511 34.856663 -0.033117
v -0.864511 29.003952 29.390442
v -0.864511 29.003952 29.390442
v -1.864511 34.856663 -0.033117
v -0.818584 29.066111 29.401245
v -1.864511 34.856663 -0.033117
v -1.818584 34.918819 -0.022314
v -0.818584 29.066111 29.401245
v -0.818584 29.066111 29.401245
v -1.818584 34.918819 -0.022314
v -0.800276 29.140627 29.415445
v -1.818584 34.918819 -0.022314
v -1.800276 34.993336 -0.008114
v -0.800276 29.140627 29.415445
v -0.800276 29.140627 29.415445
v -1.800276 34.993336 -0.008114
v -0.812374 29.216160 29.430882
v -1.800276 34.993336 -0.008114
v -1.812374 35.068871 0.007322
v -0.812374 29.216160 29.430882
v -0.812374 29.216160 29.430882
v -1.812374 35.068871 0.007322
v -0.853037 29.281206 29.445202
v -1.812374 35.068871 0.007322
v -1.853037 35.133915 0.021642
v -0.853037 29.281206 29.445202
v -0.853037 29.281206 29.445202
v -1.853037 35.133915 0.021642
v -0.916073 29.325865 29.456226
v -1.853037 35.133915 0.021642
v -1.916073 35.178574 0.032668
v -0.916073 29.325865 29.456226
v -0.916073 29.325865 29.456226
v -1.916073 35.178574 0.032668
v -0.991887 29.343338 29.462280
v -1.916073 35.178574 0.032668
v -1.991887 35.196049 0.038720
v -0.991887 29.343338 29.462280
v -0.991887 29.343338 29.462280
v -1.991887 35.196049 0.038720
v -1.068936 29.330965 29.462437
v -1.991887 35.196049 0.038720
v -2.068935 35.183674 0.038878
v -1.068936 29.330965 29.462437
v -1.068936 29.330965 29.462437
v -2.068935 35.183674 0.038878
v -1.135489 29.290628 29.456675
v -2.068935 35.183674 0.038878
v -2.135489 35.143337 0.033116
v -1.135489 29.290628 29.456675
v -1.135489 29.290628 29.456675
v -2.135489 35.143337 0.033116
v -1.181416 29.228470 29.445871
v -2.135489 35.143337 0.033116
v -2.181416 35.081181 0.022313
v -1.181416 29.228470 29.445871
v -1.181416 29.228470 29.445871
v -2.181416 35.081181 0.022313
v -1.199724 29.153954 29.431671
v -2.181416 35.081181 0.022313
v -2.199724 35.006664 0.008113
v -1.199724 29.153954 29.431671
v -1.199724 29.153954 29.431671
v -2.199724 35.006664 0.008113
v -1.187626 29.078423 29.416237
v -2.199724 35.006664 0.008113
v -2.187626 34.931133 -0.007322
v -1.187626 29.078423 29.416237
v -1.187626 29.078423 29.416237
v -2.187626 34.931133 -0.007322
v -1.146963 29.013374 29.401917
v -2.187626 34.931133 -0.007322
v -2.146963 34.866085 -0.021643
v -1.146963 29.013374 29.401917
v -1.146963 29.013374 29.401917
v -2.146963 34.866085 -0.021643
v -1.083927 28.968716 29.390890
v -2.146963 34.866085 -0.021643
v -2.083927 34.821426 -0.032669
v -1.083927 28.968716 29.390890
v -1.083927 28.968716 29.390890
v -2.083927 34.821426 -0.032669
v -1.008113 28.951242 29.384838
v -2.083927 34.821426 -0.032669
v -2.008113 34.803951 -0.038721
v -1.008113 28.951242 29.384838
v -1.008113 28.951242 29.384838
v -0.931064 28.963615 29.384680
v -1.000000 29.147291 29.423559
v -0.931064 28.963615 29.384680
v -0.864511 29.003952 29.390442
v -1.000000 29.147291 29.423559
v -0.864511 29.003952 29.390442
v -0.818584 29.066111 29.401245
v -1.000000 29.147291 29.423559
v -0.818584 29.066111 29.401245
v -0.800276 29.140627 29.415445
v -1.000000 29.147291 29.423559
v -0.800276 29.140627 29.415445
v -0.812374 29.216160 29.430882
v -1.000000 29.147291 29.423559
v -0.812374 29.216160 29.430882
v -0.853037 29.281206 29.445202
v -1.000000 29.147291 29.423559
v -0.853037 29.281206 29.445202
v -0.916073 29.325865 29.456226
v -1.000000 29.147291 29.423559
v -0.916073 29.325865 29.456226
v -0.991887 29.343338 29.462280
v -1.000000 29.147291 29.423559
v -0.991887 29.343338 29.462280
v -1.068936 29.330965 29.462437
v -1.000000 29.147291 29.423559
v -1.068936 29.330965 29.462437
v -1.135489 29.290628 29.456675
v -1.000000 29.147291 29.423559
v -1.135489 29.290628 29.456675
v -1.181416 29.228470 29.445871
v -1.000000 29.147291 29.423559
v -1.181416 29.228470 29.445871
v -1.199724 29.153954 29.431671
v -1.000000 29.147291 29.423559
v -1.199724 29.153954 29.431671
v -1.187626 29.078423 29.416237
v -1.000000 29.147291 29.423559
v -1.187626 29.078423 29.416237
v -1.146963 29.013374 29.401917
v -1.000000 29.147291 29.423559
v -1.146963 29.013374 29.401917
v -1.083927 28.968716 29.390890
v -1.000000 29.147291 29.423559
v -1.083927 28.968716 29.390890
v -1.008113 28.951242 29.384838
v -1.000000 29.147291 29.423559
v -1.931064 34.816326 -0.038878
v -2.008113 34.803951 -0.038721
v -2.000000 35.000000 -0.000000
v -1.864511 34.856663 -0.033117
v -1.931064 34.816326 -0.038878
v -2.000000 35.000000 -0.000000
v -1.818584 34.918819 -0.022314
v -1.864511 34.856663 -0.033117
v -2.000000 35.000000 -0.000000
v -1.800276 34.993336 -0.008114
v -1.818584 34.918819 -0.022314
v -2.000000 35.000000 -0.000000
v -1.812374 35.068871 0.007322
v -1.800276 34.993336 -0.008114
v -2.000000 35.000000 -0.000000
v -1.853037 35.133915 0.021642
v -1.812374 35.068871 0.007322
v -2.000000 35.000000 -0.000000
v -1.916073 35.178574 0.032668
v -1.853037 35.133915 0.021642
v -2.000000 35.000000 -0.000000
v -1.991887 35.196049 0.038720
v -1.916073 35.178574 0.032668
v -2.000000 35.000000 -0.000000
v -2.068935 35.183674 0.038878
v -1.991887 35.196049 0.038720
v -2.000000 35.000000 -0.000000
v -2.135489 35.143337 0.033116
v -2.068935 35.183674 0.038878
v -2.000000 35.000000 -0.000000
v -2.181416 35.081181 0.022313
v -2.135489 35.143337 0.033116
v -2.000000 35.000000 -0.000000
v -2.199724 35.006664 0.008113
v -2.181416 35.081181 0.022313
v -2.000000 35.000000 -0.000000
v -2.187626 34.931133 -0.007322
v -2.199724 35.006664 0.008113
v -2.000000 35.000000 -0.000000
v -2.146963 34.866085 -0.021643
v -2.187626 34.931133 -0.007322
v -2.000000 35.000000 -0.000000
v -2.083927 34.821426 -0.032669
v -2.146963 34.866085 -0.021643
v -2.000000 35.000000 -0.000000
v -2.008113 34.803951 -0.038721
v -2.083927 34.821426 -0.032669
v -2.000000 35.000000 -0.000000
vn -0.040566 -0.980241 -0.193603
vn -0.040566 -0.980241 -0.193603
vn 0.344678 -0.918373 -0.194390
vn -0.040566 -0.980241 -0.193603
vn 0.344678 -0.918373 -0.194390
vn 0.344678 -0.918373 -0.194390
vn 0.344678 -0.918373 -0.194390
vn 0.344678 -0.918373 -0.194390
vn 0.677447 -0.716692 -0.165583
vn 0.344678 -0.918373 -0.194390
vn 0.677447 -0.716692 -0.165583
vn 0.677447 -0.716692 -0.165583
vn 0.677447 -0.716692 -0.165583
vn 0.677447 -0.716692 -0.165583
vn 0.907082 -0.405901 -0.111567
vn 0.677447 -0.716692 -0.165583
vn 0.907082 -0.405901 -0.111567
vn 0.907082 -0.405901 -0.111567
vn 0.907082 -0.405901 -0.111567
vn 0.907082 -0.405901 -0.111567
vn 0.998621 -0.033315 -0.040566
vn 0.907082 -0.405901 -0.111567
vn 0.998621 -0.033315 -0.040566
vn 0.998621 -0.033315 -0.040566
vn 0.998621 -0.033315 -0.040566
vn 0.998621 -0.033315 -0.040566
vn 0.938130 0.344343 0.036610
vn 0.998621 -0.033315 -0.040566
vn 0.938130 0.344343 0.036610
vn 0.938130 0.344343 0.036610
vn 0.938130 0.344343 0.036610
vn 0.938130 0.344343 0.036610
vn 0.734817 0.669578 0.108214
vn 0.938130 0.344343 0.036610
vn 0.734817 0.669578 0.108214
vn 0.734817 0.669578 0.108214
vn 0.734817 0.669578 0.108214
vn 0.734817 0.669578 0.108214
vn 0.419634 0.892875 0.163342
vn 0.734817 0.669578 0.108214
vn 0.419634 0.892875 0.163342
vn 0.419634 0.892875 0.163342
vn 0.419634 0.892875 0.163342
vn 0.419634 0.892875 0.163342
vn 0.040566 0.980241 0.193603
vn 0.419634 0.892875 0.163342
vn 0.040566 0.980241 0.193603
vn 0.040566 0.980241 0.193603
vn 0.040566 0.980241 0.193603
vn 0.040566 0.980241 0.193603
vn -0.344678 0.918373 0.194390
vn 0.040566 0.980241 0.193603
vn -0.344678 0.918373 0.194390
vn -0.344678 0.918373 0.194390
vn -0.344678 0.918373 0.194390
vn -0.344678 0.918373 0.194390
vn -0.677447 0.716692 0.165583
vn -0.344678 0.918373 0.194390
vn -0.677447 0.716692 0.165583
vn -0.677447 0.716692 0.165583
vn -0.677447 0.716692 0.165583
vn -0.677447 0.716692 0.165583
vn -0.907082 0.405901 0.111567
vn -0.677447 0.716692 0.165583
vn -0.907082 0.405901 0.111567
vn -0.907082 0.405901 0.111567
vn -0.907082 0.405901 0.111567
vn -0.907082 0.405901 0.111567
vn -0.998621 0.033315 0.040566
vn -0.907082 0.405901 0.111567
vn -0.998621 0.033315 0.040566
vn -0.998621 0.033315 0.040566
vn -0.998621 0.033315 0.040566
vn -0.998621 0.033315 0.040566
vn -0.938130 -0.344343 -0.036610
vn -0.998621 0.033315 0.040566
vn -0.938130 -0.344343 -0.036610
vn -0.938130 -0.344343 -0.036610
vn -0.938130 -0.344343 -0.036610
vn -0.938130 -0.344343 -0.036610
vn -0.734817 -0.669578 -0.108214
vn -0.938130 -0.344343 -0.036610
vn -0.734817 -0.669578 -0.108214
vn -0.734817 -0.669578 -0.108214
vn -0.734817 -0.669578 -0.108214
vn -0.734817 -0.669578 -0.108214
vn -0.419634 -0.892875 -0.163342
vn -0.734817 -0.669578 -0.108214
vn -0.419634 -0.892875 -0.163342
vn -0.419634 -0.892875 -0.163342
vn -0.419634 -0.892875 -0.163342
vn -0.419634 -0.892875 -0.163342
vn -0.040566 -0.980241 -0.193603
vn -0.419634 -0.892875 -0.163342
vn -0.040566 -0.980241 -0.193603
vn -0.040566 -0.980241 -0.193603
vn 0.033315 -0.194982 0.980241
vn 0.033315 -0.194982 0.980241
vn 0.033315 -0.194982 0.980241
vn 0.033315 -0.194982 0.980241
vn 0.033315 -0.194982 0.980241
vn 0.033315 -0.194982 0.980241
vn 0.033315 -0.194982 0.980241
vn 0.033315 -0.194982 0.980241
vn 0.033315 -0.194982 0.980241
vn 0.033315 -0.194982 0.980241
vn 0.033315 -0.194982 0.980241
vn 0.033315 -0.194982 0.980241
vn 0.033315 -0.194982 0.980241
vn 0.033315 -0.194982 0.980241
vn 0.033315 -0.194982 0.980241
vn 0.033315 -0.194982 0.980241
vn 0.033315 -0.194982 0.980241
vn 0.033315 -0.194982 0.980241
vn 0.033315 -0.194982 0.980241
vn 0.033315 -0.194982 0.980241
vn 0.033315 -0.194982 0.980241
vn 0.033315 -0.194982 0.980241
vn 0.033315 -0.194982 0.980241
vn 0.033315 -0.194982 0.980241
vn 0.033315 -0.194982 0.980241
vn 0.033315 -0.194982 0.980241
vn 0.033315 -0.194982 0.980241
vn 0.033315 -0.194982 0.980241
vn 0.033315 -0.194982 0.980241
vn 0.033315 -0.194982 0.980241
vn 0.033315 -0.194982 0.980241
vn 0.033315 -0.194982 0.980241
vn 0.033315 -0.194982 0.980241
vn 0.033315 -0.194982 0.980241
vn 0.033315 -0.194982 0.980241
vn 0.033315 -0.194982 0.980241
vn 0.033315 -0.194982 0.980241
vn 0.033315 -0.194982 0.980241
vn 0.033315 -0.194982 0.980241
vn 0.033315 -0.194982 0.980241
vn 0.033315 -0.194982 0.980241
vn 0.033315 -0.194982 0.980241
vn 0.033315 -0.194982 0.980241
vn 0.033315 -0.194982 0.980241
vn 0.033315 -0.194982 0.980241
vn 0.033315 -0.194982 0.980241
vn 0.033315 -0.194982 0.980241
vn 0.033315 -0.194982 0.980241
vn -0.033315 0.194982 -0.980241
vn -0.033315 0.194982 -0.980241
vn -0.033315 0.194982 -0.980241
vn -0.033315 0.194982 -0.980241
vn -0.033315 0.194982 -0.980241
vn -0.033315 0.194982 -0.980241
vn -0.033315 0.194982 -0.980241
vn -0.033315 0.194982 -0.980241
vn -0.033315 0.194982 -0.980241
vn -0.033315 0.194982 -0.980241
vn -0.033315 0.194982 -0.980241
vn -0.033315 0.194982 -0.980241
vn -0.033315 0.194982 -0.980241
vn -0.033315 0.194982 -0.980241
vn -0.033315 0.194982 -0.980241
vn -0.033315 0.194982 -0.980241
vn -0.033315 0.194982 -0.980241
vn -0.033315 0.194982 -0.980241
vn -0.033315 0.194982 -0.980241
vn -0.033315 0.194982 -0.980241
vn -0.033315 0.194982 -0.980241
vn -0.033315 0.194982 -0.980241
vn -0.033315 0.194982 -0.980241
vn -0.033315 0.194982 -0.980241
vn -0.033315 0.194982 -0.980241
vn -0.033315 0.194982 -0.980241
vn -0.033315 0.194982 -0.980241
vn -0.033315 0.194982 -0.980241
vn -0.033315 0.194982 -0.980241
vn -0.033315 0.194982 -0.980241
vn -0.033315 0.194982 -0.980241
vn -0.033315 0.194982 -0.980241
vn -0.033315 0.194982 -0.980241
vn -0.033315 0.194982 -0.980241
vn -0.033315 0.194982 -0.980241
vn -0.033315 0.194982 -0.980241
vn -0.033315 0.194982 -0.980241
vn -0.033315 0.194982 -0.980241
vn -0.033315 0.194982 -0.980241
vn -0.033315 0.194982 -0.980241
vn -0.033315 0.194982 -0.980241
vn -0.033315 0.194982 -0.980241
vn -0.033315 0.194982 -0.980241
vn -0.033315 0.194982 -0.980241
vn -0.033315 0.194982 -0.980241
vn -0.033315 0.194982 -0.980241
vn -0.033315 0.194982 -0.980241
vn -0.033315 0.194982 -0.980241
f 1//1 2//2 3//3
f 4//4 5//5 6//6
f 7//7 8//8 9//9
f 10//10 11//11 12//12
f 13//13 14//14 15//15
f 16//16 17//17 18//18
f 19//19 20//20 21//21
f 22//22 23//23 24//24
f 25//25 26//26 27//27
f 28//28 29//29 30//30
f 31//31 32//32 33//33
f 34//34 35//35 36//36
f 37//37 38//38 39//39
f 40//40 41//41 42//42
f 43//43 44//44 45//45
f 46//46 47//47 48//48
f 49//49 50//50 51//51
f 52//52 53//53 54//54
f 55//55 56//56 57//57
f 58//58 59//59 60//60
f 61//61 62//62 63//63
f 64//64 65//65 66//66
f 67//67 68//68 69//69
f 70//70 71//71 72//72
f 73//73 74//74 75//75
f 76//76 77//77 78//78
f 79//79 80//80 81//81
f 82//82 83//83 84//84
f 85//85 86//86 87//87
f 88//88 89//89 90//90
f 91//91 92//92 93//93
f 94//94 95//95 96//96
f 97//97 98//98 99//99
f 100//100 101//101 102//102
f 103//103 104//104 105//105
f 106//106 107//107 108//108
f 109//109 110//110 111//111
f 112//112 113//113 114//114
f 115//115 116//116 117//117
f 118//118 119//119 120//120
f 121//121 122//122 123//123
f 124//124 125//125 126//126
f 127//127 128//128 129//129
f 130//130 131//131 132//132
f 133//133 134//134 135//135
f 136//136 137//137 138//138
f 139//139 140//140 141//141
f 142//142 143//143 144//144
f 145//145 146//146 147//147
f 148//148 149//149 150//150
f 151//151 152//152 153//153
f 154//154 155//155 156//156
f 157//157 158//158 159//159
f 160//160 161//161 162//162
f 163//163 164//164 165//165
f 166//166 167//167 168//168
f 169//169 170//170 171//171
f 172//172 173//173 174//174
f 175//175 176//176 177//177
f 178//178 179//179 180//180
f 181//181 182//182 183//183
f 184//184 185//185 186//186
f 187//187 188//188 189//189
f 190//190 191//191 192//192
