# spoke_front_5
# Vertices: 192
v 1.002021 59.833035 16.833429
v 2.002021 34.888947 0.166323
v 1.078357 59.844040 16.821543
v 2.002021 34.888947 0.166323
v 2.078357 34.899952 0.154435
v 1.078357 59.844040 16.821543
v 1.078357 59.844040 16.821543
v 2.078357 34.899952 0.154435
v 1.142764 59.870274 16.786144
v 2.078357 34.899952 0.154435
v 2.142764 34.926186 0.119037
v 1.142764 59.870274 16.786144
v 1.142764 59.870274 16.786144
v 2.142764 34.926186 0.119037
v 1.185437 59.907745 16.732622
v 2.142764 34.926186 0.119037
v 2.185437 34.963657 0.065516
v 1.185437 59.907745 16.732622
v 1.185437 59.907745 16.732622
v 2.185437 34.963657 0.065516
v 1.199879 59.950752 16.669128
v 2.185437 34.963657 0.065516
v 2.199879 35.006664 0.002020
v 1.199879 59.950752 16.669128
v 1.199879 59.950752 16.669128
v 2.199879 35.006664 0.002020
v 1.183891 59.992741 16.605326
v 2.199879 35.006664 0.002020
v 2.183891 35.048653 -0.061782
v 1.183891 59.992741 16.605326
v 1.183891 59.992741 16.605326
v 2.183891 35.048653 -0.061782
v 1.139907 60.027325 16.550928
v 2.183891 35.048653 -0.061782
v 2.139907 35.083237 -0.116179
v 1.139907 60.027325 16.550928
v 1.139907 60.027325 16.550928
v 2.139907 35.083237 -0.116179
v 1.074623 60.049236 16.514217
v 2.139907 35.083237 -0.116179
v 2.074624 35.105148 -0.152889
v 1.074623 60.049236 16.514217
v 1.074623 60.049236 16.514217
v 2.074624 35.105148 -0.152889
v 0.997979 60.055141 16.500784
v 2.074624 35.105148 -0.152889
v 1.997979 35.111053 -0.166323
v 0.997979 60.055141 16.500784
v 0.997979 60.055141 16.500784
v 1.997979 35.111053 -0.166323
v 0.921643 60.044136 16.512672
v 1.997979 35.111053 -0.166323
v 1.921643 35.100048 -0.154436
v 0.921643 60.044136 16.512672
v 0.921643 60.044136 16.512672
v 1.921643 35.100048 -0.154436
v 0.857236 60.017902 16.548071
v 1.921643 35.100048 -0.154436
v 1.857236 35.073814 -0.119037
v 0.857236 60.017902 16.548071
v 0.857236 60.017902 16.548071
v 1.857236 35.073814 -0.119037
v 0.814563 59.980431 16.601591
v 1.857236 35.073814 -0.119037
v 1.814563 35.036343 -0.065516
v 0.814563 59.980431 16.601591
v 0.814563 59.980431 16.601591
v 1.814563 35.036343 -0.065516
v 0.800121 59.937428 16.665087
v 1.814563 35.036343 -0.065516
v 1.800121 34.993336 -0.002021
v 0.800121 59.937428 16.665087
v 0.800121 59.937428 16.665087
v 1.800121 34.993336 -0.002021
v 0.816109 59.895435 16.728889
v 1.800121 34.993336 -0.002021
v 1.816109 34.951347 0.061782
v 0.816109 59.895435 16.728889
v 0.816109 59.895435 16.728889
v 1.816109 34.951347 0.061782
v 0.860093 59.860851 16.783287
v 1.816109 34.951347 0.061782
v 1.860093 34.916763 0.116179
v 0.860093 59.860851 16.783287
v 0.860093 59.860851 16.783287
v 1.860093 34.916763 0.116179
v 0.925376 59.838940 16.819996
v 1.860093 34.916763 0.116179
v 1.925377 34.894852 0.152889
v 0.925376 59.838940 16.819996
v 0.925376 59.838940 16.819996
v 1.925377 34.894852 0.152889
v 1.002021 59.833035 16.833429
v 1.925377 34.894852 0.152889
v 2.002021 34.888947 0.166323
v 1.002021 59.833035 16.833429
v 1.002021 59.833035 16.833429
v 1.078357 59.844040 16.821543
v 1.000000 59.944088 16.667107
v 1.078357 59.844040 16.821543
v 1.142764 59.870274 16.786144
v 1.000000 59.944088 16.667107
v 1.142764 59.870274 16.786144
v 1.185437 59.907745 16.732622
v 1.000000 59.944088 16.667107
v 1.185437 59.907745 16.732622
v 1.199879 59.950752 16.669128
v 1.000000 59.944088 16.667107
v 1.199879 59.950752 16.669128
v 1.183891 59.992741 16.605326
v 1.000000 59.944088 16.667107
v 1.183891 59.992741 16.605326
v 1.139907 60.027325 16.550928
v 1.000000 59.944088 16.667107
v 1.139907 60.027325 16.550928
v 1.074623 60.049236 16.514217
v 1.000000 59.944088 16.667107
v 1.074623 60.049236 16.514217
v 0.997979 60.055141 16.500784
v 1.000000 59.944088 16.667107
v 0.997979 60.055141 16.500784
v 0.921643 60.044136 16.512672
v 1.000000 59.944088 16.667107
v 0.921643 60.044136 16.512672
v 0.857236 60.017902 16.548071
v 1.000000 59.944088 16.667107
v 0.857236 60.017902 16.548071
v 0.814563 59.980431 16.601591
v 1.000000 59.944088 16.667107
v 0.814563 59.980431 16.601591
v 0.800121 59.937428 16.665087
v 1.000000 59.944088 16.667107
v 0.800121 59.937428 16.665087
v 0.816109 59.895435 16.728889
v 1.000000 59.944088 16.667107
v 0.816109 59.895435 16.728889
v 0.860093 59.860851 16.783287
v 1.000000 59.944088 16.667107
v 0.860093 59.860851 16.783287
v 0.925376 59.838940 16.819996
v 1.000000 59.944088 16.667107
v 0.925376 59.838940 16.819996
v 1.002021 59.833035 16.833429
v 1.000000 59.944088 16.667107
v 2.078357 34.899952 0.154435
v 2.002021 34.888947 0.166323
v 2.000000 35.000000 -0.000000
v 2.142764 34.926186 0.119037
v 2.078357 34.899952 0.154435
v 2.000000 35.000000 -0.000000
v 2.185437 34.963657 0.065516
v 2.142764 34.926186 0.119037
v 2.000000 35.000000 -0.000000
v 2.199879 35.006664 0.002020
v 2.185437 34.963657 0.065516
v 2.000000 35.000000 -0.000000
v 2.183891 35.048653 -0.061782
v 2.199879 35.006664 0.002020
v 2.000000 35.000000 -0.000000
v 2.139907 35.083237 -0.116179
v 2.183891 35.048653 -0.061782
v 2.000000 35.000000 -0.000000
v 2.074624 35.105148 -0.152889
v 2.139907 35.083237 -0.116179
v 2.000000 35.000000 -0.000000
v 1.997979 35.111053 -0.166323
v 2.074624 35.105148 -0.152889
v 2.000000 35.000000 -0.000000
v 1.921643 35.100048 -0.154436
v 1.997979 35.111053 -0.166323
v 2.000000 35.000000 -0.000000
v 1.857236 35.073814 -0.119037
v 1.921643 35.100048 -0.154436
v 2.000000 35.000000 -0.000000
v 1.814563 35.036343 -0.065516
v 1.857236 35.073814 -0.119037
v 2.000000 35.000000 -0.000000
v 1.800121 34.993336 -0.002021
v 1.814563 35.036343 -0.065516
v 2.000000 35.000000 -0.000000
v 1.816109 34.951347 0.061782
v 1.800121 34.993336 -0.002021
v 2.000000 35.000000 -0.000000
v 1.860093 34.916763 0.116179
v 1.816109 34.951347 0.061782
v 2.000000 35.000000 -0.000000
v 1.925377 34.894852 0.152889
v 1.860093 34.916763 0.116179
v 2.000000 35.000000 -0.000000
v 2.002021 34.888947 0.166323
v 1.925377 34.894852 0.152889
v 2.000000 35.000000 -0.000000
vn 0.010103 -0.555262 0.831614
vn 0.010103 -0.555262 0.831614
vn 0.391785 -0.500246 0.772178
vn 0.010103 -0.555262 0.831614
vn 0.391785 -0.500246 0.772178
vn 0.391785 -0.500246 0.772178
vn 0.391785 -0.500246 0.772178
vn 0.391785 -0.500246 0.772178
vn 0.713822 -0.369072 0.595184
vn 0.391785 -0.500246 0.772178
vn 0.713822 -0.369072 0.595184
vn 0.713822 -0.369072 0.595184
vn 0.713822 -0.369072 0.595184
vn 0.713822 -0.369072 0.595184
vn 0.927186 -0.181711 0.327579
vn 0.713822 -0.369072 0.595184
vn 0.927186 -0.181711 0.327579
vn 0.927186 -0.181711 0.327579
vn 0.927186 -0.181711 0.327579
vn 0.927186 -0.181711 0.327579
vn 0.999394 0.033315 0.010103
vn 0.927186 -0.181711 0.327579
vn 0.999394 0.033315 0.010103
vn 0.999394 0.033315 0.010103
vn 0.999394 0.033315 0.010103
vn 0.999394 0.033315 0.010103
vn 0.919453 0.243268 -0.308911
vn 0.999394 0.033315 0.010103
vn 0.919453 0.243268 -0.308911
vn 0.919453 0.243268 -0.308911
vn 0.919453 0.243268 -0.308911
vn 0.919453 0.243268 -0.308911
vn 0.699534 0.416187 -0.580896
vn 0.919453 0.243268 -0.308911
vn 0.699534 0.416187 -0.580896
vn 0.699534 0.416187 -0.580896
vn 0.699534 0.416187 -0.580896
vn 0.699534 0.416187 -0.580896
vn 0.373118 0.525744 -0.764445
vn 0.699534 0.416187 -0.580896
vn 0.373118 0.525744 -0.764445
vn 0.373118 0.525744 -0.764445
vn 0.373118 0.525744 -0.764445
vn 0.373118 0.525744 -0.764445
vn -0.010103 0.555262 -0.831614
vn 0.373118 0.525744 -0.764445
vn -0.010103 0.555262 -0.831614
vn -0.010103 0.555262 -0.831614
vn -0.010103 0.555262 -0.831614
vn -0.010103 0.555262 -0.831614
vn -0.391785 0.500246 -0.772178
vn -0.010103 0.555262 -0.831614
vn -0.391785 0.500246 -0.772178
vn -0.391785 0.500246 -0.772178
vn -0.391785 0.500246 -0.772178
vn -0.391785 0.500246 -0.772178
vn -0.713822 0.369072 -0.595184
vn -0.391785 0.500246 -0.772178
vn -0.713822 0.369072 -0.595184
vn -0.713822 0.369072 -0.595184
vn -0.713822 0.369072 -0.595184
vn -0.713822 0.369072 -0.595184
vn -0.927186 0.181711 -0.327579
vn -0.713822 0.369072 -0.595184
vn -0.927186 0.181711 -0.327579
vn -0.927186 0.181711 -0.327579
vn -0.927186 0.181711 -0.327579
vn -0.927186 0.181711 -0.327579
vn -0.999394 -0.033315 -0.010103
vn -0.927186 0.181711 -0.327579
vn -0.999394 -0.033315 -0.010103
vn -0.999394 -0.033315 -0.010103
vn -0.999394 -0.033315 -0.010103
vn -0.999394 -0.033315 -0.010103
vn -0.919453 -0.243268 0.308911
vn -0.999394 -0.033315 -0.010103
vn -0.919453 -0.243268 0.308911
vn -0.919453 -0.243268 0.308911
vn -0.919453 -0.243268 0.308911
vn -0.919453 -0.243268 0.308911
vn -0.699534 -0.416187 0.580896
vn -0.919453 -0.243268 0.308911
vn -0.699534 -0.416187 0.580896
vn -0.699534 -0.416187 0.580896
vn -0.699534 -0.416187 0.580896
vn -0.699534 -0.416187 0.580896
vn -0.373118 -0.525744 0.764445
vn -0.699534 -0.416187 0.580896
vn -0.373118 -0.525744 0.764445
vn -0.373118 -0.525744 0.764445
vn -0.373118 -0.525744 0.764445
vn -0.373118 -0.525744 0.764445
vn 0.010103 -0.555262 0.831614
vn -0.373118 -0.525744 0.764445
vn 0.010103 -0.555262 0.831614
vn 0.010103 -0.555262 0.831614
vn -0.033315 0.831008 0.555262
vn -0.033315 0.831008 0.555262
vn -0.033315 0.831008 0.555262
vn -0.033315 0.831008 0.555262
vn -0.033315 0.831008 0.555262
vn -0.033315 0.831008 0.555262
vn -0.033315 0.831008 0.555262
vn -0.033315 0.831008 0.555262
vn -0.033315 0.831008 0.555262
vn -0.033315 0.831008 0.555262
vn -0.033315 0.831008 0.555262
vn -0.033315 0.831008 0.555262
vn -0.033315 0.831008 0.555262
vn -0.033315 0.831008 0.555262
vn -0.033315 0.831008 0.555262
vn -0.033315 0.831008 0.555262
vn -0.033315 0.831008 0.555262
vn -0.033315 0.831008 0.555262
vn -0.033315 0.831008 0.555262
vn -0.033315 0.831008 0.555262
vn -0.033315 0.831008 0.555262
vn -0.033315 0.831008 0.555262
vn -0.033315 0.831008 0.555262
vn -0.033315 0.831008 0.555262
vn -0.033315 0.831008 0.555262
vn -0.033315 0.831008 0.555262
vn -0.033315 0.831008 0.555262
vn -0.033315 0.831008 0.555262
vn -0.033315 0.831008 0.555262
vn -0.033315 0.831008 0.555262
vn -0.033315 0.831008 0.555262
vn -0.033315 0.831008 0.555262
vn -0.033315 0.831008 0.555262
vn -0.033315 0.831008 0.555262
vn -0.033315 0.831008 0.555262
vn -0.033315 0.831008 0.555262
vn -0.033315 0.831008 0.555262
vn -0.033315 0.831008 0.555262
vn -0.033315 0.831008 0.555262
vn -0.033315 0.831008 0.555262
vn -0.033315 0.831008 0.555262
vn -0.033315 0.831008 0.555262
vn -0.033315 0.831008 0.555262
vn -0.033315 0.831008 0.555262
vn -0.033315 0.831008 0.555262
vn -0.033315 0.831008 0.555262
vn -0.033315 0.831008 0.555262
vn -0.033315 0.831008 0.555262
vn 0.033315 -0.831008 -0.555262
vn 0.033315 -0.831008 -0.555262
vn 0.033315 -0.831008 -0.555262
vn 0.033315 -0.831008 -0.555262
vn 0.033315 -0.831008 -0.555262
vn 0.033315 -0.831008 -0.555262
vn 0.033315 -0.831008 -0.555262
vn 0.033315 -0.831008 -0.555262
vn 0.033315 -0.831008 -0.555262
vn 0.033315 -0.831008 -0.555262
vn 0.033315 -0.831008 -0.555262
vn 0.033315 -0.831008 -0.555262
vn 0.033315 -0.831008 -0.555262
vn 0.033315 -0.831008 -0.555262
vn 0.033315 -0.831008 -0.555262
vn 0.033315 -0.831008 -0.555262
vn 0.033315 -0.831008 -0.555262
vn 0.033315 -0.831008 -0.555262
vn 0.033315 -0.831008 -0.555262
vn 0.033315 -0.831008 -0.555262
vn 0.033315 -0.831008 -0.555262
vn 0.033315 -0.831008 -0.555262
vn 0.033315 -0.831008 -0.555262
vn 0.033315 -0.831008 -0.555262
vn 0.033315 -0.831008 -0.555262
vn 0.033315 -0.831008 -0.555262
vn 0.033315 -0.831008 -0.555262
vn 0.033315 -0.831008 -0.555262
vn 0.033315 -0.831008 -0.555262
vn 0.033315 -0.831008 -0.555262
vn 0.033315 -0.831008 -0.555262
vn 0.033315 -0.831008 -0.555262
vn 0.033315 -0.831008 -0.555262
vn 0.033315 -0.831008 -0.555262
vn 0.033315 -0.831008 -0.555262
vn 0.033315 -0.831008 -0.555262
vn 0.033315 -0.831008 -0.555262
vn 0.033315 -0.831008 -0.555262
vn 0.033315 -0.831008 -0.555262
vn 0.033315 -0.831008 -0.555262
vn 0.033315 -0.831008 -0.555262
vn 0.033315 -0.831008 -0.555262
vn 0.033315 -0.831008 -0.555262
vn 0.033315 -0.831008 -0.555262
vn 0.033315 -0.831008 -0.555262
vn 0.033315 -0.831008 -0.555262
vn 0.033315 -0.831008 -0.555262
vn 0.033315 -0.831008 -0.555262
f 1//1 2//2 3//3
f 4//4 5//5 6//6
f 7//7 8//8 9//9
f 10//10 11//11 12//12
f 13//13 14//14 15//15
f 16//16 17//17 18//18
f 19//19 20//20 21//21
f 22//22 23//23 24//24
f 25//25 26//26 27//27
f 28//28 29//29 30//30
f 31//31 32//32 33//33
f 34//34 35//35 36//36
f 37//37 38//38 39//39
f 40//40 41//41 42//42
f 43//43 44//44 45//45
f 46//46 47//47 48//48
f 49//49 50//50 51//51
f 52//52 53//53 54//54
f 55//55 56//56 57//57
f 58//58 59//59 60//60
f 61//61 62//62 63//63
f 64//64 65//65 66//66
f 67//67 68//68 69//69
f 70//70 71//71 72//72
f 73//73 74//74 75//75
f 76//76 77//77 78//78
f 79//79 80//80 81//81
f 82//82 83//83 84//84
f 85//85 86//86 87//87
f 88//88 89//89 90//90
f 91//91 92//92 93//93
f 94//94 95//95 96//96
f 97//97 98//98 99//99
f 100//100 101//101 102//102
f 103//103 104//104 105//105
f 106//106 107//107 108//108
f 109//109 110//110 111//111
f 112//112 113//113 114//114
f 115//115 116//116 117//117
f 118//118 119//119 120//120
f 121//121 122//122 123//123
f 124//124 125//125 126//126
f 127//127 128//128 129//129
f 130//130 131//131 132//132
f 133//133 134//134 135//135
f 136//136 137//137 138//138
f 139//139 140//140 141//141
f 142//142 143//143 144//144
f 145//145 146//146 147//147
f 148//148 149//149 150//150
f 151//151 152//152 153//153
f 154//154 155//155 156//156
f 157//157 158//158 159//159
f 160//160 161//161 162//162
f 163//163 164//164 165//165
f 166//166 167//167 168//168
f 169//169 170//170 171//171
f 172//172 173//173 174//174
f 175//175 176//176 177//177
f 178//178 179//179 180//180
f 181//181 182//182 183//183
f 184//184 185//185 186//186
f 187//187 188//188 189//189
f 190//190 191//191 192//192
