o spoke_front_28
v 1.0160553687885054 -21.35454648912266 21.072617634232564
v 1.0910802737706118 -21.341237594306513 21.08946323698676
v 1.1522390412479442 -21.30843669940144 21.125147183839314
v 1.190220776134535 -21.26113742263733 21.174236936756728
v 1.1992431359033904 -21.20654066664121 21.229259010871168
v 1.17793252213115 -21.152958287202964 21.281836798342113
v 1.1295333071037699 -21.108547708789526 21.323965815878882
v 1.0614138042457943 -21.080070057917634 21.34923228259065
v 0.9839446126201874 -21.071860776451388 21.353789631341456
v 0.9089197076380813 -21.085169671267536 21.33694402858726
v 0.8477609401607488 -21.11797056617261 21.301260081734707
v 0.809779205274158 -21.16526984293672 21.252170328817293
v 0.8007568455053024 -21.21986659893284 21.197148254702853
v 0.8220674592775427 -21.273448978371086 21.144570467231908
v 0.8704666743049229 -21.317859556784523 21.10244144969514
v 0.9385861771628985 -21.346337207656415 21.077174982983372
v 1.0160553687885054 -21.35454648912266 21.072617634232564
v 2.0160553873798124 -0.1413426591450424 -0.14058619574503872
v 2.0910802923619185 -0.1280337643288938 -0.12374059299084372
v 2.152239059839251 -0.09523286942382114 -0.08805664613828768
v 2.190220794725842 -0.0479335926597102 -0.03896689322087532
v 2.1992431544946975 0.006663163336408928 0.016055180893568277
v 2.1779325407224572 0.06024554277465555 0.0686329683645095
v 2.129533325695077 0.10465612118809275 0.11076198590128072
v 2.0614138228371015 0.13313377205998478 0.1360284526130453
v 1.9839446312114946 0.14134305352623144 0.1405858013638568
v 1.9089197262293882 0.12803415871008283 0.12374019860966179
v 1.8477609587520558 0.09523326380501018 0.08805625175710574
v 1.809779223865465 0.04793398704089924 0.038966498839693386
v 1.8007568640966096 -0.006662768955219889 -0.01605557527475021
v 1.82206747786885 -0.06024514839346651 -0.06863336274569143
v 1.8704666928962301 -0.10465572680690371 -0.11076238028246266
v 1.9385861957542057 -0.13313337767879574 -0.13602884699422724
v 2.0160553873798124 -0.1413426591450424 -0.14058619574503872
v 0.9999999907043464 -21.213203632787025 21.21320363278701
v 0.9999999907043464 -21.213203632787025 21.21320363278701
v 0.9999999907043464 -21.213203632787025 21.21320363278701
v 0.9999999907043464 -21.213203632787025 21.21320363278701
v 0.9999999907043464 -21.213203632787025 21.21320363278701
v 0.9999999907043464 -21.213203632787025 21.21320363278701
v 0.9999999907043464 -21.213203632787025 21.21320363278701
v 0.9999999907043464 -21.213203632787025 21.21320363278701
v 0.9999999907043464 -21.213203632787025 21.21320363278701
v 0.9999999907043464 -21.213203632787025 21.21320363278701
v 0.9999999907043464 -21.213203632787025 21.21320363278701
v 0.9999999907043464 -21.213203632787025 21.21320363278701
v 0.9999999907043464 -21.213203632787025 21.21320363278701
v 0.9999999907043464 -21.213203632787025 21.21320363278701
v 0.9999999907043464 -21.213203632787025 21.21320363278701
v 0.9999999907043464 -21.213203632787025 21.21320363278701
v 1.0160553687885054 -21.35454648912266 21.072617634232564
v 1.0910802737706118 -21.341237594306513 21.08946323698676
v 1.1522390412479442 -21.30843669940144 21.125147183839314
v 1.190220776134535 -21.26113742263733 21.174236936756728
v 1.1992431359033904 -21.20654066664121 21.229259010871168
v 1.17793252213115 -21.152958287202964 21.281836798342113
v 1.1295333071037699 -21.108547708789526 21.323965815878882
v 1.0614138042457943 -21.080070057917634 21.34923228259065
v 0.9839446126201874 -21.071860776451388 21.353789631341456
v 0.9089197076380813 -21.085169671267536 21.33694402858726
v 0.8477609401607488 -21.11797056617261 21.301260081734707
v 0.809779205274158 -21.16526984293672 21.252170328817293
v 0.8007568455053024 -21.21986659893284 21.197148254702853
v 0.8220674592775427 -21.273448978371086 21.144570467231908
v 0.8704666743049229 -21.317859556784523 21.10244144969514
v 0.9385861771628985 -21.346337207656415 21.077174982983372
v 1.0160553687885054 -21.35454648912266 21.072617634232564
v 2.0000000092956536 1.9719059451972498e-7 -1.971905909670113e-7
v 2.0000000092956536 1.9719059451972498e-7 -1.971905909670113e-7
v 2.0000000092956536 1.9719059451972498e-7 -1.971905909670113e-7
v 2.0000000092956536 1.9719059451972498e-7 -1.971905909670113e-7
v 2.0000000092956536 1.9719059451972498e-7 -1.971905909670113e-7
v 2.0000000092956536 1.9719059451972498e-7 -1.971905909670113e-7
v 2.0000000092956536 1.9719059451972498e-7 -1.971905909670113e-7
v 2.0000000092956536 1.9719059451972498e-7 -1.971905909670113e-7
v 2.0000000092956536 1.9719059451972498e-7 -1.971905909670113e-7
v 2.0000000092956536 1.9719059451972498e-7 -1.971905909670113e-7
v 2.0000000092956536 1.9719059451972498e-7 -1.971905909670113e-7
v 2.0000000092956536 1.9719059451972498e-7 -1.971905909670113e-7
v 2.0000000092956536 1.9719059451972498e-7 -1.971905909670113e-7
v 2.0000000092956536 1.9719059451972498e-7 -1.971905909670113e-7
v 2.0000000092956536 1.9719059451972498e-7 -1.971905909670113e-7
v 2.0000000092956536 1.9719059451972498e-7 -1.971905909670113e-7
v 2.0160553873798124 -0.1413426591450424 -0.14058619574503872
v 2.0910802923619185 -0.1280337643288938 -0.12374059299084372
v 2.152239059839251 -0.09523286942382114 -0.08805664613828768
v 2.190220794725842 -0.0479335926597102 -0.03896689322087532
v 2.1992431544946975 0.006663163336408928 0.016055180893568277
v 2.1779325407224572 0.06024554277465555 0.0686329683645095
v 2.129533325695077 0.10465612118809275 0.11076198590128072
v 2.0614138228371015 0.13313377205998478 0.1360284526130453
v 1.9839446312114946 0.14134305352623144 0.1405858013638568
v 1.9089197262293882 0.12803415871008283 0.12374019860966179
v 1.8477609587520558 0.09523326380501018 0.08805625175710574
v 1.809779223865465 0.04793398704089924 0.038966498839693386
v 1.8007568640966096 -0.006662768955219889 -0.01605557527475021
v 1.82206747786885 -0.06024514839346651 -0.06863336274569143
v 1.8704666928962301 -0.10465572680690371 -0.11076238028246266
v 1.9385861957542057 -0.13313337767879574 -0.13602884699422724
v 2.0160553873798124 -0.1413426591450424 -0.14058619574503872
vn 0.08027688922457599 -0.7067142711473181 -0.702929982297768
vn 0.45540142712966114 -0.6401698153333624 -0.6187019861810019
vn 0.7611952176223207 -0.47616531111799953 -0.4402822244388324
vn 0.9511039394452413 -0.23966895658673584 -0.19483348690707136
vn 0.9962157111504495 0.033314830232638426 0.0802768892245759
vn 0.8896626676751355 0.3012267360191704 0.3431658363712774
vn 0.6476665521358028 0.5232795958611541 0.5538108899253503
vn 0.30706907766545505 0.6656678828104445 0.6801432579511077
vn -0.08027688922457586 0.7067142711473181 0.702929982297768
vn -0.45540142712966114 0.6401698153333624 0.6187019861810019
vn -0.7611952176223207 0.47616531111799953 0.4402822244388324
vn -0.9511039394452413 0.23966895658673584 0.19483348690707136
vn -0.9962157111504495 -0.033314830232638336 -0.08027688922457582
vn -0.8896626676751355 -0.3012267360191704 -0.3431658363712774
vn -0.6476665521358028 -0.5232795958611541 -0.5538108899253503
vn -0.30706907766545505 -0.6656678828104445 -0.6801432579511077
vn 0.08027688922457574 -0.7067142711473181 -0.702929982297768
vn 0.08027688922457599 -0.7067142711473181 -0.702929982297768
vn 0.45540142712966114 -0.6401698153333624 -0.6187019861810019
vn 0.7611952176223207 -0.47616531111799953 -0.4402822244388324
vn 0.9511039394452413 -0.23966895658673584 -0.19483348690707136
vn 0.9962157111504495 0.033314830232638426 0.0802768892245759
vn 0.8896626676751355 0.3012267360191704 0.3431658363712774
vn 0.6476665521358028 0.5232795958611541 0.5538108899253503
vn 0.30706907766545505 0.6656678828104445 0.6801432579511077
vn -0.08027688922457586 0.7067142711473181 0.702929982297768
vn -0.45540142712966114 0.6401698153333624 0.6187019861810019
vn -0.7611952176223207 0.47616531111799953 0.4402822244388324
vn -0.9511039394452413 0.23966895658673584 0.19483348690707136
vn -0.9962157111504495 -0.033314830232638336 -0.08027688922457582
vn -0.8896626676751355 -0.3012267360191704 -0.3431658363712774
vn -0.6476665521358028 -0.5232795958611541 -0.5538108899253503
vn -0.30706907766545505 -0.6656678828104445 -0.6801432579511077
vn 0.08027688922457574 -0.7067142711473181 -0.702929982297768
vn -0.033314830232638475 -0.7067142711473186 0.7067142711473179
vn -0.033314830232638475 -0.7067142711473186 0.7067142711473179
vn -0.033314830232638475 -0.7067142711473186 0.7067142711473179
vn -0.033314830232638475 -0.7067142711473186 0.7067142711473179
vn -0.033314830232638475 -0.7067142711473186 0.7067142711473179
vn -0.033314830232638475 -0.7067142711473186 0.7067142711473179
vn -0.033314830232638475 -0.7067142711473186 0.7067142711473179
vn -0.033314830232638475 -0.7067142711473186 0.7067142711473179
vn -0.033314830232638475 -0.7067142711473186 0.7067142711473179
vn -0.033314830232638475 -0.7067142711473186 0.7067142711473179
vn -0.033314830232638475 -0.7067142711473186 0.7067142711473179
vn -0.033314830232638475 -0.7067142711473186 0.7067142711473179
vn -0.033314830232638475 -0.7067142711473186 0.7067142711473179
vn -0.033314830232638475 -0.7067142711473186 0.7067142711473179
vn -0.033314830232638475 -0.7067142711473186 0.7067142711473179
vn -0.033314830232638475 -0.7067142711473186 0.7067142711473179
vn -0.033314830232638475 -0.7067142711473186 0.7067142711473179
vn -0.033314830232638475 -0.7067142711473186 0.7067142711473179
vn -0.033314830232638475 -0.7067142711473186 0.7067142711473179
vn -0.033314830232638475 -0.7067142711473186 0.7067142711473179
vn -0.033314830232638475 -0.7067142711473186 0.7067142711473179
vn -0.033314830232638475 -0.7067142711473186 0.7067142711473179
vn -0.033314830232638475 -0.7067142711473186 0.7067142711473179
vn -0.033314830232638475 -0.7067142711473186 0.7067142711473179
vn -0.033314830232638475 -0.7067142711473186 0.7067142711473179
vn -0.033314830232638475 -0.7067142711473186 0.7067142711473179
vn -0.033314830232638475 -0.7067142711473186 0.7067142711473179
vn -0.033314830232638475 -0.7067142711473186 0.7067142711473179
vn -0.033314830232638475 -0.7067142711473186 0.7067142711473179
vn -0.033314830232638475 -0.7067142711473186 0.7067142711473179
vn -0.033314830232638475 -0.7067142711473186 0.7067142711473179
vn -0.033314830232638475 -0.7067142711473186 0.7067142711473179
vn -0.033314830232638475 -0.7067142711473186 0.7067142711473179
vn 0.033314830232638475 0.7067142711473186 -0.7067142711473179
vn 0.033314830232638475 0.7067142711473186 -0.7067142711473179
vn 0.033314830232638475 0.7067142711473186 -0.7067142711473179
vn 0.033314830232638475 0.7067142711473186 -0.7067142711473179
vn 0.033314830232638475 0.7067142711473186 -0.7067142711473179
vn 0.033314830232638475 0.7067142711473186 -0.7067142711473179
vn 0.033314830232638475 0.7067142711473186 -0.7067142711473179
vn 0.033314830232638475 0.7067142711473186 -0.7067142711473179
vn 0.033314830232638475 0.7067142711473186 -0.7067142711473179
vn 0.033314830232638475 0.7067142711473186 -0.7067142711473179
vn 0.033314830232638475 0.7067142711473186 -0.7067142711473179
vn 0.033314830232638475 0.7067142711473186 -0.7067142711473179
vn 0.033314830232638475 0.7067142711473186 -0.7067142711473179
vn 0.033314830232638475 0.7067142711473186 -0.7067142711473179
vn 0.033314830232638475 0.7067142711473186 -0.7067142711473179
vn 0.033314830232638475 0.7067142711473186 -0.7067142711473179
vn 0.033314830232638475 0.7067142711473186 -0.7067142711473179
vn 0.033314830232638475 0.7067142711473186 -0.7067142711473179
vn 0.033314830232638475 0.7067142711473186 -0.7067142711473179
vn 0.033314830232638475 0.7067142711473186 -0.7067142711473179
vn 0.033314830232638475 0.7067142711473186 -0.7067142711473179
vn 0.033314830232638475 0.7067142711473186 -0.7067142711473179
vn 0.033314830232638475 0.7067142711473186 -0.7067142711473179
vn 0.033314830232638475 0.7067142711473186 -0.7067142711473179
vn 0.033314830232638475 0.7067142711473186 -0.7067142711473179
vn 0.033314830232638475 0.7067142711473186 -0.7067142711473179
vn 0.033314830232638475 0.7067142711473186 -0.7067142711473179
vn 0.033314830232638475 0.7067142711473186 -0.7067142711473179
vn 0.033314830232638475 0.7067142711473186 -0.7067142711473179
vn 0.033314830232638475 0.7067142711473186 -0.7067142711473179
vn 0.033314830232638475 0.7067142711473186 -0.7067142711473179
vn 0.033314830232638475 0.7067142711473186 -0.7067142711473179
vn 0.033314830232638475 0.7067142711473186 -0.7067142711473179
vt 0 1
vt 0.0625 1
vt 0.125 1
vt 0.1875 1
vt 0.25 1
vt 0.3125 1
vt 0.375 1
vt 0.4375 1
vt 0.5 1
vt 0.5625 1
vt 0.625 1
vt 0.6875 1
vt 0.75 1
vt 0.8125 1
vt 0.875 1
vt 0.9375 1
vt 1 1
vt 0 0
vt 0.0625 0
vt 0.125 0
vt 0.1875 0
vt 0.25 0
vt 0.3125 0
vt 0.375 0
vt 0.4375 0
vt 0.5 0
vt 0.5625 0
vt 0.625 0
vt 0.6875 0
vt 0.75 0
vt 0.8125 0
vt 0.875 0
vt 0.9375 0
vt 1 0
vt 0.5 0.5
vt 0.5 0.5
vt 0.5 0.5
vt 0.5 0.5
vt 0.5 0.5
vt 0.5 0.5
vt 0.5 0.5
vt 0.5 0.5
vt 0.5 0.5
vt 0.5 0.5
vt 0.5 0.5
vt 0.5 0.5
vt 0.5 0.5
vt 0.5 0.5
vt 0.5 0.5
vt 0.5 0.5
vt 1 0.5
vt 0.9619397521018982 0.6913416981697083
vt 0.8535534143447876 0.8535534143447876
vt 0.6913416981697083 0.9619397521018982
vt 0.5 1
vt 0.30865827202796936 0.9619397521018982
vt 0.1464466154575348 0.8535534143447876
vt 0.03806023299694061 0.6913416981697083
vt 0 0.5
vt 0.03806023299694061 0.30865827202796936
vt 0.1464466154575348 0.1464466154575348
vt 0.30865827202796936 0.03806023299694061
vt 0.5 0
vt 0.6913416981697083 0.03806023299694061
vt 0.8535534143447876 0.1464466154575348
vt 0.9619397521018982 0.30865827202796936
vt 1 0.5
vt 0.5 0.5
vt 0.5 0.5
vt 0.5 0.5
vt 0.5 0.5
vt 0.5 0.5
vt 0.5 0.5
vt 0.5 0.5
vt 0.5 0.5
vt 0.5 0.5
vt 0.5 0.5
vt 0.5 0.5
vt 0.5 0.5
vt 0.5 0.5
vt 0.5 0.5
vt 0.5 0.5
vt 0.5 0.5
vt 1 0.5
vt 0.9619397521018982 0.30865827202796936
vt 0.8535534143447876 0.1464466154575348
vt 0.6913416981697083 0.03806023299694061
vt 0.5 0
vt 0.30865827202796936 0.03806023299694061
vt 0.1464466154575348 0.1464466154575348
vt 0.03806023299694061 0.30865827202796936
vt 0 0.5
vt 0.03806023299694061 0.6913416981697083
vt 0.1464466154575348 0.8535534143447876
vt 0.30865827202796936 0.9619397521018982
vt 0.5 1
vt 0.6913416981697083 0.9619397521018982
vt 0.8535534143447876 0.8535534143447876
vt 0.9619397521018982 0.6913416981697083
vt 1 0.5
f 1/1/1 18/18/18 2/2/2
f 18/18/18 19/19/19 2/2/2
f 2/2/2 19/19/19 3/3/3
f 19/19/19 20/20/20 3/3/3
f 3/3/3 20/20/20 4/4/4
f 20/20/20 21/21/21 4/4/4
f 4/4/4 21/21/21 5/5/5
f 21/21/21 22/22/22 5/5/5
f 5/5/5 22/22/22 6/6/6
f 22/22/22 23/23/23 6/6/6
f 6/6/6 23/23/23 7/7/7
f 23/23/23 24/24/24 7/7/7
f 7/7/7 24/24/24 8/8/8
f 24/24/24 25/25/25 8/8/8
f 8/8/8 25/25/25 9/9/9
f 25/25/25 26/26/26 9/9/9
f 9/9/9 26/26/26 10/10/10
f 26/26/26 27/27/27 10/10/10
f 10/10/10 27/27/27 11/11/11
f 27/27/27 28/28/28 11/11/11
f 11/11/11 28/28/28 12/12/12
f 28/28/28 29/29/29 12/12/12
f 12/12/12 29/29/29 13/13/13
f 29/29/29 30/30/30 13/13/13
f 13/13/13 30/30/30 14/14/14
f 30/30/30 31/31/31 14/14/14
f 14/14/14 31/31/31 15/15/15
f 31/31/31 32/32/32 15/15/15
f 15/15/15 32/32/32 16/16/16
f 32/32/32 33/33/33 16/16/16
f 16/16/16 33/33/33 17/17/17
f 33/33/33 34/34/34 17/17/17
f 51/51/51 52/52/52 35/35/35
f 52/52/52 53/53/53 36/36/36
f 53/53/53 54/54/54 37/37/37
f 54/54/54 55/55/55 38/38/38
f 55/55/55 56/56/56 39/39/39
f 56/56/56 57/57/57 40/40/40
f 57/57/57 58/58/58 41/41/41
f 58/58/58 59/59/59 42/42/42
f 59/59/59 60/60/60 43/43/43
f 60/60/60 61/61/61 44/44/44
f 61/61/61 62/62/62 45/45/45
f 62/62/62 63/63/63 46/46/46
f 63/63/63 64/64/64 47/47/47
f 64/64/64 65/65/65 48/48/48
f 65/65/65 66/66/66 49/49/49
f 66/66/66 67/67/67 50/50/50
f 85/85/85 84/84/84 68/68/68
f 86/86/86 85/85/85 69/69/69
f 87/87/87 86/86/86 70/70/70
f 88/88/88 87/87/87 71/71/71
f 89/89/89 88/88/88 72/72/72
f 90/90/90 89/89/89 73/73/73
f 91/91/91 90/90/90 74/74/74
f 92/92/92 91/91/91 75/75/75
f 93/93/93 92/92/92 76/76/76
f 94/94/94 93/93/93 77/77/77
f 95/95/95 94/94/94 78/78/78
f 96/96/96 95/95/95 79/79/79
f 97/97/97 96/96/96 80/80/80
f 98/98/98 97/97/97 81/81/81
f 99/99/99 98/98/98 82/82/82
f 100/100/100 99/99/99 83/83/83
