o spoke_back_10
v -0.9986750268359471 27.792880435612894 -11.295714326318802
v -0.9222833639735748 27.7845078523948 -11.309273495774608
v -0.8577233441170911 27.765764375379646 -11.348900803460204
v -0.8148236700331262 27.73950351822078 -11.408563379281794
v -0.8001153976387976 27.70972326683471 -11.47917811380307
v -0.8158377534433614 27.680957392006512 -11.54999456213449
v -0.859597126047907 27.65758523319832 -11.610231569951921
v -0.9247315779002301 27.64316500021635 -11.650718576158097
v -1.001324954572746 27.639892030348157 -11.665291829024138
v -1.0777166174351183 27.64826461356625 -11.651732659568331
v -1.142276637291602 27.667008090581405 -11.612105351882736
v -1.185176311375567 27.693268947740272 -11.552442776061145
v -1.1998845837698955 27.72304919912634 -11.48182804153987
v -1.1841622279653317 27.75181507395454 -11.41101159320845
v -1.1404028553607861 27.775187232762732 -11.350774585391019
v -1.075268403508463 27.7896074657447 -11.310287579184843
v -0.9986750268359471 27.792880435612894 -11.295714326318802
v -1.998675045427254 0.07649394499044782 0.18478885807144607
v -1.9222833825648817 0.06812136177235217 0.17122968861563947
v -1.857723362708398 0.04937788475720062 0.13160238093004395
v -1.814823688624433 0.02311702759833345 0.0719398051084541
v -1.8001154162301045 -0.0066632237877364275 0.001325070587177457
v -1.8158377720346683 -0.035429098615933796 -0.06949137774424319
v -1.8595971446392139 -0.05880125742412723 -0.12972838556167332
v -1.924731596491537 -0.07322149040609816 -0.17021539176784906
v -2.001324973164053 -0.07649446027429185 -0.18478864463389044
v -2.077716636026425 -0.06812187705619621 -0.17122947517808385
v -2.1422766558829087 -0.04937840004104466 -0.13160216749248832
v -2.1851763299668736 -0.02311754288217749 -0.07193959167089847
v -2.1998846023612026 0.0066627085038923894 -0.0013248571496218275
v -2.184162246556639 0.03542858333208976 0.06949159118179882
v -2.140402873952093 0.05880074214028319 0.12972859899922895
v -2.0752684220997697 0.07322097512225412 0.17021560520540469
v -1.998675045427254 0.07649394499044782 0.18478885807144607
v -0.9999999907043465 27.716386232980526 -11.48050307767147
v -0.9999999907043465 27.716386232980526 -11.48050307767147
v -0.9999999907043465 27.716386232980526 -11.48050307767147
v -0.9999999907043465 27.716386232980526 -11.48050307767147
v -0.9999999907043465 27.716386232980526 -11.48050307767147
v -0.9999999907043465 27.716386232980526 -11.48050307767147
v -0.9999999907043465 27.716386232980526 -11.48050307767147
v -0.9999999907043465 27.716386232980526 -11.48050307767147
v -0.9999999907043465 27.716386232980526 -11.48050307767147
v -0.9999999907043465 27.716386232980526 -11.48050307767147
v -0.9999999907043465 27.716386232980526 -11.48050307767147
v -0.9999999907043465 27.716386232980526 -11.48050307767147
v -0.9999999907043465 27.716386232980526 -11.48050307767147
v -0.9999999907043465 27.716386232980526 -11.48050307767147
v -0.9999999907043465 27.716386232980526 -11.48050307767147
v -0.9999999907043465 27.716386232980526 -11.48050307767147
v -0.9986750268359471 27.792880435612894 -11.295714326318802
v -0.9222833639735748 27.7845078523948 -11.309273495774608
v -0.8577233441170911 27.765764375379646 -11.348900803460204
v -0.8148236700331262 27.73950351822078 -11.408563379281794
v -0.8001153976387976 27.70972326683471 -11.47917811380307
v -0.8158377534433614 27.680957392006512 -11.54999456213449
v -0.859597126047907 27.65758523319832 -11.610231569951921
v -0.9247315779002301 27.64316500021635 -11.650718576158097
v -1.001324954572746 27.639892030348157 -11.665291829024138
v -1.0777166174351183 27.64826461356625 -11.651732659568331
v -1.142276637291602 27.667008090581405 -11.612105351882736
v -1.185176311375567 27.693268947740272 -11.552442776061145
v -1.1998845837698955 27.72304919912634 -11.48182804153987
v -1.1841622279653317 27.75181507395454 -11.41101159320845
v -1.1404028553607861 27.775187232762732 -11.350774585391019
v -1.075268403508463 27.7896074657447 -11.310287579184843
v -0.9986750268359471 27.792880435612894 -11.295714326318802
v -2.0000000092956536 -2.5764192201904734e-7 1.0671877781476269e-7
v -2.0000000092956536 -2.5764192201904734e-7 1.0671877781476269e-7
v -2.0000000092956536 -2.5764192201904734e-7 1.0671877781476269e-7
v -2.0000000092956536 -2.5764192201904734e-7 1.0671877781476269e-7
v -2.0000000092956536 -2.5764192201904734e-7 1.0671877781476269e-7
v -2.0000000092956536 -2.5764192201904734e-7 1.0671877781476269e-7
v -2.0000000092956536 -2.5764192201904734e-7 1.0671877781476269e-7
v -2.0000000092956536 -2.5764192201904734e-7 1.0671877781476269e-7
v -2.0000000092956536 -2.5764192201904734e-7 1.0671877781476269e-7
v -2.0000000092956536 -2.5764192201904734e-7 1.0671877781476269e-7
v -2.0000000092956536 -2.5764192201904734e-7 1.0671877781476269e-7
v -2.0000000092956536 -2.5764192201904734e-7 1.0671877781476269e-7
v -2.0000000092956536 -2.5764192201904734e-7 1.0671877781476269e-7
v -2.0000000092956536 -2.5764192201904734e-7 1.0671877781476269e-7
v -2.0000000092956536 -2.5764192201904734e-7 1.0671877781476269e-7
v -2.0000000092956536 -2.5764192201904734e-7 1.0671877781476269e-7
v -1.998675045427254 0.07649394499044782 0.18478885807144607
v -1.9222833825648817 0.06812136177235217 0.17122968861563947
v -1.857723362708398 0.04937788475720062 0.13160238093004395
v -1.814823688624433 0.02311702759833345 0.0719398051084541
v -1.8001154162301045 -0.0066632237877364275 0.001325070587177457
v -1.8158377720346683 -0.035429098615933796 -0.06949137774424319
v -1.8595971446392139 -0.05880125742412723 -0.12972838556167332
v -1.924731596491537 -0.07322149040609816 -0.17021539176784906
v -2.001324973164053 -0.07649446027429185 -0.18478864463389044
v -2.077716636026425 -0.06812187705619621 -0.17122947517808385
v -2.1422766558829087 -0.04937840004104466 -0.13160216749248832
v -2.1851763299668736 -0.02311754288217749 -0.07193959167089847
v -2.1998846023612026 0.0066627085038923894 -0.0013248571496218275
v -2.184162246556639 0.03542858333208976 0.06949159118179882
v -2.140402873952093 0.05880074214028319 0.12972859899922895
v -2.0752684220997697 0.07322097512225412 0.17021560520540469
v -1.998675045427254 0.07649394499044782 0.18478885807144607
vn 0.0066248192432794605 0.3824710074625906 0.9239437429955056
vn 0.3885831446430835 0.34060810109111667 0.8561479201460436
vn 0.7113832001372419 0.24689070061247112 0.6580113407180607
vn 0.9258816148829084 0.11558642999587915 0.3596985021134025
vn 0.999422950435182 -0.033314830232638454 0.006624819243279517
vn 0.920811197687052 -0.1771442094283137 -0.3474574323282707
vn 0.7020142909151259 -0.29400498535562575 -0.6486424314959447
vn 0.3763420748579517 -0.3661061685681986 -0.851077502950187
vn -0.006624819243279338 -0.3824710074625906 -0.9239437429955056
vn -0.3885831446430835 -0.34060810109111667 -0.8561479201460436
vn -0.7113832001372419 -0.24689070061247112 -0.6580113407180607
vn -0.9258816148829084 -0.11558642999587915 -0.3596985021134025
vn -0.999422950435182 0.033314830232638405 -0.0066248192432796305
vn -0.920811197687052 0.1771442094283137 0.3474574323282707
vn -0.7020142909151259 0.29400498535562575 0.6486424314959447
vn -0.3763420748579517 0.3661061685681986 0.851077502950187
vn 0.006624819243279216 0.3824710074625906 0.9239437429955056
vn 0.0066248192432794605 0.3824710074625906 0.9239437429955056
vn 0.3885831446430835 0.34060810109111667 0.8561479201460436
vn 0.7113832001372419 0.24689070061247112 0.6580113407180607
vn 0.9258816148829084 0.11558642999587915 0.3596985021134025
vn 0.999422950435182 -0.033314830232638454 0.006624819243279517
vn 0.920811197687052 -0.1771442094283137 -0.3474574323282707
vn 0.7020142909151259 -0.29400498535562575 -0.6486424314959447
vn 0.3763420748579517 -0.3661061685681986 -0.851077502950187
vn -0.006624819243279338 -0.3824710074625906 -0.9239437429955056
vn -0.3885831446430835 -0.34060810109111667 -0.8561479201460436
vn -0.7113832001372419 -0.24689070061247112 -0.6580113407180607
vn -0.9258816148829084 -0.11558642999587915 -0.3596985021134025
vn -0.999422950435182 0.033314830232638405 -0.0066248192432796305
vn -0.920811197687052 0.1771442094283137 0.3474574323282707
vn -0.7020142909151259 0.29400498535562575 0.6486424314959447
vn -0.3763420748579517 0.3661061685681986 0.851077502950187
vn 0.006624819243279216 0.3824710074625906 0.9239437429955056
vn 0.03331483023263848 0.9233666934306878 -0.3824710074625907
vn 0.03331483023263848 0.9233666934306878 -0.3824710074625907
vn 0.03331483023263848 0.9233666934306878 -0.3824710074625907
vn 0.03331483023263848 0.9233666934306878 -0.3824710074625907
vn 0.03331483023263848 0.9233666934306878 -0.3824710074625907
vn 0.03331483023263848 0.9233666934306878 -0.3824710074625907
vn 0.03331483023263848 0.9233666934306878 -0.3824710074625907
vn 0.03331483023263848 0.9233666934306878 -0.3824710074625907
vn 0.03331483023263848 0.9233666934306878 -0.3824710074625907
vn 0.03331483023263848 0.9233666934306878 -0.3824710074625907
vn 0.03331483023263848 0.9233666934306878 -0.3824710074625907
vn 0.03331483023263848 0.9233666934306878 -0.3824710074625907
vn 0.03331483023263848 0.9233666934306878 -0.3824710074625907
vn 0.03331483023263848 0.9233666934306878 -0.3824710074625907
vn 0.03331483023263848 0.9233666934306878 -0.3824710074625907
vn 0.03331483023263848 0.9233666934306878 -0.3824710074625907
vn 0.03331483023263848 0.9233666934306878 -0.3824710074625907
vn 0.03331483023263848 0.9233666934306878 -0.3824710074625907
vn 0.03331483023263848 0.9233666934306878 -0.3824710074625907
vn 0.03331483023263848 0.9233666934306878 -0.3824710074625907
vn 0.03331483023263848 0.9233666934306878 -0.3824710074625907
vn 0.03331483023263848 0.9233666934306878 -0.3824710074625907
vn 0.03331483023263848 0.9233666934306878 -0.3824710074625907
vn 0.03331483023263848 0.9233666934306878 -0.3824710074625907
vn 0.03331483023263848 0.9233666934306878 -0.3824710074625907
vn 0.03331483023263848 0.9233666934306878 -0.3824710074625907
vn 0.03331483023263848 0.9233666934306878 -0.3824710074625907
vn 0.03331483023263848 0.9233666934306878 -0.3824710074625907
vn 0.03331483023263848 0.9233666934306878 -0.3824710074625907
vn 0.03331483023263848 0.9233666934306878 -0.3824710074625907
vn 0.03331483023263848 0.9233666934306878 -0.3824710074625907
vn 0.03331483023263848 0.9233666934306878 -0.3824710074625907
vn 0.03331483023263848 0.9233666934306878 -0.3824710074625907
vn -0.03331483023263848 -0.9233666934306878 0.3824710074625907
vn -0.03331483023263848 -0.9233666934306878 0.3824710074625907
vn -0.03331483023263848 -0.9233666934306878 0.3824710074625907
vn -0.03331483023263848 -0.9233666934306878 0.3824710074625907
vn -0.03331483023263848 -0.9233666934306878 0.3824710074625907
vn -0.03331483023263848 -0.9233666934306878 0.3824710074625907
vn -0.03331483023263848 -0.9233666934306878 0.3824710074625907
vn -0.03331483023263848 -0.9233666934306878 0.3824710074625907
vn -0.03331483023263848 -0.9233666934306878 0.3824710074625907
vn -0.03331483023263848 -0.9233666934306878 0.3824710074625907
vn -0.03331483023263848 -0.9233666934306878 0.3824710074625907
vn -0.03331483023263848 -0.9233666934306878 0.3824710074625907
vn -0.03331483023263848 -0.9233666934306878 0.3824710074625907
vn -0.03331483023263848 -0.9233666934306878 0.3824710074625907
vn -0.03331483023263848 -0.9233666934306878 0.3824710074625907
vn -0.03331483023263848 -0.9233666934306878 0.3824710074625907
vn -0.03331483023263848 -0.9233666934306878 0.3824710074625907
vn -0.03331483023263848 -0.9233666934306878 0.3824710074625907
vn -0.03331483023263848 -0.9233666934306878 0.3824710074625907
vn -0.03331483023263848 -0.9233666934306878 0.3824710074625907
vn -0.03331483023263848 -0.9233666934306878 0.3824710074625907
vn -0.03331483023263848 -0.9233666934306878 0.3824710074625907
vn -0.03331483023263848 -0.9233666934306878 0.3824710074625907
vn -0.03331483023263848 -0.9233666934306878 0.3824710074625907
vn -0.03331483023263848 -0.9233666934306878 0.3824710074625907
vn -0.03331483023263848 -0.9233666934306878 0.3824710074625907
vn -0.03331483023263848 -0.9233666934306878 0.3824710074625907
vn -0.03331483023263848 -0.9233666934306878 0.3824710074625907
vn -0.03331483023263848 -0.9233666934306878 0.3824710074625907
vn -0.03331483023263848 -0.9233666934306878 0.3824710074625907
vn -0.03331483023263848 -0.9233666934306878 0.3824710074625907
vn -0.03331483023263848 -0.9233666934306878 0.3824710074625907
vn -0.03331483023263848 -0.9233666934306878 0.3824710074625907
vt 0 1
vt 0.0625 1
vt 0.125 1
vt 0.1875 1
vt 0.25 1
vt 0.3125 1
vt 0.375 1
vt 0.4375 1
vt 0.5 1
vt 0.5625 1
vt 0.625 1
vt 0.6875 1
vt 0.75 1
vt 0.8125 1
vt 0.875 1
vt 0.9375 1
vt 1 1
vt 0 0
vt 0.0625 0
vt 0.125 0
vt 0.1875 0
vt 0.25 0
vt 0.3125 0
vt 0.375 0
vt 0.4375 0
vt 0.5 0
vt 0.5625 0
vt 0.625 0
vt 0.6875 0
vt 0.75 0
vt 0.8125 0
vt 0.875 0
vt 0.9375 0
vt 1 0
vt 0.5 0.5
vt 0.5 0.5
vt 0.5 0.5
vt 0.5 0.5
vt 0.5 0.5
vt 0.5 0.5
vt 0.5 0.5
vt 0.5 0.5
vt 0.5 0.5
vt 0.5 0.5
vt 0.5 0.5
vt 0.5 0.5
vt 0.5 0.5
vt 0.5 0.5
vt 0.5 0.5
vt 0.5 0.5
vt 1 0.5
vt 0.9619397521018982 0.6913416981697083
vt 0.8535534143447876 0.8535534143447876
vt 0.6913416981697083 0.9619397521018982
vt 0.5 1
vt 0.30865827202796936 0.9619397521018982
vt 0.1464466154575348 0.8535534143447876
vt 0.03806023299694061 0.6913416981697083
vt 0 0.5
vt 0.03806023299694061 0.30865827202796936
vt 0.1464466154575348 0.1464466154575348
vt 0.30865827202796936 0.03806023299694061
vt 0.5 0
vt 0.6913416981697083 0.03806023299694061
vt 0.8535534143447876 0.1464466154575348
vt 0.9619397521018982 0.30865827202796936
vt 1 0.5
vt 0.5 0.5
vt 0.5 0.5
vt 0.5 0.5
vt 0.5 0.5
vt 0.5 0.5
vt 0.5 0.5
vt 0.5 0.5
vt 0.5 0.5
vt 0.5 0.5
vt 0.5 0.5
vt 0.5 0.5
vt 0.5 0.5
vt 0.5 0.5
vt 0.5 0.5
vt 0.5 0.5
vt 0.5 0.5
vt 1 0.5
vt 0.9619397521018982 0.30865827202796936
vt 0.8535534143447876 0.1464466154575348
vt 0.6913416981697083 0.03806023299694061
vt 0.5 0
vt 0.30865827202796936 0.03806023299694061
vt 0.1464466154575348 0.1464466154575348
vt 0.03806023299694061 0.30865827202796936
vt 0 0.5
vt 0.03806023299694061 0.6913416981697083
vt 0.1464466154575348 0.8535534143447876
vt 0.30865827202796936 0.9619397521018982
vt 0.5 1
vt 0.6913416981697083 0.9619397521018982
vt 0.8535534143447876 0.8535534143447876
vt 0.9619397521018982 0.6913416981697083
vt 1 0.5
f 1/1/1 18/18/18 2/2/2
f 18/18/18 19/19/19 2/2/2
f 2/2/2 19/19/19 3/3/3
f 19/19/19 20/20/20 3/3/3
f 3/3/3 20/20/20 4/4/4
f 20/20/20 21/21/21 4/4/4
f 4/4/4 21/21/21 5/5/5
f 21/21/21 22/22/22 5/5/5
f 5/5/5 22/22/22 6/6/6
f 22/22/22 23/23/23 6/6/6
f 6/6/6 23/23/23 7/7/7
f 23/23/23 24/24/24 7/7/7
f 7/7/7 24/24/24 8/8/8
f 24/24/24 25/25/25 8/8/8
f 8/8/8 25/25/25 9/9/9
f 25/25/25 26/26/26 9/9/9
f 9/9/9 26/26/26 10/10/10
f 26/26/26 27/27/27 10/10/10
f 10/10/10 27/27/27 11/11/11
f 27/27/27 28/28/28 11/11/11
f 11/11/11 28/28/28 12/12/12
f 28/28/28 29/29/29 12/12/12
f 12/12/12 29/29/29 13/13/13
f 29/29/29 30/30/30 13/13/13
f 13/13/13 30/30/30 14/14/14
f 30/30/30 31/31/31 14/14/14
f 14/14/14 31/31/31 15/15/15
f 31/31/31 32/32/32 15/15/15
f 15/15/15 32/32/32 16/16/16
f 32/32/32 33/33/33 16/16/16
f 16/16/16 33/33/33 17/17/17
f 33/33/33 34/34/34 17/17/17
f 51/51/51 52/52/52 35/35/35
f 52/52/52 53/53/53 36/36/36
f 53/53/53 54/54/54 37/37/37
f 54/54/54 55/55/55 38/38/38
f 55/55/55 56/56/56 39/39/39
f 56/56/56 57/57/57 40/40/40
f 57/57/57 58/58/58 41/41/41
f 58/58/58 59/59/59 42/42/42
f 59/59/59 60/60/60 43/43/43
f 60/60/60 61/61/61 44/44/44
f 61/61/61 62/62/62 45/45/45
f 62/62/62 63/63/63 46/46/46
f 63/63/63 64/64/64 47/47/47
f 64/64/64 65/65/65 48/48/48
f 65/65/65 66/66/66 49/49/49
f 66/66/66 67/67/67 50/50/50
f 85/85/85 84/84/84 68/68/68
f 86/86/86 85/85/85 69/69/69
f 87/87/87 86/86/86 70/70/70
f 88/88/88 87/87/87 71/71/71
f 89/89/89 88/88/88 72/72/72
f 90/90/90 89/89/89 73/73/73
f 91/91/91 90/90/90 74/74/74
f 92/92/92 91/91/91 75/75/75
f 93/93/93 92/92/92 76/76/76
f 94/94/94 93/93/93 77/77/77
f 95/95/95 94/94/94 78/78/78
f 96/96/96 95/95/95 79/79/79
f 97/97/97 96/96/96 80/80/80
f 98/98/98 97/97/97 81/81/81
f 99/99/99 98/98/98 82/82/82
f 100/100/100 99/99/99 83/83/83
