o spoke_front_26
v 1.0332543482228176 -27.792880435612886 11.298726330363781
v 1.1061512167577903 -27.78450785239479 11.325289157566555
v 1.1628875344853158 -27.76576437537964 11.375481885416312
v 1.1948256818527585 -27.739503518220772 11.441663149629932
v 1.1971033995542866 -27.7097232668347 11.513757435189941
v 1.1693738992933984 -27.680957392006505 11.580789044462012
v 1.115858769607166 -27.65758523319831 11.632553034804781
v 1.0447051780087897 -27.643165000216342 11.661168780335746
v 0.9667456331858766 -27.639892030348147 11.662279824979162
v 0.893848764650904 -27.64826461356624 11.635716997776388
v 0.8371124469233784 -27.667008090581394 11.585524269926632
v 0.8051742995559356 -27.69326894774026 11.519343005713012
v 0.8028965818544076 -27.72304919912633 11.447248720153002
v 0.8306260821152956 -27.75181507395453 11.380217110880931
v 0.8841412118015282 -27.775187232762722 11.328453120538162
v 0.9552948033999044 -27.789607465744695 11.299837375007197
v 1.0332543482228176 -27.792880435612886 11.298726330363781
v 2.0332543668141234 -0.07649394499045314 -0.18177685402646215
v 2.106151235349096 -0.0681213617723575 -0.15521402682368635
v 2.1628875530766214 -0.04937788475720595 -0.10502129897393075
v 2.1948257004440643 -0.02311702759833878 -0.038840034760310616
v 2.197103418145592 0.0066632237877310985 0.03325425079969957
v 2.1693739178847045 0.03542909861592847 0.10028586007176976
v 2.115858788198472 0.0588012574241219 0.15204985041453867
v 2.0447051966000958 0.07322149040609283 0.1806655959455048
v 1.9667456517771824 0.07649446027428652 0.18177664058892073
v 1.8938487832422097 0.06812187705619088 0.15521381338614493
v 1.8371124655146842 0.04937840004103933 0.10502108553638934
v 1.8051743181472415 0.02311754288217216 0.0388398213227692
v 1.8028966004457134 -0.0066627085038977185 -0.03325446423724099
v 1.8306261007066016 -0.03542858333209509 -0.10028607350931118
v 1.884141230392834 -0.05880074214028852 -0.1520500638520801
v 1.9552948219912103 -0.07322097512225945 -0.18066580938304622
v 2.0332543668141234 -0.07649394499045314 -0.18177685402646215
v 0.9999999907043471 -27.71638623298052 11.480503077671472
v 0.9999999907043471 -27.71638623298052 11.480503077671472
v 0.9999999907043471 -27.71638623298052 11.480503077671472
v 0.9999999907043471 -27.71638623298052 11.480503077671472
v 0.9999999907043471 -27.71638623298052 11.480503077671472
v 0.9999999907043471 -27.71638623298052 11.480503077671472
v 0.9999999907043471 -27.71638623298052 11.480503077671472
v 0.9999999907043471 -27.71638623298052 11.480503077671472
v 0.9999999907043471 -27.71638623298052 11.480503077671472
v 0.9999999907043471 -27.71638623298052 11.480503077671472
v 0.9999999907043471 -27.71638623298052 11.480503077671472
v 0.9999999907043471 -27.71638623298052 11.480503077671472
v 0.9999999907043471 -27.71638623298052 11.480503077671472
v 0.9999999907043471 -27.71638623298052 11.480503077671472
v 0.9999999907043471 -27.71638623298052 11.480503077671472
v 0.9999999907043471 -27.71638623298052 11.480503077671472
v 1.0332543482228176 -27.792880435612886 11.298726330363781
v 1.1061512167577903 -27.78450785239479 11.325289157566555
v 1.1628875344853158 -27.76576437537964 11.375481885416312
v 1.1948256818527585 -27.739503518220772 11.441663149629932
v 1.1971033995542866 -27.7097232668347 11.513757435189941
v 1.1693738992933984 -27.680957392006505 11.580789044462012
v 1.115858769607166 -27.65758523319831 11.632553034804781
v 1.0447051780087897 -27.643165000216342 11.661168780335746
v 0.9667456331858766 -27.639892030348147 11.662279824979162
v 0.893848764650904 -27.64826461356624 11.635716997776388
v 0.8371124469233784 -27.667008090581394 11.585524269926632
v 0.8051742995559356 -27.69326894774026 11.519343005713012
v 0.8028965818544076 -27.72304919912633 11.447248720153002
v 0.8306260821152956 -27.75181507395453 11.380217110880931
v 0.8841412118015282 -27.775187232762722 11.328453120538162
v 0.9552948033999044 -27.789607465744695 11.299837375007197
v 1.0332543482228176 -27.792880435612886 11.298726330363781
v 2.000000009295653 2.576419166899768e-7 -1.0671877070933533e-7
v 2.000000009295653 2.576419166899768e-7 -1.0671877070933533e-7
v 2.000000009295653 2.576419166899768e-7 -1.0671877070933533e-7
v 2.000000009295653 2.576419166899768e-7 -1.0671877070933533e-7
v 2.000000009295653 2.576419166899768e-7 -1.0671877070933533e-7
v 2.000000009295653 2.576419166899768e-7 -1.0671877070933533e-7
v 2.000000009295653 2.576419166899768e-7 -1.0671877070933533e-7
v 2.000000009295653 2.576419166899768e-7 -1.0671877070933533e-7
v 2.000000009295653 2.576419166899768e-7 -1.0671877070933533e-7
v 2.000000009295653 2.576419166899768e-7 -1.0671877070933533e-7
v 2.000000009295653 2.576419166899768e-7 -1.0671877070933533e-7
v 2.000000009295653 2.576419166899768e-7 -1.0671877070933533e-7
v 2.000000009295653 2.576419166899768e-7 -1.0671877070933533e-7
v 2.000000009295653 2.576419166899768e-7 -1.0671877070933533e-7
v 2.000000009295653 2.576419166899768e-7 -1.0671877070933533e-7
v 2.000000009295653 2.576419166899768e-7 -1.0671877070933533e-7
v 2.0332543668141234 -0.07649394499045314 -0.18177685402646215
v 2.106151235349096 -0.0681213617723575 -0.15521402682368635
v 2.1628875530766214 -0.04937788475720595 -0.10502129897393075
v 2.1948257004440643 -0.02311702759833878 -0.038840034760310616
v 2.197103418145592 0.0066632237877310985 0.03325425079969957
v 2.1693739178847045 0.03542909861592847 0.10028586007176976
v 2.115858788198472 0.0588012574241219 0.15204985041453867
v 2.0447051966000958 0.07322149040609283 0.1806655959455048
v 1.9667456517771824 0.07649446027428652 0.18177664058892073
v 1.8938487832422097 0.06812187705619088 0.15521381338614493
v 1.8371124655146842 0.04937840004103933 0.10502108553638934
v 1.8051743181472415 0.02311754288217216 0.0388398213227692
v 1.8028966004457134 -0.0066627085038977185 -0.03325446423724099
v 1.8306261007066016 -0.03542858333209509 -0.10028607350931118
v 1.884141230392834 -0.05880074214028852 -0.1520500638520801
v 1.9552948219912103 -0.07322097512225945 -0.18066580938304622
v 2.0332543668141234 -0.07649394499045314 -0.18177685402646215
vn 0.16627178511470994 -0.3824710074625906 -0.9088837229950367
vn 0.5307561429343194 -0.34060810109111667 -0.776069609125746
vn 0.8144376813543782 -0.24689070061247126 -0.5251059370652624
vn 0.9741284688527677 -0.11558642999587918 -0.19419964822668948
vn 0.9855170295643492 0.03331483023263845 0.16627178511470997
vn 0.8468695524247252 0.1771442094283137 0.5014298457830002
vn 0.5792938678051704 0.2940049853556257 0.76024975061447
vn 0.22352594537800877 0.3661061685681986 0.9033285255537882
vn -0.16627178511470983 0.3824710074625906 0.9088837229950367
vn -0.5307561429343194 0.34060810109111667 0.776069609125746
vn -0.8144376813543782 0.24689070061247126 0.5251059370652624
vn -0.9741284688527677 0.11558642999587918 0.19419964822668948
vn -0.9855170295643492 -0.0333148302326384 -0.16627178511470986
vn -0.8468695524247252 -0.1771442094283137 -0.5014298457830002
vn -0.5792938678051704 -0.2940049853556257 -0.76024975061447
vn -0.22352594537800877 -0.3661061685681986 -0.9033285255537882
vn 0.1662717851147097 -0.3824710074625906 -0.9088837229950367
vn 0.16627178511470994 -0.3824710074625906 -0.9088837229950367
vn 0.5307561429343194 -0.34060810109111667 -0.776069609125746
vn 0.8144376813543782 -0.24689070061247126 -0.5251059370652624
vn 0.9741284688527677 -0.11558642999587918 -0.19419964822668948
vn 0.9855170295643492 0.03331483023263845 0.16627178511470997
vn 0.8468695524247252 0.1771442094283137 0.5014298457830002
vn 0.5792938678051704 0.2940049853556257 0.76024975061447
vn 0.22352594537800877 0.3661061685681986 0.9033285255537882
vn -0.16627178511470983 0.3824710074625906 0.9088837229950367
vn -0.5307561429343194 0.34060810109111667 0.776069609125746
vn -0.8144376813543782 0.24689070061247126 0.5251059370652624
vn -0.9741284688527677 0.11558642999587918 0.19419964822668948
vn -0.9855170295643492 -0.0333148302326384 -0.16627178511470986
vn -0.8468695524247252 -0.1771442094283137 -0.5014298457830002
vn -0.5792938678051704 -0.2940049853556257 -0.76024975061447
vn -0.22352594537800877 -0.3661061685681986 -0.9033285255537882
vn 0.1662717851147097 -0.3824710074625906 -0.9088837229950367
vn -0.033314830232638454 -0.9233666934306876 0.3824710074625906
vn -0.033314830232638454 -0.9233666934306876 0.3824710074625906
vn -0.033314830232638454 -0.9233666934306876 0.3824710074625906
vn -0.033314830232638454 -0.9233666934306876 0.3824710074625906
vn -0.033314830232638454 -0.9233666934306876 0.3824710074625906
vn -0.033314830232638454 -0.9233666934306876 0.3824710074625906
vn -0.033314830232638454 -0.9233666934306876 0.3824710074625906
vn -0.033314830232638454 -0.9233666934306876 0.3824710074625906
vn -0.033314830232638454 -0.9233666934306876 0.3824710074625906
vn -0.033314830232638454 -0.9233666934306876 0.3824710074625906
vn -0.033314830232638454 -0.9233666934306876 0.3824710074625906
vn -0.033314830232638454 -0.9233666934306876 0.3824710074625906
vn -0.033314830232638454 -0.9233666934306876 0.3824710074625906
vn -0.033314830232638454 -0.9233666934306876 0.3824710074625906
vn -0.033314830232638454 -0.9233666934306876 0.3824710074625906
vn -0.033314830232638454 -0.9233666934306876 0.3824710074625906
vn -0.033314830232638454 -0.9233666934306876 0.3824710074625906
vn -0.033314830232638454 -0.9233666934306876 0.3824710074625906
vn -0.033314830232638454 -0.9233666934306876 0.3824710074625906
vn -0.033314830232638454 -0.9233666934306876 0.3824710074625906
vn -0.033314830232638454 -0.9233666934306876 0.3824710074625906
vn -0.033314830232638454 -0.9233666934306876 0.3824710074625906
vn -0.033314830232638454 -0.9233666934306876 0.3824710074625906
vn -0.033314830232638454 -0.9233666934306876 0.3824710074625906
vn -0.033314830232638454 -0.9233666934306876 0.3824710074625906
vn -0.033314830232638454 -0.9233666934306876 0.3824710074625906
vn -0.033314830232638454 -0.9233666934306876 0.3824710074625906
vn -0.033314830232638454 -0.9233666934306876 0.3824710074625906
vn -0.033314830232638454 -0.9233666934306876 0.3824710074625906
vn -0.033314830232638454 -0.9233666934306876 0.3824710074625906
vn -0.033314830232638454 -0.9233666934306876 0.3824710074625906
vn -0.033314830232638454 -0.9233666934306876 0.3824710074625906
vn -0.033314830232638454 -0.9233666934306876 0.3824710074625906
vn 0.033314830232638454 0.9233666934306876 -0.3824710074625906
vn 0.033314830232638454 0.9233666934306876 -0.3824710074625906
vn 0.033314830232638454 0.9233666934306876 -0.3824710074625906
vn 0.033314830232638454 0.9233666934306876 -0.3824710074625906
vn 0.033314830232638454 0.9233666934306876 -0.3824710074625906
vn 0.033314830232638454 0.9233666934306876 -0.3824710074625906
vn 0.033314830232638454 0.9233666934306876 -0.3824710074625906
vn 0.033314830232638454 0.9233666934306876 -0.3824710074625906
vn 0.033314830232638454 0.9233666934306876 -0.3824710074625906
vn 0.033314830232638454 0.9233666934306876 -0.3824710074625906
vn 0.033314830232638454 0.9233666934306876 -0.3824710074625906
vn 0.033314830232638454 0.9233666934306876 -0.3824710074625906
vn 0.033314830232638454 0.9233666934306876 -0.3824710074625906
vn 0.033314830232638454 0.9233666934306876 -0.3824710074625906
vn 0.033314830232638454 0.9233666934306876 -0.3824710074625906
vn 0.033314830232638454 0.9233666934306876 -0.3824710074625906
vn 0.033314830232638454 0.9233666934306876 -0.3824710074625906
vn 0.033314830232638454 0.9233666934306876 -0.3824710074625906
vn 0.033314830232638454 0.9233666934306876 -0.3824710074625906
vn 0.033314830232638454 0.9233666934306876 -0.3824710074625906
vn 0.033314830232638454 0.9233666934306876 -0.3824710074625906
vn 0.033314830232638454 0.9233666934306876 -0.3824710074625906
vn 0.033314830232638454 0.9233666934306876 -0.3824710074625906
vn 0.033314830232638454 0.9233666934306876 -0.3824710074625906
vn 0.033314830232638454 0.9233666934306876 -0.3824710074625906
vn 0.033314830232638454 0.9233666934306876 -0.3824710074625906
vn 0.033314830232638454 0.9233666934306876 -0.3824710074625906
vn 0.033314830232638454 0.9233666934306876 -0.3824710074625906
vn 0.033314830232638454 0.9233666934306876 -0.3824710074625906
vn 0.033314830232638454 0.9233666934306876 -0.3824710074625906
vn 0.033314830232638454 0.9233666934306876 -0.3824710074625906
vn 0.033314830232638454 0.9233666934306876 -0.3824710074625906
vn 0.033314830232638454 0.9233666934306876 -0.3824710074625906
vt 0 1
vt 0.0625 1
vt 0.125 1
vt 0.1875 1
vt 0.25 1
vt 0.3125 1
vt 0.375 1
vt 0.4375 1
vt 0.5 1
vt 0.5625 1
vt 0.625 1
vt 0.6875 1
vt 0.75 1
vt 0.8125 1
vt 0.875 1
vt 0.9375 1
vt 1 1
vt 0 0
vt 0.0625 0
vt 0.125 0
vt 0.1875 0
vt 0.25 0
vt 0.3125 0
vt 0.375 0
vt 0.4375 0
vt 0.5 0
vt 0.5625 0
vt 0.625 0
vt 0.6875 0
vt 0.75 0
vt 0.8125 0
vt 0.875 0
vt 0.9375 0
vt 1 0
vt 0.5 0.5
vt 0.5 0.5
vt 0.5 0.5
vt 0.5 0.5
vt 0.5 0.5
vt 0.5 0.5
vt 0.5 0.5
vt 0.5 0.5
vt 0.5 0.5
vt 0.5 0.5
vt 0.5 0.5
vt 0.5 0.5
vt 0.5 0.5
vt 0.5 0.5
vt 0.5 0.5
vt 0.5 0.5
vt 1 0.5
vt 0.9619397521018982 0.6913416981697083
vt 0.8535534143447876 0.8535534143447876
vt 0.6913416981697083 0.9619397521018982
vt 0.5 1
vt 0.30865827202796936 0.9619397521018982
vt 0.1464466154575348 0.8535534143447876
vt 0.03806023299694061 0.6913416981697083
vt 0 0.5
vt 0.03806023299694061 0.30865827202796936
vt 0.1464466154575348 0.1464466154575348
vt 0.30865827202796936 0.03806023299694061
vt 0.5 0
vt 0.6913416981697083 0.03806023299694061
vt 0.8535534143447876 0.1464466154575348
vt 0.9619397521018982 0.30865827202796936
vt 1 0.5
vt 0.5 0.5
vt 0.5 0.5
vt 0.5 0.5
vt 0.5 0.5
vt 0.5 0.5
vt 0.5 0.5
vt 0.5 0.5
vt 0.5 0.5
vt 0.5 0.5
vt 0.5 0.5
vt 0.5 0.5
vt 0.5 0.5
vt 0.5 0.5
vt 0.5 0.5
vt 0.5 0.5
vt 0.5 0.5
vt 1 0.5
vt 0.9619397521018982 0.30865827202796936
vt 0.8535534143447876 0.1464466154575348
vt 0.6913416981697083 0.03806023299694061
vt 0.5 0
vt 0.30865827202796936 0.03806023299694061
vt 0.1464466154575348 0.1464466154575348
vt 0.03806023299694061 0.30865827202796936
vt 0 0.5
vt 0.03806023299694061 0.6913416981697083
vt 0.1464466154575348 0.8535534143447876
vt 0.30865827202796936 0.9619397521018982
vt 0.5 1
vt 0.6913416981697083 0.9619397521018982
vt 0.8535534143447876 0.8535534143447876
vt 0.9619397521018982 0.6913416981697083
vt 1 0.5
f 1/1/1 18/18/18 2/2/2
f 18/18/18 19/19/19 2/2/2
f 2/2/2 19/19/19 3/3/3
f 19/19/19 20/20/20 3/3/3
f 3/3/3 20/20/20 4/4/4
f 20/20/20 21/21/21 4/4/4
f 4/4/4 21/21/21 5/5/5
f 21/21/21 22/22/22 5/5/5
f 5/5/5 22/22/22 6/6/6
f 22/22/22 23/23/23 6/6/6
f 6/6/6 23/23/23 7/7/7
f 23/23/23 24/24/24 7/7/7
f 7/7/7 24/24/24 8/8/8
f 24/24/24 25/25/25 8/8/8
f 8/8/8 25/25/25 9/9/9
f 25/25/25 26/26/26 9/9/9
f 9/9/9 26/26/26 10/10/10
f 26/26/26 27/27/27 10/10/10
f 10/10/10 27/27/27 11/11/11
f 27/27/27 28/28/28 11/11/11
f 11/11/11 28/28/28 12/12/12
f 28/28/28 29/29/29 12/12/12
f 12/12/12 29/29/29 13/13/13
f 29/29/29 30/30/30 13/13/13
f 13/13/13 30/30/30 14/14/14
f 30/30/30 31/31/31 14/14/14
f 14/14/14 31/31/31 15/15/15
f 31/31/31 32/32/32 15/15/15
f 15/15/15 32/32/32 16/16/16
f 32/32/32 33/33/33 16/16/16
f 16/16/16 33/33/33 17/17/17
f 33/33/33 34/34/34 17/17/17
f 51/51/51 52/52/52 35/35/35
f 52/52/52 53/53/53 36/36/36
f 53/53/53 54/54/54 37/37/37
f 54/54/54 55/55/55 38/38/38
f 55/55/55 56/56/56 39/39/39
f 56/56/56 57/57/57 40/40/40
f 57/57/57 58/58/58 41/41/41
f 58/58/58 59/59/59 42/42/42
f 59/59/59 60/60/60 43/43/43
f 60/60/60 61/61/61 44/44/44
f 61/61/61 62/62/62 45/45/45
f 62/62/62 63/63/63 46/46/46
f 63/63/63 64/64/64 47/47/47
f 64/64/64 65/65/65 48/48/48
f 65/65/65 66/66/66 49/49/49
f 66/66/66 67/67/67 50/50/50
f 85/85/85 84/84/84 68/68/68
f 86/86/86 85/85/85 69/69/69
f 87/87/87 86/86/86 70/70/70
f 88/88/88 87/87/87 71/71/71
f 89/89/89 88/88/88 72/72/72
f 90/90/90 89/89/89 73/73/73
f 91/91/91 90/90/90 74/74/74
f 92/92/92 91/91/91 75/75/75
f 93/93/93 92/92/92 76/76/76
f 94/94/94 93/93/93 77/77/77
f 95/95/95 94/94/94 78/78/78
f 96/96/96 95/95/95 79/79/79
f 97/97/97 96/96/96 80/80/80
f 98/98/98 97/97/97 81/81/81
f 99/99/99 98/98/98 82/82/82
f 100/100/100 99/99/99 83/83/83
