o spoke_front_0
v 1.0066592582841545 -0.19988898437440877 30.0002222544556
v 1.082604090393739 -0.1821235293314087 30.00275374885925
v 1.1459732064253731 -0.13663143205467693 30.00486605272697
v 1.1871192071258148 -0.07033842238166019 30.006237586083653
v 1.199778018098585 0.006662966145813614 30.006659546449413
v 1.1820224245356916 0.08264997811541752 30.00606769333065
v 1.1365555796046618 0.1460542894377581 30.00455213183295
v 1.0702993687186453 0.18722314268131132 30.00234359147008
v 0.9933407231245386 0.19988898437440877 29.999778303283613
v 0.9173958910149539 0.1821235293314087 29.997246808879957
v 0.8540267749833199 0.13663143205467693 29.99513450501224
v 0.8128807742828783 0.07033842238166019 29.993762971655556
v 0.8002219633101079 -0.00666296614581359 29.993341011289797
v 0.8179775568730014 -0.08264997811541752 29.99393286440856
v 0.8634444018040313 -0.1460542894377581 29.99544842590626
v 0.9297006126900477 -0.18722314268131132 29.997656966269126
v 1.0066592582841545 -0.19988898437440877 30.0002222544556
v 2.006659276875461 -0.19988898437440877 0.00022169671638927468
v 2.082604108985046 -0.1821235293314087 0.00275319112004091
v 2.14597322501668 -0.13663143205467693 0.004865494987761565
v 2.1871192257171215 -0.07033842238166019 0.006237028344443729
v 2.1997780366898922 0.006662966145813614 0.006658988710203317
v 2.1820224431269986 0.08264997811541752 0.00606713559144012
v 2.1365555981959687 0.1460542894377581 0.004551574093738964
v 2.0702993873099524 0.18722314268131132 0.0023430337308720794
v 1.9933407417158455 0.19988898437440877 -0.00022225445559875823
v 1.917395909606261 0.1821235293314087 -0.0027537488592503934
v 1.8540267935746269 0.13663143205467693 -0.0048660527269710485
v 1.8128807928741852 0.07033842238166019 -0.006237586083653213
v 1.800221981901415 -0.00666296614581359 -0.006659546449412801
v 1.8179775754643084 -0.08264997811541752 -0.006067693330649604
v 1.8634444203953382 -0.1460542894377581 -0.004552131832948447
v 1.9297006312813547 -0.18722314268131132 -0.002343591470081563
v 2.006659276875461 -0.19988898437440877 0.00022169671638927468
v 0.9999999907043465 0 30.000000278869607
v 0.9999999907043465 0 30.000000278869607
v 0.9999999907043465 0 30.000000278869607
v 0.9999999907043465 0 30.000000278869607
v 0.9999999907043465 0 30.000000278869607
v 0.9999999907043465 0 30.000000278869607
v 0.9999999907043465 0 30.000000278869607
v 0.9999999907043465 0 30.000000278869607
v 0.9999999907043465 0 30.000000278869607
v 0.9999999907043465 0 30.000000278869607
v 0.9999999907043465 0 30.000000278869607
v 0.9999999907043465 0 30.000000278869607
v 0.9999999907043465 0 30.000000278869607
v 0.9999999907043465 0 30.000000278869607
v 0.9999999907043465 0 30.000000278869607
v 0.9999999907043465 0 30.000000278869607
v 1.0066592582841545 -0.19988898437440877 30.0002222544556
v 1.082604090393739 -0.1821235293314087 30.00275374885925
v 1.1459732064253731 -0.13663143205467693 30.00486605272697
v 1.1871192071258148 -0.07033842238166019 30.006237586083653
v 1.199778018098585 0.006662966145813614 30.006659546449413
v 1.1820224245356916 0.08264997811541752 30.00606769333065
v 1.1365555796046618 0.1460542894377581 30.00455213183295
v 1.0702993687186453 0.18722314268131132 30.00234359147008
v 0.9933407231245386 0.19988898437440877 29.999778303283613
v 0.9173958910149539 0.1821235293314087 29.997246808879957
v 0.8540267749833199 0.13663143205467693 29.99513450501224
v 0.8128807742828783 0.07033842238166019 29.993762971655556
v 0.8002219633101079 -0.00666296614581359 29.993341011289797
v 0.8179775568730014 -0.08264997811541752 29.99393286440856
v 0.8634444018040313 -0.1460542894377581 29.99544842590626
v 0.9297006126900477 -0.18722314268131132 29.997656966269126
v 1.0066592582841545 -0.19988898437440877 30.0002222544556
v 2.0000000092956536 0 -2.788696047417716e-7
v 2.0000000092956536 0 -2.788696047417716e-7
v 2.0000000092956536 0 -2.788696047417716e-7
v 2.0000000092956536 0 -2.788696047417716e-7
v 2.0000000092956536 0 -2.788696047417716e-7
v 2.0000000092956536 0 -2.788696047417716e-7
v 2.0000000092956536 0 -2.788696047417716e-7
v 2.0000000092956536 0 -2.788696047417716e-7
v 2.0000000092956536 0 -2.788696047417716e-7
v 2.0000000092956536 0 -2.788696047417716e-7
v 2.0000000092956536 0 -2.788696047417716e-7
v 2.0000000092956536 0 -2.788696047417716e-7
v 2.0000000092956536 0 -2.788696047417716e-7
v 2.0000000092956536 0 -2.788696047417716e-7
v 2.0000000092956536 0 -2.788696047417716e-7
v 2.0000000092956536 0 -2.788696047417716e-7
v 2.006659276875461 -0.19988898437440877 0.00022169671638927468
v 2.082604108985046 -0.1821235293314087 0.00275319112004091
v 2.14597322501668 -0.13663143205467693 0.004865494987761565
v 2.1871192257171215 -0.07033842238166019 0.006237028344443729
v 2.1997780366898922 0.006662966145813614 0.006658988710203317
v 2.1820224431269986 0.08264997811541752 0.00606713559144012
v 2.1365555981959687 0.1460542894377581 0.004551574093738964
v 2.0702993873099524 0.18722314268131132 0.0023430337308720794
v 1.9933407417158455 0.19988898437440877 -0.00022225445559875823
v 1.917395909606261 0.1821235293314087 -0.0027537488592503934
v 1.8540267935746269 0.13663143205467693 -0.0048660527269710485
v 1.8128807928741852 0.07033842238166019 -0.006237586083653213
v 1.800221981901415 -0.00666296614581359 -0.006659546449412801
v 1.8179775754643084 -0.08264997811541752 -0.006067693330649604
v 1.8634444203953382 -0.1460542894377581 -0.004552131832948447
v 1.9297006312813547 -0.18722314268131132 -0.002343591470081563
v 2.006659276875461 -0.19988898437440877 0.00022169671638927468
vn 0.033296337402885685 -0.9994449069791544 0.0011098779134295228
vn 0.41302050973605353 -0.9106176577479771 0.013767350324535119
vn 0.7298660449539282 -0.683157128775741 0.024328868165130937
vn 0.9355960939192828 -0.3516921224400136 0.031186536463976094
vn 0.9988901220865705 0.03331483023263842 0.033296337402885685
vn 0.9101121802415023 0.41324990187244814 0.030337072674716747
vn 0.6827779130214165 0.7302714135188956 0.022759263767380557
vn 0.3514969005973608 0.9361157252250593 0.011716563353245358
vn -0.03329633740288556 0.9994449069791544 -0.0011098779134295187
vn -0.41302050973605353 0.9106176577479771 -0.013767350324535119
vn -0.7298660449539282 0.683157128775741 -0.024328868165130937
vn -0.9355960939192828 0.3516921224400136 -0.031186536463976094
vn -0.9988901220865705 -0.0333148302326383 -0.033296337402885685
vn -0.9101121802415023 -0.41324990187244814 -0.030337072674716747
vn -0.6827779130214165 -0.7302714135188956 -0.022759263767380557
vn -0.3514969005973608 -0.9361157252250593 -0.011716563353245358
vn 0.03329633740288544 -0.9994449069791544 0.0011098779134295145
vn 0.033296337402885685 -0.9994449069791544 0.0011098779134295228
vn 0.41302050973605353 -0.9106176577479771 0.013767350324535119
vn 0.7298660449539282 -0.683157128775741 0.024328868165130937
vn 0.9355960939192828 -0.3516921224400136 0.031186536463976094
vn 0.9988901220865705 0.03331483023263842 0.033296337402885685
vn 0.9101121802415023 0.41324990187244814 0.030337072674716747
vn 0.6827779130214165 0.7302714135188956 0.022759263767380557
vn 0.3514969005973608 0.9361157252250593 0.011716563353245358
vn -0.03329633740288556 0.9994449069791544 -0.0011098779134295187
vn -0.41302050973605353 0.9106176577479771 -0.013767350324535119
vn -0.7298660449539282 0.683157128775741 -0.024328868165130937
vn -0.9355960939192828 0.3516921224400136 -0.031186536463976094
vn -0.9988901220865705 -0.0333148302326383 -0.033296337402885685
vn -0.9101121802415023 -0.41324990187244814 -0.030337072674716747
vn -0.6827779130214165 -0.7302714135188956 -0.022759263767380557
vn -0.3514969005973608 -0.9361157252250593 -0.011716563353245358
vn 0.03329633740288544 -0.9994449069791544 0.0011098779134295145
vn -0.03331483023263848 1.2793585635328955e-17 0.9994449069791544
vn -0.03331483023263848 1.2793585635328955e-17 0.9994449069791544
vn -0.03331483023263848 1.2793585635328955e-17 0.9994449069791544
vn -0.03331483023263848 1.2793585635328955e-17 0.9994449069791544
vn -0.03331483023263848 1.2793585635328955e-17 0.9994449069791544
vn -0.03331483023263848 1.2793585635328955e-17 0.9994449069791544
vn -0.03331483023263848 1.2793585635328955e-17 0.9994449069791544
vn -0.03331483023263848 1.2793585635328955e-17 0.9994449069791544
vn -0.03331483023263848 1.2793585635328955e-17 0.9994449069791544
vn -0.03331483023263848 1.2793585635328955e-17 0.9994449069791544
vn -0.03331483023263848 1.2793585635328955e-17 0.9994449069791544
vn -0.03331483023263848 1.2793585635328955e-17 0.9994449069791544
vn -0.03331483023263848 1.2793585635328955e-17 0.9994449069791544
vn -0.03331483023263848 1.2793585635328955e-17 0.9994449069791544
vn -0.03331483023263848 1.2793585635328955e-17 0.9994449069791544
vn -0.03331483023263848 1.2793585635328955e-17 0.9994449069791544
vn -0.03331483023263848 1.2793585635328955e-17 0.9994449069791544
vn -0.03331483023263848 1.2793585635328955e-17 0.9994449069791544
vn -0.03331483023263848 1.2793585635328955e-17 0.9994449069791544
vn -0.03331483023263848 1.2793585635328955e-17 0.9994449069791544
vn -0.03331483023263848 1.2793585635328955e-17 0.9994449069791544
vn -0.03331483023263848 1.2793585635328955e-17 0.9994449069791544
vn -0.03331483023263848 1.2793585635328955e-17 0.9994449069791544
vn -0.03331483023263848 1.2793585635328955e-17 0.9994449069791544
vn -0.03331483023263848 1.2793585635328955e-17 0.9994449069791544
vn -0.03331483023263848 1.2793585635328955e-17 0.9994449069791544
vn -0.03331483023263848 1.2793585635328955e-17 0.9994449069791544
vn -0.03331483023263848 1.2793585635328955e-17 0.9994449069791544
vn -0.03331483023263848 1.2793585635328955e-17 0.9994449069791544
vn -0.03331483023263848 1.2793585635328955e-17 0.9994449069791544
vn -0.03331483023263848 1.2793585635328955e-17 0.9994449069791544
vn -0.03331483023263848 1.2793585635328955e-17 0.9994449069791544
vn -0.03331483023263848 1.2793585635328955e-17 0.9994449069791544
vn 0.03331483023263848 -1.2793585635328955e-17 -0.9994449069791544
vn 0.03331483023263848 -1.2793585635328955e-17 -0.9994449069791544
vn 0.03331483023263848 -1.2793585635328955e-17 -0.9994449069791544
vn 0.03331483023263848 -1.2793585635328955e-17 -0.9994449069791544
vn 0.03331483023263848 -1.2793585635328955e-17 -0.9994449069791544
vn 0.03331483023263848 -1.2793585635328955e-17 -0.9994449069791544
vn 0.03331483023263848 -1.2793585635328955e-17 -0.9994449069791544
vn 0.03331483023263848 -1.2793585635328955e-17 -0.9994449069791544
vn 0.03331483023263848 -1.2793585635328955e-17 -0.9994449069791544
vn 0.03331483023263848 -1.2793585635328955e-17 -0.9994449069791544
vn 0.03331483023263848 -1.2793585635328955e-17 -0.9994449069791544
vn 0.03331483023263848 -1.2793585635328955e-17 -0.9994449069791544
vn 0.03331483023263848 -1.2793585635328955e-17 -0.9994449069791544
vn 0.03331483023263848 -1.2793585635328955e-17 -0.9994449069791544
vn 0.03331483023263848 -1.2793585635328955e-17 -0.9994449069791544
vn 0.03331483023263848 -1.2793585635328955e-17 -0.9994449069791544
vn 0.03331483023263848 -1.2793585635328955e-17 -0.9994449069791544
vn 0.03331483023263848 -1.2793585635328955e-17 -0.9994449069791544
vn 0.03331483023263848 -1.2793585635328955e-17 -0.9994449069791544
vn 0.03331483023263848 -1.2793585635328955e-17 -0.9994449069791544
vn 0.03331483023263848 -1.2793585635328955e-17 -0.9994449069791544
vn 0.03331483023263848 -1.2793585635328955e-17 -0.9994449069791544
vn 0.03331483023263848 -1.2793585635328955e-17 -0.9994449069791544
vn 0.03331483023263848 -1.2793585635328955e-17 -0.9994449069791544
vn 0.03331483023263848 -1.2793585635328955e-17 -0.9994449069791544
vn 0.03331483023263848 -1.2793585635328955e-17 -0.9994449069791544
vn 0.03331483023263848 -1.2793585635328955e-17 -0.9994449069791544
vn 0.03331483023263848 -1.2793585635328955e-17 -0.9994449069791544
vn 0.03331483023263848 -1.2793585635328955e-17 -0.9994449069791544
vn 0.03331483023263848 -1.2793585635328955e-17 -0.9994449069791544
vn 0.03331483023263848 -1.2793585635328955e-17 -0.9994449069791544
vn 0.03331483023263848 -1.2793585635328955e-17 -0.9994449069791544
vn 0.03331483023263848 -1.2793585635328955e-17 -0.9994449069791544
vt 0 1
vt 0.0625 1
vt 0.125 1
vt 0.1875 1
vt 0.25 1
vt 0.3125 1
vt 0.375 1
vt 0.4375 1
vt 0.5 1
vt 0.5625 1
vt 0.625 1
vt 0.6875 1
vt 0.75 1
vt 0.8125 1
vt 0.875 1
vt 0.9375 1
vt 1 1
vt 0 0
vt 0.0625 0
vt 0.125 0
vt 0.1875 0
vt 0.25 0
vt 0.3125 0
vt 0.375 0
vt 0.4375 0
vt 0.5 0
vt 0.5625 0
vt 0.625 0
vt 0.6875 0
vt 0.75 0
vt 0.8125 0
vt 0.875 0
vt 0.9375 0
vt 1 0
vt 0.5 0.5
vt 0.5 0.5
vt 0.5 0.5
vt 0.5 0.5
vt 0.5 0.5
vt 0.5 0.5
vt 0.5 0.5
vt 0.5 0.5
vt 0.5 0.5
vt 0.5 0.5
vt 0.5 0.5
vt 0.5 0.5
vt 0.5 0.5
vt 0.5 0.5
vt 0.5 0.5
vt 0.5 0.5
vt 1 0.5
vt 0.9619397521018982 0.6913416981697083
vt 0.8535534143447876 0.8535534143447876
vt 0.6913416981697083 0.9619397521018982
vt 0.5 1
vt 0.30865827202796936 0.9619397521018982
vt 0.1464466154575348 0.8535534143447876
vt 0.03806023299694061 0.6913416981697083
vt 0 0.5
vt 0.03806023299694061 0.30865827202796936
vt 0.1464466154575348 0.1464466154575348
vt 0.30865827202796936 0.03806023299694061
vt 0.5 0
vt 0.6913416981697083 0.03806023299694061
vt 0.8535534143447876 0.1464466154575348
vt 0.9619397521018982 0.30865827202796936
vt 1 0.5
vt 0.5 0.5
vt 0.5 0.5
vt 0.5 0.5
vt 0.5 0.5
vt 0.5 0.5
vt 0.5 0.5
vt 0.5 0.5
vt 0.5 0.5
vt 0.5 0.5
vt 0.5 0.5
vt 0.5 0.5
vt 0.5 0.5
vt 0.5 0.5
vt 0.5 0.5
vt 0.5 0.5
vt 0.5 0.5
vt 1 0.5
vt 0.9619397521018982 0.30865827202796936
vt 0.8535534143447876 0.1464466154575348
vt 0.6913416981697083 0.03806023299694061
vt 0.5 0
vt 0.30865827202796936 0.03806023299694061
vt 0.1464466154575348 0.1464466154575348
vt 0.03806023299694061 0.30865827202796936
vt 0 0.5
vt 0.03806023299694061 0.6913416981697083
vt 0.1464466154575348 0.8535534143447876
vt 0.30865827202796936 0.9619397521018982
vt 0.5 1
vt 0.6913416981697083 0.9619397521018982
vt 0.8535534143447876 0.8535534143447876
vt 0.9619397521018982 0.6913416981697083
vt 1 0.5
f 1/1/1 18/18/18 2/2/2
f 18/18/18 19/19/19 2/2/2
f 2/2/2 19/19/19 3/3/3
f 19/19/19 20/20/20 3/3/3
f 3/3/3 20/20/20 4/4/4
f 20/20/20 21/21/21 4/4/4
f 4/4/4 21/21/21 5/5/5
f 21/21/21 22/22/22 5/5/5
f 5/5/5 22/22/22 6/6/6
f 22/22/22 23/23/23 6/6/6
f 6/6/6 23/23/23 7/7/7
f 23/23/23 24/24/24 7/7/7
f 7/7/7 24/24/24 8/8/8
f 24/24/24 25/25/25 8/8/8
f 8/8/8 25/25/25 9/9/9
f 25/25/25 26/26/26 9/9/9
f 9/9/9 26/26/26 10/10/10
f 26/26/26 27/27/27 10/10/10
f 10/10/10 27/27/27 11/11/11
f 27/27/27 28/28/28 11/11/11
f 11/11/11 28/28/28 12/12/12
f 28/28/28 29/29/29 12/12/12
f 12/12/12 29/29/29 13/13/13
f 29/29/29 30/30/30 13/13/13
f 13/13/13 30/30/30 14/14/14
f 30/30/30 31/31/31 14/14/14
f 14/14/14 31/31/31 15/15/15
f 31/31/31 32/32/32 15/15/15
f 15/15/15 32/32/32 16/16/16
f 32/32/32 33/33/33 16/16/16
f 16/16/16 33/33/33 17/17/17
f 33/33/33 34/34/34 17/17/17
f 51/51/51 52/52/52 35/35/35
f 52/52/52 53/53/53 36/36/36
f 53/53/53 54/54/54 37/37/37
f 54/54/54 55/55/55 38/38/38
f 55/55/55 56/56/56 39/39/39
f 56/56/56 57/57/57 40/40/40
f 57/57/57 58/58/58 41/41/41
f 58/58/58 59/59/59 42/42/42
f 59/59/59 60/60/60 43/43/43
f 60/60/60 61/61/61 44/44/44
f 61/61/61 62/62/62 45/45/45
f 62/62/62 63/63/63 46/46/46
f 63/63/63 64/64/64 47/47/47
f 64/64/64 65/65/65 48/48/48
f 65/65/65 66/66/66 49/49/49
f 66/66/66 67/67/67 50/50/50
f 85/85/85 84/84/84 68/68/68
f 86/86/86 85/85/85 69/69/69
f 87/87/87 86/86/86 70/70/70
f 88/88/88 87/87/87 71/71/71
f 89/89/89 88/88/88 72/72/72
f 90/90/90 89/89/89 73/73/73
f 91/91/91 90/90/90 74/74/74
f 92/92/92 91/91/91 75/75/75
f 93/93/93 92/92/92 76/76/76
f 94/94/94 93/93/93 77/77/77
f 95/95/95 94/94/94 78/78/78
f 96/96/96 95/95/95 79/79/79
f 97/97/97 96/96/96 80/80/80
f 98/98/98 97/97/97 81/81/81
f 99/99/99 98/98/98 82/82/82
f 100/100/100 99/99/99 83/83/83
