o spoke_front_12
v 0.9972409973901039 21.354546489122654 -21.07173071625926
v 1.0739379266751186 21.346337207656404 -21.08355552564508
v 1.1393784840727246 21.317859556784512 -21.115118073977005
v 1.1835999135809177 21.27344897837108 -21.161613270569042
v 1.199869933492462 21.219866598932832 -21.215962626101255
v 1.1857115555778448 21.16526984293671 -21.26989194976177
v 1.1432802899579784 21.117970566172602 -21.315190997482272
v 1.0790358814319057 21.08516967126753 -21.344963381925872
v 1.002758984018589 21.07186077645138 -21.354676549314767
v 0.9260620547335745 21.080070057917624 -21.342851739928946
v 0.8606214973359685 21.108547708789516 -21.31128919159702
v 0.8164000678277755 21.152958287202956 -21.264793995004986
v 0.800130047916231 21.206540666641203 -21.21044463947277
v 0.8142884258308484 21.26113742263732 -21.15651531581225
v 0.8567196914507147 21.308436699401433 -21.111216268091752
v 0.9209640999767874 21.341237594306506 -21.081443883648156
v 0.9972409973901039 21.354546489122654 -21.07173071625926
v 1.997241015981411 0.14134265914504773 0.1414731137183427
v 2.0739379452664255 0.13313337767880107 0.1296483043325214
v 2.1393785026640315 0.10465572680690904 0.09808575600059655
v 2.1835999321722244 0.06024514839347184 0.051590559408561276
v 2.199869952083769 0.006662768955225218 -0.0027587961236541503
v 2.1857115741691517 -0.04793398704089391 -0.05668811978417132
v 2.1432803085492855 -0.09523326380500485 -0.10198716750467085
v 2.0790359000232126 -0.1280341587100775 -0.13175955194826905
v 2.002759002609896 -0.14134305352622611 -0.14147271933716432
v 1.9260620733248814 -0.13313377205997945 -0.129647909951343
v 1.8606215159272754 -0.10465612118808743 -0.09808536161941817
v 1.8164000864190823 -0.06024554277465022 -0.051590165027382895
v 1.800130066507538 -0.006663163336403599 0.0027591905048325316
v 1.8142884444221552 0.04793359265971553 0.0566885141653497
v 1.8567197100420216 0.09523286942382647 0.10198756188584923
v 1.9209641185680943 0.12803376432889912 0.13175994632944743
v 1.997241015981411 0.14134265914504773 0.1414731137183427
v 0.9999999907043465 21.213203632787014 -21.213203632787014
v 0.9999999907043465 21.213203632787014 -21.213203632787014
v 0.9999999907043465 21.213203632787014 -21.213203632787014
v 0.9999999907043465 21.213203632787014 -21.213203632787014
v 0.9999999907043465 21.213203632787014 -21.213203632787014
v 0.9999999907043465 21.213203632787014 -21.213203632787014
v 0.9999999907043465 21.213203632787014 -21.213203632787014
v 0.9999999907043465 21.213203632787014 -21.213203632787014
v 0.9999999907043465 21.213203632787014 -21.213203632787014
v 0.9999999907043465 21.213203632787014 -21.213203632787014
v 0.9999999907043465 21.213203632787014 -21.213203632787014
v 0.9999999907043465 21.213203632787014 -21.213203632787014
v 0.9999999907043465 21.213203632787014 -21.213203632787014
v 0.9999999907043465 21.213203632787014 -21.213203632787014
v 0.9999999907043465 21.213203632787014 -21.213203632787014
v 0.9999999907043465 21.213203632787014 -21.213203632787014
v 0.9972409973901039 21.354546489122654 -21.07173071625926
v 1.0739379266751186 21.346337207656404 -21.08355552564508
v 1.1393784840727246 21.317859556784512 -21.115118073977005
v 1.1835999135809177 21.27344897837108 -21.161613270569042
v 1.199869933492462 21.219866598932832 -21.215962626101255
v 1.1857115555778448 21.16526984293671 -21.26989194976177
v 1.1432802899579784 21.117970566172602 -21.315190997482272
v 1.0790358814319057 21.08516967126753 -21.344963381925872
v 1.002758984018589 21.07186077645138 -21.354676549314767
v 0.9260620547335745 21.080070057917624 -21.342851739928946
v 0.8606214973359685 21.108547708789516 -21.31128919159702
v 0.8164000678277755 21.152958287202956 -21.264793995004986
v 0.800130047916231 21.206540666641203 -21.21044463947277
v 0.8142884258308484 21.26113742263732 -21.15651531581225
v 0.8567196914507147 21.308436699401433 -21.111216268091752
v 0.9209640999767874 21.341237594306506 -21.081443883648156
v 0.9972409973901039 21.354546489122654 -21.07173071625926
v 2.0000000092956536 -1.9719058919065446e-7 1.9719058919065446e-7
v 2.0000000092956536 -1.9719058919065446e-7 1.9719058919065446e-7
v 2.0000000092956536 -1.9719058919065446e-7 1.9719058919065446e-7
v 2.0000000092956536 -1.9719058919065446e-7 1.9719058919065446e-7
v 2.0000000092956536 -1.9719058919065446e-7 1.9719058919065446e-7
v 2.0000000092956536 -1.9719058919065446e-7 1.9719058919065446e-7
v 2.0000000092956536 -1.9719058919065446e-7 1.9719058919065446e-7
v 2.0000000092956536 -1.9719058919065446e-7 1.9719058919065446e-7
v 2.0000000092956536 -1.9719058919065446e-7 1.9719058919065446e-7
v 2.0000000092956536 -1.9719058919065446e-7 1.9719058919065446e-7
v 2.0000000092956536 -1.9719058919065446e-7 1.9719058919065446e-7
v 2.0000000092956536 -1.9719058919065446e-7 1.9719058919065446e-7
v 2.0000000092956536 -1.9719058919065446e-7 1.9719058919065446e-7
v 2.0000000092956536 -1.9719058919065446e-7 1.9719058919065446e-7
v 2.0000000092956536 -1.9719058919065446e-7 1.9719058919065446e-7
v 2.0000000092956536 -1.9719058919065446e-7 1.9719058919065446e-7
v 1.997241015981411 0.14134265914504773 0.1414731137183427
v 2.0739379452664255 0.13313337767880107 0.1296483043325214
v 2.1393785026640315 0.10465572680690904 0.09808575600059655
v 2.1835999321722244 0.06024514839347184 0.051590559408561276
v 2.199869952083769 0.006662768955225218 -0.0027587961236541503
v 2.1857115741691517 -0.04793398704089391 -0.05668811978417132
v 2.1432803085492855 -0.09523326380500485 -0.10198716750467085
v 2.0790359000232126 -0.1280341587100775 -0.13175955194826905
v 2.002759002609896 -0.14134305352622611 -0.14147271933716432
v 1.9260620733248814 -0.13313377205997945 -0.129647909951343
v 1.8606215159272754 -0.10465612118808743 -0.09808536161941817
v 1.8164000864190823 -0.06024554277465022 -0.051590165027382895
v 1.800130066507538 -0.006663163336403599 0.0027591905048325316
v 1.8142884444221552 0.04793359265971553 0.0566885141653497
v 1.8567197100420216 0.09523286942382647 0.10198756188584923
v 1.9209641185680943 0.12803376432889912 0.13175994632944743
v 1.997241015981411 0.14134265914504773 0.1414731137183427
vn -0.01379496636565213 0.7067142711473182 0.7073645720982112
vn 0.369689690608252 0.6656678828104448 0.6482405436661881
vn 0.6968924347109662 0.5232795958611544 0.4904277714383727
vn 0.9179996256858467 0.3012267360191705 0.25795181865589223
vn 0.9993496990491072 0.03331483023263852 -0.013794966365652084
vn 0.9285578359717533 -0.239668956586736 -0.2834415927560382
vn 0.7164014632377521 -0.4761653111179998 -0.5099367999651586
vn 0.39517946470839793 -0.6401698153333626 -0.6587987539520946
vn 0.013794966365652254 -0.7067142711473182 -0.7073645720982112
vn -0.369689690608252 -0.6656678828104448 -0.6482405436661881
vn -0.6968924347109662 -0.5232795958611544 -0.4904277714383727
vn -0.9179996256858467 -0.3012267360191705 -0.25795181865589223
vn -0.9993496990491072 -0.03331483023263861 0.013794966365651997
vn -0.9285578359717533 0.239668956586736 0.2834415927560382
vn -0.7164014632377521 0.4761653111179998 0.5099367999651586
vn -0.39517946470839793 0.6401698153333626 0.6587987539520946
vn -0.013794966365652375 0.7067142711473182 0.7073645720982112
vn -0.01379496636565213 0.7067142711473182 0.7073645720982112
vn 0.369689690608252 0.6656678828104448 0.6482405436661881
vn 0.6968924347109662 0.5232795958611544 0.4904277714383727
vn 0.9179996256858467 0.3012267360191705 0.25795181865589223
vn 0.9993496990491072 0.03331483023263852 -0.013794966365652084
vn 0.9285578359717533 -0.239668956586736 -0.2834415927560382
vn 0.7164014632377521 -0.4761653111179998 -0.5099367999651586
vn 0.39517946470839793 -0.6401698153333626 -0.6587987539520946
vn 0.013794966365652254 -0.7067142711473182 -0.7073645720982112
vn -0.369689690608252 -0.6656678828104448 -0.6482405436661881
vn -0.6968924347109662 -0.5232795958611544 -0.4904277714383727
vn -0.9179996256858467 -0.3012267360191705 -0.25795181865589223
vn -0.9993496990491072 -0.03331483023263861 0.013794966365651997
vn -0.9285578359717533 0.239668956586736 0.2834415927560382
vn -0.7164014632377521 0.4761653111179998 0.5099367999651586
vn -0.39517946470839793 0.6401698153333626 0.6587987539520946
vn -0.013794966365652375 0.7067142711473182 0.7073645720982112
vn -0.03331483023263848 0.7067142711473183 -0.7067142711473181
vn -0.03331483023263848 0.7067142711473183 -0.7067142711473181
vn -0.03331483023263848 0.7067142711473183 -0.7067142711473181
vn -0.03331483023263848 0.7067142711473183 -0.7067142711473181
vn -0.03331483023263848 0.7067142711473183 -0.7067142711473181
vn -0.03331483023263848 0.7067142711473183 -0.7067142711473181
vn -0.03331483023263848 0.7067142711473183 -0.7067142711473181
vn -0.03331483023263848 0.7067142711473183 -0.7067142711473181
vn -0.03331483023263848 0.7067142711473183 -0.7067142711473181
vn -0.03331483023263848 0.7067142711473183 -0.7067142711473181
vn -0.03331483023263848 0.7067142711473183 -0.7067142711473181
vn -0.03331483023263848 0.7067142711473183 -0.7067142711473181
vn -0.03331483023263848 0.7067142711473183 -0.7067142711473181
vn -0.03331483023263848 0.7067142711473183 -0.7067142711473181
vn -0.03331483023263848 0.7067142711473183 -0.7067142711473181
vn -0.03331483023263848 0.7067142711473183 -0.7067142711473181
vn -0.03331483023263848 0.7067142711473183 -0.7067142711473181
vn -0.03331483023263848 0.7067142711473183 -0.7067142711473181
vn -0.03331483023263848 0.7067142711473183 -0.7067142711473181
vn -0.03331483023263848 0.7067142711473183 -0.7067142711473181
vn -0.03331483023263848 0.7067142711473183 -0.7067142711473181
vn -0.03331483023263848 0.7067142711473183 -0.7067142711473181
vn -0.03331483023263848 0.7067142711473183 -0.7067142711473181
vn -0.03331483023263848 0.7067142711473183 -0.7067142711473181
vn -0.03331483023263848 0.7067142711473183 -0.7067142711473181
vn -0.03331483023263848 0.7067142711473183 -0.7067142711473181
vn -0.03331483023263848 0.7067142711473183 -0.7067142711473181
vn -0.03331483023263848 0.7067142711473183 -0.7067142711473181
vn -0.03331483023263848 0.7067142711473183 -0.7067142711473181
vn -0.03331483023263848 0.7067142711473183 -0.7067142711473181
vn -0.03331483023263848 0.7067142711473183 -0.7067142711473181
vn -0.03331483023263848 0.7067142711473183 -0.7067142711473181
vn -0.03331483023263848 0.7067142711473183 -0.7067142711473181
vn 0.03331483023263848 -0.7067142711473183 0.7067142711473181
vn 0.03331483023263848 -0.7067142711473183 0.7067142711473181
vn 0.03331483023263848 -0.7067142711473183 0.7067142711473181
vn 0.03331483023263848 -0.7067142711473183 0.7067142711473181
vn 0.03331483023263848 -0.7067142711473183 0.7067142711473181
vn 0.03331483023263848 -0.7067142711473183 0.7067142711473181
vn 0.03331483023263848 -0.7067142711473183 0.7067142711473181
vn 0.03331483023263848 -0.7067142711473183 0.7067142711473181
vn 0.03331483023263848 -0.7067142711473183 0.7067142711473181
vn 0.03331483023263848 -0.7067142711473183 0.7067142711473181
vn 0.03331483023263848 -0.7067142711473183 0.7067142711473181
vn 0.03331483023263848 -0.7067142711473183 0.7067142711473181
vn 0.03331483023263848 -0.7067142711473183 0.7067142711473181
vn 0.03331483023263848 -0.7067142711473183 0.7067142711473181
vn 0.03331483023263848 -0.7067142711473183 0.7067142711473181
vn 0.03331483023263848 -0.7067142711473183 0.7067142711473181
vn 0.03331483023263848 -0.7067142711473183 0.7067142711473181
vn 0.03331483023263848 -0.7067142711473183 0.7067142711473181
vn 0.03331483023263848 -0.7067142711473183 0.7067142711473181
vn 0.03331483023263848 -0.7067142711473183 0.7067142711473181
vn 0.03331483023263848 -0.7067142711473183 0.7067142711473181
vn 0.03331483023263848 -0.7067142711473183 0.7067142711473181
vn 0.03331483023263848 -0.7067142711473183 0.7067142711473181
vn 0.03331483023263848 -0.7067142711473183 0.7067142711473181
vn 0.03331483023263848 -0.7067142711473183 0.7067142711473181
vn 0.03331483023263848 -0.7067142711473183 0.7067142711473181
vn 0.03331483023263848 -0.7067142711473183 0.7067142711473181
vn 0.03331483023263848 -0.7067142711473183 0.7067142711473181
vn 0.03331483023263848 -0.7067142711473183 0.7067142711473181
vn 0.03331483023263848 -0.7067142711473183 0.7067142711473181
vn 0.03331483023263848 -0.7067142711473183 0.7067142711473181
vn 0.03331483023263848 -0.7067142711473183 0.7067142711473181
vn 0.03331483023263848 -0.7067142711473183 0.7067142711473181
vt 0 1
vt 0.0625 1
vt 0.125 1
vt 0.1875 1
vt 0.25 1
vt 0.3125 1
vt 0.375 1
vt 0.4375 1
vt 0.5 1
vt 0.5625 1
vt 0.625 1
vt 0.6875 1
vt 0.75 1
vt 0.8125 1
vt 0.875 1
vt 0.9375 1
vt 1 1
vt 0 0
vt 0.0625 0
vt 0.125 0
vt 0.1875 0
vt 0.25 0
vt 0.3125 0
vt 0.375 0
vt 0.4375 0
vt 0.5 0
vt 0.5625 0
vt 0.625 0
vt 0.6875 0
vt 0.75 0
vt 0.8125 0
vt 0.875 0
vt 0.9375 0
vt 1 0
vt 0.5 0.5
vt 0.5 0.5
vt 0.5 0.5
vt 0.5 0.5
vt 0.5 0.5
vt 0.5 0.5
vt 0.5 0.5
vt 0.5 0.5
vt 0.5 0.5
vt 0.5 0.5
vt 0.5 0.5
vt 0.5 0.5
vt 0.5 0.5
vt 0.5 0.5
vt 0.5 0.5
vt 0.5 0.5
vt 1 0.5
vt 0.9619397521018982 0.6913416981697083
vt 0.8535534143447876 0.8535534143447876
vt 0.6913416981697083 0.9619397521018982
vt 0.5 1
vt 0.30865827202796936 0.9619397521018982
vt 0.1464466154575348 0.8535534143447876
vt 0.03806023299694061 0.6913416981697083
vt 0 0.5
vt 0.03806023299694061 0.30865827202796936
vt 0.1464466154575348 0.1464466154575348
vt 0.30865827202796936 0.03806023299694061
vt 0.5 0
vt 0.6913416981697083 0.03806023299694061
vt 0.8535534143447876 0.1464466154575348
vt 0.9619397521018982 0.30865827202796936
vt 1 0.5
vt 0.5 0.5
vt 0.5 0.5
vt 0.5 0.5
vt 0.5 0.5
vt 0.5 0.5
vt 0.5 0.5
vt 0.5 0.5
vt 0.5 0.5
vt 0.5 0.5
vt 0.5 0.5
vt 0.5 0.5
vt 0.5 0.5
vt 0.5 0.5
vt 0.5 0.5
vt 0.5 0.5
vt 0.5 0.5
vt 1 0.5
vt 0.9619397521018982 0.30865827202796936
vt 0.8535534143447876 0.1464466154575348
vt 0.6913416981697083 0.03806023299694061
vt 0.5 0
vt 0.30865827202796936 0.03806023299694061
vt 0.1464466154575348 0.1464466154575348
vt 0.03806023299694061 0.30865827202796936
vt 0 0.5
vt 0.03806023299694061 0.6913416981697083
vt 0.1464466154575348 0.8535534143447876
vt 0.30865827202796936 0.9619397521018982
vt 0.5 1
vt 0.6913416981697083 0.9619397521018982
vt 0.8535534143447876 0.8535534143447876
vt 0.9619397521018982 0.6913416981697083
vt 1 0.5
f 1/1/1 18/18/18 2/2/2
f 18/18/18 19/19/19 2/2/2
f 2/2/2 19/19/19 3/3/3
f 19/19/19 20/20/20 3/3/3
f 3/3/3 20/20/20 4/4/4
f 20/20/20 21/21/21 4/4/4
f 4/4/4 21/21/21 5/5/5
f 21/21/21 22/22/22 5/5/5
f 5/5/5 22/22/22 6/6/6
f 22/22/22 23/23/23 6/6/6
f 6/6/6 23/23/23 7/7/7
f 23/23/23 24/24/24 7/7/7
f 7/7/7 24/24/24 8/8/8
f 24/24/24 25/25/25 8/8/8
f 8/8/8 25/25/25 9/9/9
f 25/25/25 26/26/26 9/9/9
f 9/9/9 26/26/26 10/10/10
f 26/26/26 27/27/27 10/10/10
f 10/10/10 27/27/27 11/11/11
f 27/27/27 28/28/28 11/11/11
f 11/11/11 28/28/28 12/12/12
f 28/28/28 29/29/29 12/12/12
f 12/12/12 29/29/29 13/13/13
f 29/29/29 30/30/30 13/13/13
f 13/13/13 30/30/30 14/14/14
f 30/30/30 31/31/31 14/14/14
f 14/14/14 31/31/31 15/15/15
f 31/31/31 32/32/32 15/15/15
f 15/15/15 32/32/32 16/16/16
f 32/32/32 33/33/33 16/16/16
f 16/16/16 33/33/33 17/17/17
f 33/33/33 34/34/34 17/17/17
f 51/51/51 52/52/52 35/35/35
f 52/52/52 53/53/53 36/36/36
f 53/53/53 54/54/54 37/37/37
f 54/54/54 55/55/55 38/38/38
f 55/55/55 56/56/56 39/39/39
f 56/56/56 57/57/57 40/40/40
f 57/57/57 58/58/58 41/41/41
f 58/58/58 59/59/59 42/42/42
f 59/59/59 60/60/60 43/43/43
f 60/60/60 61/61/61 44/44/44
f 61/61/61 62/62/62 45/45/45
f 62/62/62 63/63/63 46/46/46
f 63/63/63 64/64/64 47/47/47
f 64/64/64 65/65/65 48/48/48
f 65/65/65 66/66/66 49/49/49
f 66/66/66 67/67/67 50/50/50
f 85/85/85 84/84/84 68/68/68
f 86/86/86 85/85/85 69/69/69
f 87/87/87 86/86/86 70/70/70
f 88/88/88 87/87/87 71/71/71
f 89/89/89 88/88/88 72/72/72
f 90/90/90 89/89/89 73/73/73
f 91/91/91 90/90/90 74/74/74
f 92/92/92 91/91/91 75/75/75
f 93/93/93 92/92/92 76/76/76
f 94/94/94 93/93/93 77/77/77
f 95/95/95 94/94/94 78/78/78
f 96/96/96 95/95/95 79/79/79
f 97/97/97 96/96/96 80/80/80
f 98/98/98 97/97/97 81/81/81
f 99/99/99 98/98/98 82/82/82
f 100/100/100 99/99/99 83/83/83
