o spoke_front_8
v 0.9999999907043464 30.000000278869607 0.20000000298023407
v 1.0764941909528853 30.002550085544556 0.18477590382099335
v 1.141342851450564 30.00471170756115 0.14142136275768463
v 1.1846733267107066 30.006156056736486 0.07653668522834961
v 1.1998889750787551 30.00666324501542 1.849420621365941e-15
v 1.1846733267107066 30.006156056736486 -0.07653668522834595
v 1.141342851450564 30.00471170756115 -0.14142136275768097
v 1.0764941909528853 30.002550085544556 -0.18477590382098968
v 0.9999999907043464 30.000000278869607 -0.2000000029802304
v 0.9235057904558076 29.997450472194657 -0.18477590382098968
v 0.8586571299581289 29.995288850178063 -0.14142136275768097
v 0.8153266546979864 29.993844501002727 -0.07653668522834595
v 0.8001110063299376 29.993337312723792 1.800026872348912e-15
v 0.8153266546979864 29.993844501002727 0.07653668522834961
v 0.8586571299581289 29.995288850178063 0.14142136275768463
v 0.9235057904558076 29.997450472194657 0.18477590382099335
v 0.9999999907043464 30.000000278869607 0.20000000298023407
v 2.0000000092956536 -2.788696065181284e-7 0.20000000298023224
v 2.0764942095441925 0.0025495278053444537 0.18477590382099152
v 2.1413428700418713 0.004711149821934768 0.1414213627576828
v 2.1846733453020137 0.006155498997271636 0.07653668522834778
v 2.1998889936700623 0.00666268727620789 1.2450388493233629e-17
v 2.1846733453020137 0.006155498997271636 -0.07653668522834778
v 2.1413428700418713 0.004711149821934768 -0.1414213627576828
v 2.0764942095441925 0.0025495278053444537 -0.18477590382099152
v 2.0000000092956536 -2.788696065181284e-7 -0.20000000298023224
v 1.9235058090471147 -0.00255008554455749 -0.18477590382099152
v 1.858657148549436 -0.004711707561147804 -0.1414213627576828
v 1.8153266732892934 -0.006156056736484672 -0.07653668522834778
v 1.8001110249212449 -0.006663245015420927 -3.694336052379472e-17
v 1.8153266732892934 -0.006156056736484672 0.07653668522834778
v 1.858657148549436 -0.004711707561147804 0.1414213627576828
v 1.9235058090471147 -0.00255008554455749 0.18477590382099152
v 2.0000000092956536 -2.788696065181284e-7 0.20000000298023224
v 0.9999999907043464 30.000000278869607 1.8369702157968685e-15
v 0.9999999907043464 30.000000278869607 1.8369702157968685e-15
v 0.9999999907043464 30.000000278869607 1.8369702157968685e-15
v 0.9999999907043464 30.000000278869607 1.8369702157968685e-15
v 0.9999999907043464 30.000000278869607 1.8369702157968685e-15
v 0.9999999907043464 30.000000278869607 1.8369702157968685e-15
v 0.9999999907043464 30.000000278869607 1.8369702157968685e-15
v 0.9999999907043464 30.000000278869607 1.8369702157968685e-15
v 0.9999999907043464 30.000000278869607 1.8369702157968685e-15
v 0.9999999907043464 30.000000278869607 1.8369702157968685e-15
v 0.9999999907043464 30.000000278869607 1.8369702157968685e-15
v 0.9999999907043464 30.000000278869607 1.8369702157968685e-15
v 0.9999999907043464 30.000000278869607 1.8369702157968685e-15
v 0.9999999907043464 30.000000278869607 1.8369702157968685e-15
v 0.9999999907043464 30.000000278869607 1.8369702157968685e-15
v 0.9999999907043464 30.000000278869607 1.8369702157968685e-15
v 0.9999999907043464 30.000000278869607 0.20000000298023407
v 1.0764941909528853 30.002550085544556 0.18477590382099335
v 1.141342851450564 30.00471170756115 0.14142136275768463
v 1.1846733267107066 30.006156056736486 0.07653668522834961
v 1.1998889750787551 30.00666324501542 1.849420621365941e-15
v 1.1846733267107066 30.006156056736486 -0.07653668522834595
v 1.141342851450564 30.00471170756115 -0.14142136275768097
v 1.0764941909528853 30.002550085544556 -0.18477590382098968
v 0.9999999907043464 30.000000278869607 -0.2000000029802304
v 0.9235057904558076 29.997450472194657 -0.18477590382098968
v 0.8586571299581289 29.995288850178063 -0.14142136275768097
v 0.8153266546979864 29.993844501002727 -0.07653668522834595
v 0.8001110063299376 29.993337312723792 1.800026872348912e-15
v 0.8153266546979864 29.993844501002727 0.07653668522834961
v 0.8586571299581289 29.995288850178063 0.14142136275768463
v 0.9235057904558076 29.997450472194657 0.18477590382099335
v 0.9999999907043464 30.000000278869607 0.20000000298023407
v 2.0000000092956536 -2.788696065181284e-7 -1.707583856001235e-23
v 2.0000000092956536 -2.788696065181284e-7 -1.707583856001235e-23
v 2.0000000092956536 -2.788696065181284e-7 -1.707583856001235e-23
v 2.0000000092956536 -2.788696065181284e-7 -1.707583856001235e-23
v 2.0000000092956536 -2.788696065181284e-7 -1.707583856001235e-23
v 2.0000000092956536 -2.788696065181284e-7 -1.707583856001235e-23
v 2.0000000092956536 -2.788696065181284e-7 -1.707583856001235e-23
v 2.0000000092956536 -2.788696065181284e-7 -1.707583856001235e-23
v 2.0000000092956536 -2.788696065181284e-7 -1.707583856001235e-23
v 2.0000000092956536 -2.788696065181284e-7 -1.707583856001235e-23
v 2.0000000092956536 -2.788696065181284e-7 -1.707583856001235e-23
v 2.0000000092956536 -2.788696065181284e-7 -1.707583856001235e-23
v 2.0000000092956536 -2.788696065181284e-7 -1.707583856001235e-23
v 2.0000000092956536 -2.788696065181284e-7 -1.707583856001235e-23
v 2.0000000092956536 -2.788696065181284e-7 -1.707583856001235e-23
v 2.0000000092956536 -2.788696065181284e-7 -1.707583856001235e-23
v 2.0000000092956536 -2.788696065181284e-7 0.20000000298023224
v 2.0764942095441925 0.0025495278053444537 0.18477590382099152
v 2.1413428700418713 0.004711149821934768 0.1414213627576828
v 2.1846733453020137 0.006155498997271636 0.07653668522834778
v 2.1998889936700623 0.00666268727620789 1.2450388493233629e-17
v 2.1846733453020137 0.006155498997271636 -0.07653668522834778
v 2.1413428700418713 0.004711149821934768 -0.1414213627576828
v 2.0764942095441925 0.0025495278053444537 -0.18477590382099152
v 2.0000000092956536 -2.788696065181284e-7 -0.20000000298023224
v 1.9235058090471147 -0.00255008554455749 -0.18477590382099152
v 1.858657148549436 -0.004711707561147804 -0.1414213627576828
v 1.8153266732892934 -0.006156056736484672 -0.07653668522834778
v 1.8001110249212449 -0.006663245015420927 -3.694336052379472e-17
v 1.8153266732892934 -0.006156056736484672 0.07653668522834778
v 1.858657148549436 -0.004711707561147804 0.1414213627576828
v 1.9235058090471147 -0.00255008554455749 0.18477590382099152
v 2.0000000092956536 -2.788696065181284e-7 0.20000000298023224
f 1 18 2
f 18 19 2
f 2 19 3
f 19 20 3
f 3 20 4
f 20 21 4
f 4 21 5
f 21 22 5
f 5 22 6
f 22 23 6
f 6 23 7
f 23 24 7
f 7 24 8
f 24 25 8
f 8 25 9
f 25 26 9
f 9 26 10
f 26 27 10
f 10 27 11
f 27 28 11
f 11 28 12
f 28 29 12
f 12 29 13
f 29 30 13
f 13 30 14
f 30 31 14
f 14 31 15
f 31 32 15
f 15 32 16
f 32 33 16
f 16 33 17
f 33 34 17
f 51 52 35
f 52 53 36
f 53 54 37
f 54 55 38
f 55 56 39
f 56 57 40
f 57 58 41
f 58 59 42
f 59 60 43
f 60 61 44
f 61 62 45
f 62 63 46
f 63 64 47
f 64 65 48
f 65 66 49
f 66 67 50
f 85 84 68
f 86 85 69
f 87 86 70
f 88 87 71
f 89 88 72
f 90 89 73
f 91 90 74
f 92 91 75
f 93 92 76
f 94 93 77
f 95 94 78
f 96 95 79
f 97 96 80
f 98 97 81
f 99 98 82
f 100 99 83
