o spoke_back_18
v -0.9900371207940276 -11.295829736233483 -27.792520977856782
v -0.9143963726751193 -11.312436969009564 -27.78291293828117
v -0.8517879898779962 -11.354630730252985 -27.76317681595286
v -0.811743557402592 -11.415987429572901 -27.736317246239555
v -0.8003594454802295 -11.487166043817282 -27.706423363070208
v -0.8193688076719374 -11.557330281503791 -27.678046237072515
v -0.8658776160649927 -11.615798282473031 -27.655506023821196
v -0.9328053553241055 -11.653668799683274 -27.642234277410537
v -1.0099628606146656 -11.665176419109454 -27.640251488104273
v -1.0856036087335739 -11.648569186333372 -27.649859527679887
v -1.148211991530697 -11.60637542508995 -27.669595650008194
v -1.188256424006101 -11.545018725770035 -27.6964552197215
v -1.1996405359284634 -11.473840111525654 -27.726349102890847
v -1.1806311737367556 -11.403675873839145 -27.75472622888854
v -1.1341223653437005 -11.345207872869905 -27.777266442139858
v -1.0671946260845875 -11.307337355659662 -27.790538188550514
v -0.9900371207940276 -11.295829736233483 -27.792520977856782
v -1.9900371393853344 0.18467344815676245 -0.07613448723433436
v -1.9143963912664261 0.16806621538068267 -0.06652644765872218
v -1.851788008469303 0.12587245413726045 -0.04679032533041294
v -1.811743575993899 0.06451575481734384 -0.01993075561710711
v -1.8003594640715366 -0.0066628594270357056 0.009963127552239825
v -1.8193688262632444 -0.0768270971135463 0.03834025354993287
v -1.8658776346562995 -0.13529509808278561 0.06088046680125103
v -1.9328053739154125 -0.17316561529302898 0.07415221321190835
v -2.0099628792059723 -0.18467323471920682 0.07613500251817484
v -2.085603627324881 -0.16806600194312704 0.06652696294256266
v -2.1482120101220037 -0.12587224069970482 0.046790840614253426
v -2.188256442597408 -0.06451554137978821 0.019931270900947595
v -2.1996405545197706 0.006663072864591335 -0.00996261226839934
v -2.180631192328063 0.07682731055110192 -0.03833973826609238
v -2.1341223839350074 0.13529531152034124 -0.06087995151741055
v -2.0671946446758946 0.17316582873058461 -0.07415169792806786
v -1.9900371393853344 0.18467344815676245 -0.07613448723433436
v -0.9999999907043465 -11.480503077671468 -27.716386232980526
v -0.9999999907043465 -11.480503077671468 -27.716386232980526
v -0.9999999907043465 -11.480503077671468 -27.716386232980526
v -0.9999999907043465 -11.480503077671468 -27.716386232980526
v -0.9999999907043465 -11.480503077671468 -27.716386232980526
v -0.9999999907043465 -11.480503077671468 -27.716386232980526
v -0.9999999907043465 -11.480503077671468 -27.716386232980526
v -0.9999999907043465 -11.480503077671468 -27.716386232980526
v -0.9999999907043465 -11.480503077671468 -27.716386232980526
v -0.9999999907043465 -11.480503077671468 -27.716386232980526
v -0.9999999907043465 -11.480503077671468 -27.716386232980526
v -0.9999999907043465 -11.480503077671468 -27.716386232980526
v -0.9999999907043465 -11.480503077671468 -27.716386232980526
v -0.9999999907043465 -11.480503077671468 -27.716386232980526
v -0.9999999907043465 -11.480503077671468 -27.716386232980526
v -0.9999999907043465 -11.480503077671468 -27.716386232980526
v -0.9900371207940276 -11.295829736233483 -27.792520977856782
v -0.9143963726751193 -11.312436969009564 -27.78291293828117
v -0.8517879898779962 -11.354630730252985 -27.76317681595286
v -0.811743557402592 -11.415987429572901 -27.736317246239555
v -0.8003594454802295 -11.487166043817282 -27.706423363070208
v -0.8193688076719374 -11.557330281503791 -27.678046237072515
v -0.8658776160649927 -11.615798282473031 -27.655506023821196
v -0.9328053553241055 -11.653668799683274 -27.642234277410537
v -1.0099628606146656 -11.665176419109454 -27.640251488104273
v -1.0856036087335739 -11.648569186333372 -27.649859527679887
v -1.148211991530697 -11.60637542508995 -27.669595650008194
v -1.188256424006101 -11.545018725770035 -27.6964552197215
v -1.1996405359284634 -11.473840111525654 -27.726349102890847
v -1.1806311737367556 -11.403675873839145 -27.75472622888854
v -1.1341223653437005 -11.345207872869905 -27.777266442139858
v -1.0671946260845875 -11.307337355659662 -27.790538188550514
v -0.9900371207940276 -11.295829736233483 -27.792520977856782
v -2.0000000092956536 1.0671877781476269e-7 2.576419202426905e-7
v -2.0000000092956536 1.0671877781476269e-7 2.576419202426905e-7
v -2.0000000092956536 1.0671877781476269e-7 2.576419202426905e-7
v -2.0000000092956536 1.0671877781476269e-7 2.576419202426905e-7
v -2.0000000092956536 1.0671877781476269e-7 2.576419202426905e-7
v -2.0000000092956536 1.0671877781476269e-7 2.576419202426905e-7
v -2.0000000092956536 1.0671877781476269e-7 2.576419202426905e-7
v -2.0000000092956536 1.0671877781476269e-7 2.576419202426905e-7
v -2.0000000092956536 1.0671877781476269e-7 2.576419202426905e-7
v -2.0000000092956536 1.0671877781476269e-7 2.576419202426905e-7
v -2.0000000092956536 1.0671877781476269e-7 2.576419202426905e-7
v -2.0000000092956536 1.0671877781476269e-7 2.576419202426905e-7
v -2.0000000092956536 1.0671877781476269e-7 2.576419202426905e-7
v -2.0000000092956536 1.0671877781476269e-7 2.576419202426905e-7
v -2.0000000092956536 1.0671877781476269e-7 2.576419202426905e-7
v -2.0000000092956536 1.0671877781476269e-7 2.576419202426905e-7
v -1.9900371393853344 0.18467344815676245 -0.07613448723433436
v -1.9143963912664261 0.16806621538068267 -0.06652644765872218
v -1.851788008469303 0.12587245413726045 -0.04679032533041294
v -1.811743575993899 0.06451575481734384 -0.01993075561710711
v -1.8003594640715366 -0.0066628594270357056 0.009963127552239825
v -1.8193688262632444 -0.0768270971135463 0.03834025354993287
v -1.8658776346562995 -0.13529509808278561 0.06088046680125103
v -1.9328053739154125 -0.17316561529302898 0.07415221321190835
v -2.0099628792059723 -0.18467323471920682 0.07613500251817484
v -2.085603627324881 -0.16806600194312704 0.06652696294256266
v -2.1482120101220037 -0.12587224069970482 0.046790840614253426
v -2.188256442597408 -0.06451554137978821 0.019931270900947595
v -2.1996405545197706 0.006663072864591335 -0.00996261226839934
v -2.180631192328063 0.07682731055110192 -0.03833973826609238
v -2.1341223839350074 0.13529531152034124 -0.06087995151741055
v -2.0671946446758946 0.17316582873058461 -0.07415169792806786
v -1.9900371393853344 0.18467344815676245 -0.07613448723433436
f 1 18 2
f 18 19 2
f 2 19 3
f 19 20 3
f 3 20 4
f 20 21 4
f 4 21 5
f 21 22 5
f 5 22 6
f 22 23 6
f 6 23 7
f 23 24 7
f 7 24 8
f 24 25 8
f 8 25 9
f 25 26 9
f 9 26 10
f 26 27 10
f 10 27 11
f 27 28 11
f 11 28 12
f 28 29 12
f 12 29 13
f 29 30 13
f 13 30 14
f 30 31 14
f 14 31 15
f 31 32 15
f 15 32 16
f 32 33 16
f 16 33 17
f 33 34 17
f 51 52 35
f 52 53 36
f 53 54 37
f 54 55 38
f 55 56 39
f 56 57 40
f 57 58 41
f 58 59 42
f 59 60 43
f 60 61 44
f 61 62 45
f 62 63 46
f 63 64 47
f 64 65 48
f 65 66 49
f 66 67 50
f 85 84 68
f 86 85 69
f 87 86 70
f 88 87 71
f 89 88 72
f 90 89 73
f 91 90 74
f 92 91 75
f 93 92 76
f 94 93 77
f 95 94 78
f 96 95 79
f 97 96 80
f 98 97 81
f 99 98 82
f 100 99 83
