o spoke_back_22
v -0.9667456331858763 -27.639892030348157 -11.662279824979176
v -0.8938487646509037 -27.648264613566255 -11.635716997776399
v -0.837112446923378 -27.667008090581405 -11.585524269926644
v -0.8051742995559353 -27.693268947740272 -11.519343005713024
v -0.8028965818544073 -27.723049199126343 -11.447248720153013
v -0.8306260821152954 -27.75181507395454 -11.380217110880944
v -0.8841412118015278 -27.775187232762732 -11.328453120538175
v -0.955294803399904 -27.789607465744705 -11.299837375007208
v -1.0332543482228171 -27.7928804356129 -11.298726330363792
v -1.1061512167577898 -27.784507852394803 -11.32528915756657
v -1.1628875344853156 -27.765764375379653 -11.375481885416324
v -1.1948256818527583 -27.739503518220786 -11.441663149629944
v -1.1971033995542864 -27.709723266834715 -11.513757435189955
v -1.1693738992933982 -27.68095739200652 -11.580789044462025
v -1.1158587696071658 -27.657585233198326 -11.632553034804793
v -1.0447051780087895 -27.643165000216353 -11.66116878033576
v -0.9667456331858763 -27.639892030348157 -11.662279824979176
v -1.9667456517771829 0.07649446027430251 -0.18177664058891807
v -1.8938487832422102 0.06812187705620687 -0.15521381338614137
v -1.8371124655146844 0.049378400041055315 -0.10502108553638578
v -1.8051743181472417 0.023117542882188147 -0.038839821322765644
v -1.8028966004457136 -0.006662708503881731 0.03325446423724454
v -1.8306261007066018 -0.0354285833320791 0.10028607350931473
v -1.8841412303928342 -0.05880074214027253 0.15205006385208364
v -1.9552948219912105 -0.07322097512224346 0.18066580938304977
v -2.033254366814124 -0.07649394499043716 0.1817768540264666
v -2.1061512353490963 -0.06812136177234152 0.1552140268236899
v -2.162887553076622 -0.04937788475718996 0.10502129897393431
v -2.1948257004440648 -0.023117027598322792 0.03884003476031417
v -2.1971034181455926 0.006663223787747086 -0.03325425079969602
v -2.1693739178847045 0.035429098615944454 -0.10028586007176621
v -2.115858788198472 0.05880125742413789 -0.15204985041453511
v -2.0447051966000958 0.07322149040610881 -0.18066559594550125
v -1.9667456517771829 0.07649446027430251 -0.18177664058891807
v -0.9999999907043468 -27.71638623298053 -11.480503077671484
v -0.9999999907043468 -27.71638623298053 -11.480503077671484
v -0.9999999907043468 -27.71638623298053 -11.480503077671484
v -0.9999999907043468 -27.71638623298053 -11.480503077671484
v -0.9999999907043468 -27.71638623298053 -11.480503077671484
v -0.9999999907043468 -27.71638623298053 -11.480503077671484
v -0.9999999907043468 -27.71638623298053 -11.480503077671484
v -0.9999999907043468 -27.71638623298053 -11.480503077671484
v -0.9999999907043468 -27.71638623298053 -11.480503077671484
v -0.9999999907043468 -27.71638623298053 -11.480503077671484
v -0.9999999907043468 -27.71638623298053 -11.480503077671484
v -0.9999999907043468 -27.71638623298053 -11.480503077671484
v -0.9999999907043468 -27.71638623298053 -11.480503077671484
v -0.9999999907043468 -27.71638623298053 -11.480503077671484
v -0.9999999907043468 -27.71638623298053 -11.480503077671484
v -0.9999999907043468 -27.71638623298053 -11.480503077671484
v -0.9667456331858763 -27.639892030348157 -11.662279824979176
v -0.8938487646509037 -27.648264613566255 -11.635716997776399
v -0.837112446923378 -27.667008090581405 -11.585524269926644
v -0.8051742995559353 -27.693268947740272 -11.519343005713024
v -0.8028965818544073 -27.723049199126343 -11.447248720153013
v -0.8306260821152954 -27.75181507395454 -11.380217110880944
v -0.8841412118015278 -27.775187232762732 -11.328453120538175
v -0.955294803399904 -27.789607465744705 -11.299837375007208
v -1.0332543482228171 -27.7928804356129 -11.298726330363792
v -1.1061512167577898 -27.784507852394803 -11.32528915756657
v -1.1628875344853156 -27.765764375379653 -11.375481885416324
v -1.1948256818527583 -27.739503518220786 -11.441663149629944
v -1.1971033995542864 -27.709723266834715 -11.513757435189955
v -1.1693738992933982 -27.68095739200652 -11.580789044462025
v -1.1158587696071658 -27.657585233198326 -11.632553034804793
v -1.0447051780087895 -27.643165000216353 -11.66116878033576
v -0.9667456331858763 -27.639892030348157 -11.662279824979176
v -2.000000009295653 2.576419326771884e-7 1.0671877426204901e-7
v -2.000000009295653 2.576419326771884e-7 1.0671877426204901e-7
v -2.000000009295653 2.576419326771884e-7 1.0671877426204901e-7
v -2.000000009295653 2.576419326771884e-7 1.0671877426204901e-7
v -2.000000009295653 2.576419326771884e-7 1.0671877426204901e-7
v -2.000000009295653 2.576419326771884e-7 1.0671877426204901e-7
v -2.000000009295653 2.576419326771884e-7 1.0671877426204901e-7
v -2.000000009295653 2.576419326771884e-7 1.0671877426204901e-7
v -2.000000009295653 2.576419326771884e-7 1.0671877426204901e-7
v -2.000000009295653 2.576419326771884e-7 1.0671877426204901e-7
v -2.000000009295653 2.576419326771884e-7 1.0671877426204901e-7
v -2.000000009295653 2.576419326771884e-7 1.0671877426204901e-7
v -2.000000009295653 2.576419326771884e-7 1.0671877426204901e-7
v -2.000000009295653 2.576419326771884e-7 1.0671877426204901e-7
v -2.000000009295653 2.576419326771884e-7 1.0671877426204901e-7
v -2.000000009295653 2.576419326771884e-7 1.0671877426204901e-7
v -1.9667456517771829 0.07649446027430251 -0.18177664058891807
v -1.8938487832422102 0.06812187705620687 -0.15521381338614137
v -1.8371124655146844 0.049378400041055315 -0.10502108553638578
v -1.8051743181472417 0.023117542882188147 -0.038839821322765644
v -1.8028966004457136 -0.006662708503881731 0.03325446423724454
v -1.8306261007066018 -0.0354285833320791 0.10028607350931473
v -1.8841412303928342 -0.05880074214027253 0.15205006385208364
v -1.9552948219912105 -0.07322097512224346 0.18066580938304977
v -2.033254366814124 -0.07649394499043716 0.1817768540264666
v -2.1061512353490963 -0.06812136177234152 0.1552140268236899
v -2.162887553076622 -0.04937788475718996 0.10502129897393431
v -2.1948257004440648 -0.023117027598322792 0.03884003476031417
v -2.1971034181455926 0.006663223787747086 -0.03325425079969602
v -2.1693739178847045 0.035429098615944454 -0.10028586007176621
v -2.115858788198472 0.05880125742413789 -0.15204985041453511
v -2.0447051966000958 0.07322149040610881 -0.18066559594550125
v -1.9667456517771829 0.07649446027430251 -0.18177664058891807
f 1 18 2
f 18 19 2
f 2 19 3
f 19 20 3
f 3 20 4
f 20 21 4
f 4 21 5
f 21 22 5
f 5 22 6
f 22 23 6
f 6 23 7
f 23 24 7
f 7 24 8
f 24 25 8
f 8 25 9
f 25 26 9
f 9 26 10
f 26 27 10
f 10 27 11
f 27 28 11
f 11 28 12
f 28 29 12
f 12 29 13
f 29 30 13
f 13 30 14
f 30 31 14
f 14 31 15
f 31 32 15
f 15 32 16
f 32 33 16
f 16 33 17
f 33 34 17
f 51 52 35
f 52 53 36
f 53 54 37
f 54 55 38
f 55 56 39
f 56 57 40
f 57 58 41
f 58 59 42
f 59 60 43
f 60 61 44
f 61 62 45
f 62 63 46
f 63 64 47
f 64 65 48
f 65 66 49
f 66 67 50
f 85 84 68
f 86 85 69
f 87 86 70
f 88 87 71
f 89 88 72
f 90 89 73
f 91 90 74
f 92 91 75
f 93 92 76
f 94 93 77
f 95 94 78
f 96 95 79
f 97 96 80
f 98 97 81
f 99 98 82
f 100 99 83
