o spoke_front_4
v 1.002758984018589 21.071860776451377 21.354676549314767
v 1.0790358814319057 21.085169671267526 21.344963381925872
v 1.1432802899579784 21.1179705661726 21.315190997482276
v 1.1857115555778448 21.16526984293671 21.269891949761778
v 1.199869933492462 21.21986659893283 21.21596262610126
v 1.1835999135809177 21.273448978371075 21.161613270569042
v 1.1393784840727246 21.317859556784512 21.11511807397701
v 1.0739379266751186 21.346337207656404 21.08355552564508
v 0.9972409973901039 21.35454648912265 21.07173071625926
v 0.9209640999767874 21.341237594306502 21.081443883648156
v 0.8567196914507147 21.30843669940143 21.111216268091756
v 0.8142884258308484 21.26113742263732 21.156515315812257
v 0.800130047916231 21.2065406666412 21.210444639472772
v 0.8164000678277755 21.152958287202953 21.264793995004986
v 0.8606214973359685 21.108547708789516 21.311289191597023
v 0.9260620547335745 21.080070057917624 21.342851739928946
v 1.002758984018589 21.071860776451377 21.354676549314767
v 2.002759002609896 -0.1413430535262279 0.14147271933716432
v 2.0790359000232126 -0.12803415871007928 0.13175955194826905
v 2.1432803085492855 -0.09523326380500663 0.10198716750467085
v 2.1857115741691517 -0.04793398704089569 0.05668811978417132
v 2.199869952083769 0.0066627689552234415 0.0027587961236541503
v 2.1835999321722244 0.06024514839347006 -0.051590559408561276
v 2.1393785026640315 0.10465572680690727 -0.09808575600059655
v 2.0739379452664255 0.1331333776787993 -0.1296483043325214
v 1.997241015981411 0.14134265914504596 -0.1414731137183427
v 1.9209641185680943 0.12803376432889735 -0.13175994632944743
v 1.8567197100420216 0.0952328694238247 -0.10198756188584923
v 1.8142884444221552 0.04793359265971375 -0.0566885141653497
v 1.800130066507538 -0.0066631633364053755 -0.0027591905048325316
v 1.8164000864190823 -0.060245542774651994 0.051590165027382895
v 1.8606215159272754 -0.1046561211880892 0.09808536161941817
v 1.9260620733248814 -0.13313377205998123 0.129647909951343
v 2.002759002609896 -0.1413430535262279 0.14147271933716432
v 0.9999999907043465 21.213203632787014 21.213203632787014
v 0.9999999907043465 21.213203632787014 21.213203632787014
v 0.9999999907043465 21.213203632787014 21.213203632787014
v 0.9999999907043465 21.213203632787014 21.213203632787014
v 0.9999999907043465 21.213203632787014 21.213203632787014
v 0.9999999907043465 21.213203632787014 21.213203632787014
v 0.9999999907043465 21.213203632787014 21.213203632787014
v 0.9999999907043465 21.213203632787014 21.213203632787014
v 0.9999999907043465 21.213203632787014 21.213203632787014
v 0.9999999907043465 21.213203632787014 21.213203632787014
v 0.9999999907043465 21.213203632787014 21.213203632787014
v 0.9999999907043465 21.213203632787014 21.213203632787014
v 0.9999999907043465 21.213203632787014 21.213203632787014
v 0.9999999907043465 21.213203632787014 21.213203632787014
v 0.9999999907043465 21.213203632787014 21.213203632787014
v 0.9999999907043465 21.213203632787014 21.213203632787014
v 1.002758984018589 21.071860776451377 21.354676549314767
v 1.0790358814319057 21.085169671267526 21.344963381925872
v 1.1432802899579784 21.1179705661726 21.315190997482276
v 1.1857115555778448 21.16526984293671 21.269891949761778
v 1.199869933492462 21.21986659893283 21.21596262610126
v 1.1835999135809177 21.273448978371075 21.161613270569042
v 1.1393784840727246 21.317859556784512 21.11511807397701
v 1.0739379266751186 21.346337207656404 21.08355552564508
v 0.9972409973901039 21.35454648912265 21.07173071625926
v 0.9209640999767874 21.341237594306502 21.081443883648156
v 0.8567196914507147 21.30843669940143 21.111216268091756
v 0.8142884258308484 21.26113742263732 21.156515315812257
v 0.800130047916231 21.2065406666412 21.210444639472772
v 0.8164000678277755 21.152958287202953 21.264793995004986
v 0.8606214973359685 21.108547708789516 21.311289191597023
v 0.9260620547335745 21.080070057917624 21.342851739928946
v 1.002758984018589 21.071860776451377 21.354676549314767
v 2.0000000092956536 -1.971905909670113e-7 -1.9719058919065446e-7
v 2.0000000092956536 -1.971905909670113e-7 -1.9719058919065446e-7
v 2.0000000092956536 -1.971905909670113e-7 -1.9719058919065446e-7
v 2.0000000092956536 -1.971905909670113e-7 -1.9719058919065446e-7
v 2.0000000092956536 -1.971905909670113e-7 -1.9719058919065446e-7
v 2.0000000092956536 -1.971905909670113e-7 -1.9719058919065446e-7
v 2.0000000092956536 -1.971905909670113e-7 -1.9719058919065446e-7
v 2.0000000092956536 -1.971905909670113e-7 -1.9719058919065446e-7
v 2.0000000092956536 -1.971905909670113e-7 -1.9719058919065446e-7
v 2.0000000092956536 -1.971905909670113e-7 -1.9719058919065446e-7
v 2.0000000092956536 -1.971905909670113e-7 -1.9719058919065446e-7
v 2.0000000092956536 -1.971905909670113e-7 -1.9719058919065446e-7
v 2.0000000092956536 -1.971905909670113e-7 -1.9719058919065446e-7
v 2.0000000092956536 -1.971905909670113e-7 -1.9719058919065446e-7
v 2.0000000092956536 -1.971905909670113e-7 -1.9719058919065446e-7
v 2.0000000092956536 -1.971905909670113e-7 -1.9719058919065446e-7
v 2.002759002609896 -0.1413430535262279 0.14147271933716432
v 2.0790359000232126 -0.12803415871007928 0.13175955194826905
v 2.1432803085492855 -0.09523326380500663 0.10198716750467085
v 2.1857115741691517 -0.04793398704089569 0.05668811978417132
v 2.199869952083769 0.0066627689552234415 0.0027587961236541503
v 2.1835999321722244 0.06024514839347006 -0.051590559408561276
v 2.1393785026640315 0.10465572680690727 -0.09808575600059655
v 2.0739379452664255 0.1331333776787993 -0.1296483043325214
v 1.997241015981411 0.14134265914504596 -0.1414731137183427
v 1.9209641185680943 0.12803376432889735 -0.13175994632944743
v 1.8567197100420216 0.0952328694238247 -0.10198756188584923
v 1.8142884444221552 0.04793359265971375 -0.0566885141653497
v 1.800130066507538 -0.0066631633364053755 -0.0027591905048325316
v 1.8164000864190823 -0.060245542774651994 0.051590165027382895
v 1.8606215159272754 -0.1046561211880892 0.09808536161941817
v 1.9260620733248814 -0.13313377205998123 0.129647909951343
v 2.002759002609896 -0.1413430535262279 0.14147271933716432
f 1 18 2
f 18 19 2
f 2 19 3
f 19 20 3
f 3 20 4
f 20 21 4
f 4 21 5
f 21 22 5
f 5 22 6
f 22 23 6
f 6 23 7
f 23 24 7
f 7 24 8
f 24 25 8
f 8 25 9
f 25 26 9
f 9 26 10
f 26 27 10
f 10 27 11
f 27 28 11
f 11 28 12
f 28 29 12
f 12 29 13
f 29 30 13
f 13 30 14
f 30 31 14
f 14 31 15
f 31 32 15
f 15 32 16
f 32 33 16
f 16 33 17
f 33 34 17
f 51 52 35
f 52 53 36
f 53 54 37
f 54 55 38
f 55 56 39
f 56 57 40
f 57 58 41
f 58 59 42
f 59 60 43
f 60 61 44
f 61 62 45
f 62 63 46
f 63 64 47
f 64 65 48
f 65 66 49
f 66 67 50
f 85 84 68
f 86 85 69
f 87 86 70
f 88 87 71
f 89 88 72
f 90 89 73
f 91 90 74
f 92 91 75
f 93 92 76
f 94 93 77
f 95 94 78
f 96 95 79
f 97 96 80
f 98 97 81
f 99 98 82
f 100 99 83
