o spoke_back_24
v -0.9999999907044371 -30.00000027886961 0.20000000298022674
v -1.0764941909529762 -30.002550085544563 0.18477590382098685
v -1.1413428514506554 -30.00471170756115 0.14142136275767886
v -1.1846733267107985 -30.006156056736486 0.0765366852283443
v -1.1998889750788482 -30.006663245015424 -3.2949117219898025e-15
v -1.1846733267108003 -30.006156056736486 -0.07653668522835126
v -1.1413428514506585 -30.00471170756115 -0.14142136275768674
v -1.0764941909529804 -30.002550085544563 -0.18477590382099618
v -0.9999999907044416 -30.00000027886961 -0.20000000298023773
v -0.9235057904559024 -29.997450472194657 -0.18477590382099787
v -0.8586571299582233 -29.99528885017807 -0.14142136275768985
v -0.8153266546980802 -29.993844501002734 -0.07653668522835533
v -0.8001110063300305 -29.993337312723796 -7.751402510669266e-15
v -0.8153266546980784 -29.993844501002734 0.07653668522834023
v -0.8586571299582202 -29.99528885017807 0.14142136275767575
v -0.9235057904558984 -29.997450472194657 0.18477590382098516
v -0.9999999907044371 -30.00000027886961 0.20000000298022674
v -2.0000000092955585 2.788696100708421e-7 0.20000000298023224
v -2.0764942095440975 -0.002549527805340901 0.18477590382099238
v -2.1413428700417767 -0.004711149821929439 0.14142136275768435
v -2.1846733453019196 -0.006155498997268083 0.0765366852283498
v -2.1998889936699695 -0.006662687276202561 2.215998976627294e-15
v -2.1846733453019214 -0.006155498997268083 -0.07653668522834575
v -2.14134287004178 -0.004711149821929439 -0.14142136275768125
v -2.0764942095441015 -0.002549527805340901 -0.18477590382099066
v -2.000000009295563 2.788696100708421e-7 -0.20000000298023224
v -1.9235058090470238 0.0025500855445610426 -0.18477590382099235
v -1.8586571485493446 0.004711707561149581 -0.14142136275768435
v -1.8153266732892015 0.006156056736488225 -0.07653668522834982
v -1.8001110249211518 0.006663245015422703 -2.2404918120521703e-15
v -1.8153266732891997 0.006156056736488225 0.07653668522834574
v -1.8586571485493415 0.004711707561149581 0.14142136275768125
v -1.9235058090470196 0.0025500855445610426 0.18477590382099068
v -2.0000000092955585 2.788696100708421e-7 0.20000000298023224
v -0.9999999907044393 -30.00000027886961 -5.5109106473900925e-15
v -0.9999999907044393 -30.00000027886961 -5.5109106473900925e-15
v -0.9999999907044393 -30.00000027886961 -5.5109106473900925e-15
v -0.9999999907044393 -30.00000027886961 -5.5109106473900925e-15
v -0.9999999907044393 -30.00000027886961 -5.5109106473900925e-15
v -0.9999999907044393 -30.00000027886961 -5.5109106473900925e-15
v -0.9999999907044393 -30.00000027886961 -5.5109106473900925e-15
v -0.9999999907044393 -30.00000027886961 -5.5109106473900925e-15
v -0.9999999907044393 -30.00000027886961 -5.5109106473900925e-15
v -0.9999999907044393 -30.00000027886961 -5.5109106473900925e-15
v -0.9999999907044393 -30.00000027886961 -5.5109106473900925e-15
v -0.9999999907044393 -30.00000027886961 -5.5109106473900925e-15
v -0.9999999907044393 -30.00000027886961 -5.5109106473900925e-15
v -0.9999999907044393 -30.00000027886961 -5.5109106473900925e-15
v -0.9999999907044393 -30.00000027886961 -5.5109106473900925e-15
v -0.9999999907044393 -30.00000027886961 -5.5109106473900925e-15
v -0.9999999907044371 -30.00000027886961 0.20000000298022674
v -1.0764941909529762 -30.002550085544563 0.18477590382098685
v -1.1413428514506554 -30.00471170756115 0.14142136275767886
v -1.1846733267107985 -30.006156056736486 0.0765366852283443
v -1.1998889750788482 -30.006663245015424 -3.2949117219898025e-15
v -1.1846733267108003 -30.006156056736486 -0.07653668522835126
v -1.1413428514506585 -30.00471170756115 -0.14142136275768674
v -1.0764941909529804 -30.002550085544563 -0.18477590382099618
v -0.9999999907044416 -30.00000027886961 -0.20000000298023773
v -0.9235057904559024 -29.997450472194657 -0.18477590382099787
v -0.8586571299582233 -29.99528885017807 -0.14142136275768985
v -0.8153266546980802 -29.993844501002734 -0.07653668522835533
v -0.8001110063300305 -29.993337312723796 -7.751402510669266e-15
v -0.8153266546980784 -29.993844501002734 0.07653668522834023
v -0.8586571299582202 -29.99528885017807 0.14142136275767575
v -0.9235057904558984 -29.997450472194657 0.18477590382098516
v -0.9999999907044371 -30.00000027886961 0.20000000298022674
v -2.0000000092955608 2.788696100708421e-7 5.122700370930956e-23
v -2.0000000092955608 2.788696100708421e-7 5.122700370930956e-23
v -2.0000000092955608 2.788696100708421e-7 5.122700370930956e-23
v -2.0000000092955608 2.788696100708421e-7 5.122700370930956e-23
v -2.0000000092955608 2.788696100708421e-7 5.122700370930956e-23
v -2.0000000092955608 2.788696100708421e-7 5.122700370930956e-23
v -2.0000000092955608 2.788696100708421e-7 5.122700370930956e-23
v -2.0000000092955608 2.788696100708421e-7 5.122700370930956e-23
v -2.0000000092955608 2.788696100708421e-7 5.122700370930956e-23
v -2.0000000092955608 2.788696100708421e-7 5.122700370930956e-23
v -2.0000000092955608 2.788696100708421e-7 5.122700370930956e-23
v -2.0000000092955608 2.788696100708421e-7 5.122700370930956e-23
v -2.0000000092955608 2.788696100708421e-7 5.122700370930956e-23
v -2.0000000092955608 2.788696100708421e-7 5.122700370930956e-23
v -2.0000000092955608 2.788696100708421e-7 5.122700370930956e-23
v -2.0000000092955608 2.788696100708421e-7 5.122700370930956e-23
v -2.0000000092955585 2.788696100708421e-7 0.20000000298023224
v -2.0764942095440975 -0.002549527805340901 0.18477590382099238
v -2.1413428700417767 -0.004711149821929439 0.14142136275768435
v -2.1846733453019196 -0.006155498997268083 0.0765366852283498
v -2.1998889936699695 -0.006662687276202561 2.215998976627294e-15
v -2.1846733453019214 -0.006155498997268083 -0.07653668522834575
v -2.14134287004178 -0.004711149821929439 -0.14142136275768125
v -2.0764942095441015 -0.002549527805340901 -0.18477590382099066
v -2.000000009295563 2.788696100708421e-7 -0.20000000298023224
v -1.9235058090470238 0.0025500855445610426 -0.18477590382099235
v -1.8586571485493446 0.004711707561149581 -0.14142136275768435
v -1.8153266732892015 0.006156056736488225 -0.07653668522834982
v -1.8001110249211518 0.006663245015422703 -2.2404918120521703e-15
v -1.8153266732891997 0.006156056736488225 0.07653668522834574
v -1.8586571485493415 0.004711707561149581 0.14142136275768125
v -1.9235058090470196 0.0025500855445610426 0.18477590382099068
v -2.0000000092955585 2.788696100708421e-7 0.20000000298023224
f 1 18 2
f 18 19 2
f 2 19 3
f 19 20 3
f 3 20 4
f 20 21 4
f 4 21 5
f 21 22 5
f 5 22 6
f 22 23 6
f 6 23 7
f 23 24 7
f 7 24 8
f 24 25 8
f 8 25 9
f 25 26 9
f 9 26 10
f 26 27 10
f 10 27 11
f 27 28 11
f 11 28 12
f 28 29 12
f 12 29 13
f 29 30 13
f 13 30 14
f 30 31 14
f 14 31 15
f 31 32 15
f 15 32 16
f 32 33 16
f 16 33 17
f 33 34 17
f 51 52 35
f 52 53 36
f 53 54 37
f 54 55 38
f 55 56 39
f 56 57 40
f 57 58 41
f 58 59 42
f 59 60 43
f 60 61 44
f 61 62 45
f 62 63 46
f 63 64 47
f 64 65 48
f 65 66 49
f 66 67 50
f 85 84 68
f 86 85 69
f 87 86 70
f 88 87 71
f 89 88 72
f 90 89 73
f 91 90 74
f 92 91 75
f 93 92 76
f 94 93 77
f 95 94 78
f 96 95 79
f 97 96 80
f 98 97 81
f 99 98 82
f 100 99 83
