o spoke_front_17
v 0.9918867412444384 -5.6566615412994405 -29.46227935202341
v 1.0689354899416297 -5.669035018575663 -29.46243672179643
v 1.135489442003482 -5.709371288887097 -29.456675266146384
v 1.1814163380159899 -5.771529551381748 -29.44587210757131
v 1.1997242537707902 -5.846046748742798 -29.431671935068024
v 1.1876259501243802 -5.921578322661716 -29.416236593440324
v 1.1469633097826408 -5.986625283507045 -29.401915972849004
v 1.0839268197370386 -6.031284797851658 -29.390890261528188
v 1.008113240164255 -6.048757888477782 -29.38483801919282
v 0.9310644914670636 -6.03638441120156 -29.3846806494198
v 0.8645105394052112 -5.996048140890125 -29.390442105069845
v 0.8185836433927033 -5.933889878395474 -29.401245263644917
v 0.8002757276379031 -5.859372681034425 -29.415445436148204
v 0.8123740312843132 -5.7838411071155065 -29.430880777775904
v 0.8530366716260526 -5.718794146270178 -29.445201398367224
v 0.9160731616716546 -5.674134631925565 -29.45622710968804
v 0.9918867412444384 -5.6566615412994405 -29.46227935202341
v 1.991886759835745 0.19604822799393196 -0.03872039290409113
v 2.0689355085329364 0.18367475071770967 -0.038877762677113736
v 2.1354894605947887 0.14333848040627473 -0.033116307027070135
v 2.1814163566072966 0.08118021791162322 -0.022313148451996057
v 2.199724272362097 0.006663020550574217 -0.008112975948707302
v 2.187625968715687 -0.06886855336834463 0.0073223656789913605
v 2.1469633283739475 -0.13391551421367254 0.021642986270313358
v 2.0839268383283454 -0.17857502855828544 0.03266869759112723
v 2.0081132587555617 -0.19604811918441056 0.038720939926493614
v 1.9310645100583703 -0.18367464190818827 0.03887830969951622
v 1.864510557996518 -0.14333837159675333 0.03311685404947262
v 1.8185836619840101 -0.08118010910210183 0.022313695474398543
v 1.8002757462292098 -0.006662911741052824 0.008113522971109788
v 1.8123740498756198 0.06886866217786602 -0.007321818656588874
v 1.8530366902173592 0.13391562302319393 -0.021642439247910872
v 1.9160731802629614 0.17857513736780684 -0.03266815056872474
v 1.991886759835745 0.19604822799393196 -0.03872039290409113
v 0.9999999907043466 -5.852709714888611 -29.423558685608114
v 0.9999999907043466 -5.852709714888611 -29.423558685608114
v 0.9999999907043466 -5.852709714888611 -29.423558685608114
v 0.9999999907043466 -5.852709714888611 -29.423558685608114
v 0.9999999907043466 -5.852709714888611 -29.423558685608114
v 0.9999999907043466 -5.852709714888611 -29.423558685608114
v 0.9999999907043466 -5.852709714888611 -29.423558685608114
v 0.9999999907043466 -5.852709714888611 -29.423558685608114
v 0.9999999907043466 -5.852709714888611 -29.423558685608114
v 0.9999999907043466 -5.852709714888611 -29.423558685608114
v 0.9999999907043466 -5.852709714888611 -29.423558685608114
v 0.9999999907043466 -5.852709714888611 -29.423558685608114
v 0.9999999907043466 -5.852709714888611 -29.423558685608114
v 0.9999999907043466 -5.852709714888611 -29.423558685608114
v 0.9999999907043466 -5.852709714888611 -29.423558685608114
v 0.9999999907043466 -5.852709714888611 -29.423558685608114
v 0.9918867412444384 -5.6566615412994405 -29.46227935202341
v 1.0689354899416297 -5.669035018575663 -29.46243672179643
v 1.135489442003482 -5.709371288887097 -29.456675266146384
v 1.1814163380159899 -5.771529551381748 -29.44587210757131
v 1.1997242537707902 -5.846046748742798 -29.431671935068024
v 1.1876259501243802 -5.921578322661716 -29.416236593440324
v 1.1469633097826408 -5.986625283507045 -29.401915972849004
v 1.0839268197370386 -6.031284797851658 -29.390890261528188
v 1.008113240164255 -6.048757888477782 -29.38483801919282
v 0.9310644914670636 -6.03638441120156 -29.3846806494198
v 0.8645105394052112 -5.996048140890125 -29.390442105069845
v 0.8185836433927033 -5.933889878395474 -29.401245263644917
v 0.8002757276379031 -5.859372681034425 -29.415445436148204
v 0.8123740312843132 -5.7838411071155065 -29.430880777775904
v 0.8530366716260526 -5.718794146270178 -29.445201398367224
v 0.9160731616716546 -5.674134631925565 -29.45622710968804
v 0.9918867412444384 -5.6566615412994405 -29.46227935202341
v 2.000000009295653 5.4404760696513677e-8 2.735112012430818e-7
v 2.000000009295653 5.4404760696513677e-8 2.735112012430818e-7
v 2.000000009295653 5.4404760696513677e-8 2.735112012430818e-7
v 2.000000009295653 5.4404760696513677e-8 2.735112012430818e-7
v 2.000000009295653 5.4404760696513677e-8 2.735112012430818e-7
v 2.000000009295653 5.4404760696513677e-8 2.735112012430818e-7
v 2.000000009295653 5.4404760696513677e-8 2.735112012430818e-7
v 2.000000009295653 5.4404760696513677e-8 2.735112012430818e-7
v 2.000000009295653 5.4404760696513677e-8 2.735112012430818e-7
v 2.000000009295653 5.4404760696513677e-8 2.735112012430818e-7
v 2.000000009295653 5.4404760696513677e-8 2.735112012430818e-7
v 2.000000009295653 5.4404760696513677e-8 2.735112012430818e-7
v 2.000000009295653 5.4404760696513677e-8 2.735112012430818e-7
v 2.000000009295653 5.4404760696513677e-8 2.735112012430818e-7
v 2.000000009295653 5.4404760696513677e-8 2.735112012430818e-7
v 2.000000009295653 5.4404760696513677e-8 2.735112012430818e-7
v 1.991886759835745 0.19604822799393196 -0.03872039290409113
v 2.0689355085329364 0.18367475071770967 -0.038877762677113736
v 2.1354894605947887 0.14333848040627473 -0.033116307027070135
v 2.1814163566072966 0.08118021791162322 -0.022313148451996057
v 2.199724272362097 0.006663020550574217 -0.008112975948707302
v 2.187625968715687 -0.06886855336834463 0.0073223656789913605
v 2.1469633283739475 -0.13391551421367254 0.021642986270313358
v 2.0839268383283454 -0.17857502855828544 0.03266869759112723
v 2.0081132587555617 -0.19604811918441056 0.038720939926493614
v 1.9310645100583703 -0.18367464190818827 0.03887830969951622
v 1.864510557996518 -0.14333837159675333 0.03311685404947262
v 1.8185836619840101 -0.08118010910210183 0.022313695474398543
v 1.8002757462292098 -0.006662911741052824 0.008113522971109788
v 1.8123740498756198 0.06886866217786602 -0.007321818656588874
v 1.8530366902173592 0.13391562302319393 -0.021642439247910872
v 1.9160731802629614 0.17857513736780684 -0.03266815056872474
v 1.991886759835745 0.19604822799393196 -0.03872039290409113
f 1 18 2
f 18 19 2
f 2 19 3
f 19 20 3
f 3 20 4
f 20 21 4
f 4 21 5
f 21 22 5
f 5 22 6
f 22 23 6
f 6 23 7
f 23 24 7
f 7 24 8
f 24 25 8
f 8 25 9
f 25 26 9
f 9 26 10
f 26 27 10
f 10 27 11
f 27 28 11
f 11 28 12
f 28 29 12
f 12 29 13
f 29 30 13
f 13 30 14
f 30 31 14
f 14 31 15
f 31 32 15
f 15 32 16
f 32 33 16
f 16 33 17
f 33 34 17
f 51 52 35
f 52 53 36
f 53 54 37
f 54 55 38
f 55 56 39
f 56 57 40
f 57 58 41
f 58 59 42
f 59 60 43
f 60 61 44
f 61 62 45
f 62 63 46
f 63 64 47
f 64 65 48
f 65 66 49
f 66 67 50
f 85 84 68
f 86 85 69
f 87 86 70
f 88 87 71
f 89 88 72
f 90 89 73
f 91 90 74
f 92 91 75
f 93 92 76
f 94 93 77
f 95 94 78
f 96 95 79
f 97 96 80
f 98 97 81
f 99 98 82
f 100 99 83
