o spoke_back_0
v -1.0066592582841545 -0.19988898437440877 30.0002222544556
v -0.9297006126900477 -0.18722314268131132 29.997656966269126
v -0.8634444018040313 -0.1460542894377581 29.99544842590626
v -0.8179775568730014 -0.08264997811541752 29.99393286440856
v -0.8002219633101079 -0.006662966145813638 29.993341011289797
v -0.8128807742828783 0.07033842238166019 29.993762971655556
v -0.8540267749833199 0.13663143205467693 29.99513450501224
v -0.9173958910149539 0.1821235293314087 29.997246808879957
v -0.9933407231245386 0.19988898437440877 29.999778303283613
v -1.0702993687186453 0.18722314268131132 30.00234359147008
v -1.1365555796046618 0.1460542894377581 30.00455213183295
v -1.1820224245356916 0.08264997811541752 30.00606769333065
v -1.199778018098585 0.0066629661458136626 30.006659546449413
v -1.1871192071258148 -0.07033842238166019 30.006237586083653
v -1.1459732064253731 -0.13663143205467693 30.00486605272697
v -1.082604090393739 -0.1821235293314087 30.00275374885925
v -1.0066592582841545 -0.19988898437440877 30.0002222544556
v -2.006659276875461 -0.19988898437440877 0.00022169671638927468
v -1.9297006312813547 -0.18722314268131132 -0.002343591470081563
v -1.8634444203953382 -0.1460542894377581 -0.004552131832948447
v -1.8179775754643084 -0.08264997811541752 -0.006067693330649604
v -1.800221981901415 -0.006662966145813638 -0.006659546449412801
v -1.8128807928741852 0.07033842238166019 -0.006237586083653213
v -1.8540267935746269 0.13663143205467693 -0.0048660527269710485
v -1.917395909606261 0.1821235293314087 -0.0027537488592503934
v -1.9933407417158455 0.19988898437440877 -0.00022225445559875823
v -2.0702993873099524 0.18722314268131132 0.0023430337308720794
v -2.1365555981959687 0.1460542894377581 0.004551574093738964
v -2.1820224431269986 0.08264997811541752 0.00606713559144012
v -2.1997780366898922 0.0066629661458136626 0.006658988710203317
v -2.1871192257171215 -0.07033842238166019 0.006237028344443729
v -2.14597322501668 -0.13663143205467693 0.004865494987761565
v -2.082604108985046 -0.1821235293314087 0.00275319112004091
v -2.006659276875461 -0.19988898437440877 0.00022169671638927468
v -0.9999999907043465 0 30.000000278869607
v -0.9999999907043465 0 30.000000278869607
v -0.9999999907043465 0 30.000000278869607
v -0.9999999907043465 0 30.000000278869607
v -0.9999999907043465 0 30.000000278869607
v -0.9999999907043465 0 30.000000278869607
v -0.9999999907043465 0 30.000000278869607
v -0.9999999907043465 0 30.000000278869607
v -0.9999999907043465 0 30.000000278869607
v -0.9999999907043465 0 30.000000278869607
v -0.9999999907043465 0 30.000000278869607
v -0.9999999907043465 0 30.000000278869607
v -0.9999999907043465 0 30.000000278869607
v -0.9999999907043465 0 30.000000278869607
v -0.9999999907043465 0 30.000000278869607
v -0.9999999907043465 0 30.000000278869607
v -1.0066592582841545 -0.19988898437440877 30.0002222544556
v -0.9297006126900477 -0.18722314268131132 29.997656966269126
v -0.8634444018040313 -0.1460542894377581 29.99544842590626
v -0.8179775568730014 -0.08264997811541752 29.99393286440856
v -0.8002219633101079 -0.006662966145813638 29.993341011289797
v -0.8128807742828783 0.07033842238166019 29.993762971655556
v -0.8540267749833199 0.13663143205467693 29.99513450501224
v -0.9173958910149539 0.1821235293314087 29.997246808879957
v -0.9933407231245386 0.19988898437440877 29.999778303283613
v -1.0702993687186453 0.18722314268131132 30.00234359147008
v -1.1365555796046618 0.1460542894377581 30.00455213183295
v -1.1820224245356916 0.08264997811541752 30.00606769333065
v -1.199778018098585 0.0066629661458136626 30.006659546449413
v -1.1871192071258148 -0.07033842238166019 30.006237586083653
v -1.1459732064253731 -0.13663143205467693 30.00486605272697
v -1.082604090393739 -0.1821235293314087 30.00275374885925
v -1.0066592582841545 -0.19988898437440877 30.0002222544556
v -2.0000000092956536 0 -2.788696047417716e-7
v -2.0000000092956536 0 -2.788696047417716e-7
v -2.0000000092956536 0 -2.788696047417716e-7
v -2.0000000092956536 0 -2.788696047417716e-7
v -2.0000000092956536 0 -2.788696047417716e-7
v -2.0000000092956536 0 -2.788696047417716e-7
v -2.0000000092956536 0 -2.788696047417716e-7
v -2.0000000092956536 0 -2.788696047417716e-7
v -2.0000000092956536 0 -2.788696047417716e-7
v -2.0000000092956536 0 -2.788696047417716e-7
v -2.0000000092956536 0 -2.788696047417716e-7
v -2.0000000092956536 0 -2.788696047417716e-7
v -2.0000000092956536 0 -2.788696047417716e-7
v -2.0000000092956536 0 -2.788696047417716e-7
v -2.0000000092956536 0 -2.788696047417716e-7
v -2.0000000092956536 0 -2.788696047417716e-7
v -2.006659276875461 -0.19988898437440877 0.00022169671638927468
v -1.9297006312813547 -0.18722314268131132 -0.002343591470081563
v -1.8634444203953382 -0.1460542894377581 -0.004552131832948447
v -1.8179775754643084 -0.08264997811541752 -0.006067693330649604
v -1.800221981901415 -0.006662966145813638 -0.006659546449412801
v -1.8128807928741852 0.07033842238166019 -0.006237586083653213
v -1.8540267935746269 0.13663143205467693 -0.0048660527269710485
v -1.917395909606261 0.1821235293314087 -0.0027537488592503934
v -1.9933407417158455 0.19988898437440877 -0.00022225445559875823
v -2.0702993873099524 0.18722314268131132 0.0023430337308720794
v -2.1365555981959687 0.1460542894377581 0.004551574093738964
v -2.1820224431269986 0.08264997811541752 0.00606713559144012
v -2.1997780366898922 0.0066629661458136626 0.006658988710203317
v -2.1871192257171215 -0.07033842238166019 0.006237028344443729
v -2.14597322501668 -0.13663143205467693 0.004865494987761565
v -2.082604108985046 -0.1821235293314087 0.00275319112004091
v -2.006659276875461 -0.19988898437440877 0.00022169671638927468
f 1 18 2
f 18 19 2
f 2 19 3
f 19 20 3
f 3 20 4
f 20 21 4
f 4 21 5
f 21 22 5
f 5 22 6
f 22 23 6
f 6 23 7
f 23 24 7
f 7 24 8
f 24 25 8
f 8 25 9
f 25 26 9
f 9 26 10
f 26 27 10
f 10 27 11
f 27 28 11
f 11 28 12
f 28 29 12
f 12 29 13
f 29 30 13
f 13 30 14
f 30 31 14
f 14 31 15
f 31 32 15
f 15 32 16
f 32 33 16
f 16 33 17
f 33 34 17
f 51 52 35
f 52 53 36
f 53 54 37
f 54 55 38
f 55 56 39
f 56 57 40
f 57 58 41
f 58 59 42
f 59 60 43
f 60 61 44
f 61 62 45
f 62 63 46
f 63 64 47
f 64 65 48
f 65 66 49
f 66 67 50
f 85 84 68
f 86 85 69
f 87 86 70
f 88 87 71
f 89 88 72
f 90 89 73
f 91 90 74
f 92 91 75
f 93 92 76
f 94 93 77
f 95 94 78
f 96 95 79
f 97 96 80
f 98 97 81
f 99 98 82
f 100 99 83
