o spoke_front_30
v 1.0099628606146653 -11.66517641910948 27.640251488104262
v 1.0856036087335736 -11.6485691863334 27.649859527679876
v 1.1482119915306968 -11.606375425089979 27.669595650008183
v 1.188256424006101 -11.545018725770062 27.696455219721493
v 1.1996405359284634 -11.473840111525682 27.726349102890836
v 1.1806311737367554 -11.403675873839171 27.75472622888853
v 1.1341223653437003 -11.345207872869931 27.77726644213985
v 1.0671946260845875 -11.307337355659689 27.790538188550507
v 0.9900371207940274 -11.295829736233511 27.792520977856775
v 0.9143963726751191 -11.31243696900959 27.78291293828116
v 0.851787989877996 -11.354630730253014 27.763176815952853
v 0.8117435574025919 -11.41598742957293 27.736317246239544
v 0.8003594454802294 -11.487166043817309 27.7064233630702
v 0.8193688076719373 -11.55733028150382 27.678046237072508
v 0.8658776160649925 -11.615798282473058 27.655506023821186
v 0.9328053553241055 -11.653668799683302 27.64223427741053
v 1.0099628606146653 -11.66517641910948 27.640251488104262
v 2.0099628792059727 -0.1846732347192006 -0.0761350025181784
v 2.085603627324881 -0.16806600194312082 -0.06652696294256444
v 2.148212010122004 -0.1258722406996986 -0.04679084061425698
v 2.188256442597408 -0.064515541379782 -0.01993127090094937
v 2.1996405545197706 0.006663072864597552 0.009962612268397564
v 2.180631192328063 0.07682731055110814 0.038339738266090606
v 2.1341223839350074 0.13529531152034746 0.06087995151741055
v 2.0671946446758946 0.17316582873059083 0.07415169792806608
v 1.9900371393853347 0.18467344815676867 0.07613448723433436
v 1.9143963912664264 0.1680662153806889 0.0665264476587204
v 1.8517880084693032 0.12587245413726666 0.04679032533041294
v 1.811743575993899 0.06451575481735006 0.019930755617105333
v 1.8003594640715366 -0.006662859427029488 -0.009963127552241602
v 1.8193688262632446 -0.07682709711354008 -0.038340253549934644
v 1.8658776346562997 -0.1352950980827794 -0.060880466801254585
v 1.9328053739154125 -0.17316561529302277 -0.07415221321191012
v 2.0099628792059727 -0.1846732347192006 -0.0761350025181784
v 0.9999999907043464 -11.480503077671496 27.71638623298052
v 0.9999999907043464 -11.480503077671496 27.71638623298052
v 0.9999999907043464 -11.480503077671496 27.71638623298052
v 0.9999999907043464 -11.480503077671496 27.71638623298052
v 0.9999999907043464 -11.480503077671496 27.71638623298052
v 0.9999999907043464 -11.480503077671496 27.71638623298052
v 0.9999999907043464 -11.480503077671496 27.71638623298052
v 0.9999999907043464 -11.480503077671496 27.71638623298052
v 0.9999999907043464 -11.480503077671496 27.71638623298052
v 0.9999999907043464 -11.480503077671496 27.71638623298052
v 0.9999999907043464 -11.480503077671496 27.71638623298052
v 0.9999999907043464 -11.480503077671496 27.71638623298052
v 0.9999999907043464 -11.480503077671496 27.71638623298052
v 0.9999999907043464 -11.480503077671496 27.71638623298052
v 0.9999999907043464 -11.480503077671496 27.71638623298052
v 0.9999999907043464 -11.480503077671496 27.71638623298052
v 1.0099628606146653 -11.66517641910948 27.640251488104262
v 1.0856036087335736 -11.6485691863334 27.649859527679876
v 1.1482119915306968 -11.606375425089979 27.669595650008183
v 1.188256424006101 -11.545018725770062 27.696455219721493
v 1.1996405359284634 -11.473840111525682 27.726349102890836
v 1.1806311737367554 -11.403675873839171 27.75472622888853
v 1.1341223653437003 -11.345207872869931 27.77726644213985
v 1.0671946260845875 -11.307337355659689 27.790538188550507
v 0.9900371207940274 -11.295829736233511 27.792520977856775
v 0.9143963726751191 -11.31243696900959 27.78291293828116
v 0.851787989877996 -11.354630730253014 27.763176815952853
v 0.8117435574025919 -11.41598742957293 27.736317246239544
v 0.8003594454802294 -11.487166043817309 27.7064233630702
v 0.8193688076719373 -11.55733028150382 27.678046237072508
v 0.8658776160649925 -11.615798282473058 27.655506023821186
v 0.9328053553241055 -11.653668799683302 27.64223427741053
v 1.0099628606146653 -11.66517641910948 27.640251488104262
v 2.0000000092956536 1.0671878403201163e-7 -2.5764192201904734e-7
v 2.0000000092956536 1.0671878403201163e-7 -2.5764192201904734e-7
v 2.0000000092956536 1.0671878403201163e-7 -2.5764192201904734e-7
v 2.0000000092956536 1.0671878403201163e-7 -2.5764192201904734e-7
v 2.0000000092956536 1.0671878403201163e-7 -2.5764192201904734e-7
v 2.0000000092956536 1.0671878403201163e-7 -2.5764192201904734e-7
v 2.0000000092956536 1.0671878403201163e-7 -2.5764192201904734e-7
v 2.0000000092956536 1.0671878403201163e-7 -2.5764192201904734e-7
v 2.0000000092956536 1.0671878403201163e-7 -2.5764192201904734e-7
v 2.0000000092956536 1.0671878403201163e-7 -2.5764192201904734e-7
v 2.0000000092956536 1.0671878403201163e-7 -2.5764192201904734e-7
v 2.0000000092956536 1.0671878403201163e-7 -2.5764192201904734e-7
v 2.0000000092956536 1.0671878403201163e-7 -2.5764192201904734e-7
v 2.0000000092956536 1.0671878403201163e-7 -2.5764192201904734e-7
v 2.0000000092956536 1.0671878403201163e-7 -2.5764192201904734e-7
v 2.0000000092956536 1.0671878403201163e-7 -2.5764192201904734e-7
v 2.0099628792059727 -0.1846732347192006 -0.0761350025181784
v 2.085603627324881 -0.16806600194312082 -0.06652696294256444
v 2.148212010122004 -0.1258722406996986 -0.04679084061425698
v 2.188256442597408 -0.064515541379782 -0.01993127090094937
v 2.1996405545197706 0.006663072864597552 0.009962612268397564
v 2.180631192328063 0.07682731055110814 0.038339738266090606
v 2.1341223839350074 0.13529531152034746 0.06087995151741055
v 2.0671946446758946 0.17316582873059083 0.07415169792806608
v 1.9900371393853347 0.18467344815676867 0.07613448723433436
v 1.9143963912664264 0.1680662153806889 0.0665264476587204
v 1.8517880084693032 0.12587245413726666 0.04679032533041294
v 1.811743575993899 0.06451575481735006 0.019930755617105333
v 1.8003594640715366 -0.006662859427029488 -0.009963127552241602
v 1.8193688262632446 -0.07682709711354008 -0.038340253549934644
v 1.8658776346562997 -0.1352950980827794 -0.060880466801254585
v 1.9328053739154125 -0.17316561529302277 -0.07415221321191012
v 2.0099628792059727 -0.1846732347192006 -0.0761350025181784
f 1 18 2
f 18 19 2
f 2 19 3
f 19 20 3
f 3 20 4
f 20 21 4
f 4 21 5
f 21 22 5
f 5 22 6
f 22 23 6
f 6 23 7
f 23 24 7
f 7 24 8
f 24 25 8
f 8 25 9
f 25 26 9
f 9 26 10
f 26 27 10
f 10 27 11
f 27 28 11
f 11 28 12
f 28 29 12
f 12 29 13
f 29 30 13
f 13 30 14
f 30 31 14
f 14 31 15
f 31 32 15
f 15 32 16
f 32 33 16
f 16 33 17
f 33 34 17
f 51 52 35
f 52 53 36
f 53 54 37
f 54 55 38
f 55 56 39
f 56 57 40
f 57 58 41
f 58 59 42
f 59 60 43
f 60 61 44
f 61 62 45
f 62 63 46
f 63 64 47
f 64 65 48
f 65 66 49
f 66 67 50
f 85 84 68
f 86 85 69
f 87 86 70
f 88 87 71
f 89 88 72
f 90 89 73
f 91 90 74
f 92 91 75
f 93 92 76
f 94 93 77
f 95 94 78
f 96 95 79
f 97 96 80
f 98 97 81
f 99 98 82
f 100 99 83
