o spoke_back_12
v -0.9972409973901039 21.354546489122654 -21.07173071625926
v -0.9209640999767874 21.341237594306506 -21.081443883648156
v -0.8567196914507147 21.308436699401433 -21.111216268091752
v -0.8142884258308484 21.26113742263732 -21.15651531581225
v -0.800130047916231 21.206540666641203 -21.21044463947277
v -0.8164000678277755 21.152958287202956 -21.264793995004986
v -0.8606214973359685 21.108547708789516 -21.31128919159702
v -0.9260620547335745 21.080070057917624 -21.342851739928946
v -1.002758984018589 21.07186077645138 -21.354676549314767
v -1.0790358814319057 21.08516967126753 -21.344963381925872
v -1.1432802899579784 21.117970566172602 -21.315190997482272
v -1.1857115555778448 21.16526984293671 -21.26989194976177
v -1.199869933492462 21.219866598932832 -21.215962626101255
v -1.1835999135809177 21.27344897837108 -21.161613270569042
v -1.1393784840727246 21.317859556784512 -21.115118073977005
v -1.0739379266751186 21.346337207656404 -21.08355552564508
v -0.9972409973901039 21.354546489122654 -21.07173071625926
v -1.997241015981411 0.14134265914504773 0.1414731137183427
v -1.9209641185680943 0.12803376432889912 0.13175994632944743
v -1.8567197100420216 0.09523286942382647 0.10198756188584923
v -1.8142884444221552 0.04793359265971553 0.0566885141653497
v -1.800130066507538 -0.006663163336403599 0.0027591905048325316
v -1.8164000864190823 -0.06024554277465022 -0.051590165027382895
v -1.8606215159272754 -0.10465612118808743 -0.09808536161941817
v -1.9260620733248814 -0.13313377205997945 -0.129647909951343
v -2.002759002609896 -0.14134305352622611 -0.14147271933716432
v -2.0790359000232126 -0.1280341587100775 -0.13175955194826905
v -2.1432803085492855 -0.09523326380500485 -0.10198716750467085
v -2.1857115741691517 -0.04793398704089391 -0.05668811978417132
v -2.199869952083769 0.006662768955225218 -0.0027587961236541503
v -2.1835999321722244 0.06024514839347184 0.051590559408561276
v -2.1393785026640315 0.10465572680690904 0.09808575600059655
v -2.0739379452664255 0.13313337767880107 0.1296483043325214
v -1.997241015981411 0.14134265914504773 0.1414731137183427
v -0.9999999907043465 21.213203632787014 -21.213203632787014
v -0.9999999907043465 21.213203632787014 -21.213203632787014
v -0.9999999907043465 21.213203632787014 -21.213203632787014
v -0.9999999907043465 21.213203632787014 -21.213203632787014
v -0.9999999907043465 21.213203632787014 -21.213203632787014
v -0.9999999907043465 21.213203632787014 -21.213203632787014
v -0.9999999907043465 21.213203632787014 -21.213203632787014
v -0.9999999907043465 21.213203632787014 -21.213203632787014
v -0.9999999907043465 21.213203632787014 -21.213203632787014
v -0.9999999907043465 21.213203632787014 -21.213203632787014
v -0.9999999907043465 21.213203632787014 -21.213203632787014
v -0.9999999907043465 21.213203632787014 -21.213203632787014
v -0.9999999907043465 21.213203632787014 -21.213203632787014
v -0.9999999907043465 21.213203632787014 -21.213203632787014
v -0.9999999907043465 21.213203632787014 -21.213203632787014
v -0.9999999907043465 21.213203632787014 -21.213203632787014
v -0.9972409973901039 21.354546489122654 -21.07173071625926
v -0.9209640999767874 21.341237594306506 -21.081443883648156
v -0.8567196914507147 21.308436699401433 -21.111216268091752
v -0.8142884258308484 21.26113742263732 -21.15651531581225
v -0.800130047916231 21.206540666641203 -21.21044463947277
v -0.8164000678277755 21.152958287202956 -21.264793995004986
v -0.8606214973359685 21.108547708789516 -21.31128919159702
v -0.9260620547335745 21.080070057917624 -21.342851739928946
v -1.002758984018589 21.07186077645138 -21.354676549314767
v -1.0790358814319057 21.08516967126753 -21.344963381925872
v -1.1432802899579784 21.117970566172602 -21.315190997482272
v -1.1857115555778448 21.16526984293671 -21.26989194976177
v -1.199869933492462 21.219866598932832 -21.215962626101255
v -1.1835999135809177 21.27344897837108 -21.161613270569042
v -1.1393784840727246 21.317859556784512 -21.115118073977005
v -1.0739379266751186 21.346337207656404 -21.08355552564508
v -0.9972409973901039 21.354546489122654 -21.07173071625926
v -2.0000000092956536 -1.9719058919065446e-7 1.9719058919065446e-7
v -2.0000000092956536 -1.9719058919065446e-7 1.9719058919065446e-7
v -2.0000000092956536 -1.9719058919065446e-7 1.9719058919065446e-7
v -2.0000000092956536 -1.9719058919065446e-7 1.9719058919065446e-7
v -2.0000000092956536 -1.9719058919065446e-7 1.9719058919065446e-7
v -2.0000000092956536 -1.9719058919065446e-7 1.9719058919065446e-7
v -2.0000000092956536 -1.9719058919065446e-7 1.9719058919065446e-7
v -2.0000000092956536 -1.9719058919065446e-7 1.9719058919065446e-7
v -2.0000000092956536 -1.9719058919065446e-7 1.9719058919065446e-7
v -2.0000000092956536 -1.9719058919065446e-7 1.9719058919065446e-7
v -2.0000000092956536 -1.9719058919065446e-7 1.9719058919065446e-7
v -2.0000000092956536 -1.9719058919065446e-7 1.9719058919065446e-7
v -2.0000000092956536 -1.9719058919065446e-7 1.9719058919065446e-7
v -2.0000000092956536 -1.9719058919065446e-7 1.9719058919065446e-7
v -2.0000000092956536 -1.9719058919065446e-7 1.9719058919065446e-7
v -2.0000000092956536 -1.9719058919065446e-7 1.9719058919065446e-7
v -1.997241015981411 0.14134265914504773 0.1414731137183427
v -1.9209641185680943 0.12803376432889912 0.13175994632944743
v -1.8567197100420216 0.09523286942382647 0.10198756188584923
v -1.8142884444221552 0.04793359265971553 0.0566885141653497
v -1.800130066507538 -0.006663163336403599 0.0027591905048325316
v -1.8164000864190823 -0.06024554277465022 -0.051590165027382895
v -1.8606215159272754 -0.10465612118808743 -0.09808536161941817
v -1.9260620733248814 -0.13313377205997945 -0.129647909951343
v -2.002759002609896 -0.14134305352622611 -0.14147271933716432
v -2.0790359000232126 -0.1280341587100775 -0.13175955194826905
v -2.1432803085492855 -0.09523326380500485 -0.10198716750467085
v -2.1857115741691517 -0.04793398704089391 -0.05668811978417132
v -2.199869952083769 0.006662768955225218 -0.0027587961236541503
v -2.1835999321722244 0.06024514839347184 0.051590559408561276
v -2.1393785026640315 0.10465572680690904 0.09808575600059655
v -2.0739379452664255 0.13313337767880107 0.1296483043325214
v -1.997241015981411 0.14134265914504773 0.1414731137183427
f 1 18 2
f 18 19 2
f 2 19 3
f 19 20 3
f 3 20 4
f 20 21 4
f 4 21 5
f 21 22 5
f 5 22 6
f 22 23 6
f 6 23 7
f 23 24 7
f 7 24 8
f 24 25 8
f 8 25 9
f 25 26 9
f 9 26 10
f 26 27 10
f 10 27 11
f 27 28 11
f 11 28 12
f 28 29 12
f 12 29 13
f 29 30 13
f 13 30 14
f 30 31 14
f 14 31 15
f 31 32 15
f 15 32 16
f 32 33 16
f 16 33 17
f 33 34 17
f 51 52 35
f 52 53 36
f 53 54 37
f 54 55 38
f 55 56 39
f 56 57 40
f 57 58 41
f 58 59 42
f 59 60 43
f 60 61 44
f 61 62 45
f 62 63 46
f 63 64 47
f 64 65 48
f 65 66 49
f 66 67 50
f 85 84 68
f 86 85 69
f 87 86 70
f 88 87 71
f 89 88 72
f 90 89 73
f 91 90 74
f 92 91 75
f 93 92 76
f 94 93 77
f 95 94 78
f 96 95 79
f 97 96 80
f 98 97 81
f 99 98 82
f 100 99 83
