o spoke_front_10
v 0.9986750268359471 27.792880435612894 -11.295714326318802
v 1.075268403508463 27.7896074657447 -11.310287579184843
v 1.1404028553607861 27.775187232762732 -11.350774585391019
v 1.1841622279653317 27.75181507395454 -11.41101159320845
v 1.1998845837698955 27.72304919912634 -11.48182804153987
v 1.185176311375567 27.693268947740272 -11.552442776061145
v 1.142276637291602 27.667008090581405 -11.612105351882736
v 1.0777166174351183 27.64826461356625 -11.651732659568331
v 1.001324954572746 27.639892030348157 -11.665291829024138
v 0.9247315779002301 27.64316500021635 -11.650718576158097
v 0.859597126047907 27.65758523319832 -11.610231569951921
v 0.8158377534433614 27.680957392006512 -11.54999456213449
v 0.8001153976387976 27.70972326683471 -11.47917811380307
v 0.8148236700331262 27.73950351822078 -11.408563379281794
v 0.8577233441170911 27.765764375379646 -11.348900803460204
v 0.9222833639735748 27.7845078523948 -11.309273495774608
v 0.9986750268359471 27.792880435612894 -11.295714326318802
v 1.998675045427254 0.07649394499044782 0.18478885807144607
v 2.0752684220997697 0.07322097512225412 0.17021560520540469
v 2.140402873952093 0.05880074214028319 0.12972859899922895
v 2.184162246556639 0.03542858333208976 0.06949159118179882
v 2.1998846023612026 0.0066627085038923894 -0.0013248571496218275
v 2.1851763299668736 -0.02311754288217749 -0.07193959167089847
v 2.1422766558829087 -0.04937840004104466 -0.13160216749248832
v 2.077716636026425 -0.06812187705619621 -0.17122947517808385
v 2.001324973164053 -0.07649446027429185 -0.18478864463389044
v 1.924731596491537 -0.07322149040609816 -0.17021539176784906
v 1.8595971446392139 -0.05880125742412723 -0.12972838556167332
v 1.8158377720346683 -0.035429098615933796 -0.06949137774424319
v 1.8001154162301045 -0.0066632237877364275 0.001325070587177457
v 1.814823688624433 0.02311702759833345 0.0719398051084541
v 1.857723362708398 0.04937788475720062 0.13160238093004395
v 1.9222833825648817 0.06812136177235217 0.17122968861563947
v 1.998675045427254 0.07649394499044782 0.18478885807144607
v 0.9999999907043465 27.716386232980526 -11.48050307767147
v 0.9999999907043465 27.716386232980526 -11.48050307767147
v 0.9999999907043465 27.716386232980526 -11.48050307767147
v 0.9999999907043465 27.716386232980526 -11.48050307767147
v 0.9999999907043465 27.716386232980526 -11.48050307767147
v 0.9999999907043465 27.716386232980526 -11.48050307767147
v 0.9999999907043465 27.716386232980526 -11.48050307767147
v 0.9999999907043465 27.716386232980526 -11.48050307767147
v 0.9999999907043465 27.716386232980526 -11.48050307767147
v 0.9999999907043465 27.716386232980526 -11.48050307767147
v 0.9999999907043465 27.716386232980526 -11.48050307767147
v 0.9999999907043465 27.716386232980526 -11.48050307767147
v 0.9999999907043465 27.716386232980526 -11.48050307767147
v 0.9999999907043465 27.716386232980526 -11.48050307767147
v 0.9999999907043465 27.716386232980526 -11.48050307767147
v 0.9999999907043465 27.716386232980526 -11.48050307767147
v 0.9986750268359471 27.792880435612894 -11.295714326318802
v 1.075268403508463 27.7896074657447 -11.310287579184843
v 1.1404028553607861 27.775187232762732 -11.350774585391019
v 1.1841622279653317 27.75181507395454 -11.41101159320845
v 1.1998845837698955 27.72304919912634 -11.48182804153987
v 1.185176311375567 27.693268947740272 -11.552442776061145
v 1.142276637291602 27.667008090581405 -11.612105351882736
v 1.0777166174351183 27.64826461356625 -11.651732659568331
v 1.001324954572746 27.639892030348157 -11.665291829024138
v 0.9247315779002301 27.64316500021635 -11.650718576158097
v 0.859597126047907 27.65758523319832 -11.610231569951921
v 0.8158377534433614 27.680957392006512 -11.54999456213449
v 0.8001153976387976 27.70972326683471 -11.47917811380307
v 0.8148236700331262 27.73950351822078 -11.408563379281794
v 0.8577233441170911 27.765764375379646 -11.348900803460204
v 0.9222833639735748 27.7845078523948 -11.309273495774608
v 0.9986750268359471 27.792880435612894 -11.295714326318802
v 2.0000000092956536 -2.5764192201904734e-7 1.0671877781476269e-7
v 2.0000000092956536 -2.5764192201904734e-7 1.0671877781476269e-7
v 2.0000000092956536 -2.5764192201904734e-7 1.0671877781476269e-7
v 2.0000000092956536 -2.5764192201904734e-7 1.0671877781476269e-7
v 2.0000000092956536 -2.5764192201904734e-7 1.0671877781476269e-7
v 2.0000000092956536 -2.5764192201904734e-7 1.0671877781476269e-7
v 2.0000000092956536 -2.5764192201904734e-7 1.0671877781476269e-7
v 2.0000000092956536 -2.5764192201904734e-7 1.0671877781476269e-7
v 2.0000000092956536 -2.5764192201904734e-7 1.0671877781476269e-7
v 2.0000000092956536 -2.5764192201904734e-7 1.0671877781476269e-7
v 2.0000000092956536 -2.5764192201904734e-7 1.0671877781476269e-7
v 2.0000000092956536 -2.5764192201904734e-7 1.0671877781476269e-7
v 2.0000000092956536 -2.5764192201904734e-7 1.0671877781476269e-7
v 2.0000000092956536 -2.5764192201904734e-7 1.0671877781476269e-7
v 2.0000000092956536 -2.5764192201904734e-7 1.0671877781476269e-7
v 2.0000000092956536 -2.5764192201904734e-7 1.0671877781476269e-7
v 1.998675045427254 0.07649394499044782 0.18478885807144607
v 2.0752684220997697 0.07322097512225412 0.17021560520540469
v 2.140402873952093 0.05880074214028319 0.12972859899922895
v 2.184162246556639 0.03542858333208976 0.06949159118179882
v 2.1998846023612026 0.0066627085038923894 -0.0013248571496218275
v 2.1851763299668736 -0.02311754288217749 -0.07193959167089847
v 2.1422766558829087 -0.04937840004104466 -0.13160216749248832
v 2.077716636026425 -0.06812187705619621 -0.17122947517808385
v 2.001324973164053 -0.07649446027429185 -0.18478864463389044
v 1.924731596491537 -0.07322149040609816 -0.17021539176784906
v 1.8595971446392139 -0.05880125742412723 -0.12972838556167332
v 1.8158377720346683 -0.035429098615933796 -0.06949137774424319
v 1.8001154162301045 -0.0066632237877364275 0.001325070587177457
v 1.814823688624433 0.02311702759833345 0.0719398051084541
v 1.857723362708398 0.04937788475720062 0.13160238093004395
v 1.9222833825648817 0.06812136177235217 0.17122968861563947
v 1.998675045427254 0.07649394499044782 0.18478885807144607
f 1 18 2
f 18 19 2
f 2 19 3
f 19 20 3
f 3 20 4
f 20 21 4
f 4 21 5
f 21 22 5
f 5 22 6
f 22 23 6
f 6 23 7
f 23 24 7
f 7 24 8
f 24 25 8
f 8 25 9
f 25 26 9
f 9 26 10
f 26 27 10
f 10 27 11
f 27 28 11
f 11 28 12
f 28 29 12
f 12 29 13
f 29 30 13
f 13 30 14
f 30 31 14
f 14 31 15
f 31 32 15
f 15 32 16
f 32 33 16
f 16 33 17
f 33 34 17
f 51 52 35
f 52 53 36
f 53 54 37
f 54 55 38
f 55 56 39
f 56 57 40
f 57 58 41
f 58 59 42
f 59 60 43
f 60 61 44
f 61 62 45
f 62 63 46
f 63 64 47
f 64 65 48
f 65 66 49
f 66 67 50
f 85 84 68
f 86 85 69
f 87 86 70
f 88 87 71
f 89 88 72
f 90 89 73
f 91 90 74
f 92 91 75
f 93 92 76
f 94 93 77
f 95 94 78
f 96 95 79
f 97 96 80
f 98 97 81
f 99 98 82
f 100 99 83
