o spoke_back_3
v -1.0035601491875623 16.50090552917838 25.05528369611494
v -0.9268070816322428 16.511007071752942 25.045457056841187
v -0.861196962431158 16.544873423201786 25.020197996944617
v -0.8167183617103467 16.597348764628794 24.98335196284414
v -0.8001427132641515 16.660444179373904 24.940528442464746
v -0.8139935344590207 16.724553970676887 24.898246924134988
v -0.8561621378628856 16.779918010454566 24.862944380383034
v -0.9202287667154455 16.818107605936593 24.839995317803407
v -0.9964398322211305 16.83330876186106 24.832893505780984
v -1.07319289977645 16.823207219286495 24.842720145054734
v -1.1388030189775349 16.78934086783765 24.867979204951308
v -1.183281619698346 16.736865526410643 24.90482523905179
v -1.1998572681445414 16.673770111665533 24.94764875943118
v -1.1860064469496723 16.60966032036255 24.989930277760934
v -1.1438378435458072 16.55429628058487 25.02523282151289
v -1.0797712146932472 16.516106685102844 25.048181884092514
v -1.0035601491875623 16.50090552917838 25.05528369611494
v -2.0035601677788692 -0.1662017712729913 0.11119486329537409
v -1.92680710022355 -0.15610022869842766 0.1013682240216216
v -1.8611969810224651 -0.12223387724958279 0.0761091641250502
v -1.816718380301654 -0.06975853582257585 0.039263130024570714
v -1.8001427318554586 -0.006663121077465917 -0.003560390354820697
v -1.8139935530503277 0.05744667022551653 -0.045841908684577604
v -1.8561621564541928 0.1128107100031972 -0.08114445243653279
v -1.9202287853067528 0.1510003054852227 -0.10409351501615838
v -1.9964398508124377 0.16620146140968828 -0.11119532703858326
v -2.073192918367757 0.15609991883512464 -0.10136868776483077
v -2.138803037568842 0.12223356738627977 -0.07610962786825937
v -2.183281638289653 0.06975822595927283 -0.03926359376777988
v -2.1998572867358486 0.0066628112141629 0.0035599266116115302
v -2.1860064655409794 -0.057446980088819544 0.04584144494136844
v -2.143837862137114 -0.11281101986650022 0.08114398869332362
v -2.0797712332845544 -0.1510006153485257 0.10409305127294921
v -2.0035601677788692 -0.1662017712729913 0.11119486329537409
v -0.9999999907043464 16.66710714551972 24.944088600947964
v -0.9999999907043464 16.66710714551972 24.944088600947964
v -0.9999999907043464 16.66710714551972 24.944088600947964
v -0.9999999907043464 16.66710714551972 24.944088600947964
v -0.9999999907043464 16.66710714551972 24.944088600947964
v -0.9999999907043464 16.66710714551972 24.944088600947964
v -0.9999999907043464 16.66710714551972 24.944088600947964
v -0.9999999907043464 16.66710714551972 24.944088600947964
v -0.9999999907043464 16.66710714551972 24.944088600947964
v -0.9999999907043464 16.66710714551972 24.944088600947964
v -0.9999999907043464 16.66710714551972 24.944088600947964
v -0.9999999907043464 16.66710714551972 24.944088600947964
v -0.9999999907043464 16.66710714551972 24.944088600947964
v -0.9999999907043464 16.66710714551972 24.944088600947964
v -0.9999999907043464 16.66710714551972 24.944088600947964
v -0.9999999907043464 16.66710714551972 24.944088600947964
v -1.0035601491875623 16.50090552917838 25.05528369611494
v -0.9268070816322428 16.511007071752942 25.045457056841187
v -0.861196962431158 16.544873423201786 25.020197996944617
v -0.8167183617103467 16.597348764628794 24.98335196284414
v -0.8001427132641515 16.660444179373904 24.940528442464746
v -0.8139935344590207 16.724553970676887 24.898246924134988
v -0.8561621378628856 16.779918010454566 24.862944380383034
v -0.9202287667154455 16.818107605936593 24.839995317803407
v -0.9964398322211305 16.83330876186106 24.832893505780984
v -1.07319289977645 16.823207219286495 24.842720145054734
v -1.1388030189775349 16.78934086783765 24.867979204951308
v -1.183281619698346 16.736865526410643 24.90482523905179
v -1.1998572681445414 16.673770111665533 24.94764875943118
v -1.1860064469496723 16.60966032036255 24.989930277760934
v -1.1438378435458072 16.55429628058487 25.02523282151289
v -1.0797712146932472 16.516106685102844 25.048181884092514
v -1.0035601491875623 16.50090552917838 25.05528369611494
v -2.0000000092956536 -1.5493165150815003e-7 -2.31871604583489e-7
v -2.0000000092956536 -1.5493165150815003e-7 -2.31871604583489e-7
v -2.0000000092956536 -1.5493165150815003e-7 -2.31871604583489e-7
v -2.0000000092956536 -1.5493165150815003e-7 -2.31871604583489e-7
v -2.0000000092956536 -1.5493165150815003e-7 -2.31871604583489e-7
v -2.0000000092956536 -1.5493165150815003e-7 -2.31871604583489e-7
v -2.0000000092956536 -1.5493165150815003e-7 -2.31871604583489e-7
v -2.0000000092956536 -1.5493165150815003e-7 -2.31871604583489e-7
v -2.0000000092956536 -1.5493165150815003e-7 -2.31871604583489e-7
v -2.0000000092956536 -1.5493165150815003e-7 -2.31871604583489e-7
v -2.0000000092956536 -1.5493165150815003e-7 -2.31871604583489e-7
v -2.0000000092956536 -1.5493165150815003e-7 -2.31871604583489e-7
v -2.0000000092956536 -1.5493165150815003e-7 -2.31871604583489e-7
v -2.0000000092956536 -1.5493165150815003e-7 -2.31871604583489e-7
v -2.0000000092956536 -1.5493165150815003e-7 -2.31871604583489e-7
v -2.0000000092956536 -1.5493165150815003e-7 -2.31871604583489e-7
v -2.0035601677788692 -0.1662017712729913 0.11119486329537409
v -1.92680710022355 -0.15610022869842766 0.1013682240216216
v -1.8611969810224651 -0.12223387724958279 0.0761091641250502
v -1.816718380301654 -0.06975853582257585 0.039263130024570714
v -1.8001427318554586 -0.006663121077465917 -0.003560390354820697
v -1.8139935530503277 0.05744667022551653 -0.045841908684577604
v -1.8561621564541928 0.1128107100031972 -0.08114445243653279
v -1.9202287853067528 0.1510003054852227 -0.10409351501615838
v -1.9964398508124377 0.16620146140968828 -0.11119532703858326
v -2.073192918367757 0.15609991883512464 -0.10136868776483077
v -2.138803037568842 0.12223356738627977 -0.07610962786825937
v -2.183281638289653 0.06975822595927283 -0.03926359376777988
v -2.1998572867358486 0.0066628112141629 0.0035599266116115302
v -2.1860064655409794 -0.057446980088819544 0.04584144494136844
v -2.143837862137114 -0.11281101986650022 0.08114398869332362
v -2.0797712332845544 -0.1510006153485257 0.10409305127294921
v -2.0035601677788692 -0.1662017712729913 0.11119486329537409
f 1 18 2
f 18 19 2
f 2 19 3
f 19 20 3
f 3 20 4
f 20 21 4
f 4 21 5
f 21 22 5
f 5 22 6
f 22 23 6
f 6 23 7
f 23 24 7
f 7 24 8
f 24 25 8
f 8 25 9
f 25 26 9
f 9 26 10
f 26 27 10
f 10 27 11
f 27 28 11
f 11 28 12
f 28 29 12
f 12 29 13
f 29 30 13
f 13 30 14
f 30 31 14
f 14 31 15
f 31 32 15
f 15 32 16
f 32 33 16
f 16 33 17
f 33 34 17
f 51 52 35
f 52 53 36
f 53 54 37
f 54 55 38
f 55 56 39
f 56 57 40
f 57 58 41
f 58 59 42
f 59 60 43
f 60 61 44
f 61 62 45
f 62 63 46
f 63 64 47
f 64 65 48
f 65 66 49
f 66 67 50
f 85 84 68
f 86 85 69
f 87 86 70
f 88 87 71
f 89 88 72
f 90 89 73
f 91 90 74
f 92 91 75
f 93 92 76
f 94 93 77
f 95 94 78
f 96 95 79
f 97 96 80
f 98 97 81
f 99 98 82
f 100 99 83
