# support_leg_back_left
# Vertices: 192
v -0.024899 34.773296 -1.733198
v -7.524899 1.773294 -11.733198
v 0.275997 34.725487 -1.801096
v -7.524899 1.773294 -11.733198
v -7.224003 1.725484 -11.801096
v 0.275997 34.725487 -1.801096
v 0.275997 34.725487 -1.801096
v -7.224003 1.725484 -11.801096
v 0.534875 34.719467 -1.975395
v -7.224003 1.725484 -11.801096
v -6.965126 1.719466 -11.975395
v 0.534875 34.719467 -1.975395
v 0.534875 34.719467 -1.975395
v -6.965126 1.719466 -11.975395
v 0.712323 34.756157 -2.229561
v -6.965126 1.719466 -11.975395
v -6.787677 1.756157 -12.229562
v 0.712323 34.756157 -2.229561
v 0.712323 34.756157 -2.229561
v -6.787677 1.756157 -12.229562
v 0.781326 34.829971 -2.524899
v -6.787677 1.756157 -12.229562
v -6.718674 1.829970 -12.524899
v 0.781326 34.829971 -2.524899
v 0.781326 34.829971 -2.524899
v -6.718674 1.829970 -12.524899
v 0.731380 34.929672 -2.816446
v -6.718674 1.829970 -12.524899
v -6.768621 1.929669 -12.816446
v 0.731380 34.929672 -2.816446
v 0.731380 34.929672 -2.816446
v -6.768621 1.929669 -12.816446
v 0.570087 35.040077 -3.059817
v -6.768621 1.929669 -12.816446
v -6.929913 2.040076 -13.059817
v 0.570087 35.040077 -3.059817
v 0.570087 35.040077 -3.059817
v -6.929913 2.040076 -13.059817
v 0.322004 35.144382 -3.217961
v -6.929913 2.040076 -13.059817
v -7.177996 2.144381 -13.217961
v 0.322004 35.144382 -3.217961
v 0.322004 35.144382 -3.217961
v -7.177996 2.144381 -13.217961
v 0.024899 35.226707 -3.266801
v -7.177996 2.144381 -13.217961
v -7.475101 2.226705 -13.266802
v 0.024899 35.226707 -3.266801
v 0.024899 35.226707 -3.266801
v -7.475101 2.226705 -13.266802
v -0.275997 35.274517 -3.198904
v -7.475101 2.226705 -13.266802
v -7.775997 2.274515 -13.198904
v -0.275997 35.274517 -3.198904
v -0.275997 35.274517 -3.198904
v -7.775997 2.274515 -13.198904
v -0.534875 35.280533 -3.024604
v -7.775997 2.274515 -13.198904
v -8.034875 2.280533 -13.024605
v -0.534875 35.280533 -3.024604
v -0.534875 35.280533 -3.024604
v -8.034875 2.280533 -13.024605
v -0.712323 35.243843 -2.770439
v -8.034875 2.280533 -13.024605
v -8.212323 2.243842 -12.770439
v -0.712323 35.243843 -2.770439
v -0.712323 35.243843 -2.770439
v -8.212323 2.243842 -12.770439
v -0.781326 35.170029 -2.475101
v -8.212323 2.243842 -12.770439
v -8.281326 2.170028 -12.475101
v -0.781326 35.170029 -2.475101
v -0.781326 35.170029 -2.475101
v -8.281326 2.170028 -12.475101
v -0.731379 35.070332 -2.183554
v -8.281326 2.170028 -12.475101
v -8.231380 2.070329 -12.183555
v -0.731379 35.070332 -2.183554
v -0.731379 35.070332 -2.183554
v -8.231380 2.070329 -12.183555
v -0.570087 34.959923 -1.940183
v -8.231380 2.070329 -12.183555
v -8.070087 1.959923 -11.940184
v -0.570087 34.959923 -1.940183
v -0.570087 34.959923 -1.940183
v -8.070087 1.959923 -11.940184
v -0.322004 34.855621 -1.782039
v -8.070087 1.959923 -11.940184
v -7.822004 1.855618 -11.782040
v -0.322004 34.855621 -1.782039
v -0.322004 34.855621 -1.782039
v -7.822004 1.855618 -11.782040
v -0.024899 34.773296 -1.733198
v -7.822004 1.855618 -11.782040
v -7.524899 1.773294 -11.733198
v -0.024899 34.773296 -1.733198
v -0.024899 34.773296 -1.733198
v 0.275997 34.725487 -1.801096
v 0.000000 35.000000 -2.500000
v 0.275997 34.725487 -1.801096
v 0.534875 34.719467 -1.975395
v 0.000000 35.000000 -2.500000
v 0.534875 34.719467 -1.975395
v 0.712323 34.756157 -2.229561
v 0.000000 35.000000 -2.500000
v 0.712323 34.756157 -2.229561
v 0.781326 34.829971 -2.524899
v 0.000000 35.000000 -2.500000
v 0.781326 34.829971 -2.524899
v 0.731380 34.929672 -2.816446
v 0.000000 35.000000 -2.500000
v 0.731380 34.929672 -2.816446
v 0.570087 35.040077 -3.059817
v 0.000000 35.000000 -2.500000
v 0.570087 35.040077 -3.059817
v 0.322004 35.144382 -3.217961
v 0.000000 35.000000 -2.500000
v 0.322004 35.144382 -3.217961
v 0.024899 35.226707 -3.266801
v 0.000000 35.000000 -2.500000
v 0.024899 35.226707 -3.266801
v -0.275997 35.274517 -3.198904
v 0.000000 35.000000 -2.500000
v -0.275997 35.274517 -3.198904
v -0.534875 35.280533 -3.024604
v 0.000000 35.000000 -2.500000
v -0.534875 35.280533 -3.024604
v -0.712323 35.243843 -2.770439
v 0.000000 35.000000 -2.500000
v -0.712323 35.243843 -2.770439
v -0.781326 35.170029 -2.475101
v 0.000000 35.000000 -2.500000
v -0.781326 35.170029 -2.475101
v -0.731379 35.070332 -2.183554
v 0.000000 35.000000 -2.500000
v -0.731379 35.070332 -2.183554
v -0.570087 34.959923 -1.940183
v 0.000000 35.000000 -2.500000
v -0.570087 34.959923 -1.940183
v -0.322004 34.855621 -1.782039
v 0.000000 35.000000 -2.500000
v -0.322004 34.855621 -1.782039
v -0.024899 34.773296 -1.733198
v 0.000000 35.000000 -2.500000
v -7.224003 1.725484 -11.801096
v -7.524899 1.773294 -11.733198
v -7.500000 1.999999 -12.500000
v -6.965126 1.719466 -11.975395
v -7.224003 1.725484 -11.801096
v -7.500000 1.999999 -12.500000
v -6.787677 1.756157 -12.229562
v -6.965126 1.719466 -11.975395
v -7.500000 1.999999 -12.500000
v -6.718674 1.829970 -12.524899
v -6.787677 1.756157 -12.229562
v -7.500000 1.999999 -12.500000
v -6.768621 1.929669 -12.816446
v -6.718674 1.829970 -12.524899
v -7.500000 1.999999 -12.500000
v -6.929913 2.040076 -13.059817
v -6.768621 1.929669 -12.816446
v -7.500000 1.999999 -12.500000
v -7.177996 2.144381 -13.217961
v -6.929913 2.040076 -13.059817
v -7.500000 1.999999 -12.500000
v -7.475101 2.226705 -13.266802
v -7.177996 2.144381 -13.217961
v -7.500000 1.999999 -12.500000
v -7.775997 2.274515 -13.198904
v -7.475101 2.226705 -13.266802
v -7.500000 1.999999 -12.500000
v -8.034875 2.280533 -13.024605
v -7.775997 2.274515 -13.198904
v -7.500000 1.999999 -12.500000
v -8.212323 2.243842 -12.770439
v -8.034875 2.280533 -13.024605
v -7.500000 1.999999 -12.500000
v -8.281326 2.170028 -12.475101
v -8.212323 2.243842 -12.770439
v -7.500000 1.999999 -12.500000
v -8.231380 2.070329 -12.183555
v -8.281326 2.170028 -12.475101
v -7.500000 1.999999 -12.500000
v -8.070087 1.959923 -11.940184
v -8.231380 2.070329 -12.183555
v -7.500000 1.999999 -12.500000
v -7.822004 1.855618 -11.782040
v -8.070087 1.959923 -11.940184
v -7.500000 1.999999 -12.500000
v -7.524899 1.773294 -11.733198
v -7.822004 1.855618 -11.782040
v -7.500000 1.999999 -12.500000
vn -0.031123 -0.283382 0.958502
vn -0.031123 -0.283382 0.958502
vn 0.344996 -0.343145 0.873630
vn -0.031123 -0.283382 0.958502
vn 0.344996 -0.343145 0.873630
vn 0.344996 -0.343145 0.873630
vn 0.344996 -0.343145 0.873630
vn 0.344996 -0.343145 0.873630
vn 0.668593 -0.350667 0.655756
vn 0.344996 -0.343145 0.873630
vn 0.668593 -0.350667 0.655756
vn 0.668593 -0.350667 0.655756
vn 0.668593 -0.350667 0.655756
vn 0.668593 -0.350667 0.655756
vn 0.890403 -0.304803 0.338049
vn 0.668593 -0.350667 0.655756
vn 0.890403 -0.304803 0.338049
vn 0.890403 -0.304803 0.338049
vn 0.890403 -0.304803 0.338049
vn 0.890403 -0.304803 0.338049
vn 0.976657 -0.212536 -0.031123
vn 0.890403 -0.304803 0.338049
vn 0.976657 -0.212536 -0.031123
vn 0.976657 -0.212536 -0.031123
vn 0.976657 -0.212536 -0.031123
vn 0.976657 -0.212536 -0.031123
vn 0.914224 -0.087912 -0.395557
vn 0.976657 -0.212536 -0.031123
vn 0.914224 -0.087912 -0.395557
vn 0.914224 -0.087912 -0.395557
vn 0.914224 -0.087912 -0.395557
vn 0.914224 -0.087912 -0.395557
vn 0.712609 0.050095 -0.699771
vn 0.914224 -0.087912 -0.395557
vn 0.712609 0.050095 -0.699771
vn 0.712609 0.050095 -0.699771
vn 0.712609 0.050095 -0.699771
vn 0.712609 0.050095 -0.699771
vn 0.402505 0.180476 -0.897451
vn 0.712609 0.050095 -0.699771
vn 0.402505 0.180476 -0.897451
vn 0.402505 0.180476 -0.897451
vn 0.402505 0.180476 -0.897451
vn 0.402505 0.180476 -0.897451
vn 0.031123 0.283382 -0.958502
vn 0.402505 0.180476 -0.897451
vn 0.031123 0.283382 -0.958502
vn 0.031123 0.283382 -0.958502
vn 0.031123 0.283382 -0.958502
vn 0.031123 0.283382 -0.958502
vn -0.344996 0.343145 -0.873630
vn 0.031123 0.283382 -0.958502
vn -0.344996 0.343145 -0.873630
vn -0.344996 0.343145 -0.873630
vn -0.344996 0.343145 -0.873630
vn -0.344996 0.343145 -0.873630
vn -0.668593 0.350667 -0.655756
vn -0.344996 0.343145 -0.873630
vn -0.668593 0.350667 -0.655756
vn -0.668593 0.350667 -0.655756
vn -0.668593 0.350667 -0.655756
vn -0.668593 0.350667 -0.655756
vn -0.890403 0.304803 -0.338049
vn -0.668593 0.350667 -0.655756
vn -0.890403 0.304803 -0.338049
vn -0.890403 0.304803 -0.338049
vn -0.890403 0.304803 -0.338049
vn -0.890403 0.304803 -0.338049
vn -0.976657 0.212536 0.031123
vn -0.890403 0.304803 -0.338049
vn -0.976657 0.212536 0.031123
vn -0.976657 0.212536 0.031123
vn -0.976657 0.212536 0.031123
vn -0.976657 0.212536 0.031123
vn -0.914224 0.087912 0.395557
vn -0.976657 0.212536 0.031123
vn -0.914224 0.087912 0.395557
vn -0.914224 0.087912 0.395557
vn -0.914224 0.087912 0.395557
vn -0.914224 0.087912 0.395557
vn -0.712609 -0.050095 0.699771
vn -0.914224 0.087912 0.395557
vn -0.712609 -0.050095 0.699771
vn -0.712609 -0.050095 0.699771
vn -0.712609 -0.050095 0.699771
vn -0.712609 -0.050095 0.699771
vn -0.402505 -0.180476 0.897451
vn -0.712609 -0.050095 0.699771
vn -0.402505 -0.180476 0.897451
vn -0.402505 -0.180476 0.897451
vn -0.402505 -0.180476 0.897451
vn -0.402505 -0.180476 0.897451
vn -0.031123 -0.283382 0.958502
vn -0.402505 -0.180476 0.897451
vn -0.031123 -0.283382 0.958502
vn -0.031123 -0.283382 0.958502
vn 0.212536 0.935159 0.283382
vn 0.212536 0.935159 0.283382
vn 0.212536 0.935159 0.283382
vn 0.212536 0.935159 0.283382
vn 0.212536 0.935159 0.283382
vn 0.212536 0.935159 0.283382
vn 0.212536 0.935159 0.283382
vn 0.212536 0.935159 0.283382
vn 0.212536 0.935159 0.283382
vn 0.212536 0.935159 0.283382
vn 0.212536 0.935159 0.283382
vn 0.212536 0.935159 0.283382
vn 0.212536 0.935159 0.283382
vn 0.212536 0.935159 0.283382
vn 0.212536 0.935159 0.283382
vn 0.212536 0.935159 0.283382
vn 0.212536 0.935159 0.283382
vn 0.212536 0.935159 0.283382
vn 0.212536 0.935159 0.283382
vn 0.212536 0.935159 0.283382
vn 0.212536 0.935159 0.283382
vn 0.212536 0.935159 0.283382
vn 0.212536 0.935159 0.283382
vn 0.212536 0.935159 0.283382
vn 0.212536 0.935159 0.283382
vn 0.212536 0.935159 0.283382
vn 0.212536 0.935159 0.283382
vn 0.212536 0.935159 0.283382
vn 0.212536 0.935159 0.283382
vn 0.212536 0.935159 0.283382
vn 0.212536 0.935159 0.283382
vn 0.212536 0.935159 0.283382
vn 0.212536 0.935159 0.283382
vn 0.212536 0.935159 0.283382
vn 0.212536 0.935159 0.283382
vn 0.212536 0.935159 0.283382
vn 0.212536 0.935159 0.283382
vn 0.212536 0.935159 0.283382
vn 0.212536 0.935159 0.283382
vn 0.212536 0.935159 0.283382
vn 0.212536 0.935159 0.283382
vn 0.212536 0.935159 0.283382
vn 0.212536 0.935159 0.283382
vn 0.212536 0.935159 0.283382
vn 0.212536 0.935159 0.283382
vn 0.212536 0.935159 0.283382
vn 0.212536 0.935159 0.283382
vn 0.212536 0.935159 0.283382
vn -0.212536 -0.935159 -0.283382
vn -0.212536 -0.935159 -0.283382
vn -0.212536 -0.935159 -0.283382
vn -0.212536 -0.935159 -0.283382
vn -0.212536 -0.935159 -0.283382
vn -0.212536 -0.935159 -0.283382
vn -0.212536 -0.935159 -0.283382
vn -0.212536 -0.935159 -0.283382
vn -0.212536 -0.935159 -0.283382
vn -0.212536 -0.935159 -0.283382
vn -0.212536 -0.935159 -0.283382
vn -0.212536 -0.935159 -0.283382
vn -0.212536 -0.935159 -0.283382
vn -0.212536 -0.935159 -0.283382
vn -0.212536 -0.935159 -0.283382
vn -0.212536 -0.935159 -0.283382
vn -0.212536 -0.935159 -0.283382
vn -0.212536 -0.935159 -0.283382
vn -0.212536 -0.935159 -0.283382
vn -0.212536 -0.935159 -0.283382
vn -0.212536 -0.935159 -0.283382
vn -0.212536 -0.935159 -0.283382
vn -0.212536 -0.935159 -0.283382
vn -0.212536 -0.935159 -0.283382
vn -0.212536 -0.935159 -0.283382
vn -0.212536 -0.935159 -0.283382
vn -0.212536 -0.935159 -0.283382
vn -0.212536 -0.935159 -0.283382
vn -0.212536 -0.935159 -0.283382
vn -0.212536 -0.935159 -0.283382
vn -0.212536 -0.935159 -0.283382
vn -0.212536 -0.935159 -0.283382
vn -0.212536 -0.935159 -0.283382
vn -0.212536 -0.935159 -0.283382
vn -0.212536 -0.935159 -0.283382
vn -0.212536 -0.935159 -0.283382
vn -0.212536 -0.935159 -0.283382
vn -0.212536 -0.935159 -0.283382
vn -0.212536 -0.935159 -0.283382
vn -0.212536 -0.935159 -0.283382
vn -0.212536 -0.935159 -0.283382
vn -0.212536 -0.935159 -0.283382
vn -0.212536 -0.935159 -0.283382
vn -0.212536 -0.935159 -0.283382
vn -0.212536 -0.935159 -0.283382
vn -0.212536 -0.935159 -0.283382
vn -0.212536 -0.935159 -0.283382
vn -0.212536 -0.935159 -0.283382
f 1//1 2//2 3//3
f 4//4 5//5 6//6
f 7//7 8//8 9//9
f 10//10 11//11 12//12
f 13//13 14//14 15//15
f 16//16 17//17 18//18
f 19//19 20//20 21//21
f 22//22 23//23 24//24
f 25//25 26//26 27//27
f 28//28 29//29 30//30
f 31//31 32//32 33//33
f 34//34 35//35 36//36
f 37//37 38//38 39//39
f 40//40 41//41 42//42
f 43//43 44//44 45//45
f 46//46 47//47 48//48
f 49//49 50//50 51//51
f 52//52 53//53 54//54
f 55//55 56//56 57//57
f 58//58 59//59 60//60
f 61//61 62//62 63//63
f 64//64 65//65 66//66
f 67//67 68//68 69//69
f 70//70 71//71 72//72
f 73//73 74//74 75//75
f 76//76 77//77 78//78
f 79//79 80//80 81//81
f 82//82 83//83 84//84
f 85//85 86//86 87//87
f 88//88 89//89 90//90
f 91//91 92//92 93//93
f 94//94 95//95 96//96
f 97//97 98//98 99//99
f 100//100 101//101 102//102
f 103//103 104//104 105//105
f 106//106 107//107 108//108
f 109//109 110//110 111//111
f 112//112 113//113 114//114
f 115//115 116//116 117//117
f 118//118 119//119 120//120
f 121//121 122//122 123//123
f 124//124 125//125 126//126
f 127//127 128//128 129//129
f 130//130 131//131 132//132
f 133//133 134//134 135//135
f 136//136 137//137 138//138
f 139//139 140//140 141//141
f 142//142 143//143 144//144
f 145//145 146//146 147//147
f 148//148 149//149 150//150
f 151//151 152//152 153//153
f 154//154 155//155 156//156
f 157//157 158//158 159//159
f 160//160 161//161 162//162
f 163//163 164//164 165//165
f 166//166 167//167 168//168
f 169//169 170//170 171//171
f 172//172 173//173 174//174
f 175//175 176//176 177//177
f 178//178 179//179 180//180
f 181//181 182//182 183//183
f 184//184 185//185 186//186
f 187//187 188//188 189//189
f 190//190 191//191 192//192
