o 
v 0 33.5 30.100000381469727
v -0.03826834261417389 33.5 30.092388153076172
v -0.0707106813788414 33.5 30.070711135864258
v -0.09238795191049576 33.5 30.03826904296875
v -0.10000000149011612 33.5 30
v -0.09238795191049576 33.5 29.96173095703125
v -0.0707106813788414 33.5 29.929288864135742
v -0.03826834261417389 33.5 29.907611846923828
v -1.2246467698671066e-17 33.5 29.899999618530273
v 0.03826834261417389 33.5 29.907611846923828
v 0.0707106813788414 33.5 29.929288864135742
v 0.09238795191049576 33.5 29.96173095703125
v 0.10000000149011612 33.5 30
v 0.09238795191049576 33.5 30.03826904296875
v 0.0707106813788414 33.5 30.070711135864258
v 0.03826834261417389 33.5 30.092388153076172
v 2.4492935397342132e-17 33.5 30.100000381469727
v 0 35 30.100000381469727
v -0.03826834261417389 35 30.092388153076172
v -0.0707106813788414 35 30.070711135864258
v -0.09238795191049576 35 30.03826904296875
v -0.10000000149011612 35 30
v -0.09238795191049576 35 29.96173095703125
v -0.0707106813788414 35 29.929288864135742
v -0.03826834261417389 35 29.907611846923828
v -1.2246467698671066e-17 35 29.899999618530273
v 0.03826834261417389 35 29.907611846923828
v 0.0707106813788414 35 29.929288864135742
v 0.09238795191049576 35 29.96173095703125
v 0.10000000149011612 35 30
v 0.09238795191049576 35 30.03826904296875
v 0.0707106813788414 35 30.070711135864258
v 0.03826834261417389 35 30.092388153076172
v 2.4492935397342132e-17 35 30.100000381469727
v 0 33.5 30
v 0 33.5 30
v 0 33.5 30
v 0 33.5 30
v 0 33.5 30
v 0 33.5 30
v 0 33.5 30
v 0 33.5 30
v 0 33.5 30
v 0 33.5 30
v 0 33.5 30
v 0 33.5 30
v 0 33.5 30
v 0 33.5 30
v 0 33.5 30
v 0 33.5 30
v 0 33.5 30.100000381469727
v -0.03826834261417389 33.5 30.092388153076172
v -0.0707106813788414 33.5 30.070711135864258
v -0.09238795191049576 33.5 30.03826904296875
v -0.10000000149011612 33.5 30
v -0.09238795191049576 33.5 29.96173095703125
v -0.0707106813788414 33.5 29.929288864135742
v -0.03826834261417389 33.5 29.907611846923828
v -1.2246467698671066e-17 33.5 29.899999618530273
v 0.03826834261417389 33.5 29.907611846923828
v 0.0707106813788414 33.5 29.929288864135742
v 0.09238795191049576 33.5 29.96173095703125
v 0.10000000149011612 33.5 30
v 0.09238795191049576 33.5 30.03826904296875
v 0.0707106813788414 33.5 30.070711135864258
v 0.03826834261417389 33.5 30.092388153076172
v 2.4492935397342132e-17 33.5 30.100000381469727
v 0 35 30
v 0 35 30
v 0 35 30
v 0 35 30
v 0 35 30
v 0 35 30
v 0 35 30
v 0 35 30
v 0 35 30
v 0 35 30
v 0 35 30
v 0 35 30
v 0 35 30
v 0 35 30
v 0 35 30
v 0 35 30
v 0 35 30.100000381469727
v -0.03826834261417389 35 30.092388153076172
v -0.0707106813788414 35 30.070711135864258
v -0.09238795191049576 35 30.03826904296875
v -0.10000000149011612 35 30
v -0.09238795191049576 35 29.96173095703125
v -0.0707106813788414 35 29.929288864135742
v -0.03826834261417389 35 29.907611846923828
v -1.2246467698671066e-17 35 29.899999618530273
v 0.03826834261417389 35 29.907611846923828
v 0.0707106813788414 35 29.929288864135742
v 0.09238795191049576 35 29.96173095703125
v 0.10000000149011612 35 30
v 0.09238795191049576 35 30.03826904296875
v 0.0707106813788414 35 30.070711135864258
v 0.03826834261417389 35 30.092388153076172
v 2.4492935397342132e-17 35 30.100000381469727
v 0 33.5 31.25
v 0.8838834762573242 33.5 30.88388442993164
v 1.25 33.5 30
v 0.8838834762573242 33.5 29.11611557006836
v 1.5308084995570108e-16 33.5 28.75
v -0.8838834762573242 33.5 29.11611557006836
v -1.25 33.5 30
v -0.8838834762573242 33.5 30.88388442993164
v -3.0616169991140216e-16 33.5 31.25
v 0 31 31.25
v 0.8838834762573242 31 30.88388442993164
v 1.25 31 30
v 0.8838834762573242 31 29.11611557006836
v 1.5308084995570108e-16 31 28.75
v -0.8838834762573242 31 29.11611557006836
v -1.25 31 30
v -0.8838834762573242 31 30.88388442993164
v -3.0616169991140216e-16 31 31.25
v 0 33.5 30
v 0 33.5 30
v 0 33.5 30
v 0 33.5 30
v 0 33.5 30
v 0 33.5 30
v 0 33.5 30
v 0 33.5 30
v 0 33.5 31.25
v 0.8838834762573242 33.5 30.88388442993164
v 1.25 33.5 30
v 0.8838834762573242 33.5 29.11611557006836
v 1.5308084995570108e-16 33.5 28.75
v -0.8838834762573242 33.5 29.11611557006836
v -1.25 33.5 30
v -0.8838834762573242 33.5 30.88388442993164
v -3.0616169991140216e-16 33.5 31.25
v 0 31 30
v 0 31 30
v 0 31 30
v 0 31 30
v 0 31 30
v 0 31 30
v 0 31 30
v 0 31 30
v 0 31 31.25
v 0.8838834762573242 31 30.88388442993164
v 1.25 31 30
v 0.8838834762573242 31 29.11611557006836
v 1.5308084995570108e-16 31 28.75
v -0.8838834762573242 31 29.11611557006836
v -1.25 31 30
v -0.8838834762573242 31 30.88388442993164
v -3.0616169991140216e-16 31 31.25
v 0 33.75 30
v 0 33.75 30
v 0 33.75 30
v 0 33.75 30
v 0 33.75 30
v 0 33.75 30
v 0 33.75 30
v 0 33.75 30
v 0 33.75 30
v 0 33.25 31.375
v 0.9722718000411987 33.25 30.972270965576172
v 1.375 33.25 30
v 0.9722718000411987 33.25 29.027729034423828
v 1.6838893230429323e-16 33.25 28.625
v -0.9722718000411987 33.25 29.027729034423828
v -1.375 33.25 30
v -0.9722718000411987 33.25 30.972270965576172
v -3.3677786460858646e-16 33.25 31.375
v 0 33.25 30
v 0 33.25 30
v 0 33.25 30
v 0 33.25 30
v 0 33.25 30
v 0 33.25 30
v 0 33.25 30
v 0 33.25 30
v 0 33.25 31.375
v 0.9722718000411987 33.25 30.972270965576172
v 1.375 33.25 30
v 0.9722718000411987 33.25 29.027729034423828
v 1.6838893230429323e-16 33.25 28.625
v -0.9722718000411987 33.25 29.027729034423828
v -1.375 33.25 30
v -0.9722718000411987 33.25 30.972270965576172
v -3.3677786460858646e-16 33.25 31.375
v 0 31.049999237060547 31.25
v 0.8838834762573242 31.049999237060547 30.88388442993164
v 1.25 31.049999237060547 30
v 0.8838834762573242 31.049999237060547 29.11611557006836
v 1.5308084995570108e-16 31.049999237060547 28.75
v -0.8838834762573242 31.049999237060547 29.11611557006836
v -1.25 31.049999237060547 30
v -0.8838834762573242 31.049999237060547 30.88388442993164
v -3.0616169991140216e-16 31.049999237060547 31.25
v 0 30.950000762939453 31.25
v 0.8838834762573242 30.950000762939453 30.88388442993164
v 1.25 30.950000762939453 30
v 0.8838834762573242 30.950000762939453 29.11611557006836
v 1.5308084995570108e-16 30.950000762939453 28.75
v -0.8838834762573242 30.950000762939453 29.11611557006836
v -1.25 30.950000762939453 30
v -0.8838834762573242 30.950000762939453 30.88388442993164
v -3.0616169991140216e-16 30.950000762939453 31.25
v 0 31.049999237060547 30
v 0 31.049999237060547 30
v 0 31.049999237060547 30
v 0 31.049999237060547 30
v 0 31.049999237060547 30
v 0 31.049999237060547 30
v 0 31.049999237060547 30
v 0 31.049999237060547 30
v 0 31.049999237060547 31.25
v 0.8838834762573242 31.049999237060547 30.88388442993164
v 1.25 31.049999237060547 30
v 0.8838834762573242 31.049999237060547 29.11611557006836
v 1.5308084995570108e-16 31.049999237060547 28.75
v -0.8838834762573242 31.049999237060547 29.11611557006836
v -1.25 31.049999237060547 30
v -0.8838834762573242 31.049999237060547 30.88388442993164
v -3.0616169991140216e-16 31.049999237060547 31.25
v 0 30.950000762939453 30
v 0 30.950000762939453 30
v 0 30.950000762939453 30
v 0 30.950000762939453 30
v 0 30.950000762939453 30
v 0 30.950000762939453 30
v 0 30.950000762939453 30
v 0 30.950000762939453 30
v 0 30.950000762939453 31.25
v 0.8838834762573242 30.950000762939453 30.88388442993164
v 1.25 30.950000762939453 30
v 0.8838834762573242 30.950000762939453 29.11611557006836
v 1.5308084995570108e-16 30.950000762939453 28.75
v -0.8838834762573242 30.950000762939453 29.11611557006836
v -1.25 30.950000762939453 30
v -0.8838834762573242 30.950000762939453 30.88388442993164
v -3.0616169991140216e-16 30.950000762939453 31.25
vt 0 1
vt 0.0625 1
vt 0.125 1
vt 0.1875 1
vt 0.25 1
vt 0.3125 1
vt 0.375 1
vt 0.4375 1
vt 0.5 1
vt 0.5625 1
vt 0.625 1
vt 0.6875 1
vt 0.75 1
vt 0.8125 1
vt 0.875 1
vt 0.9375 1
vt 1 1
vt 0 0
vt 0.0625 0
vt 0.125 0
vt 0.1875 0
vt 0.25 0
vt 0.3125 0
vt 0.375 0
vt 0.4375 0
vt 0.5 0
vt 0.5625 0
vt 0.625 0
vt 0.6875 0
vt 0.75 0
vt 0.8125 0
vt 0.875 0
vt 0.9375 0
vt 1 0
vt 0.5 0.5
vt 0.5 0.5
vt 0.5 0.5
vt 0.5 0.5
vt 0.5 0.5
vt 0.5 0.5
vt 0.5 0.5
vt 0.5 0.5
vt 0.5 0.5
vt 0.5 0.5
vt 0.5 0.5
vt 0.5 0.5
vt 0.5 0.5
vt 0.5 0.5
vt 0.5 0.5
vt 0.5 0.5
vt 1 0.5
vt 0.9619397521018982 0.6913416981697083
vt 0.8535534143447876 0.8535534143447876
vt 0.6913416981697083 0.9619397521018982
vt 0.5 1
vt 0.30865827202796936 0.9619397521018982
vt 0.1464466154575348 0.8535534143447876
vt 0.03806023299694061 0.6913416981697083
vt 0 0.5
vt 0.03806023299694061 0.30865827202796936
vt 0.1464466154575348 0.1464466154575348
vt 0.30865827202796936 0.03806023299694061
vt 0.5 0
vt 0.6913416981697083 0.03806023299694061
vt 0.8535534143447876 0.1464466154575348
vt 0.9619397521018982 0.30865827202796936
vt 1 0.5
vt 0.5 0.5
vt 0.5 0.5
vt 0.5 0.5
vt 0.5 0.5
vt 0.5 0.5
vt 0.5 0.5
vt 0.5 0.5
vt 0.5 0.5
vt 0.5 0.5
vt 0.5 0.5
vt 0.5 0.5
vt 0.5 0.5
vt 0.5 0.5
vt 0.5 0.5
vt 0.5 0.5
vt 0.5 0.5
vt 1 0.5
vt 0.9619397521018982 0.30865827202796936
vt 0.8535534143447876 0.1464466154575348
vt 0.6913416981697083 0.03806023299694061
vt 0.5 0
vt 0.30865827202796936 0.03806023299694061
vt 0.1464466154575348 0.1464466154575348
vt 0.03806023299694061 0.30865827202796936
vt 0 0.5
vt 0.03806023299694061 0.6913416981697083
vt 0.1464466154575348 0.8535534143447876
vt 0.30865827202796936 0.9619397521018982
vt 0.5 1
vt 0.6913416981697083 0.9619397521018982
vt 0.8535534143447876 0.8535534143447876
vt 0.9619397521018982 0.6913416981697083
vt 1 0.5
vt 0 1
vt 0.125 1
vt 0.25 1
vt 0.375 1
vt 0.5 1
vt 0.625 1
vt 0.75 1
vt 0.875 1
vt 1 1
vt 0 0
vt 0.125 0
vt 0.25 0
vt 0.375 0
vt 0.5 0
vt 0.625 0
vt 0.75 0
vt 0.875 0
vt 1 0
vt 0.5 0.5
vt 0.5 0.5
vt 0.5 0.5
vt 0.5 0.5
vt 0.5 0.5
vt 0.5 0.5
vt 0.5 0.5
vt 0.5 0.5
vt 1 0.5
vt 0.8535534143447876 0.8535534143447876
vt 0.5 1
vt 0.1464466154575348 0.8535534143447876
vt 0 0.5
vt 0.1464466154575348 0.1464466154575348
vt 0.5 0
vt 0.8535534143447876 0.1464466154575348
vt 1 0.5
vt 0.5 0.5
vt 0.5 0.5
vt 0.5 0.5
vt 0.5 0.5
vt 0.5 0.5
vt 0.5 0.5
vt 0.5 0.5
vt 0.5 0.5
vt 1 0.5
vt 0.8535534143447876 0.1464466154575348
vt 0.5 0
vt 0.1464466154575348 0.1464466154575348
vt 0 0.5
vt 0.1464466154575348 0.8535534143447876
vt 0.5 1
vt 0.8535534143447876 0.8535534143447876
vt 1 0.5
vt 0 1
vt 0.125 1
vt 0.25 1
vt 0.375 1
vt 0.5 1
vt 0.625 1
vt 0.75 1
vt 0.875 1
vt 1 1
vt 0 0
vt 0.125 0
vt 0.25 0
vt 0.375 0
vt 0.5 0
vt 0.625 0
vt 0.75 0
vt 0.875 0
vt 1 0
vt 0.5 0.5
vt 0.5 0.5
vt 0.5 0.5
vt 0.5 0.5
vt 0.5 0.5
vt 0.5 0.5
vt 0.5 0.5
vt 0.5 0.5
vt 1 0.5
vt 0.8535534143447876 0.1464466154575348
vt 0.5 0
vt 0.1464466154575348 0.1464466154575348
vt 0 0.5
vt 0.1464466154575348 0.8535534143447876
vt 0.5 1
vt 0.8535534143447876 0.8535534143447876
vt 1 0.5
vt 0 1
vt 0.125 1
vt 0.25 1
vt 0.375 1
vt 0.5 1
vt 0.625 1
vt 0.75 1
vt 0.875 1
vt 1 1
vt 0 0
vt 0.125 0
vt 0.25 0
vt 0.375 0
vt 0.5 0
vt 0.625 0
vt 0.75 0
vt 0.875 0
vt 1 0
vt 0.5 0.5
vt 0.5 0.5
vt 0.5 0.5
vt 0.5 0.5
vt 0.5 0.5
vt 0.5 0.5
vt 0.5 0.5
vt 0.5 0.5
vt 1 0.5
vt 0.8535534143447876 0.8535534143447876
vt 0.5 1
vt 0.1464466154575348 0.8535534143447876
vt 0 0.5
vt 0.1464466154575348 0.1464466154575348
vt 0.5 0
vt 0.8535534143447876 0.1464466154575348
vt 1 0.5
vt 0.5 0.5
vt 0.5 0.5
vt 0.5 0.5
vt 0.5 0.5
vt 0.5 0.5
vt 0.5 0.5
vt 0.5 0.5
vt 0.5 0.5
vt 1 0.5
vt 0.8535534143447876 0.1464466154575348
vt 0.5 0
vt 0.1464466154575348 0.1464466154575348
vt 0 0.5
vt 0.1464466154575348 0.8535534143447876
vt 0.5 1
vt 0.8535534143447876 0.8535534143447876
vt 1 0.5
vn 0 0 1
vn -0.3826834370613369 0 0.9238795305660377
vn -0.7071067811865476 0 0.7071067811865476
vn -0.9238795305660377 0 0.3826834370613369
vn -1 0 6.123234262925839e-17
vn -0.9238795305660377 0 -0.3826834370613369
vn -0.7071067811865476 0 -0.7071067811865476
vn -0.3826834370613369 0 -0.9238795305660377
vn -1.2246468525851679e-16 0 -1
vn 0.3826834370613369 0 -0.9238795305660377
vn 0.7071067811865476 0 -0.7071067811865476
vn 0.9238795305660377 0 -0.3826834370613369
vn 1 0 -1.8369701465288538e-16
vn 0.9238795305660377 0 0.3826834370613369
vn 0.7071067811865476 0 0.7071067811865476
vn 0.3826834370613369 0 0.9238795305660377
vn 2.4492937051703357e-16 0 1
vn 0 0 1
vn -0.3826834370613369 0 0.9238795305660377
vn -0.7071067811865476 0 0.7071067811865476
vn -0.9238795305660377 0 0.3826834370613369
vn -1 0 6.123234262925839e-17
vn -0.9238795305660377 0 -0.3826834370613369
vn -0.7071067811865476 0 -0.7071067811865476
vn -0.3826834370613369 0 -0.9238795305660377
vn -1.2246468525851679e-16 0 -1
vn 0.3826834370613369 0 -0.9238795305660377
vn 0.7071067811865476 0 -0.7071067811865476
vn 0.9238795305660377 0 -0.3826834370613369
vn 1 0 -1.8369701465288538e-16
vn 0.9238795305660377 0 0.3826834370613369
vn 0.7071067811865476 0 0.7071067811865476
vn 0.3826834370613369 0 0.9238795305660377
vn 2.4492937051703357e-16 0 1
vn 0 -1 0
vn 0 -1 0
vn 0 -1 0
vn 0 -1 0
vn 0 -1 0
vn 0 -1 0
vn 0 -1 0
vn 0 -1 0
vn 0 -1 0
vn 0 -1 0
vn 0 -1 0
vn 0 -1 0
vn 0 -1 0
vn 0 -1 0
vn 0 -1 0
vn 0 -1 0
vn 0 -1 0
vn 0 -1 0
vn 0 -1 0
vn 0 -1 0
vn 0 -1 0
vn 0 -1 0
vn 0 -1 0
vn 0 -1 0
vn 0 -1 0
vn 0 -1 0
vn 0 -1 0
vn 0 -1 0
vn 0 -1 0
vn 0 -1 0
vn 0 -1 0
vn 0 -1 0
vn 0 -1 0
vn 0 1 0
vn 0 1 0
vn 0 1 0
vn 0 1 0
vn 0 1 0
vn 0 1 0
vn 0 1 0
vn 0 1 0
vn 0 1 0
vn 0 1 0
vn 0 1 0
vn 0 1 0
vn 0 1 0
vn 0 1 0
vn 0 1 0
vn 0 1 0
vn 0 1 0
vn 0 1 0
vn 0 1 0
vn 0 1 0
vn 0 1 0
vn 0 1 0
vn 0 1 0
vn 0 1 0
vn 0 1 0
vn 0 1 0
vn 0 1 0
vn 0 1 0
vn 0 1 0
vn 0 1 0
vn 0 1 0
vn 0 1 0
vn 0 1 0
vn 0 0 1
vn 0.7071067811865476 0 0.7071067811865476
vn 1 0 6.123234262925839e-17
vn 0.7071067811865476 0 -0.7071067811865476
vn 1.2246468525851679e-16 0 -1
vn -0.7071067811865476 0 -0.7071067811865476
vn -1 0 -1.8369701465288538e-16
vn -0.7071067811865476 0 0.7071067811865476
vn -2.4492937051703357e-16 0 1
vn 0 0 1
vn 0.7071067811865476 0 0.7071067811865476
vn 1 0 6.123234262925839e-17
vn 0.7071067811865476 0 -0.7071067811865476
vn 1.2246468525851679e-16 0 -1
vn -0.7071067811865476 0 -0.7071067811865476
vn -1 0 -1.8369701465288538e-16
vn -0.7071067811865476 0 0.7071067811865476
vn -2.4492937051703357e-16 0 1
vn 0 1 0
vn 0 1 0
vn 0 1 0
vn 0 1 0
vn 0 1 0
vn 0 1 0
vn 0 1 0
vn 0 1 0
vn 0 1 0
vn 0 1 0
vn 0 1 0
vn 0 1 0
vn 0 1 0
vn 0 1 0
vn 0 1 0
vn 0 1 0
vn 0 1 0
vn 0 -1 0
vn 0 -1 0
vn 0 -1 0
vn 0 -1 0
vn 0 -1 0
vn 0 -1 0
vn 0 -1 0
vn 0 -1 0
vn 0 -1 0
vn 0 -1 0
vn 0 -1 0
vn 0 -1 0
vn 0 -1 0
vn 0 -1 0
vn 0 -1 0
vn 0 -1 0
vn 0 -1 0
vn 0 0.9397934252287188 0.34174305830092994
vn 0.24164884139114082 0.9397934214010217 0.24164884139114082
vn 0.34174305830092994 0.9397934252287188 2.0925727662980842e-17
vn 0.24164884139114082 0.9397934214010217 -0.24164884139114082
vn 4.1851455325961685e-17 0.9397934252287188 -0.34174305830092994
vn -0.24164884139114082 0.9397934214010217 -0.24164884139114082
vn -0.34174305830092994 0.9397934252287188 -6.277718629766504e-17
vn -0.24164884139114082 0.9397934214010217 0.24164884139114082
vn -8.370291065192337e-17 0.9397934252287188 0.34174305830092994
vn 0 0.9397934252287188 0.34174305830092994
vn 0.24164884139114082 0.9397934214010217 0.24164884139114082
vn 0.34174305830092994 0.9397934252287188 2.0925727662980842e-17
vn 0.24164884139114082 0.9397934214010217 -0.24164884139114082
vn 4.1851455325961685e-17 0.9397934252287188 -0.34174305830092994
vn -0.24164884139114082 0.9397934214010217 -0.24164884139114082
vn -0.34174305830092994 0.9397934252287188 -6.277718629766504e-17
vn -0.24164884139114082 0.9397934214010217 0.24164884139114082
vn -8.370291065192337e-17 0.9397934252287188 0.34174305830092994
vn 0 -1 0
vn 0 -1 0
vn 0 -1 0
vn 0 -1 0
vn 0 -1 0
vn 0 -1 0
vn 0 -1 0
vn 0 -1 0
vn 0 -1 0
vn 0 -1 0
vn 0 -1 0
vn 0 -1 0
vn 0 -1 0
vn 0 -1 0
vn 0 -1 0
vn 0 -1 0
vn 0 -1 0
vn 0 0 1
vn 0.7071067811865476 0 0.7071067811865476
vn 1 0 6.123234262925839e-17
vn 0.7071067811865476 0 -0.7071067811865476
vn 1.2246468525851679e-16 0 -1
vn -0.7071067811865476 0 -0.7071067811865476
vn -1 0 -1.8369701465288538e-16
vn -0.7071067811865476 0 0.7071067811865476
vn -2.4492937051703357e-16 0 1
vn 0 0 1
vn 0.7071067811865476 0 0.7071067811865476
vn 1 0 6.123234262925839e-17
vn 0.7071067811865476 0 -0.7071067811865476
vn 1.2246468525851679e-16 0 -1
vn -0.7071067811865476 0 -0.7071067811865476
vn -1 0 -1.8369701465288538e-16
vn -0.7071067811865476 0 0.7071067811865476
vn -2.4492937051703357e-16 0 1
vn 0 1 0
vn 0 1 0
vn 0 1 0
vn 0 1 0
vn 0 1 0
vn 0 1 0
vn 0 1 0
vn 0 1 0
vn 0 1 0
vn 0 1 0
vn 0 1 0
vn 0 1 0
vn 0 1 0
vn 0 1 0
vn 0 1 0
vn 0 1 0
vn 0 1 0
vn 0 -1 0
vn 0 -1 0
vn 0 -1 0
vn 0 -1 0
vn 0 -1 0
vn 0 -1 0
vn 0 -1 0
vn 0 -1 0
vn 0 -1 0
vn 0 -1 0
vn 0 -1 0
vn 0 -1 0
vn 0 -1 0
vn 0 -1 0
vn 0 -1 0
vn 0 -1 0
vn 0 -1 0
f 1/1/1 18/18/18 2/2/2
f 18/18/18 19/19/19 2/2/2
f 2/2/2 19/19/19 3/3/3
f 19/19/19 20/20/20 3/3/3
f 3/3/3 20/20/20 4/4/4
f 20/20/20 21/21/21 4/4/4
f 4/4/4 21/21/21 5/5/5
f 21/21/21 22/22/22 5/5/5
f 5/5/5 22/22/22 6/6/6
f 22/22/22 23/23/23 6/6/6
f 6/6/6 23/23/23 7/7/7
f 23/23/23 24/24/24 7/7/7
f 7/7/7 24/24/24 8/8/8
f 24/24/24 25/25/25 8/8/8
f 8/8/8 25/25/25 9/9/9
f 25/25/25 26/26/26 9/9/9
f 9/9/9 26/26/26 10/10/10
f 26/26/26 27/27/27 10/10/10
f 10/10/10 27/27/27 11/11/11
f 27/27/27 28/28/28 11/11/11
f 11/11/11 28/28/28 12/12/12
f 28/28/28 29/29/29 12/12/12
f 12/12/12 29/29/29 13/13/13
f 29/29/29 30/30/30 13/13/13
f 13/13/13 30/30/30 14/14/14
f 30/30/30 31/31/31 14/14/14
f 14/14/14 31/31/31 15/15/15
f 31/31/31 32/32/32 15/15/15
f 15/15/15 32/32/32 16/16/16
f 32/32/32 33/33/33 16/16/16
f 16/16/16 33/33/33 17/17/17
f 33/33/33 34/34/34 17/17/17
f 51/51/51 52/52/52 35/35/35
f 52/52/52 53/53/53 36/36/36
f 53/53/53 54/54/54 37/37/37
f 54/54/54 55/55/55 38/38/38
f 55/55/55 56/56/56 39/39/39
f 56/56/56 57/57/57 40/40/40
f 57/57/57 58/58/58 41/41/41
f 58/58/58 59/59/59 42/42/42
f 59/59/59 60/60/60 43/43/43
f 60/60/60 61/61/61 44/44/44
f 61/61/61 62/62/62 45/45/45
f 62/62/62 63/63/63 46/46/46
f 63/63/63 64/64/64 47/47/47
f 64/64/64 65/65/65 48/48/48
f 65/65/65 66/66/66 49/49/49
f 66/66/66 67/67/67 50/50/50
f 85/85/85 84/84/84 68/68/68
f 86/86/86 85/85/85 69/69/69
f 87/87/87 86/86/86 70/70/70
f 88/88/88 87/87/87 71/71/71
f 89/89/89 88/88/88 72/72/72
f 90/90/90 89/89/89 73/73/73
f 91/91/91 90/90/90 74/74/74
f 92/92/92 91/91/91 75/75/75
f 93/93/93 92/92/92 76/76/76
f 94/94/94 93/93/93 77/77/77
f 95/95/95 94/94/94 78/78/78
f 96/96/96 95/95/95 79/79/79
f 97/97/97 96/96/96 80/80/80
f 98/98/98 97/97/97 81/81/81
f 99/99/99 98/98/98 82/82/82
f 100/100/100 99/99/99 83/83/83
f 101/101/101 110/110/110 102/102/102
f 110/110/110 111/111/111 102/102/102
f 102/102/102 111/111/111 103/103/103
f 111/111/111 112/112/112 103/103/103
f 103/103/103 112/112/112 104/104/104
f 112/112/112 113/113/113 104/104/104
f 104/104/104 113/113/113 105/105/105
f 113/113/113 114/114/114 105/105/105
f 105/105/105 114/114/114 106/106/106
f 114/114/114 115/115/115 106/106/106
f 106/106/106 115/115/115 107/107/107
f 115/115/115 116/116/116 107/107/107
f 107/107/107 116/116/116 108/108/108
f 116/116/116 117/117/117 108/108/108
f 108/108/108 117/117/117 109/109/109
f 117/117/117 118/118/118 109/109/109
f 127/127/127 128/128/128 119/119/119
f 128/128/128 129/129/129 120/120/120
f 129/129/129 130/130/130 121/121/121
f 130/130/130 131/131/131 122/122/122
f 131/131/131 132/132/132 123/123/123
f 132/132/132 133/133/133 124/124/124
f 133/133/133 134/134/134 125/125/125
f 134/134/134 135/135/135 126/126/126
f 145/145/145 144/144/144 136/136/136
f 146/146/146 145/145/145 137/137/137
f 147/147/147 146/146/146 138/138/138
f 148/148/148 147/147/147 139/139/139
f 149/149/149 148/148/148 140/140/140
f 150/150/150 149/149/149 141/141/141
f 151/151/151 150/150/150 142/142/142
f 152/152/152 151/151/151 143/143/143
f 162/162/162 163/163/163 154/154/154
f 163/163/163 164/164/164 155/155/155
f 164/164/164 165/165/165 156/156/156
f 165/165/165 166/166/166 157/157/157
f 166/166/166 167/167/167 158/158/158
f 167/167/167 168/168/168 159/159/159
f 168/168/168 169/169/169 160/160/160
f 169/169/169 170/170/170 161/161/161
f 180/180/180 179/179/179 171/171/171
f 181/181/181 180/180/180 172/172/172
f 182/182/182 181/181/181 173/173/173
f 183/183/183 182/182/182 174/174/174
f 184/184/184 183/183/183 175/175/175
f 185/185/185 184/184/184 176/176/176
f 186/186/186 185/185/185 177/177/177
f 187/187/187 186/186/186 178/178/178
f 188/188/188 197/197/197 189/189/189
f 197/197/197 198/198/198 189/189/189
f 189/189/189 198/198/198 190/190/190
f 198/198/198 199/199/199 190/190/190
f 190/190/190 199/199/199 191/191/191
f 199/199/199 200/200/200 191/191/191
f 191/191/191 200/200/200 192/192/192
f 200/200/200 201/201/201 192/192/192
f 192/192/192 201/201/201 193/193/193
f 201/201/201 202/202/202 193/193/193
f 193/193/193 202/202/202 194/194/194
f 202/202/202 203/203/203 194/194/194
f 194/194/194 203/203/203 195/195/195
f 203/203/203 204/204/204 195/195/195
f 195/195/195 204/204/204 196/196/196
f 204/204/204 205/205/205 196/196/196
f 214/214/214 215/215/215 206/206/206
f 215/215/215 216/216/216 207/207/207
f 216/216/216 217/217/217 208/208/208
f 217/217/217 218/218/218 209/209/209
f 218/218/218 219/219/219 210/210/210
f 219/219/219 220/220/220 211/211/211
f 220/220/220 221/221/221 212/212/212
f 221/221/221 222/222/222 213/213/213
f 232/232/232 231/231/231 223/223/223
f 233/233/233 232/232/232 224/224/224
f 234/234/234 233/233/233 225/225/225
f 235/235/235 234/234/234 226/226/226
f 236/236/236 235/235/235 227/227/227
f 237/237/237 236/236/236 228/228/228
f 238/238/238 237/237/237 229/229/229
f 239/239/239 238/238/238 230/230/230
