# spoke_front_17
v 0.9918867349624634 29.343338012695312 -29.4622802734375
v 1.9918867349624634 35.196048736572266 -0.03872039169073105
v 1.068935513496399 29.330965042114258 -29.46243667602539
v 1.9918867349624634 35.196048736572266 -0.03872039169073105
v 2.0689353942871094 35.18367385864258 -0.038877762854099274
v 1.068935513496399 29.330965042114258 -29.46243667602539
v 1.068935513496399 29.330965042114258 -29.46243667602539
v 2.0689353942871094 35.18367385864258 -0.038877762854099274
v 1.1354894638061523 29.29062843322754 -29.456674575805664
v 2.0689353942871094 35.18367385864258 -0.038877762854099274
v 2.1354894638061523 35.14333724975586 -0.033116307109594345
v 1.1354894638061523 29.29062843322754 -29.456674575805664
v 1.1354894638061523 29.29062843322754 -29.456674575805664
v 2.1354894638061523 35.14333724975586 -0.033116307109594345
v 1.181416392326355 29.228469848632812 -29.445871353149414
v 2.1354894638061523 35.14333724975586 -0.033116307109594345
v 2.1814162731170654 35.081180572509766 -0.02231314778327942
v 1.181416392326355 29.228469848632812 -29.445871353149414
v 1.181416392326355 29.228469848632812 -29.445871353149414
v 2.1814162731170654 35.081180572509766 -0.02231314778327942
v 1.1997241973876953 29.153953552246094 -29.431671142578125
v 2.1814162731170654 35.081180572509766 -0.02231314778327942
v 2.1997241973876953 35.00666427612305 -0.00811297632753849
v 1.1997241973876953 29.153953552246094 -29.431671142578125
v 1.1997241973876953 29.153953552246094 -29.431671142578125
v 2.1997241973876953 35.00666427612305 -0.00811297632753849
v 1.1876260042190552 29.07842254638672 -29.416236877441406
v 2.1997241973876953 35.00666427612305 -0.00811297632753849
v 2.1876258850097656 34.93113327026367 0.0073223658837378025
v 1.1876260042190552 29.07842254638672 -29.416236877441406
v 1.1876260042190552 29.07842254638672 -29.416236877441406
v 2.1876258850097656 34.93113327026367 0.0073223658837378025
v 1.146963357925415 29.01337432861328 -29.40191650390625
v 2.1876258850097656 34.93113327026367 0.0073223658837378025
v 2.146963357925415 34.866085052490234 0.021642986685037613
v 1.146963357925415 29.01337432861328 -29.40191650390625
v 1.146963357925415 29.01337432861328 -29.40191650390625
v 2.146963357925415 34.866085052490234 0.021642986685037613
v 1.083926796913147 28.96871566772461 -29.39089012145996
v 2.146963357925415 34.866085052490234 0.021642986685037613
v 2.0839269161224365 34.82142639160156 0.03266869857907295
v 1.083926796913147 28.96871566772461 -29.39089012145996
v 1.083926796913147 28.96871566772461 -29.39089012145996
v 2.0839269161224365 34.82142639160156 0.03266869857907295
v 1.0081132650375366 28.951242446899414 -29.384838104248047
v 2.0839269161224365 34.82142639160156 0.03266869857907295
v 2.008113145828247 34.803951263427734 0.03872093930840492
v 1.0081132650375366 28.951242446899414 -29.384838104248047
v 1.0081132650375366 28.951242446899414 -29.384838104248047
v 2.008113145828247 34.803951263427734 0.03872093930840492
v 0.9310644865036011 28.96361541748047 -29.384679794311523
v 2.008113145828247 34.803951263427734 0.03872093930840492
v 1.931064486503601 34.81632614135742 0.03887831047177315
v 0.9310644865036011 28.96361541748047 -29.384679794311523
v 0.9310644865036011 28.96361541748047 -29.384679794311523
v 1.931064486503601 34.81632614135742 0.03887831047177315
v 0.8645105361938477 29.003952026367188 -29.39044189453125
v 1.931064486503601 34.81632614135742 0.03887831047177315
v 1.8645105361938477 34.85666275024414 0.03311685472726822
v 0.8645105361938477 29.003952026367188 -29.39044189453125
v 0.8645105361938477 29.003952026367188 -29.39044189453125
v 1.8645105361938477 34.85666275024414 0.03311685472726822
v 0.8185836672782898 29.066110610961914 -29.4012451171875
v 1.8645105361938477 34.85666275024414 0.03311685472726822
v 1.818583607673645 34.918819427490234 0.022313695400953293
v 0.8185836672782898 29.066110610961914 -29.4012451171875
v 0.8185836672782898 29.066110610961914 -29.4012451171875
v 1.818583607673645 34.918819427490234 0.022313695400953293
v 0.8002757430076599 29.140626907348633 -29.41544532775879
v 1.818583607673645 34.918819427490234 0.022313695400953293
v 1.8002758026123047 34.99333572387695 0.00811352301388979
v 0.8002757430076599 29.140626907348633 -29.41544532775879
v 0.8002757430076599 29.140626907348633 -29.41544532775879
v 1.8002758026123047 34.99333572387695 0.00811352301388979
v 0.8123740553855896 29.21615982055664 -29.43088150024414
v 1.8002758026123047 34.99333572387695 0.00811352301388979
v 1.8123739957809448 35.068870544433594 -0.007321818731725216
v 0.8123740553855896 29.21615982055664 -29.43088150024414
v 0.8123740553855896 29.21615982055664 -29.43088150024414
v 1.8123739957809448 35.068870544433594 -0.007321818731725216
v 0.853036642074585 29.281206130981445 -29.445201873779297
v 1.8123739957809448 35.068870544433594 -0.007321818731725216
v 1.853036642074585 35.133914947509766 -0.02164243906736374
v 0.853036642074585 29.281206130981445 -29.445201873779297
v 0.853036642074585 29.281206130981445 -29.445201873779297
v 1.853036642074585 35.133914947509766 -0.02164243906736374
v 0.9160731434822083 29.325864791870117 -29.456226348876953
v 1.853036642074585 35.133914947509766 -0.02164243906736374
v 1.916073203086853 35.17857360839844 -0.03266815096139908
v 0.9160731434822083 29.325864791870117 -29.456226348876953
v 0.9160731434822083 29.325864791870117 -29.456226348876953
v 1.916073203086853 35.17857360839844 -0.03266815096139908
v 0.9918867349624634 29.343338012695312 -29.4622802734375
v 1.916073203086853 35.17857360839844 -0.03266815096139908
v 1.9918867349624634 35.196048736572266 -0.03872039169073105
v 0.9918867349624634 29.343338012695312 -29.4622802734375
v 0.9918867349624634 29.343338012695312 -29.4622802734375
v 1.068935513496399 29.330965042114258 -29.46243667602539
v 1 29.14729118347168 -29.423559188842773
v 1.068935513496399 29.330965042114258 -29.46243667602539
v 1.1354894638061523 29.29062843322754 -29.456674575805664
v 1 29.14729118347168 -29.423559188842773
v 1.1354894638061523 29.29062843322754 -29.456674575805664
v 1.181416392326355 29.228469848632812 -29.445871353149414
v 1 29.14729118347168 -29.423559188842773
v 1.181416392326355 29.228469848632812 -29.445871353149414
v 1.1997241973876953 29.153953552246094 -29.431671142578125
v 1 29.14729118347168 -29.423559188842773
v 1.1997241973876953 29.153953552246094 -29.431671142578125
v 1.1876260042190552 29.07842254638672 -29.416236877441406
v 1 29.14729118347168 -29.423559188842773
v 1.1876260042190552 29.07842254638672 -29.416236877441406
v 1.146963357925415 29.01337432861328 -29.40191650390625
v 1 29.14729118347168 -29.423559188842773
v 1.146963357925415 29.01337432861328 -29.40191650390625
v 1.083926796913147 28.96871566772461 -29.39089012145996
v 1 29.14729118347168 -29.423559188842773
v 1.083926796913147 28.96871566772461 -29.39089012145996
v 1.0081132650375366 28.951242446899414 -29.384838104248047
v 1 29.14729118347168 -29.423559188842773
v 1.0081132650375366 28.951242446899414 -29.384838104248047
v 0.9310644865036011 28.96361541748047 -29.384679794311523
v 1 29.14729118347168 -29.423559188842773
v 0.9310644865036011 28.96361541748047 -29.384679794311523
v 0.8645105361938477 29.003952026367188 -29.39044189453125
v 1 29.14729118347168 -29.423559188842773
v 0.8645105361938477 29.003952026367188 -29.39044189453125
v 0.8185836672782898 29.066110610961914 -29.4012451171875
v 1 29.14729118347168 -29.423559188842773
v 0.8185836672782898 29.066110610961914 -29.4012451171875
v 0.8002757430076599 29.140626907348633 -29.41544532775879
v 1 29.14729118347168 -29.423559188842773
v 0.8002757430076599 29.140626907348633 -29.41544532775879
v 0.8123740553855896 29.21615982055664 -29.43088150024414
v 1 29.14729118347168 -29.423559188842773
v 0.8123740553855896 29.21615982055664 -29.43088150024414
v 0.853036642074585 29.281206130981445 -29.445201873779297
v 1 29.14729118347168 -29.423559188842773
v 0.853036642074585 29.281206130981445 -29.445201873779297
v 0.9160731434822083 29.325864791870117 -29.456226348876953
v 1 29.14729118347168 -29.423559188842773
v 0.9160731434822083 29.325864791870117 -29.456226348876953
v 0.9918867349624634 29.343338012695312 -29.4622802734375
v 1 29.14729118347168 -29.423559188842773
v 2.0689353942871094 35.18367385864258 -0.038877762854099274
v 1.9918867349624634 35.196048736572266 -0.03872039169073105
v 2 35 2.735112047957955e-7
v 2.1354894638061523 35.14333724975586 -0.033116307109594345
v 2.0689353942871094 35.18367385864258 -0.038877762854099274
v 2 35 2.735112047957955e-7
v 2.1814162731170654 35.081180572509766 -0.02231314778327942
v 2.1354894638061523 35.14333724975586 -0.033116307109594345
v 2 35 2.735112047957955e-7
v 2.1997241973876953 35.00666427612305 -0.00811297632753849
v 2.1814162731170654 35.081180572509766 -0.02231314778327942
v 2 35 2.735112047957955e-7
v 2.1876258850097656 34.93113327026367 0.0073223658837378025
v 2.1997241973876953 35.00666427612305 -0.00811297632753849
v 2 35 2.735112047957955e-7
v 2.146963357925415 34.866085052490234 0.021642986685037613
v 2.1876258850097656 34.93113327026367 0.0073223658837378025
v 2 35 2.735112047957955e-7
v 2.0839269161224365 34.82142639160156 0.03266869857907295
v 2.146963357925415 34.866085052490234 0.021642986685037613
v 2 35 2.735112047957955e-7
v 2.008113145828247 34.803951263427734 0.03872093930840492
v 2.0839269161224365 34.82142639160156 0.03266869857907295
v 2 35 2.735112047957955e-7
v 1.931064486503601 34.81632614135742 0.03887831047177315
v 2.008113145828247 34.803951263427734 0.03872093930840492
v 2 35 2.735112047957955e-7
v 1.8645105361938477 34.85666275024414 0.03311685472726822
v 1.931064486503601 34.81632614135742 0.03887831047177315
v 2 35 2.735112047957955e-7
v 1.818583607673645 34.918819427490234 0.022313695400953293
v 1.8645105361938477 34.85666275024414 0.03311685472726822
v 2 35 2.735112047957955e-7
v 1.8002758026123047 34.99333572387695 0.00811352301388979
v 1.818583607673645 34.918819427490234 0.022313695400953293
v 2 35 2.735112047957955e-7
v 1.8123739957809448 35.068870544433594 -0.007321818731725216
v 1.8002758026123047 34.99333572387695 0.00811352301388979
v 2 35 2.735112047957955e-7
v 1.853036642074585 35.133914947509766 -0.02164243906736374
v 1.8123739957809448 35.068870544433594 -0.007321818731725216
v 2 35 2.735112047957955e-7
v 1.916073203086853 35.17857360839844 -0.03266815096139908
v 1.853036642074585 35.133914947509766 -0.02164243906736374
v 2 35 2.735112047957955e-7
v 1.9918867349624634 35.196048736572266 -0.03872039169073105
v 1.916073203086853 35.17857360839844 -0.03266815096139908
v 2 35 2.735112047957955e-7
vn -0.04056624695658684 0.9802408814430237 -0.19360332190990448
vn -0.04056624695658684 0.9802408814430237 -0.19360332190990448
vn 0.34467750787734985 0.9183734655380249 -0.1943901777267456
vn -0.04056624695658684 0.9802408814430237 -0.19360332190990448
vn 0.34467750787734985 0.9183734655380249 -0.1943901777267456
vn 0.34467750787734985 0.9183734655380249 -0.1943901777267456
vn 0.34467750787734985 0.9183734655380249 -0.1943901777267456
vn 0.34467750787734985 0.9183734655380249 -0.1943901777267456
vn 0.6774471998214722 0.7166920900344849 -0.16558289527893066
vn 0.34467750787734985 0.9183734655380249 -0.1943901777267456
vn 0.6774471998214722 0.7166920900344849 -0.16558289527893066
vn 0.6774471998214722 0.7166920900344849 -0.16558289527893066
vn 0.6774471998214722 0.7166920900344849 -0.16558289527893066
vn 0.6774471998214722 0.7166920900344849 -0.16558289527893066
vn 0.9070817232131958 0.40590083599090576 -0.11156710982322693
vn 0.6774471998214722 0.7166920900344849 -0.16558289527893066
vn 0.9070817232131958 0.40590083599090576 -0.11156710982322693
vn 0.9070817232131958 0.40590083599090576 -0.11156710982322693
vn 0.9070817232131958 0.40590083599090576 -0.11156710982322693
vn 0.9070817232131958 0.40590083599090576 -0.11156710982322693
vn 0.9986212849617004 0.03331483155488968 -0.04056624695658684
vn 0.9070817232131958 0.40590083599090576 -0.11156710982322693
vn 0.9986212849617004 0.03331483155488968 -0.04056624695658684
vn 0.9986212849617004 0.03331483155488968 -0.04056624695658684
vn 0.9986212849617004 0.03331483155488968 -0.04056624695658684
vn 0.9986212849617004 0.03331483155488968 -0.04056624695658684
vn 0.9381297826766968 -0.34434303641319275 0.03661046177148819
vn 0.9986212849617004 0.03331483155488968 -0.04056624695658684
vn 0.9381297826766968 -0.34434303641319275 0.03661046177148819
vn 0.9381297826766968 -0.34434303641319275 0.03661046177148819
vn 0.9381297826766968 -0.34434303641319275 0.03661046177148819
vn 0.9381297826766968 -0.34434303641319275 0.03661046177148819
vn 0.7348165512084961 -0.6695778369903564 0.10821355879306793
vn 0.9381297826766968 -0.34434303641319275 0.03661046177148819
vn 0.7348165512084961 -0.6695778369903564 0.10821355879306793
vn 0.7348165512084961 -0.6695778369903564 0.10821355879306793
vn 0.7348165512084961 -0.6695778369903564 0.10821355879306793
vn 0.7348165512084961 -0.6695778369903564 0.10821355879306793
vn 0.4196341633796692 -0.8928754329681396 0.16334211826324463
vn 0.7348165512084961 -0.6695778369903564 0.10821355879306793
vn 0.4196341633796692 -0.8928754329681396 0.16334211826324463
vn 0.4196341633796692 -0.8928754329681396 0.16334211826324463
vn 0.4196341633796692 -0.8928754329681396 0.16334211826324463
vn 0.4196341633796692 -0.8928754329681396 0.16334211826324463
vn 0.04056624695658684 -0.9802408814430237 0.19360332190990448
vn 0.4196341633796692 -0.8928754329681396 0.16334211826324463
vn 0.04056624695658684 -0.9802408814430237 0.19360332190990448
vn 0.04056624695658684 -0.9802408814430237 0.19360332190990448
vn 0.04056624695658684 -0.9802408814430237 0.19360332190990448
vn 0.04056624695658684 -0.9802408814430237 0.19360332190990448
vn -0.34467750787734985 -0.9183734655380249 0.1943901777267456
vn 0.04056624695658684 -0.9802408814430237 0.19360332190990448
vn -0.34467750787734985 -0.9183734655380249 0.1943901777267456
vn -0.34467750787734985 -0.9183734655380249 0.1943901777267456
vn -0.34467750787734985 -0.9183734655380249 0.1943901777267456
vn -0.34467750787734985 -0.9183734655380249 0.1943901777267456
vn -0.6774471998214722 -0.7166920900344849 0.16558289527893066
vn -0.34467750787734985 -0.9183734655380249 0.1943901777267456
vn -0.6774471998214722 -0.7166920900344849 0.16558289527893066
vn -0.6774471998214722 -0.7166920900344849 0.16558289527893066
vn -0.6774471998214722 -0.7166920900344849 0.16558289527893066
vn -0.6774471998214722 -0.7166920900344849 0.16558289527893066
vn -0.9070817232131958 -0.40590083599090576 0.11156710982322693
vn -0.6774471998214722 -0.7166920900344849 0.16558289527893066
vn -0.9070817232131958 -0.40590083599090576 0.11156710982322693
vn -0.9070817232131958 -0.40590083599090576 0.11156710982322693
vn -0.9070817232131958 -0.40590083599090576 0.11156710982322693
vn -0.9070817232131958 -0.40590083599090576 0.11156710982322693
vn -0.9986212849617004 -0.03331483155488968 0.04056624695658684
vn -0.9070817232131958 -0.40590083599090576 0.11156710982322693
vn -0.9986212849617004 -0.03331483155488968 0.04056624695658684
vn -0.9986212849617004 -0.03331483155488968 0.04056624695658684
vn -0.9986212849617004 -0.03331483155488968 0.04056624695658684
vn -0.9986212849617004 -0.03331483155488968 0.04056624695658684
vn -0.9381297826766968 0.34434303641319275 -0.03661046177148819
vn -0.9986212849617004 -0.03331483155488968 0.04056624695658684
vn -0.9381297826766968 0.34434303641319275 -0.03661046177148819
vn -0.9381297826766968 0.34434303641319275 -0.03661046177148819
vn -0.9381297826766968 0.34434303641319275 -0.03661046177148819
vn -0.9381297826766968 0.34434303641319275 -0.03661046177148819
vn -0.7348165512084961 0.6695778369903564 -0.10821355879306793
vn -0.9381297826766968 0.34434303641319275 -0.03661046177148819
vn -0.7348165512084961 0.6695778369903564 -0.10821355879306793
vn -0.7348165512084961 0.6695778369903564 -0.10821355879306793
vn -0.7348165512084961 0.6695778369903564 -0.10821355879306793
vn -0.7348165512084961 0.6695778369903564 -0.10821355879306793
vn -0.4196341633796692 0.8928754329681396 -0.16334211826324463
vn -0.7348165512084961 0.6695778369903564 -0.10821355879306793
vn -0.4196341633796692 0.8928754329681396 -0.16334211826324463
vn -0.4196341633796692 0.8928754329681396 -0.16334211826324463
vn -0.4196341633796692 0.8928754329681396 -0.16334211826324463
vn -0.4196341633796692 0.8928754329681396 -0.16334211826324463
vn -0.04056624695658684 0.9802408814430237 -0.19360332190990448
vn -0.4196341633796692 0.8928754329681396 -0.16334211826324463
vn -0.04056624695658684 0.9802408814430237 -0.19360332190990448
vn -0.04056624695658684 0.9802408814430237 -0.19360332190990448
vn -0.03331483155488968 -0.19498202204704285 -0.9802408814430237
vn -0.03331483155488968 -0.19498202204704285 -0.9802408814430237
vn -0.03331483155488968 -0.19498202204704285 -0.9802408814430237
vn -0.03331483155488968 -0.19498202204704285 -0.9802408814430237
vn -0.03331483155488968 -0.19498202204704285 -0.9802408814430237
vn -0.03331483155488968 -0.19498202204704285 -0.9802408814430237
vn -0.03331483155488968 -0.19498202204704285 -0.9802408814430237
vn -0.03331483155488968 -0.19498202204704285 -0.9802408814430237
vn -0.03331483155488968 -0.19498202204704285 -0.9802408814430237
vn -0.03331483155488968 -0.19498202204704285 -0.9802408814430237
vn -0.03331483155488968 -0.19498202204704285 -0.9802408814430237
vn -0.03331483155488968 -0.19498202204704285 -0.9802408814430237
vn -0.03331483155488968 -0.19498202204704285 -0.9802408814430237
vn -0.03331483155488968 -0.19498202204704285 -0.9802408814430237
vn -0.03331483155488968 -0.19498202204704285 -0.9802408814430237
vn -0.03331483155488968 -0.19498202204704285 -0.9802408814430237
vn -0.03331483155488968 -0.19498202204704285 -0.9802408814430237
vn -0.03331483155488968 -0.19498202204704285 -0.9802408814430237
vn -0.03331483155488968 -0.19498202204704285 -0.9802408814430237
vn -0.03331483155488968 -0.19498202204704285 -0.9802408814430237
vn -0.03331483155488968 -0.19498202204704285 -0.9802408814430237
vn -0.03331483155488968 -0.19498202204704285 -0.9802408814430237
vn -0.03331483155488968 -0.19498202204704285 -0.9802408814430237
vn -0.03331483155488968 -0.19498202204704285 -0.9802408814430237
vn -0.03331483155488968 -0.19498202204704285 -0.9802408814430237
vn -0.03331483155488968 -0.19498202204704285 -0.9802408814430237
vn -0.03331483155488968 -0.19498202204704285 -0.9802408814430237
vn -0.03331483155488968 -0.19498202204704285 -0.9802408814430237
vn -0.03331483155488968 -0.19498202204704285 -0.9802408814430237
vn -0.03331483155488968 -0.19498202204704285 -0.9802408814430237
vn -0.03331483155488968 -0.19498202204704285 -0.9802408814430237
vn -0.03331483155488968 -0.19498202204704285 -0.9802408814430237
vn -0.03331483155488968 -0.19498202204704285 -0.9802408814430237
vn -0.03331483155488968 -0.19498202204704285 -0.9802408814430237
vn -0.03331483155488968 -0.19498202204704285 -0.9802408814430237
vn -0.03331483155488968 -0.19498202204704285 -0.9802408814430237
vn -0.03331483155488968 -0.19498202204704285 -0.9802408814430237
vn -0.03331483155488968 -0.19498202204704285 -0.9802408814430237
vn -0.03331483155488968 -0.19498202204704285 -0.9802408814430237
vn -0.03331483155488968 -0.19498202204704285 -0.9802408814430237
vn -0.03331483155488968 -0.19498202204704285 -0.9802408814430237
vn -0.03331483155488968 -0.19498202204704285 -0.9802408814430237
vn -0.03331483155488968 -0.19498202204704285 -0.9802408814430237
vn -0.03331483155488968 -0.19498202204704285 -0.9802408814430237
vn -0.03331483155488968 -0.19498202204704285 -0.9802408814430237
vn -0.03331483155488968 -0.19498202204704285 -0.9802408814430237
vn -0.03331483155488968 -0.19498202204704285 -0.9802408814430237
vn -0.03331483155488968 -0.19498202204704285 -0.9802408814430237
vn 0.03331483155488968 0.19498202204704285 0.9802408814430237
vn 0.03331483155488968 0.19498202204704285 0.9802408814430237
vn 0.03331483155488968 0.19498202204704285 0.9802408814430237
vn 0.03331483155488968 0.19498202204704285 0.9802408814430237
vn 0.03331483155488968 0.19498202204704285 0.9802408814430237
vn 0.03331483155488968 0.19498202204704285 0.9802408814430237
vn 0.03331483155488968 0.19498202204704285 0.9802408814430237
vn 0.03331483155488968 0.19498202204704285 0.9802408814430237
vn 0.03331483155488968 0.19498202204704285 0.9802408814430237
vn 0.03331483155488968 0.19498202204704285 0.9802408814430237
vn 0.03331483155488968 0.19498202204704285 0.9802408814430237
vn 0.03331483155488968 0.19498202204704285 0.9802408814430237
vn 0.03331483155488968 0.19498202204704285 0.9802408814430237
vn 0.03331483155488968 0.19498202204704285 0.9802408814430237
vn 0.03331483155488968 0.19498202204704285 0.9802408814430237
vn 0.03331483155488968 0.19498202204704285 0.9802408814430237
vn 0.03331483155488968 0.19498202204704285 0.9802408814430237
vn 0.03331483155488968 0.19498202204704285 0.9802408814430237
vn 0.03331483155488968 0.19498202204704285 0.9802408814430237
vn 0.03331483155488968 0.19498202204704285 0.9802408814430237
vn 0.03331483155488968 0.19498202204704285 0.9802408814430237
vn 0.03331483155488968 0.19498202204704285 0.9802408814430237
vn 0.03331483155488968 0.19498202204704285 0.9802408814430237
vn 0.03331483155488968 0.19498202204704285 0.9802408814430237
vn 0.03331483155488968 0.19498202204704285 0.9802408814430237
vn 0.03331483155488968 0.19498202204704285 0.9802408814430237
vn 0.03331483155488968 0.19498202204704285 0.9802408814430237
vn 0.03331483155488968 0.19498202204704285 0.9802408814430237
vn 0.03331483155488968 0.19498202204704285 0.9802408814430237
vn 0.03331483155488968 0.19498202204704285 0.9802408814430237
vn 0.03331483155488968 0.19498202204704285 0.9802408814430237
vn 0.03331483155488968 0.19498202204704285 0.9802408814430237
vn 0.03331483155488968 0.19498202204704285 0.9802408814430237
vn 0.03331483155488968 0.19498202204704285 0.9802408814430237
vn 0.03331483155488968 0.19498202204704285 0.9802408814430237
vn 0.03331483155488968 0.19498202204704285 0.9802408814430237
vn 0.03331483155488968 0.19498202204704285 0.9802408814430237
vn 0.03331483155488968 0.19498202204704285 0.9802408814430237
vn 0.03331483155488968 0.19498202204704285 0.9802408814430237
vn 0.03331483155488968 0.19498202204704285 0.9802408814430237
vn 0.03331483155488968 0.19498202204704285 0.9802408814430237
vn 0.03331483155488968 0.19498202204704285 0.9802408814430237
vn 0.03331483155488968 0.19498202204704285 0.9802408814430237
vn 0.03331483155488968 0.19498202204704285 0.9802408814430237
vn 0.03331483155488968 0.19498202204704285 0.9802408814430237
vn 0.03331483155488968 0.19498202204704285 0.9802408814430237
vn 0.03331483155488968 0.19498202204704285 0.9802408814430237
vn 0.03331483155488968 0.19498202204704285 0.9802408814430237
f 1//1 2//2 3//3
f 4//4 5//5 6//6
f 7//7 8//8 9//9
f 10//10 11//11 12//12
f 13//13 14//14 15//15
f 16//16 17//17 18//18
f 19//19 20//20 21//21
f 22//22 23//23 24//24
f 25//25 26//26 27//27
f 28//28 29//29 30//30
f 31//31 32//32 33//33
f 34//34 35//35 36//36
f 37//37 38//38 39//39
f 40//40 41//41 42//42
f 43//43 44//44 45//45
f 46//46 47//47 48//48
f 49//49 50//50 51//51
f 52//52 53//53 54//54
f 55//55 56//56 57//57
f 58//58 59//59 60//60
f 61//61 62//62 63//63
f 64//64 65//65 66//66
f 67//67 68//68 69//69
f 70//70 71//71 72//72
f 73//73 74//74 75//75
f 76//76 77//77 78//78
f 79//79 80//80 81//81
f 82//82 83//83 84//84
f 85//85 86//86 87//87
f 88//88 89//89 90//90
f 91//91 92//92 93//93
f 94//94 95//95 96//96
f 97//97 98//98 99//99
f 100//100 101//101 102//102
f 103//103 104//104 105//105
f 106//106 107//107 108//108
f 109//109 110//110 111//111
f 112//112 113//113 114//114
f 115//115 116//116 117//117
f 118//118 119//119 120//120
f 121//121 122//122 123//123
f 124//124 125//125 126//126
f 127//127 128//128 129//129
f 130//130 131//131 132//132
f 133//133 134//134 135//135
f 136//136 137//137 138//138
f 139//139 140//140 141//141
f 142//142 143//143 144//144
f 145//145 146//146 147//147
f 148//148 149//149 150//150
f 151//151 152//152 153//153
f 154//154 155//155 156//156
f 157//157 158//158 159//159
f 160//160 161//161 162//162
f 163//163 164//164 165//165
f 166//166 167//167 168//168
f 169//169 170//170 171//171
f 172//172 173//173 174//174
f 175//175 176//176 177//177
f 178//178 179//179 180//180
f 181//181 182//182 183//183
f 184//184 185//185 186//186
f 187//187 188//188 189//189
f 190//190 191//191 192//192
