# OBJ file
o spoke_front_1
v 1.005466 40.656662 29.462740
v 1.081515 40.674133 29.461849
v 1.145155 40.718796 29.455130
v 1.186696 40.783840 29.443604
v 1.199814 40.859371 29.429024
v 1.182513 40.933891 29.413614
v 1.137425 40.996048 29.399717
v 1.071416 41.036385 29.389450
v 0.994534 41.048759 29.384377
v 0.918485 41.031284 29.385267
v 0.854845 40.986626 29.391989
v 0.813304 40.921577 29.403515
v 0.800186 40.846046 29.418093
v 0.817487 40.771530 29.433504
v 0.862575 40.709370 29.447399
v 0.928584 40.669037 29.457666
v 1.005466 40.656662 29.462740
v 2.005466 34.803951 0.039182
v 2.081515 34.821426 0.038291
v 2.145155 34.866085 0.031570
v 2.186696 34.931129 0.020044
v 2.199814 35.006664 0.005465
v 2.182513 35.081181 -0.009945
v 2.137425 35.143337 -0.023841
v 2.071416 35.183674 -0.034108
v 1.994534 35.196049 -0.039182
v 1.918485 35.178574 -0.038291
v 1.854845 35.133915 -0.031571
v 1.813304 35.068867 -0.020044
v 1.800186 34.993336 -0.005466
v 1.817487 34.918819 0.009945
v 1.862575 34.856663 0.023841
v 1.928584 34.816326 0.034108
v 2.005466 34.803951 0.039182
v 1.000000 40.852711 29.423559
v 1.000000 40.852711 29.423559
v 1.000000 40.852711 29.423559
v 1.000000 40.852711 29.423559
v 1.000000 40.852711 29.423559
v 1.000000 40.852711 29.423559
v 1.000000 40.852711 29.423559
v 1.000000 40.852711 29.423559
v 1.000000 40.852711 29.423559
v 1.000000 40.852711 29.423559
v 1.000000 40.852711 29.423559
v 1.000000 40.852711 29.423559
v 1.000000 40.852711 29.423559
v 1.000000 40.852711 29.423559
v 1.000000 40.852711 29.423559
v 1.000000 40.852711 29.423559
v 1.005466 40.656662 29.462740
v 1.081515 40.674133 29.461849
v 1.145155 40.718796 29.455130
v 1.186696 40.783840 29.443604
v 1.199814 40.859371 29.429024
v 1.182513 40.933891 29.413614
v 1.137425 40.996048 29.399717
v 1.071416 41.036385 29.389450
v 0.994534 41.048759 29.384377
v 0.918485 41.031284 29.385267
v 0.854845 40.986626 29.391989
v 0.813304 40.921577 29.403515
v 0.800186 40.846046 29.418093
v 0.817487 40.771530 29.433504
v 0.862575 40.709370 29.447399
v 0.928584 40.669037 29.457666
v 1.005466 40.656662 29.462740
v 2.000000 35.000000 -0.000000
v 2.000000 35.000000 -0.000000
v 2.000000 35.000000 -0.000000
v 2.000000 35.000000 -0.000000
v 2.000000 35.000000 -0.000000
v 2.000000 35.000000 -0.000000
v 2.000000 35.000000 -0.000000
v 2.000000 35.000000 -0.000000
v 2.000000 35.000000 -0.000000
v 2.000000 35.000000 -0.000000
v 2.000000 35.000000 -0.000000
v 2.000000 35.000000 -0.000000
v 2.000000 35.000000 -0.000000
v 2.000000 35.000000 -0.000000
v 2.000000 35.000000 -0.000000
v 2.000000 35.000000 -0.000000
v 2.005466 34.803951 0.039182
v 2.081515 34.821426 0.038291
v 2.145155 34.866085 0.031570
v 2.186696 34.931129 0.020044
v 2.199814 35.006664 0.005465
v 2.182513 35.081181 -0.009945
v 2.137425 35.143337 -0.023841
v 2.071416 35.183674 -0.034108
v 1.994534 35.196049 -0.039182
v 1.918485 35.178574 -0.038291
v 1.854845 35.133915 -0.031571
v 1.813304 35.068867 -0.020044
v 1.800186 34.993336 -0.005466
v 1.817487 34.918819 0.009945
v 1.862575 34.856663 0.023841
v 1.928584 34.816326 0.034108
v 2.005466 34.803951 0.039182
vn 0.027328 -0.980241 0.195911
vn 0.407576 -0.892875 0.191456
vn 0.725774 -0.669578 0.157854
vn 0.933479 -0.344343 0.100220
vn 0.999071 0.033315 0.027328
vn 0.912563 0.405901 -0.049724
vn 0.687126 0.716692 -0.119206
vn 0.357080 0.918373 -0.170540
vn -0.027328 0.980241 -0.195911
vn -0.407576 0.892875 -0.191456
vn -0.725774 0.669578 -0.157854
vn -0.933479 0.344343 -0.100220
vn -0.999071 -0.033315 -0.027328
vn -0.912563 -0.405901 0.049724
vn -0.687126 -0.716692 0.119206
vn -0.357080 -0.918373 0.170540
vn 0.027328 -0.980241 0.195911
vn 0.027328 -0.980241 0.195911
vn 0.407576 -0.892875 0.191456
vn 0.725774 -0.669578 0.157854
vn 0.933479 -0.344343 0.100220
vn 0.999071 0.033315 0.027328
vn 0.912563 0.405901 -0.049724
vn 0.687126 0.716692 -0.119206
vn 0.357080 0.918373 -0.170540
vn -0.027328 0.980241 -0.195911
vn -0.407576 0.892875 -0.191456
vn -0.725774 0.669578 -0.157854
vn -0.933479 0.344343 -0.100220
vn -0.999071 -0.033315 -0.027328
vn -0.912563 -0.405901 0.049724
vn -0.687126 -0.716692 0.119206
vn -0.357080 -0.918373 0.170540
vn 0.027328 -0.980241 0.195911
vn -0.033315 0.194982 0.980241
vn -0.033315 0.194982 0.980241
vn -0.033315 0.194982 0.980241
vn -0.033315 0.194982 0.980241
vn -0.033315 0.194982 0.980241
vn -0.033315 0.194982 0.980241
vn -0.033315 0.194982 0.980241
vn -0.033315 0.194982 0.980241
vn -0.033315 0.194982 0.980241
vn -0.033315 0.194982 0.980241
vn -0.033315 0.194982 0.980241
vn -0.033315 0.194982 0.980241
vn -0.033315 0.194982 0.980241
vn -0.033315 0.194982 0.980241
vn -0.033315 0.194982 0.980241
vn -0.033315 0.194982 0.980241
vn -0.033315 0.194982 0.980241
vn -0.033315 0.194982 0.980241
vn -0.033315 0.194982 0.980241
vn -0.033315 0.194982 0.980241
vn -0.033315 0.194982 0.980241
vn -0.033315 0.194982 0.980241
vn -0.033315 0.194982 0.980241
vn -0.033315 0.194982 0.980241
vn -0.033315 0.194982 0.980241
vn -0.033315 0.194982 0.980241
vn -0.033315 0.194982 0.980241
vn -0.033315 0.194982 0.980241
vn -0.033315 0.194982 0.980241
vn -0.033315 0.194982 0.980241
vn -0.033315 0.194982 0.980241
vn -0.033315 0.194982 0.980241
vn -0.033315 0.194982 0.980241
vn 0.033315 -0.194982 -0.980241
vn 0.033315 -0.194982 -0.980241
vn 0.033315 -0.194982 -0.980241
vn 0.033315 -0.194982 -0.980241
vn 0.033315 -0.194982 -0.980241
vn 0.033315 -0.194982 -0.980241
vn 0.033315 -0.194982 -0.980241
vn 0.033315 -0.194982 -0.980241
vn 0.033315 -0.194982 -0.980241
vn 0.033315 -0.194982 -0.980241
vn 0.033315 -0.194982 -0.980241
vn 0.033315 -0.194982 -0.980241
vn 0.033315 -0.194982 -0.980241
vn 0.033315 -0.194982 -0.980241
vn 0.033315 -0.194982 -0.980241
vn 0.033315 -0.194982 -0.980241
vn 0.033315 -0.194982 -0.980241
vn 0.033315 -0.194982 -0.980241
vn 0.033315 -0.194982 -0.980241
vn 0.033315 -0.194982 -0.980241
vn 0.033315 -0.194982 -0.980241
vn 0.033315 -0.194982 -0.980241
vn 0.033315 -0.194982 -0.980241
vn 0.033315 -0.194982 -0.980241
vn 0.033315 -0.194982 -0.980241
vn 0.033315 -0.194982 -0.980241
vn 0.033315 -0.194982 -0.980241
vn 0.033315 -0.194982 -0.980241
vn 0.033315 -0.194982 -0.980241
vn 0.033315 -0.194982 -0.980241
vn 0.033315 -0.194982 -0.980241
vn 0.033315 -0.194982 -0.980241
vn 0.033315 -0.194982 -0.980241
f 1//1 18//18 2//2
f 18//18 19//19 2//2
f 2//2 19//19 3//3
f 19//19 20//20 3//3
f 3//3 20//20 4//4
f 20//20 21//21 4//4
f 4//4 21//21 5//5
f 21//21 22//22 5//5
f 5//5 22//22 6//6
f 22//22 23//23 6//6
f 6//6 23//23 7//7
f 23//23 24//24 7//7
f 7//7 24//24 8//8
f 24//24 25//25 8//8
f 8//8 25//25 9//9
f 25//25 26//26 9//9
f 9//9 26//26 10//10
f 26//26 27//27 10//10
f 10//10 27//27 11//11
f 27//27 28//28 11//11
f 11//11 28//28 12//12
f 28//28 29//29 12//12
f 12//12 29//29 13//13
f 29//29 30//30 13//13
f 13//13 30//30 14//14
f 30//30 31//31 14//14
f 14//14 31//31 15//15
f 31//31 32//32 15//15
f 15//15 32//32 16//16
f 32//32 33//33 16//16
f 16//16 33//33 17//17
f 33//33 34//34 17//17
f 51//51 52//52 35//35
f 52//52 53//53 36//36
f 53//53 54//54 37//37
f 54//54 55//55 38//38
f 55//55 56//56 39//39
f 56//56 57//57 40//40
f 57//57 58//58 41//41
f 58//58 59//59 42//42
f 59//59 60//60 43//43
f 60//60 61//61 44//44
f 61//61 62//62 45//45
f 62//62 63//63 46//46
f 63//63 64//64 47//47
f 64//64 65//65 48//48
f 65//65 66//66 49//49
f 66//66 67//67 50//50
f 85//85 84//84 68//68
f 86//86 85//85 69//69
f 87//87 86//86 70//70
f 88//88 87//87 71//71
f 89//89 88//88 72//72
f 90//90 89//89 73//73
f 91//91 90//90 74//74
f 92//92 91//91 75//75
f 93//93 92//92 76//76
f 94//94 93//93 77//77
f 95//95 94//94 78//78
f 96//96 95//95 79//79
f 97//97 96//96 80//80
f 98//98 97//97 81//81
f 99//99 98//98 82//82
f 100//100 99//99 83//83
