# OBJ file
o spoke_front_14
v 0.995550 46.665176 -27.639732
v 1.072364 46.653667 -27.647270
v 1.138161 46.615799 -27.665331
v 1.182925 46.557331 -27.691164
v 1.199839 46.487167 -27.720837
v 1.186331 46.415989 -27.749832
v 1.144455 46.354630 -27.773737
v 1.080587 46.312435 -27.788910
v 1.004450 46.295830 -27.793041
v 0.927636 46.307339 -27.785503
v 0.861839 46.345207 -27.767443
v 0.817075 46.403675 -27.741610
v 0.800161 46.473839 -27.711935
v 0.813669 46.545017 -27.682940
v 0.855545 46.606377 -27.659037
v 0.919413 46.648571 -27.643864
v 0.995550 46.665176 -27.639732
v 1.995550 35.184673 0.076655
v 2.072364 35.173164 0.069117
v 2.138161 35.135296 0.051057
v 2.182925 35.076828 0.025223
v 2.199839 35.006664 -0.004450
v 2.186331 34.935486 -0.033446
v 2.144455 34.874126 -0.057350
v 2.080587 34.831932 -0.072523
v 2.004450 34.815327 -0.076655
v 1.927636 34.826836 -0.069116
v 1.861839 34.864704 -0.051056
v 1.817075 34.923172 -0.025223
v 1.800161 34.993336 0.004451
v 1.813669 35.064514 0.033446
v 1.855545 35.125874 0.057350
v 1.919413 35.168064 0.072523
v 1.995550 35.184673 0.076655
v 1.000000 46.480503 -27.716387
v 1.000000 46.480503 -27.716387
v 1.000000 46.480503 -27.716387
v 1.000000 46.480503 -27.716387
v 1.000000 46.480503 -27.716387
v 1.000000 46.480503 -27.716387
v 1.000000 46.480503 -27.716387
v 1.000000 46.480503 -27.716387
v 1.000000 46.480503 -27.716387
v 1.000000 46.480503 -27.716387
v 1.000000 46.480503 -27.716387
v 1.000000 46.480503 -27.716387
v 1.000000 46.480503 -27.716387
v 1.000000 46.480503 -27.716387
v 1.000000 46.480503 -27.716387
v 1.000000 46.480503 -27.716387
v 0.995550 46.665176 -27.639732
v 1.072364 46.653667 -27.647270
v 1.138161 46.615799 -27.665331
v 1.182925 46.557331 -27.691164
v 1.199839 46.487167 -27.720837
v 1.186331 46.415989 -27.749832
v 1.144455 46.354630 -27.773737
v 1.080587 46.312435 -27.788910
v 1.004450 46.295830 -27.793041
v 0.927636 46.307339 -27.785503
v 0.861839 46.345207 -27.767443
v 0.817075 46.403675 -27.741610
v 0.800161 46.473839 -27.711935
v 0.813669 46.545017 -27.682940
v 0.855545 46.606377 -27.659037
v 0.919413 46.648571 -27.643864
v 0.995550 46.665176 -27.639732
v 2.000000 35.000000 0.000000
v 2.000000 35.000000 0.000000
v 2.000000 35.000000 0.000000
v 2.000000 35.000000 0.000000
v 2.000000 35.000000 0.000000
v 2.000000 35.000000 0.000000
v 2.000000 35.000000 0.000000
v 2.000000 35.000000 0.000000
v 2.000000 35.000000 0.000000
v 2.000000 35.000000 0.000000
v 2.000000 35.000000 0.000000
v 2.000000 35.000000 0.000000
v 2.000000 35.000000 0.000000
v 2.000000 35.000000 0.000000
v 2.000000 35.000000 0.000000
v 2.000000 35.000000 0.000000
v 1.995550 35.184673 0.076655
v 2.072364 35.173164 0.069117
v 2.138161 35.135296 0.051057
v 2.182925 35.076828 0.025223
v 2.199839 35.006664 -0.004450
v 2.186331 34.935486 -0.033446
v 2.144455 34.874126 -0.057350
v 2.080587 34.831932 -0.072523
v 2.004450 34.815327 -0.076655
v 1.927636 34.826836 -0.069116
v 1.861839 34.864704 -0.051056
v 1.817075 34.923172 -0.025223
v 1.800161 34.993336 0.004451
v 1.813669 35.064514 0.033446
v 1.855545 35.125874 0.057350
v 1.919413 35.168064 0.072523
v 1.995550 35.184673 0.076655
vn -0.022251 0.923367 0.383274
vn 0.361819 0.865829 0.345584
vn 0.690805 0.676476 0.255281
vn 0.914623 0.384136 0.126115
vn 0.999197 0.033315 -0.022251
vn 0.931653 -0.322578 -0.167230
vn 0.722273 -0.629362 -0.286750
vn 0.402934 -0.840331 -0.362614
vn 0.022251 -0.923367 -0.383274
vn -0.361819 -0.865829 -0.345584
vn -0.690805 -0.676476 -0.255281
vn -0.914623 -0.384136 -0.126115
vn -0.999197 -0.033315 0.022251
vn -0.931653 0.322578 0.167230
vn -0.722273 0.629362 0.286750
vn -0.402934 0.840331 0.362614
vn -0.022251 0.923367 0.383274
vn -0.022251 0.923367 0.383274
vn 0.361819 0.865829 0.345584
vn 0.690805 0.676476 0.255281
vn 0.914623 0.384136 0.126115
vn 0.999197 0.033315 -0.022251
vn 0.931653 -0.322578 -0.167230
vn 0.722273 -0.629362 -0.286750
vn 0.402934 -0.840331 -0.362614
vn 0.022251 -0.923367 -0.383274
vn -0.361819 -0.865829 -0.345584
vn -0.690805 -0.676476 -0.255281
vn -0.914623 -0.384136 -0.126115
vn -0.999197 -0.033315 0.022251
vn -0.931653 0.322578 0.167230
vn -0.722273 0.629362 0.286750
vn -0.402934 0.840331 0.362614
vn -0.022251 0.923367 0.383274
vn -0.033315 0.382471 -0.923367
vn -0.033315 0.382471 -0.923367
vn -0.033315 0.382471 -0.923367
vn -0.033315 0.382471 -0.923367
vn -0.033315 0.382471 -0.923367
vn -0.033315 0.382471 -0.923367
vn -0.033315 0.382471 -0.923367
vn -0.033315 0.382471 -0.923367
vn -0.033315 0.382471 -0.923367
vn -0.033315 0.382471 -0.923367
vn -0.033315 0.382471 -0.923367
vn -0.033315 0.382471 -0.923367
vn -0.033315 0.382471 -0.923367
vn -0.033315 0.382471 -0.923367
vn -0.033315 0.382471 -0.923367
vn -0.033315 0.382471 -0.923367
vn -0.033315 0.382471 -0.923367
vn -0.033315 0.382471 -0.923367
vn -0.033315 0.382471 -0.923367
vn -0.033315 0.382471 -0.923367
vn -0.033315 0.382471 -0.923367
vn -0.033315 0.382471 -0.923367
vn -0.033315 0.382471 -0.923367
vn -0.033315 0.382471 -0.923367
vn -0.033315 0.382471 -0.923367
vn -0.033315 0.382471 -0.923367
vn -0.033315 0.382471 -0.923367
vn -0.033315 0.382471 -0.923367
vn -0.033315 0.382471 -0.923367
vn -0.033315 0.382471 -0.923367
vn -0.033315 0.382471 -0.923367
vn -0.033315 0.382471 -0.923367
vn -0.033315 0.382471 -0.923367
vn 0.033315 -0.382471 0.923367
vn 0.033315 -0.382471 0.923367
vn 0.033315 -0.382471 0.923367
vn 0.033315 -0.382471 0.923367
vn 0.033315 -0.382471 0.923367
vn 0.033315 -0.382471 0.923367
vn 0.033315 -0.382471 0.923367
vn 0.033315 -0.382471 0.923367
vn 0.033315 -0.382471 0.923367
vn 0.033315 -0.382471 0.923367
vn 0.033315 -0.382471 0.923367
vn 0.033315 -0.382471 0.923367
vn 0.033315 -0.382471 0.923367
vn 0.033315 -0.382471 0.923367
vn 0.033315 -0.382471 0.923367
vn 0.033315 -0.382471 0.923367
vn 0.033315 -0.382471 0.923367
vn 0.033315 -0.382471 0.923367
vn 0.033315 -0.382471 0.923367
vn 0.033315 -0.382471 0.923367
vn 0.033315 -0.382471 0.923367
vn 0.033315 -0.382471 0.923367
vn 0.033315 -0.382471 0.923367
vn 0.033315 -0.382471 0.923367
vn 0.033315 -0.382471 0.923367
vn 0.033315 -0.382471 0.923367
vn 0.033315 -0.382471 0.923367
vn 0.033315 -0.382471 0.923367
vn 0.033315 -0.382471 0.923367
vn 0.033315 -0.382471 0.923367
vn 0.033315 -0.382471 0.923367
vn 0.033315 -0.382471 0.923367
vn 0.033315 -0.382471 0.923367
f 1//1 18//18 2//2
f 18//18 19//19 2//2
f 2//2 19//19 3//3
f 19//19 20//20 3//3
f 3//3 20//20 4//4
f 20//20 21//21 4//4
f 4//4 21//21 5//5
f 21//21 22//22 5//5
f 5//5 22//22 6//6
f 22//22 23//23 6//6
f 6//6 23//23 7//7
f 23//23 24//24 7//7
f 7//7 24//24 8//8
f 24//24 25//25 8//8
f 8//8 25//25 9//9
f 25//25 26//26 9//9
f 9//9 26//26 10//10
f 26//26 27//27 10//10
f 10//10 27//27 11//11
f 27//27 28//28 11//11
f 11//11 28//28 12//12
f 28//28 29//29 12//12
f 12//12 29//29 13//13
f 29//29 30//30 13//13
f 13//13 30//30 14//14
f 30//30 31//31 14//14
f 14//14 31//31 15//15
f 31//31 32//32 15//15
f 15//15 32//32 16//16
f 32//32 33//33 16//16
f 16//16 33//33 17//17
f 33//33 34//34 17//17
f 51//51 52//52 35//35
f 52//52 53//53 36//36
f 53//53 54//54 37//37
f 54//54 55//55 38//38
f 55//55 56//56 39//39
f 56//56 57//57 40//40
f 57//57 58//58 41//41
f 58//58 59//59 42//42
f 59//59 60//60 43//43
f 60//60 61//61 44//44
f 61//61 62//62 45//45
f 62//62 63//63 46//46
f 63//63 64//64 47//47
f 64//64 65//65 48//48
f 65//65 66//66 49//49
f 66//66 67//67 50//50
f 85//85 84//84 68//68
f 86//86 85//85 69//69
f 87//87 86//86 70//70
f 88//88 87//87 71//71
f 89//89 88//88 72//72
f 90//90 89//89 73//73
f 91//91 90//90 74//74
f 92//92 91//91 75//75
f 93//93 92//92 76//76
f 94//94 93//93 77//77
f 95//95 94//94 78//78
f 96//96 95//95 79//79
f 97//97 96//96 80//80
f 98//98 97//97 81//81
f 99//99 98//98 82//82
f 100//100 99//99 83//83
