v 0.781326 34.829971 2.524899
v 0.731379 34.929670 2.816446
v 0.570087 35.040076 3.059817
v 0.322004 35.144381 3.217961
v 0.024899 35.226705 3.266802
v -0.275997 35.274516 3.198904
v -0.534875 35.280534 3.024605
v -0.712323 35.243843 2.770439
v -0.781326 35.170029 2.475101
v -0.731379 35.070330 2.183554
v -0.570087 34.959924 1.940183
v -0.322004 34.855619 1.782039
v -0.024899 34.773295 1.733198
v 0.275997 34.725484 1.801096
v 0.534875 34.719466 1.975395
v 0.712323 34.756157 2.229561
v -6.718674 1.829971 12.524899
v -6.768621 1.929670 12.816446
v -6.929913 2.040076 13.059817
v -7.177996 2.144381 13.217961
v -7.475101 2.226705 13.266802
v -7.775997 2.274516 13.198904
v -8.034875 2.280534 13.024605
v -8.212323 2.243843 12.770439
v -8.281326 2.170029 12.475101
v -8.231379 2.070330 12.183554
v -8.070087 1.959924 11.940183
v -7.822004 1.855619 11.782039
v -7.524899 1.773295 11.733198
v -7.224003 1.725484 11.801096
v -6.965125 1.719466 11.975395
v -6.787677 1.756157 12.229561
v -0.000000 35.000000 2.500000
v -7.500000 2.000000 12.500000
f 1 17 18
f 1 18 2
f 33 2 1
f 34 17 18
f 2 18 19
f 2 19 3
f 33 3 2
f 34 18 19
f 3 19 20
f 3 20 4
f 33 4 3
f 34 19 20
f 4 20 21
f 4 21 5
f 33 5 4
f 34 20 21
f 5 21 22
f 5 22 6
f 33 6 5
f 34 21 22
f 6 22 23
f 6 23 7
f 33 7 6
f 34 22 23
f 7 23 24
f 7 24 8
f 33 8 7
f 34 23 24
f 8 24 25
f 8 25 9
f 33 9 8
f 34 24 25
f 9 25 26
f 9 26 10
f 33 10 9
f 34 25 26
f 10 26 27
f 10 27 11
f 33 11 10
f 34 26 27
f 11 27 28
f 11 28 12
f 33 12 11
f 34 27 28
f 12 28 29
f 12 29 13
f 33 13 12
f 34 28 29
f 13 29 30
f 13 30 14
f 33 14 13
f 34 29 30
f 14 30 31
f 14 31 15
f 33 15 14
f 34 30 31
f 15 31 32
f 15 32 16
f 33 16 15
f 34 31 32
f 16 32 17
f 16 17 1
f 33 1 16
f 34 32 17
