o 
v 0.9900371432304382 23.70417022705078 -27.79252052307129
v 1.0671945810317993 23.692663192749023 -27.790538787841797
v 1.134122371673584 23.65479278564453 -27.777265548706055
v 1.180631160736084 23.596324920654297 -27.75472640991211
v 1.1996405124664307 23.526159286499023 -27.726348876953125
v 1.1882563829421997 23.454980850219727 -27.696455001831055
v 1.14821195602417 23.393625259399414 -27.66959571838379
v 1.0856035947799683 23.351430892944336 -27.649860382080078
v 1.0099629163742065 23.334823608398438 -27.64025115966797
v 0.9328053593635559 23.346330642700195 -27.642234802246094
v 0.865877628326416 23.384201049804688 -27.655506134033203
v 0.8193687796592712 23.442668914794922 -27.67804718017578
v 0.8003594279289246 23.512834548950195 -27.706422805786133
v 0.8117435574531555 23.584012985229492 -27.736316680908203
v 0.8517879843711853 23.645368576049805 -27.76317596435547
v 0.914396345615387 23.687562942504883 -27.782913208007812
v 0.9900371432304382 23.70417022705078 -27.79252052307129
v 1.9900370836257935 35.18467330932617 -0.07613448798656464
v 2.067194700241089 35.17316436767578 -0.07415169477462769
v 2.134122371673584 35.13529586791992 -0.06087995320558548
v 2.180631160736084 35.07682800292969 -0.03833973780274391
v 2.1996405124664307 35.00666427612305 -0.009962611831724644
v 2.1882565021514893 34.93548583984375 0.01993127167224884
v 2.14821195602417 34.87412643432617 0.04679084196686745
v 2.085603713989258 34.83193588256836 0.06652696430683136
v 2.009962797164917 34.81532669067383 0.07613500207662582
v 1.9328054189682007 34.82683563232422 0.07415221631526947
v 1.865877628326416 34.86470413208008 0.06088046729564667
v 1.819368839263916 34.92317199707031 0.0383402518928051
v 1.8003594875335693 34.99333572387695 0.00996312778443098
v 1.8117436170578003 35.06451416015625 -0.019930755719542503
v 1.85178804397583 35.12587356567383 -0.04679032415151596
v 1.9143964052200317 35.168067932128906 -0.06652645021677017
v 1.9900370836257935 35.18467330932617 -0.07613448798656464
v 1 23.51949691772461 -27.716386795043945
v 1 23.51949691772461 -27.716386795043945
v 1 23.51949691772461 -27.716386795043945
v 1 23.51949691772461 -27.716386795043945
v 1 23.51949691772461 -27.716386795043945
v 1 23.51949691772461 -27.716386795043945
v 1 23.51949691772461 -27.716386795043945
v 1 23.51949691772461 -27.716386795043945
v 1 23.51949691772461 -27.716386795043945
v 1 23.51949691772461 -27.716386795043945
v 1 23.51949691772461 -27.716386795043945
v 1 23.51949691772461 -27.716386795043945
v 1 23.51949691772461 -27.716386795043945
v 1 23.51949691772461 -27.716386795043945
v 1 23.51949691772461 -27.716386795043945
v 1 23.51949691772461 -27.716386795043945
v 0.9900371432304382 23.70417022705078 -27.79252052307129
v 1.0671945810317993 23.692663192749023 -27.790538787841797
v 1.134122371673584 23.65479278564453 -27.777265548706055
v 1.180631160736084 23.596324920654297 -27.75472640991211
v 1.1996405124664307 23.526159286499023 -27.726348876953125
v 1.1882563829421997 23.454980850219727 -27.696455001831055
v 1.14821195602417 23.393625259399414 -27.66959571838379
v 1.0856035947799683 23.351430892944336 -27.649860382080078
v 1.0099629163742065 23.334823608398438 -27.64025115966797
v 0.9328053593635559 23.346330642700195 -27.642234802246094
v 0.865877628326416 23.384201049804688 -27.655506134033203
v 0.8193687796592712 23.442668914794922 -27.67804718017578
v 0.8003594279289246 23.512834548950195 -27.706422805786133
v 0.8117435574531555 23.584012985229492 -27.736316680908203
v 0.8517879843711853 23.645368576049805 -27.76317596435547
v 0.914396345615387 23.687562942504883 -27.782913208007812
v 0.9900371432304382 23.70417022705078 -27.79252052307129
v 2 35 2.5764191491362e-7
v 2 35 2.5764191491362e-7
v 2 35 2.5764191491362e-7
v 2 35 2.5764191491362e-7
v 2 35 2.5764191491362e-7
v 2 35 2.5764191491362e-7
v 2 35 2.5764191491362e-7
v 2 35 2.5764191491362e-7
v 2 35 2.5764191491362e-7
v 2 35 2.5764191491362e-7
v 2 35 2.5764191491362e-7
v 2 35 2.5764191491362e-7
v 2 35 2.5764191491362e-7
v 2 35 2.5764191491362e-7
v 2 35 2.5764191491362e-7
v 2 35 2.5764191491362e-7
v 1.9900370836257935 35.18467330932617 -0.07613448798656464
v 2.067194700241089 35.17316436767578 -0.07415169477462769
v 2.134122371673584 35.13529586791992 -0.06087995320558548
v 2.180631160736084 35.07682800292969 -0.03833973780274391
v 2.1996405124664307 35.00666427612305 -0.009962611831724644
v 2.1882565021514893 34.93548583984375 0.01993127167224884
v 2.14821195602417 34.87412643432617 0.04679084196686745
v 2.085603713989258 34.83193588256836 0.06652696430683136
v 2.009962797164917 34.81532669067383 0.07613500207662582
v 1.9328054189682007 34.82683563232422 0.07415221631526947
v 1.865877628326416 34.86470413208008 0.06088046729564667
v 1.819368839263916 34.92317199707031 0.0383402518928051
v 1.8003594875335693 34.99333572387695 0.00996312778443098
v 1.8117436170578003 35.06451416015625 -0.019930755719542503
v 1.85178804397583 35.12587356567383 -0.04679032415151596
v 1.9143964052200317 35.168067932128906 -0.06652645021677017
v 1.9900370836257935 35.18467330932617 -0.07613448798656464
vt 0 1
vt 0.0625 1
vt 0.125 1
vt 0.1875 1
vt 0.25 1
vt 0.3125 1
vt 0.375 1
vt 0.4375 1
vt 0.5 1
vt 0.5625 1
vt 0.625 1
vt 0.6875 1
vt 0.75 1
vt 0.8125 1
vt 0.875 1
vt 0.9375 1
vt 1 1
vt 0 0
vt 0.0625 0
vt 0.125 0
vt 0.1875 0
vt 0.25 0
vt 0.3125 0
vt 0.375 0
vt 0.4375 0
vt 0.5 0
vt 0.5625 0
vt 0.625 0
vt 0.6875 0
vt 0.75 0
vt 0.8125 0
vt 0.875 0
vt 0.9375 0
vt 1 0
vt 0.5 0.5
vt 0.5 0.5
vt 0.5 0.5
vt 0.5 0.5
vt 0.5 0.5
vt 0.5 0.5
vt 0.5 0.5
vt 0.5 0.5
vt 0.5 0.5
vt 0.5 0.5
vt 0.5 0.5
vt 0.5 0.5
vt 0.5 0.5
vt 0.5 0.5
vt 0.5 0.5
vt 0.5 0.5
vt 1 0.5
vt 0.9619397521018982 0.6913416981697083
vt 0.8535534143447876 0.8535534143447876
vt 0.6913416981697083 0.9619397521018982
vt 0.5 1
vt 0.30865827202796936 0.9619397521018982
vt 0.1464466154575348 0.8535534143447876
vt 0.03806023299694061 0.6913416981697083
vt 0 0.5
vt 0.03806023299694061 0.30865827202796936
vt 0.1464466154575348 0.1464466154575348
vt 0.30865827202796936 0.03806023299694061
vt 0.5 0
vt 0.6913416981697083 0.03806023299694061
vt 0.8535534143447876 0.1464466154575348
vt 0.9619397521018982 0.30865827202796936
vt 1 0.5
vt 0.5 0.5
vt 0.5 0.5
vt 0.5 0.5
vt 0.5 0.5
vt 0.5 0.5
vt 0.5 0.5
vt 0.5 0.5
vt 0.5 0.5
vt 0.5 0.5
vt 0.5 0.5
vt 0.5 0.5
vt 0.5 0.5
vt 0.5 0.5
vt 0.5 0.5
vt 0.5 0.5
vt 0.5 0.5
vt 1 0.5
vt 0.9619397521018982 0.30865827202796936
vt 0.8535534143447876 0.1464466154575348
vt 0.6913416981697083 0.03806023299694061
vt 0.5 0
vt 0.30865827202796936 0.03806023299694061
vt 0.1464466154575348 0.1464466154575348
vt 0.03806023299694061 0.30865827202796936
vt 0 0.5
vt 0.03806023299694061 0.6913416981697083
vt 0.1464466154575348 0.8535534143447876
vt 0.30865827202796936 0.9619397521018982
vt 0.5 1
vt 0.6913416981697083 0.9619397521018982
vt 0.8535534143447876 0.8535534143447876
vt 0.9619397521018982 0.6913416981697083
vt 1 0.5
vn -0.049814348681789876 0.9233666937193842 -0.3806737180252164
vn 0.3359731710632083 0.8658286273381234 -0.37075978261876397
vn 0.6706118453871466 0.6764759886452186 -0.3044010341850367
vn 0.9031559288660513 0.38413602367913324 -0.19169998295796567
vn 0.998202711176683 0.033314832543960386 -0.04981434865666214
vn 0.9412821752915055 -0.3225782589567598 0.09965507175712021
vn 0.7410599728695243 -0.6293617009251177 0.23395291410722588
vn 0.4280180998646194 -0.8403305543969726 0.33263353038314925
vn 0.049814348681789876 -0.9233666937193842 0.3806737180252164
vn -0.3359731710632083 -0.8658286273381234 0.37075978261876397
vn -0.6706118453871466 -0.6764759886452186 0.3044010341850367
vn -0.9031559288660513 -0.38413602367913324 0.19169998295796567
vn -0.998202711176683 -0.033314832543960386 0.04981434865666214
vn -0.9412821752915055 0.3225782589567598 -0.09965507175712021
vn -0.7410599728695243 0.6293617009251177 -0.23395291410722588
vn -0.4280180998646194 0.8403305543969726 -0.33263353038314925
vn -0.049814348681789876 0.9233666937193842 -0.3806737180252164
vn -0.049814348681789876 0.9233666937193842 -0.3806737180252164
vn 0.3359731710632083 0.8658286273381234 -0.37075978261876397
vn 0.6706118453871466 0.6764759886452186 -0.3044010341850367
vn 0.9031559288660513 0.38413602367913324 -0.19169998295796567
vn 0.998202711176683 0.033314832543960386 -0.04981434865666214
vn 0.9412821752915055 -0.3225782589567598 0.09965507175712021
vn 0.7410599728695243 -0.6293617009251177 0.23395291410722588
vn 0.4280180998646194 -0.8403305543969726 0.33263353038314925
vn 0.049814348681789876 -0.9233666937193842 0.3806737180252164
vn -0.3359731710632083 -0.8658286273381234 0.37075978261876397
vn -0.6706118453871466 -0.6764759886452186 0.3044010341850367
vn -0.9031559288660513 -0.38413602367913324 0.19169998295796567
vn -0.998202711176683 -0.033314832543960386 0.04981434865666214
vn -0.9412821752915055 0.3225782589567598 -0.09965507175712021
vn -0.7410599728695243 0.6293617009251177 -0.23395291410722588
vn -0.4280180998646194 0.8403305543969726 -0.33263353038314925
vn -0.049814348681789876 0.9233666937193842 -0.3806737180252164
vn -0.03331483255856234 -0.38247100671042555 -0.9233666936583258
vn -0.03331483255856234 -0.38247100671042555 -0.9233666936583258
vn -0.03331483255856234 -0.38247100671042555 -0.9233666936583258
vn -0.03331483255856234 -0.38247100671042555 -0.9233666936583258
vn -0.03331483255856234 -0.38247100671042555 -0.9233666936583258
vn -0.03331483255856234 -0.38247100671042555 -0.9233666936583258
vn -0.03331483255856234 -0.38247100671042555 -0.9233666936583258
vn -0.03331483255856234 -0.38247100671042555 -0.9233666936583258
vn -0.03331483255856234 -0.38247100671042555 -0.9233666936583258
vn -0.03331483255856234 -0.38247100671042555 -0.9233666936583258
vn -0.03331483255856234 -0.38247100671042555 -0.9233666936583258
vn -0.03331483255856234 -0.38247100671042555 -0.9233666936583258
vn -0.03331483255856234 -0.38247100671042555 -0.9233666936583258
vn -0.03331483255856234 -0.38247100671042555 -0.9233666936583258
vn -0.03331483255856234 -0.38247100671042555 -0.9233666936583258
vn -0.03331483255856234 -0.38247100671042555 -0.9233666936583258
vn -0.03331483255856234 -0.38247100671042555 -0.9233666936583258
vn -0.03331483255856234 -0.38247100671042555 -0.9233666936583258
vn -0.03331483255856234 -0.38247100671042555 -0.9233666936583258
vn -0.03331483255856234 -0.38247100671042555 -0.9233666936583258
vn -0.03331483255856234 -0.38247100671042555 -0.9233666936583258
vn -0.03331483255856234 -0.38247100671042555 -0.9233666936583258
vn -0.03331483255856234 -0.38247100671042555 -0.9233666936583258
vn -0.03331483255856234 -0.38247100671042555 -0.9233666936583258
vn -0.03331483255856234 -0.38247100671042555 -0.9233666936583258
vn -0.03331483255856234 -0.38247100671042555 -0.9233666936583258
vn -0.03331483255856234 -0.38247100671042555 -0.9233666936583258
vn -0.03331483255856234 -0.38247100671042555 -0.9233666936583258
vn -0.03331483255856234 -0.38247100671042555 -0.9233666936583258
vn -0.03331483255856234 -0.38247100671042555 -0.9233666936583258
vn -0.03331483255856234 -0.38247100671042555 -0.9233666936583258
vn -0.03331483255856234 -0.38247100671042555 -0.9233666936583258
vn -0.03331483255856234 -0.38247100671042555 -0.9233666936583258
vn 0.03331483255856234 0.38247100671042555 0.9233666936583258
vn 0.03331483255856234 0.38247100671042555 0.9233666936583258
vn 0.03331483255856234 0.38247100671042555 0.9233666936583258
vn 0.03331483255856234 0.38247100671042555 0.9233666936583258
vn 0.03331483255856234 0.38247100671042555 0.9233666936583258
vn 0.03331483255856234 0.38247100671042555 0.9233666936583258
vn 0.03331483255856234 0.38247100671042555 0.9233666936583258
vn 0.03331483255856234 0.38247100671042555 0.9233666936583258
vn 0.03331483255856234 0.38247100671042555 0.9233666936583258
vn 0.03331483255856234 0.38247100671042555 0.9233666936583258
vn 0.03331483255856234 0.38247100671042555 0.9233666936583258
vn 0.03331483255856234 0.38247100671042555 0.9233666936583258
vn 0.03331483255856234 0.38247100671042555 0.9233666936583258
vn 0.03331483255856234 0.38247100671042555 0.9233666936583258
vn 0.03331483255856234 0.38247100671042555 0.9233666936583258
vn 0.03331483255856234 0.38247100671042555 0.9233666936583258
vn 0.03331483255856234 0.38247100671042555 0.9233666936583258
vn 0.03331483255856234 0.38247100671042555 0.9233666936583258
vn 0.03331483255856234 0.38247100671042555 0.9233666936583258
vn 0.03331483255856234 0.38247100671042555 0.9233666936583258
vn 0.03331483255856234 0.38247100671042555 0.9233666936583258
vn 0.03331483255856234 0.38247100671042555 0.9233666936583258
vn 0.03331483255856234 0.38247100671042555 0.9233666936583258
vn 0.03331483255856234 0.38247100671042555 0.9233666936583258
vn 0.03331483255856234 0.38247100671042555 0.9233666936583258
vn 0.03331483255856234 0.38247100671042555 0.9233666936583258
vn 0.03331483255856234 0.38247100671042555 0.9233666936583258
vn 0.03331483255856234 0.38247100671042555 0.9233666936583258
vn 0.03331483255856234 0.38247100671042555 0.9233666936583258
vn 0.03331483255856234 0.38247100671042555 0.9233666936583258
vn 0.03331483255856234 0.38247100671042555 0.9233666936583258
vn 0.03331483255856234 0.38247100671042555 0.9233666936583258
vn 0.03331483255856234 0.38247100671042555 0.9233666936583258
f 1/1/1 18/18/18 2/2/2
f 18/18/18 19/19/19 2/2/2
f 2/2/2 19/19/19 3/3/3
f 19/19/19 20/20/20 3/3/3
f 3/3/3 20/20/20 4/4/4
f 20/20/20 21/21/21 4/4/4
f 4/4/4 21/21/21 5/5/5
f 21/21/21 22/22/22 5/5/5
f 5/5/5 22/22/22 6/6/6
f 22/22/22 23/23/23 6/6/6
f 6/6/6 23/23/23 7/7/7
f 23/23/23 24/24/24 7/7/7
f 7/7/7 24/24/24 8/8/8
f 24/24/24 25/25/25 8/8/8
f 8/8/8 25/25/25 9/9/9
f 25/25/25 26/26/26 9/9/9
f 9/9/9 26/26/26 10/10/10
f 26/26/26 27/27/27 10/10/10
f 10/10/10 27/27/27 11/11/11
f 27/27/27 28/28/28 11/11/11
f 11/11/11 28/28/28 12/12/12
f 28/28/28 29/29/29 12/12/12
f 12/12/12 29/29/29 13/13/13
f 29/29/29 30/30/30 13/13/13
f 13/13/13 30/30/30 14/14/14
f 30/30/30 31/31/31 14/14/14
f 14/14/14 31/31/31 15/15/15
f 31/31/31 32/32/32 15/15/15
f 15/15/15 32/32/32 16/16/16
f 32/32/32 33/33/33 16/16/16
f 16/16/16 33/33/33 17/17/17
f 33/33/33 34/34/34 17/17/17
f 51/51/51 52/52/52 35/35/35
f 52/52/52 53/53/53 36/36/36
f 53/53/53 54/54/54 37/37/37
f 54/54/54 55/55/55 38/38/38
f 55/55/55 56/56/56 39/39/39
f 56/56/56 57/57/57 40/40/40
f 57/57/57 58/58/58 41/41/41
f 58/58/58 59/59/59 42/42/42
f 59/59/59 60/60/60 43/43/43
f 60/60/60 61/61/61 44/44/44
f 61/61/61 62/62/62 45/45/45
f 62/62/62 63/63/63 46/46/46
f 63/63/63 64/64/64 47/47/47
f 64/64/64 65/65/65 48/48/48
f 65/65/65 66/66/66 49/49/49
f 66/66/66 67/67/67 50/50/50
f 85/85/85 84/84/84 68/68/68
f 86/86/86 85/85/85 69/69/69
f 87/87/87 86/86/86 70/70/70
f 88/88/88 87/87/87 71/71/71
f 89/89/89 88/88/88 72/72/72
f 90/90/90 89/89/89 73/73/73
f 91/91/91 90/90/90 74/74/74
f 92/92/92 91/91/91 75/75/75
f 93/93/93 92/92/92 76/76/76
f 94/94/94 93/93/93 77/77/77
f 95/95/95 94/94/94 78/78/78
f 96/96/96 95/95/95 79/79/79
f 97/97/97 96/96/96 80/80/80
f 98/98/98 97/97/97 81/81/81
f 99/99/99 98/98/98 82/82/82
f 100/100/100 99/99/99 83/83/83
