o 
v 1.0054656267166138 40.65666198730469 29.462739944458008
v 1.0815151929855347 40.67413330078125 29.461849212646484
v 1.1451548337936401 40.71879577636719 29.455129623413086
v 1.18669593334198 40.78384017944336 29.443603515625
v 1.1998142004013062 40.859371185302734 29.42902374267578
v 1.182512640953064 40.93389129638672 29.41361427307129
v 1.137425184249878 40.99604797363281 29.399717330932617
v 1.0714160203933716 41.03638458251953 29.389450073242188
v 0.9945343732833862 41.04875946044922 29.384376525878906
v 0.9184848070144653 41.03128433227539 29.38526725769043
v 0.8548452258110046 40.98662567138672 29.39198875427246
v 0.8133041262626648 40.92157745361328 29.403514862060547
v 0.8001857399940491 40.846046447753906 29.418092727661133
v 0.8174872994422913 40.77153015136719 29.433504104614258
v 0.8625747561454773 40.70936965942383 29.447399139404297
v 0.9285839796066284 40.669036865234375 29.457666397094727
v 1.0054656267166138 40.65666198730469 29.462739944458008
v 2.005465507507324 34.803951263427734 0.03918188810348511
v 2.081515073776245 34.82142639160156 0.038290925323963165
v 2.1451547145843506 34.866085052490234 0.03157047554850578
v 2.1866958141326904 34.931129455566406 0.020043659955263138
v 2.1998143196105957 35.00666427612305 0.00546534126624465
v 2.1825127601623535 35.081180572509766 -0.009945067577064037
v 2.137425184249878 35.14333724975586 -0.02384147420525551
v 2.071416139602661 35.18367385864258 -0.03410826995968819
v 1.9945343732833862 35.196048736572266 -0.03918243572115898
v 1.9184848070144653 35.17857360839844 -0.03829146921634674
v 1.8548451662063599 35.133914947509766 -0.03157101944088936
v 1.81330406665802 35.06886672973633 -0.02004420757293701
v 1.8001857995986938 34.99333572387695 -0.0054658884182572365
v 1.817487359046936 34.918819427490234 0.009944520890712738
v 1.862574815750122 34.85666275024414 0.023840926587581635
v 1.9285839796066284 34.81632614135742 0.03410772234201431
v 2.005465507507324 34.803951263427734 0.03918188810348511
v 1 40.85271072387695 29.423559188842773
v 1 40.85271072387695 29.423559188842773
v 1 40.85271072387695 29.423559188842773
v 1 40.85271072387695 29.423559188842773
v 1 40.85271072387695 29.423559188842773
v 1 40.85271072387695 29.423559188842773
v 1 40.85271072387695 29.423559188842773
v 1 40.85271072387695 29.423559188842773
v 1 40.85271072387695 29.423559188842773
v 1 40.85271072387695 29.423559188842773
v 1 40.85271072387695 29.423559188842773
v 1 40.85271072387695 29.423559188842773
v 1 40.85271072387695 29.423559188842773
v 1 40.85271072387695 29.423559188842773
v 1 40.85271072387695 29.423559188842773
v 1 40.85271072387695 29.423559188842773
v 1.0054656267166138 40.65666198730469 29.462739944458008
v 1.0815151929855347 40.67413330078125 29.461849212646484
v 1.1451548337936401 40.71879577636719 29.455129623413086
v 1.18669593334198 40.78384017944336 29.443603515625
v 1.1998142004013062 40.859371185302734 29.42902374267578
v 1.182512640953064 40.93389129638672 29.41361427307129
v 1.137425184249878 40.99604797363281 29.399717330932617
v 1.0714160203933716 41.03638458251953 29.389450073242188
v 0.9945343732833862 41.04875946044922 29.384376525878906
v 0.9184848070144653 41.03128433227539 29.38526725769043
v 0.8548452258110046 40.98662567138672 29.39198875427246
v 0.8133041262626648 40.92157745361328 29.403514862060547
v 0.8001857399940491 40.846046447753906 29.418092727661133
v 0.8174872994422913 40.77153015136719 29.433504104614258
v 0.8625747561454773 40.70936965942383 29.447399139404297
v 0.9285839796066284 40.669036865234375 29.457666397094727
v 1.0054656267166138 40.65666198730469 29.462739944458008
v 2 35 -2.735112047957955e-7
v 2 35 -2.735112047957955e-7
v 2 35 -2.735112047957955e-7
v 2 35 -2.735112047957955e-7
v 2 35 -2.735112047957955e-7
v 2 35 -2.735112047957955e-7
v 2 35 -2.735112047957955e-7
v 2 35 -2.735112047957955e-7
v 2 35 -2.735112047957955e-7
v 2 35 -2.735112047957955e-7
v 2 35 -2.735112047957955e-7
v 2 35 -2.735112047957955e-7
v 2 35 -2.735112047957955e-7
v 2 35 -2.735112047957955e-7
v 2 35 -2.735112047957955e-7
v 2 35 -2.735112047957955e-7
v 2.005465507507324 34.803951263427734 0.03918188810348511
v 2.081515073776245 34.82142639160156 0.038290925323963165
v 2.1451547145843506 34.866085052490234 0.03157047554850578
v 2.1866958141326904 34.931129455566406 0.020043659955263138
v 2.1998143196105957 35.00666427612305 0.00546534126624465
v 2.1825127601623535 35.081180572509766 -0.009945067577064037
v 2.137425184249878 35.14333724975586 -0.02384147420525551
v 2.071416139602661 35.18367385864258 -0.03410826995968819
v 1.9945343732833862 35.196048736572266 -0.03918243572115898
v 1.9184848070144653 35.17857360839844 -0.03829146921634674
v 1.8548451662063599 35.133914947509766 -0.03157101944088936
v 1.81330406665802 35.06886672973633 -0.02004420757293701
v 1.8001857995986938 34.99333572387695 -0.0054658884182572365
v 1.817487359046936 34.918819427490234 0.009944520890712738
v 1.862574815750122 34.85666275024414 0.023840926587581635
v 1.9285839796066284 34.81632614135742 0.03410772234201431
v 2.005465507507324 34.803951263427734 0.03918188810348511
vt 0 1
vt 0.0625 1
vt 0.125 1
vt 0.1875 1
vt 0.25 1
vt 0.3125 1
vt 0.375 1
vt 0.4375 1
vt 0.5 1
vt 0.5625 1
vt 0.625 1
vt 0.6875 1
vt 0.75 1
vt 0.8125 1
vt 0.875 1
vt 0.9375 1
vt 1 1
vt 0 0
vt 0.0625 0
vt 0.125 0
vt 0.1875 0
vt 0.25 0
vt 0.3125 0
vt 0.375 0
vt 0.4375 0
vt 0.5 0
vt 0.5625 0
vt 0.625 0
vt 0.6875 0
vt 0.75 0
vt 0.8125 0
vt 0.875 0
vt 0.9375 0
vt 1 0
vt 0.5 0.5
vt 0.5 0.5
vt 0.5 0.5
vt 0.5 0.5
vt 0.5 0.5
vt 0.5 0.5
vt 0.5 0.5
vt 0.5 0.5
vt 0.5 0.5
vt 0.5 0.5
vt 0.5 0.5
vt 0.5 0.5
vt 0.5 0.5
vt 0.5 0.5
vt 0.5 0.5
vt 0.5 0.5
vt 1 0.5
vt 0.9619397521018982 0.6913416981697083
vt 0.8535534143447876 0.8535534143447876
vt 0.6913416981697083 0.9619397521018982
vt 0.5 1
vt 0.30865827202796936 0.9619397521018982
vt 0.1464466154575348 0.8535534143447876
vt 0.03806023299694061 0.6913416981697083
vt 0 0.5
vt 0.03806023299694061 0.30865827202796936
vt 0.1464466154575348 0.1464466154575348
vt 0.30865827202796936 0.03806023299694061
vt 0.5 0
vt 0.6913416981697083 0.03806023299694061
vt 0.8535534143447876 0.1464466154575348
vt 0.9619397521018982 0.30865827202796936
vt 1 0.5
vt 0.5 0.5
vt 0.5 0.5
vt 0.5 0.5
vt 0.5 0.5
vt 0.5 0.5
vt 0.5 0.5
vt 0.5 0.5
vt 0.5 0.5
vt 0.5 0.5
vt 0.5 0.5
vt 0.5 0.5
vt 0.5 0.5
vt 0.5 0.5
vt 0.5 0.5
vt 0.5 0.5
vt 0.5 0.5
vt 1 0.5
vt 0.9619397521018982 0.30865827202796936
vt 0.8535534143447876 0.1464466154575348
vt 0.6913416981697083 0.03806023299694061
vt 0.5 0
vt 0.30865827202796936 0.03806023299694061
vt 0.1464466154575348 0.1464466154575348
vt 0.03806023299694061 0.30865827202796936
vt 0 0.5
vt 0.03806023299694061 0.6913416981697083
vt 0.1464466154575348 0.8535534143447876
vt 0.30865827202796936 0.9619397521018982
vt 0.5 1
vt 0.6913416981697083 0.9619397521018982
vt 0.8535534143447876 0.8535534143447876
vt 0.9619397521018982 0.6913416981697083
vt 1 0.5
vn 0.027328073222632383 -0.9802408543332496 0.19591080600609956
vn 0.40757584471022357 -0.8928754307595654 0.19145598960248864
vn 0.7257738748405386 -0.6695778405842883 0.1578537234196001
vn 0.9334794502710834 -0.3443430445211145 0.10021967676821429
vn 0.9990712179093076 0.0333148308040822 0.027328073362538553
vn 0.912563443083786 0.4059008359463764 -0.04972397535493855
vn 0.6871261662663132 0.7166920969167454 -0.11920599753887037
vn 0.357080170104921 0.9183734874850995 -0.17053999414300686
vn -0.027328073222632383 0.9802408543332496 -0.19591080600609956
vn -0.40757584471022357 0.8928754307595654 -0.19145598960248864
vn -0.7257738748405386 0.6695778405842883 -0.1578537234196001
vn -0.9334794502710834 0.3443430445211145 -0.10021967676821429
vn -0.9990712179093076 -0.0333148308040822 -0.027328073362538553
vn -0.912563443083786 -0.4059008359463764 0.04972397535493855
vn -0.6871261662663132 -0.7166920969167454 0.11920599753887037
vn -0.357080170104921 -0.9183734874850995 0.17053999414300686
vn 0.027328073222632383 -0.9802408543332496 0.19591080600609956
vn 0.027328073222632383 -0.9802408543332496 0.19591080600609956
vn 0.40757584471022357 -0.8928754307595654 0.19145598960248864
vn 0.7257738748405386 -0.6695778405842883 0.1578537234196001
vn 0.9334794502710834 -0.3443430445211145 0.10021967676821429
vn 0.9990712179093076 0.0333148308040822 0.027328073362538553
vn 0.912563443083786 0.4059008359463764 -0.04972397535493855
vn 0.6871261662663132 0.7166920969167454 -0.11920599753887037
vn 0.357080170104921 0.9183734874850995 -0.17053999414300686
vn -0.027328073222632383 0.9802408543332496 -0.19591080600609956
vn -0.40757584471022357 0.8928754307595654 -0.19145598960248864
vn -0.7257738748405386 0.6695778405842883 -0.1578537234196001
vn -0.9334794502710834 0.3443430445211145 -0.10021967676821429
vn -0.9990712179093076 -0.0333148308040822 -0.027328073362538553
vn -0.912563443083786 -0.4059008359463764 0.04972397535493855
vn -0.6871261662663132 -0.7166920969167454 0.11920599753887037
vn -0.357080170104921 -0.9183734874850995 0.17053999414300686
vn 0.027328073222632383 -0.9802408543332496 0.19591080600609956
vn -0.033314830679121415 0.19498201692142586 0.9802408556748053
vn -0.033314830679121415 0.19498201692142586 0.9802408556748053
vn -0.033314830679121415 0.19498201692142586 0.9802408556748053
vn -0.033314830679121415 0.19498201692142586 0.9802408556748053
vn -0.033314830679121415 0.19498201692142586 0.9802408556748053
vn -0.033314830679121415 0.19498201692142586 0.9802408556748053
vn -0.033314830679121415 0.19498201692142586 0.9802408556748053
vn -0.033314830679121415 0.19498201692142586 0.9802408556748053
vn -0.033314830679121415 0.19498201692142586 0.9802408556748053
vn -0.033314830679121415 0.19498201692142586 0.9802408556748053
vn -0.033314830679121415 0.19498201692142586 0.9802408556748053
vn -0.033314830679121415 0.19498201692142586 0.9802408556748053
vn -0.033314830679121415 0.19498201692142586 0.9802408556748053
vn -0.033314830679121415 0.19498201692142586 0.9802408556748053
vn -0.033314830679121415 0.19498201692142586 0.9802408556748053
vn -0.033314830679121415 0.19498201692142586 0.9802408556748053
vn -0.033314830679121415 0.19498201692142586 0.9802408556748053
vn -0.033314830679121415 0.19498201692142586 0.9802408556748053
vn -0.033314830679121415 0.19498201692142586 0.9802408556748053
vn -0.033314830679121415 0.19498201692142586 0.9802408556748053
vn -0.033314830679121415 0.19498201692142586 0.9802408556748053
vn -0.033314830679121415 0.19498201692142586 0.9802408556748053
vn -0.033314830679121415 0.19498201692142586 0.9802408556748053
vn -0.033314830679121415 0.19498201692142586 0.9802408556748053
vn -0.033314830679121415 0.19498201692142586 0.9802408556748053
vn -0.033314830679121415 0.19498201692142586 0.9802408556748053
vn -0.033314830679121415 0.19498201692142586 0.9802408556748053
vn -0.033314830679121415 0.19498201692142586 0.9802408556748053
vn -0.033314830679121415 0.19498201692142586 0.9802408556748053
vn -0.033314830679121415 0.19498201692142586 0.9802408556748053
vn -0.033314830679121415 0.19498201692142586 0.9802408556748053
vn -0.033314830679121415 0.19498201692142586 0.9802408556748053
vn -0.033314830679121415 0.19498201692142586 0.9802408556748053
vn 0.033314830679121415 -0.19498201692142586 -0.9802408556748053
vn 0.033314830679121415 -0.19498201692142586 -0.9802408556748053
vn 0.033314830679121415 -0.19498201692142586 -0.9802408556748053
vn 0.033314830679121415 -0.19498201692142586 -0.9802408556748053
vn 0.033314830679121415 -0.19498201692142586 -0.9802408556748053
vn 0.033314830679121415 -0.19498201692142586 -0.9802408556748053
vn 0.033314830679121415 -0.19498201692142586 -0.9802408556748053
vn 0.033314830679121415 -0.19498201692142586 -0.9802408556748053
vn 0.033314830679121415 -0.19498201692142586 -0.9802408556748053
vn 0.033314830679121415 -0.19498201692142586 -0.9802408556748053
vn 0.033314830679121415 -0.19498201692142586 -0.9802408556748053
vn 0.033314830679121415 -0.19498201692142586 -0.9802408556748053
vn 0.033314830679121415 -0.19498201692142586 -0.9802408556748053
vn 0.033314830679121415 -0.19498201692142586 -0.9802408556748053
vn 0.033314830679121415 -0.19498201692142586 -0.9802408556748053
vn 0.033314830679121415 -0.19498201692142586 -0.9802408556748053
vn 0.033314830679121415 -0.19498201692142586 -0.9802408556748053
vn 0.033314830679121415 -0.19498201692142586 -0.9802408556748053
vn 0.033314830679121415 -0.19498201692142586 -0.9802408556748053
vn 0.033314830679121415 -0.19498201692142586 -0.9802408556748053
vn 0.033314830679121415 -0.19498201692142586 -0.9802408556748053
vn 0.033314830679121415 -0.19498201692142586 -0.9802408556748053
vn 0.033314830679121415 -0.19498201692142586 -0.9802408556748053
vn 0.033314830679121415 -0.19498201692142586 -0.9802408556748053
vn 0.033314830679121415 -0.19498201692142586 -0.9802408556748053
vn 0.033314830679121415 -0.19498201692142586 -0.9802408556748053
vn 0.033314830679121415 -0.19498201692142586 -0.9802408556748053
vn 0.033314830679121415 -0.19498201692142586 -0.9802408556748053
vn 0.033314830679121415 -0.19498201692142586 -0.9802408556748053
vn 0.033314830679121415 -0.19498201692142586 -0.9802408556748053
vn 0.033314830679121415 -0.19498201692142586 -0.9802408556748053
vn 0.033314830679121415 -0.19498201692142586 -0.9802408556748053
vn 0.033314830679121415 -0.19498201692142586 -0.9802408556748053
f 1/1/1 18/18/18 2/2/2
f 18/18/18 19/19/19 2/2/2
f 2/2/2 19/19/19 3/3/3
f 19/19/19 20/20/20 3/3/3
f 3/3/3 20/20/20 4/4/4
f 20/20/20 21/21/21 4/4/4
f 4/4/4 21/21/21 5/5/5
f 21/21/21 22/22/22 5/5/5
f 5/5/5 22/22/22 6/6/6
f 22/22/22 23/23/23 6/6/6
f 6/6/6 23/23/23 7/7/7
f 23/23/23 24/24/24 7/7/7
f 7/7/7 24/24/24 8/8/8
f 24/24/24 25/25/25 8/8/8
f 8/8/8 25/25/25 9/9/9
f 25/25/25 26/26/26 9/9/9
f 9/9/9 26/26/26 10/10/10
f 26/26/26 27/27/27 10/10/10
f 10/10/10 27/27/27 11/11/11
f 27/27/27 28/28/28 11/11/11
f 11/11/11 28/28/28 12/12/12
f 28/28/28 29/29/29 12/12/12
f 12/12/12 29/29/29 13/13/13
f 29/29/29 30/30/30 13/13/13
f 13/13/13 30/30/30 14/14/14
f 30/30/30 31/31/31 14/14/14
f 14/14/14 31/31/31 15/15/15
f 31/31/31 32/32/32 15/15/15
f 15/15/15 32/32/32 16/16/16
f 32/32/32 33/33/33 16/16/16
f 16/16/16 33/33/33 17/17/17
f 33/33/33 34/34/34 17/17/17
f 51/51/51 52/52/52 35/35/35
f 52/52/52 53/53/53 36/36/36
f 53/53/53 54/54/54 37/37/37
f 54/54/54 55/55/55 38/38/38
f 55/55/55 56/56/56 39/39/39
f 56/56/56 57/57/57 40/40/40
f 57/57/57 58/58/58 41/41/41
f 58/58/58 59/59/59 42/42/42
f 59/59/59 60/60/60 43/43/43
f 60/60/60 61/61/61 44/44/44
f 61/61/61 62/62/62 45/45/45
f 62/62/62 63/63/63 46/46/46
f 63/63/63 64/64/64 47/47/47
f 64/64/64 65/65/65 48/48/48
f 65/65/65 66/66/66 49/49/49
f 66/66/66 67/67/67 50/50/50
f 85/85/85 84/84/84 68/68/68
f 86/86/86 85/85/85 69/69/69
f 87/87/87 86/86/86 70/70/70
f 88/88/88 87/87/87 71/71/71
f 89/89/89 88/88/88 72/72/72
f 90/90/90 89/89/89 73/73/73
f 91/91/91 90/90/90 74/74/74
f 92/92/92 91/91/91 75/75/75
f 93/93/93 92/92/92 76/76/76
f 94/94/94 93/93/93 77/77/77
f 95/95/95 94/94/94 78/78/78
f 96/96/96 95/95/95 79/79/79
f 97/97/97 96/96/96 80/80/80
f 98/98/98 97/97/97 81/81/81
f 99/99/99 98/98/98 82/82/82
f 100/100/100 99/99/99 83/83/83
