v 1.250000 12.286797 -21.213203
v 0.883883 12.286797 -20.329320
v 0.000000 12.286797 -19.963203
v -0.883883 12.286797 -20.329320
v -1.250000 12.286797 -21.213203
v -0.883883 12.286797 -22.097087
v -0.000000 12.286797 -22.463203
v 0.883883 12.286797 -22.097087
v 1.250000 9.786797 -21.213203
v 0.883883 9.786797 -20.329320
v 0.000000 9.786797 -19.963203
v -0.883883 9.786797 -20.329320
v -1.250000 9.786797 -21.213203
v -0.883883 9.786797 -22.097087
v -0.000000 9.786797 -22.463203
v 0.883883 9.786797 -22.097087
v 0.000000 12.286797 -21.213203
v 0.000000 9.786797 -21.213203
f 1 9 10
f 1 10 2
f 17 2 1
f 18 9 10
f 2 10 11
f 2 11 3
f 17 3 2
f 18 10 11
f 3 11 12
f 3 12 4
f 17 4 3
f 18 11 12
f 4 12 13
f 4 13 5
f 17 5 4
f 18 12 13
f 5 13 14
f 5 14 6
f 17 6 5
f 18 13 14
f 6 14 15
f 6 15 7
f 17 7 6
f 18 14 15
f 7 15 16
f 7 16 8
f 17 8 7
f 18 15 16
f 8 16 9
f 8 9 1
f 17 1 8
f 18 16 9
