o 
v -0.02489890344440937 3.266801357269287 -35.226707458496094
v 7.475101470947266 13.266801834106445 -2.2267048358917236
v 0.2759968936443329 3.198903799057007 -35.27451705932617
v 7.475101470947266 13.266801834106445 -2.2267048358917236
v 7.775997161865234 13.198904037475586 -2.274515151977539
v 0.2759968936443329 3.198903799057007 -35.27451705932617
v 0.2759968936443329 3.198903799057007 -35.27451705932617
v 7.775997161865234 13.198904037475586 -2.274515151977539
v 0.534874677658081 3.024604320526123 -35.28053283691406
v 7.775997161865234 13.198904037475586 -2.274515151977539
v 8.03487491607666 13.024604797363281 -2.2805330753326416
v 0.534874677658081 3.024604320526123 -35.28053283691406
v 0.534874677658081 3.024604320526123 -35.28053283691406
v 8.03487491607666 13.024604797363281 -2.2805330753326416
v 0.7123225331306458 2.7704386711120605 -35.24384307861328
v 8.03487491607666 13.024604797363281 -2.2805330753326416
v 8.212323188781738 12.770439147949219 -2.243842124938965
v 0.7123225331306458 2.7704386711120605 -35.24384307861328
v 0.7123225331306458 2.7704386711120605 -35.24384307861328
v 8.212323188781738 12.770439147949219 -2.243842124938965
v 0.7813258171081543 2.4751009941101074 -35.17002868652344
v 8.212323188781738 12.770439147949219 -2.243842124938965
v 8.281326293945312 12.475101470947266 -2.1700284481048584
v 0.7813258171081543 2.4751009941101074 -35.17002868652344
v 0.7813258171081543 2.4751009941101074 -35.17002868652344
v 8.281326293945312 12.475101470947266 -2.1700284481048584
v 0.7313792109489441 2.183554172515869 -35.07033157348633
v 8.281326293945312 12.475101470947266 -2.1700284481048584
v 8.231379508972168 12.183554649353027 -2.070329427719116
v 0.7313792109489441 2.183554172515869 -35.07033157348633
v 0.7313792109489441 2.183554172515869 -35.07033157348633
v 8.231379508972168 12.183554649353027 -2.070329427719116
v 0.5700868368148804 1.9401830434799194 -34.959922790527344
v 8.231379508972168 12.183554649353027 -2.070329427719116
v 8.070087432861328 11.940183639526367 -1.959923267364502
v 0.5700868368148804 1.9401830434799194 -34.959922790527344
v 0.5700868368148804 1.9401830434799194 -34.959922790527344
v 8.070087432861328 11.940183639526367 -1.959923267364502
v 0.3220038115978241 1.7820391654968262 -34.855621337890625
v 8.070087432861328 11.940183639526367 -1.959923267364502
v 7.8220038414001465 11.782039642333984 -1.8556183576583862
v 0.3220038115978241 1.7820391654968262 -34.855621337890625
v 0.3220038115978241 1.7820391654968262 -34.855621337890625
v 7.8220038414001465 11.782039642333984 -1.8556183576583862
v 0.024898644536733627 1.7331981658935547 -34.77329635620117
v 7.8220038414001465 11.782039642333984 -1.8556183576583862
v 7.524899005889893 11.733198165893555 -1.7732940912246704
v 0.024898644536733627 1.7331981658935547 -34.77329635620117
v 0.024898644536733627 1.7331981658935547 -34.77329635620117
v 7.524899005889893 11.733198165893555 -1.7732940912246704
v -0.275997132062912 1.8010958433151245 -34.725486755371094
v 7.524899005889893 11.733198165893555 -1.7732940912246704
v 7.224003314971924 11.801095962524414 -1.725483775138855
v -0.275997132062912 1.8010958433151245 -34.725486755371094
v -0.275997132062912 1.8010958433151245 -34.725486755371094
v 7.224003314971924 11.801095962524414 -1.725483775138855
v -0.5348749160766602 1.9753952026367188 -34.71946716308594
v 7.224003314971924 11.801095962524414 -1.725483775138855
v 6.965125560760498 11.975395202636719 -1.7194658517837524
v -0.5348749160766602 1.9753952026367188 -34.71946716308594
v -0.5348749160766602 1.9753952026367188 -34.71946716308594
v 6.965125560760498 11.975395202636719 -1.7194658517837524
v -0.7123227715492249 2.2295610904693604 -34.75615692138672
v 6.965125560760498 11.975395202636719 -1.7194658517837524
v 6.78767728805542 12.229561805725098 -1.7561568021774292
v -0.7123227715492249 2.2295610904693604 -34.75615692138672
v -0.7123227715492249 2.2295610904693604 -34.75615692138672
v 6.78767728805542 12.229561805725098 -1.7561568021774292
v -0.7813260555267334 2.5248985290527344 -34.82997131347656
v 6.78767728805542 12.229561805725098 -1.7561568021774292
v 6.718674182891846 12.524898529052734 -1.8299704790115356
v -0.7813260555267334 2.5248985290527344 -34.82997131347656
v -0.7813260555267334 2.5248985290527344 -34.82997131347656
v 6.718674182891846 12.524898529052734 -1.8299704790115356
v -0.731379508972168 2.8164455890655518 -34.92967224121094
v 6.718674182891846 12.524898529052734 -1.8299704790115356
v 6.76862096786499 12.816446304321289 -1.9296694993972778
v -0.731379508972168 2.8164455890655518 -34.92967224121094
v -0.731379508972168 2.8164455890655518 -34.92967224121094
v 6.76862096786499 12.816446304321289 -1.9296694993972778
v -0.5700870752334595 3.059816598892212 -35.040077209472656
v 6.76862096786499 12.816446304321289 -1.9296694993972778
v 6.92991304397583 13.05981731414795 -2.0400755405426025
v -0.5700870752334595 3.059816598892212 -35.040077209472656
v -0.5700870752334595 3.059816598892212 -35.040077209472656
v 6.92991304397583 13.05981731414795 -2.0400755405426025
v -0.3220040798187256 3.2179605960845947 -35.14438247680664
v 6.92991304397583 13.05981731414795 -2.0400755405426025
v 7.1779961585998535 13.217961311340332 -2.144380569458008
v -0.3220040798187256 3.2179605960845947 -35.14438247680664
v -0.3220040798187256 3.2179605960845947 -35.14438247680664
v 7.1779961585998535 13.217961311340332 -2.144380569458008
v -0.02489890344440937 3.266801357269287 -35.226707458496094
v 7.1779961585998535 13.217961311340332 -2.144380569458008
v 7.475101470947266 13.266801834106445 -2.2267048358917236
v -0.02489890344440937 3.266801357269287 -35.226707458496094
v -0.02489890344440937 3.266801357269287 -35.226707458496094
v 0.2759968936443329 3.198903799057007 -35.27451705932617
v -1.295515943411374e-7 2.499999761581421 -35
v 0.2759968936443329 3.198903799057007 -35.27451705932617
v 0.534874677658081 3.024604320526123 -35.28053283691406
v -1.295515943411374e-7 2.499999761581421 -35
v 0.534874677658081 3.024604320526123 -35.28053283691406
v 0.7123225331306458 2.7704386711120605 -35.24384307861328
v -1.295515943411374e-7 2.499999761581421 -35
v 0.7123225331306458 2.7704386711120605 -35.24384307861328
v 0.7813258171081543 2.4751009941101074 -35.17002868652344
v -1.295515943411374e-7 2.499999761581421 -35
v 0.7813258171081543 2.4751009941101074 -35.17002868652344
v 0.7313792109489441 2.183554172515869 -35.07033157348633
v -1.295515943411374e-7 2.499999761581421 -35
v 0.7313792109489441 2.183554172515869 -35.07033157348633
v 0.5700868368148804 1.9401830434799194 -34.959922790527344
v -1.295515943411374e-7 2.499999761581421 -35
v 0.5700868368148804 1.9401830434799194 -34.959922790527344
v 0.3220038115978241 1.7820391654968262 -34.855621337890625
v -1.295515943411374e-7 2.499999761581421 -35
v 0.3220038115978241 1.7820391654968262 -34.855621337890625
v 0.024898644536733627 1.7331981658935547 -34.77329635620117
v -1.295515943411374e-7 2.499999761581421 -35
v 0.024898644536733627 1.7331981658935547 -34.77329635620117
v -0.275997132062912 1.8010958433151245 -34.725486755371094
v -1.295515943411374e-7 2.499999761581421 -35
v -0.275997132062912 1.8010958433151245 -34.725486755371094
v -0.5348749160766602 1.9753952026367188 -34.71946716308594
v -1.295515943411374e-7 2.499999761581421 -35
v -0.5348749160766602 1.9753952026367188 -34.71946716308594
v -0.7123227715492249 2.2295610904693604 -34.75615692138672
v -1.295515943411374e-7 2.499999761581421 -35
v -0.7123227715492249 2.2295610904693604 -34.75615692138672
v -0.7813260555267334 2.5248985290527344 -34.82997131347656
v -1.295515943411374e-7 2.499999761581421 -35
v -0.7813260555267334 2.5248985290527344 -34.82997131347656
v -0.731379508972168 2.8164455890655518 -34.92967224121094
v -1.295515943411374e-7 2.499999761581421 -35
v -0.731379508972168 2.8164455890655518 -34.92967224121094
v -0.5700870752334595 3.059816598892212 -35.040077209472656
v -1.295515943411374e-7 2.499999761581421 -35
v -0.5700870752334595 3.059816598892212 -35.040077209472656
v -0.3220040798187256 3.2179605960845947 -35.14438247680664
v -1.295515943411374e-7 2.499999761581421 -35
v -0.3220040798187256 3.2179605960845947 -35.14438247680664
v -0.02489890344440937 3.266801357269287 -35.226707458496094
v -1.295515943411374e-7 2.499999761581421 -35
v 7.775997161865234 13.198904037475586 -2.274515151977539
v 7.475101470947266 13.266801834106445 -2.2267048358917236
v 7.5 12.5 -1.9999994039535522
v 8.03487491607666 13.024604797363281 -2.2805330753326416
v 7.775997161865234 13.198904037475586 -2.274515151977539
v 7.5 12.5 -1.9999994039535522
v 8.212323188781738 12.770439147949219 -2.243842124938965
v 8.03487491607666 13.024604797363281 -2.2805330753326416
v 7.5 12.5 -1.9999994039535522
v 8.281326293945312 12.475101470947266 -2.1700284481048584
v 8.212323188781738 12.770439147949219 -2.243842124938965
v 7.5 12.5 -1.9999994039535522
v 8.231379508972168 12.183554649353027 -2.070329427719116
v 8.281326293945312 12.475101470947266 -2.1700284481048584
v 7.5 12.5 -1.9999994039535522
v 8.070087432861328 11.940183639526367 -1.959923267364502
v 8.231379508972168 12.183554649353027 -2.070329427719116
v 7.5 12.5 -1.9999994039535522
v 7.8220038414001465 11.782039642333984 -1.8556183576583862
v 8.070087432861328 11.940183639526367 -1.959923267364502
v 7.5 12.5 -1.9999994039535522
v 7.524899005889893 11.733198165893555 -1.7732940912246704
v 7.8220038414001465 11.782039642333984 -1.8556183576583862
v 7.5 12.5 -1.9999994039535522
v 7.224003314971924 11.801095962524414 -1.725483775138855
v 7.524899005889893 11.733198165893555 -1.7732940912246704
v 7.5 12.5 -1.9999994039535522
v 6.965125560760498 11.975395202636719 -1.7194658517837524
v 7.224003314971924 11.801095962524414 -1.725483775138855
v 7.5 12.5 -1.9999994039535522
v 6.78767728805542 12.229561805725098 -1.7561568021774292
v 6.965125560760498 11.975395202636719 -1.7194658517837524
v 7.5 12.5 -1.9999994039535522
v 6.718674182891846 12.524898529052734 -1.8299704790115356
v 6.78767728805542 12.229561805725098 -1.7561568021774292
v 7.5 12.5 -1.9999994039535522
v 6.76862096786499 12.816446304321289 -1.9296694993972778
v 6.718674182891846 12.524898529052734 -1.8299704790115356
v 7.5 12.5 -1.9999994039535522
v 6.92991304397583 13.05981731414795 -2.0400755405426025
v 6.76862096786499 12.816446304321289 -1.9296694993972778
v 7.5 12.5 -1.9999994039535522
v 7.1779961585998535 13.217961311340332 -2.144380569458008
v 6.92991304397583 13.05981731414795 -2.0400755405426025
v 7.5 12.5 -1.9999994039535522
v 7.475101470947266 13.266801834106445 -2.2267048358917236
v 7.1779961585998535 13.217961311340332 -2.144380569458008
v 7.5 12.5 -1.9999994039535522
vt 0 1
vt 0 0
vt 0.0625 1
vt 0 0
vt 0.0625 0
vt 0.0625 1
vt 0.0625 1
vt 0.0625 0
vt 0.125 1
vt 0.0625 0
vt 0.125 0
vt 0.125 1
vt 0.125 1
vt 0.125 0
vt 0.1875 1
vt 0.125 0
vt 0.1875 0
vt 0.1875 1
vt 0.1875 1
vt 0.1875 0
vt 0.25 1
vt 0.1875 0
vt 0.25 0
vt 0.25 1
vt 0.25 1
vt 0.25 0
vt 0.3125 1
vt 0.25 0
vt 0.3125 0
vt 0.3125 1
vt 0.3125 1
vt 0.3125 0
vt 0.375 1
vt 0.3125 0
vt 0.375 0
vt 0.375 1
vt 0.375 1
vt 0.375 0
vt 0.4375 1
vt 0.375 0
vt 0.4375 0
vt 0.4375 1
vt 0.4375 1
vt 0.4375 0
vt 0.5 1
vt 0.4375 0
vt 0.5 0
vt 0.5 1
vt 0.5 1
vt 0.5 0
vt 0.5625 1
vt 0.5 0
vt 0.5625 0
vt 0.5625 1
vt 0.5625 1
vt 0.5625 0
vt 0.625 1
vt 0.5625 0
vt 0.625 0
vt 0.625 1
vt 0.625 1
vt 0.625 0
vt 0.6875 1
vt 0.625 0
vt 0.6875 0
vt 0.6875 1
vt 0.6875 1
vt 0.6875 0
vt 0.75 1
vt 0.6875 0
vt 0.75 0
vt 0.75 1
vt 0.75 1
vt 0.75 0
vt 0.8125 1
vt 0.75 0
vt 0.8125 0
vt 0.8125 1
vt 0.8125 1
vt 0.8125 0
vt 0.875 1
vt 0.8125 0
vt 0.875 0
vt 0.875 1
vt 0.875 1
vt 0.875 0
vt 0.9375 1
vt 0.875 0
vt 0.9375 0
vt 0.9375 1
vt 0.9375 1
vt 0.9375 0
vt 1 1
vt 0.9375 0
vt 1 0
vt 1 1
vt 1 0.5
vt 0.9619397521018982 0.6913416981697083
vt 0.5 0.5
vt 0.9619397521018982 0.6913416981697083
vt 0.8535534143447876 0.8535534143447876
vt 0.5 0.5
vt 0.8535534143447876 0.8535534143447876
vt 0.6913416981697083 0.9619397521018982
vt 0.5 0.5
vt 0.6913416981697083 0.9619397521018982
vt 0.5 1
vt 0.5 0.5
vt 0.5 1
vt 0.30865827202796936 0.9619397521018982
vt 0.5 0.5
vt 0.30865827202796936 0.9619397521018982
vt 0.1464466154575348 0.8535534143447876
vt 0.5 0.5
vt 0.1464466154575348 0.8535534143447876
vt 0.03806023299694061 0.6913416981697083
vt 0.5 0.5
vt 0.03806023299694061 0.6913416981697083
vt 0 0.5
vt 0.5 0.5
vt 0 0.5
vt 0.03806023299694061 0.30865827202796936
vt 0.5 0.5
vt 0.03806023299694061 0.30865827202796936
vt 0.1464466154575348 0.1464466154575348
vt 0.5 0.5
vt 0.1464466154575348 0.1464466154575348
vt 0.30865827202796936 0.03806023299694061
vt 0.5 0.5
vt 0.30865827202796936 0.03806023299694061
vt 0.5 0
vt 0.5 0.5
vt 0.5 0
vt 0.6913416981697083 0.03806023299694061
vt 0.5 0.5
vt 0.6913416981697083 0.03806023299694061
vt 0.8535534143447876 0.1464466154575348
vt 0.5 0.5
vt 0.8535534143447876 0.1464466154575348
vt 0.9619397521018982 0.30865827202796936
vt 0.5 0.5
vt 0.9619397521018982 0.30865827202796936
vt 1 0.5
vt 0.5 0.5
vt 0.9619397521018982 0.30865827202796936
vt 1 0.5
vt 0.5 0.5
vt 0.8535534143447876 0.1464466154575348
vt 0.9619397521018982 0.30865827202796936
vt 0.5 0.5
vt 0.6913416981697083 0.03806023299694061
vt 0.8535534143447876 0.1464466154575348
vt 0.5 0.5
vt 0.5 0
vt 0.6913416981697083 0.03806023299694061
vt 0.5 0.5
vt 0.30865827202796936 0.03806023299694061
vt 0.5 0
vt 0.5 0.5
vt 0.1464466154575348 0.1464466154575348
vt 0.30865827202796936 0.03806023299694061
vt 0.5 0.5
vt 0.03806023299694061 0.30865827202796936
vt 0.1464466154575348 0.1464466154575348
vt 0.5 0.5
vt 0 0.5
vt 0.03806023299694061 0.30865827202796936
vt 0.5 0.5
vt 0.03806023299694061 0.6913416981697083
vt 0 0.5
vt 0.5 0.5
vt 0.1464466154575348 0.8535534143447876
vt 0.03806023299694061 0.6913416981697083
vt 0.5 0.5
vt 0.30865827202796936 0.9619397521018982
vt 0.1464466154575348 0.8535534143447876
vt 0.5 0.5
vt 0.5 1
vt 0.30865827202796936 0.9619397521018982
vt 0.5 0.5
vt 0.6913416981697083 0.9619397521018982
vt 0.5 1
vt 0.5 0.5
vt 0.8535534143447876 0.8535534143447876
vt 0.6913416981697083 0.9619397521018982
vt 0.5 0.5
vt 0.9619397521018982 0.6913416981697083
vt 0.8535534143447876 0.8535534143447876
vt 0.5 0.5
vt 1 0.5
vt 0.9619397521018982 0.6913416981697083
vt 0.5 0.5
vn -0.03112346659482958 0.9585020482124081 -0.28338163913658726
vn -0.03112346659482958 0.9585020482124081 -0.28338163913658726
vn 0.34499627406080546 0.8736299886153686 -0.34314459616329773
vn -0.03112346659482958 0.9585020482124081 -0.28338163913658726
vn 0.34499627406080546 0.8736299886153686 -0.34314459616329773
vn 0.34499627406080546 0.8736299886153686 -0.34314459616329773
vn 0.34499627406080546 0.8736299886153686 -0.34314459616329773
vn 0.34499627406080546 0.8736299886153686 -0.34314459616329773
vn 0.6685934523872742 0.6557556850530537 -0.3506669031224163
vn 0.34499627406080546 0.8736299886153686 -0.34314459616329773
vn 0.6685934523872742 0.6557556850530537 -0.3506669031224163
vn 0.6685934523872742 0.6557556850530537 -0.3506669031224163
vn 0.6685934523872742 0.6557556850530537 -0.3506669031224163
vn 0.6685934523872742 0.6557556850530537 -0.3506669031224163
vn 0.8904033445526278 0.3380485231052289 -0.3048033464971603
vn 0.6685934523872742 0.6557556850530537 -0.3506669031224163
vn 0.8904033445526278 0.3380485231052289 -0.3048033464971603
vn 0.8904033445526278 0.3380485231052289 -0.3048033464971603
vn 0.8904033445526278 0.3380485231052289 -0.3048033464971603
vn 0.8904033445526278 0.3380485231052289 -0.3048033464971603
vn 0.9766574012689033 -0.031123467129887776 -0.21253623300625102
vn 0.8904033445526278 0.3380485231052289 -0.3048033464971603
vn 0.9766574012689033 -0.031123467129887776 -0.21253623300625102
vn 0.9766574012689033 -0.031123467129887776 -0.21253623300625102
vn 0.9766574012689033 -0.031123467129887776 -0.21253623300625102
vn 0.9766574012689033 -0.031123467129887776 -0.21253623300625102
vn 0.9142242123822968 -0.3955571971033338 -0.08791241842722436
vn 0.9766574012689033 -0.031123467129887776 -0.21253623300625102
vn 0.9142242123822968 -0.3955571971033338 -0.08791241842722436
vn 0.9142242123822968 -0.3955571971033338 -0.08791241842722436
vn 0.9142242123822968 -0.3955571971033338 -0.08791241842722436
vn 0.9142242123822968 -0.3955571971033338 -0.08791241842722436
vn 0.7126086810216358 -0.6997709136729895 0.05009527033437001
vn 0.9142242123822968 -0.3955571971033338 -0.08791241842722436
vn 0.7126086810216358 -0.6997709136729895 0.05009527033437001
vn 0.7126086810216358 -0.6997709136729895 0.05009527033437001
vn 0.7126086810216358 -0.6997709136729895 0.05009527033437001
vn 0.7126086810216358 -0.6997709136729895 0.05009527033437001
vn 0.40250494581101076 -0.8974508532764467 0.18047640995723793
vn 0.7126086810216358 -0.6997709136729895 0.05009527033437001
vn 0.40250494581101076 -0.8974508532764467 0.18047640995723793
vn 0.40250494581101076 -0.8974508532764467 0.18047640995723793
vn 0.40250494581101076 -0.8974508532764467 0.18047640995723793
vn 0.40250494581101076 -0.8974508532764467 0.18047640995723793
vn 0.03112346659482958 -0.9585020482124081 0.28338163913658726
vn 0.40250494581101076 -0.8974508532764467 0.18047640995723793
vn 0.03112346659482958 -0.9585020482124081 0.28338163913658726
vn 0.03112346659482958 -0.9585020482124081 0.28338163913658726
vn 0.03112346659482958 -0.9585020482124081 0.28338163913658726
vn 0.03112346659482958 -0.9585020482124081 0.28338163913658726
vn -0.34499627406080546 -0.8736299886153686 0.34314459616329773
vn 0.03112346659482958 -0.9585020482124081 0.28338163913658726
vn -0.34499627406080546 -0.8736299886153686 0.34314459616329773
vn -0.34499627406080546 -0.8736299886153686 0.34314459616329773
vn -0.34499627406080546 -0.8736299886153686 0.34314459616329773
vn -0.34499627406080546 -0.8736299886153686 0.34314459616329773
vn -0.6685934523872742 -0.6557556850530537 0.3506669031224163
vn -0.34499627406080546 -0.8736299886153686 0.34314459616329773
vn -0.6685934523872742 -0.6557556850530537 0.3506669031224163
vn -0.6685934523872742 -0.6557556850530537 0.3506669031224163
vn -0.6685934523872742 -0.6557556850530537 0.3506669031224163
vn -0.6685934523872742 -0.6557556850530537 0.3506669031224163
vn -0.8904033445526278 -0.3380485231052289 0.3048033464971603
vn -0.6685934523872742 -0.6557556850530537 0.3506669031224163
vn -0.8904033445526278 -0.3380485231052289 0.3048033464971603
vn -0.8904033445526278 -0.3380485231052289 0.3048033464971603
vn -0.8904033445526278 -0.3380485231052289 0.3048033464971603
vn -0.8904033445526278 -0.3380485231052289 0.3048033464971603
vn -0.9766574012689033 0.031123467129887776 0.21253623300625102
vn -0.8904033445526278 -0.3380485231052289 0.3048033464971603
vn -0.9766574012689033 0.031123467129887776 0.21253623300625102
vn -0.9766574012689033 0.031123467129887776 0.21253623300625102
vn -0.9766574012689033 0.031123467129887776 0.21253623300625102
vn -0.9766574012689033 0.031123467129887776 0.21253623300625102
vn -0.9142242123822968 0.3955571971033338 0.08791241842722436
vn -0.9766574012689033 0.031123467129887776 0.21253623300625102
vn -0.9142242123822968 0.3955571971033338 0.08791241842722436
vn -0.9142242123822968 0.3955571971033338 0.08791241842722436
vn -0.9142242123822968 0.3955571971033338 0.08791241842722436
vn -0.9142242123822968 0.3955571971033338 0.08791241842722436
vn -0.7126086810216358 0.6997709136729895 -0.05009527033437001
vn -0.9142242123822968 0.3955571971033338 0.08791241842722436
vn -0.7126086810216358 0.6997709136729895 -0.05009527033437001
vn -0.7126086810216358 0.6997709136729895 -0.05009527033437001
vn -0.7126086810216358 0.6997709136729895 -0.05009527033437001
vn -0.7126086810216358 0.6997709136729895 -0.05009527033437001
vn -0.40250494581101076 0.8974508532764467 -0.18047640995723793
vn -0.7126086810216358 0.6997709136729895 -0.05009527033437001
vn -0.40250494581101076 0.8974508532764467 -0.18047640995723793
vn -0.40250494581101076 0.8974508532764467 -0.18047640995723793
vn -0.40250494581101076 0.8974508532764467 -0.18047640995723793
vn -0.40250494581101076 0.8974508532764467 -0.18047640995723793
vn -0.03112346659482958 0.9585020482124081 -0.28338163913658726
vn -0.40250494581101076 0.8974508532764467 -0.18047640995723793
vn -0.03112346659482958 0.9585020482124081 -0.28338163913658726
vn -0.03112346659482958 0.9585020482124081 -0.28338163913658726
vn -0.21253623164250834 -0.2833816421900111 -0.9351594490293592
vn -0.21253623164250834 -0.2833816421900111 -0.9351594490293592
vn -0.21253623164250834 -0.2833816421900111 -0.9351594490293592
vn -0.21253623164250834 -0.2833816421900111 -0.9351594490293592
vn -0.21253623164250834 -0.2833816421900111 -0.9351594490293592
vn -0.21253623164250834 -0.2833816421900111 -0.9351594490293592
vn -0.21253623164250834 -0.2833816421900111 -0.9351594490293592
vn -0.21253623164250834 -0.2833816421900111 -0.9351594490293592
vn -0.21253623164250834 -0.2833816421900111 -0.9351594490293592
vn -0.21253623164250834 -0.2833816421900111 -0.9351594490293592
vn -0.21253623164250834 -0.2833816421900111 -0.9351594490293592
vn -0.21253623164250834 -0.2833816421900111 -0.9351594490293592
vn -0.21253623164250834 -0.2833816421900111 -0.9351594490293592
vn -0.21253623164250834 -0.2833816421900111 -0.9351594490293592
vn -0.21253623164250834 -0.2833816421900111 -0.9351594490293592
vn -0.21253623164250834 -0.2833816421900111 -0.9351594490293592
vn -0.21253623164250834 -0.2833816421900111 -0.9351594490293592
vn -0.21253623164250834 -0.2833816421900111 -0.9351594490293592
vn -0.21253623164250834 -0.2833816421900111 -0.9351594490293592
vn -0.21253623164250834 -0.2833816421900111 -0.9351594490293592
vn -0.21253623164250834 -0.2833816421900111 -0.9351594490293592
vn -0.21253623164250834 -0.2833816421900111 -0.9351594490293592
vn -0.21253623164250834 -0.2833816421900111 -0.9351594490293592
vn -0.21253623164250834 -0.2833816421900111 -0.9351594490293592
vn -0.21253623164250834 -0.2833816421900111 -0.9351594490293592
vn -0.21253623164250834 -0.2833816421900111 -0.9351594490293592
vn -0.21253623164250834 -0.2833816421900111 -0.9351594490293592
vn -0.21253623164250834 -0.2833816421900111 -0.9351594490293592
vn -0.21253623164250834 -0.2833816421900111 -0.9351594490293592
vn -0.21253623164250834 -0.2833816421900111 -0.9351594490293592
vn -0.21253623164250834 -0.2833816421900111 -0.9351594490293592
vn -0.21253623164250834 -0.2833816421900111 -0.9351594490293592
vn -0.21253623164250834 -0.2833816421900111 -0.9351594490293592
vn -0.21253623164250834 -0.2833816421900111 -0.9351594490293592
vn -0.21253623164250834 -0.2833816421900111 -0.9351594490293592
vn -0.21253623164250834 -0.2833816421900111 -0.9351594490293592
vn -0.21253623164250834 -0.2833816421900111 -0.9351594490293592
vn -0.21253623164250834 -0.2833816421900111 -0.9351594490293592
vn -0.21253623164250834 -0.2833816421900111 -0.9351594490293592
vn -0.21253623164250834 -0.2833816421900111 -0.9351594490293592
vn -0.21253623164250834 -0.2833816421900111 -0.9351594490293592
vn -0.21253623164250834 -0.2833816421900111 -0.9351594490293592
vn -0.21253623164250834 -0.2833816421900111 -0.9351594490293592
vn -0.21253623164250834 -0.2833816421900111 -0.9351594490293592
vn -0.21253623164250834 -0.2833816421900111 -0.9351594490293592
vn -0.21253623164250834 -0.2833816421900111 -0.9351594490293592
vn -0.21253623164250834 -0.2833816421900111 -0.9351594490293592
vn -0.21253623164250834 -0.2833816421900111 -0.9351594490293592
vn 0.21253623164250834 0.2833816421900111 0.9351594490293592
vn 0.21253623164250834 0.2833816421900111 0.9351594490293592
vn 0.21253623164250834 0.2833816421900111 0.9351594490293592
vn 0.21253623164250834 0.2833816421900111 0.9351594490293592
vn 0.21253623164250834 0.2833816421900111 0.9351594490293592
vn 0.21253623164250834 0.2833816421900111 0.9351594490293592
vn 0.21253623164250834 0.2833816421900111 0.9351594490293592
vn 0.21253623164250834 0.2833816421900111 0.9351594490293592
vn 0.21253623164250834 0.2833816421900111 0.9351594490293592
vn 0.21253623164250834 0.2833816421900111 0.9351594490293592
vn 0.21253623164250834 0.2833816421900111 0.9351594490293592
vn 0.21253623164250834 0.2833816421900111 0.9351594490293592
vn 0.21253623164250834 0.2833816421900111 0.9351594490293592
vn 0.21253623164250834 0.2833816421900111 0.9351594490293592
vn 0.21253623164250834 0.2833816421900111 0.9351594490293592
vn 0.21253623164250834 0.2833816421900111 0.9351594490293592
vn 0.21253623164250834 0.2833816421900111 0.9351594490293592
vn 0.21253623164250834 0.2833816421900111 0.9351594490293592
vn 0.21253623164250834 0.2833816421900111 0.9351594490293592
vn 0.21253623164250834 0.2833816421900111 0.9351594490293592
vn 0.21253623164250834 0.2833816421900111 0.9351594490293592
vn 0.21253623164250834 0.2833816421900111 0.9351594490293592
vn 0.21253623164250834 0.2833816421900111 0.9351594490293592
vn 0.21253623164250834 0.2833816421900111 0.9351594490293592
vn 0.21253623164250834 0.2833816421900111 0.9351594490293592
vn 0.21253623164250834 0.2833816421900111 0.9351594490293592
vn 0.21253623164250834 0.2833816421900111 0.9351594490293592
vn 0.21253623164250834 0.2833816421900111 0.9351594490293592
vn 0.21253623164250834 0.2833816421900111 0.9351594490293592
vn 0.21253623164250834 0.2833816421900111 0.9351594490293592
vn 0.21253623164250834 0.2833816421900111 0.9351594490293592
vn 0.21253623164250834 0.2833816421900111 0.9351594490293592
vn 0.21253623164250834 0.2833816421900111 0.9351594490293592
vn 0.21253623164250834 0.2833816421900111 0.9351594490293592
vn 0.21253623164250834 0.2833816421900111 0.9351594490293592
vn 0.21253623164250834 0.2833816421900111 0.9351594490293592
vn 0.21253623164250834 0.2833816421900111 0.9351594490293592
vn 0.21253623164250834 0.2833816421900111 0.9351594490293592
vn 0.21253623164250834 0.2833816421900111 0.9351594490293592
vn 0.21253623164250834 0.2833816421900111 0.9351594490293592
vn 0.21253623164250834 0.2833816421900111 0.9351594490293592
vn 0.21253623164250834 0.2833816421900111 0.9351594490293592
vn 0.21253623164250834 0.2833816421900111 0.9351594490293592
vn 0.21253623164250834 0.2833816421900111 0.9351594490293592
vn 0.21253623164250834 0.2833816421900111 0.9351594490293592
vn 0.21253623164250834 0.2833816421900111 0.9351594490293592
vn 0.21253623164250834 0.2833816421900111 0.9351594490293592
vn 0.21253623164250834 0.2833816421900111 0.9351594490293592
f 1/1/1 2/2/2 3/3/3
f 4/4/4 5/5/5 6/6/6
f 7/7/7 8/8/8 9/9/9
f 10/10/10 11/11/11 12/12/12
f 13/13/13 14/14/14 15/15/15
f 16/16/16 17/17/17 18/18/18
f 19/19/19 20/20/20 21/21/21
f 22/22/22 23/23/23 24/24/24
f 25/25/25 26/26/26 27/27/27
f 28/28/28 29/29/29 30/30/30
f 31/31/31 32/32/32 33/33/33
f 34/34/34 35/35/35 36/36/36
f 37/37/37 38/38/38 39/39/39
f 40/40/40 41/41/41 42/42/42
f 43/43/43 44/44/44 45/45/45
f 46/46/46 47/47/47 48/48/48
f 49/49/49 50/50/50 51/51/51
f 52/52/52 53/53/53 54/54/54
f 55/55/55 56/56/56 57/57/57
f 58/58/58 59/59/59 60/60/60
f 61/61/61 62/62/62 63/63/63
f 64/64/64 65/65/65 66/66/66
f 67/67/67 68/68/68 69/69/69
f 70/70/70 71/71/71 72/72/72
f 73/73/73 74/74/74 75/75/75
f 76/76/76 77/77/77 78/78/78
f 79/79/79 80/80/80 81/81/81
f 82/82/82 83/83/83 84/84/84
f 85/85/85 86/86/86 87/87/87
f 88/88/88 89/89/89 90/90/90
f 91/91/91 92/92/92 93/93/93
f 94/94/94 95/95/95 96/96/96
f 97/97/97 98/98/98 99/99/99
f 100/100/100 101/101/101 102/102/102
f 103/103/103 104/104/104 105/105/105
f 106/106/106 107/107/107 108/108/108
f 109/109/109 110/110/110 111/111/111
f 112/112/112 113/113/113 114/114/114
f 115/115/115 116/116/116 117/117/117
f 118/118/118 119/119/119 120/120/120
f 121/121/121 122/122/122 123/123/123
f 124/124/124 125/125/125 126/126/126
f 127/127/127 128/128/128 129/129/129
f 130/130/130 131/131/131 132/132/132
f 133/133/133 134/134/134 135/135/135
f 136/136/136 137/137/137 138/138/138
f 139/139/139 140/140/140 141/141/141
f 142/142/142 143/143/143 144/144/144
f 145/145/145 146/146/146 147/147/147
f 148/148/148 149/149/149 150/150/150
f 151/151/151 152/152/152 153/153/153
f 154/154/154 155/155/155 156/156/156
f 157/157/157 158/158/158 159/159/159
f 160/160/160 161/161/161 162/162/162
f 163/163/163 164/164/164 165/165/165
f 166/166/166 167/167/167 168/168/168
f 169/169/169 170/170/170 171/171/171
f 172/172/172 173/173/173 174/174/174
f 175/175/175 176/176/176 177/177/177
f 178/178/178 179/179/179 180/180/180
f 181/181/181 182/182/182 183/183/183
f 184/184/184 185/185/185 186/186/186
f 187/187/187 188/188/188 189/189/189
f 190/190/190 191/191/191 192/192/192
