v -0.9918867412444384 -5.6566615412994405 -29.46227935202341
v -0.9160731616716546 -5.674134631925565 -29.45622710968804
v -0.8530366716260526 -5.718794146270178 -29.445201398367224
v -0.8123740312843132 -5.7838411071155065 -29.430880777775904
v -0.8002757276379031 -5.859372681034425 -29.415445436148204
v -0.8185836433927033 -5.933889878395474 -29.401245263644917
v -0.8645105394052112 -5.996048140890125 -29.390442105069845
v -0.9310644914670636 -6.03638441120156 -29.3846806494198
v -1.008113240164255 -6.048757888477782 -29.38483801919282
v -1.0839268197370386 -6.031284797851658 -29.390890261528188
v -1.1469633097826408 -5.986625283507045 -29.401915972849004
v -1.1876259501243802 -5.921578322661716 -29.416236593440324
v -1.1997242537707902 -5.846046748742798 -29.431671935068024
v -1.1814163380159899 -5.771529551381748 -29.44587210757131
v -1.135489442003482 -5.709371288887097 -29.456675266146384
v -1.0689354899416297 -5.669035018575663 -29.46243672179643
v -0.9918867412444384 -5.6566615412994405 -29.46227935202341
v -1.991886759835745 0.19604822799393196 -0.03872039290409113
v -1.9160731802629614 0.17857513736780684 -0.03266815056872474
v -1.8530366902173592 0.13391562302319393 -0.021642439247910872
v -1.8123740498756198 0.06886866217786602 -0.007321818656588874
v -1.8002757462292098 -0.006662911741052824 0.008113522971109788
v -1.8185836619840101 -0.08118010910210183 0.022313695474398543
v -1.864510557996518 -0.14333837159675333 0.03311685404947262
v -1.9310645100583703 -0.18367464190818827 0.03887830969951622
v -2.0081132587555617 -0.19604811918441056 0.038720939926493614
v -2.0839268383283454 -0.17857502855828544 0.03266869759112723
v -2.1469633283739475 -0.13391551421367254 0.021642986270313358
v -2.187625968715687 -0.06886855336834463 0.0073223656789913605
v -2.199724272362097 0.006663020550574217 -0.008112975948707302
v -2.1814163566072966 0.08118021791162322 -0.022313148451996057
v -2.1354894605947887 0.14333848040627473 -0.033116307027070135
v -2.0689355085329364 0.18367475071770967 -0.038877762677113736
v -1.991886759835745 0.19604822799393196 -0.03872039290409113
v -0.9999999907043466 -5.852709714888611 -29.423558685608114
v -0.9999999907043466 -5.852709714888611 -29.423558685608114
v -0.9999999907043466 -5.852709714888611 -29.423558685608114
v -0.9999999907043466 -5.852709714888611 -29.423558685608114
v -0.9999999907043466 -5.852709714888611 -29.423558685608114
v -0.9999999907043466 -5.852709714888611 -29.423558685608114
v -0.9999999907043466 -5.852709714888611 -29.423558685608114
v -0.9999999907043466 -5.852709714888611 -29.423558685608114
v -0.9999999907043466 -5.852709714888611 -29.423558685608114
v -0.9999999907043466 -5.852709714888611 -29.423558685608114
v -0.9999999907043466 -5.852709714888611 -29.423558685608114
v -0.9999999907043466 -5.852709714888611 -29.423558685608114
v -0.9999999907043466 -5.852709714888611 -29.423558685608114
v -0.9999999907043466 -5.852709714888611 -29.423558685608114
v -0.9999999907043466 -5.852709714888611 -29.423558685608114
v -0.9999999907043466 -5.852709714888611 -29.423558685608114
v -0.9918867412444384 -5.6566615412994405 -29.46227935202341
v -0.9160731616716546 -5.674134631925565 -29.45622710968804
v -0.8530366716260526 -5.718794146270178 -29.445201398367224
v -0.8123740312843132 -5.7838411071155065 -29.430880777775904
v -0.8002757276379031 -5.859372681034425 -29.415445436148204
v -0.8185836433927033 -5.933889878395474 -29.401245263644917
v -0.8645105394052112 -5.996048140890125 -29.390442105069845
v -0.9310644914670636 -6.03638441120156 -29.3846806494198
v -1.008113240164255 -6.048757888477782 -29.38483801919282
v -1.0839268197370386 -6.031284797851658 -29.390890261528188
v -1.1469633097826408 -5.986625283507045 -29.401915972849004
v -1.1876259501243802 -5.921578322661716 -29.416236593440324
v -1.1997242537707902 -5.846046748742798 -29.431671935068024
v -1.1814163380159899 -5.771529551381748 -29.44587210757131
v -1.135489442003482 -5.709371288887097 -29.456675266146384
v -1.0689354899416297 -5.669035018575663 -29.46243672179643
v -0.9918867412444384 -5.6566615412994405 -29.46227935202341
v -2.000000009295653 5.4404760696513677e-8 2.735112012430818e-7
v -2.000000009295653 5.4404760696513677e-8 2.735112012430818e-7
v -2.000000009295653 5.4404760696513677e-8 2.735112012430818e-7
v -2.000000009295653 5.4404760696513677e-8 2.735112012430818e-7
v -2.000000009295653 5.4404760696513677e-8 2.735112012430818e-7
v -2.000000009295653 5.4404760696513677e-8 2.735112012430818e-7
v -2.000000009295653 5.4404760696513677e-8 2.735112012430818e-7
v -2.000000009295653 5.4404760696513677e-8 2.735112012430818e-7
v -2.000000009295653 5.4404760696513677e-8 2.735112012430818e-7
v -2.000000009295653 5.4404760696513677e-8 2.735112012430818e-7
v -2.000000009295653 5.4404760696513677e-8 2.735112012430818e-7
v -2.000000009295653 5.4404760696513677e-8 2.735112012430818e-7
v -2.000000009295653 5.4404760696513677e-8 2.735112012430818e-7
v -2.000000009295653 5.4404760696513677e-8 2.735112012430818e-7
v -2.000000009295653 5.4404760696513677e-8 2.735112012430818e-7
v -2.000000009295653 5.4404760696513677e-8 2.735112012430818e-7
v -1.991886759835745 0.19604822799393196 -0.03872039290409113
v -1.9160731802629614 0.17857513736780684 -0.03266815056872474
v -1.8530366902173592 0.13391562302319393 -0.021642439247910872
v -1.8123740498756198 0.06886866217786602 -0.007321818656588874
v -1.8002757462292098 -0.006662911741052824 0.008113522971109788
v -1.8185836619840101 -0.08118010910210183 0.022313695474398543
v -1.864510557996518 -0.14333837159675333 0.03311685404947262
v -1.9310645100583703 -0.18367464190818827 0.03887830969951622
v -2.0081132587555617 -0.19604811918441056 0.038720939926493614
v -2.0839268383283454 -0.17857502855828544 0.03266869759112723
v -2.1469633283739475 -0.13391551421367254 0.021642986270313358
v -2.187625968715687 -0.06886855336834463 0.0073223656789913605
v -2.199724272362097 0.006663020550574217 -0.008112975948707302
v -2.1814163566072966 0.08118021791162322 -0.022313148451996057
v -2.1354894605947887 0.14333848040627473 -0.033116307027070135
v -2.0689355085329364 0.18367475071770967 -0.038877762677113736
v -1.991886759835745 0.19604822799393196 -0.03872039290409113
vt 0 1
vt 0.0625 1
vt 0.125 1
vt 0.1875 1
vt 0.25 1
vt 0.3125 1
vt 0.375 1
vt 0.4375 1
vt 0.5 1
vt 0.5625 1
vt 0.625 1
vt 0.6875 1
vt 0.75 1
vt 0.8125 1
vt 0.875 1
vt 0.9375 1
vt 1 1
vt 0 0
vt 0.0625 0
vt 0.125 0
vt 0.1875 0
vt 0.25 0
vt 0.3125 0
vt 0.375 0
vt 0.4375 0
vt 0.5 0
vt 0.5625 0
vt 0.625 0
vt 0.6875 0
vt 0.75 0
vt 0.8125 0
vt 0.875 0
vt 0.9375 0
vt 1 0
vt 0.5 0.5
vt 0.5 0.5
vt 0.5 0.5
vt 0.5 0.5
vt 0.5 0.5
vt 0.5 0.5
vt 0.5 0.5
vt 0.5 0.5
vt 0.5 0.5
vt 0.5 0.5
vt 0.5 0.5
vt 0.5 0.5
vt 0.5 0.5
vt 0.5 0.5
vt 0.5 0.5
vt 0.5 0.5
vt 1 0.5
vt 0.9619397521018982 0.6913416981697083
vt 0.8535534143447876 0.8535534143447876
vt 0.6913416981697083 0.9619397521018982
vt 0.5 1
vt 0.30865827202796936 0.9619397521018982
vt 0.1464466154575348 0.8535534143447876
vt 0.03806023299694061 0.6913416981697083
vt 0 0.5
vt 0.03806023299694061 0.30865827202796936
vt 0.1464466154575348 0.1464466154575348
vt 0.30865827202796936 0.03806023299694061
vt 0.5 0
vt 0.6913416981697083 0.03806023299694061
vt 0.8535534143447876 0.1464466154575348
vt 0.9619397521018982 0.30865827202796936
vt 1 0.5
vt 0.5 0.5
vt 0.5 0.5
vt 0.5 0.5
vt 0.5 0.5
vt 0.5 0.5
vt 0.5 0.5
vt 0.5 0.5
vt 0.5 0.5
vt 0.5 0.5
vt 0.5 0.5
vt 0.5 0.5
vt 0.5 0.5
vt 0.5 0.5
vt 0.5 0.5
vt 0.5 0.5
vt 0.5 0.5
vt 1 0.5
vt 0.9619397521018982 0.30865827202796936
vt 0.8535534143447876 0.1464466154575348
vt 0.6913416981697083 0.03806023299694061
vt 0.5 0
vt 0.30865827202796936 0.03806023299694061
vt 0.1464466154575348 0.1464466154575348
vt 0.03806023299694061 0.30865827202796936
vt 0 0.5
vt 0.03806023299694061 0.6913416981697083
vt 0.1464466154575348 0.8535534143447876
vt 0.30865827202796936 0.9619397521018982
vt 0.5 1
vt 0.6913416981697083 0.9619397521018982
vt 0.8535534143447876 0.8535534143447876
vt 0.9619397521018982 0.6913416981697083
vt 1 0.5
vn 0.04056624669505701 0.9802408533391306 -0.1936033291915434
vn 0.41963415653293573 0.8928754256860668 -0.16334212217556263
vn 0.7348165615120166 0.66957781222061 -0.10821355880627065
vn 0.9381298089884134 0.3443430491875391 -0.03661046248808196
vn 0.9986213004516008 -0.03331483023263842 0.040566246695057005
vn 0.9070817475605283 -0.4059008286199736 0.11156711239499263
vn 0.6774472252612943 -0.7166920969637645 0.165582895056993
vn 0.3446775066260251 -0.918373493163149 0.19439018360344765
vn -0.04056624669505689 -0.9802408533391306 0.1936033291915434
vn -0.41963415653293573 -0.8928754256860668 0.16334212217556263
vn -0.7348165615120166 -0.66957781222061 0.10821355880627065
vn -0.9381298089884134 -0.3443430491875391 0.03661046248808196
vn -0.9986213004516008 0.0333148302326383 -0.040566246695056984
vn -0.9070817475605283 0.4059008286199736 -0.11156711239499263
vn -0.6774472252612943 0.7166920969637645 -0.165582895056993
vn -0.3446775066260251 0.918373493163149 -0.19439018360344765
vn 0.04056624669505677 0.9802408533391306 -0.1936033291915434
vn 0.04056624669505701 0.9802408533391306 -0.1936033291915434
vn 0.41963415653293573 0.8928754256860668 -0.16334212217556263
vn 0.7348165615120166 0.66957781222061 -0.10821355880627065
vn 0.9381298089884134 0.3443430491875391 -0.03661046248808196
vn 0.9986213004516008 -0.03331483023263842 0.040566246695057005
vn 0.9070817475605283 -0.4059008286199736 0.11156711239499263
vn 0.6774472252612943 -0.7166920969637645 0.165582895056993
vn 0.3446775066260251 -0.918373493163149 0.19439018360344765
vn -0.04056624669505689 -0.9802408533391306 0.1936033291915434
vn -0.41963415653293573 -0.8928754256860668 0.16334212217556263
vn -0.7348165615120166 -0.66957781222061 0.10821355880627065
vn -0.9381298089884134 -0.3443430491875391 0.03661046248808196
vn -0.9986213004516008 0.0333148302326383 -0.040566246695056984
vn -0.9070817475605283 0.4059008286199736 -0.11156711239499263
vn -0.6774472252612943 0.7166920969637645 -0.165582895056993
vn -0.3446775066260251 0.918373493163149 -0.19439018360344765
vn 0.04056624669505677 0.9802408533391306 -0.1936033291915434
vn 0.033314830232638475 -0.1949820287399426 -0.9802408533391306
vn 0.033314830232638475 -0.1949820287399426 -0.9802408533391306
vn 0.033314830232638475 -0.1949820287399426 -0.9802408533391306
vn 0.033314830232638475 -0.1949820287399426 -0.9802408533391306
vn 0.033314830232638475 -0.1949820287399426 -0.9802408533391306
vn 0.033314830232638475 -0.1949820287399426 -0.9802408533391306
vn 0.033314830232638475 -0.1949820287399426 -0.9802408533391306
vn 0.033314830232638475 -0.1949820287399426 -0.9802408533391306
vn 0.033314830232638475 -0.1949820287399426 -0.9802408533391306
vn 0.033314830232638475 -0.1949820287399426 -0.9802408533391306
vn 0.033314830232638475 -0.1949820287399426 -0.9802408533391306
vn 0.033314830232638475 -0.1949820287399426 -0.9802408533391306
vn 0.033314830232638475 -0.1949820287399426 -0.9802408533391306
vn 0.033314830232638475 -0.1949820287399426 -0.9802408533391306
vn 0.033314830232638475 -0.1949820287399426 -0.9802408533391306
vn 0.033314830232638475 -0.1949820287399426 -0.9802408533391306
vn 0.033314830232638475 -0.1949820287399426 -0.9802408533391306
vn 0.033314830232638475 -0.1949820287399426 -0.9802408533391306
vn 0.033314830232638475 -0.1949820287399426 -0.9802408533391306
vn 0.033314830232638475 -0.1949820287399426 -0.9802408533391306
vn 0.033314830232638475 -0.1949820287399426 -0.9802408533391306
vn 0.033314830232638475 -0.1949820287399426 -0.9802408533391306
vn 0.033314830232638475 -0.1949820287399426 -0.9802408533391306
vn 0.033314830232638475 -0.1949820287399426 -0.9802408533391306
vn 0.033314830232638475 -0.1949820287399426 -0.9802408533391306
vn 0.033314830232638475 -0.1949820287399426 -0.9802408533391306
vn 0.033314830232638475 -0.1949820287399426 -0.9802408533391306
vn 0.033314830232638475 -0.1949820287399426 -0.9802408533391306
vn 0.033314830232638475 -0.1949820287399426 -0.9802408533391306
vn 0.033314830232638475 -0.1949820287399426 -0.9802408533391306
vn 0.033314830232638475 -0.1949820287399426 -0.9802408533391306
vn 0.033314830232638475 -0.1949820287399426 -0.9802408533391306
vn 0.033314830232638475 -0.1949820287399426 -0.9802408533391306
vn -0.033314830232638475 0.1949820287399426 0.9802408533391306
vn -0.033314830232638475 0.1949820287399426 0.9802408533391306
vn -0.033314830232638475 0.1949820287399426 0.9802408533391306
vn -0.033314830232638475 0.1949820287399426 0.9802408533391306
vn -0.033314830232638475 0.1949820287399426 0.9802408533391306
vn -0.033314830232638475 0.1949820287399426 0.9802408533391306
vn -0.033314830232638475 0.1949820287399426 0.9802408533391306
vn -0.033314830232638475 0.1949820287399426 0.9802408533391306
vn -0.033314830232638475 0.1949820287399426 0.9802408533391306
vn -0.033314830232638475 0.1949820287399426 0.9802408533391306
vn -0.033314830232638475 0.1949820287399426 0.9802408533391306
vn -0.033314830232638475 0.1949820287399426 0.9802408533391306
vn -0.033314830232638475 0.1949820287399426 0.9802408533391306
vn -0.033314830232638475 0.1949820287399426 0.9802408533391306
vn -0.033314830232638475 0.1949820287399426 0.9802408533391306
vn -0.033314830232638475 0.1949820287399426 0.9802408533391306
vn -0.033314830232638475 0.1949820287399426 0.9802408533391306
vn -0.033314830232638475 0.1949820287399426 0.9802408533391306
vn -0.033314830232638475 0.1949820287399426 0.9802408533391306
vn -0.033314830232638475 0.1949820287399426 0.9802408533391306
vn -0.033314830232638475 0.1949820287399426 0.9802408533391306
vn -0.033314830232638475 0.1949820287399426 0.9802408533391306
vn -0.033314830232638475 0.1949820287399426 0.9802408533391306
vn -0.033314830232638475 0.1949820287399426 0.9802408533391306
vn -0.033314830232638475 0.1949820287399426 0.9802408533391306
vn -0.033314830232638475 0.1949820287399426 0.9802408533391306
vn -0.033314830232638475 0.1949820287399426 0.9802408533391306
vn -0.033314830232638475 0.1949820287399426 0.9802408533391306
vn -0.033314830232638475 0.1949820287399426 0.9802408533391306
vn -0.033314830232638475 0.1949820287399426 0.9802408533391306
vn -0.033314830232638475 0.1949820287399426 0.9802408533391306
vn -0.033314830232638475 0.1949820287399426 0.9802408533391306
vn -0.033314830232638475 0.1949820287399426 0.9802408533391306
f 1/1/1 18/18/18 2/2/2
f 18/18/18 19/19/19 2/2/2
f 2/2/2 19/19/19 3/3/3
f 19/19/19 20/20/20 3/3/3
f 3/3/3 20/20/20 4/4/4
f 20/20/20 21/21/21 4/4/4
f 4/4/4 21/21/21 5/5/5
f 21/21/21 22/22/22 5/5/5
f 5/5/5 22/22/22 6/6/6
f 22/22/22 23/23/23 6/6/6
f 6/6/6 23/23/23 7/7/7
f 23/23/23 24/24/24 7/7/7
f 7/7/7 24/24/24 8/8/8
f 24/24/24 25/25/25 8/8/8
f 8/8/8 25/25/25 9/9/9
f 25/25/25 26/26/26 9/9/9
f 9/9/9 26/26/26 10/10/10
f 26/26/26 27/27/27 10/10/10
f 10/10/10 27/27/27 11/11/11
f 27/27/27 28/28/28 11/11/11
f 11/11/11 28/28/28 12/12/12
f 28/28/28 29/29/29 12/12/12
f 12/12/12 29/29/29 13/13/13
f 29/29/29 30/30/30 13/13/13
f 13/13/13 30/30/30 14/14/14
f 30/30/30 31/31/31 14/14/14
f 14/14/14 31/31/31 15/15/15
f 31/31/31 32/32/32 15/15/15
f 15/15/15 32/32/32 16/16/16
f 32/32/32 33/33/33 16/16/16
f 16/16/16 33/33/33 17/17/17
f 33/33/33 34/34/34 17/17/17
f 51/51/51 52/52/52 35/35/35
f 52/52/52 53/53/53 36/36/36
f 53/53/53 54/54/54 37/37/37
f 54/54/54 55/55/55 38/38/38
f 55/55/55 56/56/56 39/39/39
f 56/56/56 57/57/57 40/40/40
f 57/57/57 58/58/58 41/41/41
f 58/58/58 59/59/59 42/42/42
f 59/59/59 60/60/60 43/43/43
f 60/60/60 61/61/61 44/44/44
f 61/61/61 62/62/62 45/45/45
f 62/62/62 63/63/63 46/46/46
f 63/63/63 64/64/64 47/47/47
f 64/64/64 65/65/65 48/48/48
f 65/65/65 66/66/66 49/49/49
f 66/66/66 67/67/67 50/50/50
f 85/85/85 84/84/84 68/68/68
f 86/86/86 85/85/85 69/69/69
f 87/87/87 86/86/86 70/70/70
f 88/88/88 87/87/87 71/71/71
f 89/89/89 88/88/88 72/72/72
f 90/90/90 89/89/89 73/73/73
f 91/91/91 90/90/90 74/74/74
f 92/92/92 91/91/91 75/75/75
f 93/93/93 92/92/92 76/76/76
f 94/94/94 93/93/93 77/77/77
f 95/95/95 94/94/94 78/78/78
f 96/96/96 95/95/95 79/79/79
f 97/97/97 96/96/96 80/80/80
f 98/98/98 97/97/97 81/81/81
f 99/99/99 98/98/98 82/82/82
f 100/100/100 99/99/99 83/83/83
