v 0.9900371207940276 -11.295829736233483 -27.792520977856782
v 1.0671946260845875 -11.307337355659662 -27.790538188550514
v 1.1341223653437005 -11.345207872869905 -27.777266442139858
v 1.1806311737367556 -11.403675873839145 -27.75472622888854
v 1.1996405359284634 -11.473840111525654 -27.726349102890847
v 1.188256424006101 -11.545018725770035 -27.6964552197215
v 1.148211991530697 -11.60637542508995 -27.669595650008194
v 1.0856036087335739 -11.648569186333372 -27.649859527679887
v 1.0099628606146656 -11.665176419109454 -27.640251488104273
v 0.9328053553241055 -11.653668799683274 -27.642234277410537
v 0.8658776160649927 -11.615798282473031 -27.655506023821196
v 0.8193688076719374 -11.557330281503791 -27.678046237072515
v 0.8003594454802295 -11.487166043817282 -27.706423363070208
v 0.811743557402592 -11.415987429572901 -27.736317246239555
v 0.8517879898779962 -11.354630730252985 -27.76317681595286
v 0.9143963726751193 -11.312436969009564 -27.78291293828117
v 0.9900371207940276 -11.295829736233483 -27.792520977856782
v 1.9900371393853344 0.18467344815676245 -0.07613448723433436
v 2.0671946446758946 0.17316582873058461 -0.07415169792806786
v 2.1341223839350074 0.13529531152034124 -0.06087995151741055
v 2.180631192328063 0.07682731055110192 -0.03833973826609238
v 2.1996405545197706 0.006663072864591335 -0.00996261226839934
v 2.188256442597408 -0.06451554137978821 0.019931270900947595
v 2.1482120101220037 -0.12587224069970482 0.046790840614253426
v 2.085603627324881 -0.16806600194312704 0.06652696294256266
v 2.0099628792059723 -0.18467323471920682 0.07613500251817484
v 1.9328053739154125 -0.17316561529302898 0.07415221321190835
v 1.8658776346562995 -0.13529509808278561 0.06088046680125103
v 1.8193688262632444 -0.0768270971135463 0.03834025354993287
v 1.8003594640715366 -0.0066628594270357056 0.009963127552239825
v 1.811743575993899 0.06451575481734384 -0.01993075561710711
v 1.851788008469303 0.12587245413726045 -0.04679032533041294
v 1.9143963912664261 0.16806621538068267 -0.06652644765872218
v 1.9900371393853344 0.18467344815676245 -0.07613448723433436
v 0.9999999907043465 -11.480503077671468 -27.716386232980526
v 0.9999999907043465 -11.480503077671468 -27.716386232980526
v 0.9999999907043465 -11.480503077671468 -27.716386232980526
v 0.9999999907043465 -11.480503077671468 -27.716386232980526
v 0.9999999907043465 -11.480503077671468 -27.716386232980526
v 0.9999999907043465 -11.480503077671468 -27.716386232980526
v 0.9999999907043465 -11.480503077671468 -27.716386232980526
v 0.9999999907043465 -11.480503077671468 -27.716386232980526
v 0.9999999907043465 -11.480503077671468 -27.716386232980526
v 0.9999999907043465 -11.480503077671468 -27.716386232980526
v 0.9999999907043465 -11.480503077671468 -27.716386232980526
v 0.9999999907043465 -11.480503077671468 -27.716386232980526
v 0.9999999907043465 -11.480503077671468 -27.716386232980526
v 0.9999999907043465 -11.480503077671468 -27.716386232980526
v 0.9999999907043465 -11.480503077671468 -27.716386232980526
v 0.9999999907043465 -11.480503077671468 -27.716386232980526
v 0.9900371207940276 -11.295829736233483 -27.792520977856782
v 1.0671946260845875 -11.307337355659662 -27.790538188550514
v 1.1341223653437005 -11.345207872869905 -27.777266442139858
v 1.1806311737367556 -11.403675873839145 -27.75472622888854
v 1.1996405359284634 -11.473840111525654 -27.726349102890847
v 1.188256424006101 -11.545018725770035 -27.6964552197215
v 1.148211991530697 -11.60637542508995 -27.669595650008194
v 1.0856036087335739 -11.648569186333372 -27.649859527679887
v 1.0099628606146656 -11.665176419109454 -27.640251488104273
v 0.9328053553241055 -11.653668799683274 -27.642234277410537
v 0.8658776160649927 -11.615798282473031 -27.655506023821196
v 0.8193688076719374 -11.557330281503791 -27.678046237072515
v 0.8003594454802295 -11.487166043817282 -27.706423363070208
v 0.811743557402592 -11.415987429572901 -27.736317246239555
v 0.8517879898779962 -11.354630730252985 -27.76317681595286
v 0.9143963726751193 -11.312436969009564 -27.78291293828117
v 0.9900371207940276 -11.295829736233483 -27.792520977856782
v 2.0000000092956536 1.0671877781476269e-7 2.576419202426905e-7
v 2.0000000092956536 1.0671877781476269e-7 2.576419202426905e-7
v 2.0000000092956536 1.0671877781476269e-7 2.576419202426905e-7
v 2.0000000092956536 1.0671877781476269e-7 2.576419202426905e-7
v 2.0000000092956536 1.0671877781476269e-7 2.576419202426905e-7
v 2.0000000092956536 1.0671877781476269e-7 2.576419202426905e-7
v 2.0000000092956536 1.0671877781476269e-7 2.576419202426905e-7
v 2.0000000092956536 1.0671877781476269e-7 2.576419202426905e-7
v 2.0000000092956536 1.0671877781476269e-7 2.576419202426905e-7
v 2.0000000092956536 1.0671877781476269e-7 2.576419202426905e-7
v 2.0000000092956536 1.0671877781476269e-7 2.576419202426905e-7
v 2.0000000092956536 1.0671877781476269e-7 2.576419202426905e-7
v 2.0000000092956536 1.0671877781476269e-7 2.576419202426905e-7
v 2.0000000092956536 1.0671877781476269e-7 2.576419202426905e-7
v 2.0000000092956536 1.0671877781476269e-7 2.576419202426905e-7
v 2.0000000092956536 1.0671877781476269e-7 2.576419202426905e-7
v 1.9900371393853344 0.18467344815676245 -0.07613448723433436
v 2.0671946446758946 0.17316582873058461 -0.07415169792806786
v 2.1341223839350074 0.13529531152034124 -0.06087995151741055
v 2.180631192328063 0.07682731055110192 -0.03833973826609238
v 2.1996405545197706 0.006663072864591335 -0.00996261226839934
v 2.188256442597408 -0.06451554137978821 0.019931270900947595
v 2.1482120101220037 -0.12587224069970482 0.046790840614253426
v 2.085603627324881 -0.16806600194312704 0.06652696294256266
v 2.0099628792059723 -0.18467323471920682 0.07613500251817484
v 1.9328053739154125 -0.17316561529302898 0.07415221321190835
v 1.8658776346562995 -0.13529509808278561 0.06088046680125103
v 1.8193688262632444 -0.0768270971135463 0.03834025354993287
v 1.8003594640715366 -0.0066628594270357056 0.009963127552239825
v 1.811743575993899 0.06451575481734384 -0.01993075561710711
v 1.851788008469303 0.12587245413726045 -0.04679032533041294
v 1.9143963912664261 0.16806621538068267 -0.06652644765872218
v 1.9900371393853344 0.18467344815676245 -0.07613448723433436
vt 0 1
vt 0.0625 1
vt 0.125 1
vt 0.1875 1
vt 0.25 1
vt 0.3125 1
vt 0.375 1
vt 0.4375 1
vt 0.5 1
vt 0.5625 1
vt 0.625 1
vt 0.6875 1
vt 0.75 1
vt 0.8125 1
vt 0.875 1
vt 0.9375 1
vt 1 1
vt 0 0
vt 0.0625 0
vt 0.125 0
vt 0.1875 0
vt 0.25 0
vt 0.3125 0
vt 0.375 0
vt 0.4375 0
vt 0.5 0
vt 0.5625 0
vt 0.625 0
vt 0.6875 0
vt 0.75 0
vt 0.8125 0
vt 0.875 0
vt 0.9375 0
vt 1 0
vt 0.5 0.5
vt 0.5 0.5
vt 0.5 0.5
vt 0.5 0.5
vt 0.5 0.5
vt 0.5 0.5
vt 0.5 0.5
vt 0.5 0.5
vt 0.5 0.5
vt 0.5 0.5
vt 0.5 0.5
vt 0.5 0.5
vt 0.5 0.5
vt 0.5 0.5
vt 0.5 0.5
vt 0.5 0.5
vt 1 0.5
vt 0.9619397521018982 0.6913416981697083
vt 0.8535534143447876 0.8535534143447876
vt 0.6913416981697083 0.9619397521018982
vt 0.5 1
vt 0.30865827202796936 0.9619397521018982
vt 0.1464466154575348 0.8535534143447876
vt 0.03806023299694061 0.6913416981697083
vt 0 0.5
vt 0.03806023299694061 0.30865827202796936
vt 0.1464466154575348 0.1464466154575348
vt 0.30865827202796936 0.03806023299694061
vt 0.5 0
vt 0.6913416981697083 0.03806023299694061
vt 0.8535534143447876 0.1464466154575348
vt 0.9619397521018982 0.30865827202796936
vt 1 0.5
vt 0.5 0.5
vt 0.5 0.5
vt 0.5 0.5
vt 0.5 0.5
vt 0.5 0.5
vt 0.5 0.5
vt 0.5 0.5
vt 0.5 0.5
vt 0.5 0.5
vt 0.5 0.5
vt 0.5 0.5
vt 0.5 0.5
vt 0.5 0.5
vt 0.5 0.5
vt 0.5 0.5
vt 0.5 0.5
vt 1 0.5
vt 0.9619397521018982 0.30865827202796936
vt 0.8535534143447876 0.1464466154575348
vt 0.6913416981697083 0.03806023299694061
vt 0.5 0
vt 0.30865827202796936 0.03806023299694061
vt 0.1464466154575348 0.1464466154575348
vt 0.03806023299694061 0.30865827202796936
vt 0 0.5
vt 0.03806023299694061 0.6913416981697083
vt 0.1464466154575348 0.8535534143447876
vt 0.30865827202796936 0.9619397521018982
vt 0.5 1
vt 0.6913416981697083 0.9619397521018982
vt 0.8535534143447876 0.8535534143447876
vt 0.9619397521018982 0.6913416981697083
vt 1 0.5
vn -0.04981434880930318 0.9233666934306877 -0.38067371870879607
vn 0.3359731872302512 0.865828621005599 -0.3707597827568267
vn 0.6706118422775389 0.6764759928182165 -0.3044010317619403
vn 0.9031559260585738 0.3841360296262345 -0.19169998426779444
vn 0.9982027112462056 0.03331483023263854 -0.0498143488093032
vn 0.9412821784932068 -0.3225782501938 0.09965506988101075
vn 0.7410599699644395 -0.629361708075062 0.2339529040750397
vn 0.4280181016170351 -0.840330553528517 0.3326335303221939
vn 0.049814348809303306 -0.9233666934306877 0.38067371870879607
vn -0.3359731872302512 -0.865828621005599 0.3707597827568267
vn -0.6706118422775389 -0.6764759928182165 0.3044010317619403
vn -0.9031559260585738 -0.3841360296262345 0.19169998426779444
vn -0.9982027112462056 -0.03331483023263865 0.04981434880930325
vn -0.9412821784932068 0.3225782501938 -0.09965506988101075
vn -0.7410599699644395 0.629361708075062 -0.2339529040750397
vn -0.4280181016170351 0.840330553528517 -0.3326335303221939
vn -0.049814348809303424 0.9233666934306877 -0.38067371870879607
vn -0.04981434880930318 0.9233666934306877 -0.38067371870879607
vn 0.3359731872302512 0.865828621005599 -0.3707597827568267
vn 0.6706118422775389 0.6764759928182165 -0.3044010317619403
vn 0.9031559260585738 0.3841360296262345 -0.19169998426779444
vn 0.9982027112462056 0.03331483023263854 -0.0498143488093032
vn 0.9412821784932068 -0.3225782501938 0.09965506988101075
vn 0.7410599699644395 -0.629361708075062 0.2339529040750397
vn 0.4280181016170351 -0.840330553528517 0.3326335303221939
vn 0.049814348809303306 -0.9233666934306877 0.38067371870879607
vn -0.3359731872302512 -0.865828621005599 0.3707597827568267
vn -0.6706118422775389 -0.6764759928182165 0.3044010317619403
vn -0.9031559260585738 -0.3841360296262345 0.19169998426779444
vn -0.9982027112462056 -0.03331483023263865 0.04981434880930325
vn -0.9412821784932068 0.3225782501938 -0.09965506988101075
vn -0.7410599699644395 0.629361708075062 -0.2339529040750397
vn -0.4280181016170351 0.840330553528517 -0.3326335303221939
vn -0.049814348809303424 0.9233666934306877 -0.38067371870879607
vn -0.03331483023263848 -0.38247100746259055 -0.9233666934306877
vn -0.03331483023263848 -0.38247100746259055 -0.9233666934306877
vn -0.03331483023263848 -0.38247100746259055 -0.9233666934306877
vn -0.03331483023263848 -0.38247100746259055 -0.9233666934306877
vn -0.03331483023263848 -0.38247100746259055 -0.9233666934306877
vn -0.03331483023263848 -0.38247100746259055 -0.9233666934306877
vn -0.03331483023263848 -0.38247100746259055 -0.9233666934306877
vn -0.03331483023263848 -0.38247100746259055 -0.9233666934306877
vn -0.03331483023263848 -0.38247100746259055 -0.9233666934306877
vn -0.03331483023263848 -0.38247100746259055 -0.9233666934306877
vn -0.03331483023263848 -0.38247100746259055 -0.9233666934306877
vn -0.03331483023263848 -0.38247100746259055 -0.9233666934306877
vn -0.03331483023263848 -0.38247100746259055 -0.9233666934306877
vn -0.03331483023263848 -0.38247100746259055 -0.9233666934306877
vn -0.03331483023263848 -0.38247100746259055 -0.9233666934306877
vn -0.03331483023263848 -0.38247100746259055 -0.9233666934306877
vn -0.03331483023263848 -0.38247100746259055 -0.9233666934306877
vn -0.03331483023263848 -0.38247100746259055 -0.9233666934306877
vn -0.03331483023263848 -0.38247100746259055 -0.9233666934306877
vn -0.03331483023263848 -0.38247100746259055 -0.9233666934306877
vn -0.03331483023263848 -0.38247100746259055 -0.9233666934306877
vn -0.03331483023263848 -0.38247100746259055 -0.9233666934306877
vn -0.03331483023263848 -0.38247100746259055 -0.9233666934306877
vn -0.03331483023263848 -0.38247100746259055 -0.9233666934306877
vn -0.03331483023263848 -0.38247100746259055 -0.9233666934306877
vn -0.03331483023263848 -0.38247100746259055 -0.9233666934306877
vn -0.03331483023263848 -0.38247100746259055 -0.9233666934306877
vn -0.03331483023263848 -0.38247100746259055 -0.9233666934306877
vn -0.03331483023263848 -0.38247100746259055 -0.9233666934306877
vn -0.03331483023263848 -0.38247100746259055 -0.9233666934306877
vn -0.03331483023263848 -0.38247100746259055 -0.9233666934306877
vn -0.03331483023263848 -0.38247100746259055 -0.9233666934306877
vn -0.03331483023263848 -0.38247100746259055 -0.9233666934306877
vn 0.03331483023263848 0.38247100746259055 0.9233666934306877
vn 0.03331483023263848 0.38247100746259055 0.9233666934306877
vn 0.03331483023263848 0.38247100746259055 0.9233666934306877
vn 0.03331483023263848 0.38247100746259055 0.9233666934306877
vn 0.03331483023263848 0.38247100746259055 0.9233666934306877
vn 0.03331483023263848 0.38247100746259055 0.9233666934306877
vn 0.03331483023263848 0.38247100746259055 0.9233666934306877
vn 0.03331483023263848 0.38247100746259055 0.9233666934306877
vn 0.03331483023263848 0.38247100746259055 0.9233666934306877
vn 0.03331483023263848 0.38247100746259055 0.9233666934306877
vn 0.03331483023263848 0.38247100746259055 0.9233666934306877
vn 0.03331483023263848 0.38247100746259055 0.9233666934306877
vn 0.03331483023263848 0.38247100746259055 0.9233666934306877
vn 0.03331483023263848 0.38247100746259055 0.9233666934306877
vn 0.03331483023263848 0.38247100746259055 0.9233666934306877
vn 0.03331483023263848 0.38247100746259055 0.9233666934306877
vn 0.03331483023263848 0.38247100746259055 0.9233666934306877
vn 0.03331483023263848 0.38247100746259055 0.9233666934306877
vn 0.03331483023263848 0.38247100746259055 0.9233666934306877
vn 0.03331483023263848 0.38247100746259055 0.9233666934306877
vn 0.03331483023263848 0.38247100746259055 0.9233666934306877
vn 0.03331483023263848 0.38247100746259055 0.9233666934306877
vn 0.03331483023263848 0.38247100746259055 0.9233666934306877
vn 0.03331483023263848 0.38247100746259055 0.9233666934306877
vn 0.03331483023263848 0.38247100746259055 0.9233666934306877
vn 0.03331483023263848 0.38247100746259055 0.9233666934306877
vn 0.03331483023263848 0.38247100746259055 0.9233666934306877
vn 0.03331483023263848 0.38247100746259055 0.9233666934306877
vn 0.03331483023263848 0.38247100746259055 0.9233666934306877
vn 0.03331483023263848 0.38247100746259055 0.9233666934306877
vn 0.03331483023263848 0.38247100746259055 0.9233666934306877
vn 0.03331483023263848 0.38247100746259055 0.9233666934306877
vn 0.03331483023263848 0.38247100746259055 0.9233666934306877
f 1/1/1 18/18/18 2/2/2
f 18/18/18 19/19/19 2/2/2
f 2/2/2 19/19/19 3/3/3
f 19/19/19 20/20/20 3/3/3
f 3/3/3 20/20/20 4/4/4
f 20/20/20 21/21/21 4/4/4
f 4/4/4 21/21/21 5/5/5
f 21/21/21 22/22/22 5/5/5
f 5/5/5 22/22/22 6/6/6
f 22/22/22 23/23/23 6/6/6
f 6/6/6 23/23/23 7/7/7
f 23/23/23 24/24/24 7/7/7
f 7/7/7 24/24/24 8/8/8
f 24/24/24 25/25/25 8/8/8
f 8/8/8 25/25/25 9/9/9
f 25/25/25 26/26/26 9/9/9
f 9/9/9 26/26/26 10/10/10
f 26/26/26 27/27/27 10/10/10
f 10/10/10 27/27/27 11/11/11
f 27/27/27 28/28/28 11/11/11
f 11/11/11 28/28/28 12/12/12
f 28/28/28 29/29/29 12/12/12
f 12/12/12 29/29/29 13/13/13
f 29/29/29 30/30/30 13/13/13
f 13/13/13 30/30/30 14/14/14
f 30/30/30 31/31/31 14/14/14
f 14/14/14 31/31/31 15/15/15
f 31/31/31 32/32/32 15/15/15
f 15/15/15 32/32/32 16/16/16
f 32/32/32 33/33/33 16/16/16
f 16/16/16 33/33/33 17/17/17
f 33/33/33 34/34/34 17/17/17
f 51/51/51 52/52/52 35/35/35
f 52/52/52 53/53/53 36/36/36
f 53/53/53 54/54/54 37/37/37
f 54/54/54 55/55/55 38/38/38
f 55/55/55 56/56/56 39/39/39
f 56/56/56 57/57/57 40/40/40
f 57/57/57 58/58/58 41/41/41
f 58/58/58 59/59/59 42/42/42
f 59/59/59 60/60/60 43/43/43
f 60/60/60 61/61/61 44/44/44
f 61/61/61 62/62/62 45/45/45
f 62/62/62 63/63/63 46/46/46
f 63/63/63 64/64/64 47/47/47
f 64/64/64 65/65/65 48/48/48
f 65/65/65 66/66/66 49/49/49
f 66/66/66 67/67/67 50/50/50
f 85/85/85 84/84/84 68/68/68
f 86/86/86 85/85/85 69/69/69
f 87/87/87 86/86/86 70/70/70
f 88/88/88 87/87/87 71/71/71
f 89/89/89 88/88/88 72/72/72
f 90/90/90 89/89/89 73/73/73
f 91/91/91 90/90/90 74/74/74
f 92/92/92 91/91/91 75/75/75
f 93/93/93 92/92/92 76/76/76
f 94/94/94 93/93/93 77/77/77
f 95/95/95 94/94/94 78/78/78
f 96/96/96 95/95/95 79/79/79
f 97/97/97 96/96/96 80/80/80
f 98/98/98 97/97/97 81/81/81
f 99/99/99 98/98/98 82/82/82
f 100/100/100 99/99/99 83/83/83
