v -1.004450254749878 11.295829736233486 27.793040999982633
v -0.9276362585432201 11.307337355659662 27.785502958933435
v -0.8618389760877266 11.345207872869906 27.767442528246526
v -0.817075471280645 11.403675873839145 27.74160923366486
v -0.8001605520938517 11.473840111525657 27.711935968934995
v -0.8136693867470408 11.545018725770035 27.682940216806173
v -0.855545352122003 11.606375425089952 27.6590363137488
v -0.9194132430532009 11.648569186333376 27.643863422494007
v -0.9955497266588149 11.665176419109454 27.639731465978418
v -1.0723637228654728 11.653668799683278 27.647269507027616
v -1.138161005320966 11.615798282473033 27.665329937714525
v -1.182924510128048 11.557330281503795 27.69116323229619
v -1.199839429314841 11.487166043817282 27.720836497026056
v -1.186330594661652 11.415987429572905 27.749832249154878
v -1.14445462928669 11.354630730252987 27.77373615221225
v -1.080586738355492 11.312436969009564 27.788909043467044
v -1.004450254749878 11.295829736233486 27.793040999982633
v -2.004450273341185 -0.18467344815676068 0.07665450936018559
v -1.9276362771345272 -0.17316582873058284 0.06911646831098928
v -1.861838994679034 -0.13529531152033947 0.05105603762408073
v -1.817075489871952 -0.07682731055110015 0.025222743042414564
v -1.800160570685159 -0.006663072864589559 -0.004450521687454412
v -1.813669405338348 0.06451554137978999 -0.03344627381627596
v -1.85554537071331 0.1258722406997066 -0.05735017687364952
v -1.919413261644508 0.16806600194312882 -0.07252306812843834
v -1.995549745250122 0.1846732347192086 -0.07665502464402962
v -2.0723637414567797 0.17316561529303076 -0.06911698359483331
v -2.1381610239122733 0.1352950980827874 -0.05105655290792477
v -2.1829245287193553 0.07682709711354807 -0.025223258326258602
v -2.1998394479061485 0.006662859427037482 0.004450006403610374
v -2.1863306132529594 -0.06451575481734206 0.033445758532431924
v -2.144454647877997 -0.12587245413725867 0.05734966158980548
v -2.080586756946799 -0.1680662153806809 0.0725225528445943
v -2.004450273341185 -0.18467344815676068 0.07665450936018559
v -0.9999999907043464 11.48050307767147 27.716386232980526
v -0.9999999907043464 11.48050307767147 27.716386232980526
v -0.9999999907043464 11.48050307767147 27.716386232980526
v -0.9999999907043464 11.48050307767147 27.716386232980526
v -0.9999999907043464 11.48050307767147 27.716386232980526
v -0.9999999907043464 11.48050307767147 27.716386232980526
v -0.9999999907043464 11.48050307767147 27.716386232980526
v -0.9999999907043464 11.48050307767147 27.716386232980526
v -0.9999999907043464 11.48050307767147 27.716386232980526
v -0.9999999907043464 11.48050307767147 27.716386232980526
v -0.9999999907043464 11.48050307767147 27.716386232980526
v -0.9999999907043464 11.48050307767147 27.716386232980526
v -0.9999999907043464 11.48050307767147 27.716386232980526
v -0.9999999907043464 11.48050307767147 27.716386232980526
v -0.9999999907043464 11.48050307767147 27.716386232980526
v -0.9999999907043464 11.48050307767147 27.716386232980526
v -1.004450254749878 11.295829736233486 27.793040999982633
v -0.9276362585432201 11.307337355659662 27.785502958933435
v -0.8618389760877266 11.345207872869906 27.767442528246526
v -0.817075471280645 11.403675873839145 27.74160923366486
v -0.8001605520938517 11.473840111525657 27.711935968934995
v -0.8136693867470408 11.545018725770035 27.682940216806173
v -0.855545352122003 11.606375425089952 27.6590363137488
v -0.9194132430532009 11.648569186333376 27.643863422494007
v -0.9955497266588149 11.665176419109454 27.639731465978418
v -1.0723637228654728 11.653668799683278 27.647269507027616
v -1.138161005320966 11.615798282473033 27.665329937714525
v -1.182924510128048 11.557330281503795 27.69116323229619
v -1.199839429314841 11.487166043817282 27.720836497026056
v -1.186330594661652 11.415987429572905 27.749832249154878
v -1.14445462928669 11.354630730252987 27.77373615221225
v -1.080586738355492 11.312436969009564 27.788909043467044
v -1.004450254749878 11.295829736233486 27.793040999982633
v -2.0000000092956536 -1.0671877603840585e-7 -2.5764192201904734e-7
v -2.0000000092956536 -1.0671877603840585e-7 -2.5764192201904734e-7
v -2.0000000092956536 -1.0671877603840585e-7 -2.5764192201904734e-7
v -2.0000000092956536 -1.0671877603840585e-7 -2.5764192201904734e-7
v -2.0000000092956536 -1.0671877603840585e-7 -2.5764192201904734e-7
v -2.0000000092956536 -1.0671877603840585e-7 -2.5764192201904734e-7
v -2.0000000092956536 -1.0671877603840585e-7 -2.5764192201904734e-7
v -2.0000000092956536 -1.0671877603840585e-7 -2.5764192201904734e-7
v -2.0000000092956536 -1.0671877603840585e-7 -2.5764192201904734e-7
v -2.0000000092956536 -1.0671877603840585e-7 -2.5764192201904734e-7
v -2.0000000092956536 -1.0671877603840585e-7 -2.5764192201904734e-7
v -2.0000000092956536 -1.0671877603840585e-7 -2.5764192201904734e-7
v -2.0000000092956536 -1.0671877603840585e-7 -2.5764192201904734e-7
v -2.0000000092956536 -1.0671877603840585e-7 -2.5764192201904734e-7
v -2.0000000092956536 -1.0671877603840585e-7 -2.5764192201904734e-7
v -2.0000000092956536 -1.0671877603840585e-7 -2.5764192201904734e-7
v -2.004450273341185 -0.18467344815676068 0.07665450936018559
v -1.9276362771345272 -0.17316582873058284 0.06911646831098928
v -1.861838994679034 -0.13529531152033947 0.05105603762408073
v -1.817075489871952 -0.07682731055110015 0.025222743042414564
v -1.800160570685159 -0.006663072864589559 -0.004450521687454412
v -1.813669405338348 0.06451554137978999 -0.03344627381627596
v -1.85554537071331 0.1258722406997066 -0.05735017687364952
v -1.919413261644508 0.16806600194312882 -0.07252306812843834
v -1.995549745250122 0.1846732347192086 -0.07665502464402962
v -2.0723637414567797 0.17316561529303076 -0.06911698359483331
v -2.1381610239122733 0.1352950980827874 -0.05105655290792477
v -2.1829245287193553 0.07682709711354807 -0.025223258326258602
v -2.1998394479061485 0.006662859427037482 0.004450006403610374
v -2.1863306132529594 -0.06451575481734206 0.033445758532431924
v -2.144454647877997 -0.12587245413725867 0.05734966158980548
v -2.080586756946799 -0.1680662153806809 0.0725225528445943
v -2.004450273341185 -0.18467344815676068 0.07665450936018559
vt 0 1
vt 0.0625 1
vt 0.125 1
vt 0.1875 1
vt 0.25 1
vt 0.3125 1
vt 0.375 1
vt 0.4375 1
vt 0.5 1
vt 0.5625 1
vt 0.625 1
vt 0.6875 1
vt 0.75 1
vt 0.8125 1
vt 0.875 1
vt 0.9375 1
vt 1 1
vt 0 0
vt 0.0625 0
vt 0.125 0
vt 0.1875 0
vt 0.25 0
vt 0.3125 0
vt 0.375 0
vt 0.4375 0
vt 0.5 0
vt 0.5625 0
vt 0.625 0
vt 0.6875 0
vt 0.75 0
vt 0.8125 0
vt 0.875 0
vt 0.9375 0
vt 1 0
vt 0.5 0.5
vt 0.5 0.5
vt 0.5 0.5
vt 0.5 0.5
vt 0.5 0.5
vt 0.5 0.5
vt 0.5 0.5
vt 0.5 0.5
vt 0.5 0.5
vt 0.5 0.5
vt 0.5 0.5
vt 0.5 0.5
vt 0.5 0.5
vt 0.5 0.5
vt 0.5 0.5
vt 0.5 0.5
vt 1 0.5
vt 0.9619397521018982 0.6913416981697083
vt 0.8535534143447876 0.8535534143447876
vt 0.6913416981697083 0.9619397521018982
vt 0.5 1
vt 0.30865827202796936 0.9619397521018982
vt 0.1464466154575348 0.8535534143447876
vt 0.03806023299694061 0.6913416981697083
vt 0 0.5
vt 0.03806023299694061 0.30865827202796936
vt 0.1464466154575348 0.1464466154575348
vt 0.30865827202796936 0.03806023299694061
vt 0.5 0
vt 0.6913416981697083 0.03806023299694061
vt 0.8535534143447876 0.1464466154575348
vt 0.9619397521018982 0.30865827202796936
vt 1 0.5
vt 0.5 0.5
vt 0.5 0.5
vt 0.5 0.5
vt 0.5 0.5
vt 0.5 0.5
vt 0.5 0.5
vt 0.5 0.5
vt 0.5 0.5
vt 0.5 0.5
vt 0.5 0.5
vt 0.5 0.5
vt 0.5 0.5
vt 0.5 0.5
vt 0.5 0.5
vt 0.5 0.5
vt 0.5 0.5
vt 1 0.5
vt 0.9619397521018982 0.30865827202796936
vt 0.8535534143447876 0.1464466154575348
vt 0.6913416981697083 0.03806023299694061
vt 0.5 0
vt 0.30865827202796936 0.03806023299694061
vt 0.1464466154575348 0.1464466154575348
vt 0.03806023299694061 0.30865827202796936
vt 0 0.5
vt 0.03806023299694061 0.6913416981697083
vt 0.1464466154575348 0.8535534143447876
vt 0.30865827202796936 0.9619397521018982
vt 0.5 1
vt 0.6913416981697083 0.9619397521018982
vt 0.8535534143447876 0.8535534143447876
vt 0.9619397521018982 0.6913416981697083
vt 1 0.5
vn -0.022251319896087234 -0.9233666934306877 0.3832738292993151
vn 0.3618186714614395 -0.865828621005599 0.3455836339143128
vn 0.6908050412328405 -0.6764759928182164 0.2552814645600065
vn 0.9146226083274104 -0.38413602962623455 0.12611500735185016
vn 0.9991971781632756 -0.03331483023263854 -0.02225131989608721
vn 0.9316530314813822 0.3225782501938 -0.1672300853119938
vn 0.7222731596105895 0.6293617080750619 -0.2867495829377553
vn 0.4029337494215831 0.840330553528517 -0.3626140570682848
vn 0.022251319896087356 0.9233666934306877 -0.3832738292993151
vn -0.3618186714614395 0.865828621005599 -0.3455836339143128
vn -0.6908050412328405 0.6764759928182164 -0.2552814645600065
vn -0.9146226083274104 0.38413602962623455 -0.12611500735185016
vn -0.9991971781632756 0.03331483023263865 0.022251319896087165
vn -0.9316530314813822 -0.3225782501938 0.1672300853119938
vn -0.7222731596105895 -0.6293617080750619 0.2867495829377553
vn -0.4029337494215831 -0.840330553528517 0.3626140570682848
vn -0.02225131989608748 -0.9233666934306877 0.3832738292993151
vn -0.022251319896087234 -0.9233666934306877 0.3832738292993151
vn 0.3618186714614395 -0.865828621005599 0.3455836339143128
vn 0.6908050412328405 -0.6764759928182164 0.2552814645600065
vn 0.9146226083274104 -0.38413602962623455 0.12611500735185016
vn 0.9991971781632756 -0.03331483023263854 -0.02225131989608721
vn 0.9316530314813822 0.3225782501938 -0.1672300853119938
vn 0.7222731596105895 0.6293617080750619 -0.2867495829377553
vn 0.4029337494215831 0.840330553528517 -0.3626140570682848
vn 0.022251319896087356 0.9233666934306877 -0.3832738292993151
vn -0.3618186714614395 0.865828621005599 -0.3455836339143128
vn -0.6908050412328405 0.6764759928182164 -0.2552814645600065
vn -0.9146226083274104 0.38413602962623455 -0.12611500735185016
vn -0.9991971781632756 0.03331483023263865 0.022251319896087165
vn -0.9316530314813822 -0.3225782501938 0.1672300853119938
vn -0.7222731596105895 -0.6293617080750619 0.2867495829377553
vn -0.4029337494215831 -0.840330553528517 0.3626140570682848
vn -0.02225131989608748 -0.9233666934306877 0.3832738292993151
vn 0.03331483023263848 0.38247100746259055 0.9233666934306877
vn 0.03331483023263848 0.38247100746259055 0.9233666934306877
vn 0.03331483023263848 0.38247100746259055 0.9233666934306877
vn 0.03331483023263848 0.38247100746259055 0.9233666934306877
vn 0.03331483023263848 0.38247100746259055 0.9233666934306877
vn 0.03331483023263848 0.38247100746259055 0.9233666934306877
vn 0.03331483023263848 0.38247100746259055 0.9233666934306877
vn 0.03331483023263848 0.38247100746259055 0.9233666934306877
vn 0.03331483023263848 0.38247100746259055 0.9233666934306877
vn 0.03331483023263848 0.38247100746259055 0.9233666934306877
vn 0.03331483023263848 0.38247100746259055 0.9233666934306877
vn 0.03331483023263848 0.38247100746259055 0.9233666934306877
vn 0.03331483023263848 0.38247100746259055 0.9233666934306877
vn 0.03331483023263848 0.38247100746259055 0.9233666934306877
vn 0.03331483023263848 0.38247100746259055 0.9233666934306877
vn 0.03331483023263848 0.38247100746259055 0.9233666934306877
vn 0.03331483023263848 0.38247100746259055 0.9233666934306877
vn 0.03331483023263848 0.38247100746259055 0.9233666934306877
vn 0.03331483023263848 0.38247100746259055 0.9233666934306877
vn 0.03331483023263848 0.38247100746259055 0.9233666934306877
vn 0.03331483023263848 0.38247100746259055 0.9233666934306877
vn 0.03331483023263848 0.38247100746259055 0.9233666934306877
vn 0.03331483023263848 0.38247100746259055 0.9233666934306877
vn 0.03331483023263848 0.38247100746259055 0.9233666934306877
vn 0.03331483023263848 0.38247100746259055 0.9233666934306877
vn 0.03331483023263848 0.38247100746259055 0.9233666934306877
vn 0.03331483023263848 0.38247100746259055 0.9233666934306877
vn 0.03331483023263848 0.38247100746259055 0.9233666934306877
vn 0.03331483023263848 0.38247100746259055 0.9233666934306877
vn 0.03331483023263848 0.38247100746259055 0.9233666934306877
vn 0.03331483023263848 0.38247100746259055 0.9233666934306877
vn 0.03331483023263848 0.38247100746259055 0.9233666934306877
vn 0.03331483023263848 0.38247100746259055 0.9233666934306877
vn -0.03331483023263848 -0.38247100746259055 -0.9233666934306877
vn -0.03331483023263848 -0.38247100746259055 -0.9233666934306877
vn -0.03331483023263848 -0.38247100746259055 -0.9233666934306877
vn -0.03331483023263848 -0.38247100746259055 -0.9233666934306877
vn -0.03331483023263848 -0.38247100746259055 -0.9233666934306877
vn -0.03331483023263848 -0.38247100746259055 -0.9233666934306877
vn -0.03331483023263848 -0.38247100746259055 -0.9233666934306877
vn -0.03331483023263848 -0.38247100746259055 -0.9233666934306877
vn -0.03331483023263848 -0.38247100746259055 -0.9233666934306877
vn -0.03331483023263848 -0.38247100746259055 -0.9233666934306877
vn -0.03331483023263848 -0.38247100746259055 -0.9233666934306877
vn -0.03331483023263848 -0.38247100746259055 -0.9233666934306877
vn -0.03331483023263848 -0.38247100746259055 -0.9233666934306877
vn -0.03331483023263848 -0.38247100746259055 -0.9233666934306877
vn -0.03331483023263848 -0.38247100746259055 -0.9233666934306877
vn -0.03331483023263848 -0.38247100746259055 -0.9233666934306877
vn -0.03331483023263848 -0.38247100746259055 -0.9233666934306877
vn -0.03331483023263848 -0.38247100746259055 -0.9233666934306877
vn -0.03331483023263848 -0.38247100746259055 -0.9233666934306877
vn -0.03331483023263848 -0.38247100746259055 -0.9233666934306877
vn -0.03331483023263848 -0.38247100746259055 -0.9233666934306877
vn -0.03331483023263848 -0.38247100746259055 -0.9233666934306877
vn -0.03331483023263848 -0.38247100746259055 -0.9233666934306877
vn -0.03331483023263848 -0.38247100746259055 -0.9233666934306877
vn -0.03331483023263848 -0.38247100746259055 -0.9233666934306877
vn -0.03331483023263848 -0.38247100746259055 -0.9233666934306877
vn -0.03331483023263848 -0.38247100746259055 -0.9233666934306877
vn -0.03331483023263848 -0.38247100746259055 -0.9233666934306877
vn -0.03331483023263848 -0.38247100746259055 -0.9233666934306877
vn -0.03331483023263848 -0.38247100746259055 -0.9233666934306877
vn -0.03331483023263848 -0.38247100746259055 -0.9233666934306877
vn -0.03331483023263848 -0.38247100746259055 -0.9233666934306877
vn -0.03331483023263848 -0.38247100746259055 -0.9233666934306877
f 1/1/1 18/18/18 2/2/2
f 18/18/18 19/19/19 2/2/2
f 2/2/2 19/19/19 3/3/3
f 19/19/19 20/20/20 3/3/3
f 3/3/3 20/20/20 4/4/4
f 20/20/20 21/21/21 4/4/4
f 4/4/4 21/21/21 5/5/5
f 21/21/21 22/22/22 5/5/5
f 5/5/5 22/22/22 6/6/6
f 22/22/22 23/23/23 6/6/6
f 6/6/6 23/23/23 7/7/7
f 23/23/23 24/24/24 7/7/7
f 7/7/7 24/24/24 8/8/8
f 24/24/24 25/25/25 8/8/8
f 8/8/8 25/25/25 9/9/9
f 25/25/25 26/26/26 9/9/9
f 9/9/9 26/26/26 10/10/10
f 26/26/26 27/27/27 10/10/10
f 10/10/10 27/27/27 11/11/11
f 27/27/27 28/28/28 11/11/11
f 11/11/11 28/28/28 12/12/12
f 28/28/28 29/29/29 12/12/12
f 12/12/12 29/29/29 13/13/13
f 29/29/29 30/30/30 13/13/13
f 13/13/13 30/30/30 14/14/14
f 30/30/30 31/31/31 14/14/14
f 14/14/14 31/31/31 15/15/15
f 31/31/31 32/32/32 15/15/15
f 15/15/15 32/32/32 16/16/16
f 32/32/32 33/33/33 16/16/16
f 16/16/16 33/33/33 17/17/17
f 33/33/33 34/34/34 17/17/17
f 51/51/51 52/52/52 35/35/35
f 52/52/52 53/53/53 36/36/36
f 53/53/53 54/54/54 37/37/37
f 54/54/54 55/55/55 38/38/38
f 55/55/55 56/56/56 39/39/39
f 56/56/56 57/57/57 40/40/40
f 57/57/57 58/58/58 41/41/41
f 58/58/58 59/59/59 42/42/42
f 59/59/59 60/60/60 43/43/43
f 60/60/60 61/61/61 44/44/44
f 61/61/61 62/62/62 45/45/45
f 62/62/62 63/63/63 46/46/46
f 63/63/63 64/64/64 47/47/47
f 64/64/64 65/65/65 48/48/48
f 65/65/65 66/66/66 49/49/49
f 66/66/66 67/67/67 50/50/50
f 85/85/85 84/84/84 68/68/68
f 86/86/86 85/85/85 69/69/69
f 87/87/87 86/86/86 70/70/70
f 88/88/88 87/87/87 71/71/71
f 89/89/89 88/88/88 72/72/72
f 90/90/90 89/89/89 73/73/73
f 91/91/91 90/90/90 74/74/74
f 92/92/92 91/91/91 75/75/75
f 93/93/93 92/92/92 76/76/76
f 94/94/94 93/93/93 77/77/77
f 95/95/95 94/94/94 78/78/78
f 96/96/96 95/95/95 79/79/79
f 97/97/97 96/96/96 80/80/80
f 98/98/98 97/97/97 81/81/81
f 99/99/99 98/98/98 82/82/82
f 100/100/100 99/99/99 83/83/83
