v -0.9955497266588148 11.665176419109457 -27.63973146597842
v -0.9194132430532008 11.648569186333376 -27.643863422494015
v -0.8555453521220029 11.606375425089954 -27.6590363137488
v -0.8136693867470407 11.545018725770039 -27.682940216806173
v -0.8001605520938515 11.473840111525657 -27.711935968934995
v -0.8170754712806448 11.403675873839148 -27.741609233664867
v -0.8618389760877265 11.345207872869908 -27.767442528246534
v -0.92763625854322 11.307337355659666 -27.785502958933442
v -1.004450254749878 11.295829736233486 -27.793040999982637
v -1.0805867383554917 11.312436969009568 -27.788909043467044
v -1.1444546292866897 11.354630730252989 -27.77373615221226
v -1.186330594661652 11.415987429572905 -27.749832249154885
v -1.199839429314841 11.487166043817286 -27.720836497026063
v -1.1829245101280477 11.557330281503795 -27.69116323229619
v -1.138161005320966 11.615798282473035 -27.665329937714525
v -1.0723637228654728 11.653668799683278 -27.647269507027616
v -0.9955497266588148 11.665176419109457 -27.63973146597842
v -1.995549745250122 0.18467323471921038 0.07665502464403318
v -1.9194132616445083 0.1680660019431306 0.07252306812844189
v -1.8555453707133103 0.12587224069970837 0.05735017687365307
v -1.813669405338348 0.06451554137979176 0.033446273816279515
v -1.800160570685159 -0.006663072864587782 0.0044505216874579645
v -1.8170754898719523 -0.07682731055109837 -0.02522274304241101
v -1.861838994679034 -0.1352953115203377 -0.05105603762407718
v -1.9276362771345272 -0.17316582873058106 -0.06911646831098572
v -2.004450273341185 -0.1846734481567589 -0.07665450936018203
v -2.0805867569467993 -0.16806621538067912 -0.07252255284459075
v -2.144454647877997 -0.1258724541372569 -0.057349661589801926
v -2.1863306132529594 -0.06451575481734029 -0.03344575853242837
v -2.1998394479061485 0.006662859427039258 -0.004450006403606821
v -2.1829245287193553 0.07682709711354985 0.025223258326262155
v -2.1381610239122733 0.13529509808278917 0.05105655290792832
v -2.07236374145678 0.17316561529303254 0.06911698359483687
v -1.995549745250122 0.18467323471921038 0.07665502464403318
v -0.9999999907043463 11.480503077671472 -27.71638623298053
v -0.9999999907043463 11.480503077671472 -27.71638623298053
v -0.9999999907043463 11.480503077671472 -27.71638623298053
v -0.9999999907043463 11.480503077671472 -27.71638623298053
v -0.9999999907043463 11.480503077671472 -27.71638623298053
v -0.9999999907043463 11.480503077671472 -27.71638623298053
v -0.9999999907043463 11.480503077671472 -27.71638623298053
v -0.9999999907043463 11.480503077671472 -27.71638623298053
v -0.9999999907043463 11.480503077671472 -27.71638623298053
v -0.9999999907043463 11.480503077671472 -27.71638623298053
v -0.9999999907043463 11.480503077671472 -27.71638623298053
v -0.9999999907043463 11.480503077671472 -27.71638623298053
v -0.9999999907043463 11.480503077671472 -27.71638623298053
v -0.9999999907043463 11.480503077671472 -27.71638623298053
v -0.9999999907043463 11.480503077671472 -27.71638623298053
v -0.9999999907043463 11.480503077671472 -27.71638623298053
v -0.9955497266588148 11.665176419109457 -27.63973146597842
v -0.9194132430532008 11.648569186333376 -27.643863422494015
v -0.8555453521220029 11.606375425089954 -27.6590363137488
v -0.8136693867470407 11.545018725770039 -27.682940216806173
v -0.8001605520938515 11.473840111525657 -27.711935968934995
v -0.8170754712806448 11.403675873839148 -27.741609233664867
v -0.8618389760877265 11.345207872869908 -27.767442528246534
v -0.92763625854322 11.307337355659666 -27.785502958933442
v -1.004450254749878 11.295829736233486 -27.793040999982637
v -1.0805867383554917 11.312436969009568 -27.788909043467044
v -1.1444546292866897 11.354630730252989 -27.77373615221226
v -1.186330594661652 11.415987429572905 -27.749832249154885
v -1.199839429314841 11.487166043817286 -27.720836497026063
v -1.1829245101280477 11.557330281503795 -27.69116323229619
v -1.138161005320966 11.615798282473035 -27.665329937714525
v -1.0723637228654728 11.653668799683278 -27.647269507027616
v -0.9955497266588148 11.665176419109457 -27.63973146597842
v -2.0000000092956536 -1.0671877426204901e-7 2.57641925571761e-7
v -2.0000000092956536 -1.0671877426204901e-7 2.57641925571761e-7
v -2.0000000092956536 -1.0671877426204901e-7 2.57641925571761e-7
v -2.0000000092956536 -1.0671877426204901e-7 2.57641925571761e-7
v -2.0000000092956536 -1.0671877426204901e-7 2.57641925571761e-7
v -2.0000000092956536 -1.0671877426204901e-7 2.57641925571761e-7
v -2.0000000092956536 -1.0671877426204901e-7 2.57641925571761e-7
v -2.0000000092956536 -1.0671877426204901e-7 2.57641925571761e-7
v -2.0000000092956536 -1.0671877426204901e-7 2.57641925571761e-7
v -2.0000000092956536 -1.0671877426204901e-7 2.57641925571761e-7
v -2.0000000092956536 -1.0671877426204901e-7 2.57641925571761e-7
v -2.0000000092956536 -1.0671877426204901e-7 2.57641925571761e-7
v -2.0000000092956536 -1.0671877426204901e-7 2.57641925571761e-7
v -2.0000000092956536 -1.0671877426204901e-7 2.57641925571761e-7
v -2.0000000092956536 -1.0671877426204901e-7 2.57641925571761e-7
v -2.0000000092956536 -1.0671877426204901e-7 2.57641925571761e-7
v -1.995549745250122 0.18467323471921038 0.07665502464403318
v -1.9194132616445083 0.1680660019431306 0.07252306812844189
v -1.8555453707133103 0.12587224069970837 0.05735017687365307
v -1.813669405338348 0.06451554137979176 0.033446273816279515
v -1.800160570685159 -0.006663072864587782 0.0044505216874579645
v -1.8170754898719523 -0.07682731055109837 -0.02522274304241101
v -1.861838994679034 -0.1352953115203377 -0.05105603762407718
v -1.9276362771345272 -0.17316582873058106 -0.06911646831098572
v -2.004450273341185 -0.1846734481567589 -0.07665450936018203
v -2.0805867569467993 -0.16806621538067912 -0.07252255284459075
v -2.144454647877997 -0.1258724541372569 -0.057349661589801926
v -2.1863306132529594 -0.06451575481734029 -0.03344575853242837
v -2.1998394479061485 0.006662859427039258 -0.004450006403606821
v -2.1829245287193553 0.07682709711354985 0.025223258326262155
v -2.1381610239122733 0.13529509808278917 0.05105655290792832
v -2.07236374145678 0.17316561529303254 0.06911698359483687
v -1.995549745250122 0.18467323471921038 0.07665502464403318
vt 0 1
vt 0.0625 1
vt 0.125 1
vt 0.1875 1
vt 0.25 1
vt 0.3125 1
vt 0.375 1
vt 0.4375 1
vt 0.5 1
vt 0.5625 1
vt 0.625 1
vt 0.6875 1
vt 0.75 1
vt 0.8125 1
vt 0.875 1
vt 0.9375 1
vt 1 1
vt 0 0
vt 0.0625 0
vt 0.125 0
vt 0.1875 0
vt 0.25 0
vt 0.3125 0
vt 0.375 0
vt 0.4375 0
vt 0.5 0
vt 0.5625 0
vt 0.625 0
vt 0.6875 0
vt 0.75 0
vt 0.8125 0
vt 0.875 0
vt 0.9375 0
vt 1 0
vt 0.5 0.5
vt 0.5 0.5
vt 0.5 0.5
vt 0.5 0.5
vt 0.5 0.5
vt 0.5 0.5
vt 0.5 0.5
vt 0.5 0.5
vt 0.5 0.5
vt 0.5 0.5
vt 0.5 0.5
vt 0.5 0.5
vt 0.5 0.5
vt 0.5 0.5
vt 0.5 0.5
vt 0.5 0.5
vt 1 0.5
vt 0.9619397521018982 0.6913416981697083
vt 0.8535534143447876 0.8535534143447876
vt 0.6913416981697083 0.9619397521018982
vt 0.5 1
vt 0.30865827202796936 0.9619397521018982
vt 0.1464466154575348 0.8535534143447876
vt 0.03806023299694061 0.6913416981697083
vt 0 0.5
vt 0.03806023299694061 0.30865827202796936
vt 0.1464466154575348 0.1464466154575348
vt 0.30865827202796936 0.03806023299694061
vt 0.5 0
vt 0.6913416981697083 0.03806023299694061
vt 0.8535534143447876 0.1464466154575348
vt 0.9619397521018982 0.30865827202796936
vt 1 0.5
vt 0.5 0.5
vt 0.5 0.5
vt 0.5 0.5
vt 0.5 0.5
vt 0.5 0.5
vt 0.5 0.5
vt 0.5 0.5
vt 0.5 0.5
vt 0.5 0.5
vt 0.5 0.5
vt 0.5 0.5
vt 0.5 0.5
vt 0.5 0.5
vt 0.5 0.5
vt 0.5 0.5
vt 0.5 0.5
vt 1 0.5
vt 0.9619397521018982 0.30865827202796936
vt 0.8535534143447876 0.1464466154575348
vt 0.6913416981697083 0.03806023299694061
vt 0.5 0
vt 0.30865827202796936 0.03806023299694061
vt 0.1464466154575348 0.1464466154575348
vt 0.03806023299694061 0.30865827202796936
vt 0 0.5
vt 0.03806023299694061 0.6913416981697083
vt 0.1464466154575348 0.8535534143447876
vt 0.30865827202796936 0.9619397521018982
vt 0.5 1
vt 0.6913416981697083 0.9619397521018982
vt 0.8535534143447876 0.8535534143447876
vt 0.9619397521018982 0.6913416981697083
vt 1 0.5
vn 0.022251319896087238 0.9233666934306877 0.383273829299315
vn 0.40293374942158316 0.840330553528517 0.36261405706828476
vn 0.7222731596105894 0.6293617080750618 0.2867495829377552
vn 0.9316530314813823 0.32257825019379993 0.16723008531199376
vn 0.9991971781632755 -0.03331483023263842 0.02225131989608726
vn 0.9146226083274105 -0.3841360296262345 -0.12611500735185013
vn 0.6908050412328405 -0.6764759928182164 -0.25528146456000644
vn 0.36181867146143953 -0.8658286210055992 -0.3455836339143128
vn -0.022251319896087116 -0.9233666934306877 -0.383273829299315
vn -0.40293374942158316 -0.840330553528517 -0.36261405706828476
vn -0.7222731596105894 -0.6293617080750618 -0.2867495829377552
vn -0.9316530314813823 -0.32257825019379993 -0.16723008531199376
vn -0.9991971781632755 0.03331483023263831 -0.022251319896087304
vn -0.9146226083274105 0.3841360296262345 0.12611500735185013
vn -0.6908050412328405 0.6764759928182164 0.25528146456000644
vn -0.36181867146143953 0.8658286210055992 0.3455836339143128
vn 0.02225131989608699 0.9233666934306877 0.383273829299315
vn 0.022251319896087238 0.9233666934306877 0.383273829299315
vn 0.40293374942158316 0.840330553528517 0.36261405706828476
vn 0.7222731596105894 0.6293617080750618 0.2867495829377552
vn 0.9316530314813823 0.32257825019379993 0.16723008531199376
vn 0.9991971781632755 -0.03331483023263842 0.02225131989608726
vn 0.9146226083274105 -0.3841360296262345 -0.12611500735185013
vn 0.6908050412328405 -0.6764759928182164 -0.25528146456000644
vn 0.36181867146143953 -0.8658286210055992 -0.3455836339143128
vn -0.022251319896087116 -0.9233666934306877 -0.383273829299315
vn -0.40293374942158316 -0.840330553528517 -0.36261405706828476
vn -0.7222731596105894 -0.6293617080750618 -0.2867495829377552
vn -0.9316530314813823 -0.32257825019379993 -0.16723008531199376
vn -0.9991971781632755 0.03331483023263831 -0.022251319896087304
vn -0.9146226083274105 0.3841360296262345 0.12611500735185013
vn -0.6908050412328405 0.6764759928182164 0.25528146456000644
vn -0.36181867146143953 0.8658286210055992 0.3455836339143128
vn 0.02225131989608699 0.9233666934306877 0.383273829299315
vn 0.03331483023263848 0.3824710074625905 -0.9233666934306877
vn 0.03331483023263848 0.3824710074625905 -0.9233666934306877
vn 0.03331483023263848 0.3824710074625905 -0.9233666934306877
vn 0.03331483023263848 0.3824710074625905 -0.9233666934306877
vn 0.03331483023263848 0.3824710074625905 -0.9233666934306877
vn 0.03331483023263848 0.3824710074625905 -0.9233666934306877
vn 0.03331483023263848 0.3824710074625905 -0.9233666934306877
vn 0.03331483023263848 0.3824710074625905 -0.9233666934306877
vn 0.03331483023263848 0.3824710074625905 -0.9233666934306877
vn 0.03331483023263848 0.3824710074625905 -0.9233666934306877
vn 0.03331483023263848 0.3824710074625905 -0.9233666934306877
vn 0.03331483023263848 0.3824710074625905 -0.9233666934306877
vn 0.03331483023263848 0.3824710074625905 -0.9233666934306877
vn 0.03331483023263848 0.3824710074625905 -0.9233666934306877
vn 0.03331483023263848 0.3824710074625905 -0.9233666934306877
vn 0.03331483023263848 0.3824710074625905 -0.9233666934306877
vn 0.03331483023263848 0.3824710074625905 -0.9233666934306877
vn 0.03331483023263848 0.3824710074625905 -0.9233666934306877
vn 0.03331483023263848 0.3824710074625905 -0.9233666934306877
vn 0.03331483023263848 0.3824710074625905 -0.9233666934306877
vn 0.03331483023263848 0.3824710074625905 -0.9233666934306877
vn 0.03331483023263848 0.3824710074625905 -0.9233666934306877
vn 0.03331483023263848 0.3824710074625905 -0.9233666934306877
vn 0.03331483023263848 0.3824710074625905 -0.9233666934306877
vn 0.03331483023263848 0.3824710074625905 -0.9233666934306877
vn 0.03331483023263848 0.3824710074625905 -0.9233666934306877
vn 0.03331483023263848 0.3824710074625905 -0.9233666934306877
vn 0.03331483023263848 0.3824710074625905 -0.9233666934306877
vn 0.03331483023263848 0.3824710074625905 -0.9233666934306877
vn 0.03331483023263848 0.3824710074625905 -0.9233666934306877
vn 0.03331483023263848 0.3824710074625905 -0.9233666934306877
vn 0.03331483023263848 0.3824710074625905 -0.9233666934306877
vn 0.03331483023263848 0.3824710074625905 -0.9233666934306877
vn -0.03331483023263848 -0.3824710074625905 0.9233666934306877
vn -0.03331483023263848 -0.3824710074625905 0.9233666934306877
vn -0.03331483023263848 -0.3824710074625905 0.9233666934306877
vn -0.03331483023263848 -0.3824710074625905 0.9233666934306877
vn -0.03331483023263848 -0.3824710074625905 0.9233666934306877
vn -0.03331483023263848 -0.3824710074625905 0.9233666934306877
vn -0.03331483023263848 -0.3824710074625905 0.9233666934306877
vn -0.03331483023263848 -0.3824710074625905 0.9233666934306877
vn -0.03331483023263848 -0.3824710074625905 0.9233666934306877
vn -0.03331483023263848 -0.3824710074625905 0.9233666934306877
vn -0.03331483023263848 -0.3824710074625905 0.9233666934306877
vn -0.03331483023263848 -0.3824710074625905 0.9233666934306877
vn -0.03331483023263848 -0.3824710074625905 0.9233666934306877
vn -0.03331483023263848 -0.3824710074625905 0.9233666934306877
vn -0.03331483023263848 -0.3824710074625905 0.9233666934306877
vn -0.03331483023263848 -0.3824710074625905 0.9233666934306877
vn -0.03331483023263848 -0.3824710074625905 0.9233666934306877
vn -0.03331483023263848 -0.3824710074625905 0.9233666934306877
vn -0.03331483023263848 -0.3824710074625905 0.9233666934306877
vn -0.03331483023263848 -0.3824710074625905 0.9233666934306877
vn -0.03331483023263848 -0.3824710074625905 0.9233666934306877
vn -0.03331483023263848 -0.3824710074625905 0.9233666934306877
vn -0.03331483023263848 -0.3824710074625905 0.9233666934306877
vn -0.03331483023263848 -0.3824710074625905 0.9233666934306877
vn -0.03331483023263848 -0.3824710074625905 0.9233666934306877
vn -0.03331483023263848 -0.3824710074625905 0.9233666934306877
vn -0.03331483023263848 -0.3824710074625905 0.9233666934306877
vn -0.03331483023263848 -0.3824710074625905 0.9233666934306877
vn -0.03331483023263848 -0.3824710074625905 0.9233666934306877
vn -0.03331483023263848 -0.3824710074625905 0.9233666934306877
vn -0.03331483023263848 -0.3824710074625905 0.9233666934306877
vn -0.03331483023263848 -0.3824710074625905 0.9233666934306877
vn -0.03331483023263848 -0.3824710074625905 0.9233666934306877
f 1/1/1 18/18/18 2/2/2
f 18/18/18 19/19/19 2/2/2
f 2/2/2 19/19/19 3/3/3
f 19/19/19 20/20/20 3/3/3
f 3/3/3 20/20/20 4/4/4
f 20/20/20 21/21/21 4/4/4
f 4/4/4 21/21/21 5/5/5
f 21/21/21 22/22/22 5/5/5
f 5/5/5 22/22/22 6/6/6
f 22/22/22 23/23/23 6/6/6
f 6/6/6 23/23/23 7/7/7
f 23/23/23 24/24/24 7/7/7
f 7/7/7 24/24/24 8/8/8
f 24/24/24 25/25/25 8/8/8
f 8/8/8 25/25/25 9/9/9
f 25/25/25 26/26/26 9/9/9
f 9/9/9 26/26/26 10/10/10
f 26/26/26 27/27/27 10/10/10
f 10/10/10 27/27/27 11/11/11
f 27/27/27 28/28/28 11/11/11
f 11/11/11 28/28/28 12/12/12
f 28/28/28 29/29/29 12/12/12
f 12/12/12 29/29/29 13/13/13
f 29/29/29 30/30/30 13/13/13
f 13/13/13 30/30/30 14/14/14
f 30/30/30 31/31/31 14/14/14
f 14/14/14 31/31/31 15/15/15
f 31/31/31 32/32/32 15/15/15
f 15/15/15 32/32/32 16/16/16
f 32/32/32 33/33/33 16/16/16
f 16/16/16 33/33/33 17/17/17
f 33/33/33 34/34/34 17/17/17
f 51/51/51 52/52/52 35/35/35
f 52/52/52 53/53/53 36/36/36
f 53/53/53 54/54/54 37/37/37
f 54/54/54 55/55/55 38/38/38
f 55/55/55 56/56/56 39/39/39
f 56/56/56 57/57/57 40/40/40
f 57/57/57 58/58/58 41/41/41
f 58/58/58 59/59/59 42/42/42
f 59/59/59 60/60/60 43/43/43
f 60/60/60 61/61/61 44/44/44
f 61/61/61 62/62/62 45/45/45
f 62/62/62 63/63/63 46/46/46
f 63/63/63 64/64/64 47/47/47
f 64/64/64 65/65/65 48/48/48
f 65/65/65 66/66/66 49/49/49
f 66/66/66 67/67/67 50/50/50
f 85/85/85 84/84/84 68/68/68
f 86/86/86 85/85/85 69/69/69
f 87/87/87 86/86/86 70/70/70
f 88/88/88 87/87/87 71/71/71
f 89/89/89 88/88/88 72/72/72
f 90/90/90 89/89/89 73/73/73
f 91/91/91 90/90/90 74/74/74
f 92/92/92 91/91/91 75/75/75
f 93/93/93 92/92/92 76/76/76
f 94/94/94 93/93/93 77/77/77
f 95/95/95 94/94/94 78/78/78
f 96/96/96 95/95/95 79/79/79
f 97/97/97 96/96/96 80/80/80
f 98/98/98 97/97/97 81/81/81
f 99/99/99 98/98/98 82/82/82
f 100/100/100 99/99/99 83/83/83
