v 0.000000 35.000000 2.000000
v 0.000000 35.000000 -2.000000
v 2.000000 35.000000 2.000000
v 2.000000 35.000000 -2.000000
v 1.961571 34.609819 2.000000
v 1.961571 34.609819 -2.000000
v 1.847759 34.234633 2.000000
v 1.847759 34.234633 -2.000000
v 1.662939 33.888860 2.000000
v 1.662939 33.888860 -2.000000
v 1.414214 33.585786 2.000000
v 1.414214 33.585786 -2.000000
v 1.111140 33.337061 2.000000
v 1.111140 33.337061 -2.000000
v 0.765367 33.152241 2.000000
v 0.765367 33.152241 -2.000000
v 0.390181 33.038429 2.000000
v 0.390181 33.038429 -2.000000
v 0.000000 33.000000 2.000000
v 0.000000 33.000000 -2.000000
v -0.390181 33.038429 2.000000
v -0.390181 33.038429 -2.000000
v -0.765367 33.152241 2.000000
v -0.765367 33.152241 -2.000000
v -1.111140 33.337061 2.000000
v -1.111140 33.337061 -2.000000
v -1.414214 33.585786 2.000000
v -1.414214 33.585786 -2.000000
v -1.662939 33.888860 2.000000
v -1.662939 33.888860 -2.000000
v -1.847759 34.234633 2.000000
v -1.847759 34.234633 -2.000000
v -1.961571 34.609819 2.000000
v -1.961571 34.609819 -2.000000
v -2.000000 35.000000 2.000000
v -2.000000 35.000000 -2.000000
v -1.961571 35.390181 2.000000
v -1.961571 35.390181 -2.000000
v -1.847759 35.765367 2.000000
v -1.847759 35.765367 -2.000000
v -1.662939 36.111140 2.000000
v -1.662939 36.111140 -2.000000
v -1.414214 36.414214 2.000000
v -1.414214 36.414214 -2.000000
v -1.111140 36.662939 2.000000
v -1.111140 36.662939 -2.000000
v -0.765367 36.847759 2.000000
v -0.765367 36.847759 -2.000000
v -0.390181 36.961571 2.000000
v -0.390181 36.961571 -2.000000
v -0.000000 37.000000 2.000000
v -0.000000 37.000000 -2.000000
v 0.390181 36.961571 2.000000
v 0.390181 36.961571 -2.000000
v 0.765367 36.847759 2.000000
v 0.765367 36.847759 -2.000000
v 1.111140 36.662939 2.000000
v 1.111140 36.662939 -2.000000
v 1.414214 36.414214 2.000000
v 1.414214 36.414214 -2.000000
v 1.662939 36.111140 2.000000
v 1.662939 36.111140 -2.000000
v 1.847759 35.765367 2.000000
v 1.847759 35.765367 -2.000000
v 1.961571 35.390181 2.000000
v 1.961571 35.390181 -2.000000
f 1 3 5
f 2 6 4
f 1 5 7
f 2 8 6
f 1 7 9
f 2 10 8
f 1 9 11
f 2 12 10
f 1 11 13
f 2 14 12
f 1 13 15
f 2 16 14
f 1 15 17
f 2 18 16
f 1 17 19
f 2 20 18
f 1 19 21
f 2 22 20
f 1 21 23
f 2 24 22
f 1 23 25
f 2 26 24
f 1 25 27
f 2 28 26
f 1 27 29
f 2 30 28
f 1 29 31
f 2 32 30
f 1 31 33
f 2 34 32
f 1 33 35
f 2 36 34
f 1 35 37
f 2 38 36
f 1 37 39
f 2 40 38
f 1 39 41
f 2 42 40
f 1 41 43
f 2 44 42
f 1 43 45
f 2 46 44
f 1 45 47
f 2 48 46
f 1 47 49
f 2 50 48
f 1 49 51
f 2 52 50
f 1 51 53
f 2 54 52
f 1 53 55
f 2 56 54
f 1 55 57
f 2 58 56
f 1 57 59
f 2 60 58
f 1 59 61
f 2 62 60
f 1 61 63
f 2 64 62
f 1 63 65
f 2 66 64
f 1 65 3
f 2 4 66
f 3 5 6
f 3 6 4
f 5 7 8
f 5 8 6
f 7 9 10
f 7 10 8
f 9 11 12
f 9 12 10
f 11 13 14
f 11 14 12
f 13 15 16
f 13 16 14
f 15 17 18
f 15 18 16
f 17 19 20
f 17 20 18
f 19 21 22
f 19 22 20
f 21 23 24
f 21 24 22
f 23 25 26
f 23 26 24
f 25 27 28
f 25 28 26
f 27 29 30
f 27 30 28
f 29 31 32
f 29 32 30
f 31 33 34
f 31 34 32
f 33 35 36
f 33 36 34
f 35 37 38
f 35 38 36
f 37 39 40
f 37 40 38
f 39 41 42
f 39 42 40
f 41 43 44
f 41 44 42
f 43 45 46
f 43 46 44
f 45 47 48
f 45 48 46
f 47 49 50
f 47 50 48
f 49 51 52
f 49 52 50
f 51 53 54
f 51 54 52
f 53 55 56
f 53 56 54
f 55 57 58
f 55 58 56
f 57 59 60
f 57 60 58
f 59 61 62
f 59 62 60
f 61 63 64
f 61 64 62
f 63 65 66
f 63 66 64
f 65 3 4
f 65 4 66
