v 0.000000 66.000000 0.000000
v -0.062791 65.998027 0.000000
v -0.125333 65.992115 0.000000
v -0.187381 65.982287 0.000000
v -0.248690 65.968583 0.000000
v -0.309017 65.951057 0.000000
v -0.368125 65.929776 0.000000
v -0.425779 65.904827 0.000000
v -0.481754 65.876307 0.000000
v -0.535827 65.844328 0.000000
v -0.587785 65.809017 0.000000
v -0.637424 65.770513 0.000000
v -0.684547 65.728969 0.000000
v -0.728969 65.684547 0.000000
v -0.770513 65.637424 0.000000
v -0.809017 65.587785 0.000000
v -0.844328 65.535827 0.000000
v -0.876307 65.481754 0.000000
v -0.904827 65.425779 0.000000
v -0.929776 65.368125 0.000000
v -0.951057 65.309017 0.000000
v -0.968583 65.248690 0.000000
v -0.982287 65.187381 0.000000
v -0.992115 65.125333 0.000000
v -0.998027 65.062791 0.000000
v -1.000000 65.000000 0.000000
v -0.998027 64.937209 0.000000
v -0.992115 64.874667 0.000000
v -0.982287 64.812619 0.000000
v -0.968583 64.751310 0.000000
v -0.951057 64.690983 0.000000
v -0.929776 64.631875 0.000000
v -0.904827 64.574221 0.000000
v -0.876307 64.518246 0.000000
v -0.844328 64.464173 0.000000
v -0.809017 64.412215 0.000000
v -0.770513 64.362576 0.000000
v -0.728969 64.315453 0.000000
v -0.684547 64.271031 0.000000
v -0.637424 64.229487 0.000000
v -0.587785 64.190983 0.000000
v -0.535827 64.155672 0.000000
v -0.481754 64.123693 0.000000
v -0.425779 64.095173 0.000000
v -0.368125 64.070224 0.000000
v -0.309017 64.048943 0.000000
v -0.248690 64.031417 0.000000
v -0.187381 64.017713 0.000000
v -0.125333 64.007885 0.000000
v -0.062791 64.001973 0.000000
v 0.000000 64.000000 0.000000
v 0.062791 64.001973 0.000000
v 0.125333 64.007885 0.000000
v 0.187381 64.017713 0.000000
v 0.248690 64.031417 0.000000
v 0.309017 64.048943 0.000000
v 0.368125 64.070224 0.000000
v 0.425779 64.095173 0.000000
v 0.481754 64.123693 0.000000
v 0.535827 64.155672 0.000000
v 0.587785 64.190983 0.000000
v 0.637424 64.229487 0.000000
v 0.684547 64.271031 0.000000
v 0.728969 64.315453 0.000000
v 0.770513 64.362576 0.000000
v 0.809017 64.412215 0.000000
v 0.844328 64.464173 0.000000
v 0.876307 64.518246 0.000000
v 0.904827 64.574221 0.000000
v 0.929776 64.631875 0.000000
v 0.951057 64.690983 0.000000
v 0.968583 64.751310 0.000000
v 0.982287 64.812619 0.000000
v 0.992115 64.874667 0.000000
v 0.998027 64.937209 0.000000
v 1.000000 65.000000 0.000000
v 0.998027 65.062791 0.000000
v 0.992115 65.125333 0.000000
v 0.982287 65.187381 0.000000
v 0.968583 65.248690 0.000000
v 0.951057 65.309017 0.000000
v 0.929776 65.368125 0.000000
v 0.904827 65.425779 0.000000
v 0.876307 65.481754 0.000000
v 0.844328 65.535827 0.000000
v 0.809017 65.587785 0.000000
v 0.770513 65.637424 0.000000
v 0.728969 65.684547 0.000000
v 0.684547 65.728969 0.000000
v 0.637424 65.770513 0.000000
v 0.587785 65.809017 0.000000
v 0.535827 65.844328 0.000000
v 0.481754 65.876307 0.000000
v 0.425779 65.904827 0.000000
v 0.368125 65.929776 0.000000
v 0.309017 65.951057 0.000000
v 0.248690 65.968583 0.000000
v 0.187381 65.982287 0.000000
v 0.125333 65.992115 0.000000
v 0.062791 65.998027 0.000000
v 0.000000 63.640266 11.863186
v -0.062791 63.638442 11.862431
v -0.125333 63.632980 11.860169
v -0.187381 63.623901 11.856408
v -0.248690 63.611240 11.851164
v -0.309017 63.595048 11.844457
v -0.368125 63.575387 11.836313
v -0.425779 63.552337 11.826765
v -0.481754 63.525988 11.815851
v -0.535827 63.496443 11.803613
v -0.587785 63.463820 11.790100
v -0.637424 63.428247 11.775366
v -0.684547 63.389865 11.759467
v -0.728969 63.348825 11.742468
v -0.770513 63.305289 11.724435
v -0.809017 63.259429 11.705439
v -0.844328 63.211425 11.685555
v -0.876307 63.161468 11.664862
v -0.904827 63.109755 11.643442
v -0.929776 63.056489 11.621378
v -0.951057 63.001880 11.598759
v -0.968583 62.946145 11.575672
v -0.982287 62.889504 11.552211
v -0.992115 62.832179 11.528466
v -0.998027 62.774397 11.504532
v -1.000000 62.716386 11.480503
v -0.998027 62.658375 11.456474
v -0.992115 62.600593 11.432540
v -0.982287 62.543268 11.408795
v -0.968583 62.486626 11.385333
v -0.951057 62.430891 11.362247
v -0.929776 62.376283 11.339628
v -0.904827 62.323017 11.317564
v -0.876307 62.271304 11.296144
v -0.844328 62.221347 11.275451
v -0.809017 62.173343 11.255567
v -0.770513 62.127483 11.236571
v -0.728969 62.083947 11.218538
v -0.684547 62.042907 11.201539
v -0.637424 62.004525 11.185640
v -0.587785 61.968952 11.170906
v -0.535827 61.936329 11.157393
v -0.481754 61.906784 11.145155
v -0.425779 61.880435 11.134241
v -0.368125 61.857385 11.124693
v -0.309017 61.837724 11.116549
v -0.248690 61.821532 11.109842
v -0.187381 61.808871 11.104598
v -0.125333 61.799792 11.100837
v -0.062791 61.794330 11.098575
v 0.000000 61.792506 11.097820
v 0.062791 61.794330 11.098575
v 0.125333 61.799792 11.100837
v 0.187381 61.808871 11.104598
v 0.248690 61.821532 11.109842
v 0.309017 61.837724 11.116549
v 0.368125 61.857385 11.124693
v 0.425779 61.880435 11.134241
v 0.481754 61.906784 11.145155
v 0.535827 61.936329 11.157393
v 0.587785 61.968952 11.170906
v 0.637424 62.004525 11.185640
v 0.684547 62.042907 11.201539
v 0.728969 62.083947 11.218538
v 0.770513 62.127483 11.236571
v 0.809017 62.173343 11.255567
v 0.844328 62.221347 11.275451
v 0.876307 62.271304 11.296144
v 0.904827 62.323017 11.317564
v 0.929776 62.376283 11.339628
v 0.951057 62.430891 11.362247
v 0.968583 62.486626 11.385333
v 0.982287 62.543268 11.408795
v 0.992115 62.600593 11.432540
v 0.998027 62.658375 11.456474
v 1.000000 62.716386 11.480503
v 0.998027 62.774397 11.504532
v 0.992115 62.832179 11.528466
v 0.982287 62.889504 11.552211
v 0.968583 62.946145 11.575672
v 0.951057 63.001880 11.598759
v 0.929776 63.056489 11.621378
v 0.904827 63.109755 11.643442
v 0.876307 63.161468 11.664862
v 0.844328 63.211425 11.685555
v 0.809017 63.259429 11.705439
v 0.770513 63.305289 11.724435
v 0.728969 63.348825 11.742468
v 0.684547 63.389865 11.759467
v 0.637424 63.428247 11.775366
v 0.587785 63.463820 11.790100
v 0.535827 63.496443 11.803613
v 0.481754 63.525988 11.815851
v 0.425779 63.552337 11.826765
v 0.368125 63.575387 11.836313
v 0.309017 63.595048 11.844457
v 0.248690 63.611240 11.851164
v 0.187381 63.623901 11.856408
v 0.125333 63.632980 11.860169
v 0.062791 63.638442 11.862431
v 0.000000 56.920310 21.920310
v -0.062791 56.918915 21.918915
v -0.125333 56.914734 21.914734
v -0.187381 56.907785 21.907785
v -0.248690 56.898095 21.898095
v -0.309017 56.885702 21.885702
v -0.368125 56.870655 21.870655
v -0.425779 56.853013 21.853013
v -0.481754 56.832846 21.832846
v -0.535827 56.810233 21.810233
v -0.587785 56.785265 21.785265
v -0.637424 56.758039 21.758039
v -0.684547 56.728662 21.728662
v -0.728969 56.697251 21.697251
v -0.770513 56.663930 21.663930
v -0.809017 56.628830 21.628830
v -0.844328 56.592090 21.592090
v -0.876307 56.553855 21.553855
v -0.904827 56.514275 21.514275
v -0.929776 56.473507 21.473507
v -0.951057 56.431711 21.431711
v -0.968583 56.389054 21.389054
v -0.982287 56.345702 21.345702
v -0.992115 56.301827 21.301827
v -0.998027 56.257603 21.257603
v -1.000000 56.213203 21.213203
v -0.998027 56.168804 21.168804
v -0.992115 56.124579 21.124579
v -0.982287 56.080705 21.080705
v -0.968583 56.037353 21.037353
v -0.951057 55.994695 20.994695
v -0.929776 55.952900 20.952900
v -0.904827 55.912132 20.912132
v -0.876307 55.872552 20.872552
v -0.844328 55.834317 20.834317
v -0.809017 55.797576 20.797576
v -0.770513 55.762477 20.762477
v -0.728969 55.729156 20.729156
v -0.684547 55.697745 20.697745
v -0.637424 55.668368 20.668368
v -0.587785 55.641142 20.641142
v -0.535827 55.616173 20.616173
v -0.481754 55.593561 20.593561
v -0.425779 55.573394 20.573394
v -0.368125 55.555752 20.555752
v -0.309017 55.540705 20.540705
v -0.248690 55.528312 20.528312
v -0.187381 55.518621 20.518621
v -0.125333 55.511672 20.511672
v -0.062791 55.507492 20.507492
v 0.000000 55.506097 20.506097
v 0.062791 55.507492 20.507492
v 0.125333 55.511672 20.511672
v 0.187381 55.518621 20.518621
v 0.248690 55.528312 20.528312
v 0.309017 55.540705 20.540705
v 0.368125 55.555752 20.555752
v 0.425779 55.573394 20.573394
v 0.481754 55.593561 20.593561
v 0.535827 55.616173 20.616173
v 0.587785 55.641142 20.641142
v 0.637424 55.668368 20.668368
v 0.684547 55.697745 20.697745
v 0.728969 55.729156 20.729156
v 0.770513 55.762477 20.762477
v 0.809017 55.797576 20.797576
v 0.844328 55.834317 20.834317
v 0.876307 55.872552 20.872552
v 0.904827 55.912132 20.912132
v 0.929776 55.952900 20.952900
v 0.951057 55.994695 20.994695
v 0.968583 56.037353 21.037353
v 0.982287 56.080705 21.080705
v 0.992115 56.124579 21.124579
v 0.998027 56.168804 21.168804
v 1.000000 56.213203 21.213203
v 0.998027 56.257603 21.257603
v 0.992115 56.301827 21.301827
v 0.982287 56.345702 21.345702
v 0.968583 56.389054 21.389054
v 0.951057 56.431711 21.431711
v 0.929776 56.473507 21.473507
v 0.904827 56.514275 21.514275
v 0.876307 56.553855 21.553855
v 0.844328 56.592090 21.592090
v 0.809017 56.628830 21.628830
v 0.770513 56.663930 21.663930
v 0.728969 56.697251 21.697251
v 0.684547 56.728662 21.728662
v 0.637424 56.758039 21.758039
v 0.587785 56.785265 21.785265
v 0.535827 56.810233 21.810233
v 0.481754 56.832846 21.832846
v 0.425779 56.853013 21.853013
v 0.368125 56.870655 21.870655
v 0.309017 56.885702 21.885702
v 0.248690 56.898095 21.898095
v 0.187381 56.907785 21.907785
v 0.125333 56.914734 21.914734
v 0.062791 56.918915 21.918915
v 0.000000 46.863186 28.640266
v -0.062791 46.862431 28.638442
v -0.125333 46.860169 28.632980
v -0.187381 46.856408 28.623901
v -0.248690 46.851164 28.611240
v -0.309017 46.844457 28.595048
v -0.368125 46.836313 28.575387
v -0.425779 46.826765 28.552337
v -0.481754 46.815851 28.525988
v -0.535827 46.803613 28.496443
v -0.587785 46.790100 28.463820
v -0.637424 46.775366 28.428247
v -0.684547 46.759467 28.389865
v -0.728969 46.742468 28.348825
v -0.770513 46.724435 28.305289
v -0.809017 46.705439 28.259429
v -0.844328 46.685555 28.211425
v -0.876307 46.664862 28.161468
v -0.904827 46.643442 28.109755
v -0.929776 46.621378 28.056489
v -0.951057 46.598759 28.001880
v -0.968583 46.575672 27.946145
v -0.982287 46.552211 27.889504
v -0.992115 46.528466 27.832179
v -0.998027 46.504532 27.774397
v -1.000000 46.480503 27.716386
v -0.998027 46.456474 27.658375
v -0.992115 46.432540 27.600593
v -0.982287 46.408795 27.543268
v -0.968583 46.385333 27.486626
v -0.951057 46.362247 27.430891
v -0.929776 46.339628 27.376283
v -0.904827 46.317564 27.323017
v -0.876307 46.296144 27.271304
v -0.844328 46.275451 27.221347
v -0.809017 46.255567 27.173343
v -0.770513 46.236571 27.127483
v -0.728969 46.218538 27.083947
v -0.684547 46.201539 27.042907
v -0.637424 46.185640 27.004525
v -0.587785 46.170906 26.968952
v -0.535827 46.157393 26.936329
v -0.481754 46.145155 26.906784
v -0.425779 46.134241 26.880435
v -0.368125 46.124693 26.857385
v -0.309017 46.116549 26.837724
v -0.248690 46.109842 26.821532
v -0.187381 46.104598 26.808871
v -0.125333 46.100837 26.799792
v -0.062791 46.098575 26.794330
v 0.000000 46.097820 26.792506
v 0.062791 46.098575 26.794330
v 0.125333 46.100837 26.799792
v 0.187381 46.104598 26.808871
v 0.248690 46.109842 26.821532
v 0.309017 46.116549 26.837724
v 0.368125 46.124693 26.857385
v 0.425779 46.134241 26.880435
v 0.481754 46.145155 26.906784
v 0.535827 46.157393 26.936329
v 0.587785 46.170906 26.968952
v 0.637424 46.185640 27.004525
v 0.684547 46.201539 27.042907
v 0.728969 46.218538 27.083947
v 0.770513 46.236571 27.127483
v 0.809017 46.255567 27.173343
v 0.844328 46.275451 27.221347
v 0.876307 46.296144 27.271304
v 0.904827 46.317564 27.323017
v 0.929776 46.339628 27.376283
v 0.951057 46.362247 27.430891
v 0.968583 46.385333 27.486626
v 0.982287 46.408795 27.543268
v 0.992115 46.432540 27.600593
v 0.998027 46.456474 27.658375
v 1.000000 46.480503 27.716386
v 0.998027 46.504532 27.774397
v 0.992115 46.528466 27.832179
v 0.982287 46.552211 27.889504
v 0.968583 46.575672 27.946145
v 0.951057 46.598759 28.001880
v 0.929776 46.621378 28.056489
v 0.904827 46.643442 28.109755
v 0.876307 46.664862 28.161468
v 0.844328 46.685555 28.211425
v 0.809017 46.705439 28.259429
v 0.770513 46.724435 28.305289
v 0.728969 46.742468 28.348825
v 0.684547 46.759467 28.389865
v 0.637424 46.775366 28.428247
v 0.587785 46.790100 28.463820
v 0.535827 46.803613 28.496443
v 0.481754 46.815851 28.525988
v 0.425779 46.826765 28.552337
v 0.368125 46.836313 28.575387
v 0.309017 46.844457 28.595048
v 0.248690 46.851164 28.611240
v 0.187381 46.856408 28.623901
v 0.125333 46.860169 28.632980
v 0.062791 46.862431 28.638442
v 0.000000 35.000000 31.000000
v -0.062791 35.000000 30.998027
v -0.125333 35.000000 30.992115
v -0.187381 35.000000 30.982287
v -0.248690 35.000000 30.968583
v -0.309017 35.000000 30.951057
v -0.368125 35.000000 30.929776
v -0.425779 35.000000 30.904827
v -0.481754 35.000000 30.876307
v -0.535827 35.000000 30.844328
v -0.587785 35.000000 30.809017
v -0.637424 35.000000 30.770513
v -0.684547 35.000000 30.728969
v -0.728969 35.000000 30.684547
v -0.770513 35.000000 30.637424
v -0.809017 35.000000 30.587785
v -0.844328 35.000000 30.535827
v -0.876307 35.000000 30.481754
v -0.904827 35.000000 30.425779
v -0.929776 35.000000 30.368125
v -0.951057 35.000000 30.309017
v -0.968583 35.000000 30.248690
v -0.982287 35.000000 30.187381
v -0.992115 35.000000 30.125333
v -0.998027 35.000000 30.062791
v -1.000000 35.000000 30.000000
v -0.998027 35.000000 29.937209
v -0.992115 35.000000 29.874667
v -0.982287 35.000000 29.812619
v -0.968583 35.000000 29.751310
v -0.951057 35.000000 29.690983
v -0.929776 35.000000 29.631875
v -0.904827 35.000000 29.574221
v -0.876307 35.000000 29.518246
v -0.844328 35.000000 29.464173
v -0.809017 35.000000 29.412215
v -0.770513 35.000000 29.362576
v -0.728969 35.000000 29.315453
v -0.684547 35.000000 29.271031
v -0.637424 35.000000 29.229487
v -0.587785 35.000000 29.190983
v -0.535827 35.000000 29.155672
v -0.481754 35.000000 29.123693
v -0.425779 35.000000 29.095173
v -0.368125 35.000000 29.070224
v -0.309017 35.000000 29.048943
v -0.248690 35.000000 29.031417
v -0.187381 35.000000 29.017713
v -0.125333 35.000000 29.007885
v -0.062791 35.000000 29.001973
v -0.000000 35.000000 29.000000
v 0.062791 35.000000 29.001973
v 0.125333 35.000000 29.007885
v 0.187381 35.000000 29.017713
v 0.248690 35.000000 29.031417
v 0.309017 35.000000 29.048943
v 0.368125 35.000000 29.070224
v 0.425779 35.000000 29.095173
v 0.481754 35.000000 29.123693
v 0.535827 35.000000 29.155672
v 0.587785 35.000000 29.190983
v 0.637424 35.000000 29.229487
v 0.684547 35.000000 29.271031
v 0.728969 35.000000 29.315453
v 0.770513 35.000000 29.362576
v 0.809017 35.000000 29.412215
v 0.844328 35.000000 29.464173
v 0.876307 35.000000 29.518246
v 0.904827 35.000000 29.574221
v 0.929776 35.000000 29.631875
v 0.951057 35.000000 29.690983
v 0.968583 35.000000 29.751310
v 0.982287 35.000000 29.812619
v 0.992115 35.000000 29.874667
v 0.998027 35.000000 29.937209
v 1.000000 35.000000 30.000000
v 0.998027 35.000000 30.062791
v 0.992115 35.000000 30.125333
v 0.982287 35.000000 30.187381
v 0.968583 35.000000 30.248690
v 0.951057 35.000000 30.309017
v 0.929776 35.000000 30.368125
v 0.904827 35.000000 30.425779
v 0.876307 35.000000 30.481754
v 0.844328 35.000000 30.535827
v 0.809017 35.000000 30.587785
v 0.770513 35.000000 30.637424
v 0.728969 35.000000 30.684547
v 0.684547 35.000000 30.728969
v 0.637424 35.000000 30.770513
v 0.587785 35.000000 30.809017
v 0.535827 35.000000 30.844328
v 0.481754 35.000000 30.876307
v 0.425779 35.000000 30.904827
v 0.368125 35.000000 30.929776
v 0.309017 35.000000 30.951057
v 0.248690 35.000000 30.968583
v 0.187381 35.000000 30.982287
v 0.125333 35.000000 30.992115
v 0.062791 35.000000 30.998027
v -0.000000 23.136814 28.640266
v -0.062791 23.137569 28.638442
v -0.125333 23.139831 28.632980
v -0.187381 23.143592 28.623901
v -0.248690 23.148836 28.611240
v -0.309017 23.155543 28.595048
v -0.368125 23.163687 28.575387
v -0.425779 23.173235 28.552337
v -0.481754 23.184149 28.525988
v -0.535827 23.196387 28.496443
v -0.587785 23.209900 28.463820
v -0.637424 23.224634 28.428247
v -0.684547 23.240533 28.389865
v -0.728969 23.257532 28.348825
v -0.770513 23.275565 28.305289
v -0.809017 23.294561 28.259429
v -0.844328 23.314445 28.211425
v -0.876307 23.335138 28.161468
v -0.904827 23.356558 28.109755
v -0.929776 23.378622 28.056489
v -0.951057 23.401241 28.001880
v -0.968583 23.424328 27.946145
v -0.982287 23.447789 27.889504
v -0.992115 23.471534 27.832179
v -0.998027 23.495468 27.774397
v -1.000000 23.519497 27.716386
v -0.998027 23.543526 27.658375
v -0.992115 23.567460 27.600593
v -0.982287 23.591205 27.543268
v -0.968583 23.614667 27.486626
v -0.951057 23.637753 27.430891
v -0.929776 23.660372 27.376283
v -0.904827 23.682436 27.323017
v -0.876307 23.703856 27.271304
v -0.844328 23.724549 27.221347
v -0.809017 23.744433 27.173343
v -0.770513 23.763429 27.127483
v -0.728969 23.781462 27.083947
v -0.684547 23.798461 27.042907
v -0.637424 23.814360 27.004525
v -0.587785 23.829094 26.968952
v -0.535827 23.842607 26.936329
v -0.481754 23.854845 26.906784
v -0.425779 23.865759 26.880435
v -0.368125 23.875307 26.857385
v -0.309017 23.883451 26.837724
v -0.248690 23.890158 26.821532
v -0.187381 23.895402 26.808871
v -0.125333 23.899163 26.799792
v -0.062791 23.901425 26.794330
v -0.000000 23.902180 26.792506
v 0.062791 23.901425 26.794330
v 0.125333 23.899163 26.799792
v 0.187381 23.895402 26.808871
v 0.248690 23.890158 26.821532
v 0.309017 23.883451 26.837724
v 0.368125 23.875307 26.857385
v 0.425779 23.865759 26.880435
v 0.481754 23.854845 26.906784
v 0.535827 23.842607 26.936329
v 0.587785 23.829094 26.968952
v 0.637424 23.814360 27.004525
v 0.684547 23.798461 27.042907
v 0.728969 23.781462 27.083947
v 0.770513 23.763429 27.127483
v 0.809017 23.744433 27.173343
v 0.844328 23.724549 27.221347
v 0.876307 23.703856 27.271304
v 0.904827 23.682436 27.323017
v 0.929776 23.660372 27.376283
v 0.951057 23.637753 27.430891
v 0.968583 23.614667 27.486626
v 0.982287 23.591205 27.543268
v 0.992115 23.567460 27.600593
v 0.998027 23.543526 27.658375
v 1.000000 23.519497 27.716386
v 0.998027 23.495468 27.774397
v 0.992115 23.471534 27.832179
v 0.982287 23.447789 27.889504
v 0.968583 23.424328 27.946145
v 0.951057 23.401241 28.001880
v 0.929776 23.378622 28.056489
v 0.904827 23.356558 28.109755
v 0.876307 23.335138 28.161468
v 0.844328 23.314445 28.211425
v 0.809017 23.294561 28.259429
v 0.770513 23.275565 28.305289
v 0.728969 23.257532 28.348825
v 0.684547 23.240533 28.389865
v 0.637424 23.224634 28.428247
v 0.587785 23.209900 28.463820
v 0.535827 23.196387 28.496443
v 0.481754 23.184149 28.525988
v 0.425779 23.173235 28.552337
v 0.368125 23.163687 28.575387
v 0.309017 23.155543 28.595048
v 0.248690 23.148836 28.611240
v 0.187381 23.143592 28.623901
v 0.125333 23.139831 28.632980
v 0.062791 23.137569 28.638442
v -0.000000 13.079690 21.920310
v -0.062791 13.081085 21.918915
v -0.125333 13.085266 21.914734
v -0.187381 13.092215 21.907785
v -0.248690 13.101905 21.898095
v -0.309017 13.114298 21.885702
v -0.368125 13.129345 21.870655
v -0.425779 13.146987 21.853013
v -0.481754 13.167154 21.832846
v -0.535827 13.189767 21.810233
v -0.587785 13.214735 21.785265
v -0.637424 13.241961 21.758039
v -0.684547 13.271338 21.728662
v -0.728969 13.302749 21.697251
v -0.770513 13.336070 21.663930
v -0.809017 13.371170 21.628830
v -0.844328 13.407910 21.592090
v -0.876307 13.446145 21.553855
v -0.904827 13.485725 21.514275
v -0.929776 13.526493 21.473507
v -0.951057 13.568289 21.431711
v -0.968583 13.610946 21.389054
v -0.982287 13.654298 21.345702
v -0.992115 13.698173 21.301827
v -0.998027 13.742397 21.257603
v -1.000000 13.786797 21.213203
v -0.998027 13.831196 21.168804
v -0.992115 13.875421 21.124579
v -0.982287 13.919295 21.080705
v -0.968583 13.962647 21.037353
v -0.951057 14.005305 20.994695
v -0.929776 14.047100 20.952900
v -0.904827 14.087868 20.912132
v -0.876307 14.127448 20.872552
v -0.844328 14.165683 20.834317
v -0.809017 14.202424 20.797576
v -0.770513 14.237523 20.762477
v -0.728969 14.270844 20.729156
v -0.684547 14.302255 20.697745
v -0.637424 14.331632 20.668368
v -0.587785 14.358858 20.641142
v -0.535827 14.383827 20.616173
v -0.481754 14.406439 20.593561
v -0.425779 14.426606 20.573394
v -0.368125 14.444248 20.555752
v -0.309017 14.459295 20.540705
v -0.248690 14.471688 20.528312
v -0.187381 14.481379 20.518621
v -0.125333 14.488328 20.511672
v -0.062791 14.492508 20.507492
v -0.000000 14.493903 20.506097
v 0.062791 14.492508 20.507492
v 0.125333 14.488328 20.511672
v 0.187381 14.481379 20.518621
v 0.248690 14.471688 20.528312
v 0.309017 14.459295 20.540705
v 0.368125 14.444248 20.555752
v 0.425779 14.426606 20.573394
v 0.481754 14.406439 20.593561
v 0.535827 14.383827 20.616173
v 0.587785 14.358858 20.641142
v 0.637424 14.331632 20.668368
v 0.684547 14.302255 20.697745
v 0.728969 14.270844 20.729156
v 0.770513 14.237523 20.762477
v 0.809017 14.202424 20.797576
v 0.844328 14.165683 20.834317
v 0.876307 14.127448 20.872552
v 0.904827 14.087868 20.912132
v 0.929776 14.047100 20.952900
v 0.951057 14.005305 20.994695
v 0.968583 13.962647 21.037353
v 0.982287 13.919295 21.080705
v 0.992115 13.875421 21.124579
v 0.998027 13.831196 21.168804
v 1.000000 13.786797 21.213203
v 0.998027 13.742397 21.257603
v 0.992115 13.698173 21.301827
v 0.982287 13.654298 21.345702
v 0.968583 13.610946 21.389054
v 0.951057 13.568289 21.431711
v 0.929776 13.526493 21.473507
v 0.904827 13.485725 21.514275
v 0.876307 13.446145 21.553855
v 0.844328 13.407910 21.592090
v 0.809017 13.371170 21.628830
v 0.770513 13.336070 21.663930
v 0.728969 13.302749 21.697251
v 0.684547 13.271338 21.728662
v 0.637424 13.241961 21.758039
v 0.587785 13.214735 21.785265
v 0.535827 13.189767 21.810233
v 0.481754 13.167154 21.832846
v 0.425779 13.146987 21.853013
v 0.368125 13.129345 21.870655
v 0.309017 13.114298 21.885702
v 0.248690 13.101905 21.898095
v 0.187381 13.092215 21.907785
v 0.125333 13.085266 21.914734
v 0.062791 13.081085 21.918915
v -0.000000 6.359734 11.863186
v -0.062791 6.361558 11.862431
v -0.125333 6.367020 11.860169
v -0.187381 6.376099 11.856408
v -0.248690 6.388760 11.851164
v -0.309017 6.404952 11.844457
v -0.368125 6.424613 11.836313
v -0.425779 6.447663 11.826765
v -0.481754 6.474012 11.815851
v -0.535827 6.503557 11.803613
v -0.587785 6.536180 11.790100
v -0.637424 6.571753 11.775366
v -0.684547 6.610135 11.759467
v -0.728969 6.651175 11.742468
v -0.770513 6.694711 11.724435
v -0.809017 6.740571 11.705439
v -0.844328 6.788575 11.685555
v -0.876307 6.838532 11.664862
v -0.904827 6.890245 11.643442
v -0.929776 6.943511 11.621378
v -0.951057 6.998120 11.598759
v -0.968583 7.053855 11.575672
v -0.982287 7.110496 11.552211
v -0.992115 7.167821 11.528466
v -0.998027 7.225603 11.504532
v -1.000000 7.283614 11.480503
v -0.998027 7.341625 11.456474
v -0.992115 7.399407 11.432540
v -0.982287 7.456732 11.408795
v -0.968583 7.513374 11.385333
v -0.951057 7.569109 11.362247
v -0.929776 7.623717 11.339628
v -0.904827 7.676983 11.317564
v -0.876307 7.728696 11.296144
v -0.844328 7.778653 11.275451
v -0.809017 7.826657 11.255567
v -0.770513 7.872517 11.236571
v -0.728969 7.916053 11.218538
v -0.684547 7.957093 11.201539
v -0.637424 7.995475 11.185640
v -0.587785 8.031048 11.170906
v -0.535827 8.063671 11.157393
v -0.481754 8.093216 11.145155
v -0.425779 8.119565 11.134241
v -0.368125 8.142615 11.124693
v -0.309017 8.162276 11.116549
v -0.248690 8.178468 11.109842
v -0.187381 8.191129 11.104598
v -0.125333 8.200208 11.100837
v -0.062791 8.205670 11.098575
v -0.000000 8.207494 11.097820
v 0.062791 8.205670 11.098575
v 0.125333 8.200208 11.100837
v 0.187381 8.191129 11.104598
v 0.248690 8.178468 11.109842
v 0.309017 8.162276 11.116549
v 0.368125 8.142615 11.124693
v 0.425779 8.119565 11.134241
v 0.481754 8.093216 11.145155
v 0.535827 8.063671 11.157393
v 0.587785 8.031048 11.170906
v 0.637424 7.995475 11.185640
v 0.684547 7.957093 11.201539
v 0.728969 7.916053 11.218538
v 0.770513 7.872517 11.236571
v 0.809017 7.826657 11.255567
v 0.844328 7.778653 11.275451
v 0.876307 7.728696 11.296144
v 0.904827 7.676983 11.317564
v 0.929776 7.623717 11.339628
v 0.951057 7.569109 11.362247
v 0.968583 7.513374 11.385333
v 0.982287 7.456732 11.408795
v 0.992115 7.399407 11.432540
v 0.998027 7.341625 11.456474
v 1.000000 7.283614 11.480503
v 0.998027 7.225603 11.504532
v 0.992115 7.167821 11.528466
v 0.982287 7.110496 11.552211
v 0.968583 7.053855 11.575672
v 0.951057 6.998120 11.598759
v 0.929776 6.943511 11.621378
v 0.904827 6.890245 11.643442
v 0.876307 6.838532 11.664862
v 0.844328 6.788575 11.685555
v 0.809017 6.740571 11.705439
v 0.770513 6.694711 11.724435
v 0.728969 6.651175 11.742468
v 0.684547 6.610135 11.759467
v 0.637424 6.571753 11.775366
v 0.587785 6.536180 11.790100
v 0.535827 6.503557 11.803613
v 0.481754 6.474012 11.815851
v 0.425779 6.447663 11.826765
v 0.368125 6.424613 11.836313
v 0.309017 6.404952 11.844457
v 0.248690 6.388760 11.851164
v 0.187381 6.376099 11.856408
v 0.125333 6.367020 11.860169
v 0.062791 6.361558 11.862431
v -0.000000 4.000000 0.000000
v -0.062791 4.001973 0.000000
v -0.125333 4.007885 0.000000
v -0.187381 4.017713 0.000000
v -0.248690 4.031417 0.000000
v -0.309017 4.048943 0.000000
v -0.368125 4.070224 0.000000
v -0.425779 4.095173 0.000000
v -0.481754 4.123693 0.000000
v -0.535827 4.155672 0.000000
v -0.587785 4.190983 0.000000
v -0.637424 4.229487 0.000000
v -0.684547 4.271031 0.000000
v -0.728969 4.315453 0.000000
v -0.770513 4.362576 0.000000
v -0.809017 4.412215 0.000000
v -0.844328 4.464173 0.000000
v -0.876307 4.518246 0.000000
v -0.904827 4.574221 0.000000
v -0.929776 4.631875 0.000000
v -0.951057 4.690983 0.000000
v -0.968583 4.751310 0.000000
v -0.982287 4.812619 0.000000
v -0.992115 4.874667 0.000000
v -0.998027 4.937209 0.000000
v -1.000000 5.000000 0.000000
v -0.998027 5.062791 0.000000
v -0.992115 5.125333 0.000000
v -0.982287 5.187381 0.000000
v -0.968583 5.248690 0.000000
v -0.951057 5.309017 0.000000
v -0.929776 5.368125 0.000000
v -0.904827 5.425779 0.000000
v -0.876307 5.481754 0.000000
v -0.844328 5.535827 0.000000
v -0.809017 5.587785 0.000000
v -0.770513 5.637424 0.000000
v -0.728969 5.684547 0.000000
v -0.684547 5.728969 0.000000
v -0.637424 5.770513 0.000000
v -0.587785 5.809017 0.000000
v -0.535827 5.844328 0.000000
v -0.481754 5.876307 0.000000
v -0.425779 5.904827 0.000000
v -0.368125 5.929776 0.000000
v -0.309017 5.951057 0.000000
v -0.248690 5.968583 0.000000
v -0.187381 5.982287 0.000000
v -0.125333 5.992115 0.000000
v -0.062791 5.998027 0.000000
v -0.000000 6.000000 0.000000
v 0.062791 5.998027 0.000000
v 0.125333 5.992115 0.000000
v 0.187381 5.982287 0.000000
v 0.248690 5.968583 0.000000
v 0.309017 5.951057 0.000000
v 0.368125 5.929776 0.000000
v 0.425779 5.904827 0.000000
v 0.481754 5.876307 0.000000
v 0.535827 5.844328 0.000000
v 0.587785 5.809017 0.000000
v 0.637424 5.770513 0.000000
v 0.684547 5.728969 0.000000
v 0.728969 5.684547 0.000000
v 0.770513 5.637424 0.000000
v 0.809017 5.587785 0.000000
v 0.844328 5.535827 0.000000
v 0.876307 5.481754 0.000000
v 0.904827 5.425779 0.000000
v 0.929776 5.368125 0.000000
v 0.951057 5.309017 0.000000
v 0.968583 5.248690 0.000000
v 0.982287 5.187381 0.000000
v 0.992115 5.125333 0.000000
v 0.998027 5.062791 0.000000
v 1.000000 5.000000 0.000000
v 0.998027 4.937209 0.000000
v 0.992115 4.874667 0.000000
v 0.982287 4.812619 0.000000
v 0.968583 4.751310 0.000000
v 0.951057 4.690983 0.000000
v 0.929776 4.631875 0.000000
v 0.904827 4.574221 0.000000
v 0.876307 4.518246 0.000000
v 0.844328 4.464173 0.000000
v 0.809017 4.412215 0.000000
v 0.770513 4.362576 0.000000
v 0.728969 4.315453 0.000000
v 0.684547 4.271031 0.000000
v 0.637424 4.229487 0.000000
v 0.587785 4.190983 0.000000
v 0.535827 4.155672 0.000000
v 0.481754 4.123693 0.000000
v 0.425779 4.095173 0.000000
v 0.368125 4.070224 0.000000
v 0.309017 4.048943 0.000000
v 0.248690 4.031417 0.000000
v 0.187381 4.017713 0.000000
v 0.125333 4.007885 0.000000
v 0.062791 4.001973 0.000000
v -0.000000 6.359734 -11.863186
v -0.062791 6.361558 -11.862431
v -0.125333 6.367020 -11.860169
v -0.187381 6.376099 -11.856408
v -0.248690 6.388760 -11.851164
v -0.309017 6.404952 -11.844457
v -0.368125 6.424613 -11.836313
v -0.425779 6.447663 -11.826765
v -0.481754 6.474012 -11.815851
v -0.535827 6.503557 -11.803613
v -0.587785 6.536180 -11.790100
v -0.637424 6.571753 -11.775366
v -0.684547 6.610135 -11.759467
v -0.728969 6.651175 -11.742468
v -0.770513 6.694711 -11.724435
v -0.809017 6.740571 -11.705439
v -0.844328 6.788575 -11.685555
v -0.876307 6.838532 -11.664862
v -0.904827 6.890245 -11.643442
v -0.929776 6.943511 -11.621378
v -0.951057 6.998120 -11.598759
v -0.968583 7.053855 -11.575672
v -0.982287 7.110496 -11.552211
v -0.992115 7.167821 -11.528466
v -0.998027 7.225603 -11.504532
v -1.000000 7.283614 -11.480503
v -0.998027 7.341625 -11.456474
v -0.992115 7.399407 -11.432540
v -0.982287 7.456732 -11.408795
v -0.968583 7.513374 -11.385333
v -0.951057 7.569109 -11.362247
v -0.929776 7.623717 -11.339628
v -0.904827 7.676983 -11.317564
v -0.876307 7.728696 -11.296144
v -0.844328 7.778653 -11.275451
v -0.809017 7.826657 -11.255567
v -0.770513 7.872517 -11.236571
v -0.728969 7.916053 -11.218538
v -0.684547 7.957093 -11.201539
v -0.637424 7.995475 -11.185640
v -0.587785 8.031048 -11.170906
v -0.535827 8.063671 -11.157393
v -0.481754 8.093216 -11.145155
v -0.425779 8.119565 -11.134241
v -0.368125 8.142615 -11.124693
v -0.309017 8.162276 -11.116549
v -0.248690 8.178468 -11.109842
v -0.187381 8.191129 -11.104598
v -0.125333 8.200208 -11.100837
v -0.062791 8.205670 -11.098575
v -0.000000 8.207494 -11.097820
v 0.062791 8.205670 -11.098575
v 0.125333 8.200208 -11.100837
v 0.187381 8.191129 -11.104598
v 0.248690 8.178468 -11.109842
v 0.309017 8.162276 -11.116549
v 0.368125 8.142615 -11.124693
v 0.425779 8.119565 -11.134241
v 0.481754 8.093216 -11.145155
v 0.535827 8.063671 -11.157393
v 0.587785 8.031048 -11.170906
v 0.637424 7.995475 -11.185640
v 0.684547 7.957093 -11.201539
v 0.728969 7.916053 -11.218538
v 0.770513 7.872517 -11.236571
v 0.809017 7.826657 -11.255567
v 0.844328 7.778653 -11.275451
v 0.876307 7.728696 -11.296144
v 0.904827 7.676983 -11.317564
v 0.929776 7.623717 -11.339628
v 0.951057 7.569109 -11.362247
v 0.968583 7.513374 -11.385333
v 0.982287 7.456732 -11.408795
v 0.992115 7.399407 -11.432540
v 0.998027 7.341625 -11.456474
v 1.000000 7.283614 -11.480503
v 0.998027 7.225603 -11.504532
v 0.992115 7.167821 -11.528466
v 0.982287 7.110496 -11.552211
v 0.968583 7.053855 -11.575672
v 0.951057 6.998120 -11.598759
v 0.929776 6.943511 -11.621378
v 0.904827 6.890245 -11.643442
v 0.876307 6.838532 -11.664862
v 0.844328 6.788575 -11.685555
v 0.809017 6.740571 -11.705439
v 0.770513 6.694711 -11.724435
v 0.728969 6.651175 -11.742468
v 0.684547 6.610135 -11.759467
v 0.637424 6.571753 -11.775366
v 0.587785 6.536180 -11.790100
v 0.535827 6.503557 -11.803613
v 0.481754 6.474012 -11.815851
v 0.425779 6.447663 -11.826765
v 0.368125 6.424613 -11.836313
v 0.309017 6.404952 -11.844457
v 0.248690 6.388760 -11.851164
v 0.187381 6.376099 -11.856408
v 0.125333 6.367020 -11.860169
v 0.062791 6.361558 -11.862431
v -0.000000 13.079690 -21.920310
v -0.062791 13.081085 -21.918915
v -0.125333 13.085266 -21.914734
v -0.187381 13.092215 -21.907785
v -0.248690 13.101905 -21.898095
v -0.309017 13.114298 -21.885702
v -0.368125 13.129345 -21.870655
v -0.425779 13.146987 -21.853013
v -0.481754 13.167154 -21.832846
v -0.535827 13.189767 -21.810233
v -0.587785 13.214735 -21.785265
v -0.637424 13.241961 -21.758039
v -0.684547 13.271338 -21.728662
v -0.728969 13.302749 -21.697251
v -0.770513 13.336070 -21.663930
v -0.809017 13.371170 -21.628830
v -0.844328 13.407910 -21.592090
v -0.876307 13.446145 -21.553855
v -0.904827 13.485725 -21.514275
v -0.929776 13.526493 -21.473507
v -0.951057 13.568289 -21.431711
v -0.968583 13.610946 -21.389054
v -0.982287 13.654298 -21.345702
v -0.992115 13.698173 -21.301827
v -0.998027 13.742397 -21.257603
v -1.000000 13.786797 -21.213203
v -0.998027 13.831196 -21.168804
v -0.992115 13.875421 -21.124579
v -0.982287 13.919295 -21.080705
v -0.968583 13.962647 -21.037353
v -0.951057 14.005305 -20.994695
v -0.929776 14.047100 -20.952900
v -0.904827 14.087868 -20.912132
v -0.876307 14.127448 -20.872552
v -0.844328 14.165683 -20.834317
v -0.809017 14.202424 -20.797576
v -0.770513 14.237523 -20.762477
v -0.728969 14.270844 -20.729156
v -0.684547 14.302255 -20.697745
v -0.637424 14.331632 -20.668368
v -0.587785 14.358858 -20.641142
v -0.535827 14.383827 -20.616173
v -0.481754 14.406439 -20.593561
v -0.425779 14.426606 -20.573394
v -0.368125 14.444248 -20.555752
v -0.309017 14.459295 -20.540705
v -0.248690 14.471688 -20.528312
v -0.187381 14.481379 -20.518621
v -0.125333 14.488328 -20.511672
v -0.062791 14.492508 -20.507492
v -0.000000 14.493903 -20.506097
v 0.062791 14.492508 -20.507492
v 0.125333 14.488328 -20.511672
v 0.187381 14.481379 -20.518621
v 0.248690 14.471688 -20.528312
v 0.309017 14.459295 -20.540705
v 0.368125 14.444248 -20.555752
v 0.425779 14.426606 -20.573394
v 0.481754 14.406439 -20.593561
v 0.535827 14.383827 -20.616173
v 0.587785 14.358858 -20.641142
v 0.637424 14.331632 -20.668368
v 0.684547 14.302255 -20.697745
v 0.728969 14.270844 -20.729156
v 0.770513 14.237523 -20.762477
v 0.809017 14.202424 -20.797576
v 0.844328 14.165683 -20.834317
v 0.876307 14.127448 -20.872552
v 0.904827 14.087868 -20.912132
v 0.929776 14.047100 -20.952900
v 0.951057 14.005305 -20.994695
v 0.968583 13.962647 -21.037353
v 0.982287 13.919295 -21.080705
v 0.992115 13.875421 -21.124579
v 0.998027 13.831196 -21.168804
v 1.000000 13.786797 -21.213203
v 0.998027 13.742397 -21.257603
v 0.992115 13.698173 -21.301827
v 0.982287 13.654298 -21.345702
v 0.968583 13.610946 -21.389054
v 0.951057 13.568289 -21.431711
v 0.929776 13.526493 -21.473507
v 0.904827 13.485725 -21.514275
v 0.876307 13.446145 -21.553855
v 0.844328 13.407910 -21.592090
v 0.809017 13.371170 -21.628830
v 0.770513 13.336070 -21.663930
v 0.728969 13.302749 -21.697251
v 0.684547 13.271338 -21.728662
v 0.637424 13.241961 -21.758039
v 0.587785 13.214735 -21.785265
v 0.535827 13.189767 -21.810233
v 0.481754 13.167154 -21.832846
v 0.425779 13.146987 -21.853013
v 0.368125 13.129345 -21.870655
v 0.309017 13.114298 -21.885702
v 0.248690 13.101905 -21.898095
v 0.187381 13.092215 -21.907785
v 0.125333 13.085266 -21.914734
v 0.062791 13.081085 -21.918915
v -0.000000 23.136814 -28.640266
v -0.062791 23.137569 -28.638442
v -0.125333 23.139831 -28.632980
v -0.187381 23.143592 -28.623901
v -0.248690 23.148836 -28.611240
v -0.309017 23.155543 -28.595048
v -0.368125 23.163687 -28.575387
v -0.425779 23.173235 -28.552337
v -0.481754 23.184149 -28.525988
v -0.535827 23.196387 -28.496443
v -0.587785 23.209900 -28.463820
v -0.637424 23.224634 -28.428247
v -0.684547 23.240533 -28.389865
v -0.728969 23.257532 -28.348825
v -0.770513 23.275565 -28.305289
v -0.809017 23.294561 -28.259429
v -0.844328 23.314445 -28.211425
v -0.876307 23.335138 -28.161468
v -0.904827 23.356558 -28.109755
v -0.929776 23.378622 -28.056489
v -0.951057 23.401241 -28.001880
v -0.968583 23.424328 -27.946145
v -0.982287 23.447789 -27.889504
v -0.992115 23.471534 -27.832179
v -0.998027 23.495468 -27.774397
v -1.000000 23.519497 -27.716386
v -0.998027 23.543526 -27.658375
v -0.992115 23.567460 -27.600593
v -0.982287 23.591205 -27.543268
v -0.968583 23.614667 -27.486626
v -0.951057 23.637753 -27.430891
v -0.929776 23.660372 -27.376283
v -0.904827 23.682436 -27.323017
v -0.876307 23.703856 -27.271304
v -0.844328 23.724549 -27.221347
v -0.809017 23.744433 -27.173343
v -0.770513 23.763429 -27.127483
v -0.728969 23.781462 -27.083947
v -0.684547 23.798461 -27.042907
v -0.637424 23.814360 -27.004525
v -0.587785 23.829094 -26.968952
v -0.535827 23.842607 -26.936329
v -0.481754 23.854845 -26.906784
v -0.425779 23.865759 -26.880435
v -0.368125 23.875307 -26.857385
v -0.309017 23.883451 -26.837724
v -0.248690 23.890158 -26.821532
v -0.187381 23.895402 -26.808871
v -0.125333 23.899163 -26.799792
v -0.062791 23.901425 -26.794330
v -0.000000 23.902180 -26.792506
v 0.062791 23.901425 -26.794330
v 0.125333 23.899163 -26.799792
v 0.187381 23.895402 -26.808871
v 0.248690 23.890158 -26.821532
v 0.309017 23.883451 -26.837724
v 0.368125 23.875307 -26.857385
v 0.425779 23.865759 -26.880435
v 0.481754 23.854845 -26.906784
v 0.535827 23.842607 -26.936329
v 0.587785 23.829094 -26.968952
v 0.637424 23.814360 -27.004525
v 0.684547 23.798461 -27.042907
v 0.728969 23.781462 -27.083947
v 0.770513 23.763429 -27.127483
v 0.809017 23.744433 -27.173343
v 0.844328 23.724549 -27.221347
v 0.876307 23.703856 -27.271304
v 0.904827 23.682436 -27.323017
v 0.929776 23.660372 -27.376283
v 0.951057 23.637753 -27.430891
v 0.968583 23.614667 -27.486626
v 0.982287 23.591205 -27.543268
v 0.992115 23.567460 -27.600593
v 0.998027 23.543526 -27.658375
v 1.000000 23.519497 -27.716386
v 0.998027 23.495468 -27.774397
v 0.992115 23.471534 -27.832179
v 0.982287 23.447789 -27.889504
v 0.968583 23.424328 -27.946145
v 0.951057 23.401241 -28.001880
v 0.929776 23.378622 -28.056489
v 0.904827 23.356558 -28.109755
v 0.876307 23.335138 -28.161468
v 0.844328 23.314445 -28.211425
v 0.809017 23.294561 -28.259429
v 0.770513 23.275565 -28.305289
v 0.728969 23.257532 -28.348825
v 0.684547 23.240533 -28.389865
v 0.637424 23.224634 -28.428247
v 0.587785 23.209900 -28.463820
v 0.535827 23.196387 -28.496443
v 0.481754 23.184149 -28.525988
v 0.425779 23.173235 -28.552337
v 0.368125 23.163687 -28.575387
v 0.309017 23.155543 -28.595048
v 0.248690 23.148836 -28.611240
v 0.187381 23.143592 -28.623901
v 0.125333 23.139831 -28.632980
v 0.062791 23.137569 -28.638442
v -0.000000 35.000000 -31.000000
v -0.062791 35.000000 -30.998027
v -0.125333 35.000000 -30.992115
v -0.187381 35.000000 -30.982287
v -0.248690 35.000000 -30.968583
v -0.309017 35.000000 -30.951057
v -0.368125 35.000000 -30.929776
v -0.425779 35.000000 -30.904827
v -0.481754 35.000000 -30.876307
v -0.535827 35.000000 -30.844328
v -0.587785 35.000000 -30.809017
v -0.637424 35.000000 -30.770513
v -0.684547 35.000000 -30.728969
v -0.728969 35.000000 -30.684547
v -0.770513 35.000000 -30.637424
v -0.809017 35.000000 -30.587785
v -0.844328 35.000000 -30.535827
v -0.876307 35.000000 -30.481754
v -0.904827 35.000000 -30.425779
v -0.929776 35.000000 -30.368125
v -0.951057 35.000000 -30.309017
v -0.968583 35.000000 -30.248690
v -0.982287 35.000000 -30.187381
v -0.992115 35.000000 -30.125333
v -0.998027 35.000000 -30.062791
v -1.000000 35.000000 -30.000000
v -0.998027 35.000000 -29.937209
v -0.992115 35.000000 -29.874667
v -0.982287 35.000000 -29.812619
v -0.968583 35.000000 -29.751310
v -0.951057 35.000000 -29.690983
v -0.929776 35.000000 -29.631875
v -0.904827 35.000000 -29.574221
v -0.876307 35.000000 -29.518246
v -0.844328 35.000000 -29.464173
v -0.809017 35.000000 -29.412215
v -0.770513 35.000000 -29.362576
v -0.728969 35.000000 -29.315453
v -0.684547 35.000000 -29.271031
v -0.637424 35.000000 -29.229487
v -0.587785 35.000000 -29.190983
v -0.535827 35.000000 -29.155672
v -0.481754 35.000000 -29.123693
v -0.425779 35.000000 -29.095173
v -0.368125 35.000000 -29.070224
v -0.309017 35.000000 -29.048943
v -0.248690 35.000000 -29.031417
v -0.187381 35.000000 -29.017713
v -0.125333 35.000000 -29.007885
v -0.062791 35.000000 -29.001973
v -0.000000 35.000000 -29.000000
v 0.062791 35.000000 -29.001973
v 0.125333 35.000000 -29.007885
v 0.187381 35.000000 -29.017713
v 0.248690 35.000000 -29.031417
v 0.309017 35.000000 -29.048943
v 0.368125 35.000000 -29.070224
v 0.425779 35.000000 -29.095173
v 0.481754 35.000000 -29.123693
v 0.535827 35.000000 -29.155672
v 0.587785 35.000000 -29.190983
v 0.637424 35.000000 -29.229487
v 0.684547 35.000000 -29.271031
v 0.728969 35.000000 -29.315453
v 0.770513 35.000000 -29.362576
v 0.809017 35.000000 -29.412215
v 0.844328 35.000000 -29.464173
v 0.876307 35.000000 -29.518246
v 0.904827 35.000000 -29.574221
v 0.929776 35.000000 -29.631875
v 0.951057 35.000000 -29.690983
v 0.968583 35.000000 -29.751310
v 0.982287 35.000000 -29.812619
v 0.992115 35.000000 -29.874667
v 0.998027 35.000000 -29.937209
v 1.000000 35.000000 -30.000000
v 0.998027 35.000000 -30.062791
v 0.992115 35.000000 -30.125333
v 0.982287 35.000000 -30.187381
v 0.968583 35.000000 -30.248690
v 0.951057 35.000000 -30.309017
v 0.929776 35.000000 -30.368125
v 0.904827 35.000000 -30.425779
v 0.876307 35.000000 -30.481754
v 0.844328 35.000000 -30.535827
v 0.809017 35.000000 -30.587785
v 0.770513 35.000000 -30.637424
v 0.728969 35.000000 -30.684547
v 0.684547 35.000000 -30.728969
v 0.637424 35.000000 -30.770513
v 0.587785 35.000000 -30.809017
v 0.535827 35.000000 -30.844328
v 0.481754 35.000000 -30.876307
v 0.425779 35.000000 -30.904827
v 0.368125 35.000000 -30.929776
v 0.309017 35.000000 -30.951057
v 0.248690 35.000000 -30.968583
v 0.187381 35.000000 -30.982287
v 0.125333 35.000000 -30.992115
v 0.062791 35.000000 -30.998027
v 0.000000 46.863186 -28.640266
v -0.062791 46.862431 -28.638442
v -0.125333 46.860169 -28.632980
v -0.187381 46.856408 -28.623901
v -0.248690 46.851164 -28.611240
v -0.309017 46.844457 -28.595048
v -0.368125 46.836313 -28.575387
v -0.425779 46.826765 -28.552337
v -0.481754 46.815851 -28.525988
v -0.535827 46.803613 -28.496443
v -0.587785 46.790100 -28.463820
v -0.637424 46.775366 -28.428247
v -0.684547 46.759467 -28.389865
v -0.728969 46.742468 -28.348825
v -0.770513 46.724435 -28.305289
v -0.809017 46.705439 -28.259429
v -0.844328 46.685555 -28.211425
v -0.876307 46.664862 -28.161468
v -0.904827 46.643442 -28.109755
v -0.929776 46.621378 -28.056489
v -0.951057 46.598759 -28.001880
v -0.968583 46.575672 -27.946145
v -0.982287 46.552211 -27.889504
v -0.992115 46.528466 -27.832179
v -0.998027 46.504532 -27.774397
v -1.000000 46.480503 -27.716386
v -0.998027 46.456474 -27.658375
v -0.992115 46.432540 -27.600593
v -0.982287 46.408795 -27.543268
v -0.968583 46.385333 -27.486626
v -0.951057 46.362247 -27.430891
v -0.929776 46.339628 -27.376283
v -0.904827 46.317564 -27.323017
v -0.876307 46.296144 -27.271304
v -0.844328 46.275451 -27.221347
v -0.809017 46.255567 -27.173343
v -0.770513 46.236571 -27.127483
v -0.728969 46.218538 -27.083947
v -0.684547 46.201539 -27.042907
v -0.637424 46.185640 -27.004525
v -0.587785 46.170906 -26.968952
v -0.535827 46.157393 -26.936329
v -0.481754 46.145155 -26.906784
v -0.425779 46.134241 -26.880435
v -0.368125 46.124693 -26.857385
v -0.309017 46.116549 -26.837724
v -0.248690 46.109842 -26.821532
v -0.187381 46.104598 -26.808871
v -0.125333 46.100837 -26.799792
v -0.062791 46.098575 -26.794330
v 0.000000 46.097820 -26.792506
v 0.062791 46.098575 -26.794330
v 0.125333 46.100837 -26.799792
v 0.187381 46.104598 -26.808871
v 0.248690 46.109842 -26.821532
v 0.309017 46.116549 -26.837724
v 0.368125 46.124693 -26.857385
v 0.425779 46.134241 -26.880435
v 0.481754 46.145155 -26.906784
v 0.535827 46.157393 -26.936329
v 0.587785 46.170906 -26.968952
v 0.637424 46.185640 -27.004525
v 0.684547 46.201539 -27.042907
v 0.728969 46.218538 -27.083947
v 0.770513 46.236571 -27.127483
v 0.809017 46.255567 -27.173343
v 0.844328 46.275451 -27.221347
v 0.876307 46.296144 -27.271304
v 0.904827 46.317564 -27.323017
v 0.929776 46.339628 -27.376283
v 0.951057 46.362247 -27.430891
v 0.968583 46.385333 -27.486626
v 0.982287 46.408795 -27.543268
v 0.992115 46.432540 -27.600593
v 0.998027 46.456474 -27.658375
v 1.000000 46.480503 -27.716386
v 0.998027 46.504532 -27.774397
v 0.992115 46.528466 -27.832179
v 0.982287 46.552211 -27.889504
v 0.968583 46.575672 -27.946145
v 0.951057 46.598759 -28.001880
v 0.929776 46.621378 -28.056489
v 0.904827 46.643442 -28.109755
v 0.876307 46.664862 -28.161468
v 0.844328 46.685555 -28.211425
v 0.809017 46.705439 -28.259429
v 0.770513 46.724435 -28.305289
v 0.728969 46.742468 -28.348825
v 0.684547 46.759467 -28.389865
v 0.637424 46.775366 -28.428247
v 0.587785 46.790100 -28.463820
v 0.535827 46.803613 -28.496443
v 0.481754 46.815851 -28.525988
v 0.425779 46.826765 -28.552337
v 0.368125 46.836313 -28.575387
v 0.309017 46.844457 -28.595048
v 0.248690 46.851164 -28.611240
v 0.187381 46.856408 -28.623901
v 0.125333 46.860169 -28.632980
v 0.062791 46.862431 -28.638442
v 0.000000 56.920310 -21.920310
v -0.062791 56.918915 -21.918915
v -0.125333 56.914734 -21.914734
v -0.187381 56.907785 -21.907785
v -0.248690 56.898095 -21.898095
v -0.309017 56.885702 -21.885702
v -0.368125 56.870655 -21.870655
v -0.425779 56.853013 -21.853013
v -0.481754 56.832846 -21.832846
v -0.535827 56.810233 -21.810233
v -0.587785 56.785265 -21.785265
v -0.637424 56.758039 -21.758039
v -0.684547 56.728662 -21.728662
v -0.728969 56.697251 -21.697251
v -0.770513 56.663930 -21.663930
v -0.809017 56.628830 -21.628830
v -0.844328 56.592090 -21.592090
v -0.876307 56.553855 -21.553855
v -0.904827 56.514275 -21.514275
v -0.929776 56.473507 -21.473507
v -0.951057 56.431711 -21.431711
v -0.968583 56.389054 -21.389054
v -0.982287 56.345702 -21.345702
v -0.992115 56.301827 -21.301827
v -0.998027 56.257603 -21.257603
v -1.000000 56.213203 -21.213203
v -0.998027 56.168804 -21.168804
v -0.992115 56.124579 -21.124579
v -0.982287 56.080705 -21.080705
v -0.968583 56.037353 -21.037353
v -0.951057 55.994695 -20.994695
v -0.929776 55.952900 -20.952900
v -0.904827 55.912132 -20.912132
v -0.876307 55.872552 -20.872552
v -0.844328 55.834317 -20.834317
v -0.809017 55.797576 -20.797576
v -0.770513 55.762477 -20.762477
v -0.728969 55.729156 -20.729156
v -0.684547 55.697745 -20.697745
v -0.637424 55.668368 -20.668368
v -0.587785 55.641142 -20.641142
v -0.535827 55.616173 -20.616173
v -0.481754 55.593561 -20.593561
v -0.425779 55.573394 -20.573394
v -0.368125 55.555752 -20.555752
v -0.309017 55.540705 -20.540705
v -0.248690 55.528312 -20.528312
v -0.187381 55.518621 -20.518621
v -0.125333 55.511672 -20.511672
v -0.062791 55.507492 -20.507492
v 0.000000 55.506097 -20.506097
v 0.062791 55.507492 -20.507492
v 0.125333 55.511672 -20.511672
v 0.187381 55.518621 -20.518621
v 0.248690 55.528312 -20.528312
v 0.309017 55.540705 -20.540705
v 0.368125 55.555752 -20.555752
v 0.425779 55.573394 -20.573394
v 0.481754 55.593561 -20.593561
v 0.535827 55.616173 -20.616173
v 0.587785 55.641142 -20.641142
v 0.637424 55.668368 -20.668368
v 0.684547 55.697745 -20.697745
v 0.728969 55.729156 -20.729156
v 0.770513 55.762477 -20.762477
v 0.809017 55.797576 -20.797576
v 0.844328 55.834317 -20.834317
v 0.876307 55.872552 -20.872552
v 0.904827 55.912132 -20.912132
v 0.929776 55.952900 -20.952900
v 0.951057 55.994695 -20.994695
v 0.968583 56.037353 -21.037353
v 0.982287 56.080705 -21.080705
v 0.992115 56.124579 -21.124579
v 0.998027 56.168804 -21.168804
v 1.000000 56.213203 -21.213203
v 0.998027 56.257603 -21.257603
v 0.992115 56.301827 -21.301827
v 0.982287 56.345702 -21.345702
v 0.968583 56.389054 -21.389054
v 0.951057 56.431711 -21.431711
v 0.929776 56.473507 -21.473507
v 0.904827 56.514275 -21.514275
v 0.876307 56.553855 -21.553855
v 0.844328 56.592090 -21.592090
v 0.809017 56.628830 -21.628830
v 0.770513 56.663930 -21.663930
v 0.728969 56.697251 -21.697251
v 0.684547 56.728662 -21.728662
v 0.637424 56.758039 -21.758039
v 0.587785 56.785265 -21.785265
v 0.535827 56.810233 -21.810233
v 0.481754 56.832846 -21.832846
v 0.425779 56.853013 -21.853013
v 0.368125 56.870655 -21.870655
v 0.309017 56.885702 -21.885702
v 0.248690 56.898095 -21.898095
v 0.187381 56.907785 -21.907785
v 0.125333 56.914734 -21.914734
v 0.062791 56.918915 -21.918915
v 0.000000 63.640266 -11.863186
v -0.062791 63.638442 -11.862431
v -0.125333 63.632980 -11.860169
v -0.187381 63.623901 -11.856408
v -0.248690 63.611240 -11.851164
v -0.309017 63.595048 -11.844457
v -0.368125 63.575387 -11.836313
v -0.425779 63.552337 -11.826765
v -0.481754 63.525988 -11.815851
v -0.535827 63.496443 -11.803613
v -0.587785 63.463820 -11.790100
v -0.637424 63.428247 -11.775366
v -0.684547 63.389865 -11.759467
v -0.728969 63.348825 -11.742468
v -0.770513 63.305289 -11.724435
v -0.809017 63.259429 -11.705439
v -0.844328 63.211425 -11.685555
v -0.876307 63.161468 -11.664862
v -0.904827 63.109755 -11.643442
v -0.929776 63.056489 -11.621378
v -0.951057 63.001880 -11.598759
v -0.968583 62.946145 -11.575672
v -0.982287 62.889504 -11.552211
v -0.992115 62.832179 -11.528466
v -0.998027 62.774397 -11.504532
v -1.000000 62.716386 -11.480503
v -0.998027 62.658375 -11.456474
v -0.992115 62.600593 -11.432540
v -0.982287 62.543268 -11.408795
v -0.968583 62.486626 -11.385333
v -0.951057 62.430891 -11.362247
v -0.929776 62.376283 -11.339628
v -0.904827 62.323017 -11.317564
v -0.876307 62.271304 -11.296144
v -0.844328 62.221347 -11.275451
v -0.809017 62.173343 -11.255567
v -0.770513 62.127483 -11.236571
v -0.728969 62.083947 -11.218538
v -0.684547 62.042907 -11.201539
v -0.637424 62.004525 -11.185640
v -0.587785 61.968952 -11.170906
v -0.535827 61.936329 -11.157393
v -0.481754 61.906784 -11.145155
v -0.425779 61.880435 -11.134241
v -0.368125 61.857385 -11.124693
v -0.309017 61.837724 -11.116549
v -0.248690 61.821532 -11.109842
v -0.187381 61.808871 -11.104598
v -0.125333 61.799792 -11.100837
v -0.062791 61.794330 -11.098575
v 0.000000 61.792506 -11.097820
v 0.062791 61.794330 -11.098575
v 0.125333 61.799792 -11.100837
v 0.187381 61.808871 -11.104598
v 0.248690 61.821532 -11.109842
v 0.309017 61.837724 -11.116549
v 0.368125 61.857385 -11.124693
v 0.425779 61.880435 -11.134241
v 0.481754 61.906784 -11.145155
v 0.535827 61.936329 -11.157393
v 0.587785 61.968952 -11.170906
v 0.637424 62.004525 -11.185640
v 0.684547 62.042907 -11.201539
v 0.728969 62.083947 -11.218538
v 0.770513 62.127483 -11.236571
v 0.809017 62.173343 -11.255567
v 0.844328 62.221347 -11.275451
v 0.876307 62.271304 -11.296144
v 0.904827 62.323017 -11.317564
v 0.929776 62.376283 -11.339628
v 0.951057 62.430891 -11.362247
v 0.968583 62.486626 -11.385333
v 0.982287 62.543268 -11.408795
v 0.992115 62.600593 -11.432540
v 0.998027 62.658375 -11.456474
v 1.000000 62.716386 -11.480503
v 0.998027 62.774397 -11.504532
v 0.992115 62.832179 -11.528466
v 0.982287 62.889504 -11.552211
v 0.968583 62.946145 -11.575672
v 0.951057 63.001880 -11.598759
v 0.929776 63.056489 -11.621378
v 0.904827 63.109755 -11.643442
v 0.876307 63.161468 -11.664862
v 0.844328 63.211425 -11.685555
v 0.809017 63.259429 -11.705439
v 0.770513 63.305289 -11.724435
v 0.728969 63.348825 -11.742468
v 0.684547 63.389865 -11.759467
v 0.637424 63.428247 -11.775366
v 0.587785 63.463820 -11.790100
v 0.535827 63.496443 -11.803613
v 0.481754 63.525988 -11.815851
v 0.425779 63.552337 -11.826765
v 0.368125 63.575387 -11.836313
v 0.309017 63.595048 -11.844457
v 0.248690 63.611240 -11.851164
v 0.187381 63.623901 -11.856408
v 0.125333 63.632980 -11.860169
v 0.062791 63.638442 -11.862431
f 1 2 102
f 1 102 101
f 2 3 103
f 2 103 102
f 3 4 104
f 3 104 103
f 4 5 105
f 4 105 104
f 5 6 106
f 5 106 105
f 6 7 107
f 6 107 106
f 7 8 108
f 7 108 107
f 8 9 109
f 8 109 108
f 9 10 110
f 9 110 109
f 10 11 111
f 10 111 110
f 11 12 112
f 11 112 111
f 12 13 113
f 12 113 112
f 13 14 114
f 13 114 113
f 14 15 115
f 14 115 114
f 15 16 116
f 15 116 115
f 16 17 117
f 16 117 116
f 17 18 118
f 17 118 117
f 18 19 119
f 18 119 118
f 19 20 120
f 19 120 119
f 20 21 121
f 20 121 120
f 21 22 122
f 21 122 121
f 22 23 123
f 22 123 122
f 23 24 124
f 23 124 123
f 24 25 125
f 24 125 124
f 25 26 126
f 25 126 125
f 26 27 127
f 26 127 126
f 27 28 128
f 27 128 127
f 28 29 129
f 28 129 128
f 29 30 130
f 29 130 129
f 30 31 131
f 30 131 130
f 31 32 132
f 31 132 131
f 32 33 133
f 32 133 132
f 33 34 134
f 33 134 133
f 34 35 135
f 34 135 134
f 35 36 136
f 35 136 135
f 36 37 137
f 36 137 136
f 37 38 138
f 37 138 137
f 38 39 139
f 38 139 138
f 39 40 140
f 39 140 139
f 40 41 141
f 40 141 140
f 41 42 142
f 41 142 141
f 42 43 143
f 42 143 142
f 43 44 144
f 43 144 143
f 44 45 145
f 44 145 144
f 45 46 146
f 45 146 145
f 46 47 147
f 46 147 146
f 47 48 148
f 47 148 147
f 48 49 149
f 48 149 148
f 49 50 150
f 49 150 149
f 50 51 151
f 50 151 150
f 51 52 152
f 51 152 151
f 52 53 153
f 52 153 152
f 53 54 154
f 53 154 153
f 54 55 155
f 54 155 154
f 55 56 156
f 55 156 155
f 56 57 157
f 56 157 156
f 57 58 158
f 57 158 157
f 58 59 159
f 58 159 158
f 59 60 160
f 59 160 159
f 60 61 161
f 60 161 160
f 61 62 162
f 61 162 161
f 62 63 163
f 62 163 162
f 63 64 164
f 63 164 163
f 64 65 165
f 64 165 164
f 65 66 166
f 65 166 165
f 66 67 167
f 66 167 166
f 67 68 168
f 67 168 167
f 68 69 169
f 68 169 168
f 69 70 170
f 69 170 169
f 70 71 171
f 70 171 170
f 71 72 172
f 71 172 171
f 72 73 173
f 72 173 172
f 73 74 174
f 73 174 173
f 74 75 175
f 74 175 174
f 75 76 176
f 75 176 175
f 76 77 177
f 76 177 176
f 77 78 178
f 77 178 177
f 78 79 179
f 78 179 178
f 79 80 180
f 79 180 179
f 80 81 181
f 80 181 180
f 81 82 182
f 81 182 181
f 82 83 183
f 82 183 182
f 83 84 184
f 83 184 183
f 84 85 185
f 84 185 184
f 85 86 186
f 85 186 185
f 86 87 187
f 86 187 186
f 87 88 188
f 87 188 187
f 88 89 189
f 88 189 188
f 89 90 190
f 89 190 189
f 90 91 191
f 90 191 190
f 91 92 192
f 91 192 191
f 92 93 193
f 92 193 192
f 93 94 194
f 93 194 193
f 94 95 195
f 94 195 194
f 95 96 196
f 95 196 195
f 96 97 197
f 96 197 196
f 97 98 198
f 97 198 197
f 98 99 199
f 98 199 198
f 99 100 200
f 99 200 199
f 100 1 101
f 100 101 200
f 101 102 202
f 101 202 201
f 102 103 203
f 102 203 202
f 103 104 204
f 103 204 203
f 104 105 205
f 104 205 204
f 105 106 206
f 105 206 205
f 106 107 207
f 106 207 206
f 107 108 208
f 107 208 207
f 108 109 209
f 108 209 208
f 109 110 210
f 109 210 209
f 110 111 211
f 110 211 210
f 111 112 212
f 111 212 211
f 112 113 213
f 112 213 212
f 113 114 214
f 113 214 213
f 114 115 215
f 114 215 214
f 115 116 216
f 115 216 215
f 116 117 217
f 116 217 216
f 117 118 218
f 117 218 217
f 118 119 219
f 118 219 218
f 119 120 220
f 119 220 219
f 120 121 221
f 120 221 220
f 121 122 222
f 121 222 221
f 122 123 223
f 122 223 222
f 123 124 224
f 123 224 223
f 124 125 225
f 124 225 224
f 125 126 226
f 125 226 225
f 126 127 227
f 126 227 226
f 127 128 228
f 127 228 227
f 128 129 229
f 128 229 228
f 129 130 230
f 129 230 229
f 130 131 231
f 130 231 230
f 131 132 232
f 131 232 231
f 132 133 233
f 132 233 232
f 133 134 234
f 133 234 233
f 134 135 235
f 134 235 234
f 135 136 236
f 135 236 235
f 136 137 237
f 136 237 236
f 137 138 238
f 137 238 237
f 138 139 239
f 138 239 238
f 139 140 240
f 139 240 239
f 140 141 241
f 140 241 240
f 141 142 242
f 141 242 241
f 142 143 243
f 142 243 242
f 143 144 244
f 143 244 243
f 144 145 245
f 144 245 244
f 145 146 246
f 145 246 245
f 146 147 247
f 146 247 246
f 147 148 248
f 147 248 247
f 148 149 249
f 148 249 248
f 149 150 250
f 149 250 249
f 150 151 251
f 150 251 250
f 151 152 252
f 151 252 251
f 152 153 253
f 152 253 252
f 153 154 254
f 153 254 253
f 154 155 255
f 154 255 254
f 155 156 256
f 155 256 255
f 156 157 257
f 156 257 256
f 157 158 258
f 157 258 257
f 158 159 259
f 158 259 258
f 159 160 260
f 159 260 259
f 160 161 261
f 160 261 260
f 161 162 262
f 161 262 261
f 162 163 263
f 162 263 262
f 163 164 264
f 163 264 263
f 164 165 265
f 164 265 264
f 165 166 266
f 165 266 265
f 166 167 267
f 166 267 266
f 167 168 268
f 167 268 267
f 168 169 269
f 168 269 268
f 169 170 270
f 169 270 269
f 170 171 271
f 170 271 270
f 171 172 272
f 171 272 271
f 172 173 273
f 172 273 272
f 173 174 274
f 173 274 273
f 174 175 275
f 174 275 274
f 175 176 276
f 175 276 275
f 176 177 277
f 176 277 276
f 177 178 278
f 177 278 277
f 178 179 279
f 178 279 278
f 179 180 280
f 179 280 279
f 180 181 281
f 180 281 280
f 181 182 282
f 181 282 281
f 182 183 283
f 182 283 282
f 183 184 284
f 183 284 283
f 184 185 285
f 184 285 284
f 185 186 286
f 185 286 285
f 186 187 287
f 186 287 286
f 187 188 288
f 187 288 287
f 188 189 289
f 188 289 288
f 189 190 290
f 189 290 289
f 190 191 291
f 190 291 290
f 191 192 292
f 191 292 291
f 192 193 293
f 192 293 292
f 193 194 294
f 193 294 293
f 194 195 295
f 194 295 294
f 195 196 296
f 195 296 295
f 196 197 297
f 196 297 296
f 197 198 298
f 197 298 297
f 198 199 299
f 198 299 298
f 199 200 300
f 199 300 299
f 200 101 201
f 200 201 300
f 201 202 302
f 201 302 301
f 202 203 303
f 202 303 302
f 203 204 304
f 203 304 303
f 204 205 305
f 204 305 304
f 205 206 306
f 205 306 305
f 206 207 307
f 206 307 306
f 207 208 308
f 207 308 307
f 208 209 309
f 208 309 308
f 209 210 310
f 209 310 309
f 210 211 311
f 210 311 310
f 211 212 312
f 211 312 311
f 212 213 313
f 212 313 312
f 213 214 314
f 213 314 313
f 214 215 315
f 214 315 314
f 215 216 316
f 215 316 315
f 216 217 317
f 216 317 316
f 217 218 318
f 217 318 317
f 218 219 319
f 218 319 318
f 219 220 320
f 219 320 319
f 220 221 321
f 220 321 320
f 221 222 322
f 221 322 321
f 222 223 323
f 222 323 322
f 223 224 324
f 223 324 323
f 224 225 325
f 224 325 324
f 225 226 326
f 225 326 325
f 226 227 327
f 226 327 326
f 227 228 328
f 227 328 327
f 228 229 329
f 228 329 328
f 229 230 330
f 229 330 329
f 230 231 331
f 230 331 330
f 231 232 332
f 231 332 331
f 232 233 333
f 232 333 332
f 233 234 334
f 233 334 333
f 234 235 335
f 234 335 334
f 235 236 336
f 235 336 335
f 236 237 337
f 236 337 336
f 237 238 338
f 237 338 337
f 238 239 339
f 238 339 338
f 239 240 340
f 239 340 339
f 240 241 341
f 240 341 340
f 241 242 342
f 241 342 341
f 242 243 343
f 242 343 342
f 243 244 344
f 243 344 343
f 244 245 345
f 244 345 344
f 245 246 346
f 245 346 345
f 246 247 347
f 246 347 346
f 247 248 348
f 247 348 347
f 248 249 349
f 248 349 348
f 249 250 350
f 249 350 349
f 250 251 351
f 250 351 350
f 251 252 352
f 251 352 351
f 252 253 353
f 252 353 352
f 253 254 354
f 253 354 353
f 254 255 355
f 254 355 354
f 255 256 356
f 255 356 355
f 256 257 357
f 256 357 356
f 257 258 358
f 257 358 357
f 258 259 359
f 258 359 358
f 259 260 360
f 259 360 359
f 260 261 361
f 260 361 360
f 261 262 362
f 261 362 361
f 262 263 363
f 262 363 362
f 263 264 364
f 263 364 363
f 264 265 365
f 264 365 364
f 265 266 366
f 265 366 365
f 266 267 367
f 266 367 366
f 267 268 368
f 267 368 367
f 268 269 369
f 268 369 368
f 269 270 370
f 269 370 369
f 270 271 371
f 270 371 370
f 271 272 372
f 271 372 371
f 272 273 373
f 272 373 372
f 273 274 374
f 273 374 373
f 274 275 375
f 274 375 374
f 275 276 376
f 275 376 375
f 276 277 377
f 276 377 376
f 277 278 378
f 277 378 377
f 278 279 379
f 278 379 378
f 279 280 380
f 279 380 379
f 280 281 381
f 280 381 380
f 281 282 382
f 281 382 381
f 282 283 383
f 282 383 382
f 283 284 384
f 283 384 383
f 284 285 385
f 284 385 384
f 285 286 386
f 285 386 385
f 286 287 387
f 286 387 386
f 287 288 388
f 287 388 387
f 288 289 389
f 288 389 388
f 289 290 390
f 289 390 389
f 290 291 391
f 290 391 390
f 291 292 392
f 291 392 391
f 292 293 393
f 292 393 392
f 293 294 394
f 293 394 393
f 294 295 395
f 294 395 394
f 295 296 396
f 295 396 395
f 296 297 397
f 296 397 396
f 297 298 398
f 297 398 397
f 298 299 399
f 298 399 398
f 299 300 400
f 299 400 399
f 300 201 301
f 300 301 400
f 301 302 402
f 301 402 401
f 302 303 403
f 302 403 402
f 303 304 404
f 303 404 403
f 304 305 405
f 304 405 404
f 305 306 406
f 305 406 405
f 306 307 407
f 306 407 406
f 307 308 408
f 307 408 407
f 308 309 409
f 308 409 408
f 309 310 410
f 309 410 409
f 310 311 411
f 310 411 410
f 311 312 412
f 311 412 411
f 312 313 413
f 312 413 412
f 313 314 414
f 313 414 413
f 314 315 415
f 314 415 414
f 315 316 416
f 315 416 415
f 316 317 417
f 316 417 416
f 317 318 418
f 317 418 417
f 318 319 419
f 318 419 418
f 319 320 420
f 319 420 419
f 320 321 421
f 320 421 420
f 321 322 422
f 321 422 421
f 322 323 423
f 322 423 422
f 323 324 424
f 323 424 423
f 324 325 425
f 324 425 424
f 325 326 426
f 325 426 425
f 326 327 427
f 326 427 426
f 327 328 428
f 327 428 427
f 328 329 429
f 328 429 428
f 329 330 430
f 329 430 429
f 330 331 431
f 330 431 430
f 331 332 432
f 331 432 431
f 332 333 433
f 332 433 432
f 333 334 434
f 333 434 433
f 334 335 435
f 334 435 434
f 335 336 436
f 335 436 435
f 336 337 437
f 336 437 436
f 337 338 438
f 337 438 437
f 338 339 439
f 338 439 438
f 339 340 440
f 339 440 439
f 340 341 441
f 340 441 440
f 341 342 442
f 341 442 441
f 342 343 443
f 342 443 442
f 343 344 444
f 343 444 443
f 344 345 445
f 344 445 444
f 345 346 446
f 345 446 445
f 346 347 447
f 346 447 446
f 347 348 448
f 347 448 447
f 348 349 449
f 348 449 448
f 349 350 450
f 349 450 449
f 350 351 451
f 350 451 450
f 351 352 452
f 351 452 451
f 352 353 453
f 352 453 452
f 353 354 454
f 353 454 453
f 354 355 455
f 354 455 454
f 355 356 456
f 355 456 455
f 356 357 457
f 356 457 456
f 357 358 458
f 357 458 457
f 358 359 459
f 358 459 458
f 359 360 460
f 359 460 459
f 360 361 461
f 360 461 460
f 361 362 462
f 361 462 461
f 362 363 463
f 362 463 462
f 363 364 464
f 363 464 463
f 364 365 465
f 364 465 464
f 365 366 466
f 365 466 465
f 366 367 467
f 366 467 466
f 367 368 468
f 367 468 467
f 368 369 469
f 368 469 468
f 369 370 470
f 369 470 469
f 370 371 471
f 370 471 470
f 371 372 472
f 371 472 471
f 372 373 473
f 372 473 472
f 373 374 474
f 373 474 473
f 374 375 475
f 374 475 474
f 375 376 476
f 375 476 475
f 376 377 477
f 376 477 476
f 377 378 478
f 377 478 477
f 378 379 479
f 378 479 478
f 379 380 480
f 379 480 479
f 380 381 481
f 380 481 480
f 381 382 482
f 381 482 481
f 382 383 483
f 382 483 482
f 383 384 484
f 383 484 483
f 384 385 485
f 384 485 484
f 385 386 486
f 385 486 485
f 386 387 487
f 386 487 486
f 387 388 488
f 387 488 487
f 388 389 489
f 388 489 488
f 389 390 490
f 389 490 489
f 390 391 491
f 390 491 490
f 391 392 492
f 391 492 491
f 392 393 493
f 392 493 492
f 393 394 494
f 393 494 493
f 394 395 495
f 394 495 494
f 395 396 496
f 395 496 495
f 396 397 497
f 396 497 496
f 397 398 498
f 397 498 497
f 398 399 499
f 398 499 498
f 399 400 500
f 399 500 499
f 400 301 401
f 400 401 500
f 401 402 502
f 401 502 501
f 402 403 503
f 402 503 502
f 403 404 504
f 403 504 503
f 404 405 505
f 404 505 504
f 405 406 506
f 405 506 505
f 406 407 507
f 406 507 506
f 407 408 508
f 407 508 507
f 408 409 509
f 408 509 508
f 409 410 510
f 409 510 509
f 410 411 511
f 410 511 510
f 411 412 512
f 411 512 511
f 412 413 513
f 412 513 512
f 413 414 514
f 413 514 513
f 414 415 515
f 414 515 514
f 415 416 516
f 415 516 515
f 416 417 517
f 416 517 516
f 417 418 518
f 417 518 517
f 418 419 519
f 418 519 518
f 419 420 520
f 419 520 519
f 420 421 521
f 420 521 520
f 421 422 522
f 421 522 521
f 422 423 523
f 422 523 522
f 423 424 524
f 423 524 523
f 424 425 525
f 424 525 524
f 425 426 526
f 425 526 525
f 426 427 527
f 426 527 526
f 427 428 528
f 427 528 527
f 428 429 529
f 428 529 528
f 429 430 530
f 429 530 529
f 430 431 531
f 430 531 530
f 431 432 532
f 431 532 531
f 432 433 533
f 432 533 532
f 433 434 534
f 433 534 533
f 434 435 535
f 434 535 534
f 435 436 536
f 435 536 535
f 436 437 537
f 436 537 536
f 437 438 538
f 437 538 537
f 438 439 539
f 438 539 538
f 439 440 540
f 439 540 539
f 440 441 541
f 440 541 540
f 441 442 542
f 441 542 541
f 442 443 543
f 442 543 542
f 443 444 544
f 443 544 543
f 444 445 545
f 444 545 544
f 445 446 546
f 445 546 545
f 446 447 547
f 446 547 546
f 447 448 548
f 447 548 547
f 448 449 549
f 448 549 548
f 449 450 550
f 449 550 549
f 450 451 551
f 450 551 550
f 451 452 552
f 451 552 551
f 452 453 553
f 452 553 552
f 453 454 554
f 453 554 553
f 454 455 555
f 454 555 554
f 455 456 556
f 455 556 555
f 456 457 557
f 456 557 556
f 457 458 558
f 457 558 557
f 458 459 559
f 458 559 558
f 459 460 560
f 459 560 559
f 460 461 561
f 460 561 560
f 461 462 562
f 461 562 561
f 462 463 563
f 462 563 562
f 463 464 564
f 463 564 563
f 464 465 565
f 464 565 564
f 465 466 566
f 465 566 565
f 466 467 567
f 466 567 566
f 467 468 568
f 467 568 567
f 468 469 569
f 468 569 568
f 469 470 570
f 469 570 569
f 470 471 571
f 470 571 570
f 471 472 572
f 471 572 571
f 472 473 573
f 472 573 572
f 473 474 574
f 473 574 573
f 474 475 575
f 474 575 574
f 475 476 576
f 475 576 575
f 476 477 577
f 476 577 576
f 477 478 578
f 477 578 577
f 478 479 579
f 478 579 578
f 479 480 580
f 479 580 579
f 480 481 581
f 480 581 580
f 481 482 582
f 481 582 581
f 482 483 583
f 482 583 582
f 483 484 584
f 483 584 583
f 484 485 585
f 484 585 584
f 485 486 586
f 485 586 585
f 486 487 587
f 486 587 586
f 487 488 588
f 487 588 587
f 488 489 589
f 488 589 588
f 489 490 590
f 489 590 589
f 490 491 591
f 490 591 590
f 491 492 592
f 491 592 591
f 492 493 593
f 492 593 592
f 493 494 594
f 493 594 593
f 494 495 595
f 494 595 594
f 495 496 596
f 495 596 595
f 496 497 597
f 496 597 596
f 497 498 598
f 497 598 597
f 498 499 599
f 498 599 598
f 499 500 600
f 499 600 599
f 500 401 501
f 500 501 600
f 501 502 602
f 501 602 601
f 502 503 603
f 502 603 602
f 503 504 604
f 503 604 603
f 504 505 605
f 504 605 604
f 505 506 606
f 505 606 605
f 506 507 607
f 506 607 606
f 507 508 608
f 507 608 607
f 508 509 609
f 508 609 608
f 509 510 610
f 509 610 609
f 510 511 611
f 510 611 610
f 511 512 612
f 511 612 611
f 512 513 613
f 512 613 612
f 513 514 614
f 513 614 613
f 514 515 615
f 514 615 614
f 515 516 616
f 515 616 615
f 516 517 617
f 516 617 616
f 517 518 618
f 517 618 617
f 518 519 619
f 518 619 618
f 519 520 620
f 519 620 619
f 520 521 621
f 520 621 620
f 521 522 622
f 521 622 621
f 522 523 623
f 522 623 622
f 523 524 624
f 523 624 623
f 524 525 625
f 524 625 624
f 525 526 626
f 525 626 625
f 526 527 627
f 526 627 626
f 527 528 628
f 527 628 627
f 528 529 629
f 528 629 628
f 529 530 630
f 529 630 629
f 530 531 631
f 530 631 630
f 531 532 632
f 531 632 631
f 532 533 633
f 532 633 632
f 533 534 634
f 533 634 633
f 534 535 635
f 534 635 634
f 535 536 636
f 535 636 635
f 536 537 637
f 536 637 636
f 537 538 638
f 537 638 637
f 538 539 639
f 538 639 638
f 539 540 640
f 539 640 639
f 540 541 641
f 540 641 640
f 541 542 642
f 541 642 641
f 542 543 643
f 542 643 642
f 543 544 644
f 543 644 643
f 544 545 645
f 544 645 644
f 545 546 646
f 545 646 645
f 546 547 647
f 546 647 646
f 547 548 648
f 547 648 647
f 548 549 649
f 548 649 648
f 549 550 650
f 549 650 649
f 550 551 651
f 550 651 650
f 551 552 652
f 551 652 651
f 552 553 653
f 552 653 652
f 553 554 654
f 553 654 653
f 554 555 655
f 554 655 654
f 555 556 656
f 555 656 655
f 556 557 657
f 556 657 656
f 557 558 658
f 557 658 657
f 558 559 659
f 558 659 658
f 559 560 660
f 559 660 659
f 560 561 661
f 560 661 660
f 561 562 662
f 561 662 661
f 562 563 663
f 562 663 662
f 563 564 664
f 563 664 663
f 564 565 665
f 564 665 664
f 565 566 666
f 565 666 665
f 566 567 667
f 566 667 666
f 567 568 668
f 567 668 667
f 568 569 669
f 568 669 668
f 569 570 670
f 569 670 669
f 570 571 671
f 570 671 670
f 571 572 672
f 571 672 671
f 572 573 673
f 572 673 672
f 573 574 674
f 573 674 673
f 574 575 675
f 574 675 674
f 575 576 676
f 575 676 675
f 576 577 677
f 576 677 676
f 577 578 678
f 577 678 677
f 578 579 679
f 578 679 678
f 579 580 680
f 579 680 679
f 580 581 681
f 580 681 680
f 581 582 682
f 581 682 681
f 582 583 683
f 582 683 682
f 583 584 684
f 583 684 683
f 584 585 685
f 584 685 684
f 585 586 686
f 585 686 685
f 586 587 687
f 586 687 686
f 587 588 688
f 587 688 687
f 588 589 689
f 588 689 688
f 589 590 690
f 589 690 689
f 590 591 691
f 590 691 690
f 591 592 692
f 591 692 691
f 592 593 693
f 592 693 692
f 593 594 694
f 593 694 693
f 594 595 695
f 594 695 694
f 595 596 696
f 595 696 695
f 596 597 697
f 596 697 696
f 597 598 698
f 597 698 697
f 598 599 699
f 598 699 698
f 599 600 700
f 599 700 699
f 600 501 601
f 600 601 700
f 601 602 702
f 601 702 701
f 602 603 703
f 602 703 702
f 603 604 704
f 603 704 703
f 604 605 705
f 604 705 704
f 605 606 706
f 605 706 705
f 606 607 707
f 606 707 706
f 607 608 708
f 607 708 707
f 608 609 709
f 608 709 708
f 609 610 710
f 609 710 709
f 610 611 711
f 610 711 710
f 611 612 712
f 611 712 711
f 612 613 713
f 612 713 712
f 613 614 714
f 613 714 713
f 614 615 715
f 614 715 714
f 615 616 716
f 615 716 715
f 616 617 717
f 616 717 716
f 617 618 718
f 617 718 717
f 618 619 719
f 618 719 718
f 619 620 720
f 619 720 719
f 620 621 721
f 620 721 720
f 621 622 722
f 621 722 721
f 622 623 723
f 622 723 722
f 623 624 724
f 623 724 723
f 624 625 725
f 624 725 724
f 625 626 726
f 625 726 725
f 626 627 727
f 626 727 726
f 627 628 728
f 627 728 727
f 628 629 729
f 628 729 728
f 629 630 730
f 629 730 729
f 630 631 731
f 630 731 730
f 631 632 732
f 631 732 731
f 632 633 733
f 632 733 732
f 633 634 734
f 633 734 733
f 634 635 735
f 634 735 734
f 635 636 736
f 635 736 735
f 636 637 737
f 636 737 736
f 637 638 738
f 637 738 737
f 638 639 739
f 638 739 738
f 639 640 740
f 639 740 739
f 640 641 741
f 640 741 740
f 641 642 742
f 641 742 741
f 642 643 743
f 642 743 742
f 643 644 744
f 643 744 743
f 644 645 745
f 644 745 744
f 645 646 746
f 645 746 745
f 646 647 747
f 646 747 746
f 647 648 748
f 647 748 747
f 648 649 749
f 648 749 748
f 649 650 750
f 649 750 749
f 650 651 751
f 650 751 750
f 651 652 752
f 651 752 751
f 652 653 753
f 652 753 752
f 653 654 754
f 653 754 753
f 654 655 755
f 654 755 754
f 655 656 756
f 655 756 755
f 656 657 757
f 656 757 756
f 657 658 758
f 657 758 757
f 658 659 759
f 658 759 758
f 659 660 760
f 659 760 759
f 660 661 761
f 660 761 760
f 661 662 762
f 661 762 761
f 662 663 763
f 662 763 762
f 663 664 764
f 663 764 763
f 664 665 765
f 664 765 764
f 665 666 766
f 665 766 765
f 666 667 767
f 666 767 766
f 667 668 768
f 667 768 767
f 668 669 769
f 668 769 768
f 669 670 770
f 669 770 769
f 670 671 771
f 670 771 770
f 671 672 772
f 671 772 771
f 672 673 773
f 672 773 772
f 673 674 774
f 673 774 773
f 674 675 775
f 674 775 774
f 675 676 776
f 675 776 775
f 676 677 777
f 676 777 776
f 677 678 778
f 677 778 777
f 678 679 779
f 678 779 778
f 679 680 780
f 679 780 779
f 680 681 781
f 680 781 780
f 681 682 782
f 681 782 781
f 682 683 783
f 682 783 782
f 683 684 784
f 683 784 783
f 684 685 785
f 684 785 784
f 685 686 786
f 685 786 785
f 686 687 787
f 686 787 786
f 687 688 788
f 687 788 787
f 688 689 789
f 688 789 788
f 689 690 790
f 689 790 789
f 690 691 791
f 690 791 790
f 691 692 792
f 691 792 791
f 692 693 793
f 692 793 792
f 693 694 794
f 693 794 793
f 694 695 795
f 694 795 794
f 695 696 796
f 695 796 795
f 696 697 797
f 696 797 796
f 697 698 798
f 697 798 797
f 698 699 799
f 698 799 798
f 699 700 800
f 699 800 799
f 700 601 701
f 700 701 800
f 701 702 802
f 701 802 801
f 702 703 803
f 702 803 802
f 703 704 804
f 703 804 803
f 704 705 805
f 704 805 804
f 705 706 806
f 705 806 805
f 706 707 807
f 706 807 806
f 707 708 808
f 707 808 807
f 708 709 809
f 708 809 808
f 709 710 810
f 709 810 809
f 710 711 811
f 710 811 810
f 711 712 812
f 711 812 811
f 712 713 813
f 712 813 812
f 713 714 814
f 713 814 813
f 714 715 815
f 714 815 814
f 715 716 816
f 715 816 815
f 716 717 817
f 716 817 816
f 717 718 818
f 717 818 817
f 718 719 819
f 718 819 818
f 719 720 820
f 719 820 819
f 720 721 821
f 720 821 820
f 721 722 822
f 721 822 821
f 722 723 823
f 722 823 822
f 723 724 824
f 723 824 823
f 724 725 825
f 724 825 824
f 725 726 826
f 725 826 825
f 726 727 827
f 726 827 826
f 727 728 828
f 727 828 827
f 728 729 829
f 728 829 828
f 729 730 830
f 729 830 829
f 730 731 831
f 730 831 830
f 731 732 832
f 731 832 831
f 732 733 833
f 732 833 832
f 733 734 834
f 733 834 833
f 734 735 835
f 734 835 834
f 735 736 836
f 735 836 835
f 736 737 837
f 736 837 836
f 737 738 838
f 737 838 837
f 738 739 839
f 738 839 838
f 739 740 840
f 739 840 839
f 740 741 841
f 740 841 840
f 741 742 842
f 741 842 841
f 742 743 843
f 742 843 842
f 743 744 844
f 743 844 843
f 744 745 845
f 744 845 844
f 745 746 846
f 745 846 845
f 746 747 847
f 746 847 846
f 747 748 848
f 747 848 847
f 748 749 849
f 748 849 848
f 749 750 850
f 749 850 849
f 750 751 851
f 750 851 850
f 751 752 852
f 751 852 851
f 752 753 853
f 752 853 852
f 753 754 854
f 753 854 853
f 754 755 855
f 754 855 854
f 755 756 856
f 755 856 855
f 756 757 857
f 756 857 856
f 757 758 858
f 757 858 857
f 758 759 859
f 758 859 858
f 759 760 860
f 759 860 859
f 760 761 861
f 760 861 860
f 761 762 862
f 761 862 861
f 762 763 863
f 762 863 862
f 763 764 864
f 763 864 863
f 764 765 865
f 764 865 864
f 765 766 866
f 765 866 865
f 766 767 867
f 766 867 866
f 767 768 868
f 767 868 867
f 768 769 869
f 768 869 868
f 769 770 870
f 769 870 869
f 770 771 871
f 770 871 870
f 771 772 872
f 771 872 871
f 772 773 873
f 772 873 872
f 773 774 874
f 773 874 873
f 774 775 875
f 774 875 874
f 775 776 876
f 775 876 875
f 776 777 877
f 776 877 876
f 777 778 878
f 777 878 877
f 778 779 879
f 778 879 878
f 779 780 880
f 779 880 879
f 780 781 881
f 780 881 880
f 781 782 882
f 781 882 881
f 782 783 883
f 782 883 882
f 783 784 884
f 783 884 883
f 784 785 885
f 784 885 884
f 785 786 886
f 785 886 885
f 786 787 887
f 786 887 886
f 787 788 888
f 787 888 887
f 788 789 889
f 788 889 888
f 789 790 890
f 789 890 889
f 790 791 891
f 790 891 890
f 791 792 892
f 791 892 891
f 792 793 893
f 792 893 892
f 793 794 894
f 793 894 893
f 794 795 895
f 794 895 894
f 795 796 896
f 795 896 895
f 796 797 897
f 796 897 896
f 797 798 898
f 797 898 897
f 798 799 899
f 798 899 898
f 799 800 900
f 799 900 899
f 800 701 801
f 800 801 900
f 801 802 902
f 801 902 901
f 802 803 903
f 802 903 902
f 803 804 904
f 803 904 903
f 804 805 905
f 804 905 904
f 805 806 906
f 805 906 905
f 806 807 907
f 806 907 906
f 807 808 908
f 807 908 907
f 808 809 909
f 808 909 908
f 809 810 910
f 809 910 909
f 810 811 911
f 810 911 910
f 811 812 912
f 811 912 911
f 812 813 913
f 812 913 912
f 813 814 914
f 813 914 913
f 814 815 915
f 814 915 914
f 815 816 916
f 815 916 915
f 816 817 917
f 816 917 916
f 817 818 918
f 817 918 917
f 818 819 919
f 818 919 918
f 819 820 920
f 819 920 919
f 820 821 921
f 820 921 920
f 821 822 922
f 821 922 921
f 822 823 923
f 822 923 922
f 823 824 924
f 823 924 923
f 824 825 925
f 824 925 924
f 825 826 926
f 825 926 925
f 826 827 927
f 826 927 926
f 827 828 928
f 827 928 927
f 828 829 929
f 828 929 928
f 829 830 930
f 829 930 929
f 830 831 931
f 830 931 930
f 831 832 932
f 831 932 931
f 832 833 933
f 832 933 932
f 833 834 934
f 833 934 933
f 834 835 935
f 834 935 934
f 835 836 936
f 835 936 935
f 836 837 937
f 836 937 936
f 837 838 938
f 837 938 937
f 838 839 939
f 838 939 938
f 839 840 940
f 839 940 939
f 840 841 941
f 840 941 940
f 841 842 942
f 841 942 941
f 842 843 943
f 842 943 942
f 843 844 944
f 843 944 943
f 844 845 945
f 844 945 944
f 845 846 946
f 845 946 945
f 846 847 947
f 846 947 946
f 847 848 948
f 847 948 947
f 848 849 949
f 848 949 948
f 849 850 950
f 849 950 949
f 850 851 951
f 850 951 950
f 851 852 952
f 851 952 951
f 852 853 953
f 852 953 952
f 853 854 954
f 853 954 953
f 854 855 955
f 854 955 954
f 855 856 956
f 855 956 955
f 856 857 957
f 856 957 956
f 857 858 958
f 857 958 957
f 858 859 959
f 858 959 958
f 859 860 960
f 859 960 959
f 860 861 961
f 860 961 960
f 861 862 962
f 861 962 961
f 862 863 963
f 862 963 962
f 863 864 964
f 863 964 963
f 864 865 965
f 864 965 964
f 865 866 966
f 865 966 965
f 866 867 967
f 866 967 966
f 867 868 968
f 867 968 967
f 868 869 969
f 868 969 968
f 869 870 970
f 869 970 969
f 870 871 971
f 870 971 970
f 871 872 972
f 871 972 971
f 872 873 973
f 872 973 972
f 873 874 974
f 873 974 973
f 874 875 975
f 874 975 974
f 875 876 976
f 875 976 975
f 876 877 977
f 876 977 976
f 877 878 978
f 877 978 977
f 878 879 979
f 878 979 978
f 879 880 980
f 879 980 979
f 880 881 981
f 880 981 980
f 881 882 982
f 881 982 981
f 882 883 983
f 882 983 982
f 883 884 984
f 883 984 983
f 884 885 985
f 884 985 984
f 885 886 986
f 885 986 985
f 886 887 987
f 886 987 986
f 887 888 988
f 887 988 987
f 888 889 989
f 888 989 988
f 889 890 990
f 889 990 989
f 890 891 991
f 890 991 990
f 891 892 992
f 891 992 991
f 892 893 993
f 892 993 992
f 893 894 994
f 893 994 993
f 894 895 995
f 894 995 994
f 895 896 996
f 895 996 995
f 896 897 997
f 896 997 996
f 897 898 998
f 897 998 997
f 898 899 999
f 898 999 998
f 899 900 1000
f 899 1000 999
f 900 801 901
f 900 901 1000
f 901 902 1002
f 901 1002 1001
f 902 903 1003
f 902 1003 1002
f 903 904 1004
f 903 1004 1003
f 904 905 1005
f 904 1005 1004
f 905 906 1006
f 905 1006 1005
f 906 907 1007
f 906 1007 1006
f 907 908 1008
f 907 1008 1007
f 908 909 1009
f 908 1009 1008
f 909 910 1010
f 909 1010 1009
f 910 911 1011
f 910 1011 1010
f 911 912 1012
f 911 1012 1011
f 912 913 1013
f 912 1013 1012
f 913 914 1014
f 913 1014 1013
f 914 915 1015
f 914 1015 1014
f 915 916 1016
f 915 1016 1015
f 916 917 1017
f 916 1017 1016
f 917 918 1018
f 917 1018 1017
f 918 919 1019
f 918 1019 1018
f 919 920 1020
f 919 1020 1019
f 920 921 1021
f 920 1021 1020
f 921 922 1022
f 921 1022 1021
f 922 923 1023
f 922 1023 1022
f 923 924 1024
f 923 1024 1023
f 924 925 1025
f 924 1025 1024
f 925 926 1026
f 925 1026 1025
f 926 927 1027
f 926 1027 1026
f 927 928 1028
f 927 1028 1027
f 928 929 1029
f 928 1029 1028
f 929 930 1030
f 929 1030 1029
f 930 931 1031
f 930 1031 1030
f 931 932 1032
f 931 1032 1031
f 932 933 1033
f 932 1033 1032
f 933 934 1034
f 933 1034 1033
f 934 935 1035
f 934 1035 1034
f 935 936 1036
f 935 1036 1035
f 936 937 1037
f 936 1037 1036
f 937 938 1038
f 937 1038 1037
f 938 939 1039
f 938 1039 1038
f 939 940 1040
f 939 1040 1039
f 940 941 1041
f 940 1041 1040
f 941 942 1042
f 941 1042 1041
f 942 943 1043
f 942 1043 1042
f 943 944 1044
f 943 1044 1043
f 944 945 1045
f 944 1045 1044
f 945 946 1046
f 945 1046 1045
f 946 947 1047
f 946 1047 1046
f 947 948 1048
f 947 1048 1047
f 948 949 1049
f 948 1049 1048
f 949 950 1050
f 949 1050 1049
f 950 951 1051
f 950 1051 1050
f 951 952 1052
f 951 1052 1051
f 952 953 1053
f 952 1053 1052
f 953 954 1054
f 953 1054 1053
f 954 955 1055
f 954 1055 1054
f 955 956 1056
f 955 1056 1055
f 956 957 1057
f 956 1057 1056
f 957 958 1058
f 957 1058 1057
f 958 959 1059
f 958 1059 1058
f 959 960 1060
f 959 1060 1059
f 960 961 1061
f 960 1061 1060
f 961 962 1062
f 961 1062 1061
f 962 963 1063
f 962 1063 1062
f 963 964 1064
f 963 1064 1063
f 964 965 1065
f 964 1065 1064
f 965 966 1066
f 965 1066 1065
f 966 967 1067
f 966 1067 1066
f 967 968 1068
f 967 1068 1067
f 968 969 1069
f 968 1069 1068
f 969 970 1070
f 969 1070 1069
f 970 971 1071
f 970 1071 1070
f 971 972 1072
f 971 1072 1071
f 972 973 1073
f 972 1073 1072
f 973 974 1074
f 973 1074 1073
f 974 975 1075
f 974 1075 1074
f 975 976 1076
f 975 1076 1075
f 976 977 1077
f 976 1077 1076
f 977 978 1078
f 977 1078 1077
f 978 979 1079
f 978 1079 1078
f 979 980 1080
f 979 1080 1079
f 980 981 1081
f 980 1081 1080
f 981 982 1082
f 981 1082 1081
f 982 983 1083
f 982 1083 1082
f 983 984 1084
f 983 1084 1083
f 984 985 1085
f 984 1085 1084
f 985 986 1086
f 985 1086 1085
f 986 987 1087
f 986 1087 1086
f 987 988 1088
f 987 1088 1087
f 988 989 1089
f 988 1089 1088
f 989 990 1090
f 989 1090 1089
f 990 991 1091
f 990 1091 1090
f 991 992 1092
f 991 1092 1091
f 992 993 1093
f 992 1093 1092
f 993 994 1094
f 993 1094 1093
f 994 995 1095
f 994 1095 1094
f 995 996 1096
f 995 1096 1095
f 996 997 1097
f 996 1097 1096
f 997 998 1098
f 997 1098 1097
f 998 999 1099
f 998 1099 1098
f 999 1000 1100
f 999 1100 1099
f 1000 901 1001
f 1000 1001 1100
f 1001 1002 1102
f 1001 1102 1101
f 1002 1003 1103
f 1002 1103 1102
f 1003 1004 1104
f 1003 1104 1103
f 1004 1005 1105
f 1004 1105 1104
f 1005 1006 1106
f 1005 1106 1105
f 1006 1007 1107
f 1006 1107 1106
f 1007 1008 1108
f 1007 1108 1107
f 1008 1009 1109
f 1008 1109 1108
f 1009 1010 1110
f 1009 1110 1109
f 1010 1011 1111
f 1010 1111 1110
f 1011 1012 1112
f 1011 1112 1111
f 1012 1013 1113
f 1012 1113 1112
f 1013 1014 1114
f 1013 1114 1113
f 1014 1015 1115
f 1014 1115 1114
f 1015 1016 1116
f 1015 1116 1115
f 1016 1017 1117
f 1016 1117 1116
f 1017 1018 1118
f 1017 1118 1117
f 1018 1019 1119
f 1018 1119 1118
f 1019 1020 1120
f 1019 1120 1119
f 1020 1021 1121
f 1020 1121 1120
f 1021 1022 1122
f 1021 1122 1121
f 1022 1023 1123
f 1022 1123 1122
f 1023 1024 1124
f 1023 1124 1123
f 1024 1025 1125
f 1024 1125 1124
f 1025 1026 1126
f 1025 1126 1125
f 1026 1027 1127
f 1026 1127 1126
f 1027 1028 1128
f 1027 1128 1127
f 1028 1029 1129
f 1028 1129 1128
f 1029 1030 1130
f 1029 1130 1129
f 1030 1031 1131
f 1030 1131 1130
f 1031 1032 1132
f 1031 1132 1131
f 1032 1033 1133
f 1032 1133 1132
f 1033 1034 1134
f 1033 1134 1133
f 1034 1035 1135
f 1034 1135 1134
f 1035 1036 1136
f 1035 1136 1135
f 1036 1037 1137
f 1036 1137 1136
f 1037 1038 1138
f 1037 1138 1137
f 1038 1039 1139
f 1038 1139 1138
f 1039 1040 1140
f 1039 1140 1139
f 1040 1041 1141
f 1040 1141 1140
f 1041 1042 1142
f 1041 1142 1141
f 1042 1043 1143
f 1042 1143 1142
f 1043 1044 1144
f 1043 1144 1143
f 1044 1045 1145
f 1044 1145 1144
f 1045 1046 1146
f 1045 1146 1145
f 1046 1047 1147
f 1046 1147 1146
f 1047 1048 1148
f 1047 1148 1147
f 1048 1049 1149
f 1048 1149 1148
f 1049 1050 1150
f 1049 1150 1149
f 1050 1051 1151
f 1050 1151 1150
f 1051 1052 1152
f 1051 1152 1151
f 1052 1053 1153
f 1052 1153 1152
f 1053 1054 1154
f 1053 1154 1153
f 1054 1055 1155
f 1054 1155 1154
f 1055 1056 1156
f 1055 1156 1155
f 1056 1057 1157
f 1056 1157 1156
f 1057 1058 1158
f 1057 1158 1157
f 1058 1059 1159
f 1058 1159 1158
f 1059 1060 1160
f 1059 1160 1159
f 1060 1061 1161
f 1060 1161 1160
f 1061 1062 1162
f 1061 1162 1161
f 1062 1063 1163
f 1062 1163 1162
f 1063 1064 1164
f 1063 1164 1163
f 1064 1065 1165
f 1064 1165 1164
f 1065 1066 1166
f 1065 1166 1165
f 1066 1067 1167
f 1066 1167 1166
f 1067 1068 1168
f 1067 1168 1167
f 1068 1069 1169
f 1068 1169 1168
f 1069 1070 1170
f 1069 1170 1169
f 1070 1071 1171
f 1070 1171 1170
f 1071 1072 1172
f 1071 1172 1171
f 1072 1073 1173
f 1072 1173 1172
f 1073 1074 1174
f 1073 1174 1173
f 1074 1075 1175
f 1074 1175 1174
f 1075 1076 1176
f 1075 1176 1175
f 1076 1077 1177
f 1076 1177 1176
f 1077 1078 1178
f 1077 1178 1177
f 1078 1079 1179
f 1078 1179 1178
f 1079 1080 1180
f 1079 1180 1179
f 1080 1081 1181
f 1080 1181 1180
f 1081 1082 1182
f 1081 1182 1181
f 1082 1083 1183
f 1082 1183 1182
f 1083 1084 1184
f 1083 1184 1183
f 1084 1085 1185
f 1084 1185 1184
f 1085 1086 1186
f 1085 1186 1185
f 1086 1087 1187
f 1086 1187 1186
f 1087 1088 1188
f 1087 1188 1187
f 1088 1089 1189
f 1088 1189 1188
f 1089 1090 1190
f 1089 1190 1189
f 1090 1091 1191
f 1090 1191 1190
f 1091 1092 1192
f 1091 1192 1191
f 1092 1093 1193
f 1092 1193 1192
f 1093 1094 1194
f 1093 1194 1193
f 1094 1095 1195
f 1094 1195 1194
f 1095 1096 1196
f 1095 1196 1195
f 1096 1097 1197
f 1096 1197 1196
f 1097 1098 1198
f 1097 1198 1197
f 1098 1099 1199
f 1098 1199 1198
f 1099 1100 1200
f 1099 1200 1199
f 1100 1001 1101
f 1100 1101 1200
f 1101 1102 1202
f 1101 1202 1201
f 1102 1103 1203
f 1102 1203 1202
f 1103 1104 1204
f 1103 1204 1203
f 1104 1105 1205
f 1104 1205 1204
f 1105 1106 1206
f 1105 1206 1205
f 1106 1107 1207
f 1106 1207 1206
f 1107 1108 1208
f 1107 1208 1207
f 1108 1109 1209
f 1108 1209 1208
f 1109 1110 1210
f 1109 1210 1209
f 1110 1111 1211
f 1110 1211 1210
f 1111 1112 1212
f 1111 1212 1211
f 1112 1113 1213
f 1112 1213 1212
f 1113 1114 1214
f 1113 1214 1213
f 1114 1115 1215
f 1114 1215 1214
f 1115 1116 1216
f 1115 1216 1215
f 1116 1117 1217
f 1116 1217 1216
f 1117 1118 1218
f 1117 1218 1217
f 1118 1119 1219
f 1118 1219 1218
f 1119 1120 1220
f 1119 1220 1219
f 1120 1121 1221
f 1120 1221 1220
f 1121 1122 1222
f 1121 1222 1221
f 1122 1123 1223
f 1122 1223 1222
f 1123 1124 1224
f 1123 1224 1223
f 1124 1125 1225
f 1124 1225 1224
f 1125 1126 1226
f 1125 1226 1225
f 1126 1127 1227
f 1126 1227 1226
f 1127 1128 1228
f 1127 1228 1227
f 1128 1129 1229
f 1128 1229 1228
f 1129 1130 1230
f 1129 1230 1229
f 1130 1131 1231
f 1130 1231 1230
f 1131 1132 1232
f 1131 1232 1231
f 1132 1133 1233
f 1132 1233 1232
f 1133 1134 1234
f 1133 1234 1233
f 1134 1135 1235
f 1134 1235 1234
f 1135 1136 1236
f 1135 1236 1235
f 1136 1137 1237
f 1136 1237 1236
f 1137 1138 1238
f 1137 1238 1237
f 1138 1139 1239
f 1138 1239 1238
f 1139 1140 1240
f 1139 1240 1239
f 1140 1141 1241
f 1140 1241 1240
f 1141 1142 1242
f 1141 1242 1241
f 1142 1143 1243
f 1142 1243 1242
f 1143 1144 1244
f 1143 1244 1243
f 1144 1145 1245
f 1144 1245 1244
f 1145 1146 1246
f 1145 1246 1245
f 1146 1147 1247
f 1146 1247 1246
f 1147 1148 1248
f 1147 1248 1247
f 1148 1149 1249
f 1148 1249 1248
f 1149 1150 1250
f 1149 1250 1249
f 1150 1151 1251
f 1150 1251 1250
f 1151 1152 1252
f 1151 1252 1251
f 1152 1153 1253
f 1152 1253 1252
f 1153 1154 1254
f 1153 1254 1253
f 1154 1155 1255
f 1154 1255 1254
f 1155 1156 1256
f 1155 1256 1255
f 1156 1157 1257
f 1156 1257 1256
f 1157 1158 1258
f 1157 1258 1257
f 1158 1159 1259
f 1158 1259 1258
f 1159 1160 1260
f 1159 1260 1259
f 1160 1161 1261
f 1160 1261 1260
f 1161 1162 1262
f 1161 1262 1261
f 1162 1163 1263
f 1162 1263 1262
f 1163 1164 1264
f 1163 1264 1263
f 1164 1165 1265
f 1164 1265 1264
f 1165 1166 1266
f 1165 1266 1265
f 1166 1167 1267
f 1166 1267 1266
f 1167 1168 1268
f 1167 1268 1267
f 1168 1169 1269
f 1168 1269 1268
f 1169 1170 1270
f 1169 1270 1269
f 1170 1171 1271
f 1170 1271 1270
f 1171 1172 1272
f 1171 1272 1271
f 1172 1173 1273
f 1172 1273 1272
f 1173 1174 1274
f 1173 1274 1273
f 1174 1175 1275
f 1174 1275 1274
f 1175 1176 1276
f 1175 1276 1275
f 1176 1177 1277
f 1176 1277 1276
f 1177 1178 1278
f 1177 1278 1277
f 1178 1179 1279
f 1178 1279 1278
f 1179 1180 1280
f 1179 1280 1279
f 1180 1181 1281
f 1180 1281 1280
f 1181 1182 1282
f 1181 1282 1281
f 1182 1183 1283
f 1182 1283 1282
f 1183 1184 1284
f 1183 1284 1283
f 1184 1185 1285
f 1184 1285 1284
f 1185 1186 1286
f 1185 1286 1285
f 1186 1187 1287
f 1186 1287 1286
f 1187 1188 1288
f 1187 1288 1287
f 1188 1189 1289
f 1188 1289 1288
f 1189 1190 1290
f 1189 1290 1289
f 1190 1191 1291
f 1190 1291 1290
f 1191 1192 1292
f 1191 1292 1291
f 1192 1193 1293
f 1192 1293 1292
f 1193 1194 1294
f 1193 1294 1293
f 1194 1195 1295
f 1194 1295 1294
f 1195 1196 1296
f 1195 1296 1295
f 1196 1197 1297
f 1196 1297 1296
f 1197 1198 1298
f 1197 1298 1297
f 1198 1199 1299
f 1198 1299 1298
f 1199 1200 1300
f 1199 1300 1299
f 1200 1101 1201
f 1200 1201 1300
f 1201 1202 1302
f 1201 1302 1301
f 1202 1203 1303
f 1202 1303 1302
f 1203 1204 1304
f 1203 1304 1303
f 1204 1205 1305
f 1204 1305 1304
f 1205 1206 1306
f 1205 1306 1305
f 1206 1207 1307
f 1206 1307 1306
f 1207 1208 1308
f 1207 1308 1307
f 1208 1209 1309
f 1208 1309 1308
f 1209 1210 1310
f 1209 1310 1309
f 1210 1211 1311
f 1210 1311 1310
f 1211 1212 1312
f 1211 1312 1311
f 1212 1213 1313
f 1212 1313 1312
f 1213 1214 1314
f 1213 1314 1313
f 1214 1215 1315
f 1214 1315 1314
f 1215 1216 1316
f 1215 1316 1315
f 1216 1217 1317
f 1216 1317 1316
f 1217 1218 1318
f 1217 1318 1317
f 1218 1219 1319
f 1218 1319 1318
f 1219 1220 1320
f 1219 1320 1319
f 1220 1221 1321
f 1220 1321 1320
f 1221 1222 1322
f 1221 1322 1321
f 1222 1223 1323
f 1222 1323 1322
f 1223 1224 1324
f 1223 1324 1323
f 1224 1225 1325
f 1224 1325 1324
f 1225 1226 1326
f 1225 1326 1325
f 1226 1227 1327
f 1226 1327 1326
f 1227 1228 1328
f 1227 1328 1327
f 1228 1229 1329
f 1228 1329 1328
f 1229 1230 1330
f 1229 1330 1329
f 1230 1231 1331
f 1230 1331 1330
f 1231 1232 1332
f 1231 1332 1331
f 1232 1233 1333
f 1232 1333 1332
f 1233 1234 1334
f 1233 1334 1333
f 1234 1235 1335
f 1234 1335 1334
f 1235 1236 1336
f 1235 1336 1335
f 1236 1237 1337
f 1236 1337 1336
f 1237 1238 1338
f 1237 1338 1337
f 1238 1239 1339
f 1238 1339 1338
f 1239 1240 1340
f 1239 1340 1339
f 1240 1241 1341
f 1240 1341 1340
f 1241 1242 1342
f 1241 1342 1341
f 1242 1243 1343
f 1242 1343 1342
f 1243 1244 1344
f 1243 1344 1343
f 1244 1245 1345
f 1244 1345 1344
f 1245 1246 1346
f 1245 1346 1345
f 1246 1247 1347
f 1246 1347 1346
f 1247 1248 1348
f 1247 1348 1347
f 1248 1249 1349
f 1248 1349 1348
f 1249 1250 1350
f 1249 1350 1349
f 1250 1251 1351
f 1250 1351 1350
f 1251 1252 1352
f 1251 1352 1351
f 1252 1253 1353
f 1252 1353 1352
f 1253 1254 1354
f 1253 1354 1353
f 1254 1255 1355
f 1254 1355 1354
f 1255 1256 1356
f 1255 1356 1355
f 1256 1257 1357
f 1256 1357 1356
f 1257 1258 1358
f 1257 1358 1357
f 1258 1259 1359
f 1258 1359 1358
f 1259 1260 1360
f 1259 1360 1359
f 1260 1261 1361
f 1260 1361 1360
f 1261 1262 1362
f 1261 1362 1361
f 1262 1263 1363
f 1262 1363 1362
f 1263 1264 1364
f 1263 1364 1363
f 1264 1265 1365
f 1264 1365 1364
f 1265 1266 1366
f 1265 1366 1365
f 1266 1267 1367
f 1266 1367 1366
f 1267 1268 1368
f 1267 1368 1367
f 1268 1269 1369
f 1268 1369 1368
f 1269 1270 1370
f 1269 1370 1369
f 1270 1271 1371
f 1270 1371 1370
f 1271 1272 1372
f 1271 1372 1371
f 1272 1273 1373
f 1272 1373 1372
f 1273 1274 1374
f 1273 1374 1373
f 1274 1275 1375
f 1274 1375 1374
f 1275 1276 1376
f 1275 1376 1375
f 1276 1277 1377
f 1276 1377 1376
f 1277 1278 1378
f 1277 1378 1377
f 1278 1279 1379
f 1278 1379 1378
f 1279 1280 1380
f 1279 1380 1379
f 1280 1281 1381
f 1280 1381 1380
f 1281 1282 1382
f 1281 1382 1381
f 1282 1283 1383
f 1282 1383 1382
f 1283 1284 1384
f 1283 1384 1383
f 1284 1285 1385
f 1284 1385 1384
f 1285 1286 1386
f 1285 1386 1385
f 1286 1287 1387
f 1286 1387 1386
f 1287 1288 1388
f 1287 1388 1387
f 1288 1289 1389
f 1288 1389 1388
f 1289 1290 1390
f 1289 1390 1389
f 1290 1291 1391
f 1290 1391 1390
f 1291 1292 1392
f 1291 1392 1391
f 1292 1293 1393
f 1292 1393 1392
f 1293 1294 1394
f 1293 1394 1393
f 1294 1295 1395
f 1294 1395 1394
f 1295 1296 1396
f 1295 1396 1395
f 1296 1297 1397
f 1296 1397 1396
f 1297 1298 1398
f 1297 1398 1397
f 1298 1299 1399
f 1298 1399 1398
f 1299 1300 1400
f 1299 1400 1399
f 1300 1201 1301
f 1300 1301 1400
f 1301 1302 1402
f 1301 1402 1401
f 1302 1303 1403
f 1302 1403 1402
f 1303 1304 1404
f 1303 1404 1403
f 1304 1305 1405
f 1304 1405 1404
f 1305 1306 1406
f 1305 1406 1405
f 1306 1307 1407
f 1306 1407 1406
f 1307 1308 1408
f 1307 1408 1407
f 1308 1309 1409
f 1308 1409 1408
f 1309 1310 1410
f 1309 1410 1409
f 1310 1311 1411
f 1310 1411 1410
f 1311 1312 1412
f 1311 1412 1411
f 1312 1313 1413
f 1312 1413 1412
f 1313 1314 1414
f 1313 1414 1413
f 1314 1315 1415
f 1314 1415 1414
f 1315 1316 1416
f 1315 1416 1415
f 1316 1317 1417
f 1316 1417 1416
f 1317 1318 1418
f 1317 1418 1417
f 1318 1319 1419
f 1318 1419 1418
f 1319 1320 1420
f 1319 1420 1419
f 1320 1321 1421
f 1320 1421 1420
f 1321 1322 1422
f 1321 1422 1421
f 1322 1323 1423
f 1322 1423 1422
f 1323 1324 1424
f 1323 1424 1423
f 1324 1325 1425
f 1324 1425 1424
f 1325 1326 1426
f 1325 1426 1425
f 1326 1327 1427
f 1326 1427 1426
f 1327 1328 1428
f 1327 1428 1427
f 1328 1329 1429
f 1328 1429 1428
f 1329 1330 1430
f 1329 1430 1429
f 1330 1331 1431
f 1330 1431 1430
f 1331 1332 1432
f 1331 1432 1431
f 1332 1333 1433
f 1332 1433 1432
f 1333 1334 1434
f 1333 1434 1433
f 1334 1335 1435
f 1334 1435 1434
f 1335 1336 1436
f 1335 1436 1435
f 1336 1337 1437
f 1336 1437 1436
f 1337 1338 1438
f 1337 1438 1437
f 1338 1339 1439
f 1338 1439 1438
f 1339 1340 1440
f 1339 1440 1439
f 1340 1341 1441
f 1340 1441 1440
f 1341 1342 1442
f 1341 1442 1441
f 1342 1343 1443
f 1342 1443 1442
f 1343 1344 1444
f 1343 1444 1443
f 1344 1345 1445
f 1344 1445 1444
f 1345 1346 1446
f 1345 1446 1445
f 1346 1347 1447
f 1346 1447 1446
f 1347 1348 1448
f 1347 1448 1447
f 1348 1349 1449
f 1348 1449 1448
f 1349 1350 1450
f 1349 1450 1449
f 1350 1351 1451
f 1350 1451 1450
f 1351 1352 1452
f 1351 1452 1451
f 1352 1353 1453
f 1352 1453 1452
f 1353 1354 1454
f 1353 1454 1453
f 1354 1355 1455
f 1354 1455 1454
f 1355 1356 1456
f 1355 1456 1455
f 1356 1357 1457
f 1356 1457 1456
f 1357 1358 1458
f 1357 1458 1457
f 1358 1359 1459
f 1358 1459 1458
f 1359 1360 1460
f 1359 1460 1459
f 1360 1361 1461
f 1360 1461 1460
f 1361 1362 1462
f 1361 1462 1461
f 1362 1363 1463
f 1362 1463 1462
f 1363 1364 1464
f 1363 1464 1463
f 1364 1365 1465
f 1364 1465 1464
f 1365 1366 1466
f 1365 1466 1465
f 1366 1367 1467
f 1366 1467 1466
f 1367 1368 1468
f 1367 1468 1467
f 1368 1369 1469
f 1368 1469 1468
f 1369 1370 1470
f 1369 1470 1469
f 1370 1371 1471
f 1370 1471 1470
f 1371 1372 1472
f 1371 1472 1471
f 1372 1373 1473
f 1372 1473 1472
f 1373 1374 1474
f 1373 1474 1473
f 1374 1375 1475
f 1374 1475 1474
f 1375 1376 1476
f 1375 1476 1475
f 1376 1377 1477
f 1376 1477 1476
f 1377 1378 1478
f 1377 1478 1477
f 1378 1379 1479
f 1378 1479 1478
f 1379 1380 1480
f 1379 1480 1479
f 1380 1381 1481
f 1380 1481 1480
f 1381 1382 1482
f 1381 1482 1481
f 1382 1383 1483
f 1382 1483 1482
f 1383 1384 1484
f 1383 1484 1483
f 1384 1385 1485
f 1384 1485 1484
f 1385 1386 1486
f 1385 1486 1485
f 1386 1387 1487
f 1386 1487 1486
f 1387 1388 1488
f 1387 1488 1487
f 1388 1389 1489
f 1388 1489 1488
f 1389 1390 1490
f 1389 1490 1489
f 1390 1391 1491
f 1390 1491 1490
f 1391 1392 1492
f 1391 1492 1491
f 1392 1393 1493
f 1392 1493 1492
f 1393 1394 1494
f 1393 1494 1493
f 1394 1395 1495
f 1394 1495 1494
f 1395 1396 1496
f 1395 1496 1495
f 1396 1397 1497
f 1396 1497 1496
f 1397 1398 1498
f 1397 1498 1497
f 1398 1399 1499
f 1398 1499 1498
f 1399 1400 1500
f 1399 1500 1499
f 1400 1301 1401
f 1400 1401 1500
f 1401 1402 1502
f 1401 1502 1501
f 1402 1403 1503
f 1402 1503 1502
f 1403 1404 1504
f 1403 1504 1503
f 1404 1405 1505
f 1404 1505 1504
f 1405 1406 1506
f 1405 1506 1505
f 1406 1407 1507
f 1406 1507 1506
f 1407 1408 1508
f 1407 1508 1507
f 1408 1409 1509
f 1408 1509 1508
f 1409 1410 1510
f 1409 1510 1509
f 1410 1411 1511
f 1410 1511 1510
f 1411 1412 1512
f 1411 1512 1511
f 1412 1413 1513
f 1412 1513 1512
f 1413 1414 1514
f 1413 1514 1513
f 1414 1415 1515
f 1414 1515 1514
f 1415 1416 1516
f 1415 1516 1515
f 1416 1417 1517
f 1416 1517 1516
f 1417 1418 1518
f 1417 1518 1517
f 1418 1419 1519
f 1418 1519 1518
f 1419 1420 1520
f 1419 1520 1519
f 1420 1421 1521
f 1420 1521 1520
f 1421 1422 1522
f 1421 1522 1521
f 1422 1423 1523
f 1422 1523 1522
f 1423 1424 1524
f 1423 1524 1523
f 1424 1425 1525
f 1424 1525 1524
f 1425 1426 1526
f 1425 1526 1525
f 1426 1427 1527
f 1426 1527 1526
f 1427 1428 1528
f 1427 1528 1527
f 1428 1429 1529
f 1428 1529 1528
f 1429 1430 1530
f 1429 1530 1529
f 1430 1431 1531
f 1430 1531 1530
f 1431 1432 1532
f 1431 1532 1531
f 1432 1433 1533
f 1432 1533 1532
f 1433 1434 1534
f 1433 1534 1533
f 1434 1435 1535
f 1434 1535 1534
f 1435 1436 1536
f 1435 1536 1535
f 1436 1437 1537
f 1436 1537 1536
f 1437 1438 1538
f 1437 1538 1537
f 1438 1439 1539
f 1438 1539 1538
f 1439 1440 1540
f 1439 1540 1539
f 1440 1441 1541
f 1440 1541 1540
f 1441 1442 1542
f 1441 1542 1541
f 1442 1443 1543
f 1442 1543 1542
f 1443 1444 1544
f 1443 1544 1543
f 1444 1445 1545
f 1444 1545 1544
f 1445 1446 1546
f 1445 1546 1545
f 1446 1447 1547
f 1446 1547 1546
f 1447 1448 1548
f 1447 1548 1547
f 1448 1449 1549
f 1448 1549 1548
f 1449 1450 1550
f 1449 1550 1549
f 1450 1451 1551
f 1450 1551 1550
f 1451 1452 1552
f 1451 1552 1551
f 1452 1453 1553
f 1452 1553 1552
f 1453 1454 1554
f 1453 1554 1553
f 1454 1455 1555
f 1454 1555 1554
f 1455 1456 1556
f 1455 1556 1555
f 1456 1457 1557
f 1456 1557 1556
f 1457 1458 1558
f 1457 1558 1557
f 1458 1459 1559
f 1458 1559 1558
f 1459 1460 1560
f 1459 1560 1559
f 1460 1461 1561
f 1460 1561 1560
f 1461 1462 1562
f 1461 1562 1561
f 1462 1463 1563
f 1462 1563 1562
f 1463 1464 1564
f 1463 1564 1563
f 1464 1465 1565
f 1464 1565 1564
f 1465 1466 1566
f 1465 1566 1565
f 1466 1467 1567
f 1466 1567 1566
f 1467 1468 1568
f 1467 1568 1567
f 1468 1469 1569
f 1468 1569 1568
f 1469 1470 1570
f 1469 1570 1569
f 1470 1471 1571
f 1470 1571 1570
f 1471 1472 1572
f 1471 1572 1571
f 1472 1473 1573
f 1472 1573 1572
f 1473 1474 1574
f 1473 1574 1573
f 1474 1475 1575
f 1474 1575 1574
f 1475 1476 1576
f 1475 1576 1575
f 1476 1477 1577
f 1476 1577 1576
f 1477 1478 1578
f 1477 1578 1577
f 1478 1479 1579
f 1478 1579 1578
f 1479 1480 1580
f 1479 1580 1579
f 1480 1481 1581
f 1480 1581 1580
f 1481 1482 1582
f 1481 1582 1581
f 1482 1483 1583
f 1482 1583 1582
f 1483 1484 1584
f 1483 1584 1583
f 1484 1485 1585
f 1484 1585 1584
f 1485 1486 1586
f 1485 1586 1585
f 1486 1487 1587
f 1486 1587 1586
f 1487 1488 1588
f 1487 1588 1587
f 1488 1489 1589
f 1488 1589 1588
f 1489 1490 1590
f 1489 1590 1589
f 1490 1491 1591
f 1490 1591 1590
f 1491 1492 1592
f 1491 1592 1591
f 1492 1493 1593
f 1492 1593 1592
f 1493 1494 1594
f 1493 1594 1593
f 1494 1495 1595
f 1494 1595 1594
f 1495 1496 1596
f 1495 1596 1595
f 1496 1497 1597
f 1496 1597 1596
f 1497 1498 1598
f 1497 1598 1597
f 1498 1499 1599
f 1498 1599 1598
f 1499 1500 1600
f 1499 1600 1599
f 1500 1401 1501
f 1500 1501 1600
f 1501 1502 2
f 1501 2 1
f 1502 1503 3
f 1502 3 2
f 1503 1504 4
f 1503 4 3
f 1504 1505 5
f 1504 5 4
f 1505 1506 6
f 1505 6 5
f 1506 1507 7
f 1506 7 6
f 1507 1508 8
f 1507 8 7
f 1508 1509 9
f 1508 9 8
f 1509 1510 10
f 1509 10 9
f 1510 1511 11
f 1510 11 10
f 1511 1512 12
f 1511 12 11
f 1512 1513 13
f 1512 13 12
f 1513 1514 14
f 1513 14 13
f 1514 1515 15
f 1514 15 14
f 1515 1516 16
f 1515 16 15
f 1516 1517 17
f 1516 17 16
f 1517 1518 18
f 1517 18 17
f 1518 1519 19
f 1518 19 18
f 1519 1520 20
f 1519 20 19
f 1520 1521 21
f 1520 21 20
f 1521 1522 22
f 1521 22 21
f 1522 1523 23
f 1522 23 22
f 1523 1524 24
f 1523 24 23
f 1524 1525 25
f 1524 25 24
f 1525 1526 26
f 1525 26 25
f 1526 1527 27
f 1526 27 26
f 1527 1528 28
f 1527 28 27
f 1528 1529 29
f 1528 29 28
f 1529 1530 30
f 1529 30 29
f 1530 1531 31
f 1530 31 30
f 1531 1532 32
f 1531 32 31
f 1532 1533 33
f 1532 33 32
f 1533 1534 34
f 1533 34 33
f 1534 1535 35
f 1534 35 34
f 1535 1536 36
f 1535 36 35
f 1536 1537 37
f 1536 37 36
f 1537 1538 38
f 1537 38 37
f 1538 1539 39
f 1538 39 38
f 1539 1540 40
f 1539 40 39
f 1540 1541 41
f 1540 41 40
f 1541 1542 42
f 1541 42 41
f 1542 1543 43
f 1542 43 42
f 1543 1544 44
f 1543 44 43
f 1544 1545 45
f 1544 45 44
f 1545 1546 46
f 1545 46 45
f 1546 1547 47
f 1546 47 46
f 1547 1548 48
f 1547 48 47
f 1548 1549 49
f 1548 49 48
f 1549 1550 50
f 1549 50 49
f 1550 1551 51
f 1550 51 50
f 1551 1552 52
f 1551 52 51
f 1552 1553 53
f 1552 53 52
f 1553 1554 54
f 1553 54 53
f 1554 1555 55
f 1554 55 54
f 1555 1556 56
f 1555 56 55
f 1556 1557 57
f 1556 57 56
f 1557 1558 58
f 1557 58 57
f 1558 1559 59
f 1558 59 58
f 1559 1560 60
f 1559 60 59
f 1560 1561 61
f 1560 61 60
f 1561 1562 62
f 1561 62 61
f 1562 1563 63
f 1562 63 62
f 1563 1564 64
f 1563 64 63
f 1564 1565 65
f 1564 65 64
f 1565 1566 66
f 1565 66 65
f 1566 1567 67
f 1566 67 66
f 1567 1568 68
f 1567 68 67
f 1568 1569 69
f 1568 69 68
f 1569 1570 70
f 1569 70 69
f 1570 1571 71
f 1570 71 70
f 1571 1572 72
f 1571 72 71
f 1572 1573 73
f 1572 73 72
f 1573 1574 74
f 1573 74 73
f 1574 1575 75
f 1574 75 74
f 1575 1576 76
f 1575 76 75
f 1576 1577 77
f 1576 77 76
f 1577 1578 78
f 1577 78 77
f 1578 1579 79
f 1578 79 78
f 1579 1580 80
f 1579 80 79
f 1580 1581 81
f 1580 81 80
f 1581 1582 82
f 1581 82 81
f 1582 1583 83
f 1582 83 82
f 1583 1584 84
f 1583 84 83
f 1584 1585 85
f 1584 85 84
f 1585 1586 86
f 1585 86 85
f 1586 1587 87
f 1586 87 86
f 1587 1588 88
f 1587 88 87
f 1588 1589 89
f 1588 89 88
f 1589 1590 90
f 1589 90 89
f 1590 1591 91
f 1590 91 90
f 1591 1592 92
f 1591 92 91
f 1592 1593 93
f 1592 93 92
f 1593 1594 94
f 1593 94 93
f 1594 1595 95
f 1594 95 94
f 1595 1596 96
f 1595 96 95
f 1596 1597 97
f 1596 97 96
f 1597 1598 98
f 1597 98 97
f 1598 1599 99
f 1598 99 98
f 1599 1600 100
f 1599 100 99
f 1600 1501 1
f 1600 1 100
