v 1.250000 60.625340 -10.606602
v 1.250000 30.587863 -10.606602
v 1.450000 60.625340 -10.606602
v 1.450000 30.587863 -10.606602
v 1.391421 60.625340 -10.465180
v 1.391421 30.587863 -10.465180
v 1.250000 60.625340 -10.406602
v 1.250000 30.587863 -10.406602
v 1.108579 60.625340 -10.465180
v 1.108579 30.587863 -10.465180
v 1.050000 60.625340 -10.606602
v 1.050000 30.587863 -10.606602
v 1.108579 60.625340 -10.748023
v 1.108579 30.587863 -10.748023
v 1.250000 60.625340 -10.806602
v 1.250000 30.587863 -10.806602
v 1.391421 60.625340 -10.748023
v 1.391421 30.587863 -10.748023
f 1 3 5
f 2 6 4
f 1 5 7
f 2 8 6
f 1 7 9
f 2 10 8
f 1 9 11
f 2 12 10
f 1 11 13
f 2 14 12
f 1 13 15
f 2 16 14
f 1 15 17
f 2 18 16
f 1 17 3
f 2 4 18
f 3 5 6
f 3 6 4
f 5 7 8
f 5 8 6
f 7 9 10
f 7 10 8
f 9 11 12
f 9 12 10
f 11 13 14
f 11 14 12
f 13 15 16
f 13 16 14
f 15 17 18
f 15 18 16
f 17 3 4
f 17 4 18
