v -1.250000 50.018738 -15.000000
v -1.250000 19.981262 -15.000000
v -1.050000 50.018738 -15.000000
v -1.050000 19.981262 -15.000000
v -1.108579 50.018738 -14.858579
v -1.108579 19.981262 -14.858579
v -1.250000 50.018738 -14.800000
v -1.250000 19.981262 -14.800000
v -1.391421 50.018738 -14.858579
v -1.391421 19.981262 -14.858579
v -1.450000 50.018738 -15.000000
v -1.450000 19.981262 -15.000000
v -1.391421 50.018738 -15.141421
v -1.391421 19.981262 -15.141421
v -1.250000 50.018738 -15.200000
v -1.250000 19.981262 -15.200000
v -1.108579 50.018738 -15.141421
v -1.108579 19.981262 -15.141421
f 1 3 5
f 2 6 4
f 1 5 7
f 2 8 6
f 1 7 9
f 2 10 8
f 1 9 11
f 2 12 10
f 1 11 13
f 2 14 12
f 1 13 15
f 2 16 14
f 1 15 17
f 2 18 16
f 1 17 3
f 2 4 18
f 3 5 6
f 3 6 4
f 5 7 8
f 5 8 6
f 7 9 10
f 7 10 8
f 9 11 12
f 9 12 10
f 11 13 14
f 11 14 12
f 13 15 16
f 13 16 14
f 15 17 18
f 15 18 16
f 17 3 4
f 17 4 18
