v -0.100000 44.980503 -27.716386
v -0.092388 44.980503 -27.678118
v -0.070711 44.980503 -27.645675
v -0.038268 44.980503 -27.623998
v 0.000000 44.980503 -27.616386
v 0.038268 44.980503 -27.623998
v 0.070711 44.980503 -27.645675
v 0.092388 44.980503 -27.678118
v 0.100000 44.980503 -27.716386
v 0.092388 44.980503 -27.754654
v 0.070711 44.980503 -27.787097
v 0.038268 44.980503 -27.808774
v 0.000000 44.980503 -27.816386
v -0.038268 44.980503 -27.808774
v -0.070711 44.980503 -27.787097
v -0.092388 44.980503 -27.754654
v -0.100000 46.480503 -27.716386
v -0.092388 46.480503 -27.678118
v -0.070711 46.480503 -27.645675
v -0.038268 46.480503 -27.623998
v -0.000000 46.480503 -27.616386
v 0.038268 46.480503 -27.623998
v 0.070711 46.480503 -27.645675
v 0.092388 46.480503 -27.678118
v 0.100000 46.480503 -27.716386
v 0.092388 46.480503 -27.754654
v 0.070711 46.480503 -27.787097
v 0.038268 46.480503 -27.808774
v -0.000000 46.480503 -27.816386
v -0.038268 46.480503 -27.808774
v -0.070711 46.480503 -27.787097
v -0.092388 46.480503 -27.754654
v 0.000000 44.980503 -27.716386
v -0.000000 46.480503 -27.716386
f 1 17 18
f 1 18 2
f 33 2 1
f 34 17 18
f 2 18 19
f 2 19 3
f 33 3 2
f 34 18 19
f 3 19 20
f 3 20 4
f 33 4 3
f 34 19 20
f 4 20 21
f 4 21 5
f 33 5 4
f 34 20 21
f 5 21 22
f 5 22 6
f 33 6 5
f 34 21 22
f 6 22 23
f 6 23 7
f 33 7 6
f 34 22 23
f 7 23 24
f 7 24 8
f 33 8 7
f 34 23 24
f 8 24 25
f 8 25 9
f 33 9 8
f 34 24 25
f 9 25 26
f 9 26 10
f 33 10 9
f 34 25 26
f 10 26 27
f 10 27 11
f 33 11 10
f 34 26 27
f 11 27 28
f 11 28 12
f 33 12 11
f 34 27 28
f 12 28 29
f 12 29 13
f 33 13 12
f 34 28 29
f 13 29 30
f 13 30 14
f 33 14 13
f 34 29 30
f 14 30 31
f 14 31 15
f 33 15 14
f 34 30 31
f 15 31 32
f 15 32 16
f 33 16 15
f 34 31 32
f 16 32 17
f 16 17 1
f 33 1 16
f 34 32 17
