o cabin_arm_6
v 0 -1.5 0.10000000149011612
v -0.03826834261417389 -1.5 0.09238795191049576
v -0.0707106813788414 -1.5 0.0707106813788414
v -0.09238795191049576 -1.5 0.03826834261417389
v -0.10000000149011612 -1.5 6.123233849335533e-18
v -0.09238795191049576 -1.5 -0.03826834261417389
v -0.0707106813788414 -1.5 -0.0707106813788414
v -0.03826834261417389 -1.5 -0.09238795191049576
v -1.2246467698671066e-17 -1.5 -0.10000000149011612
v 0.03826834261417389 -1.5 -0.09238795191049576
v 0.0707106813788414 -1.5 -0.0707106813788414
v 0.09238795191049576 -1.5 -0.03826834261417389
v 0.10000000149011612 -1.5 -1.8369702788777518e-17
v 0.09238795191049576 -1.5 0.03826834261417389
v 0.0707106813788414 -1.5 0.0707106813788414
v 0.03826834261417389 -1.5 0.09238795191049576
v 2.4492935397342132e-17 -1.5 0.10000000149011612
v 0 0 0.10000000149011612
v -0.03826834261417389 0 0.09238795191049576
v -0.0707106813788414 0 0.0707106813788414
v -0.09238795191049576 0 0.03826834261417389
v -0.10000000149011612 0 6.123233849335533e-18
v -0.09238795191049576 0 -0.03826834261417389
v -0.0707106813788414 0 -0.0707106813788414
v -0.03826834261417389 0 -0.09238795191049576
v -1.2246467698671066e-17 0 -0.10000000149011612
v 0.03826834261417389 0 -0.09238795191049576
v 0.0707106813788414 0 -0.0707106813788414
v 0.09238795191049576 0 -0.03826834261417389
v 0.10000000149011612 0 -1.8369702788777518e-17
v 0.09238795191049576 0 0.03826834261417389
v 0.0707106813788414 0 0.0707106813788414
v 0.03826834261417389 0 0.09238795191049576
v 2.4492935397342132e-17 0 0.10000000149011612
v 0 -1.5 0
v 0 -1.5 0
v 0 -1.5 0
v 0 -1.5 0
v 0 -1.5 0
v 0 -1.5 0
v 0 -1.5 0
v 0 -1.5 0
v 0 -1.5 0
v 0 -1.5 0
v 0 -1.5 0
v 0 -1.5 0
v 0 -1.5 0
v 0 -1.5 0
v 0 -1.5 0
v 0 -1.5 0
v 0 -1.5 0.10000000149011612
v -0.03826834261417389 -1.5 0.09238795191049576
v -0.0707106813788414 -1.5 0.0707106813788414
v -0.09238795191049576 -1.5 0.03826834261417389
v -0.10000000149011612 -1.5 6.123233849335533e-18
v -0.09238795191049576 -1.5 -0.03826834261417389
v -0.0707106813788414 -1.5 -0.0707106813788414
v -0.03826834261417389 -1.5 -0.09238795191049576
v -1.2246467698671066e-17 -1.5 -0.10000000149011612
v 0.03826834261417389 -1.5 -0.09238795191049576
v 0.0707106813788414 -1.5 -0.0707106813788414
v 0.09238795191049576 -1.5 -0.03826834261417389
v 0.10000000149011612 -1.5 -1.8369702788777518e-17
v 0.09238795191049576 -1.5 0.03826834261417389
v 0.0707106813788414 -1.5 0.0707106813788414
v 0.03826834261417389 -1.5 0.09238795191049576
v 2.4492935397342132e-17 -1.5 0.10000000149011612
v 0 0 0
v 0 0 0
v 0 0 0
v 0 0 0
v 0 0 0
v 0 0 0
v 0 0 0
v 0 0 0
v 0 0 0
v 0 0 0
v 0 0 0
v 0 0 0
v 0 0 0
v 0 0 0
v 0 0 0
v 0 0 0
v 0 0 0.10000000149011612
v -0.03826834261417389 0 0.09238795191049576
v -0.0707106813788414 0 0.0707106813788414
v -0.09238795191049576 0 0.03826834261417389
v -0.10000000149011612 0 6.123233849335533e-18
v -0.09238795191049576 0 -0.03826834261417389
v -0.0707106813788414 0 -0.0707106813788414
v -0.03826834261417389 0 -0.09238795191049576
v -1.2246467698671066e-17 0 -0.10000000149011612
v 0.03826834261417389 0 -0.09238795191049576
v 0.0707106813788414 0 -0.0707106813788414
v 0.09238795191049576 0 -0.03826834261417389
v 0.10000000149011612 0 -1.8369702788777518e-17
v 0.09238795191049576 0 0.03826834261417389
v 0.0707106813788414 0 0.0707106813788414
v 0.03826834261417389 0 0.09238795191049576
v 2.4492935397342132e-17 0 0.10000000149011612
f 1 18 2
f 18 19 2
f 2 19 3
f 19 20 3
f 3 20 4
f 20 21 4
f 4 21 5
f 21 22 5
f 5 22 6
f 22 23 6
f 6 23 7
f 23 24 7
f 7 24 8
f 24 25 8
f 8 25 9
f 25 26 9
f 9 26 10
f 26 27 10
f 10 27 11
f 27 28 11
f 11 28 12
f 28 29 12
f 12 29 13
f 29 30 13
f 13 30 14
f 30 31 14
f 14 31 15
f 31 32 15
f 15 32 16
f 32 33 16
f 16 33 17
f 33 34 17
f 51 52 35
f 52 53 36
f 53 54 37
f 54 55 38
f 55 56 39
f 56 57 40
f 57 58 41
f 58 59 42
f 59 60 43
f 60 61 44
f 61 62 45
f 62 63 46
f 63 64 47
f 64 65 48
f 65 66 49
f 66 67 50
f 85 84 68
f 86 85 69
f 87 86 70
f 88 87 71
f 89 88 72
f 90 89 73
f 91 90 74
f 92 91 75
f 93 92 76
f 94 93 77
f 95 94 78
f 96 95 79
f 97 96 80
f 98 97 81
f 99 98 82
f 100 99 83
o cabin_body_6
v 0 -1.5 1.25
v 0.8838834762573242 -1.5 0.8838834762573242
v 1.25 -1.5 7.654042497785054e-17
v 0.8838834762573242 -1.5 -0.8838834762573242
v 1.5308084995570108e-16 -1.5 -1.25
v -0.8838834762573242 -1.5 -0.8838834762573242
v -1.25 -1.5 -2.296212616986618e-16
v -0.8838834762573242 -1.5 0.8838834762573242
v -3.0616169991140216e-16 -1.5 1.25
v 0 -4 1.25
v 0.8838834762573242 -4 0.8838834762573242
v 1.25 -4 7.654042497785054e-17
v 0.8838834762573242 -4 -0.8838834762573242
v 1.5308084995570108e-16 -4 -1.25
v -0.8838834762573242 -4 -0.8838834762573242
v -1.25 -4 -2.296212616986618e-16
v -0.8838834762573242 -4 0.8838834762573242
v -3.0616169991140216e-16 -4 1.25
v 0 -1.5 0
v 0 -1.5 0
v 0 -1.5 0
v 0 -1.5 0
v 0 -1.5 0
v 0 -1.5 0
v 0 -1.5 0
v 0 -1.5 0
v 0 -1.5 1.25
v 0.8838834762573242 -1.5 0.8838834762573242
v 1.25 -1.5 7.654042497785054e-17
v 0.8838834762573242 -1.5 -0.8838834762573242
v 1.5308084995570108e-16 -1.5 -1.25
v -0.8838834762573242 -1.5 -0.8838834762573242
v -1.25 -1.5 -2.296212616986618e-16
v -0.8838834762573242 -1.5 0.8838834762573242
v -3.0616169991140216e-16 -1.5 1.25
v 0 -4 0
v 0 -4 0
v 0 -4 0
v 0 -4 0
v 0 -4 0
v 0 -4 0
v 0 -4 0
v 0 -4 0
v 0 -4 1.25
v 0.8838834762573242 -4 0.8838834762573242
v 1.25 -4 7.654042497785054e-17
v 0.8838834762573242 -4 -0.8838834762573242
v 1.5308084995570108e-16 -4 -1.25
v -0.8838834762573242 -4 -0.8838834762573242
v -1.25 -4 -2.296212616986618e-16
v -0.8838834762573242 -4 0.8838834762573242
v -3.0616169991140216e-16 -4 1.25
f 101 110 102
f 110 111 102
f 102 111 103
f 111 112 103
f 103 112 104
f 112 113 104
f 104 113 105
f 113 114 105
f 105 114 106
f 114 115 106
f 106 115 107
f 115 116 107
f 107 116 108
f 116 117 108
f 108 117 109
f 117 118 109
f 127 128 119
f 128 129 120
f 129 130 121
f 130 131 122
f 131 132 123
f 132 133 124
f 133 134 125
f 134 135 126
f 145 144 136
f 146 145 137
f 147 146 138
f 148 147 139
f 149 148 140
f 150 149 141
f 151 150 142
f 152 151 143
o cabin_roof_6
v 0 -1.25 0
v 0 -1.25 0
v 0 -1.25 0
v 0 -1.25 0
v 0 -1.25 0
v 0 -1.25 0
v 0 -1.25 0
v 0 -1.25 0
v 0 -1.25 0
v 0 -1.75 1.375
v 0.9722718000411987 -1.75 0.9722718000411987
v 1.375 -1.75 8.419446615214661e-17
v 0.9722718000411987 -1.75 -0.9722718000411987
v 1.6838893230429323e-16 -1.75 -1.375
v -0.9722718000411987 -1.75 -0.9722718000411987
v -1.375 -1.75 -2.5258339845643984e-16
v -0.9722718000411987 -1.75 0.9722718000411987
v -3.3677786460858646e-16 -1.75 1.375
v 0 -1.75 0
v 0 -1.75 0
v 0 -1.75 0
v 0 -1.75 0
v 0 -1.75 0
v 0 -1.75 0
v 0 -1.75 0
v 0 -1.75 0
v 0 -1.75 1.375
v 0.9722718000411987 -1.75 0.9722718000411987
v 1.375 -1.75 8.419446615214661e-17
v 0.9722718000411987 -1.75 -0.9722718000411987
v 1.6838893230429323e-16 -1.75 -1.375
v -0.9722718000411987 -1.75 -0.9722718000411987
v -1.375 -1.75 -2.5258339845643984e-16
v -0.9722718000411987 -1.75 0.9722718000411987
v -3.3677786460858646e-16 -1.75 1.375
f 162 163 154
f 163 164 155
f 164 165 156
f 165 166 157
f 166 167 158
f 167 168 159
f 168 169 160
f 169 170 161
f 180 179 171
f 181 180 172
f 182 181 173
f 183 182 174
f 184 183 175
f 185 184 176
f 186 185 177
f 187 186 178
o cabin_floor_6
v 0 -3.950000047683716 1.25
v 0.8838834762573242 -3.950000047683716 0.8838834762573242
v 1.25 -3.950000047683716 7.654042497785054e-17
v 0.8838834762573242 -3.950000047683716 -0.8838834762573242
v 1.5308084995570108e-16 -3.950000047683716 -1.25
v -0.8838834762573242 -3.950000047683716 -0.8838834762573242
v -1.25 -3.950000047683716 -2.296212616986618e-16
v -0.8838834762573242 -3.950000047683716 0.8838834762573242
v -3.0616169991140216e-16 -3.950000047683716 1.25
v 0 -4.050000190734863 1.25
v 0.8838834762573242 -4.050000190734863 0.8838834762573242
v 1.25 -4.050000190734863 7.654042497785054e-17
v 0.8838834762573242 -4.050000190734863 -0.8838834762573242
v 1.5308084995570108e-16 -4.050000190734863 -1.25
v -0.8838834762573242 -4.050000190734863 -0.8838834762573242
v -1.25 -4.050000190734863 -2.296212616986618e-16
v -0.8838834762573242 -4.050000190734863 0.8838834762573242
v -3.0616169991140216e-16 -4.050000190734863 1.25
v 0 -3.950000047683716 0
v 0 -3.950000047683716 0
v 0 -3.950000047683716 0
v 0 -3.950000047683716 0
v 0 -3.950000047683716 0
v 0 -3.950000047683716 0
v 0 -3.950000047683716 0
v 0 -3.950000047683716 0
v 0 -3.950000047683716 1.25
v 0.8838834762573242 -3.950000047683716 0.8838834762573242
v 1.25 -3.950000047683716 7.654042497785054e-17
v 0.8838834762573242 -3.950000047683716 -0.8838834762573242
v 1.5308084995570108e-16 -3.950000047683716 -1.25
v -0.8838834762573242 -3.950000047683716 -0.8838834762573242
v -1.25 -3.950000047683716 -2.296212616986618e-16
v -0.8838834762573242 -3.950000047683716 0.8838834762573242
v -3.0616169991140216e-16 -3.950000047683716 1.25
v 0 -4.050000190734863 0
v 0 -4.050000190734863 0
v 0 -4.050000190734863 0
v 0 -4.050000190734863 0
v 0 -4.050000190734863 0
v 0 -4.050000190734863 0
v 0 -4.050000190734863 0
v 0 -4.050000190734863 0
v 0 -4.050000190734863 1.25
v 0.8838834762573242 -4.050000190734863 0.8838834762573242
v 1.25 -4.050000190734863 7.654042497785054e-17
v 0.8838834762573242 -4.050000190734863 -0.8838834762573242
v 1.5308084995570108e-16 -4.050000190734863 -1.25
v -0.8838834762573242 -4.050000190734863 -0.8838834762573242
v -1.25 -4.050000190734863 -2.296212616986618e-16
v -0.8838834762573242 -4.050000190734863 0.8838834762573242
v -3.0616169991140216e-16 -4.050000190734863 1.25
f 188 197 189
f 197 198 189
f 189 198 190
f 198 199 190
f 190 199 191
f 199 200 191
f 191 200 192
f 200 201 192
f 192 201 193
f 201 202 193
f 193 202 194
f 202 203 194
f 194 203 195
f 203 204 195
f 195 204 196
f 204 205 196
f 214 215 206
f 215 216 207
f 216 217 208
f 217 218 209
f 218 219 210
f 219 220 211
f 220 221 212
f 221 222 213
f 232 231 223
f 233 232 224
f 234 233 225
f 235 234 226
f 236 235 227
f 237 236 228
f 238 237 229
f 239 238 230
