# Object: spoke_back_7
o spoke_back_7
v -1.000656008720398 64.38455963134766 6.048870086669922
v -0.9241123199462891 64.38497924804688 6.033687114715576
v -0.8591217994689941 64.39127349853516 5.990952014923096
v -0.8155786991119385 64.40248107910156 5.927170753479004
v -0.8001120686531067 64.4168930053711 5.852053642272949
v -0.8150765895843506 64.43232727050781 5.777036190032959
v -0.8581939935684204 64.44641876220703 5.7135396003723145
v -0.9229000806808472 64.45703887939453 5.671230316162109
v -0.9993439316749573 64.46255493164062 5.656549453735352
v -1.075887680053711 64.4621353149414 5.671732425689697
v -1.1408782005310059 64.45584106445312 5.714467525482178
v -1.1844213008880615 64.44464111328125 5.7782487869262695
v -1.1998878717422485 64.43022155761719 5.853365898132324
v -1.1849234104156494 64.414794921875 5.9283833503723145
v -1.1418060064315796 64.40069580078125 5.991879940032959
v -1.0770999193191528 64.39008331298828 6.034189224243164
v -1.000656008720398 64.38455963134766 6.048870086669922
v -2.0006561279296875 34.961002349853516 0.1961602121591568
v -1.924112319946289 34.961421966552734 0.18097732961177826
v -1.8591217994689941 34.96771240234375 0.13824230432510376
v -1.8155786991119385 34.978919982910156 0.07446110993623734
v -1.8001121282577515 34.99333572387695 -0.0006561153568327427
v -1.8150765895843506 35.008766174316406 -0.07567346096038818
v -1.8581939935684204 35.02286148071289 -0.13917021453380585
v -1.9229000806808472 35.033477783203125 -0.1814795732498169
v -1.999343991279602 35.038997650146484 -0.19616031646728516
v -2.075887680053711 35.038578033447266 -0.1809774488210678
v -2.140878200531006 35.03228759765625 -0.13824240863323212
v -2.1844213008880615 35.021080017089844 -0.07446121424436569
v -2.199887990951538 35.00666427612305 0.0006560065085068345
v -2.1849234104156494 34.991233825683594 0.07567334920167923
v -2.141806125640869 34.977134704589844 0.1391701102256775
v -2.0770998001098633 34.966522216796875 0.18147945404052734
v -2.0006561279296875 34.961002349853516 0.1961602121591568
v -1 64.4235610961914 5.852709770202637
v -1 64.4235610961914 5.852709770202637
v -1 64.4235610961914 5.852709770202637
v -1 64.4235610961914 5.852709770202637
v -1 64.4235610961914 5.852709770202637
v -1 64.4235610961914 5.852709770202637
v -1 64.4235610961914 5.852709770202637
v -1 64.4235610961914 5.852709770202637
v -1 64.4235610961914 5.852709770202637
v -1 64.4235610961914 5.852709770202637
v -1 64.4235610961914 5.852709770202637
v -1 64.4235610961914 5.852709770202637
v -1 64.4235610961914 5.852709770202637
v -1 64.4235610961914 5.852709770202637
v -1 64.4235610961914 5.852709770202637
v -1 64.4235610961914 5.852709770202637
v -1.000656008720398 64.38455963134766 6.048870086669922
v -0.9241123199462891 64.38497924804688 6.033687114715576
v -0.8591217994689941 64.39127349853516 5.990952014923096
v -0.8155786991119385 64.40248107910156 5.927170753479004
v -0.8001120686531067 64.4168930053711 5.852053642272949
v -0.8150765895843506 64.43232727050781 5.777036190032959
v -0.8581939935684204 64.44641876220703 5.7135396003723145
v -0.9229000806808472 64.45703887939453 5.671230316162109
v -0.9993439316749573 64.46255493164062 5.656549453735352
v -1.075887680053711 64.4621353149414 5.671732425689697
v -1.1408782005310059 64.45584106445312 5.714467525482178
v -1.1844213008880615 64.44464111328125 5.7782487869262695
v -1.1998878717422485 64.43022155761719 5.853365898132324
v -1.1849234104156494 64.414794921875 5.9283833503723145
v -1.1418060064315796 64.40069580078125 5.991879940032959
v -1.0770999193191528 64.39008331298828 6.034189224243164
v -1.000656008720398 64.38455963134766 6.048870086669922
v -2 35 -5.4404761584692096e-8
v -2 35 -5.4404761584692096e-8
v -2 35 -5.4404761584692096e-8
v -2 35 -5.4404761584692096e-8
v -2 35 -5.4404761584692096e-8
v -2 35 -5.4404761584692096e-8
v -2 35 -5.4404761584692096e-8
v -2 35 -5.4404761584692096e-8
v -2 35 -5.4404761584692096e-8
v -2 35 -5.4404761584692096e-8
v -2 35 -5.4404761584692096e-8
v -2 35 -5.4404761584692096e-8
v -2 35 -5.4404761584692096e-8
v -2 35 -5.4404761584692096e-8
v -2 35 -5.4404761584692096e-8
v -2 35 -5.4404761584692096e-8
v -2.0006561279296875 34.961002349853516 0.1961602121591568
v -1.924112319946289 34.961421966552734 0.18097732961177826
v -1.8591217994689941 34.96771240234375 0.13824230432510376
v -1.8155786991119385 34.978919982910156 0.07446110993623734
v -1.8001121282577515 34.99333572387695 -0.0006561153568327427
v -1.8150765895843506 35.008766174316406 -0.07567346096038818
v -1.8581939935684204 35.02286148071289 -0.13917021453380585
v -1.9229000806808472 35.033477783203125 -0.1814795732498169
v -1.999343991279602 35.038997650146484 -0.19616031646728516
v -2.075887680053711 35.038578033447266 -0.1809774488210678
v -2.140878200531006 35.03228759765625 -0.13824240863323212
v -2.1844213008880615 35.021080017089844 -0.07446121424436569
v -2.199887990951538 35.00666427612305 0.0006560065085068345
v -2.1849234104156494 34.991233825683594 0.07567334920167923
v -2.141806125640869 34.977134704589844 0.1391701102256775
v -2.0770998001098633 34.966522216796875 0.18147945404052734
v -2.0006561279296875 34.961002349853516 0.1961602121591568
vn -0.003280304605141282 -0.19498202204704285 0.9808013439178467
vn 0.3794383406639099 -0.19288894534111023 0.9048869609832764
vn 0.7043909430503845 -0.1614302545785904 0.6912117600440979
vn 0.9221063852310181 -0.10539527982473373 0.37230581045150757
vn 0.999439537525177 -0.03331483155488968 -0.003280304605141282
vn 0.9246170520782471 0.04383750259876251 -0.37836703658103943
vn 0.7090299725532532 0.11431597173213959 -0.6958507895469666
vn 0.3854995667934418 0.1673908680677414 -0.9073975682258606
vn 0.003280304605141282 0.19498202204704285 -0.9808013439178467
vn -0.3794383406639099 0.19288894534111023 -0.9048869609832764
vn -0.7043909430503845 0.1614302545785904 -0.6912117600440979
vn -0.9221063852310181 0.10539527982473373 -0.37230581045150757
vn -0.999439537525177 0.03331483155488968 0.003280304605141282
vn -0.9246170520782471 -0.04383750259876251 0.37836703658103943
vn -0.7090299725532532 -0.11431597173213959 0.6958507895469666
vn -0.3854995667934418 -0.1673908680677414 0.9073975682258606
vn -0.003280304605141282 -0.19498202204704285 0.9808013439178467
vn -0.003280304605141282 -0.19498202204704285 0.9808013439178467
vn 0.3794383406639099 -0.19288894534111023 0.9048869609832764
vn 0.7043909430503845 -0.1614302545785904 0.6912117600440979
vn 0.9221063852310181 -0.10539527982473373 0.37230581045150757
vn 0.999439537525177 -0.03331483155488968 -0.003280304605141282
vn 0.9246170520782471 0.04383750259876251 -0.37836703658103943
vn 0.7090299725532532 0.11431597173213959 -0.6958507895469666
vn 0.3854995667934418 0.1673908680677414 -0.9073975682258606
vn 0.003280304605141282 0.19498202204704285 -0.9808013439178467
vn -0.3794383406639099 0.19288894534111023 -0.9048869609832764
vn -0.7043909430503845 0.1614302545785904 -0.6912117600440979
vn -0.9221063852310181 0.10539527982473373 -0.37230581045150757
vn -0.999439537525177 0.03331483155488968 0.003280304605141282
vn -0.9246170520782471 -0.04383750259876251 0.37836703658103943
vn -0.7090299725532532 -0.11431597173213959 0.6958507895469666
vn -0.3854995667934418 -0.1673908680677414 0.9073975682258606
vn -0.003280304605141282 -0.19498202204704285 0.9808013439178467
vn 0.03331483155488968 0.9802408814430237 0.19498202204704285
vn 0.03331483155488968 0.9802408814430237 0.19498202204704285
vn 0.03331483155488968 0.9802408814430237 0.19498202204704285
vn 0.03331483155488968 0.9802408814430237 0.19498202204704285
vn 0.03331483155488968 0.9802408814430237 0.19498202204704285
vn 0.03331483155488968 0.9802408814430237 0.19498202204704285
vn 0.03331483155488968 0.9802408814430237 0.19498202204704285
vn 0.03331483155488968 0.9802408814430237 0.19498202204704285
vn 0.03331483155488968 0.9802408814430237 0.19498202204704285
vn 0.03331483155488968 0.9802408814430237 0.19498202204704285
vn 0.03331483155488968 0.9802408814430237 0.19498202204704285
vn 0.03331483155488968 0.9802408814430237 0.19498202204704285
vn 0.03331483155488968 0.9802408814430237 0.19498202204704285
vn 0.03331483155488968 0.9802408814430237 0.19498202204704285
vn 0.03331483155488968 0.9802408814430237 0.19498202204704285
vn 0.03331483155488968 0.9802408814430237 0.19498202204704285
vn 0.03331483155488968 0.9802408814430237 0.19498202204704285
vn 0.03331483155488968 0.9802408814430237 0.19498202204704285
vn 0.03331483155488968 0.9802408814430237 0.19498202204704285
vn 0.03331483155488968 0.9802408814430237 0.19498202204704285
vn 0.03331483155488968 0.9802408814430237 0.19498202204704285
vn 0.03331483155488968 0.9802408814430237 0.19498202204704285
vn 0.03331483155488968 0.9802408814430237 0.19498202204704285
vn 0.03331483155488968 0.9802408814430237 0.19498202204704285
vn 0.03331483155488968 0.9802408814430237 0.19498202204704285
vn 0.03331483155488968 0.9802408814430237 0.19498202204704285
vn 0.03331483155488968 0.9802408814430237 0.19498202204704285
vn 0.03331483155488968 0.9802408814430237 0.19498202204704285
vn 0.03331483155488968 0.9802408814430237 0.19498202204704285
vn 0.03331483155488968 0.9802408814430237 0.19498202204704285
vn 0.03331483155488968 0.9802408814430237 0.19498202204704285
vn 0.03331483155488968 0.9802408814430237 0.19498202204704285
vn 0.03331483155488968 0.9802408814430237 0.19498202204704285
vn -0.03331483155488968 -0.9802408814430237 -0.19498202204704285
vn -0.03331483155488968 -0.9802408814430237 -0.19498202204704285
vn -0.03331483155488968 -0.9802408814430237 -0.19498202204704285
vn -0.03331483155488968 -0.9802408814430237 -0.19498202204704285
vn -0.03331483155488968 -0.9802408814430237 -0.19498202204704285
vn -0.03331483155488968 -0.9802408814430237 -0.19498202204704285
vn -0.03331483155488968 -0.9802408814430237 -0.19498202204704285
vn -0.03331483155488968 -0.9802408814430237 -0.19498202204704285
vn -0.03331483155488968 -0.9802408814430237 -0.19498202204704285
vn -0.03331483155488968 -0.9802408814430237 -0.19498202204704285
vn -0.03331483155488968 -0.9802408814430237 -0.19498202204704285
vn -0.03331483155488968 -0.9802408814430237 -0.19498202204704285
vn -0.03331483155488968 -0.9802408814430237 -0.19498202204704285
vn -0.03331483155488968 -0.9802408814430237 -0.19498202204704285
vn -0.03331483155488968 -0.9802408814430237 -0.19498202204704285
vn -0.03331483155488968 -0.9802408814430237 -0.19498202204704285
vn -0.03331483155488968 -0.9802408814430237 -0.19498202204704285
vn -0.03331483155488968 -0.9802408814430237 -0.19498202204704285
vn -0.03331483155488968 -0.9802408814430237 -0.19498202204704285
vn -0.03331483155488968 -0.9802408814430237 -0.19498202204704285
vn -0.03331483155488968 -0.9802408814430237 -0.19498202204704285
vn -0.03331483155488968 -0.9802408814430237 -0.19498202204704285
vn -0.03331483155488968 -0.9802408814430237 -0.19498202204704285
vn -0.03331483155488968 -0.9802408814430237 -0.19498202204704285
vn -0.03331483155488968 -0.9802408814430237 -0.19498202204704285
vn -0.03331483155488968 -0.9802408814430237 -0.19498202204704285
vn -0.03331483155488968 -0.9802408814430237 -0.19498202204704285
vn -0.03331483155488968 -0.9802408814430237 -0.19498202204704285
vn -0.03331483155488968 -0.9802408814430237 -0.19498202204704285
vn -0.03331483155488968 -0.9802408814430237 -0.19498202204704285
vn -0.03331483155488968 -0.9802408814430237 -0.19498202204704285
vn -0.03331483155488968 -0.9802408814430237 -0.19498202204704285
vn -0.03331483155488968 -0.9802408814430237 -0.19498202204704285
vt 0 1
vt 0.0625 1
vt 0.125 1
vt 0.1875 1
vt 0.25 1
vt 0.3125 1
vt 0.375 1
vt 0.4375 1
vt 0.5 1
vt 0.5625 1
vt 0.625 1
vt 0.6875 1
vt 0.75 1
vt 0.8125 1
vt 0.875 1
vt 0.9375 1
vt 1 1
vt 0 0
vt 0.0625 0
vt 0.125 0
vt 0.1875 0
vt 0.25 0
vt 0.3125 0
vt 0.375 0
vt 0.4375 0
vt 0.5 0
vt 0.5625 0
vt 0.625 0
vt 0.6875 0
vt 0.75 0
vt 0.8125 0
vt 0.875 0
vt 0.9375 0
vt 1 0
vt 0.5 0.5
vt 0.5 0.5
vt 0.5 0.5
vt 0.5 0.5
vt 0.5 0.5
vt 0.5 0.5
vt 0.5 0.5
vt 0.5 0.5
vt 0.5 0.5
vt 0.5 0.5
vt 0.5 0.5
vt 0.5 0.5
vt 0.5 0.5
vt 0.5 0.5
vt 0.5 0.5
vt 0.5 0.5
vt 1 0.5
vt 0.9619397521018982 0.6913416981697083
vt 0.8535534143447876 0.8535534143447876
vt 0.6913416981697083 0.9619397521018982
vt 0.5 1
vt 0.30865827202796936 0.9619397521018982
vt 0.1464466154575348 0.8535534143447876
vt 0.03806023299694061 0.6913416981697083
vt 0 0.5
vt 0.03806023299694061 0.30865827202796936
vt 0.1464466154575348 0.1464466154575348
vt 0.30865827202796936 0.03806023299694061
vt 0.5 0
vt 0.6913416981697083 0.03806023299694061
vt 0.8535534143447876 0.1464466154575348
vt 0.9619397521018982 0.30865827202796936
vt 1 0.5
vt 0.5 0.5
vt 0.5 0.5
vt 0.5 0.5
vt 0.5 0.5
vt 0.5 0.5
vt 0.5 0.5
vt 0.5 0.5
vt 0.5 0.5
vt 0.5 0.5
vt 0.5 0.5
vt 0.5 0.5
vt 0.5 0.5
vt 0.5 0.5
vt 0.5 0.5
vt 0.5 0.5
vt 0.5 0.5
vt 1 0.5
vt 0.9619397521018982 0.30865827202796936
vt 0.8535534143447876 0.1464466154575348
vt 0.6913416981697083 0.03806023299694061
vt 0.5 0
vt 0.30865827202796936 0.03806023299694061
vt 0.1464466154575348 0.1464466154575348
vt 0.03806023299694061 0.30865827202796936
vt 0 0.5
vt 0.03806023299694061 0.6913416981697083
vt 0.1464466154575348 0.8535534143447876
vt 0.30865827202796936 0.9619397521018982
vt 0.5 1
vt 0.6913416981697083 0.9619397521018982
vt 0.8535534143447876 0.8535534143447876
vt 0.9619397521018982 0.6913416981697083
vt 1 0.5
f 1//1 18//18 2//2
f 18//18 19//19 2//2
f 2//2 19//19 3//3
f 19//19 20//20 3//3
f 3//3 20//20 4//4
f 20//20 21//21 4//4
f 4//4 21//21 5//5
f 21//21 22//22 5//5
f 5//5 22//22 6//6
f 22//22 23//23 6//6
f 6//6 23//23 7//7
f 23//23 24//24 7//7
f 7//7 24//24 8//8
f 24//24 25//25 8//8
f 8//8 25//25 9//9
f 25//25 26//26 9//9
f 9//9 26//26 10//10
f 26//26 27//27 10//10
f 10//10 27//27 11//11
f 27//27 28//28 11//11
f 11//11 28//28 12//12
f 28//28 29//29 12//12
f 12//12 29//29 13//13
f 29//29 30//30 13//13
f 13//13 30//30 14//14
f 30//30 31//31 14//14
f 14//14 31//31 15//15
f 31//31 32//32 15//15
f 15//15 32//32 16//16
f 32//32 33//33 16//16
f 16//16 33//33 17//17
f 33//33 34//34 17//17
f 51//51 52//52 35//35
f 52//52 53//53 36//36
f 53//53 54//54 37//37
f 54//54 55//55 38//38
f 55//55 56//56 39//39
f 56//56 57//57 40//40
f 57//57 58//58 41//41
f 58//58 59//59 42//42
f 59//59 60//60 43//43
f 60//60 61//61 44//44
f 61//61 62//62 45//45
f 62//62 63//63 46//46
f 63//63 64//64 47//47
f 64//64 65//65 48//48
f 65//65 66//66 49//49
f 66//66 67//67 50//50
f 85//85 84//84 68//68
f 86//86 85//85 69//69
f 87//87 86//86 70//70
f 88//88 87//87 71//71
f 89//89 88//88 72//72
f 90//90 89//89 73//73
f 91//91 90//90 74//74
f 92//92 91//91 75//75
f 93//93 92//92 76//76
f 94//94 93//93 77//77
f 95//95 94//94 78//78
f 96//96 95//95 79//79
f 97//97 96//96 80//80
f 98//98 97//97 81//81
f 99//99 98//98 82//82
f 100//100 99//99 83//83
