# Object: spoke_back_6
o spoke_back_6
v -1.001325011253357 62.639892578125 11.665291786193848
v -0.9247315526008606 62.643165588378906 11.650718688964844
v -0.8595971465110779 62.65758514404297 11.610231399536133
v -0.8158377408981323 62.68095779418945 11.549994468688965
v -0.8001154065132141 62.70972442626953 11.479178428649902
v -0.8148236870765686 62.739501953125 11.408563613891602
v -0.8577233552932739 62.76576614379883 11.34890079498291
v -0.9222833514213562 62.784507751464844 11.309273719787598
v -0.9986750483512878 62.79288101196289 11.295714378356934
v -1.0752683877944946 62.789608001708984 11.310287475585938
v -1.140402913093567 62.77518844604492 11.350774765014648
v -1.1841622591018677 62.75181579589844 11.411011695861816
v -1.1998845338821411 62.72304916381836 11.481827735900879
v -1.1851762533187866 62.693267822265625 11.55244255065918
v -1.142276644706726 62.66700744628906 11.612105369567871
v -1.077716588973999 62.64826583862305 11.651732444763184
v -1.001325011253357 62.639892578125 11.665291786193848
v -2.0013248920440674 34.92350387573242 0.18478864431381226
v -1.9247316122055054 34.92677688598633 0.1702153980731964
v -1.859597086906433 34.941200256347656 0.12972839176654816
v -1.8158377408981323 34.964569091796875 0.06949137896299362
v -1.8001154661178589 34.99333572387695 -0.0013250706251710653
v -1.8148237466812134 35.02311706542969 -0.07193980365991592
v -1.857723355293274 35.04937744140625 -0.13160237669944763
v -1.922283411026001 35.06812286376953 -0.17122969031333923
v -1.998674988746643 35.07649230957031 -0.18478885293006897
v -2.075268507003784 35.073219299316406 -0.17021560668945312
v -2.1404027938842773 35.058799743652344 -0.12972860038280487
v -2.184162139892578 35.03542709350586 -0.06949158757925034
v -2.1998846530914307 35.00666427612305 0.0013248571194708347
v -2.185176372528076 34.97688293457031 0.07193959504365921
v -2.1422767639160156 34.95062255859375 0.13160216808319092
v -2.077716588973999 34.93187713623047 0.17122948169708252
v -2.0013248920440674 34.92350387573242 0.18478864431381226
v -1 62.71638488769531 11.48050308227539
v -1 62.71638488769531 11.48050308227539
v -1 62.71638488769531 11.48050308227539
v -1 62.71638488769531 11.48050308227539
v -1 62.71638488769531 11.48050308227539
v -1 62.71638488769531 11.48050308227539
v -1 62.71638488769531 11.48050308227539
v -1 62.71638488769531 11.48050308227539
v -1 62.71638488769531 11.48050308227539
v -1 62.71638488769531 11.48050308227539
v -1 62.71638488769531 11.48050308227539
v -1 62.71638488769531 11.48050308227539
v -1 62.71638488769531 11.48050308227539
v -1 62.71638488769531 11.48050308227539
v -1 62.71638488769531 11.48050308227539
v -1 62.71638488769531 11.48050308227539
v -1.001325011253357 62.639892578125 11.665291786193848
v -0.9247315526008606 62.643165588378906 11.650718688964844
v -0.8595971465110779 62.65758514404297 11.610231399536133
v -0.8158377408981323 62.68095779418945 11.549994468688965
v -0.8001154065132141 62.70972442626953 11.479178428649902
v -0.8148236870765686 62.739501953125 11.408563613891602
v -0.8577233552932739 62.76576614379883 11.34890079498291
v -0.9222833514213562 62.784507751464844 11.309273719787598
v -0.9986750483512878 62.79288101196289 11.295714378356934
v -1.0752683877944946 62.789608001708984 11.310287475585938
v -1.140402913093567 62.77518844604492 11.350774765014648
v -1.1841622591018677 62.75181579589844 11.411011695861816
v -1.1998845338821411 62.72304916381836 11.481827735900879
v -1.1851762533187866 62.693267822265625 11.55244255065918
v -1.142276644706726 62.66700744628906 11.612105369567871
v -1.077716588973999 62.64826583862305 11.651732444763184
v -1.001325011253357 62.639892578125 11.665291786193848
v -2 35 -1.0671877248569217e-7
v -2 35 -1.0671877248569217e-7
v -2 35 -1.0671877248569217e-7
v -2 35 -1.0671877248569217e-7
v -2 35 -1.0671877248569217e-7
v -2 35 -1.0671877248569217e-7
v -2 35 -1.0671877248569217e-7
v -2 35 -1.0671877248569217e-7
v -2 35 -1.0671877248569217e-7
v -2 35 -1.0671877248569217e-7
v -2 35 -1.0671877248569217e-7
v -2 35 -1.0671877248569217e-7
v -2 35 -1.0671877248569217e-7
v -2 35 -1.0671877248569217e-7
v -2 35 -1.0671877248569217e-7
v -2 35 -1.0671877248569217e-7
v -2.0013248920440674 34.92350387573242 0.18478864431381226
v -1.9247316122055054 34.92677688598633 0.1702153980731964
v -1.859597086906433 34.941200256347656 0.12972839176654816
v -1.8158377408981323 34.964569091796875 0.06949137896299362
v -1.8001154661178589 34.99333572387695 -0.0013250706251710653
v -1.8148237466812134 35.02311706542969 -0.07193980365991592
v -1.857723355293274 35.04937744140625 -0.13160237669944763
v -1.922283411026001 35.06812286376953 -0.17122969031333923
v -1.998674988746643 35.07649230957031 -0.18478885293006897
v -2.075268507003784 35.073219299316406 -0.17021560668945312
v -2.1404027938842773 35.058799743652344 -0.12972860038280487
v -2.184162139892578 35.03542709350586 -0.06949158757925034
v -2.1998846530914307 35.00666427612305 0.0013248571194708347
v -2.185176372528076 34.97688293457031 0.07193959504365921
v -2.1422767639160156 34.95062255859375 0.13160216808319092
v -2.077716588973999 34.93187713623047 0.17122948169708252
v -2.0013248920440674 34.92350387573242 0.18478864431381226
vn -0.006624819245189428 -0.3824709951877594 0.9239437580108643
vn 0.3763420879840851 -0.36610618233680725 0.8510774970054626
vn 0.7020142674446106 -0.29400497674942017 0.6486424207687378
vn 0.9208111763000488 -0.17714421451091766 0.3474574387073517
vn 0.9994229674339294 -0.03331483155488968 -0.006624819245189428
vn 0.9258816242218018 0.11558642983436584 -0.35969850420951843
vn 0.7113832235336304 0.24689069390296936 -0.6580113172531128
vn 0.38858315348625183 0.3406080901622772 -0.8561479449272156
vn 0.006624819245189428 0.3824709951877594 -0.9239437580108643
vn -0.3763420879840851 0.36610618233680725 -0.8510774970054626
vn -0.7020142674446106 0.29400497674942017 -0.6486424207687378
vn -0.9208111763000488 0.17714421451091766 -0.3474574387073517
vn -0.9994229674339294 0.03331483155488968 0.006624819245189428
vn -0.9258816242218018 -0.11558642983436584 0.35969850420951843
vn -0.7113832235336304 -0.24689069390296936 0.6580113172531128
vn -0.38858315348625183 -0.3406080901622772 0.8561479449272156
vn -0.006624819245189428 -0.3824709951877594 0.9239437580108643
vn -0.006624819245189428 -0.3824709951877594 0.9239437580108643
vn 0.3763420879840851 -0.36610618233680725 0.8510774970054626
vn 0.7020142674446106 -0.29400497674942017 0.6486424207687378
vn 0.9208111763000488 -0.17714421451091766 0.3474574387073517
vn 0.9994229674339294 -0.03331483155488968 -0.006624819245189428
vn 0.9258816242218018 0.11558642983436584 -0.35969850420951843
vn 0.7113832235336304 0.24689069390296936 -0.6580113172531128
vn 0.38858315348625183 0.3406080901622772 -0.8561479449272156
vn 0.006624819245189428 0.3824709951877594 -0.9239437580108643
vn -0.3763420879840851 0.36610618233680725 -0.8510774970054626
vn -0.7020142674446106 0.29400497674942017 -0.6486424207687378
vn -0.9208111763000488 0.17714421451091766 -0.3474574387073517
vn -0.9994229674339294 0.03331483155488968 0.006624819245189428
vn -0.9258816242218018 -0.11558642983436584 0.35969850420951843
vn -0.7113832235336304 -0.24689069390296936 0.6580113172531128
vn -0.38858315348625183 -0.3406080901622772 0.8561479449272156
vn -0.006624819245189428 -0.3824709951877594 0.9239437580108643
vn 0.03331483155488968 0.9233666658401489 0.3824709951877594
vn 0.03331483155488968 0.9233666658401489 0.3824709951877594
vn 0.03331483155488968 0.9233666658401489 0.3824709951877594
vn 0.03331483155488968 0.9233666658401489 0.3824709951877594
vn 0.03331483155488968 0.9233666658401489 0.3824709951877594
vn 0.03331483155488968 0.9233666658401489 0.3824709951877594
vn 0.03331483155488968 0.9233666658401489 0.3824709951877594
vn 0.03331483155488968 0.9233666658401489 0.3824709951877594
vn 0.03331483155488968 0.9233666658401489 0.3824709951877594
vn 0.03331483155488968 0.9233666658401489 0.3824709951877594
vn 0.03331483155488968 0.9233666658401489 0.3824709951877594
vn 0.03331483155488968 0.9233666658401489 0.3824709951877594
vn 0.03331483155488968 0.9233666658401489 0.3824709951877594
vn 0.03331483155488968 0.9233666658401489 0.3824709951877594
vn 0.03331483155488968 0.9233666658401489 0.3824709951877594
vn 0.03331483155488968 0.9233666658401489 0.3824709951877594
vn 0.03331483155488968 0.9233666658401489 0.3824709951877594
vn 0.03331483155488968 0.9233666658401489 0.3824709951877594
vn 0.03331483155488968 0.9233666658401489 0.3824709951877594
vn 0.03331483155488968 0.9233666658401489 0.3824709951877594
vn 0.03331483155488968 0.9233666658401489 0.3824709951877594
vn 0.03331483155488968 0.9233666658401489 0.3824709951877594
vn 0.03331483155488968 0.9233666658401489 0.3824709951877594
vn 0.03331483155488968 0.9233666658401489 0.3824709951877594
vn 0.03331483155488968 0.9233666658401489 0.3824709951877594
vn 0.03331483155488968 0.9233666658401489 0.3824709951877594
vn 0.03331483155488968 0.9233666658401489 0.3824709951877594
vn 0.03331483155488968 0.9233666658401489 0.3824709951877594
vn 0.03331483155488968 0.9233666658401489 0.3824709951877594
vn 0.03331483155488968 0.9233666658401489 0.3824709951877594
vn 0.03331483155488968 0.9233666658401489 0.3824709951877594
vn 0.03331483155488968 0.9233666658401489 0.3824709951877594
vn 0.03331483155488968 0.9233666658401489 0.3824709951877594
vn -0.03331483155488968 -0.9233666658401489 -0.3824709951877594
vn -0.03331483155488968 -0.9233666658401489 -0.3824709951877594
vn -0.03331483155488968 -0.9233666658401489 -0.3824709951877594
vn -0.03331483155488968 -0.9233666658401489 -0.3824709951877594
vn -0.03331483155488968 -0.9233666658401489 -0.3824709951877594
vn -0.03331483155488968 -0.9233666658401489 -0.3824709951877594
vn -0.03331483155488968 -0.9233666658401489 -0.3824709951877594
vn -0.03331483155488968 -0.9233666658401489 -0.3824709951877594
vn -0.03331483155488968 -0.9233666658401489 -0.3824709951877594
vn -0.03331483155488968 -0.9233666658401489 -0.3824709951877594
vn -0.03331483155488968 -0.9233666658401489 -0.3824709951877594
vn -0.03331483155488968 -0.9233666658401489 -0.3824709951877594
vn -0.03331483155488968 -0.9233666658401489 -0.3824709951877594
vn -0.03331483155488968 -0.9233666658401489 -0.3824709951877594
vn -0.03331483155488968 -0.9233666658401489 -0.3824709951877594
vn -0.03331483155488968 -0.9233666658401489 -0.3824709951877594
vn -0.03331483155488968 -0.9233666658401489 -0.3824709951877594
vn -0.03331483155488968 -0.9233666658401489 -0.3824709951877594
vn -0.03331483155488968 -0.9233666658401489 -0.3824709951877594
vn -0.03331483155488968 -0.9233666658401489 -0.3824709951877594
vn -0.03331483155488968 -0.9233666658401489 -0.3824709951877594
vn -0.03331483155488968 -0.9233666658401489 -0.3824709951877594
vn -0.03331483155488968 -0.9233666658401489 -0.3824709951877594
vn -0.03331483155488968 -0.9233666658401489 -0.3824709951877594
vn -0.03331483155488968 -0.9233666658401489 -0.3824709951877594
vn -0.03331483155488968 -0.9233666658401489 -0.3824709951877594
vn -0.03331483155488968 -0.9233666658401489 -0.3824709951877594
vn -0.03331483155488968 -0.9233666658401489 -0.3824709951877594
vn -0.03331483155488968 -0.9233666658401489 -0.3824709951877594
vn -0.03331483155488968 -0.9233666658401489 -0.3824709951877594
vn -0.03331483155488968 -0.9233666658401489 -0.3824709951877594
vn -0.03331483155488968 -0.9233666658401489 -0.3824709951877594
vn -0.03331483155488968 -0.9233666658401489 -0.3824709951877594
vt 0 1
vt 0.0625 1
vt 0.125 1
vt 0.1875 1
vt 0.25 1
vt 0.3125 1
vt 0.375 1
vt 0.4375 1
vt 0.5 1
vt 0.5625 1
vt 0.625 1
vt 0.6875 1
vt 0.75 1
vt 0.8125 1
vt 0.875 1
vt 0.9375 1
vt 1 1
vt 0 0
vt 0.0625 0
vt 0.125 0
vt 0.1875 0
vt 0.25 0
vt 0.3125 0
vt 0.375 0
vt 0.4375 0
vt 0.5 0
vt 0.5625 0
vt 0.625 0
vt 0.6875 0
vt 0.75 0
vt 0.8125 0
vt 0.875 0
vt 0.9375 0
vt 1 0
vt 0.5 0.5
vt 0.5 0.5
vt 0.5 0.5
vt 0.5 0.5
vt 0.5 0.5
vt 0.5 0.5
vt 0.5 0.5
vt 0.5 0.5
vt 0.5 0.5
vt 0.5 0.5
vt 0.5 0.5
vt 0.5 0.5
vt 0.5 0.5
vt 0.5 0.5
vt 0.5 0.5
vt 0.5 0.5
vt 1 0.5
vt 0.9619397521018982 0.6913416981697083
vt 0.8535534143447876 0.8535534143447876
vt 0.6913416981697083 0.9619397521018982
vt 0.5 1
vt 0.30865827202796936 0.9619397521018982
vt 0.1464466154575348 0.8535534143447876
vt 0.03806023299694061 0.6913416981697083
vt 0 0.5
vt 0.03806023299694061 0.30865827202796936
vt 0.1464466154575348 0.1464466154575348
vt 0.30865827202796936 0.03806023299694061
vt 0.5 0
vt 0.6913416981697083 0.03806023299694061
vt 0.8535534143447876 0.1464466154575348
vt 0.9619397521018982 0.30865827202796936
vt 1 0.5
vt 0.5 0.5
vt 0.5 0.5
vt 0.5 0.5
vt 0.5 0.5
vt 0.5 0.5
vt 0.5 0.5
vt 0.5 0.5
vt 0.5 0.5
vt 0.5 0.5
vt 0.5 0.5
vt 0.5 0.5
vt 0.5 0.5
vt 0.5 0.5
vt 0.5 0.5
vt 0.5 0.5
vt 0.5 0.5
vt 1 0.5
vt 0.9619397521018982 0.30865827202796936
vt 0.8535534143447876 0.1464466154575348
vt 0.6913416981697083 0.03806023299694061
vt 0.5 0
vt 0.30865827202796936 0.03806023299694061
vt 0.1464466154575348 0.1464466154575348
vt 0.03806023299694061 0.30865827202796936
vt 0 0.5
vt 0.03806023299694061 0.6913416981697083
vt 0.1464466154575348 0.8535534143447876
vt 0.30865827202796936 0.9619397521018982
vt 0.5 1
vt 0.6913416981697083 0.9619397521018982
vt 0.8535534143447876 0.8535534143447876
vt 0.9619397521018982 0.6913416981697083
vt 1 0.5
f 1//1 18//18 2//2
f 18//18 19//19 2//2
f 2//2 19//19 3//3
f 19//19 20//20 3//3
f 3//3 20//20 4//4
f 20//20 21//21 4//4
f 4//4 21//21 5//5
f 21//21 22//22 5//5
f 5//5 22//22 6//6
f 22//22 23//23 6//6
f 6//6 23//23 7//7
f 23//23 24//24 7//7
f 7//7 24//24 8//8
f 24//24 25//25 8//8
f 8//8 25//25 9//9
f 25//25 26//26 9//9
f 9//9 26//26 10//10
f 26//26 27//27 10//10
f 10//10 27//27 11//11
f 27//27 28//28 11//11
f 11//11 28//28 12//12
f 28//28 29//29 12//12
f 12//12 29//29 13//13
f 29//29 30//30 13//13
f 13//13 30//30 14//14
f 30//30 31//31 14//14
f 14//14 31//31 15//15
f 31//31 32//32 15//15
f 15//15 32//32 16//16
f 32//32 33//33 16//16
f 16//16 33//33 17//17
f 33//33 34//34 17//17
f 51//51 52//52 35//35
f 52//52 53//53 36//36
f 53//53 54//54 37//37
f 54//54 55//55 38//38
f 55//55 56//56 39//39
f 56//56 57//57 40//40
f 57//57 58//58 41//41
f 58//58 59//59 42//42
f 59//59 60//60 43//43
f 60//60 61//61 44//44
f 61//61 62//62 45//45
f 62//62 63//63 46//46
f 63//63 64//64 47//47
f 64//64 65//65 48//48
f 65//65 66//66 49//49
f 66//66 67//67 50//50
f 85//85 84//84 68//68
f 86//86 85//85 69//69
f 87//87 86//86 70//70
f 88//88 87//87 71//71
f 89//89 88//88 72//72
f 90//90 89//89 73//73
f 91//91 90//90 74//74
f 92//92 91//91 75//75
f 93//93 92//92 76//76
f 94//94 93//93 77//77
f 95//95 94//94 78//78
f 96//96 95//95 79//79
f 97//97 96//96 80//80
f 98//98 97//97 81//81
f 99//99 98//98 82//82
f 100//100 99//99 83//83
