# Object: spoke_back_29
o spoke_back_29
v -1.0124499797821045 18.166690826416016 24.83353614807129
v -0.9351565837860107 18.17679214477539 24.837186813354492
v -0.8677350282669067 18.21065902709961 24.857112884521484
v -0.8204495906829834 18.263134002685547 24.89027976989746
v -0.8004990816116333 18.326229095458984 24.931638717651367
v -0.8109208345413208 18.390338897705078 24.97489356994629
v -0.8501281142234802 18.445703506469727 25.013458251953125
v -0.9121520519256592 18.4838924407959 25.041461944580078
v -0.9875500202178955 18.499094009399414 25.054641723632812
v -1.0648434162139893 18.48899269104004 25.05099105834961
v -1.1322649717330933 18.45512580871582 25.031064987182617
v -1.1795504093170166 18.402650833129883 24.99789810180664
v -1.1995009183883667 18.339555740356445 24.956539154052734
v -1.1890791654586792 18.27544593811035 24.913284301757812
v -1.1498719453811646 18.220081329345703 24.874719619750977
v -1.0878479480743408 18.18189239501953 24.846715927124023
v -1.0124499797821045 18.166690826416016 24.83353614807129
v -2.0124499797821045 34.833797454833984 -0.11055348813533783
v -1.9351565837860107 34.84389877319336 -0.10690251737833023
v -1.8677350282669067 34.87776565551758 -0.08697665482759476
v -1.8204495906829834 34.930240631103516 -0.053809404373168945
v -1.8004990816116333 34.99333572387695 -0.012450206093490124
v -1.8109208345413208 35.05744552612305 0.030804390087723732
v -1.8501280546188354 35.11281204223633 0.06936926394701004
v -1.9121520519256592 35.1510009765625 0.09737325459718704
v -1.9875500202178955 35.166202545166016 0.11055302619934082
v -2.0648434162139893 35.15610122680664 0.10690205544233322
v -2.132265090942383 35.12223434448242 0.08697618544101715
v -2.1795504093170166 35.069759368896484 0.053808942437171936
v -2.199500799179077 35.00666427612305 0.012449742294847965
v -2.1890792846679688 34.94255447387695 -0.03080485388636589
v -2.149871826171875 34.88718795776367 -0.06936972588300705
v -2.087847948074341 34.8489990234375 -0.09737371653318405
v -2.0124499797821045 34.833797454833984 -0.11055348813533783
v -1 18.33289337158203 24.944087982177734
v -1 18.33289337158203 24.944087982177734
v -1 18.33289337158203 24.944087982177734
v -1 18.33289337158203 24.944087982177734
v -1 18.33289337158203 24.944087982177734
v -1 18.33289337158203 24.944087982177734
v -1 18.33289337158203 24.944087982177734
v -1 18.33289337158203 24.944087982177734
v -1 18.33289337158203 24.944087982177734
v -1 18.33289337158203 24.944087982177734
v -1 18.33289337158203 24.944087982177734
v -1 18.33289337158203 24.944087982177734
v -1 18.33289337158203 24.944087982177734
v -1 18.33289337158203 24.944087982177734
v -1 18.33289337158203 24.944087982177734
v -1 18.33289337158203 24.944087982177734
v -1.0124499797821045 18.166690826416016 24.83353614807129
v -0.9351565837860107 18.17679214477539 24.837186813354492
v -0.8677350282669067 18.21065902709961 24.857112884521484
v -0.8204495906829834 18.263134002685547 24.89027976989746
v -0.8004990816116333 18.326229095458984 24.931638717651367
v -0.8109208345413208 18.390338897705078 24.97489356994629
v -0.8501281142234802 18.445703506469727 25.013458251953125
v -0.9121520519256592 18.4838924407959 25.041461944580078
v -0.9875500202178955 18.499094009399414 25.054641723632812
v -1.0648434162139893 18.48899269104004 25.05099105834961
v -1.1322649717330933 18.45512580871582 25.031064987182617
v -1.1795504093170166 18.402650833129883 24.99789810180664
v -1.1995009183883667 18.339555740356445 24.956539154052734
v -1.1890791654586792 18.27544593811035 24.913284301757812
v -1.1498719453811646 18.220081329345703 24.874719619750977
v -1.0878479480743408 18.18189239501953 24.846715927124023
v -1.0124499797821045 18.166690826416016 24.83353614807129
v -2 35 -2.318716099125595e-7
v -2 35 -2.318716099125595e-7
v -2 35 -2.318716099125595e-7
v -2 35 -2.318716099125595e-7
v -2 35 -2.318716099125595e-7
v -2 35 -2.318716099125595e-7
v -2 35 -2.318716099125595e-7
v -2 35 -2.318716099125595e-7
v -2 35 -2.318716099125595e-7
v -2 35 -2.318716099125595e-7
v -2 35 -2.318716099125595e-7
v -2 35 -2.318716099125595e-7
v -2 35 -2.318716099125595e-7
v -2 35 -2.318716099125595e-7
v -2 35 -2.318716099125595e-7
v -2 35 -2.318716099125595e-7
v -2.0124499797821045 34.833797454833984 -0.11055348813533783
v -1.9351565837860107 34.84389877319336 -0.10690251737833023
v -1.8677350282669067 34.87776565551758 -0.08697665482759476
v -1.8204495906829834 34.930240631103516 -0.053809404373168945
v -1.8004990816116333 34.99333572387695 -0.012450206093490124
v -1.8109208345413208 35.05744552612305 0.030804390087723732
v -1.8501280546188354 35.11281204223633 0.06936926394701004
v -1.9121520519256592 35.1510009765625 0.09737325459718704
v -1.9875500202178955 35.166202545166016 0.11055302619934082
v -2.0648434162139893 35.15610122680664 0.10690205544233322
v -2.132265090942383 35.12223434448242 0.08697618544101715
v -2.1795504093170166 35.069759368896484 0.053808942437171936
v -2.199500799179077 35.00666427612305 0.012449742294847965
v -2.1890792846679688 34.94255447387695 -0.03080485388636589
v -2.149871826171875 34.88718795776367 -0.06936972588300705
v -2.087847948074341 34.8489990234375 -0.09737371653318405
v -2.0124499797821045 34.833797454833984 -0.11055348813533783
vn -0.06224986910820007 -0.8310080766677856 -0.5527662634849548
vn 0.3242170512676239 -0.7805003523826599 -0.5345114469528198
vn 0.6613248586654663 -0.6111685633659363 -0.4348820745944977
vn 0.8977519273757935 -0.3487919270992279 -0.269045889377594
vn 0.9975044131278992 -0.03331483155488968 -0.06224986910820007
vn 0.9453958868980408 0.2872341275215149 0.15402311086654663
vn 0.7493594288825989 0.5640543103218079 0.3468474745750427
vn 0.4392397999763489 0.7550023198127747 0.48686742782592773
vn 0.06224986910820007 0.8310080766677856 0.5527662634849548
vn -0.3242170512676239 0.7805003523826599 0.5345114469528198
vn -0.6613248586654663 0.6111685633659363 0.4348820745944977
vn -0.8977519273757935 0.3487919270992279 0.269045889377594
vn -0.9975044131278992 0.03331483155488968 0.06224986910820007
vn -0.9453958868980408 -0.2872341275215149 -0.15402311086654663
vn -0.7493594288825989 -0.5640543103218079 -0.3468474745750427
vn -0.4392397999763489 -0.7550023198127747 -0.48686742782592773
vn -0.06224986910820007 -0.8310080766677856 -0.5527662634849548
vn -0.06224986910820007 -0.8310080766677856 -0.5527662634849548
vn 0.3242170512676239 -0.7805003523826599 -0.5345114469528198
vn 0.6613248586654663 -0.6111685633659363 -0.4348820745944977
vn 0.8977519273757935 -0.3487919270992279 -0.269045889377594
vn 0.9975044131278992 -0.03331483155488968 -0.06224986910820007
vn 0.9453958868980408 0.2872341275215149 0.15402311086654663
vn 0.7493594288825989 0.5640543103218079 0.3468474745750427
vn 0.4392397999763489 0.7550023198127747 0.48686742782592773
vn 0.06224986910820007 0.8310080766677856 0.5527662634849548
vn -0.3242170512676239 0.7805003523826599 0.5345114469528198
vn -0.6613248586654663 0.6111685633659363 0.4348820745944977
vn -0.8977519273757935 0.3487919270992279 0.269045889377594
vn -0.9975044131278992 0.03331483155488968 0.06224986910820007
vn -0.9453958868980408 -0.2872341275215149 -0.15402311086654663
vn -0.7493594288825989 -0.5640543103218079 -0.3468474745750427
vn -0.4392397999763489 -0.7550023198127747 -0.48686742782592773
vn -0.06224986910820007 -0.8310080766677856 -0.5527662634849548
vn 0.03331483155488968 -0.5552618503570557 0.8310080766677856
vn 0.03331483155488968 -0.5552618503570557 0.8310080766677856
vn 0.03331483155488968 -0.5552618503570557 0.8310080766677856
vn 0.03331483155488968 -0.5552618503570557 0.8310080766677856
vn 0.03331483155488968 -0.5552618503570557 0.8310080766677856
vn 0.03331483155488968 -0.5552618503570557 0.8310080766677856
vn 0.03331483155488968 -0.5552618503570557 0.8310080766677856
vn 0.03331483155488968 -0.5552618503570557 0.8310080766677856
vn 0.03331483155488968 -0.5552618503570557 0.8310080766677856
vn 0.03331483155488968 -0.5552618503570557 0.8310080766677856
vn 0.03331483155488968 -0.5552618503570557 0.8310080766677856
vn 0.03331483155488968 -0.5552618503570557 0.8310080766677856
vn 0.03331483155488968 -0.5552618503570557 0.8310080766677856
vn 0.03331483155488968 -0.5552618503570557 0.8310080766677856
vn 0.03331483155488968 -0.5552618503570557 0.8310080766677856
vn 0.03331483155488968 -0.5552618503570557 0.8310080766677856
vn 0.03331483155488968 -0.5552618503570557 0.8310080766677856
vn 0.03331483155488968 -0.5552618503570557 0.8310080766677856
vn 0.03331483155488968 -0.5552618503570557 0.8310080766677856
vn 0.03331483155488968 -0.5552618503570557 0.8310080766677856
vn 0.03331483155488968 -0.5552618503570557 0.8310080766677856
vn 0.03331483155488968 -0.5552618503570557 0.8310080766677856
vn 0.03331483155488968 -0.5552618503570557 0.8310080766677856
vn 0.03331483155488968 -0.5552618503570557 0.8310080766677856
vn 0.03331483155488968 -0.5552618503570557 0.8310080766677856
vn 0.03331483155488968 -0.5552618503570557 0.8310080766677856
vn 0.03331483155488968 -0.5552618503570557 0.8310080766677856
vn 0.03331483155488968 -0.5552618503570557 0.8310080766677856
vn 0.03331483155488968 -0.5552618503570557 0.8310080766677856
vn 0.03331483155488968 -0.5552618503570557 0.8310080766677856
vn 0.03331483155488968 -0.5552618503570557 0.8310080766677856
vn 0.03331483155488968 -0.5552618503570557 0.8310080766677856
vn 0.03331483155488968 -0.5552618503570557 0.8310080766677856
vn -0.03331483155488968 0.5552618503570557 -0.8310080766677856
vn -0.03331483155488968 0.5552618503570557 -0.8310080766677856
vn -0.03331483155488968 0.5552618503570557 -0.8310080766677856
vn -0.03331483155488968 0.5552618503570557 -0.8310080766677856
vn -0.03331483155488968 0.5552618503570557 -0.8310080766677856
vn -0.03331483155488968 0.5552618503570557 -0.8310080766677856
vn -0.03331483155488968 0.5552618503570557 -0.8310080766677856
vn -0.03331483155488968 0.5552618503570557 -0.8310080766677856
vn -0.03331483155488968 0.5552618503570557 -0.8310080766677856
vn -0.03331483155488968 0.5552618503570557 -0.8310080766677856
vn -0.03331483155488968 0.5552618503570557 -0.8310080766677856
vn -0.03331483155488968 0.5552618503570557 -0.8310080766677856
vn -0.03331483155488968 0.5552618503570557 -0.8310080766677856
vn -0.03331483155488968 0.5552618503570557 -0.8310080766677856
vn -0.03331483155488968 0.5552618503570557 -0.8310080766677856
vn -0.03331483155488968 0.5552618503570557 -0.8310080766677856
vn -0.03331483155488968 0.5552618503570557 -0.8310080766677856
vn -0.03331483155488968 0.5552618503570557 -0.8310080766677856
vn -0.03331483155488968 0.5552618503570557 -0.8310080766677856
vn -0.03331483155488968 0.5552618503570557 -0.8310080766677856
vn -0.03331483155488968 0.5552618503570557 -0.8310080766677856
vn -0.03331483155488968 0.5552618503570557 -0.8310080766677856
vn -0.03331483155488968 0.5552618503570557 -0.8310080766677856
vn -0.03331483155488968 0.5552618503570557 -0.8310080766677856
vn -0.03331483155488968 0.5552618503570557 -0.8310080766677856
vn -0.03331483155488968 0.5552618503570557 -0.8310080766677856
vn -0.03331483155488968 0.5552618503570557 -0.8310080766677856
vn -0.03331483155488968 0.5552618503570557 -0.8310080766677856
vn -0.03331483155488968 0.5552618503570557 -0.8310080766677856
vn -0.03331483155488968 0.5552618503570557 -0.8310080766677856
vn -0.03331483155488968 0.5552618503570557 -0.8310080766677856
vn -0.03331483155488968 0.5552618503570557 -0.8310080766677856
vn -0.03331483155488968 0.5552618503570557 -0.8310080766677856
vt 0 1
vt 0.0625 1
vt 0.125 1
vt 0.1875 1
vt 0.25 1
vt 0.3125 1
vt 0.375 1
vt 0.4375 1
vt 0.5 1
vt 0.5625 1
vt 0.625 1
vt 0.6875 1
vt 0.75 1
vt 0.8125 1
vt 0.875 1
vt 0.9375 1
vt 1 1
vt 0 0
vt 0.0625 0
vt 0.125 0
vt 0.1875 0
vt 0.25 0
vt 0.3125 0
vt 0.375 0
vt 0.4375 0
vt 0.5 0
vt 0.5625 0
vt 0.625 0
vt 0.6875 0
vt 0.75 0
vt 0.8125 0
vt 0.875 0
vt 0.9375 0
vt 1 0
vt 0.5 0.5
vt 0.5 0.5
vt 0.5 0.5
vt 0.5 0.5
vt 0.5 0.5
vt 0.5 0.5
vt 0.5 0.5
vt 0.5 0.5
vt 0.5 0.5
vt 0.5 0.5
vt 0.5 0.5
vt 0.5 0.5
vt 0.5 0.5
vt 0.5 0.5
vt 0.5 0.5
vt 0.5 0.5
vt 1 0.5
vt 0.9619397521018982 0.6913416981697083
vt 0.8535534143447876 0.8535534143447876
vt 0.6913416981697083 0.9619397521018982
vt 0.5 1
vt 0.30865827202796936 0.9619397521018982
vt 0.1464466154575348 0.8535534143447876
vt 0.03806023299694061 0.6913416981697083
vt 0 0.5
vt 0.03806023299694061 0.30865827202796936
vt 0.1464466154575348 0.1464466154575348
vt 0.30865827202796936 0.03806023299694061
vt 0.5 0
vt 0.6913416981697083 0.03806023299694061
vt 0.8535534143447876 0.1464466154575348
vt 0.9619397521018982 0.30865827202796936
vt 1 0.5
vt 0.5 0.5
vt 0.5 0.5
vt 0.5 0.5
vt 0.5 0.5
vt 0.5 0.5
vt 0.5 0.5
vt 0.5 0.5
vt 0.5 0.5
vt 0.5 0.5
vt 0.5 0.5
vt 0.5 0.5
vt 0.5 0.5
vt 0.5 0.5
vt 0.5 0.5
vt 0.5 0.5
vt 0.5 0.5
vt 1 0.5
vt 0.9619397521018982 0.30865827202796936
vt 0.8535534143447876 0.1464466154575348
vt 0.6913416981697083 0.03806023299694061
vt 0.5 0
vt 0.30865827202796936 0.03806023299694061
vt 0.1464466154575348 0.1464466154575348
vt 0.03806023299694061 0.30865827202796936
vt 0 0.5
vt 0.03806023299694061 0.6913416981697083
vt 0.1464466154575348 0.8535534143447876
vt 0.30865827202796936 0.9619397521018982
vt 0.5 1
vt 0.6913416981697083 0.9619397521018982
vt 0.8535534143447876 0.8535534143447876
vt 0.9619397521018982 0.6913416981697083
vt 1 0.5
f 1//1 18//18 2//2
f 18//18 19//19 2//2
f 2//2 19//19 3//3
f 19//19 20//20 3//3
f 3//3 20//20 4//4
f 20//20 21//21 4//4
f 4//4 21//21 5//5
f 21//21 22//22 5//5
f 5//5 22//22 6//6
f 22//22 23//23 6//6
f 6//6 23//23 7//7
f 23//23 24//24 7//7
f 7//7 24//24 8//8
f 24//24 25//25 8//8
f 8//8 25//25 9//9
f 25//25 26//26 9//9
f 9//9 26//26 10//10
f 26//26 27//27 10//10
f 10//10 27//27 11//11
f 27//27 28//28 11//11
f 11//11 28//28 12//12
f 28//28 29//29 12//12
f 12//12 29//29 13//13
f 29//29 30//30 13//13
f 13//13 30//30 14//14
f 30//30 31//31 14//14
f 14//14 31//31 15//15
f 31//31 32//32 15//15
f 15//15 32//32 16//16
f 32//32 33//33 16//16
f 16//16 33//33 17//17
f 33//33 34//34 17//17
f 51//51 52//52 35//35
f 52//52 53//53 36//36
f 53//53 54//54 37//37
f 54//54 55//55 38//38
f 55//55 56//56 39//39
f 56//56 57//57 40//40
f 57//57 58//58 41//41
f 58//58 59//59 42//42
f 59//59 60//60 43//43
f 60//60 61//61 44//44
f 61//61 62//62 45//45
f 62//62 63//63 46//46
f 63//63 64//64 47//47
f 64//64 65//65 48//48
f 65//65 66//66 49//49
f 66//66 67//67 50//50
f 85//85 84//84 68//68
f 86//86 85//85 69//69
f 87//87 86//86 70//70
f 88//88 87//87 71//71
f 89//89 88//88 72//72
f 90//90 89//89 73//73
f 91//91 90//90 74//74
f 92//92 91//91 75//75
f 93//93 92//92 76//76
f 94//94 93//93 77//77
f 95//95 94//94 78//78
f 96//96 95//95 79//79
f 97//97 96//96 80//80
f 98//98 97//97 81//81
f 99//99 98//98 82//82
f 100//100 99//99 83//83
