g Object
v 1.0657497644424438 5.537445068359375 5.667895793914795
v 2.0657496452331543 34.961002349853516 -0.18481415510177612
v 1.1329823732376099 5.542963027954102 5.707125186920166
v 2.0657496452331543 34.961002349853516 -0.18481415510177612
v 2.1329824924468994 34.966522216796875 -0.14558468759059906
v 1.1329823732376099 5.542963027954102 5.707125186920166
v 1.1329823732376099 5.542963027954102 5.707125186920166
v 2.1329824924468994 34.966522216796875 -0.14558468759059906
v 1.1799697875976562 5.553577899932861 5.768518447875977
v 2.1329824924468994 34.966522216796875 -0.14558468759059906
v 2.1799697875976562 34.97713851928711 -0.08419127762317657
v 1.1799697875976562 5.553577899932861 5.768518447875977
v 1.1799697875976562 5.553577899932861 5.768518447875977
v 2.1799697875976562 34.97713851928711 -0.08419127762317657
v 1.1995582580566406 5.567673683166504 5.842729091644287
v 2.1799697875976562 34.97713851928711 -0.08419127762317657
v 2.1995582580566406 34.991233825683594 -0.009980516508221626
v 1.1995582580566406 5.567673683166504 5.842729091644287
v 1.1995582580566406 5.567673683166504 5.842729091644287
v 2.1995582580566406 34.991233825683594 -0.009980516508221626
v 1.1887658834457397 5.583104133605957 5.918459415435791
v 2.1995582580566406 34.991233825683594 -0.009980516508221626
v 2.1887660026550293 35.00666427612305 0.06574968248605728
v 1.1887658834457397 5.583104133605957 5.918459415435791
v 1.1887658834457397 5.583104133605957 5.918459415435791
v 2.1887660026550293 35.00666427612305 0.06574968248605728
v 1.1492356061935425 5.597520351409912 5.984179973602295
v 2.1887660026550293 35.00666427612305 0.06574968248605728
v 2.149235725402832 35.021080017089844 0.13147006928920746
v 1.1492356061935425 5.597520351409912 5.984179973602295
v 1.1492356061935425 5.597520351409912 5.984179973602295
v 2.149235725402832 35.021080017089844 0.13147006928920746
v 1.0869855880737305 5.60872745513916 6.029885292053223
v 2.149235725402832 35.021080017089844 0.13147006928920746
v 2.0869855880737305 35.03228759765625 0.1771753430366516
v 1.0869855880737305 5.60872745513916 6.029885292053223
v 1.0869855880737305 5.60872745513916 6.029885292053223
v 2.0869855880737305 35.03228759765625 0.1771753430366516
v 1.0114927291870117 5.61501932144165 6.048616886138916
v 2.0869855880737305 35.03228759765625 0.1771753430366516
v 2.0114927291870117 35.038578033447266 0.19590725004673004
v 1.0114927291870117 5.61501932144165 6.048616886138916
v 1.0114927291870117 5.61501932144165 6.048616886138916
v 2.0114927291870117 35.038578033447266 0.19590725004673004
v 0.9342502355575562 5.6154375076293945 6.0375237464904785
v 2.0114927291870117 35.038578033447266 0.19590725004673004
v 1.9342502355575562 35.038997650146484 0.18481405079364777
v 0.9342502355575562 5.6154375076293945 6.0375237464904785
v 0.9342502355575562 5.6154375076293945 6.0375237464904785
v 1.9342502355575562 35.038997650146484 0.18481405079364777
v 0.8670175671577454 5.609919548034668 5.998294353485107
v 1.9342502355575562 35.038997650146484 0.18481405079364777
v 1.8670176267623901 35.033477783203125 0.1455845832824707
v 0.8670175671577454 5.609919548034668 5.998294353485107
v 0.8670175671577454 5.609919548034668 5.998294353485107
v 1.8670176267623901 35.033477783203125 0.1455845832824707
v 0.8200302124023438 5.599304676055908 5.936901092529297
v 1.8670176267623901 35.033477783203125 0.1455845832824707
v 1.8200302124023438 35.022865295410156 0.08419117331504822
v 0.8200302124023438 5.599304676055908 5.936901092529297
v 0.8200302124023438 5.599304676055908 5.936901092529297
v 1.8200302124023438 35.022865295410156 0.08419117331504822
v 0.8004416823387146 5.585208892822266 5.862689971923828
v 1.8200302124023438 35.022865295410156 0.08419117331504822
v 1.8004417419433594 35.008766174316406 0.009980407543480396
v 0.8004416823387146 5.585208892822266 5.862689971923828
v 0.8004416823387146 5.585208892822266 5.862689971923828
v 1.8004417419433594 35.008766174316406 0.009980407543480396
v 0.8112340569496155 5.5697784423828125 5.786960124969482
v 1.8004417419433594 35.008766174316406 0.009980407543480396
v 1.8112341165542603 34.99333572387695 -0.06574978679418564
v 0.8112340569496155 5.5697784423828125 5.786960124969482
v 0.8112340569496155 5.5697784423828125 5.786960124969482
v 1.8112341165542603 34.99333572387695 -0.06574978679418564
v 0.8507643342018127 5.555362224578857 5.7212395668029785
v 1.8112341165542603 34.99333572387695 -0.06574978679418564
v 1.8507643938064575 34.978919982910156 -0.131470188498497
v 0.8507643342018127 5.555362224578857 5.7212395668029785
v 0.8507643342018127 5.555362224578857 5.7212395668029785
v 1.8507643938064575 34.978919982910156 -0.131470188498497
v 0.9130144119262695 5.544155120849609 5.675534248352051
v 1.8507643938064575 34.978919982910156 -0.131470188498497
v 1.9130144119262695 34.96771240234375 -0.17717544734477997
v 0.9130144119262695 5.544155120849609 5.675534248352051
v 0.9130144119262695 5.544155120849609 5.675534248352051
v 1.9130144119262695 34.96771240234375 -0.17717544734477997
v 0.9885072112083435 5.537863731384277 5.656802654266357
v 1.9130144119262695 34.96771240234375 -0.17717544734477997
v 1.9885072708129883 34.961421966552734 -0.1959073543548584
v 0.9885072112083435 5.537863731384277 5.656802654266357
v 0.9885072112083435 5.537863731384277 5.656802654266357
v 1.9885072708129883 34.961421966552734 -0.1959073543548584
v 1.0657497644424438 5.537445068359375 5.667895793914795
v 1.9885072708129883 34.961421966552734 -0.1959073543548584
v 2.0657496452331543 34.961002349853516 -0.18481415510177612
v 1.0657497644424438 5.537445068359375 5.667895793914795
v 1.0657497644424438 5.537445068359375 5.667895793914795
v 1.1329823732376099 5.542963027954102 5.707125186920166
v 1 5.576441287994385 5.852709770202637
v 1.1329823732376099 5.542963027954102 5.707125186920166
v 1.1799697875976562 5.553577899932861 5.768518447875977
v 1 5.576441287994385 5.852709770202637
v 1.1799697875976562 5.553577899932861 5.768518447875977
v 1.1995582580566406 5.567673683166504 5.842729091644287
v 1 5.576441287994385 5.852709770202637
v 1.1995582580566406 5.567673683166504 5.842729091644287
v 1.1887658834457397 5.583104133605957 5.918459415435791
v 1 5.576441287994385 5.852709770202637
v 1.1887658834457397 5.583104133605957 5.918459415435791
v 1.1492356061935425 5.597520351409912 5.984179973602295
v 1 5.576441287994385 5.852709770202637
v 1.1492356061935425 5.597520351409912 5.984179973602295
v 1.0869855880737305 5.60872745513916 6.029885292053223
v 1 5.576441287994385 5.852709770202637
v 1.0869855880737305 5.60872745513916 6.029885292053223
v 1.0114927291870117 5.61501932144165 6.048616886138916
v 1 5.576441287994385 5.852709770202637
v 1.0114927291870117 5.61501932144165 6.048616886138916
v 0.9342502355575562 5.6154375076293945 6.0375237464904785
v 1 5.576441287994385 5.852709770202637
v 0.9342502355575562 5.6154375076293945 6.0375237464904785
v 0.8670175671577454 5.609919548034668 5.998294353485107
v 1 5.576441287994385 5.852709770202637
v 0.8670175671577454 5.609919548034668 5.998294353485107
v 0.8200302124023438 5.599304676055908 5.936901092529297
v 1 5.576441287994385 5.852709770202637
v 0.8200302124023438 5.599304676055908 5.936901092529297
v 0.8004416823387146 5.585208892822266 5.862689971923828
v 1 5.576441287994385 5.852709770202637
v 0.8004416823387146 5.585208892822266 5.862689971923828
v 0.8112340569496155 5.5697784423828125 5.786960124969482
v 1 5.576441287994385 5.852709770202637
v 0.8112340569496155 5.5697784423828125 5.786960124969482
v 0.8507643342018127 5.555362224578857 5.7212395668029785
v 1 5.576441287994385 5.852709770202637
v 0.8507643342018127 5.555362224578857 5.7212395668029785
v 0.9130144119262695 5.544155120849609 5.675534248352051
v 1 5.576441287994385 5.852709770202637
v 0.9130144119262695 5.544155120849609 5.675534248352051
v 0.9885072112083435 5.537863731384277 5.656802654266357
v 1 5.576441287994385 5.852709770202637
v 0.9885072112083435 5.537863731384277 5.656802654266357
v 1.0657497644424438 5.537445068359375 5.667895793914795
v 1 5.576441287994385 5.852709770202637
v 2.1329824924468994 34.966522216796875 -0.14558468759059906
v 2.0657496452331543 34.961002349853516 -0.18481415510177612
v 2 35 -5.44047438211237e-8
v 2.1799697875976562 34.97713851928711 -0.08419127762317657
v 2.1329824924468994 34.966522216796875 -0.14558468759059906
v 2 35 -5.44047438211237e-8
v 2.1995582580566406 34.991233825683594 -0.009980516508221626
v 2.1799697875976562 34.97713851928711 -0.08419127762317657
v 2 35 -5.44047438211237e-8
v 2.1887660026550293 35.00666427612305 0.06574968248605728
v 2.1995582580566406 34.991233825683594 -0.009980516508221626
v 2 35 -5.44047438211237e-8
v 2.149235725402832 35.021080017089844 0.13147006928920746
v 2.1887660026550293 35.00666427612305 0.06574968248605728
v 2 35 -5.44047438211237e-8
v 2.0869855880737305 35.03228759765625 0.1771753430366516
v 2.149235725402832 35.021080017089844 0.13147006928920746
v 2 35 -5.44047438211237e-8
v 2.0114927291870117 35.038578033447266 0.19590725004673004
v 2.0869855880737305 35.03228759765625 0.1771753430366516
v 2 35 -5.44047438211237e-8
v 1.9342502355575562 35.038997650146484 0.18481405079364777
v 2.0114927291870117 35.038578033447266 0.19590725004673004
v 2 35 -5.44047438211237e-8
v 1.8670176267623901 35.033477783203125 0.1455845832824707
v 1.9342502355575562 35.038997650146484 0.18481405079364777
v 2 35 -5.44047438211237e-8
v 1.8200302124023438 35.022865295410156 0.08419117331504822
v 1.8670176267623901 35.033477783203125 0.1455845832824707
v 2 35 -5.44047438211237e-8
v 1.8004417419433594 35.008766174316406 0.009980407543480396
v 1.8200302124023438 35.022865295410156 0.08419117331504822
v 2 35 -5.44047438211237e-8
v 1.8112341165542603 34.99333572387695 -0.06574978679418564
v 1.8004417419433594 35.008766174316406 0.009980407543480396
v 2 35 -5.44047438211237e-8
v 1.8507643938064575 34.978919982910156 -0.131470188498497
v 1.8112341165542603 34.99333572387695 -0.06574978679418564
v 2 35 -5.44047438211237e-8
v 1.9130144119262695 34.96771240234375 -0.17717544734477997
v 1.8507643938064575 34.978919982910156 -0.131470188498497
v 2 35 -5.44047438211237e-8
v 1.9885072708129883 34.961421966552734 -0.1959073543548584
v 1.9130144119262695 34.96771240234375 -0.17717544734477997
v 2 35 -5.44047438211237e-8
v 2.0657496452331543 34.961002349853516 -0.18481415510177612
v 1.9885072708129883 34.961421966552734 -0.1959073543548584
v 2 35 -5.44047438211237e-8
vn 0.3287486732006073 -0.19498202204704285 -0.9240705370903015
vn 0.3287486732006073 -0.19498202204704285 -0.9240705370903015
vn 0.6649121642112732 -0.1673908680677414 -0.7279231548309326
vn 0.3287486732006073 -0.19498202204704285 -0.9240705370903015
vn 0.6649121642112732 -0.1673908680677414 -0.7279231548309326
vn 0.6649121642112732 -0.1673908680677414 -0.7279231548309326
vn 0.6649121642112732 -0.1673908680677414 -0.7279231548309326
vn 0.6649121642112732 -0.1673908680677414 -0.7279231548309326
vn 0.8998487591743469 -0.11431597173213959 -0.4209561049938202
vn 0.6649121642112732 -0.1673908680677414 -0.7279231548309326
vn 0.8998487591743469 -0.11431597173213959 -0.4209561049938202
vn 0.8998487591743469 -0.11431597173213959 -0.4209561049938202
vn 0.8998487591743469 -0.11431597173213959 -0.4209561049938202
vn 0.8998487591743469 -0.11431597173213959 -0.4209561049938202
vn 0.997791588306427 -0.04383750259876251 -0.04990231618285179
vn 0.8998487591743469 -0.11431597173213959 -0.4209561049938202
vn 0.997791588306427 -0.04383750259876251 -0.04990231618285179
vn 0.997791588306427 -0.04383750259876251 -0.04990231618285179
vn 0.997791588306427 -0.04383750259876251 -0.04990231618285179
vn 0.997791588306427 -0.04383750259876251 -0.04990231618285179
vn 0.9438296556472778 0.03331483155488968 0.3287486732006073
vn 0.997791588306427 -0.04383750259876251 -0.04990231618285179
vn 0.9438296556472778 0.03331483155488968 0.3287486732006073
vn 0.9438296556472778 0.03331483155488968 0.3287486732006073
vn 0.9438296556472778 0.03331483155488968 0.3287486732006073
vn 0.9438296556472778 0.03331483155488968 0.3287486732006073
vn 0.7461782097816467 0.10539527982473373 0.6573506593704224
vn 0.9438296556472778 0.03331483155488968 0.3287486732006073
vn 0.7461782097816467 0.10539527982473373 0.6573506593704224
vn 0.7461782097816467 0.10539527982473373 0.6573506593704224
vn 0.7461782097816467 0.10539527982473373 0.6573506593704224
vn 0.7461782097816467 0.10539527982473373 0.6573506593704224
vn 0.43492794036865234 0.1614302545785904 0.8858769536018372
vn 0.7461782097816467 0.10539527982473373 0.6573506593704224
vn 0.43492794036865234 0.1614302545785904 0.8858769536018372
vn 0.43492794036865234 0.1614302545785904 0.8858769536018372
vn 0.43492794036865234 0.1614302545785904 0.8858769536018372
vn 0.43492794036865234 0.1614302545785904 0.8858769536018372
vn 0.057463813573122025 0.19288894534111023 0.9795365333557129
vn 0.43492794036865234 0.1614302545785904 0.8858769536018372
vn 0.057463813573122025 0.19288894534111023 0.9795365333557129
vn 0.057463813573122025 0.19288894534111023 0.9795365333557129
vn 0.057463813573122025 0.19288894534111023 0.9795365333557129
vn 0.057463813573122025 0.19288894534111023 0.9795365333557129
vn -0.3287486732006073 0.19498202204704285 0.9240705370903015
vn 0.057463813573122025 0.19288894534111023 0.9795365333557129
vn -0.3287486732006073 0.19498202204704285 0.9240705370903015
vn -0.3287486732006073 0.19498202204704285 0.9240705370903015
vn -0.3287486732006073 0.19498202204704285 0.9240705370903015
vn -0.3287486732006073 0.19498202204704285 0.9240705370903015
vn -0.6649121642112732 0.1673908680677414 0.7279231548309326
vn -0.3287486732006073 0.19498202204704285 0.9240705370903015
vn -0.6649121642112732 0.1673908680677414 0.7279231548309326
vn -0.6649121642112732 0.1673908680677414 0.7279231548309326
vn -0.6649121642112732 0.1673908680677414 0.7279231548309326
vn -0.6649121642112732 0.1673908680677414 0.7279231548309326
vn -0.8998487591743469 0.11431597173213959 0.4209561049938202
vn -0.6649121642112732 0.1673908680677414 0.7279231548309326
vn -0.8998487591743469 0.11431597173213959 0.4209561049938202
vn -0.8998487591743469 0.11431597173213959 0.4209561049938202
vn -0.8998487591743469 0.11431597173213959 0.4209561049938202
vn -0.8998487591743469 0.11431597173213959 0.4209561049938202
vn -0.997791588306427 0.04383750259876251 0.04990231618285179
vn -0.8998487591743469 0.11431597173213959 0.4209561049938202
vn -0.997791588306427 0.04383750259876251 0.04990231618285179
vn -0.997791588306427 0.04383750259876251 0.04990231618285179
vn -0.997791588306427 0.04383750259876251 0.04990231618285179
vn -0.997791588306427 0.04383750259876251 0.04990231618285179
vn -0.9438296556472778 -0.03331483155488968 -0.3287486732006073
vn -0.997791588306427 0.04383750259876251 0.04990231618285179
vn -0.9438296556472778 -0.03331483155488968 -0.3287486732006073
vn -0.9438296556472778 -0.03331483155488968 -0.3287486732006073
vn -0.9438296556472778 -0.03331483155488968 -0.3287486732006073
vn -0.9438296556472778 -0.03331483155488968 -0.3287486732006073
vn -0.7461782097816467 -0.10539527982473373 -0.6573506593704224
vn -0.9438296556472778 -0.03331483155488968 -0.3287486732006073
vn -0.7461782097816467 -0.10539527982473373 -0.6573506593704224
vn -0.7461782097816467 -0.10539527982473373 -0.6573506593704224
vn -0.7461782097816467 -0.10539527982473373 -0.6573506593704224
vn -0.7461782097816467 -0.10539527982473373 -0.6573506593704224
vn -0.43492794036865234 -0.1614302545785904 -0.8858769536018372
vn -0.7461782097816467 -0.10539527982473373 -0.6573506593704224
vn -0.43492794036865234 -0.1614302545785904 -0.8858769536018372
vn -0.43492794036865234 -0.1614302545785904 -0.8858769536018372
vn -0.43492794036865234 -0.1614302545785904 -0.8858769536018372
vn -0.43492794036865234 -0.1614302545785904 -0.8858769536018372
vn -0.057463813573122025 -0.19288894534111023 -0.9795365333557129
vn -0.43492794036865234 -0.1614302545785904 -0.8858769536018372
vn -0.057463813573122025 -0.19288894534111023 -0.9795365333557129
vn -0.057463813573122025 -0.19288894534111023 -0.9795365333557129
vn -0.057463813573122025 -0.19288894534111023 -0.9795365333557129
vn -0.057463813573122025 -0.19288894534111023 -0.9795365333557129
vn 0.3287486732006073 -0.19498202204704285 -0.9240705370903015
vn -0.057463813573122025 -0.19288894534111023 -0.9795365333557129
vn 0.3287486732006073 -0.19498202204704285 -0.9240705370903015
vn 0.3287486732006073 -0.19498202204704285 -0.9240705370903015
vn -0.03331483155488968 -0.9802408814430237 0.19498202204704285
vn -0.03331483155488968 -0.9802408814430237 0.19498202204704285
vn -0.03331483155488968 -0.9802408814430237 0.19498202204704285
vn -0.03331483155488968 -0.9802408814430237 0.19498202204704285
vn -0.03331483155488968 -0.9802408814430237 0.19498202204704285
vn -0.03331483155488968 -0.9802408814430237 0.19498202204704285
vn -0.03331483155488968 -0.9802408814430237 0.19498202204704285
vn -0.03331483155488968 -0.9802408814430237 0.19498202204704285
vn -0.03331483155488968 -0.9802408814430237 0.19498202204704285
vn -0.03331483155488968 -0.9802408814430237 0.19498202204704285
vn -0.03331483155488968 -0.9802408814430237 0.19498202204704285
vn -0.03331483155488968 -0.9802408814430237 0.19498202204704285
vn -0.03331483155488968 -0.9802408814430237 0.19498202204704285
vn -0.03331483155488968 -0.9802408814430237 0.19498202204704285
vn -0.03331483155488968 -0.9802408814430237 0.19498202204704285
vn -0.03331483155488968 -0.9802408814430237 0.19498202204704285
vn -0.03331483155488968 -0.9802408814430237 0.19498202204704285
vn -0.03331483155488968 -0.9802408814430237 0.19498202204704285
vn -0.03331483155488968 -0.9802408814430237 0.19498202204704285
vn -0.03331483155488968 -0.9802408814430237 0.19498202204704285
vn -0.03331483155488968 -0.9802408814430237 0.19498202204704285
vn -0.03331483155488968 -0.9802408814430237 0.19498202204704285
vn -0.03331483155488968 -0.9802408814430237 0.19498202204704285
vn -0.03331483155488968 -0.9802408814430237 0.19498202204704285
vn -0.03331483155488968 -0.9802408814430237 0.19498202204704285
vn -0.03331483155488968 -0.9802408814430237 0.19498202204704285
vn -0.03331483155488968 -0.9802408814430237 0.19498202204704285
vn -0.03331483155488968 -0.9802408814430237 0.19498202204704285
vn -0.03331483155488968 -0.9802408814430237 0.19498202204704285
vn -0.03331483155488968 -0.9802408814430237 0.19498202204704285
vn -0.03331483155488968 -0.9802408814430237 0.19498202204704285
vn -0.03331483155488968 -0.9802408814430237 0.19498202204704285
vn -0.03331483155488968 -0.9802408814430237 0.19498202204704285
vn -0.03331483155488968 -0.9802408814430237 0.19498202204704285
vn -0.03331483155488968 -0.9802408814430237 0.19498202204704285
vn -0.03331483155488968 -0.9802408814430237 0.19498202204704285
vn -0.03331483155488968 -0.9802408814430237 0.19498202204704285
vn -0.03331483155488968 -0.9802408814430237 0.19498202204704285
vn -0.03331483155488968 -0.9802408814430237 0.19498202204704285
vn -0.03331483155488968 -0.9802408814430237 0.19498202204704285
vn -0.03331483155488968 -0.9802408814430237 0.19498202204704285
vn -0.03331483155488968 -0.9802408814430237 0.19498202204704285
vn -0.03331483155488968 -0.9802408814430237 0.19498202204704285
vn -0.03331483155488968 -0.9802408814430237 0.19498202204704285
vn -0.03331483155488968 -0.9802408814430237 0.19498202204704285
vn -0.03331483155488968 -0.9802408814430237 0.19498202204704285
vn -0.03331483155488968 -0.9802408814430237 0.19498202204704285
vn -0.03331483155488968 -0.9802408814430237 0.19498202204704285
vn 0.03331483155488968 0.9802408814430237 -0.19498202204704285
vn 0.03331483155488968 0.9802408814430237 -0.19498202204704285
vn 0.03331483155488968 0.9802408814430237 -0.19498202204704285
vn 0.03331483155488968 0.9802408814430237 -0.19498202204704285
vn 0.03331483155488968 0.9802408814430237 -0.19498202204704285
vn 0.03331483155488968 0.9802408814430237 -0.19498202204704285
vn 0.03331483155488968 0.9802408814430237 -0.19498202204704285
vn 0.03331483155488968 0.9802408814430237 -0.19498202204704285
vn 0.03331483155488968 0.9802408814430237 -0.19498202204704285
vn 0.03331483155488968 0.9802408814430237 -0.19498202204704285
vn 0.03331483155488968 0.9802408814430237 -0.19498202204704285
vn 0.03331483155488968 0.9802408814430237 -0.19498202204704285
vn 0.03331483155488968 0.9802408814430237 -0.19498202204704285
vn 0.03331483155488968 0.9802408814430237 -0.19498202204704285
vn 0.03331483155488968 0.9802408814430237 -0.19498202204704285
vn 0.03331483155488968 0.9802408814430237 -0.19498202204704285
vn 0.03331483155488968 0.9802408814430237 -0.19498202204704285
vn 0.03331483155488968 0.9802408814430237 -0.19498202204704285
vn 0.03331483155488968 0.9802408814430237 -0.19498202204704285
vn 0.03331483155488968 0.9802408814430237 -0.19498202204704285
vn 0.03331483155488968 0.9802408814430237 -0.19498202204704285
vn 0.03331483155488968 0.9802408814430237 -0.19498202204704285
vn 0.03331483155488968 0.9802408814430237 -0.19498202204704285
vn 0.03331483155488968 0.9802408814430237 -0.19498202204704285
vn 0.03331483155488968 0.9802408814430237 -0.19498202204704285
vn 0.03331483155488968 0.9802408814430237 -0.19498202204704285
vn 0.03331483155488968 0.9802408814430237 -0.19498202204704285
vn 0.03331483155488968 0.9802408814430237 -0.19498202204704285
vn 0.03331483155488968 0.9802408814430237 -0.19498202204704285
vn 0.03331483155488968 0.9802408814430237 -0.19498202204704285
vn 0.03331483155488968 0.9802408814430237 -0.19498202204704285
vn 0.03331483155488968 0.9802408814430237 -0.19498202204704285
vn 0.03331483155488968 0.9802408814430237 -0.19498202204704285
vn 0.03331483155488968 0.9802408814430237 -0.19498202204704285
vn 0.03331483155488968 0.9802408814430237 -0.19498202204704285
vn 0.03331483155488968 0.9802408814430237 -0.19498202204704285
vn 0.03331483155488968 0.9802408814430237 -0.19498202204704285
vn 0.03331483155488968 0.9802408814430237 -0.19498202204704285
vn 0.03331483155488968 0.9802408814430237 -0.19498202204704285
vn 0.03331483155488968 0.9802408814430237 -0.19498202204704285
vn 0.03331483155488968 0.9802408814430237 -0.19498202204704285
vn 0.03331483155488968 0.9802408814430237 -0.19498202204704285
vn 0.03331483155488968 0.9802408814430237 -0.19498202204704285
vn 0.03331483155488968 0.9802408814430237 -0.19498202204704285
vn 0.03331483155488968 0.9802408814430237 -0.19498202204704285
vn 0.03331483155488968 0.9802408814430237 -0.19498202204704285
vn 0.03331483155488968 0.9802408814430237 -0.19498202204704285
vn 0.03331483155488968 0.9802408814430237 -0.19498202204704285
f 1/1/1 2/2/2 3/3/3
f 4/4/4 5/5/5 6/6/6
f 7/7/7 8/8/8 9/9/9
f 10/10/10 11/11/11 12/12/12
f 13/13/13 14/14/14 15/15/15
f 16/16/16 17/17/17 18/18/18
f 19/19/19 20/20/20 21/21/21
f 22/22/22 23/23/23 24/24/24
f 25/25/25 26/26/26 27/27/27
f 28/28/28 29/29/29 30/30/30
f 31/31/31 32/32/32 33/33/33
f 34/34/34 35/35/35 36/36/36
f 37/37/37 38/38/38 39/39/39
f 40/40/40 41/41/41 42/42/42
f 43/43/43 44/44/44 45/45/45
f 46/46/46 47/47/47 48/48/48
f 49/49/49 50/50/50 51/51/51
f 52/52/52 53/53/53 54/54/54
f 55/55/55 56/56/56 57/57/57
f 58/58/58 59/59/59 60/60/60
f 61/61/61 62/62/62 63/63/63
f 64/64/64 65/65/65 66/66/66
f 67/67/67 68/68/68 69/69/69
f 70/70/70 71/71/71 72/72/72
f 73/73/73 74/74/74 75/75/75
f 76/76/76 77/77/77 78/78/78
f 79/79/79 80/80/80 81/81/81
f 82/82/82 83/83/83 84/84/84
f 85/85/85 86/86/86 87/87/87
f 88/88/88 89/89/89 90/90/90
f 91/91/91 92/92/92 93/93/93
f 94/94/94 95/95/95 96/96/96
f 97/97/97 98/98/98 99/99/99
f 100/100/100 101/101/101 102/102/102
f 103/103/103 104/104/104 105/105/105
f 106/106/106 107/107/107 108/108/108
f 109/109/109 110/110/110 111/111/111
f 112/112/112 113/113/113 114/114/114
f 115/115/115 116/116/116 117/117/117
f 118/118/118 119/119/119 120/120/120
f 121/121/121 122/122/122 123/123/123
f 124/124/124 125/125/125 126/126/126
f 127/127/127 128/128/128 129/129/129
f 130/130/130 131/131/131 132/132/132
f 133/133/133 134/134/134 135/135/135
f 136/136/136 137/137/137 138/138/138
f 139/139/139 140/140/140 141/141/141
f 142/142/142 143/143/143 144/144/144
f 145/145/145 146/146/146 147/147/147
f 148/148/148 149/149/149 150/150/150
f 151/151/151 152/152/152 153/153/153
f 154/154/154 155/155/155 156/156/156
f 157/157/157 158/158/158 159/159/159
f 160/160/160 161/161/161 162/162/162
f 163/163/163 164/164/164 165/165/165
f 166/166/166 167/167/167 168/168/168
f 169/169/169 170/170/170 171/171/171
f 172/172/172 173/173/173 174/174/174
f 175/175/175 176/176/176 177/177/177
f 178/178/178 179/179/179 180/180/180
f 181/181/181 182/182/182 183/183/183
f 184/184/184 185/185/185 186/186/186
f 187/187/187 188/188/188 189/189/189
f 190/190/190 191/191/191 192/192/192
