o spoke_front_5
v 1.0020205666390118 59.83303623132102 16.833429993214274
v 1.0783570513987977 59.844039399305345 16.82154265668412
v 1.1427643929372913 59.870274143559065 16.786143925650624
v 1.1854371322726323 59.90774647815811 16.732622910467697
v 1.1998787623313625 59.950751567093775 16.669127721454384
v 1.183890650452762 59.992742279471564 16.605324917961774
v 1.139906866957514 60.027325915719935 16.55092789136859
v 1.074623514008764 60.04923741594047 16.514218116175186
v 0.9979794147696809 60.0551409705749 16.500784297825163
v 0.921642930009895 60.04413780259057 16.512671634355318
v 0.8572355884714014 60.01790305833685 16.548070365388813
v 0.8145628491360604 59.98043072373781 16.60159138057174
v 0.8001212190773301 59.937425634802146 16.665086569585053
v 0.8161093309559306 59.89543492242435 16.728889373077664
v 0.8600931144511785 59.860851286175986 16.783286399670846
v 0.9253764673999285 59.838939785955446 16.81999617486425
v 1.0020205666390118 59.83303623132102 16.833429993214274
v 2.0020205852303192 34.88894739850146 0.166322692762904
v 2.078357069990105 34.899950566485785 0.1544353562327494
v 2.1427644115285984 34.926185310739505 0.11903662519925362
v 2.1854371508639394 34.96365764533854 0.065515610016325
v 2.1998787809226696 35.00666273427421 0.002020421003013695
v 2.1838906690440694 35.048653446652004 -0.06178238248959467
v 2.1399068855488217 35.08323708290037 -0.11617940908277902
v 2.0746235326000715 35.10514858312091 -0.1528891842761837
v 1.9979794333609882 35.11105213775534 -0.16632300262620703
v 1.9216429486012023 35.10004896977101 -0.15443566609605242
v 1.8572356070627087 35.07381422551729 -0.11903693506255664
v 1.8145628677273677 35.036341890918244 -0.06551591987962802
v 1.8001212376686375 34.99333680198258 -0.002020730866316711
v 1.816109349547238 34.95134608960479 0.06178207262629165
v 1.860093133042486 34.91676245335642 0.116179099219476
v 1.925376485991236 34.89485095313589 0.15288887441288068
v 2.0020205852303192 34.88894739850146 0.166322692762904
v 0.9999999907043463 59.94408860094796 16.66710714551972
v 0.9999999907043463 59.94408860094796 16.66710714551972
v 0.9999999907043463 59.94408860094796 16.66710714551972
v 0.9999999907043463 59.94408860094796 16.66710714551972
v 0.9999999907043463 59.94408860094796 16.66710714551972
v 0.9999999907043463 59.94408860094796 16.66710714551972
v 0.9999999907043463 59.94408860094796 16.66710714551972
v 0.9999999907043463 59.94408860094796 16.66710714551972
v 0.9999999907043463 59.94408860094796 16.66710714551972
v 0.9999999907043463 59.94408860094796 16.66710714551972
v 0.9999999907043463 59.94408860094796 16.66710714551972
v 0.9999999907043463 59.94408860094796 16.66710714551972
v 0.9999999907043463 59.94408860094796 16.66710714551972
v 0.9999999907043463 59.94408860094796 16.66710714551972
v 0.9999999907043463 59.94408860094796 16.66710714551972
v 0.9999999907043463 59.94408860094796 16.66710714551972
v 1.0020205666390118 59.83303623132102 16.833429993214274
v 1.0783570513987977 59.844039399305345 16.82154265668412
v 1.1427643929372913 59.870274143559065 16.786143925650624
v 1.1854371322726323 59.90774647815811 16.732622910467697
v 1.1998787623313625 59.950751567093775 16.669127721454384
v 1.183890650452762 59.992742279471564 16.605324917961774
v 1.139906866957514 60.027325915719935 16.55092789136859
v 1.074623514008764 60.04923741594047 16.514218116175186
v 0.9979794147696809 60.0551409705749 16.500784297825163
v 0.921642930009895 60.04413780259057 16.512671634355318
v 0.8572355884714014 60.01790305833685 16.548070365388813
v 0.8145628491360604 59.98043072373781 16.60159138057174
v 0.8001212190773301 59.937425634802146 16.665086569585053
v 0.8161093309559306 59.89543492242435 16.728889373077664
v 0.8600931144511785 59.860851286175986 16.783286399670846
v 0.9253764673999285 59.838939785955446 16.81999617486425
v 1.0020205666390118 59.83303623132102 16.833429993214274
v 2.0000000092956536 34.9999997681284 -1.5493165150815003e-7
v 2.0000000092956536 34.9999997681284 -1.5493165150815003e-7
v 2.0000000092956536 34.9999997681284 -1.5493165150815003e-7
v 2.0000000092956536 34.9999997681284 -1.5493165150815003e-7
v 2.0000000092956536 34.9999997681284 -1.5493165150815003e-7
v 2.0000000092956536 34.9999997681284 -1.5493165150815003e-7
v 2.0000000092956536 34.9999997681284 -1.5493165150815003e-7
v 2.0000000092956536 34.9999997681284 -1.5493165150815003e-7
v 2.0000000092956536 34.9999997681284 -1.5493165150815003e-7
v 2.0000000092956536 34.9999997681284 -1.5493165150815003e-7
v 2.0000000092956536 34.9999997681284 -1.5493165150815003e-7
v 2.0000000092956536 34.9999997681284 -1.5493165150815003e-7
v 2.0000000092956536 34.9999997681284 -1.5493165150815003e-7
v 2.0000000092956536 34.9999997681284 -1.5493165150815003e-7
v 2.0000000092956536 34.9999997681284 -1.5493165150815003e-7
v 2.0000000092956536 34.9999997681284 -1.5493165150815003e-7
v 2.0020205852303192 34.88894739850146 0.166322692762904
v 2.078357069990105 34.899950566485785 0.1544353562327494
v 2.1427644115285984 34.926185310739505 0.11903662519925362
v 2.1854371508639394 34.96365764533854 0.065515610016325
v 2.1998787809226696 35.00666273427421 0.002020421003013695
v 2.1838906690440694 35.048653446652004 -0.06178238248959467
v 2.1399068855488217 35.08323708290037 -0.11617940908277902
v 2.0746235326000715 35.10514858312091 -0.1528891842761837
v 1.9979794333609882 35.11105213775534 -0.16632300262620703
v 1.9216429486012023 35.10004896977101 -0.15443566609605242
v 1.8572356070627087 35.07381422551729 -0.11903693506255664
v 1.8145628677273677 35.036341890918244 -0.06551591987962802
v 1.8001212376686375 34.99333680198258 -0.002020730866316711
v 1.816109349547238 34.95134608960479 0.06178207262629165
v 1.860093133042486 34.91676245335642 0.116179099219476
v 1.925376485991236 34.89485095313589 0.15288887441288068
v 2.0020205852303192 34.88894739850146 0.166322692762904
vt 0 1
vt 0.0625 1
vt 0.125 1
vt 0.1875 1
vt 0.25 1
vt 0.3125 1
vt 0.375 1
vt 0.4375 1
vt 0.5 1
vt 0.5625 1
vt 0.625 1
vt 0.6875 1
vt 0.75 1
vt 0.8125 1
vt 0.875 1
vt 0.9375 1
vt 1 1
vt 0 0
vt 0.0625 0
vt 0.125 0
vt 0.1875 0
vt 0.25 0
vt 0.3125 0
vt 0.375 0
vt 0.4375 0
vt 0.5 0
vt 0.5625 0
vt 0.625 0
vt 0.6875 0
vt 0.75 0
vt 0.8125 0
vt 0.875 0
vt 0.9375 0
vt 1 0
vt 0.5 0.5
vt 0.5 0.5
vt 0.5 0.5
vt 0.5 0.5
vt 0.5 0.5
vt 0.5 0.5
vt 0.5 0.5
vt 0.5 0.5
vt 0.5 0.5
vt 0.5 0.5
vt 0.5 0.5
vt 0.5 0.5
vt 0.5 0.5
vt 0.5 0.5
vt 0.5 0.5
vt 0.5 0.5
vt 1 0.5
vt 0.9619397521018982 0.6913416981697083
vt 0.8535534143447876 0.8535534143447876
vt 0.6913416981697083 0.9619397521018982
vt 0.5 1
vt 0.30865827202796936 0.9619397521018982
vt 0.1464466154575348 0.8535534143447876
vt 0.03806023299694061 0.6913416981697083
vt 0 0.5
vt 0.03806023299694061 0.30865827202796936
vt 0.1464466154575348 0.1464466154575348
vt 0.30865827202796936 0.03806023299694061
vt 0.5 0
vt 0.6913416981697083 0.03806023299694061
vt 0.8535534143447876 0.1464466154575348
vt 0.9619397521018982 0.30865827202796936
vt 1 0.5
vt 0.5 0.5
vt 0.5 0.5
vt 0.5 0.5
vt 0.5 0.5
vt 0.5 0.5
vt 0.5 0.5
vt 0.5 0.5
vt 0.5 0.5
vt 0.5 0.5
vt 0.5 0.5
vt 0.5 0.5
vt 0.5 0.5
vt 0.5 0.5
vt 0.5 0.5
vt 0.5 0.5
vt 0.5 0.5
vt 1 0.5
vt 0.9619397521018982 0.30865827202796936
vt 0.8535534143447876 0.1464466154575348
vt 0.6913416981697083 0.03806023299694061
vt 0.5 0
vt 0.30865827202796936 0.03806023299694061
vt 0.1464466154575348 0.1464466154575348
vt 0.03806023299694061 0.30865827202796936
vt 0 0.5
vt 0.03806023299694061 0.6913416981697083
vt 0.1464466154575348 0.8535534143447876
vt 0.30865827202796936 0.9619397521018982
vt 0.5 1
vt 0.6913416981697083 0.9619397521018982
vt 0.8535534143447876 0.8535534143447876
vt 0.9619397521018982 0.6913416981697083
vt 1 0.5
vn 0.010102879522782755 -0.5552618398606635 0.8316142260807586
vn 0.3917853145010257 -0.500246014213163 0.772177565463525
vn 0.7138219782532474 -0.36907226992801667 0.5951838732129774
vn 0.9271857194058818 -0.18171061963066304 0.3275788339365621
vn 0.9993938432429523 0.033314830232638454 0.010102879522782805
vn 0.9194533100858917 0.24326839906309755 -0.3089111467548145
vn 0.6995343490131066 0.4161865546711712 -0.5808962439728366
vn 0.37311762731927817 0.5257440816902451 -0.7644451561435348
vn -0.010102879522782632 0.5552618398606635 -0.8316142260807586
vn -0.3917853145010257 0.500246014213163 -0.772177565463525
vn -0.7138219782532474 0.36907226992801667 -0.5951838732129774
vn -0.9271857194058818 0.18171061963066304 -0.3275788339365621
vn -0.9993938432429523 -0.033314830232638384 -0.010102879522782908
vn -0.9194533100858917 -0.24326839906309755 0.3089111467548145
vn -0.6995343490131066 -0.4161865546711712 0.5808962439728366
vn -0.37311762731927817 -0.5257440816902451 0.7644451561435348
vn 0.01010287952278251 -0.5552618398606635 0.8316142260807586
vn 0.010102879522782755 -0.5552618398606635 0.8316142260807586
vn 0.3917853145010257 -0.500246014213163 0.772177565463525
vn 0.7138219782532474 -0.36907226992801667 0.5951838732129774
vn 0.9271857194058818 -0.18171061963066304 0.3275788339365621
vn 0.9993938432429523 0.033314830232638454 0.010102879522782805
vn 0.9194533100858917 0.24326839906309755 -0.3089111467548145
vn 0.6995343490131066 0.4161865546711712 -0.5808962439728366
vn 0.37311762731927817 0.5257440816902451 -0.7644451561435348
vn -0.010102879522782632 0.5552618398606635 -0.8316142260807586
vn -0.3917853145010257 0.500246014213163 -0.772177565463525
vn -0.7138219782532474 0.36907226992801667 -0.5951838732129774
vn -0.9271857194058818 0.18171061963066304 -0.3275788339365621
vn -0.9993938432429523 -0.033314830232638384 -0.010102879522782908
vn -0.9194533100858917 -0.24326839906309755 0.3089111467548145
vn -0.6995343490131066 -0.4161865546711712 0.5808962439728366
vn -0.37311762731927817 -0.5257440816902451 0.7644451561435348
vn 0.01010287952278251 -0.5552618398606635 0.8316142260807586
vn -0.03331483023263849 0.8310080693237109 0.5552618398606635
vn -0.03331483023263849 0.8310080693237109 0.5552618398606635
vn -0.03331483023263849 0.8310080693237109 0.5552618398606635
vn -0.03331483023263849 0.8310080693237109 0.5552618398606635
vn -0.03331483023263849 0.8310080693237109 0.5552618398606635
vn -0.03331483023263849 0.8310080693237109 0.5552618398606635
vn -0.03331483023263849 0.8310080693237109 0.5552618398606635
vn -0.03331483023263849 0.8310080693237109 0.5552618398606635
vn -0.03331483023263849 0.8310080693237109 0.5552618398606635
vn -0.03331483023263849 0.8310080693237109 0.5552618398606635
vn -0.03331483023263849 0.8310080693237109 0.5552618398606635
vn -0.03331483023263849 0.8310080693237109 0.5552618398606635
vn -0.03331483023263849 0.8310080693237109 0.5552618398606635
vn -0.03331483023263849 0.8310080693237109 0.5552618398606635
vn -0.03331483023263849 0.8310080693237109 0.5552618398606635
vn -0.03331483023263849 0.8310080693237109 0.5552618398606635
vn -0.03331483023263849 0.8310080693237109 0.5552618398606635
vn -0.03331483023263849 0.8310080693237109 0.5552618398606635
vn -0.03331483023263849 0.8310080693237109 0.5552618398606635
vn -0.03331483023263849 0.8310080693237109 0.5552618398606635
vn -0.03331483023263849 0.8310080693237109 0.5552618398606635
vn -0.03331483023263849 0.8310080693237109 0.5552618398606635
vn -0.03331483023263849 0.8310080693237109 0.5552618398606635
vn -0.03331483023263849 0.8310080693237109 0.5552618398606635
vn -0.03331483023263849 0.8310080693237109 0.5552618398606635
vn -0.03331483023263849 0.8310080693237109 0.5552618398606635
vn -0.03331483023263849 0.8310080693237109 0.5552618398606635
vn -0.03331483023263849 0.8310080693237109 0.5552618398606635
vn -0.03331483023263849 0.8310080693237109 0.5552618398606635
vn -0.03331483023263849 0.8310080693237109 0.5552618398606635
vn -0.03331483023263849 0.8310080693237109 0.5552618398606635
vn -0.03331483023263849 0.8310080693237109 0.5552618398606635
vn -0.03331483023263849 0.8310080693237109 0.5552618398606635
vn 0.03331483023263849 -0.8310080693237109 -0.5552618398606635
vn 0.03331483023263849 -0.8310080693237109 -0.5552618398606635
vn 0.03331483023263849 -0.8310080693237109 -0.5552618398606635
vn 0.03331483023263849 -0.8310080693237109 -0.5552618398606635
vn 0.03331483023263849 -0.8310080693237109 -0.5552618398606635
vn 0.03331483023263849 -0.8310080693237109 -0.5552618398606635
vn 0.03331483023263849 -0.8310080693237109 -0.5552618398606635
vn 0.03331483023263849 -0.8310080693237109 -0.5552618398606635
vn 0.03331483023263849 -0.8310080693237109 -0.5552618398606635
vn 0.03331483023263849 -0.8310080693237109 -0.5552618398606635
vn 0.03331483023263849 -0.8310080693237109 -0.5552618398606635
vn 0.03331483023263849 -0.8310080693237109 -0.5552618398606635
vn 0.03331483023263849 -0.8310080693237109 -0.5552618398606635
vn 0.03331483023263849 -0.8310080693237109 -0.5552618398606635
vn 0.03331483023263849 -0.8310080693237109 -0.5552618398606635
vn 0.03331483023263849 -0.8310080693237109 -0.5552618398606635
vn 0.03331483023263849 -0.8310080693237109 -0.5552618398606635
vn 0.03331483023263849 -0.8310080693237109 -0.5552618398606635
vn 0.03331483023263849 -0.8310080693237109 -0.5552618398606635
vn 0.03331483023263849 -0.8310080693237109 -0.5552618398606635
vn 0.03331483023263849 -0.8310080693237109 -0.5552618398606635
vn 0.03331483023263849 -0.8310080693237109 -0.5552618398606635
vn 0.03331483023263849 -0.8310080693237109 -0.5552618398606635
vn 0.03331483023263849 -0.8310080693237109 -0.5552618398606635
vn 0.03331483023263849 -0.8310080693237109 -0.5552618398606635
vn 0.03331483023263849 -0.8310080693237109 -0.5552618398606635
vn 0.03331483023263849 -0.8310080693237109 -0.5552618398606635
vn 0.03331483023263849 -0.8310080693237109 -0.5552618398606635
vn 0.03331483023263849 -0.8310080693237109 -0.5552618398606635
vn 0.03331483023263849 -0.8310080693237109 -0.5552618398606635
vn 0.03331483023263849 -0.8310080693237109 -0.5552618398606635
vn 0.03331483023263849 -0.8310080693237109 -0.5552618398606635
vn 0.03331483023263849 -0.8310080693237109 -0.5552618398606635
f 1/1/1 18/18/18 2/2/2
f 18/18/18 19/19/19 2/2/2
f 2/2/2 19/19/19 3/3/3
f 19/19/19 20/20/20 3/3/3
f 3/3/3 20/20/20 4/4/4
f 20/20/20 21/21/21 4/4/4
f 4/4/4 21/21/21 5/5/5
f 21/21/21 22/22/22 5/5/5
f 5/5/5 22/22/22 6/6/6
f 22/22/22 23/23/23 6/6/6
f 6/6/6 23/23/23 7/7/7
f 23/23/23 24/24/24 7/7/7
f 7/7/7 24/24/24 8/8/8
f 24/24/24 25/25/25 8/8/8
f 8/8/8 25/25/25 9/9/9
f 25/25/25 26/26/26 9/9/9
f 9/9/9 26/26/26 10/10/10
f 26/26/26 27/27/27 10/10/10
f 10/10/10 27/27/27 11/11/11
f 27/27/27 28/28/28 11/11/11
f 11/11/11 28/28/28 12/12/12
f 28/28/28 29/29/29 12/12/12
f 12/12/12 29/29/29 13/13/13
f 29/29/29 30/30/30 13/13/13
f 13/13/13 30/30/30 14/14/14
f 30/30/30 31/31/31 14/14/14
f 14/14/14 31/31/31 15/15/15
f 31/31/31 32/32/32 15/15/15
f 15/15/15 32/32/32 16/16/16
f 32/32/32 33/33/33 16/16/16
f 16/16/16 33/33/33 17/17/17
f 33/33/33 34/34/34 17/17/17
f 51/51/51 52/52/52 35/35/35
f 52/52/52 53/53/53 36/36/36
f 53/53/53 54/54/54 37/37/37
f 54/54/54 55/55/55 38/38/38
f 55/55/55 56/56/56 39/39/39
f 56/56/56 57/57/57 40/40/40
f 57/57/57 58/58/58 41/41/41
f 58/58/58 59/59/59 42/42/42
f 59/59/59 60/60/60 43/43/43
f 60/60/60 61/61/61 44/44/44
f 61/61/61 62/62/62 45/45/45
f 62/62/62 63/63/63 46/46/46
f 63/63/63 64/64/64 47/47/47
f 64/64/64 65/65/65 48/48/48
f 65/65/65 66/66/66 49/49/49
f 66/66/66 67/67/67 50/50/50
f 85/85/85 84/84/84 68/68/68
f 86/86/86 85/85/85 69/69/69
f 87/87/87 86/86/86 70/70/70
f 88/88/88 87/87/87 71/71/71
f 89/89/89 88/88/88 72/72/72
f 90/90/90 89/89/89 73/73/73
f 91/91/91 90/90/90 74/74/74
f 92/92/92 91/91/91 75/75/75
f 93/93/93 92/92/92 76/76/76
f 94/94/94 93/93/93 77/77/77
f 95/95/95 94/94/94 78/78/78
f 96/96/96 95/95/95 79/79/79
f 97/97/97 96/96/96 80/80/80
f 98/98/98 97/97/97 81/81/81
f 99/99/99 98/98/98 82/82/82
f 100/100/100 99/99/99 83/83/83
