# spoke_front_26
v 1.0332543849945068 7.207119464874268 11.298726081848145
v 1.1061512231826782 7.215492248535156 11.325288772583008
v 1.1628875732421875 7.234235763549805 11.375481605529785
v 1.1948256492614746 7.260496616363525 11.441662788391113
v 1.1971033811569214 7.290276527404785 11.513757705688477
v 1.169373869895935 7.319042682647705 11.580788612365723
v 1.115858793258667 7.342414855957031 11.632553100585938
v 1.0447051525115967 7.356834888458252 11.661169052124023
v 0.9667456150054932 7.360107898712158 11.662280082702637
v 0.8938487768173218 7.351735591888428 11.635717391967773
v 0.8371124267578125 7.332992076873779 11.585524559020996
v 0.8051742911338806 7.306731224060059 11.519343376159668
v 0.8028965592384338 7.276950836181641 11.447248458862305
v 0.8306260704994202 7.248185157775879 11.380217552185059
v 0.884141206741333 7.224812984466553 11.328453063964844
v 0.9552947878837585 7.210392475128174 11.299837112426758
v 1.0332543849945068 7.207119464874268 11.298726081848145
v 2.033254384994507 34.92350769042969 -0.18177685141563416
v 2.1061513423919678 34.93187713623047 -0.15521402657032013
v 2.1628875732421875 34.95062255859375 -0.10502129793167114
v 2.1948256492614746 34.97688293457031 -0.03884003311395645
v 2.197103500366211 35.00666427612305 0.03325425088405609
v 2.1693739891052246 35.035430908203125 0.1002858579158783
v 2.115858793258667 35.058799743652344 0.15204985439777374
v 2.0447051525115967 35.07322311401367 0.18066559731960297
v 1.9667456150054932 35.07649612426758 0.18177664279937744
v 1.8938487768173218 35.06812286376953 0.15521381795406342
v 1.8371124267578125 35.04937744140625 0.10502108186483383
v 1.8051743507385254 35.02311706542969 0.03883982077240944
v 1.8028966188430786 34.99333572387695 -0.033254463225603104
v 1.830626130104065 34.96457290649414 -0.1002860739827156
v 1.884141206741333 34.941200256347656 -0.15205006301403046
v 1.9552948474884033 34.926780700683594 -0.18066580593585968
v 2.033254384994507 34.92350769042969 -0.18177685141563416
v 1 7.283613681793213 11.48050308227539
v 1 7.283613681793213 11.48050308227539
v 1 7.283613681793213 11.48050308227539
v 1 7.283613681793213 11.48050308227539
v 1 7.283613681793213 11.48050308227539
v 1 7.283613681793213 11.48050308227539
v 1 7.283613681793213 11.48050308227539
v 1 7.283613681793213 11.48050308227539
v 1 7.283613681793213 11.48050308227539
v 1 7.283613681793213 11.48050308227539
v 1 7.283613681793213 11.48050308227539
v 1 7.283613681793213 11.48050308227539
v 1 7.283613681793213 11.48050308227539
v 1 7.283613681793213 11.48050308227539
v 1 7.283613681793213 11.48050308227539
v 1 7.283613681793213 11.48050308227539
v 1.0332543849945068 7.207119464874268 11.298726081848145
v 1.1061512231826782 7.215492248535156 11.325288772583008
v 1.1628875732421875 7.234235763549805 11.375481605529785
v 1.1948256492614746 7.260496616363525 11.441662788391113
v 1.1971033811569214 7.290276527404785 11.513757705688477
v 1.169373869895935 7.319042682647705 11.580788612365723
v 1.115858793258667 7.342414855957031 11.632553100585938
v 1.0447051525115967 7.356834888458252 11.661169052124023
v 0.9667456150054932 7.360107898712158 11.662280082702637
v 0.8938487768173218 7.351735591888428 11.635717391967773
v 0.8371124267578125 7.332992076873779 11.585524559020996
v 0.8051742911338806 7.306731224060059 11.519343376159668
v 0.8028965592384338 7.276950836181641 11.447248458862305
v 0.8306260704994202 7.248185157775879 11.380217552185059
v 0.884141206741333 7.224812984466553 11.328453063964844
v 0.9552947878837585 7.210392475128174 11.299837112426758
v 1.0332543849945068 7.207119464874268 11.298726081848145
v 2 35 -1.0671877248569217e-7
v 2 35 -1.0671877248569217e-7
v 2 35 -1.0671877248569217e-7
v 2 35 -1.0671877248569217e-7
v 2 35 -1.0671877248569217e-7
v 2 35 -1.0671877248569217e-7
v 2 35 -1.0671877248569217e-7
v 2 35 -1.0671877248569217e-7
v 2 35 -1.0671877248569217e-7
v 2 35 -1.0671877248569217e-7
v 2 35 -1.0671877248569217e-7
v 2 35 -1.0671877248569217e-7
v 2 35 -1.0671877248569217e-7
v 2 35 -1.0671877248569217e-7
v 2 35 -1.0671877248569217e-7
v 2 35 -1.0671877248569217e-7
v 2.033254384994507 34.92350769042969 -0.18177685141563416
v 2.1061513423919678 34.93187713623047 -0.15521402657032013
v 2.1628875732421875 34.95062255859375 -0.10502129793167114
v 2.1948256492614746 34.97688293457031 -0.03884003311395645
v 2.197103500366211 35.00666427612305 0.03325425088405609
v 2.1693739891052246 35.035430908203125 0.1002858579158783
v 2.115858793258667 35.058799743652344 0.15204985439777374
v 2.0447051525115967 35.07322311401367 0.18066559731960297
v 1.9667456150054932 35.07649612426758 0.18177664279937744
v 1.8938487768173218 35.06812286376953 0.15521381795406342
v 1.8371124267578125 35.04937744140625 0.10502108186483383
v 1.8051743507385254 35.02311706542969 0.03883982077240944
v 1.8028966188430786 34.99333572387695 -0.033254463225603104
v 1.830626130104065 34.96457290649414 -0.1002860739827156
v 1.884141206741333 34.941200256347656 -0.15205006301403046
v 1.9552948474884033 34.926780700683594 -0.18066580593585968
v 2.033254384994507 34.92350769042969 -0.18177685141563416
vn 0.16627179086208344 -0.3824709951877594 -0.9088837504386902
vn 0.5307561159133911 -0.3406080901622772 -0.7760695815086365
vn 0.8144376873970032 -0.24689069390296936 -0.5251059532165527
vn 0.9741284847259521 -0.11558642983436584 -0.19419965147972107
vn 0.9855170249938965 0.03331483155488968 0.16627179086208344
vn 0.8468695282936096 0.17714421451091766 0.5014298558235168
vn 0.5792938470840454 0.29400497674942017 0.7602497339248657
vn 0.22352594137191772 0.36610618233680725 0.903328537940979
vn -0.16627179086208344 0.3824709951877594 0.9088837504386902
vn -0.5307561159133911 0.3406080901622772 0.7760695815086365
vn -0.8144376873970032 0.24689069390296936 0.5251059532165527
vn -0.9741284847259521 0.11558642983436584 0.19419965147972107
vn -0.9855170249938965 -0.03331483155488968 -0.16627179086208344
vn -0.8468695282936096 -0.17714421451091766 -0.5014298558235168
vn -0.5792938470840454 -0.29400497674942017 -0.7602497339248657
vn -0.22352594137191772 -0.36610618233680725 -0.903328537940979
vn 0.16627179086208344 -0.3824709951877594 -0.9088837504386902
vn 0.16627179086208344 -0.3824709951877594 -0.9088837504386902
vn 0.5307561159133911 -0.3406080901622772 -0.7760695815086365
vn 0.8144376873970032 -0.24689069390296936 -0.5251059532165527
vn 0.9741284847259521 -0.11558642983436584 -0.19419965147972107
vn 0.9855170249938965 0.03331483155488968 0.16627179086208344
vn 0.8468695282936096 0.17714421451091766 0.5014298558235168
vn 0.5792938470840454 0.29400497674942017 0.7602497339248657
vn 0.22352594137191772 0.36610618233680725 0.903328537940979
vn -0.16627179086208344 0.3824709951877594 0.9088837504386902
vn -0.5307561159133911 0.3406080901622772 0.7760695815086365
vn -0.8144376873970032 0.24689069390296936 0.5251059532165527
vn -0.9741284847259521 0.11558642983436584 0.19419965147972107
vn -0.9855170249938965 -0.03331483155488968 -0.16627179086208344
vn -0.8468695282936096 -0.17714421451091766 -0.5014298558235168
vn -0.5792938470840454 -0.29400497674942017 -0.7602497339248657
vn -0.22352594137191772 -0.36610618233680725 -0.903328537940979
vn 0.16627179086208344 -0.3824709951877594 -0.9088837504386902
vn -0.03331483155488968 -0.9233666658401489 0.3824709951877594
vn -0.03331483155488968 -0.9233666658401489 0.3824709951877594
vn -0.03331483155488968 -0.9233666658401489 0.3824709951877594
vn -0.03331483155488968 -0.9233666658401489 0.3824709951877594
vn -0.03331483155488968 -0.9233666658401489 0.3824709951877594
vn -0.03331483155488968 -0.9233666658401489 0.3824709951877594
vn -0.03331483155488968 -0.9233666658401489 0.3824709951877594
vn -0.03331483155488968 -0.9233666658401489 0.3824709951877594
vn -0.03331483155488968 -0.9233666658401489 0.3824709951877594
vn -0.03331483155488968 -0.9233666658401489 0.3824709951877594
vn -0.03331483155488968 -0.9233666658401489 0.3824709951877594
vn -0.03331483155488968 -0.9233666658401489 0.3824709951877594
vn -0.03331483155488968 -0.9233666658401489 0.3824709951877594
vn -0.03331483155488968 -0.9233666658401489 0.3824709951877594
vn -0.03331483155488968 -0.9233666658401489 0.3824709951877594
vn -0.03331483155488968 -0.9233666658401489 0.3824709951877594
vn -0.03331483155488968 -0.9233666658401489 0.3824709951877594
vn -0.03331483155488968 -0.9233666658401489 0.3824709951877594
vn -0.03331483155488968 -0.9233666658401489 0.3824709951877594
vn -0.03331483155488968 -0.9233666658401489 0.3824709951877594
vn -0.03331483155488968 -0.9233666658401489 0.3824709951877594
vn -0.03331483155488968 -0.9233666658401489 0.3824709951877594
vn -0.03331483155488968 -0.9233666658401489 0.3824709951877594
vn -0.03331483155488968 -0.9233666658401489 0.3824709951877594
vn -0.03331483155488968 -0.9233666658401489 0.3824709951877594
vn -0.03331483155488968 -0.9233666658401489 0.3824709951877594
vn -0.03331483155488968 -0.9233666658401489 0.3824709951877594
vn -0.03331483155488968 -0.9233666658401489 0.3824709951877594
vn -0.03331483155488968 -0.9233666658401489 0.3824709951877594
vn -0.03331483155488968 -0.9233666658401489 0.3824709951877594
vn -0.03331483155488968 -0.9233666658401489 0.3824709951877594
vn -0.03331483155488968 -0.9233666658401489 0.3824709951877594
vn -0.03331483155488968 -0.9233666658401489 0.3824709951877594
vn 0.03331483155488968 0.9233666658401489 -0.3824709951877594
vn 0.03331483155488968 0.9233666658401489 -0.3824709951877594
vn 0.03331483155488968 0.9233666658401489 -0.3824709951877594
vn 0.03331483155488968 0.9233666658401489 -0.3824709951877594
vn 0.03331483155488968 0.9233666658401489 -0.3824709951877594
vn 0.03331483155488968 0.9233666658401489 -0.3824709951877594
vn 0.03331483155488968 0.9233666658401489 -0.3824709951877594
vn 0.03331483155488968 0.9233666658401489 -0.3824709951877594
vn 0.03331483155488968 0.9233666658401489 -0.3824709951877594
vn 0.03331483155488968 0.9233666658401489 -0.3824709951877594
vn 0.03331483155488968 0.9233666658401489 -0.3824709951877594
vn 0.03331483155488968 0.9233666658401489 -0.3824709951877594
vn 0.03331483155488968 0.9233666658401489 -0.3824709951877594
vn 0.03331483155488968 0.9233666658401489 -0.3824709951877594
vn 0.03331483155488968 0.9233666658401489 -0.3824709951877594
vn 0.03331483155488968 0.9233666658401489 -0.3824709951877594
vn 0.03331483155488968 0.9233666658401489 -0.3824709951877594
vn 0.03331483155488968 0.9233666658401489 -0.3824709951877594
vn 0.03331483155488968 0.9233666658401489 -0.3824709951877594
vn 0.03331483155488968 0.9233666658401489 -0.3824709951877594
vn 0.03331483155488968 0.9233666658401489 -0.3824709951877594
vn 0.03331483155488968 0.9233666658401489 -0.3824709951877594
vn 0.03331483155488968 0.9233666658401489 -0.3824709951877594
vn 0.03331483155488968 0.9233666658401489 -0.3824709951877594
vn 0.03331483155488968 0.9233666658401489 -0.3824709951877594
vn 0.03331483155488968 0.9233666658401489 -0.3824709951877594
vn 0.03331483155488968 0.9233666658401489 -0.3824709951877594
vn 0.03331483155488968 0.9233666658401489 -0.3824709951877594
vn 0.03331483155488968 0.9233666658401489 -0.3824709951877594
vn 0.03331483155488968 0.9233666658401489 -0.3824709951877594
vn 0.03331483155488968 0.9233666658401489 -0.3824709951877594
vn 0.03331483155488968 0.9233666658401489 -0.3824709951877594
vn 0.03331483155488968 0.9233666658401489 -0.3824709951877594
f 1//1 18//18 2//2
f 18//18 19//19 2//2
f 2//2 19//19 3//3
f 19//19 20//20 3//3
f 3//3 20//20 4//4
f 20//20 21//21 4//4
f 4//4 21//21 5//5
f 21//21 22//22 5//5
f 5//5 22//22 6//6
f 22//22 23//23 6//6
f 6//6 23//23 7//7
f 23//23 24//24 7//7
f 7//7 24//24 8//8
f 24//24 25//25 8//8
f 8//8 25//25 9//9
f 25//25 26//26 9//9
f 9//9 26//26 10//10
f 26//26 27//27 10//10
f 10//10 27//27 11//11
f 27//27 28//28 11//11
f 11//11 28//28 12//12
f 28//28 29//29 12//12
f 12//12 29//29 13//13
f 29//29 30//30 13//13
f 13//13 30//30 14//14
f 30//30 31//31 14//14
f 14//14 31//31 15//15
f 31//31 32//32 15//15
f 15//15 32//32 16//16
f 32//32 33//33 16//16
f 16//16 33//33 17//17
f 33//33 34//34 17//17
f 51//51 52//52 35//35
f 52//52 53//53 36//36
f 53//53 54//54 37//37
f 54//54 55//55 38//38
f 55//55 56//56 39//39
f 56//56 57//57 40//40
f 57//57 58//58 41//41
f 58//58 59//59 42//42
f 59//59 60//60 43//43
f 60//60 61//61 44//44
f 61//61 62//62 45//45
f 62//62 63//63 46//46
f 63//63 64//64 47//47
f 64//64 65//65 48//48
f 65//65 66//66 49//49
f 66//66 67//67 50//50
f 85//85 84//84 68//68
f 86//86 85//85 69//69
f 87//87 86//86 70//70
f 88//88 87//87 71//71
f 89//89 88//88 72//72
f 90//90 89//89 73//73
f 91//91 90//90 74//74
f 92//92 91//91 75//75
f 93//93 92//92 76//76
f 94//94 93//93 77//77
f 95//95 94//94 78//78
f 96//96 95//95 79//79
f 97//97 96//96 80//80
f 98//98 97//97 81//81
f 99//99 98//98 82//82
f 100//100 99//99 83//83
