# spoke_front_17
v 0.9918867349624634 29.343338012695312 -29.4622802734375
v 1.068935513496399 29.330965042114258 -29.46243667602539
v 1.1354894638061523 29.29062843322754 -29.456674575805664
v 1.181416392326355 29.228469848632812 -29.445871353149414
v 1.1997241973876953 29.153953552246094 -29.431671142578125
v 1.1876260042190552 29.07842254638672 -29.416236877441406
v 1.146963357925415 29.01337432861328 -29.40191650390625
v 1.083926796913147 28.96871566772461 -29.39089012145996
v 1.0081132650375366 28.951242446899414 -29.384838104248047
v 0.9310644865036011 28.96361541748047 -29.384679794311523
v 0.8645105361938477 29.003952026367188 -29.39044189453125
v 0.8185836672782898 29.066110610961914 -29.4012451171875
v 0.8002757430076599 29.140626907348633 -29.41544532775879
v 0.8123740553855896 29.21615982055664 -29.43088150024414
v 0.853036642074585 29.281206130981445 -29.445201873779297
v 0.9160731434822083 29.325864791870117 -29.456226348876953
v 0.9918867349624634 29.343338012695312 -29.4622802734375
v 1.9918867349624634 35.196048736572266 -0.03872039169073105
v 2.0689353942871094 35.18367385864258 -0.038877762854099274
v 2.1354894638061523 35.14333724975586 -0.033116307109594345
v 2.1814162731170654 35.081180572509766 -0.02231314778327942
v 2.1997241973876953 35.00666427612305 -0.00811297632753849
v 2.1876258850097656 34.93113327026367 0.0073223658837378025
v 2.146963357925415 34.866085052490234 0.021642986685037613
v 2.0839269161224365 34.82142639160156 0.03266869857907295
v 2.008113145828247 34.803951263427734 0.03872093930840492
v 1.931064486503601 34.81632614135742 0.03887831047177315
v 1.8645105361938477 34.85666275024414 0.03311685472726822
v 1.818583607673645 34.918819427490234 0.022313695400953293
v 1.8002758026123047 34.99333572387695 0.00811352301388979
v 1.8123739957809448 35.068870544433594 -0.007321818731725216
v 1.853036642074585 35.133914947509766 -0.02164243906736374
v 1.916073203086853 35.17857360839844 -0.03266815096139908
v 1.9918867349624634 35.196048736572266 -0.03872039169073105
v 1 29.14729118347168 -29.423559188842773
v 1 29.14729118347168 -29.423559188842773
v 1 29.14729118347168 -29.423559188842773
v 1 29.14729118347168 -29.423559188842773
v 1 29.14729118347168 -29.423559188842773
v 1 29.14729118347168 -29.423559188842773
v 1 29.14729118347168 -29.423559188842773
v 1 29.14729118347168 -29.423559188842773
v 1 29.14729118347168 -29.423559188842773
v 1 29.14729118347168 -29.423559188842773
v 1 29.14729118347168 -29.423559188842773
v 1 29.14729118347168 -29.423559188842773
v 1 29.14729118347168 -29.423559188842773
v 1 29.14729118347168 -29.423559188842773
v 1 29.14729118347168 -29.423559188842773
v 1 29.14729118347168 -29.423559188842773
v 0.9918867349624634 29.343338012695312 -29.4622802734375
v 1.068935513496399 29.330965042114258 -29.46243667602539
v 1.1354894638061523 29.29062843322754 -29.456674575805664
v 1.181416392326355 29.228469848632812 -29.445871353149414
v 1.1997241973876953 29.153953552246094 -29.431671142578125
v 1.1876260042190552 29.07842254638672 -29.416236877441406
v 1.146963357925415 29.01337432861328 -29.40191650390625
v 1.083926796913147 28.96871566772461 -29.39089012145996
v 1.0081132650375366 28.951242446899414 -29.384838104248047
v 0.9310644865036011 28.96361541748047 -29.384679794311523
v 0.8645105361938477 29.003952026367188 -29.39044189453125
v 0.8185836672782898 29.066110610961914 -29.4012451171875
v 0.8002757430076599 29.140626907348633 -29.41544532775879
v 0.8123740553855896 29.21615982055664 -29.43088150024414
v 0.853036642074585 29.281206130981445 -29.445201873779297
v 0.9160731434822083 29.325864791870117 -29.456226348876953
v 0.9918867349624634 29.343338012695312 -29.4622802734375
v 2 35 2.735112047957955e-7
v 2 35 2.735112047957955e-7
v 2 35 2.735112047957955e-7
v 2 35 2.735112047957955e-7
v 2 35 2.735112047957955e-7
v 2 35 2.735112047957955e-7
v 2 35 2.735112047957955e-7
v 2 35 2.735112047957955e-7
v 2 35 2.735112047957955e-7
v 2 35 2.735112047957955e-7
v 2 35 2.735112047957955e-7
v 2 35 2.735112047957955e-7
v 2 35 2.735112047957955e-7
v 2 35 2.735112047957955e-7
v 2 35 2.735112047957955e-7
v 2 35 2.735112047957955e-7
v 1.9918867349624634 35.196048736572266 -0.03872039169073105
v 2.0689353942871094 35.18367385864258 -0.038877762854099274
v 2.1354894638061523 35.14333724975586 -0.033116307109594345
v 2.1814162731170654 35.081180572509766 -0.02231314778327942
v 2.1997241973876953 35.00666427612305 -0.00811297632753849
v 2.1876258850097656 34.93113327026367 0.0073223658837378025
v 2.146963357925415 34.866085052490234 0.021642986685037613
v 2.0839269161224365 34.82142639160156 0.03266869857907295
v 2.008113145828247 34.803951263427734 0.03872093930840492
v 1.931064486503601 34.81632614135742 0.03887831047177315
v 1.8645105361938477 34.85666275024414 0.03311685472726822
v 1.818583607673645 34.918819427490234 0.022313695400953293
v 1.8002758026123047 34.99333572387695 0.00811352301388979
v 1.8123739957809448 35.068870544433594 -0.007321818731725216
v 1.853036642074585 35.133914947509766 -0.02164243906736374
v 1.916073203086853 35.17857360839844 -0.03266815096139908
v 1.9918867349624634 35.196048736572266 -0.03872039169073105
vn -0.04056624695658684 0.9802408814430237 -0.19360332190990448
vn 0.34467750787734985 0.9183734655380249 -0.1943901777267456
vn 0.6774471998214722 0.7166920900344849 -0.16558289527893066
vn 0.9070817232131958 0.40590083599090576 -0.11156710982322693
vn 0.9986212849617004 0.03331483155488968 -0.04056624695658684
vn 0.9381297826766968 -0.34434303641319275 0.03661046177148819
vn 0.7348165512084961 -0.6695778369903564 0.10821355879306793
vn 0.4196341633796692 -0.8928754329681396 0.16334211826324463
vn 0.04056624695658684 -0.9802408814430237 0.19360332190990448
vn -0.34467750787734985 -0.9183734655380249 0.1943901777267456
vn -0.6774471998214722 -0.7166920900344849 0.16558289527893066
vn -0.9070817232131958 -0.40590083599090576 0.11156710982322693
vn -0.9986212849617004 -0.03331483155488968 0.04056624695658684
vn -0.9381297826766968 0.34434303641319275 -0.03661046177148819
vn -0.7348165512084961 0.6695778369903564 -0.10821355879306793
vn -0.4196341633796692 0.8928754329681396 -0.16334211826324463
vn -0.04056624695658684 0.9802408814430237 -0.19360332190990448
vn -0.04056624695658684 0.9802408814430237 -0.19360332190990448
vn 0.34467750787734985 0.9183734655380249 -0.1943901777267456
vn 0.6774471998214722 0.7166920900344849 -0.16558289527893066
vn 0.9070817232131958 0.40590083599090576 -0.11156710982322693
vn 0.9986212849617004 0.03331483155488968 -0.04056624695658684
vn 0.9381297826766968 -0.34434303641319275 0.03661046177148819
vn 0.7348165512084961 -0.6695778369903564 0.10821355879306793
vn 0.4196341633796692 -0.8928754329681396 0.16334211826324463
vn 0.04056624695658684 -0.9802408814430237 0.19360332190990448
vn -0.34467750787734985 -0.9183734655380249 0.1943901777267456
vn -0.6774471998214722 -0.7166920900344849 0.16558289527893066
vn -0.9070817232131958 -0.40590083599090576 0.11156710982322693
vn -0.9986212849617004 -0.03331483155488968 0.04056624695658684
vn -0.9381297826766968 0.34434303641319275 -0.03661046177148819
vn -0.7348165512084961 0.6695778369903564 -0.10821355879306793
vn -0.4196341633796692 0.8928754329681396 -0.16334211826324463
vn -0.04056624695658684 0.9802408814430237 -0.19360332190990448
vn -0.03331483155488968 -0.19498202204704285 -0.9802408814430237
vn -0.03331483155488968 -0.19498202204704285 -0.9802408814430237
vn -0.03331483155488968 -0.19498202204704285 -0.9802408814430237
vn -0.03331483155488968 -0.19498202204704285 -0.9802408814430237
vn -0.03331483155488968 -0.19498202204704285 -0.9802408814430237
vn -0.03331483155488968 -0.19498202204704285 -0.9802408814430237
vn -0.03331483155488968 -0.19498202204704285 -0.9802408814430237
vn -0.03331483155488968 -0.19498202204704285 -0.9802408814430237
vn -0.03331483155488968 -0.19498202204704285 -0.9802408814430237
vn -0.03331483155488968 -0.19498202204704285 -0.9802408814430237
vn -0.03331483155488968 -0.19498202204704285 -0.9802408814430237
vn -0.03331483155488968 -0.19498202204704285 -0.9802408814430237
vn -0.03331483155488968 -0.19498202204704285 -0.9802408814430237
vn -0.03331483155488968 -0.19498202204704285 -0.9802408814430237
vn -0.03331483155488968 -0.19498202204704285 -0.9802408814430237
vn -0.03331483155488968 -0.19498202204704285 -0.9802408814430237
vn -0.03331483155488968 -0.19498202204704285 -0.9802408814430237
vn -0.03331483155488968 -0.19498202204704285 -0.9802408814430237
vn -0.03331483155488968 -0.19498202204704285 -0.9802408814430237
vn -0.03331483155488968 -0.19498202204704285 -0.9802408814430237
vn -0.03331483155488968 -0.19498202204704285 -0.9802408814430237
vn -0.03331483155488968 -0.19498202204704285 -0.9802408814430237
vn -0.03331483155488968 -0.19498202204704285 -0.9802408814430237
vn -0.03331483155488968 -0.19498202204704285 -0.9802408814430237
vn -0.03331483155488968 -0.19498202204704285 -0.9802408814430237
vn -0.03331483155488968 -0.19498202204704285 -0.9802408814430237
vn -0.03331483155488968 -0.19498202204704285 -0.9802408814430237
vn -0.03331483155488968 -0.19498202204704285 -0.9802408814430237
vn -0.03331483155488968 -0.19498202204704285 -0.9802408814430237
vn -0.03331483155488968 -0.19498202204704285 -0.9802408814430237
vn -0.03331483155488968 -0.19498202204704285 -0.9802408814430237
vn -0.03331483155488968 -0.19498202204704285 -0.9802408814430237
vn -0.03331483155488968 -0.19498202204704285 -0.9802408814430237
vn 0.03331483155488968 0.19498202204704285 0.9802408814430237
vn 0.03331483155488968 0.19498202204704285 0.9802408814430237
vn 0.03331483155488968 0.19498202204704285 0.9802408814430237
vn 0.03331483155488968 0.19498202204704285 0.9802408814430237
vn 0.03331483155488968 0.19498202204704285 0.9802408814430237
vn 0.03331483155488968 0.19498202204704285 0.9802408814430237
vn 0.03331483155488968 0.19498202204704285 0.9802408814430237
vn 0.03331483155488968 0.19498202204704285 0.9802408814430237
vn 0.03331483155488968 0.19498202204704285 0.9802408814430237
vn 0.03331483155488968 0.19498202204704285 0.9802408814430237
vn 0.03331483155488968 0.19498202204704285 0.9802408814430237
vn 0.03331483155488968 0.19498202204704285 0.9802408814430237
vn 0.03331483155488968 0.19498202204704285 0.9802408814430237
vn 0.03331483155488968 0.19498202204704285 0.9802408814430237
vn 0.03331483155488968 0.19498202204704285 0.9802408814430237
vn 0.03331483155488968 0.19498202204704285 0.9802408814430237
vn 0.03331483155488968 0.19498202204704285 0.9802408814430237
vn 0.03331483155488968 0.19498202204704285 0.9802408814430237
vn 0.03331483155488968 0.19498202204704285 0.9802408814430237
vn 0.03331483155488968 0.19498202204704285 0.9802408814430237
vn 0.03331483155488968 0.19498202204704285 0.9802408814430237
vn 0.03331483155488968 0.19498202204704285 0.9802408814430237
vn 0.03331483155488968 0.19498202204704285 0.9802408814430237
vn 0.03331483155488968 0.19498202204704285 0.9802408814430237
vn 0.03331483155488968 0.19498202204704285 0.9802408814430237
vn 0.03331483155488968 0.19498202204704285 0.9802408814430237
vn 0.03331483155488968 0.19498202204704285 0.9802408814430237
vn 0.03331483155488968 0.19498202204704285 0.9802408814430237
vn 0.03331483155488968 0.19498202204704285 0.9802408814430237
vn 0.03331483155488968 0.19498202204704285 0.9802408814430237
vn 0.03331483155488968 0.19498202204704285 0.9802408814430237
vn 0.03331483155488968 0.19498202204704285 0.9802408814430237
vn 0.03331483155488968 0.19498202204704285 0.9802408814430237
f 1//1 18//18 2//2
f 18//18 19//19 2//2
f 2//2 19//19 3//3
f 19//19 20//20 3//3
f 3//3 20//20 4//4
f 20//20 21//21 4//4
f 4//4 21//21 5//5
f 21//21 22//22 5//5
f 5//5 22//22 6//6
f 22//22 23//23 6//6
f 6//6 23//23 7//7
f 23//23 24//24 7//7
f 7//7 24//24 8//8
f 24//24 25//25 8//8
f 8//8 25//25 9//9
f 25//25 26//26 9//9
f 9//9 26//26 10//10
f 26//26 27//27 10//10
f 10//10 27//27 11//11
f 27//27 28//28 11//11
f 11//11 28//28 12//12
f 28//28 29//29 12//12
f 12//12 29//29 13//13
f 29//29 30//30 13//13
f 13//13 30//30 14//14
f 30//30 31//31 14//14
f 14//14 31//31 15//15
f 31//31 32//32 15//15
f 15//15 32//32 16//16
f 32//32 33//33 16//16
f 16//16 33//33 17//17
f 33//33 34//34 17//17
f 51//51 52//52 35//35
f 52//52 53//53 36//36
f 53//53 54//54 37//37
f 54//54 55//55 38//38
f 55//55 56//56 39//39
f 56//56 57//57 40//40
f 57//57 58//58 41//41
f 58//58 59//59 42//42
f 59//59 60//60 43//43
f 60//60 61//61 44//44
f 61//61 62//62 45//45
f 62//62 63//63 46//46
f 63//63 64//64 47//47
f 64//64 65//65 48//48
f 65//65 66//66 49//49
f 66//66 67//67 50//50
f 85//85 84//84 68//68
f 86//86 85//85 69//69
f 87//87 86//86 70//70
f 88//88 87//87 71//71
f 89//89 88//88 72//72
f 90//90 89//89 73//73
f 91//91 90//90 74//74
f 92//92 91//91 75//75
f 93//93 92//92 76//76
f 94//94 93//93 77//77
f 95//95 94//94 78//78
f 96//96 95//95 79//79
f 97//97 96//96 80//80
f 98//98 97//97 81//81
f 99//99 98//98 82//82
f 100//100 99//99 83//83
