# spoke_front_18
v 0.9900371432304382 23.70417022705078 -27.79252052307129
v 1.0671945810317993 23.692663192749023 -27.790538787841797
v 1.134122371673584 23.65479278564453 -27.777265548706055
v 1.180631160736084 23.596324920654297 -27.75472640991211
v 1.1996405124664307 23.526159286499023 -27.726348876953125
v 1.1882563829421997 23.454980850219727 -27.696455001831055
v 1.14821195602417 23.393625259399414 -27.66959571838379
v 1.0856035947799683 23.351430892944336 -27.649860382080078
v 1.0099629163742065 23.334823608398438 -27.64025115966797
v 0.9328053593635559 23.346330642700195 -27.642234802246094
v 0.865877628326416 23.384201049804688 -27.655506134033203
v 0.8193687796592712 23.442668914794922 -27.67804718017578
v 0.8003594279289246 23.512834548950195 -27.706422805786133
v 0.8117435574531555 23.584012985229492 -27.736316680908203
v 0.8517879843711853 23.645368576049805 -27.76317596435547
v 0.914396345615387 23.687562942504883 -27.782913208007812
v 0.9900371432304382 23.70417022705078 -27.79252052307129
v 1.9900370836257935 35.18467330932617 -0.07613448798656464
v 2.067194700241089 35.17316436767578 -0.07415169477462769
v 2.134122371673584 35.13529586791992 -0.06087995320558548
v 2.180631160736084 35.07682800292969 -0.03833973780274391
v 2.1996405124664307 35.00666427612305 -0.009962611831724644
v 2.1882565021514893 34.93548583984375 0.01993127167224884
v 2.14821195602417 34.87412643432617 0.04679084196686745
v 2.085603713989258 34.83193588256836 0.06652696430683136
v 2.009962797164917 34.81532669067383 0.07613500207662582
v 1.9328054189682007 34.82683563232422 0.07415221631526947
v 1.865877628326416 34.86470413208008 0.06088046729564667
v 1.819368839263916 34.92317199707031 0.0383402518928051
v 1.8003594875335693 34.99333572387695 0.00996312778443098
v 1.8117436170578003 35.06451416015625 -0.019930755719542503
v 1.85178804397583 35.12587356567383 -0.04679032415151596
v 1.9143964052200317 35.168067932128906 -0.06652645021677017
v 1.9900370836257935 35.18467330932617 -0.07613448798656464
v 1 23.51949691772461 -27.716386795043945
v 1 23.51949691772461 -27.716386795043945
v 1 23.51949691772461 -27.716386795043945
v 1 23.51949691772461 -27.716386795043945
v 1 23.51949691772461 -27.716386795043945
v 1 23.51949691772461 -27.716386795043945
v 1 23.51949691772461 -27.716386795043945
v 1 23.51949691772461 -27.716386795043945
v 1 23.51949691772461 -27.716386795043945
v 1 23.51949691772461 -27.716386795043945
v 1 23.51949691772461 -27.716386795043945
v 1 23.51949691772461 -27.716386795043945
v 1 23.51949691772461 -27.716386795043945
v 1 23.51949691772461 -27.716386795043945
v 1 23.51949691772461 -27.716386795043945
v 1 23.51949691772461 -27.716386795043945
v 0.9900371432304382 23.70417022705078 -27.79252052307129
v 1.0671945810317993 23.692663192749023 -27.790538787841797
v 1.134122371673584 23.65479278564453 -27.777265548706055
v 1.180631160736084 23.596324920654297 -27.75472640991211
v 1.1996405124664307 23.526159286499023 -27.726348876953125
v 1.1882563829421997 23.454980850219727 -27.696455001831055
v 1.14821195602417 23.393625259399414 -27.66959571838379
v 1.0856035947799683 23.351430892944336 -27.649860382080078
v 1.0099629163742065 23.334823608398438 -27.64025115966797
v 0.9328053593635559 23.346330642700195 -27.642234802246094
v 0.865877628326416 23.384201049804688 -27.655506134033203
v 0.8193687796592712 23.442668914794922 -27.67804718017578
v 0.8003594279289246 23.512834548950195 -27.706422805786133
v 0.8117435574531555 23.584012985229492 -27.736316680908203
v 0.8517879843711853 23.645368576049805 -27.76317596435547
v 0.914396345615387 23.687562942504883 -27.782913208007812
v 0.9900371432304382 23.70417022705078 -27.79252052307129
v 2 35 2.5764191491362e-7
v 2 35 2.5764191491362e-7
v 2 35 2.5764191491362e-7
v 2 35 2.5764191491362e-7
v 2 35 2.5764191491362e-7
v 2 35 2.5764191491362e-7
v 2 35 2.5764191491362e-7
v 2 35 2.5764191491362e-7
v 2 35 2.5764191491362e-7
v 2 35 2.5764191491362e-7
v 2 35 2.5764191491362e-7
v 2 35 2.5764191491362e-7
v 2 35 2.5764191491362e-7
v 2 35 2.5764191491362e-7
v 2 35 2.5764191491362e-7
v 2 35 2.5764191491362e-7
v 1.9900370836257935 35.18467330932617 -0.07613448798656464
v 2.067194700241089 35.17316436767578 -0.07415169477462769
v 2.134122371673584 35.13529586791992 -0.06087995320558548
v 2.180631160736084 35.07682800292969 -0.03833973780274391
v 2.1996405124664307 35.00666427612305 -0.009962611831724644
v 2.1882565021514893 34.93548583984375 0.01993127167224884
v 2.14821195602417 34.87412643432617 0.04679084196686745
v 2.085603713989258 34.83193588256836 0.06652696430683136
v 2.009962797164917 34.81532669067383 0.07613500207662582
v 1.9328054189682007 34.82683563232422 0.07415221631526947
v 1.865877628326416 34.86470413208008 0.06088046729564667
v 1.819368839263916 34.92317199707031 0.0383402518928051
v 1.8003594875335693 34.99333572387695 0.00996312778443098
v 1.8117436170578003 35.06451416015625 -0.019930755719542503
v 1.85178804397583 35.12587356567383 -0.04679032415151596
v 1.9143964052200317 35.168067932128906 -0.06652645021677017
v 1.9900370836257935 35.18467330932617 -0.07613448798656464
vn -0.04981434717774391 0.9233666658401489 -0.38067370653152466
vn 0.33597317337989807 0.8658286333084106 -0.3707597851753235
vn 0.6706118583679199 0.676476001739502 -0.3044010400772095
vn 0.9031559228897095 0.38413602113723755 -0.19169998168945312
vn 0.9982026815414429 0.03331483155488968 -0.04981434717774391
vn 0.9412821531295776 -0.3225782513618469 0.09965506941080093
vn 0.7410599589347839 -0.6293616890907288 0.23395290970802307
vn 0.42801809310913086 -0.8403305411338806 0.33263352513313293
vn 0.04981434717774391 -0.9233666658401489 0.38067370653152466
vn -0.33597317337989807 -0.8658286333084106 0.3707597851753235
vn -0.6706118583679199 -0.676476001739502 0.3044010400772095
vn -0.9031559228897095 -0.38413602113723755 0.19169998168945312
vn -0.9982026815414429 -0.03331483155488968 0.04981434717774391
vn -0.9412821531295776 0.3225782513618469 -0.09965506941080093
vn -0.7410599589347839 0.6293616890907288 -0.23395290970802307
vn -0.42801809310913086 0.8403305411338806 -0.33263352513313293
vn -0.04981434717774391 0.9233666658401489 -0.38067370653152466
vn -0.04981434717774391 0.9233666658401489 -0.38067370653152466
vn 0.33597317337989807 0.8658286333084106 -0.3707597851753235
vn 0.6706118583679199 0.676476001739502 -0.3044010400772095
vn 0.9031559228897095 0.38413602113723755 -0.19169998168945312
vn 0.9982026815414429 0.03331483155488968 -0.04981434717774391
vn 0.9412821531295776 -0.3225782513618469 0.09965506941080093
vn 0.7410599589347839 -0.6293616890907288 0.23395290970802307
vn 0.42801809310913086 -0.8403305411338806 0.33263352513313293
vn 0.04981434717774391 -0.9233666658401489 0.38067370653152466
vn -0.33597317337989807 -0.8658286333084106 0.3707597851753235
vn -0.6706118583679199 -0.676476001739502 0.3044010400772095
vn -0.9031559228897095 -0.38413602113723755 0.19169998168945312
vn -0.9982026815414429 -0.03331483155488968 0.04981434717774391
vn -0.9412821531295776 0.3225782513618469 -0.09965506941080093
vn -0.7410599589347839 0.6293616890907288 -0.23395290970802307
vn -0.42801809310913086 0.8403305411338806 -0.33263352513313293
vn -0.04981434717774391 0.9233666658401489 -0.38067370653152466
vn -0.03331483155488968 -0.3824709951877594 -0.9233666658401489
vn -0.03331483155488968 -0.3824709951877594 -0.9233666658401489
vn -0.03331483155488968 -0.3824709951877594 -0.9233666658401489
vn -0.03331483155488968 -0.3824709951877594 -0.9233666658401489
vn -0.03331483155488968 -0.3824709951877594 -0.9233666658401489
vn -0.03331483155488968 -0.3824709951877594 -0.9233666658401489
vn -0.03331483155488968 -0.3824709951877594 -0.9233666658401489
vn -0.03331483155488968 -0.3824709951877594 -0.9233666658401489
vn -0.03331483155488968 -0.3824709951877594 -0.9233666658401489
vn -0.03331483155488968 -0.3824709951877594 -0.9233666658401489
vn -0.03331483155488968 -0.3824709951877594 -0.9233666658401489
vn -0.03331483155488968 -0.3824709951877594 -0.9233666658401489
vn -0.03331483155488968 -0.3824709951877594 -0.9233666658401489
vn -0.03331483155488968 -0.3824709951877594 -0.9233666658401489
vn -0.03331483155488968 -0.3824709951877594 -0.9233666658401489
vn -0.03331483155488968 -0.3824709951877594 -0.9233666658401489
vn -0.03331483155488968 -0.3824709951877594 -0.9233666658401489
vn -0.03331483155488968 -0.3824709951877594 -0.9233666658401489
vn -0.03331483155488968 -0.3824709951877594 -0.9233666658401489
vn -0.03331483155488968 -0.3824709951877594 -0.9233666658401489
vn -0.03331483155488968 -0.3824709951877594 -0.9233666658401489
vn -0.03331483155488968 -0.3824709951877594 -0.9233666658401489
vn -0.03331483155488968 -0.3824709951877594 -0.9233666658401489
vn -0.03331483155488968 -0.3824709951877594 -0.9233666658401489
vn -0.03331483155488968 -0.3824709951877594 -0.9233666658401489
vn -0.03331483155488968 -0.3824709951877594 -0.9233666658401489
vn -0.03331483155488968 -0.3824709951877594 -0.9233666658401489
vn -0.03331483155488968 -0.3824709951877594 -0.9233666658401489
vn -0.03331483155488968 -0.3824709951877594 -0.9233666658401489
vn -0.03331483155488968 -0.3824709951877594 -0.9233666658401489
vn -0.03331483155488968 -0.3824709951877594 -0.9233666658401489
vn -0.03331483155488968 -0.3824709951877594 -0.9233666658401489
vn -0.03331483155488968 -0.3824709951877594 -0.9233666658401489
vn 0.03331483155488968 0.3824709951877594 0.9233666658401489
vn 0.03331483155488968 0.3824709951877594 0.9233666658401489
vn 0.03331483155488968 0.3824709951877594 0.9233666658401489
vn 0.03331483155488968 0.3824709951877594 0.9233666658401489
vn 0.03331483155488968 0.3824709951877594 0.9233666658401489
vn 0.03331483155488968 0.3824709951877594 0.9233666658401489
vn 0.03331483155488968 0.3824709951877594 0.9233666658401489
vn 0.03331483155488968 0.3824709951877594 0.9233666658401489
vn 0.03331483155488968 0.3824709951877594 0.9233666658401489
vn 0.03331483155488968 0.3824709951877594 0.9233666658401489
vn 0.03331483155488968 0.3824709951877594 0.9233666658401489
vn 0.03331483155488968 0.3824709951877594 0.9233666658401489
vn 0.03331483155488968 0.3824709951877594 0.9233666658401489
vn 0.03331483155488968 0.3824709951877594 0.9233666658401489
vn 0.03331483155488968 0.3824709951877594 0.9233666658401489
vn 0.03331483155488968 0.3824709951877594 0.9233666658401489
vn 0.03331483155488968 0.3824709951877594 0.9233666658401489
vn 0.03331483155488968 0.3824709951877594 0.9233666658401489
vn 0.03331483155488968 0.3824709951877594 0.9233666658401489
vn 0.03331483155488968 0.3824709951877594 0.9233666658401489
vn 0.03331483155488968 0.3824709951877594 0.9233666658401489
vn 0.03331483155488968 0.3824709951877594 0.9233666658401489
vn 0.03331483155488968 0.3824709951877594 0.9233666658401489
vn 0.03331483155488968 0.3824709951877594 0.9233666658401489
vn 0.03331483155488968 0.3824709951877594 0.9233666658401489
vn 0.03331483155488968 0.3824709951877594 0.9233666658401489
vn 0.03331483155488968 0.3824709951877594 0.9233666658401489
vn 0.03331483155488968 0.3824709951877594 0.9233666658401489
vn 0.03331483155488968 0.3824709951877594 0.9233666658401489
vn 0.03331483155488968 0.3824709951877594 0.9233666658401489
vn 0.03331483155488968 0.3824709951877594 0.9233666658401489
vn 0.03331483155488968 0.3824709951877594 0.9233666658401489
vn 0.03331483155488968 0.3824709951877594 0.9233666658401489
f 1//1 18//18 2//2
f 18//18 19//19 2//2
f 2//2 19//19 3//3
f 19//19 20//20 3//3
f 3//3 20//20 4//4
f 20//20 21//21 4//4
f 4//4 21//21 5//5
f 21//21 22//22 5//5
f 5//5 22//22 6//6
f 22//22 23//23 6//6
f 6//6 23//23 7//7
f 23//23 24//24 7//7
f 7//7 24//24 8//8
f 24//24 25//25 8//8
f 8//8 25//25 9//9
f 25//25 26//26 9//9
f 9//9 26//26 10//10
f 26//26 27//27 10//10
f 10//10 27//27 11//11
f 27//27 28//28 11//11
f 11//11 28//28 12//12
f 28//28 29//29 12//12
f 12//12 29//29 13//13
f 29//29 30//30 13//13
f 13//13 30//30 14//14
f 30//30 31//31 14//14
f 14//14 31//31 15//15
f 31//31 32//32 15//15
f 15//15 32//32 16//16
f 32//32 33//33 16//16
f 16//16 33//33 17//17
f 33//33 34//34 17//17
f 51//51 52//52 35//35
f 52//52 53//53 36//36
f 53//53 54//54 37//37
f 54//54 55//55 38//38
f 55//55 56//56 39//39
f 56//56 57//57 40//40
f 57//57 58//58 41//41
f 58//58 59//59 42//42
f 59//59 60//60 43//43
f 60//60 61//61 44//44
f 61//61 62//62 45//45
f 62//62 63//63 46//46
f 63//63 64//64 47//47
f 64//64 65//65 48//48
f 65//65 66//66 49//49
f 66//66 67//67 50//50
f 85//85 84//84 68//68
f 86//86 85//85 69//69
f 87//87 86//86 70//70
f 88//88 87//87 71//71
f 89//89 88//88 72//72
f 90//90 89//89 73//73
f 91//91 90//90 74//74
f 92//92 91//91 75//75
f 93//93 92//92 76//76
f 94//94 93//93 77//77
f 95//95 94//94 78//78
f 96//96 95//95 79//79
f 97//97 96//96 80//80
f 98//98 97//97 81//81
f 99//99 98//98 82//82
f 100//100 99//99 83//83
