v -10.000000 0.000000 -12.500000
v 10.000000 0.000000 -12.500000
v 10.000000 2.000000 -12.500000
v -10.000000 2.000000 -12.500000
v -10.000000 0.000000 12.500000
v 10.000000 0.000000 12.500000
v 10.000000 2.000000 12.500000
v -10.000000 2.000000 12.500000
v -3.750000 36.144050 7.500000
v -3.750000 0.855950 7.500000
v -2.950000 36.144050 7.500000
v -2.950000 0.855950 7.500000
v -3.010896 36.144050 7.806147
v -3.010896 0.855950 7.806147
v -3.184315 36.144050 8.065685
v -3.184315 0.855950 8.065685
v -3.443853 36.144050 8.239104
v -3.443853 0.855950 8.239104
v -3.750000 36.144050 8.300000
v -3.750000 0.855950 8.300000
v -4.056147 36.144050 8.239104
v -4.056147 0.855950 8.239104
v -4.315685 36.144050 8.065685
v -4.315685 0.855950 8.065685
v -4.489104 36.144050 7.806147
v -4.489104 0.855950 7.806147
v -4.550000 36.144050 7.500000
v -4.550000 0.855950 7.500000
v -4.489104 36.144050 7.193853
v -4.489104 0.855950 7.193853
v -4.315685 36.144050 6.934315
v -4.315685 0.855950 6.934315
v -4.056147 36.144050 6.760896
v -4.056147 0.855950 6.760896
v -3.750000 36.144050 6.700000
v -3.750000 0.855950 6.700000
v -3.443853 36.144050 6.760896
v -3.443853 0.855950 6.760896
v -3.184315 36.144050 6.934315
v -3.184315 0.855950 6.934315
v -3.010896 36.144050 7.193853
v -3.010896 0.855950 7.193853
v 3.750000 36.144050 7.500000
v 3.750000 0.855950 7.500000
v 4.550000 36.144050 7.500000
v 4.550000 0.855950 7.500000
v 4.489104 36.144050 7.806147
v 4.489104 0.855950 7.806147
v 4.315685 36.144050 8.065685
v 4.315685 0.855950 8.065685
v 4.056147 36.144050 8.239104
v 4.056147 0.855950 8.239104
v 3.750000 36.144050 8.300000
v 3.750000 0.855950 8.300000
v 3.443853 36.144050 8.239104
v 3.443853 0.855950 8.239104
v 3.184315 36.144050 8.065685
v 3.184315 0.855950 8.065685
v 3.010896 36.144050 7.806147
v 3.010896 0.855950 7.806147
v 2.950000 36.144050 7.500000
v 2.950000 0.855950 7.500000
v 3.010896 36.144050 7.193853
v 3.010896 0.855950 7.193853
v 3.184315 36.144050 6.934315
v 3.184315 0.855950 6.934315
v 3.443853 36.144050 6.760896
v 3.443853 0.855950 6.760896
v 3.750000 36.144050 6.700000
v 3.750000 0.855950 6.700000
v 4.056147 36.144050 6.760896
v 4.056147 0.855950 6.760896
v 4.315685 36.144050 6.934315
v 4.315685 0.855950 6.934315
v 4.489104 36.144050 7.193853
v 4.489104 0.855950 7.193853
v -3.750000 36.144050 -7.500000
v -3.750000 0.855950 -7.500000
v -2.950000 36.144050 -7.500000
v -2.950000 0.855950 -7.500000
v -3.010896 36.144050 -7.193853
v -3.010896 0.855950 -7.193853
v -3.184315 36.144050 -6.934315
v -3.184315 0.855950 -6.934315
v -3.443853 36.144050 -6.760896
v -3.443853 0.855950 -6.760896
v -3.750000 36.144050 -6.700000
v -3.750000 0.855950 -6.700000
v -4.056147 36.144050 -6.760896
v -4.056147 0.855950 -6.760896
v -4.315685 36.144050 -6.934315
v -4.315685 0.855950 -6.934315
v -4.489104 36.144050 -7.193853
v -4.489104 0.855950 -7.193853
v -4.550000 36.144050 -7.500000
v -4.550000 0.855950 -7.500000
v -4.489104 36.144050 -7.806147
v -4.489104 0.855950 -7.806147
v -4.315685 36.144050 -8.065685
v -4.315685 0.855950 -8.065685
v -4.056147 36.144050 -8.239104
v -4.056147 0.855950 -8.239104
v -3.750000 36.144050 -8.300000
v -3.750000 0.855950 -8.300000
v -3.443853 36.144050 -8.239104
v -3.443853 0.855950 -8.239104
v -3.184315 36.144050 -8.065685
v -3.184315 0.855950 -8.065685
v -3.010896 36.144050 -7.806147
v -3.010896 0.855950 -7.806147
v 3.750000 36.144050 -7.500000
v 3.750000 0.855950 -7.500000
v 4.550000 36.144050 -7.500000
v 4.550000 0.855950 -7.500000
v 4.489104 36.144050 -7.193853
v 4.489104 0.855950 -7.193853
v 4.315685 36.144050 -6.934315
v 4.315685 0.855950 -6.934315
v 4.056147 36.144050 -6.760896
v 4.056147 0.855950 -6.760896
v 3.750000 36.144050 -6.700000
v 3.750000 0.855950 -6.700000
v 3.443853 36.144050 -6.760896
v 3.443853 0.855950 -6.760896
v 3.184315 36.144050 -6.934315
v 3.184315 0.855950 -6.934315
v 3.010896 36.144050 -7.193853
v 3.010896 0.855950 -7.193853
v 2.950000 36.144050 -7.500000
v 2.950000 0.855950 -7.500000
v 3.010896 36.144050 -7.806147
v 3.010896 0.855950 -7.806147
v 3.184315 36.144050 -8.065685
v 3.184315 0.855950 -8.065685
v 3.443853 36.144050 -8.239104
v 3.443853 0.855950 -8.239104
v 3.750000 36.144050 -8.300000
v 3.750000 0.855950 -8.300000
v 4.056147 36.144050 -8.239104
v 4.056147 0.855950 -8.239104
v 4.315685 36.144050 -8.065685
v 4.315685 0.855950 -8.065685
v 4.489104 36.144050 -7.806147
v 4.489104 0.855950 -7.806147
v 0.000000 25.000000 12.500000
v 0.000000 10.000000 12.500000
v 0.600000 25.000000 12.500000
v 0.600000 10.000000 12.500000
v 0.554328 25.000000 12.729610
v 0.554328 10.000000 12.729610
v 0.424264 25.000000 12.924264
v 0.424264 10.000000 12.924264
v 0.229610 25.000000 13.054328
v 0.229610 10.000000 13.054328
v 0.000000 25.000000 13.100000
v 0.000000 10.000000 13.100000
v -0.229610 25.000000 13.054328
v -0.229610 10.000000 13.054328
v -0.424264 25.000000 12.924264
v -0.424264 10.000000 12.924264
v -0.554328 25.000000 12.729610
v -0.554328 10.000000 12.729610
v -0.600000 25.000000 12.500000
v -0.600000 10.000000 12.500000
v -0.554328 25.000000 12.270390
v -0.554328 10.000000 12.270390
v -0.424264 25.000000 12.075736
v -0.424264 10.000000 12.075736
v -0.229610 25.000000 11.945672
v -0.229610 10.000000 11.945672
v -0.000000 25.000000 11.900000
v -0.000000 10.000000 11.900000
v 0.229610 25.000000 11.945672
v 0.229610 10.000000 11.945672
v 0.424264 25.000000 12.075736
v 0.424264 10.000000 12.075736
v 0.554328 25.000000 12.270390
v 0.554328 10.000000 12.270390
v 0.000000 25.000000 -12.500000
v 0.000000 10.000000 -12.500000
v 0.600000 25.000000 -12.500000
v 0.600000 10.000000 -12.500000
v 0.554328 25.000000 -12.270390
v 0.554328 10.000000 -12.270390
v 0.424264 25.000000 -12.075736
v 0.424264 10.000000 -12.075736
v 0.229610 25.000000 -11.945672
v 0.229610 10.000000 -11.945672
v 0.000000 25.000000 -11.900000
v 0.000000 10.000000 -11.900000
v -0.229610 25.000000 -11.945672
v -0.229610 10.000000 -11.945672
v -0.424264 25.000000 -12.075736
v -0.424264 10.000000 -12.075736
v -0.554328 25.000000 -12.270390
v -0.554328 10.000000 -12.270390
v -0.600000 25.000000 -12.500000
v -0.600000 10.000000 -12.500000
v -0.554328 25.000000 -12.729610
v -0.554328 10.000000 -12.729610
v -0.424264 25.000000 -12.924264
v -0.424264 10.000000 -12.924264
v -0.229610 25.000000 -13.054328
v -0.229610 10.000000 -13.054328
v -0.000000 25.000000 -13.100000
v -0.000000 10.000000 -13.100000
v 0.229610 25.000000 -13.054328
v 0.229610 10.000000 -13.054328
v 0.424264 25.000000 -12.924264
v 0.424264 10.000000 -12.924264
v 0.554328 25.000000 -12.729610
v 0.554328 10.000000 -12.729610
v -7.500000 30.000000 0.000000
v -7.500000 5.000000 0.000000
v -6.900000 30.000000 0.000000
v -6.900000 5.000000 0.000000
v -6.945672 30.000000 0.229610
v -6.945672 5.000000 0.229610
v -7.075736 30.000000 0.424264
v -7.075736 5.000000 0.424264
v -7.270390 30.000000 0.554328
v -7.270390 5.000000 0.554328
v -7.500000 30.000000 0.600000
v -7.500000 5.000000 0.600000
v -7.729610 30.000000 0.554328
v -7.729610 5.000000 0.554328
v -7.924264 30.000000 0.424264
v -7.924264 5.000000 0.424264
v -8.054328 30.000000 0.229610
v -8.054328 5.000000 0.229610
v -8.100000 30.000000 0.000000
v -8.100000 5.000000 0.000000
v -8.054328 30.000000 -0.229610
v -8.054328 5.000000 -0.229610
v -7.924264 30.000000 -0.424264
v -7.924264 5.000000 -0.424264
v -7.729610 30.000000 -0.554328
v -7.729610 5.000000 -0.554328
v -7.500000 30.000000 -0.600000
v -7.500000 5.000000 -0.600000
v -7.270390 30.000000 -0.554328
v -7.270390 5.000000 -0.554328
v -7.075736 30.000000 -0.424264
v -7.075736 5.000000 -0.424264
v -6.945672 30.000000 -0.229610
v -6.945672 5.000000 -0.229610
v 7.500000 30.000000 0.000000
v 7.500000 5.000000 0.000000
v 8.100000 30.000000 0.000000
v 8.100000 5.000000 0.000000
v 8.054328 30.000000 0.229610
v 8.054328 5.000000 0.229610
v 7.924264 30.000000 0.424264
v 7.924264 5.000000 0.424264
v 7.729610 30.000000 0.554328
v 7.729610 5.000000 0.554328
v 7.500000 30.000000 0.600000
v 7.500000 5.000000 0.600000
v 7.270390 30.000000 0.554328
v 7.270390 5.000000 0.554328
v 7.075736 30.000000 0.424264
v 7.075736 5.000000 0.424264
v 6.945672 30.000000 0.229610
v 6.945672 5.000000 0.229610
v 6.900000 30.000000 0.000000
v 6.900000 5.000000 0.000000
v 6.945672 30.000000 -0.229610
v 6.945672 5.000000 -0.229610
v 7.075736 30.000000 -0.424264
v 7.075736 5.000000 -0.424264
v 7.270390 30.000000 -0.554328
v 7.270390 5.000000 -0.554328
v 7.500000 30.000000 -0.600000
v 7.500000 5.000000 -0.600000
v 7.729610 30.000000 -0.554328
v 7.729610 5.000000 -0.554328
v 7.924264 30.000000 -0.424264
v 7.924264 5.000000 -0.424264
v 8.054328 30.000000 -0.229610
v 8.054328 5.000000 -0.229610
v -3.750000 34.000000 -3.500000
v 3.750000 34.000000 -3.500000
v 3.750000 36.000000 -3.500000
v -3.750000 36.000000 -3.500000
v -3.750000 34.000000 3.500000
v 3.750000 34.000000 3.500000
v 3.750000 36.000000 3.500000
v -3.750000 36.000000 3.500000
f 1 2 3
f 1 3 4
f 5 7 6
f 5 8 7
f 1 5 6
f 1 6 2
f 3 7 8
f 3 8 4
f 1 4 8
f 1 8 5
f 2 6 7
f 2 7 3
f 9 11 13
f 10 14 12
f 9 13 15
f 10 16 14
f 9 15 17
f 10 18 16
f 9 17 19
f 10 20 18
f 9 19 21
f 10 22 20
f 9 21 23
f 10 24 22
f 9 23 25
f 10 26 24
f 9 25 27
f 10 28 26
f 9 27 29
f 10 30 28
f 9 29 31
f 10 32 30
f 9 31 33
f 10 34 32
f 9 33 35
f 10 36 34
f 9 35 37
f 10 38 36
f 9 37 39
f 10 40 38
f 9 39 41
f 10 42 40
f 9 41 11
f 10 12 42
f 11 13 14
f 11 14 12
f 13 15 16
f 13 16 14
f 15 17 18
f 15 18 16
f 17 19 20
f 17 20 18
f 19 21 22
f 19 22 20
f 21 23 24
f 21 24 22
f 23 25 26
f 23 26 24
f 25 27 28
f 25 28 26
f 27 29 30
f 27 30 28
f 29 31 32
f 29 32 30
f 31 33 34
f 31 34 32
f 33 35 36
f 33 36 34
f 35 37 38
f 35 38 36
f 37 39 40
f 37 40 38
f 39 41 42
f 39 42 40
f 41 11 12
f 41 12 42
f 43 45 47
f 44 48 46
f 43 47 49
f 44 50 48
f 43 49 51
f 44 52 50
f 43 51 53
f 44 54 52
f 43 53 55
f 44 56 54
f 43 55 57
f 44 58 56
f 43 57 59
f 44 60 58
f 43 59 61
f 44 62 60
f 43 61 63
f 44 64 62
f 43 63 65
f 44 66 64
f 43 65 67
f 44 68 66
f 43 67 69
f 44 70 68
f 43 69 71
f 44 72 70
f 43 71 73
f 44 74 72
f 43 73 75
f 44 76 74
f 43 75 45
f 44 46 76
f 45 47 48
f 45 48 46
f 47 49 50
f 47 50 48
f 49 51 52
f 49 52 50
f 51 53 54
f 51 54 52
f 53 55 56
f 53 56 54
f 55 57 58
f 55 58 56
f 57 59 60
f 57 60 58
f 59 61 62
f 59 62 60
f 61 63 64
f 61 64 62
f 63 65 66
f 63 66 64
f 65 67 68
f 65 68 66
f 67 69 70
f 67 70 68
f 69 71 72
f 69 72 70
f 71 73 74
f 71 74 72
f 73 75 76
f 73 76 74
f 75 45 46
f 75 46 76
f 77 79 81
f 78 82 80
f 77 81 83
f 78 84 82
f 77 83 85
f 78 86 84
f 77 85 87
f 78 88 86
f 77 87 89
f 78 90 88
f 77 89 91
f 78 92 90
f 77 91 93
f 78 94 92
f 77 93 95
f 78 96 94
f 77 95 97
f 78 98 96
f 77 97 99
f 78 100 98
f 77 99 101
f 78 102 100
f 77 101 103
f 78 104 102
f 77 103 105
f 78 106 104
f 77 105 107
f 78 108 106
f 77 107 109
f 78 110 108
f 77 109 79
f 78 80 110
f 79 81 82
f 79 82 80
f 81 83 84
f 81 84 82
f 83 85 86
f 83 86 84
f 85 87 88
f 85 88 86
f 87 89 90
f 87 90 88
f 89 91 92
f 89 92 90
f 91 93 94
f 91 94 92
f 93 95 96
f 93 96 94
f 95 97 98
f 95 98 96
f 97 99 100
f 97 100 98
f 99 101 102
f 99 102 100
f 101 103 104
f 101 104 102
f 103 105 106
f 103 106 104
f 105 107 108
f 105 108 106
f 107 109 110
f 107 110 108
f 109 79 80
f 109 80 110
f 111 113 115
f 112 116 114
f 111 115 117
f 112 118 116
f 111 117 119
f 112 120 118
f 111 119 121
f 112 122 120
f 111 121 123
f 112 124 122
f 111 123 125
f 112 126 124
f 111 125 127
f 112 128 126
f 111 127 129
f 112 130 128
f 111 129 131
f 112 132 130
f 111 131 133
f 112 134 132
f 111 133 135
f 112 136 134
f 111 135 137
f 112 138 136
f 111 137 139
f 112 140 138
f 111 139 141
f 112 142 140
f 111 141 143
f 112 144 142
f 111 143 113
f 112 114 144
f 113 115 116
f 113 116 114
f 115 117 118
f 115 118 116
f 117 119 120
f 117 120 118
f 119 121 122
f 119 122 120
f 121 123 124
f 121 124 122
f 123 125 126
f 123 126 124
f 125 127 128
f 125 128 126
f 127 129 130
f 127 130 128
f 129 131 132
f 129 132 130
f 131 133 134
f 131 134 132
f 133 135 136
f 133 136 134
f 135 137 138
f 135 138 136
f 137 139 140
f 137 140 138
f 139 141 142
f 139 142 140
f 141 143 144
f 141 144 142
f 143 113 114
f 143 114 144
f 145 147 149
f 146 150 148
f 145 149 151
f 146 152 150
f 145 151 153
f 146 154 152
f 145 153 155
f 146 156 154
f 145 155 157
f 146 158 156
f 145 157 159
f 146 160 158
f 145 159 161
f 146 162 160
f 145 161 163
f 146 164 162
f 145 163 165
f 146 166 164
f 145 165 167
f 146 168 166
f 145 167 169
f 146 170 168
f 145 169 171
f 146 172 170
f 145 171 173
f 146 174 172
f 145 173 175
f 146 176 174
f 145 175 177
f 146 178 176
f 145 177 147
f 146 148 178
f 147 149 150
f 147 150 148
f 149 151 152
f 149 152 150
f 151 153 154
f 151 154 152
f 153 155 156
f 153 156 154
f 155 157 158
f 155 158 156
f 157 159 160
f 157 160 158
f 159 161 162
f 159 162 160
f 161 163 164
f 161 164 162
f 163 165 166
f 163 166 164
f 165 167 168
f 165 168 166
f 167 169 170
f 167 170 168
f 169 171 172
f 169 172 170
f 171 173 174
f 171 174 172
f 173 175 176
f 173 176 174
f 175 177 178
f 175 178 176
f 177 147 148
f 177 148 178
f 179 181 183
f 180 184 182
f 179 183 185
f 180 186 184
f 179 185 187
f 180 188 186
f 179 187 189
f 180 190 188
f 179 189 191
f 180 192 190
f 179 191 193
f 180 194 192
f 179 193 195
f 180 196 194
f 179 195 197
f 180 198 196
f 179 197 199
f 180 200 198
f 179 199 201
f 180 202 200
f 179 201 203
f 180 204 202
f 179 203 205
f 180 206 204
f 179 205 207
f 180 208 206
f 179 207 209
f 180 210 208
f 179 209 211
f 180 212 210
f 179 211 181
f 180 182 212
f 181 183 184
f 181 184 182
f 183 185 186
f 183 186 184
f 185 187 188
f 185 188 186
f 187 189 190
f 187 190 188
f 189 191 192
f 189 192 190
f 191 193 194
f 191 194 192
f 193 195 196
f 193 196 194
f 195 197 198
f 195 198 196
f 197 199 200
f 197 200 198
f 199 201 202
f 199 202 200
f 201 203 204
f 201 204 202
f 203 205 206
f 203 206 204
f 205 207 208
f 205 208 206
f 207 209 210
f 207 210 208
f 209 211 212
f 209 212 210
f 211 181 182
f 211 182 212
f 213 215 217
f 214 218 216
f 213 217 219
f 214 220 218
f 213 219 221
f 214 222 220
f 213 221 223
f 214 224 222
f 213 223 225
f 214 226 224
f 213 225 227
f 214 228 226
f 213 227 229
f 214 230 228
f 213 229 231
f 214 232 230
f 213 231 233
f 214 234 232
f 213 233 235
f 214 236 234
f 213 235 237
f 214 238 236
f 213 237 239
f 214 240 238
f 213 239 241
f 214 242 240
f 213 241 243
f 214 244 242
f 213 243 245
f 214 246 244
f 213 245 215
f 214 216 246
f 215 217 218
f 215 218 216
f 217 219 220
f 217 220 218
f 219 221 222
f 219 222 220
f 221 223 224
f 221 224 222
f 223 225 226
f 223 226 224
f 225 227 228
f 225 228 226
f 227 229 230
f 227 230 228
f 229 231 232
f 229 232 230
f 231 233 234
f 231 234 232
f 233 235 236
f 233 236 234
f 235 237 238
f 235 238 236
f 237 239 240
f 237 240 238
f 239 241 242
f 239 242 240
f 241 243 244
f 241 244 242
f 243 245 246
f 243 246 244
f 245 215 216
f 245 216 246
f 247 249 251
f 248 252 250
f 247 251 253
f 248 254 252
f 247 253 255
f 248 256 254
f 247 255 257
f 248 258 256
f 247 257 259
f 248 260 258
f 247 259 261
f 248 262 260
f 247 261 263
f 248 264 262
f 247 263 265
f 248 266 264
f 247 265 267
f 248 268 266
f 247 267 269
f 248 270 268
f 247 269 271
f 248 272 270
f 247 271 273
f 248 274 272
f 247 273 275
f 248 276 274
f 247 275 277
f 248 278 276
f 247 277 279
f 248 280 278
f 247 279 249
f 248 250 280
f 249 251 252
f 249 252 250
f 251 253 254
f 251 254 252
f 253 255 256
f 253 256 254
f 255 257 258
f 255 258 256
f 257 259 260
f 257 260 258
f 259 261 262
f 259 262 260
f 261 263 264
f 261 264 262
f 263 265 266
f 263 266 264
f 265 267 268
f 265 268 266
f 267 269 270
f 267 270 268
f 269 271 272
f 269 272 270
f 271 273 274
f 271 274 272
f 273 275 276
f 273 276 274
f 275 277 278
f 275 278 276
f 277 279 280
f 277 280 278
f 279 249 250
f 279 250 280
f 281 282 283
f 281 283 284
f 285 287 286
f 285 288 287
f 281 285 286
f 281 286 282
f 283 287 288
f 283 288 284
f 281 284 288
f 281 288 285
f 282 286 287
f 282 287 283
