o spoke_front_3
v 1.2331040524015446 51.14233008945125 69.21769873601778
v 1.308627765681838 51.15921251843692 69.22773890291637
v 1.3709679222939455 51.2016227318569 69.24785544996931
v 1.4106335312895837 51.26310607490255 69.27498950052201
v 1.4215859929811436 51.33430200899371 69.3050040060541
v 1.4021579471795356 51.40437101012908 69.33333250141676
v 1.355306947763146 51.46264601980597 69.3556623127484
v 1.2881658177937716 51.500255667214816 69.36859466004758
v 1.2109560054222799 51.511473559904275 69.37015928845712
v 1.1354321986275606 51.49459271395499 69.36011806005847
v 1.073092042015453 51.452182500535 69.34000151300555
v 1.0334264669721316 51.39069757246725 69.31286852289188
v 1.0224740052805716 51.319501638376096 69.2828540173598
v 1.0419021106442887 51.24943263922644 69.25452552305813
v 1.0887530504985692 51.191157627563825 69.2321957106655
v 1.1558942995921617 51.153547984126426 69.21926336548833
v 1.2331040524015446 51.14233008945125 69.21769873601778
v 2.343627578377095 62.64977639368488 41.51669752744807
v 2.4191515504628924 62.66665787093208 41.5267383406534
v 2.4814917098601508 62.70906795433072 41.54685497469547
v 2.5211572950493792 62.770552408749296 41.57398828169814
v 2.532109648061037 62.841747851288964 41.60400311131749
v 2.5126816070671296 62.91181662798273 41.63233175683998
v 2.4658306099716993 62.970091529308505 41.65466164066257
v 2.3986893600823493 63.00770120989486 41.667593960985684
v 2.3214796672329547 63.01891908798129 41.66915860394426
v 2.245955933395594 63.002037618676965 41.65911779498296
v 2.183615773998336 62.95962753527832 41.63900116094089
v 2.1439501887427945 62.8981430839555 41.61186785186705
v 2.132997716640075 62.826947635896516 41.58185302116128
v 2.152425757600825 62.75687886075062 41.5535243746032
v 2.1992767547625687 62.6986039563291 41.53119449285179
v 2.2664178855277 62.6609942717713 41.51826217040664
v 2.343627578377095 62.64977639368488 41.51669752744807
v 1.222030011935754 51.32690261718881 69.29392848201793
v 1.222030011935754 51.32690261718881 69.29392848201793
v 1.222030011935754 51.32690261718881 69.29392848201793
v 1.222030011935754 51.32690261718881 69.29392848201793
v 1.222030011935754 51.32690261718881 69.29392848201793
v 1.222030011935754 51.32690261718881 69.29392848201793
v 1.222030011935754 51.32690261718881 69.29392848201793
v 1.222030011935754 51.32690261718881 69.29392848201793
v 1.222030011935754 51.32690261718881 69.29392848201793
v 1.222030011935754 51.32690261718881 69.29392848201793
v 1.222030011935754 51.32690261718881 69.29392848201793
v 1.222030011935754 51.32690261718881 69.29392848201793
v 1.222030011935754 51.32690261718881 69.29392848201793
v 1.222030011935754 51.32690261718881 69.29392848201793
v 1.222030011935754 51.32690261718881 69.29392848201793
v 1.222030011935754 51.32690261718881 69.29392848201793
v 1.2331040524015446 51.14233008945125 69.21769873601778
v 1.308627765681838 51.15921251843692 69.22773890291637
v 1.3709679222939455 51.2016227318569 69.24785544996931
v 1.4106335312895837 51.26310607490255 69.27498950052201
v 1.4215859929811436 51.33430200899371 69.3050040060541
v 1.4021579471795356 51.40437101012908 69.33333250141676
v 1.355306947763146 51.46264601980597 69.3556623127484
v 1.2881658177937716 51.500255667214816 69.36859466004758
v 1.2109560054222799 51.511473559904275 69.37015928845712
v 1.1354321986275606 51.49459271395499 69.36011806005847
v 1.073092042015453 51.452182500535 69.34000151300555
v 1.0334264669721316 51.39069757246725 69.31286852289188
v 1.0224740052805716 51.319501638376096 69.2828540173598
v 1.0419021106442887 51.24943263922644 69.25452552305813
v 1.0887530504985692 51.191157627563825 69.2321957106655
v 1.1558942995921617 51.153547984126426 69.21926336548833
v 1.2331040524015446 51.14233008945125 69.21769873601778
v 2.3325536823510493 62.83434774356971 41.592928066254785
v 2.3325536823510493 62.83434774356971 41.592928066254785
v 2.3325536823510493 62.83434774356971 41.592928066254785
v 2.3325536823510493 62.83434774356971 41.592928066254785
v 2.3325536823510493 62.83434774356971 41.592928066254785
v 2.3325536823510493 62.83434774356971 41.592928066254785
v 2.3325536823510493 62.83434774356971 41.592928066254785
v 2.3325536823510493 62.83434774356971 41.592928066254785
v 2.3325536823510493 62.83434774356971 41.592928066254785
v 2.3325536823510493 62.83434774356971 41.592928066254785
v 2.3325536823510493 62.83434774356971 41.592928066254785
v 2.3325536823510493 62.83434774356971 41.592928066254785
v 2.3325536823510493 62.83434774356971 41.592928066254785
v 2.3325536823510493 62.83434774356971 41.592928066254785
v 2.3325536823510493 62.83434774356971 41.592928066254785
v 2.3325536823510493 62.83434774356971 41.592928066254785
v 2.343627578377095 62.64977639368488 41.51669752744807
v 2.4191515504628924 62.66665787093208 41.5267383406534
v 2.4814917098601508 62.70906795433072 41.54685497469547
v 2.5211572950493792 62.770552408749296 41.57398828169814
v 2.532109648061037 62.841747851288964 41.60400311131749
v 2.5126816070671296 62.91181662798273 41.63233175683998
v 2.4658306099716993 62.970091529308505 41.65466164066257
v 2.3986893600823493 63.00770120989486 41.667593960985684
v 2.3214796672329547 63.01891908798129 41.66915860394426
v 2.245955933395594 63.002037618676965 41.65911779498296
v 2.183615773998336 62.95962753527832 41.63900116094089
v 2.1439501887427945 62.8981430839555 41.61186785186705
v 2.132997716640075 62.826947635896516 41.58185302116128
v 2.152425757600825 62.75687886075062 41.5535243746032
v 2.1992767547625687 62.6986039563291 41.53119449285179
v 2.2664178855277 62.6609942717713 41.51826217040664
v 2.343627578377095 62.64977639368488 41.51669752744807
vt 0 1
vt 0.0625 1
vt 0.125 1
vt 0.1875 1
vt 0.25 1
vt 0.3125 1
vt 0.375 1
vt 0.4375 1
vt 0.5 1
vt 0.5625 1
vt 0.625 1
vt 0.6875 1
vt 0.75 1
vt 0.8125 1
vt 0.875 1
vt 0.9375 1
vt 1 1
vt 0 0
vt 0.0625 0
vt 0.125 0
vt 0.1875 0
vt 0.25 0
vt 0.3125 0
vt 0.375 0
vt 0.4375 0
vt 0.5 0
vt 0.5625 0
vt 0.625 0
vt 0.6875 0
vt 0.75 0
vt 0.8125 0
vt 0.875 0
vt 0.9375 0
vt 1 0
vt 0.5 0.5
vt 0.5 0.5
vt 0.5 0.5
vt 0.5 0.5
vt 0.5 0.5
vt 0.5 0.5
vt 0.5 0.5
vt 0.5 0.5
vt 0.5 0.5
vt 0.5 0.5
vt 0.5 0.5
vt 0.5 0.5
vt 0.5 0.5
vt 0.5 0.5
vt 0.5 0.5
vt 0.5 0.5
vt 1 0.5
vt 0.9619397521018982 0.6913416981697083
vt 0.8535534143447876 0.8535534143447876
vt 0.6913416981697083 0.9619397521018982
vt 0.5 1
vt 0.30865827202796936 0.9619397521018982
vt 0.1464466154575348 0.8535534143447876
vt 0.03806023299694061 0.6913416981697083
vt 0 0.5
vt 0.03806023299694061 0.30865827202796936
vt 0.1464466154575348 0.1464466154575348
vt 0.30865827202796936 0.03806023299694061
vt 0.5 0
vt 0.6913416981697083 0.03806023299694061
vt 0.8535534143447876 0.1464466154575348
vt 0.9619397521018982 0.30865827202796936
vt 1 0.5
vt 0.5 0.5
vt 0.5 0.5
vt 0.5 0.5
vt 0.5 0.5
vt 0.5 0.5
vt 0.5 0.5
vt 0.5 0.5
vt 0.5 0.5
vt 0.5 0.5
vt 0.5 0.5
vt 0.5 0.5
vt 0.5 0.5
vt 0.5 0.5
vt 0.5 0.5
vt 0.5 0.5
vt 0.5 0.5
vt 1 0.5
vt 0.9619397521018982 0.30865827202796936
vt 0.8535534143447876 0.1464466154575348
vt 0.6913416981697083 0.03806023299694061
vt 0.5 0
vt 0.30865827202796936 0.03806023299694061
vt 0.1464466154575348 0.1464466154575348
vt 0.03806023299694061 0.30865827202796936
vt 0 0.5
vt 0.03806023299694061 0.6913416981697083
vt 0.1464466154575348 0.8535534143447876
vt 0.30865827202796936 0.9619397521018982
vt 0.5 1
vt 0.6913416981697083 0.9619397521018982
vt 0.8535534143447876 0.8535534143447876
vt 0.9619397521018982 0.6913416981697083
vt 1 0.5
vn 0.05536978592969185 -0.9228541467137208 -0.3811488038803098
vn 0.43298897887865484 -0.8384479531230163 -0.3309464821892566
vn 0.7446895170342922 -0.6263956679259703 -0.23036056611931235
vn 0.9430178466159542 -0.31898030158345464 -0.09470431967728396
vn 0.9977802440436438 0.036996907911007126 0.05536978780193278
vn 0.9006396448685289 0.3873416720069818 0.19701436297368274
vn 0.6663848235187617 0.6787171887569466 0.3086652631407303
vn 0.3306789689772212 0.8667641657725544 0.37332465818476257
vn -0.05536978592969185 0.9228541467137208 0.3811488038803098
vn -0.43298897887865484 0.8384479531230163 0.3309464821892566
vn -0.7446895170342922 0.6263956679259703 0.23036056611931235
vn -0.9430178466159542 0.31898030158345464 0.09470431967728396
vn -0.9977802440436438 -0.036996907911007126 -0.05536978780193278
vn -0.9006396448685289 -0.3873416720069818 -0.19701436297368274
vn -0.6663848235187617 -0.6787171887569466 -0.3086652631407303
vn -0.3306789689772212 -0.8667641657725544 -0.37332465818476257
vn 0.05536978592969185 -0.9228541467137208 -0.3811488038803098
vn 0.05536978592969185 -0.9228541467137208 -0.3811488038803098
vn 0.43298897887865484 -0.8384479531230163 -0.3309464821892566
vn 0.7446895170342922 -0.6263956679259703 -0.23036056611931235
vn 0.9430178466159542 -0.31898030158345464 -0.09470431967728396
vn 0.9977802440436438 0.036996907911007126 0.05536978780193278
vn 0.9006396448685289 0.3873416720069818 0.19701436297368274
vn 0.6663848235187617 0.6787171887569466 0.3086652631407303
vn 0.3306789689772212 0.8667641657725544 0.37332465818476257
vn -0.05536978592969185 0.9228541467137208 0.3811488038803098
vn -0.43298897887865484 0.8384479531230163 0.3309464821892566
vn -0.7446895170342922 0.6263956679259703 0.23036056611931235
vn -0.9430178466159542 0.31898030158345464 0.09470431967728396
vn -0.9977802440436438 -0.036996907911007126 -0.05536978780193278
vn -0.9006396448685289 -0.3873416720069818 -0.19701436297368274
vn -0.6663848235187617 -0.6787171887569466 -0.3086652631407303
vn -0.3306789689772212 -0.8667641657725544 -0.37332465818476257
vn 0.05536978592969185 -0.9228541467137208 -0.3811488038803098
vn -0.036996908956455354 -0.3833685741169452 0.9228541407542191
vn -0.036996908956455354 -0.3833685741169452 0.9228541407542191
vn -0.036996908956455354 -0.3833685741169452 0.9228541407542191
vn -0.036996908956455354 -0.3833685741169452 0.9228541407542191
vn -0.036996908956455354 -0.3833685741169452 0.9228541407542191
vn -0.036996908956455354 -0.3833685741169452 0.9228541407542191
vn -0.036996908956455354 -0.3833685741169452 0.9228541407542191
vn -0.036996908956455354 -0.3833685741169452 0.9228541407542191
vn -0.036996908956455354 -0.3833685741169452 0.9228541407542191
vn -0.036996908956455354 -0.3833685741169452 0.9228541407542191
vn -0.036996908956455354 -0.3833685741169452 0.9228541407542191
vn -0.036996908956455354 -0.3833685741169452 0.9228541407542191
vn -0.036996908956455354 -0.3833685741169452 0.9228541407542191
vn -0.036996908956455354 -0.3833685741169452 0.9228541407542191
vn -0.036996908956455354 -0.3833685741169452 0.9228541407542191
vn -0.036996908956455354 -0.3833685741169452 0.9228541407542191
vn -0.036996908956455354 -0.3833685741169452 0.9228541407542191
vn -0.036996908956455354 -0.3833685741169452 0.9228541407542191
vn -0.036996908956455354 -0.3833685741169452 0.9228541407542191
vn -0.036996908956455354 -0.3833685741169452 0.9228541407542191
vn -0.036996908956455354 -0.3833685741169452 0.9228541407542191
vn -0.036996908956455354 -0.3833685741169452 0.9228541407542191
vn -0.036996908956455354 -0.3833685741169452 0.9228541407542191
vn -0.036996908956455354 -0.3833685741169452 0.9228541407542191
vn -0.036996908956455354 -0.3833685741169452 0.9228541407542191
vn -0.036996908956455354 -0.3833685741169452 0.9228541407542191
vn -0.036996908956455354 -0.3833685741169452 0.9228541407542191
vn -0.036996908956455354 -0.3833685741169452 0.9228541407542191
vn -0.036996908956455354 -0.3833685741169452 0.9228541407542191
vn -0.036996908956455354 -0.3833685741169452 0.9228541407542191
vn -0.036996908956455354 -0.3833685741169452 0.9228541407542191
vn -0.036996908956455354 -0.3833685741169452 0.9228541407542191
vn -0.036996908956455354 -0.3833685741169452 0.9228541407542191
vn 0.036996908956455354 0.3833685741169452 -0.9228541407542191
vn 0.036996908956455354 0.3833685741169452 -0.9228541407542191
vn 0.036996908956455354 0.3833685741169452 -0.9228541407542191
vn 0.036996908956455354 0.3833685741169452 -0.9228541407542191
vn 0.036996908956455354 0.3833685741169452 -0.9228541407542191
vn 0.036996908956455354 0.3833685741169452 -0.9228541407542191
vn 0.036996908956455354 0.3833685741169452 -0.9228541407542191
vn 0.036996908956455354 0.3833685741169452 -0.9228541407542191
vn 0.036996908956455354 0.3833685741169452 -0.9228541407542191
vn 0.036996908956455354 0.3833685741169452 -0.9228541407542191
vn 0.036996908956455354 0.3833685741169452 -0.9228541407542191
vn 0.036996908956455354 0.3833685741169452 -0.9228541407542191
vn 0.036996908956455354 0.3833685741169452 -0.9228541407542191
vn 0.036996908956455354 0.3833685741169452 -0.9228541407542191
vn 0.036996908956455354 0.3833685741169452 -0.9228541407542191
vn 0.036996908956455354 0.3833685741169452 -0.9228541407542191
vn 0.036996908956455354 0.3833685741169452 -0.9228541407542191
vn 0.036996908956455354 0.3833685741169452 -0.9228541407542191
vn 0.036996908956455354 0.3833685741169452 -0.9228541407542191
vn 0.036996908956455354 0.3833685741169452 -0.9228541407542191
vn 0.036996908956455354 0.3833685741169452 -0.9228541407542191
vn 0.036996908956455354 0.3833685741169452 -0.9228541407542191
vn 0.036996908956455354 0.3833685741169452 -0.9228541407542191
vn 0.036996908956455354 0.3833685741169452 -0.9228541407542191
vn 0.036996908956455354 0.3833685741169452 -0.9228541407542191
vn 0.036996908956455354 0.3833685741169452 -0.9228541407542191
vn 0.036996908956455354 0.3833685741169452 -0.9228541407542191
vn 0.036996908956455354 0.3833685741169452 -0.9228541407542191
vn 0.036996908956455354 0.3833685741169452 -0.9228541407542191
vn 0.036996908956455354 0.3833685741169452 -0.9228541407542191
vn 0.036996908956455354 0.3833685741169452 -0.9228541407542191
vn 0.036996908956455354 0.3833685741169452 -0.9228541407542191
vn 0.036996908956455354 0.3833685741169452 -0.9228541407542191
f 1/1/1 18/18/18 2/2/2
f 18/18/18 19/19/19 2/2/2
f 2/2/2 19/19/19 3/3/3
f 19/19/19 20/20/20 3/3/3
f 3/3/3 20/20/20 4/4/4
f 20/20/20 21/21/21 4/4/4
f 4/4/4 21/21/21 5/5/5
f 21/21/21 22/22/22 5/5/5
f 5/5/5 22/22/22 6/6/6
f 22/22/22 23/23/23 6/6/6
f 6/6/6 23/23/23 7/7/7
f 23/23/23 24/24/24 7/7/7
f 7/7/7 24/24/24 8/8/8
f 24/24/24 25/25/25 8/8/8
f 8/8/8 25/25/25 9/9/9
f 25/25/25 26/26/26 9/9/9
f 9/9/9 26/26/26 10/10/10
f 26/26/26 27/27/27 10/10/10
f 10/10/10 27/27/27 11/11/11
f 27/27/27 28/28/28 11/11/11
f 11/11/11 28/28/28 12/12/12
f 28/28/28 29/29/29 12/12/12
f 12/12/12 29/29/29 13/13/13
f 29/29/29 30/30/30 13/13/13
f 13/13/13 30/30/30 14/14/14
f 30/30/30 31/31/31 14/14/14
f 14/14/14 31/31/31 15/15/15
f 31/31/31 32/32/32 15/15/15
f 15/15/15 32/32/32 16/16/16
f 32/32/32 33/33/33 16/16/16
f 16/16/16 33/33/33 17/17/17
f 33/33/33 34/34/34 17/17/17
f 51/51/51 52/52/52 35/35/35
f 52/52/52 53/53/53 36/36/36
f 53/53/53 54/54/54 37/37/37
f 54/54/54 55/55/55 38/38/38
f 55/55/55 56/56/56 39/39/39
f 56/56/56 57/57/57 40/40/40
f 57/57/57 58/58/58 41/41/41
f 58/58/58 59/59/59 42/42/42
f 59/59/59 60/60/60 43/43/43
f 60/60/60 61/61/61 44/44/44
f 61/61/61 62/62/62 45/45/45
f 62/62/62 63/63/63 46/46/46
f 63/63/63 64/64/64 47/47/47
f 64/64/64 65/65/65 48/48/48
f 65/65/65 66/66/66 49/49/49
f 66/66/66 67/67/67 50/50/50
f 85/85/85 84/84/84 68/68/68
f 86/86/86 85/85/85 69/69/69
f 87/87/87 86/86/86 70/70/70
f 88/88/88 87/87/87 71/71/71
f 89/89/89 88/88/88 72/72/72
f 90/90/90 89/89/89 73/73/73
f 91/91/91 90/90/90 74/74/74
f 92/92/92 91/91/91 75/75/75
f 93/93/93 92/92/92 76/76/76
f 94/94/94 93/93/93 77/77/77
f 95/95/95 94/94/94 78/78/78
f 96/96/96 95/95/95 79/79/79
f 97/97/97 96/96/96 80/80/80
f 98/98/98 97/97/97 81/81/81
f 99/99/99 98/98/98 82/82/82
f 100/100/100 99/99/99 83/83/83
