# Object: support_leg_front_left
o support_leg_front_left
v 0.02489890344440937 35.226707458496094 3.266801357269287
v 0.3220040798187256 35.14438247680664 3.2179605960845947
v 0.5700870752334595 35.040077209472656 3.059816598892212
v 0.731379508972168 34.92967224121094 2.8164455890655518
v 0.7813260555267334 34.82997131347656 2.5248985290527344
v 0.7123227715492249 34.75615692138672 2.2295610904693604
v 0.5348749160766602 34.71946716308594 1.9753952026367188
v 0.275997132062912 34.725486755371094 1.8010958433151245
v -0.024898644536733627 34.77329635620117 1.7331981658935547
v -0.3220038115978241 34.855621337890625 1.7820391654968262
v -0.5700868368148804 34.959922790527344 1.9401830434799194
v -0.7313792109489441 35.07033157348633 2.183554172515869
v -0.7813258171081543 35.17002868652344 2.4751009941101074
v -0.7123225331306458 35.24384307861328 2.7704386711120605
v -0.534874677658081 35.28053283691406 3.024604320526123
v -0.2759968936443329 35.27451705932617 3.198903799057007
v 0.02489890344440937 35.226707458496094 3.266801357269287
v -7.475101470947266 2.2267048358917236 13.266801834106445
v -7.1779961585998535 2.144380569458008 13.217961311340332
v -6.92991304397583 2.0400755405426025 13.05981731414795
v -6.76862096786499 1.9296694993972778 12.816446304321289
v -6.718674182891846 1.8299704790115356 12.524898529052734
v -6.78767728805542 1.7561568021774292 12.229561805725098
v -6.965125560760498 1.7194658517837524 11.975395202636719
v -7.224003314971924 1.725483775138855 11.801095962524414
v -7.524899005889893 1.7732940912246704 11.733198165893555
v -7.8220038414001465 1.8556183576583862 11.782039642333984
v -8.070087432861328 1.959923267364502 11.940183639526367
v -8.231379508972168 2.070329427719116 12.183554649353027
v -8.281326293945312 2.1700284481048584 12.475101470947266
v -8.212323188781738 2.243842124938965 12.770439147949219
v -8.03487491607666 2.2805330753326416 13.024604797363281
v -7.775997161865234 2.274515151977539 13.198904037475586
v -7.475101470947266 2.2267048358917236 13.266801834106445
v 1.295515943411374e-7 35 2.499999761581421
v 1.295515943411374e-7 35 2.499999761581421
v 1.295515943411374e-7 35 2.499999761581421
v 1.295515943411374e-7 35 2.499999761581421
v 1.295515943411374e-7 35 2.499999761581421
v 1.295515943411374e-7 35 2.499999761581421
v 1.295515943411374e-7 35 2.499999761581421
v 1.295515943411374e-7 35 2.499999761581421
v 1.295515943411374e-7 35 2.499999761581421
v 1.295515943411374e-7 35 2.499999761581421
v 1.295515943411374e-7 35 2.499999761581421
v 1.295515943411374e-7 35 2.499999761581421
v 1.295515943411374e-7 35 2.499999761581421
v 1.295515943411374e-7 35 2.499999761581421
v 1.295515943411374e-7 35 2.499999761581421
v 1.295515943411374e-7 35 2.499999761581421
v 0.02489890344440937 35.226707458496094 3.266801357269287
v 0.3220040798187256 35.14438247680664 3.2179605960845947
v 0.5700870752334595 35.040077209472656 3.059816598892212
v 0.731379508972168 34.92967224121094 2.8164455890655518
v 0.7813260555267334 34.82997131347656 2.5248985290527344
v 0.7123227715492249 34.75615692138672 2.2295610904693604
v 0.5348749160766602 34.71946716308594 1.9753952026367188
v 0.275997132062912 34.725486755371094 1.8010958433151245
v -0.024898644536733627 34.77329635620117 1.7331981658935547
v -0.3220038115978241 34.855621337890625 1.7820391654968262
v -0.5700868368148804 34.959922790527344 1.9401830434799194
v -0.7313792109489441 35.07033157348633 2.183554172515869
v -0.7813258171081543 35.17002868652344 2.4751009941101074
v -0.7123225331306458 35.24384307861328 2.7704386711120605
v -0.534874677658081 35.28053283691406 3.024604320526123
v -0.2759968936443329 35.27451705932617 3.198903799057007
v 0.02489890344440937 35.226707458496094 3.266801357269287
v -7.5 1.9999994039535522 12.5
v -7.5 1.9999994039535522 12.5
v -7.5 1.9999994039535522 12.5
v -7.5 1.9999994039535522 12.5
v -7.5 1.9999994039535522 12.5
v -7.5 1.9999994039535522 12.5
v -7.5 1.9999994039535522 12.5
v -7.5 1.9999994039535522 12.5
v -7.5 1.9999994039535522 12.5
v -7.5 1.9999994039535522 12.5
v -7.5 1.9999994039535522 12.5
v -7.5 1.9999994039535522 12.5
v -7.5 1.9999994039535522 12.5
v -7.5 1.9999994039535522 12.5
v -7.5 1.9999994039535522 12.5
v -7.5 1.9999994039535522 12.5
v -7.475101470947266 2.2267048358917236 13.266801834106445
v -7.1779961585998535 2.144380569458008 13.217961311340332
v -6.92991304397583 2.0400755405426025 13.05981731414795
v -6.76862096786499 1.9296694993972778 12.816446304321289
v -6.718674182891846 1.8299704790115356 12.524898529052734
v -6.78767728805542 1.7561568021774292 12.229561805725098
v -6.965125560760498 1.7194658517837524 11.975395202636719
v -7.224003314971924 1.725483775138855 11.801095962524414
v -7.524899005889893 1.7732940912246704 11.733198165893555
v -7.8220038414001465 1.8556183576583862 11.782039642333984
v -8.070087432861328 1.959923267364502 11.940183639526367
v -8.231379508972168 2.070329427719116 12.183554649353027
v -8.281326293945312 2.1700284481048584 12.475101470947266
v -8.212323188781738 2.243842124938965 12.770439147949219
v -8.03487491607666 2.2805330753326416 13.024604797363281
v -7.775997161865234 2.274515151977539 13.198904037475586
v -7.475101470947266 2.2267048358917236 13.266801834106445
vn 0.031123466789722443 0.2833816409111023 0.9585020542144775
vn 0.40250495076179504 0.18047641217708588 0.897450864315033
vn 0.7126086950302124 0.050095271319150925 0.6997709274291992
vn 0.9142242074012756 -0.087912417948246 0.3955571949481964
vn 0.9766573905944824 -0.21253623068332672 0.031123466789722443
vn 0.8904033303260803 -0.30480334162712097 -0.33804851770401
vn 0.6685934662818909 -0.35066691040992737 -0.6557556986808777
vn 0.34499627351760864 -0.34314459562301636 -0.8736299872398376
vn -0.031123466789722443 -0.2833816409111023 -0.9585020542144775
vn -0.40250495076179504 -0.18047641217708588 -0.897450864315033
vn -0.7126086950302124 -0.050095271319150925 -0.6997709274291992
vn -0.9142242074012756 0.087912417948246 -0.3955571949481964
vn -0.9766573905944824 0.21253623068332672 -0.031123466789722443
vn -0.8904033303260803 0.30480334162712097 0.33804851770401
vn -0.6685934662818909 0.35066691040992737 0.6557556986808777
vn -0.34499627351760864 0.34314459562301636 0.8736299872398376
vn 0.031123466789722443 0.2833816409111023 0.9585020542144775
vn 0.031123466789722443 0.2833816409111023 0.9585020542144775
vn 0.40250495076179504 0.18047641217708588 0.897450864315033
vn 0.7126086950302124 0.050095271319150925 0.6997709274291992
vn 0.9142242074012756 -0.087912417948246 0.3955571949481964
vn 0.9766573905944824 -0.21253623068332672 0.031123466789722443
vn 0.8904033303260803 -0.30480334162712097 -0.33804851770401
vn 0.6685934662818909 -0.35066691040992737 -0.6557556986808777
vn 0.34499627351760864 -0.34314459562301636 -0.8736299872398376
vn -0.031123466789722443 -0.2833816409111023 -0.9585020542144775
vn -0.40250495076179504 -0.18047641217708588 -0.897450864315033
vn -0.7126086950302124 -0.050095271319150925 -0.6997709274291992
vn -0.9142242074012756 0.087912417948246 -0.3955571949481964
vn -0.9766573905944824 0.21253623068332672 -0.031123466789722443
vn -0.8904033303260803 0.30480334162712097 0.33804851770401
vn -0.6685934662818909 0.35066691040992737 0.6557556986808777
vn -0.34499627351760864 0.34314459562301636 0.8736299872398376
vn 0.031123466789722443 0.2833816409111023 0.9585020542144775
vn 0.21253623068332672 0.93515944480896 -0.2833816409111023
vn 0.21253623068332672 0.93515944480896 -0.2833816409111023
vn 0.21253623068332672 0.93515944480896 -0.2833816409111023
vn 0.21253623068332672 0.93515944480896 -0.2833816409111023
vn 0.21253623068332672 0.93515944480896 -0.2833816409111023
vn 0.21253623068332672 0.93515944480896 -0.2833816409111023
vn 0.21253623068332672 0.93515944480896 -0.2833816409111023
vn 0.21253623068332672 0.93515944480896 -0.2833816409111023
vn 0.21253623068332672 0.93515944480896 -0.2833816409111023
vn 0.21253623068332672 0.93515944480896 -0.2833816409111023
vn 0.21253623068332672 0.93515944480896 -0.2833816409111023
vn 0.21253623068332672 0.93515944480896 -0.2833816409111023
vn 0.21253623068332672 0.93515944480896 -0.2833816409111023
vn 0.21253623068332672 0.93515944480896 -0.2833816409111023
vn 0.21253623068332672 0.93515944480896 -0.2833816409111023
vn 0.21253623068332672 0.93515944480896 -0.2833816409111023
vn 0.21253623068332672 0.93515944480896 -0.2833816409111023
vn 0.21253623068332672 0.93515944480896 -0.2833816409111023
vn 0.21253623068332672 0.93515944480896 -0.2833816409111023
vn 0.21253623068332672 0.93515944480896 -0.2833816409111023
vn 0.21253623068332672 0.93515944480896 -0.2833816409111023
vn 0.21253623068332672 0.93515944480896 -0.2833816409111023
vn 0.21253623068332672 0.93515944480896 -0.2833816409111023
vn 0.21253623068332672 0.93515944480896 -0.2833816409111023
vn 0.21253623068332672 0.93515944480896 -0.2833816409111023
vn 0.21253623068332672 0.93515944480896 -0.2833816409111023
vn 0.21253623068332672 0.93515944480896 -0.2833816409111023
vn 0.21253623068332672 0.93515944480896 -0.2833816409111023
vn 0.21253623068332672 0.93515944480896 -0.2833816409111023
vn 0.21253623068332672 0.93515944480896 -0.2833816409111023
vn 0.21253623068332672 0.93515944480896 -0.2833816409111023
vn 0.21253623068332672 0.93515944480896 -0.2833816409111023
vn 0.21253623068332672 0.93515944480896 -0.2833816409111023
vn -0.21253623068332672 -0.93515944480896 0.2833816409111023
vn -0.21253623068332672 -0.93515944480896 0.2833816409111023
vn -0.21253623068332672 -0.93515944480896 0.2833816409111023
vn -0.21253623068332672 -0.93515944480896 0.2833816409111023
vn -0.21253623068332672 -0.93515944480896 0.2833816409111023
vn -0.21253623068332672 -0.93515944480896 0.2833816409111023
vn -0.21253623068332672 -0.93515944480896 0.2833816409111023
vn -0.21253623068332672 -0.93515944480896 0.2833816409111023
vn -0.21253623068332672 -0.93515944480896 0.2833816409111023
vn -0.21253623068332672 -0.93515944480896 0.2833816409111023
vn -0.21253623068332672 -0.93515944480896 0.2833816409111023
vn -0.21253623068332672 -0.93515944480896 0.2833816409111023
vn -0.21253623068332672 -0.93515944480896 0.2833816409111023
vn -0.21253623068332672 -0.93515944480896 0.2833816409111023
vn -0.21253623068332672 -0.93515944480896 0.2833816409111023
vn -0.21253623068332672 -0.93515944480896 0.2833816409111023
vn -0.21253623068332672 -0.93515944480896 0.2833816409111023
vn -0.21253623068332672 -0.93515944480896 0.2833816409111023
vn -0.21253623068332672 -0.93515944480896 0.2833816409111023
vn -0.21253623068332672 -0.93515944480896 0.2833816409111023
vn -0.21253623068332672 -0.93515944480896 0.2833816409111023
vn -0.21253623068332672 -0.93515944480896 0.2833816409111023
vn -0.21253623068332672 -0.93515944480896 0.2833816409111023
vn -0.21253623068332672 -0.93515944480896 0.2833816409111023
vn -0.21253623068332672 -0.93515944480896 0.2833816409111023
vn -0.21253623068332672 -0.93515944480896 0.2833816409111023
vn -0.21253623068332672 -0.93515944480896 0.2833816409111023
vn -0.21253623068332672 -0.93515944480896 0.2833816409111023
vn -0.21253623068332672 -0.93515944480896 0.2833816409111023
vn -0.21253623068332672 -0.93515944480896 0.2833816409111023
vn -0.21253623068332672 -0.93515944480896 0.2833816409111023
vn -0.21253623068332672 -0.93515944480896 0.2833816409111023
vn -0.21253623068332672 -0.93515944480896 0.2833816409111023
vt 0 1
vt 0.0625 1
vt 0.125 1
vt 0.1875 1
vt 0.25 1
vt 0.3125 1
vt 0.375 1
vt 0.4375 1
vt 0.5 1
vt 0.5625 1
vt 0.625 1
vt 0.6875 1
vt 0.75 1
vt 0.8125 1
vt 0.875 1
vt 0.9375 1
vt 1 1
vt 0 0
vt 0.0625 0
vt 0.125 0
vt 0.1875 0
vt 0.25 0
vt 0.3125 0
vt 0.375 0
vt 0.4375 0
vt 0.5 0
vt 0.5625 0
vt 0.625 0
vt 0.6875 0
vt 0.75 0
vt 0.8125 0
vt 0.875 0
vt 0.9375 0
vt 1 0
vt 0.5 0.5
vt 0.5 0.5
vt 0.5 0.5
vt 0.5 0.5
vt 0.5 0.5
vt 0.5 0.5
vt 0.5 0.5
vt 0.5 0.5
vt 0.5 0.5
vt 0.5 0.5
vt 0.5 0.5
vt 0.5 0.5
vt 0.5 0.5
vt 0.5 0.5
vt 0.5 0.5
vt 0.5 0.5
vt 1 0.5
vt 0.9619397521018982 0.6913416981697083
vt 0.8535534143447876 0.8535534143447876
vt 0.6913416981697083 0.9619397521018982
vt 0.5 1
vt 0.30865827202796936 0.9619397521018982
vt 0.1464466154575348 0.8535534143447876
vt 0.03806023299694061 0.6913416981697083
vt 0 0.5
vt 0.03806023299694061 0.30865827202796936
vt 0.1464466154575348 0.1464466154575348
vt 0.30865827202796936 0.03806023299694061
vt 0.5 0
vt 0.6913416981697083 0.03806023299694061
vt 0.8535534143447876 0.1464466154575348
vt 0.9619397521018982 0.30865827202796936
vt 1 0.5
vt 0.5 0.5
vt 0.5 0.5
vt 0.5 0.5
vt 0.5 0.5
vt 0.5 0.5
vt 0.5 0.5
vt 0.5 0.5
vt 0.5 0.5
vt 0.5 0.5
vt 0.5 0.5
vt 0.5 0.5
vt 0.5 0.5
vt 0.5 0.5
vt 0.5 0.5
vt 0.5 0.5
vt 0.5 0.5
vt 1 0.5
vt 0.9619397521018982 0.30865827202796936
vt 0.8535534143447876 0.1464466154575348
vt 0.6913416981697083 0.03806023299694061
vt 0.5 0
vt 0.30865827202796936 0.03806023299694061
vt 0.1464466154575348 0.1464466154575348
vt 0.03806023299694061 0.30865827202796936
vt 0 0.5
vt 0.03806023299694061 0.6913416981697083
vt 0.1464466154575348 0.8535534143447876
vt 0.30865827202796936 0.9619397521018982
vt 0.5 1
vt 0.6913416981697083 0.9619397521018982
vt 0.8535534143447876 0.8535534143447876
vt 0.9619397521018982 0.6913416981697083
vt 1 0.5
f 1//1 18//18 2//2
f 18//18 19//19 2//2
f 2//2 19//19 3//3
f 19//19 20//20 3//3
f 3//3 20//20 4//4
f 20//20 21//21 4//4
f 4//4 21//21 5//5
f 21//21 22//22 5//5
f 5//5 22//22 6//6
f 22//22 23//23 6//6
f 6//6 23//23 7//7
f 23//23 24//24 7//7
f 7//7 24//24 8//8
f 24//24 25//25 8//8
f 8//8 25//25 9//9
f 25//25 26//26 9//9
f 9//9 26//26 10//10
f 26//26 27//27 10//10
f 10//10 27//27 11//11
f 27//27 28//28 11//11
f 11//11 28//28 12//12
f 28//28 29//29 12//12
f 12//12 29//29 13//13
f 29//29 30//30 13//13
f 13//13 30//30 14//14
f 30//30 31//31 14//14
f 14//14 31//31 15//15
f 31//31 32//32 15//15
f 15//15 32//32 16//16
f 32//32 33//33 16//16
f 16//16 33//33 17//17
f 33//33 34//34 17//17
f 51//51 52//52 35//35
f 52//52 53//53 36//36
f 53//53 54//54 37//37
f 54//54 55//55 38//38
f 55//55 56//56 39//39
f 56//56 57//57 40//40
f 57//57 58//58 41//41
f 58//58 59//59 42//42
f 59//59 60//60 43//43
f 60//60 61//61 44//44
f 61//61 62//62 45//45
f 62//62 63//63 46//46
f 63//63 64//64 47//47
f 64//64 65//65 48//48
f 65//65 66//66 49//49
f 66//66 67//67 50//50
f 85//85 84//84 68//68
f 86//86 85//85 69//69
f 87//87 86//86 70//70
f 88//88 87//87 71//71
f 89//89 88//88 72//72
f 90//90 89//89 73//73
f 91//91 90//90 74//74
f 92//92 91//91 75//75
f 93//93 92//92 76//76
f 94//94 93//93 77//77
f 95//95 94//94 78//78
f 96//96 95//95 79//79
f 97//97 96//96 80//80
f 98//98 97//97 81//81
f 99//99 98//98 82//82
f 100//100 99//99 83//83
