# cabin_roof_7
v 0 45.23050308227539 -27.716386795043945
v 0 45.23050308227539 -27.716386795043945
v 0 45.23050308227539 -27.716386795043945
v 0 45.23050308227539 -27.716386795043945
v 0 45.23050308227539 -27.716386795043945
v 0 45.23050308227539 -27.716386795043945
v 0 45.23050308227539 -27.716386795043945
v 0 45.23050308227539 -27.716386795043945
v 0 45.23050308227539 -27.716386795043945
v 0 44.73050308227539 -26.341386795043945
v 0.9722718000411987 44.73050308227539 -26.74411392211914
v 1.375 44.73050308227539 -27.716386795043945
v 0.9722718000411987 44.73050308227539 -28.688657760620117
v 1.6838893230429323e-16 44.73050308227539 -29.091386795043945
v -0.9722718000411987 44.73050308227539 -28.688657760620117
v -1.375 44.73050308227539 -27.716386795043945
v -0.9722718000411987 44.73050308227539 -26.74411392211914
v -3.3677786460858646e-16 44.73050308227539 -26.341386795043945
v 0 44.73050308227539 -27.716386795043945
v 0 44.73050308227539 -27.716386795043945
v 0 44.73050308227539 -27.716386795043945
v 0 44.73050308227539 -27.716386795043945
v 0 44.73050308227539 -27.716386795043945
v 0 44.73050308227539 -27.716386795043945
v 0 44.73050308227539 -27.716386795043945
v 0 44.73050308227539 -27.716386795043945
v 0 44.73050308227539 -26.341386795043945
v 0.9722718000411987 44.73050308227539 -26.74411392211914
v 1.375 44.73050308227539 -27.716386795043945
v 0.9722718000411987 44.73050308227539 -28.688657760620117
v 1.6838893230429323e-16 44.73050308227539 -29.091386795043945
v -0.9722718000411987 44.73050308227539 -28.688657760620117
v -1.375 44.73050308227539 -27.716386795043945
v -0.9722718000411987 44.73050308227539 -26.74411392211914
v -3.3677786460858646e-16 44.73050308227539 -26.341386795043945
f 10 11 2
f 11 12 3
f 12 13 4
f 13 14 5
f 14 15 6
f 15 16 7
f 16 17 8
f 17 18 9
f 28 27 19
f 29 28 20
f 30 29 21
f 31 30 22
f 32 31 23
f 33 32 24
f 34 33 25
f 35 34 26
