o support_leg_back_right
v 0.02489864382811513 34.7732952465786 -1.7331981798498903
v 0.32200381697409775 34.85561944439877 -1.7820391527969752
v 0.570086844491486 34.9599243508911 -1.9401830735836088
v 0.7313792336688771 35.07033050298178 -2.183554083599822
v 0.7813258023345431 35.17002956261337 -2.475101053884818
v 0.7123225381454916 35.24384324019988 -2.7704386380620916
v 0.5348746603926489 35.28053410397864 -3.0246043968466205
v 0.275996884106946 35.27451624856889 -3.1989038062087056
v -0.02489890293131447 35.22670589347548 -3.266801474679176
v -0.322004076077298 35.14438169565531 -3.217960501732091
v -0.5700871035946848 35.04007678916298 -3.0598165809454576
v -0.731379492772076 34.9296706370723 -2.816445570929244
v -0.781326061437742 34.82997157744071 -2.5248986006442484
v -0.7123227972486905 34.7561578998542 -2.229561016466975
v -0.5348749194958478 34.71946703607544 -1.9753952576824458
v -0.27599714321014535 34.725484891485195 -1.8010958483203607
v 0.02489864382811513 34.7732952465786 -1.7331981798498903
v 7.524898902931314 1.7732941065245171 -11.733198525320823
v 7.822004076077298 1.8556183043446914 -11.78203949826791
v 8.070087103594684 1.9599232108370188 -11.940183419054542
v 8.231379492772076 2.0703293629277013 -12.183554429070757
v 8.281326061437742 2.170028422559291 -12.47510139935575
v 8.21232279724869 2.243842100145798 -12.770438983533026
v 8.034874919495849 2.280532963924557 -13.024604742317553
v 7.775997143210145 2.2745151085148017 -13.198904151679638
v 7.475101356171885 2.2267047534214015 -13.26680182015011
v 7.177996183025902 2.144380555601227 -13.217960847203024
v 6.929913155508514 2.0400756491089 -13.059816926416392
v 6.768620766331123 1.9296694970182173 -12.816445916400177
v 6.718674197665457 1.8299704373866277 -12.524898946115183
v 6.787677461854509 1.7561567598001204 -12.229561361937908
v 6.965125339607351 1.7194658960213616 -11.97539560315338
v 7.224003115893054 1.725483751431117 -11.801096193791295
v 7.524898902931314 1.7732941065245171 -11.733198525320823
v -1.295515996702079e-7 35.00000057002704 -2.499999827264533
v -1.295515996702079e-7 35.00000057002704 -2.499999827264533
v -1.295515996702079e-7 35.00000057002704 -2.499999827264533
v -1.295515996702079e-7 35.00000057002704 -2.499999827264533
v -1.295515996702079e-7 35.00000057002704 -2.499999827264533
v -1.295515996702079e-7 35.00000057002704 -2.499999827264533
v -1.295515996702079e-7 35.00000057002704 -2.499999827264533
v -1.295515996702079e-7 35.00000057002704 -2.499999827264533
v -1.295515996702079e-7 35.00000057002704 -2.499999827264533
v -1.295515996702079e-7 35.00000057002704 -2.499999827264533
v -1.295515996702079e-7 35.00000057002704 -2.499999827264533
v -1.295515996702079e-7 35.00000057002704 -2.499999827264533
v -1.295515996702079e-7 35.00000057002704 -2.499999827264533
v -1.295515996702079e-7 35.00000057002704 -2.499999827264533
v -1.295515996702079e-7 35.00000057002704 -2.499999827264533
v -1.295515996702079e-7 35.00000057002704 -2.499999827264533
v 0.02489864382811513 34.7732952465786 -1.7331981798498903
v 0.32200381697409775 34.85561944439877 -1.7820391527969752
v 0.570086844491486 34.9599243508911 -1.9401830735836088
v 0.7313792336688771 35.07033050298178 -2.183554083599822
v 0.7813258023345431 35.17002956261337 -2.475101053884818
v 0.7123225381454916 35.24384324019988 -2.7704386380620916
v 0.5348746603926489 35.28053410397864 -3.0246043968466205
v 0.275996884106946 35.27451624856889 -3.1989038062087056
v -0.02489890293131447 35.22670589347548 -3.266801474679176
v -0.322004076077298 35.14438169565531 -3.217960501732091
v -0.5700871035946848 35.04007678916298 -3.0598165809454576
v -0.731379492772076 34.9296706370723 -2.816445570929244
v -0.781326061437742 34.82997157744071 -2.5248986006442484
v -0.7123227972486905 34.7561578998542 -2.229561016466975
v -0.5348749194958478 34.71946703607544 -1.9753952576824458
v -0.27599714321014535 34.725484891485195 -1.8010958483203607
v 0.02489864382811513 34.7732952465786 -1.7331981798498903
v 7.5000001295516 1.9999994299729593 -12.500000172735467
v 7.5000001295516 1.9999994299729593 -12.500000172735467
v 7.5000001295516 1.9999994299729593 -12.500000172735467
v 7.5000001295516 1.9999994299729593 -12.500000172735467
v 7.5000001295516 1.9999994299729593 -12.500000172735467
v 7.5000001295516 1.9999994299729593 -12.500000172735467
v 7.5000001295516 1.9999994299729593 -12.500000172735467
v 7.5000001295516 1.9999994299729593 -12.500000172735467
v 7.5000001295516 1.9999994299729593 -12.500000172735467
v 7.5000001295516 1.9999994299729593 -12.500000172735467
v 7.5000001295516 1.9999994299729593 -12.500000172735467
v 7.5000001295516 1.9999994299729593 -12.500000172735467
v 7.5000001295516 1.9999994299729593 -12.500000172735467
v 7.5000001295516 1.9999994299729593 -12.500000172735467
v 7.5000001295516 1.9999994299729593 -12.500000172735467
v 7.5000001295516 1.9999994299729593 -12.500000172735467
v 7.524898902931314 1.7732941065245171 -11.733198525320823
v 7.822004076077298 1.8556183043446914 -11.78203949826791
v 8.070087103594684 1.9599232108370188 -11.940183419054542
v 8.231379492772076 2.0703293629277013 -12.183554429070757
v 8.281326061437742 2.170028422559291 -12.47510139935575
v 8.21232279724869 2.243842100145798 -12.770438983533026
v 8.034874919495849 2.280532963924557 -13.024604742317553
v 7.775997143210145 2.2745151085148017 -13.198904151679638
v 7.475101356171885 2.2267047534214015 -13.26680182015011
v 7.177996183025902 2.144380555601227 -13.217960847203024
v 6.929913155508514 2.0400756491089 -13.059816926416392
v 6.768620766331123 1.9296694970182173 -12.816445916400177
v 6.718674197665457 1.8299704373866277 -12.524898946115183
v 6.787677461854509 1.7561567598001204 -12.229561361937908
v 6.965125339607351 1.7194658960213616 -11.97539560315338
v 7.224003115893054 1.725483751431117 -11.801096193791295
v 7.524898902931314 1.7732941065245171 -11.733198525320823
vn 0.031123466260867778 -0.283381650087836 0.9585020449855096
vn 0.40250494417853677 -0.18047640796238443 0.8974508544097711
vn 0.7126086846983201 -0.05009527161023558 0.6997709098375173
vn 0.9142242155590001 0.08791241553490806 0.39555719040405335
vn 0.9766574003043492 0.21253623756587695 0.031123466260867837
vn 0.8904033454750574 0.3048033432463605 -0.33804852360669657
vn 0.6685934566041395 0.3506669012716489 -0.6557556817433368
vn 0.34499627738117994 0.3431446037459737 -0.8736299843258282
vn -0.03112346626086766 0.283381650087836 -0.9585020449855096
vn -0.40250494417853677 0.18047640796238443 -0.8974508544097711
vn -0.7126086846983201 0.05009527161023558 -0.6997709098375173
vn -0.9142242155590001 -0.08791241553490806 -0.39555719040405335
vn -0.9766574003043492 -0.21253623756587692 -0.031123466260867955
vn -0.8904033454750574 -0.3048033432463605 0.33804852360669657
vn -0.6685934566041395 -0.3506669012716489 0.6557556817433368
vn -0.34499627738117994 -0.3431446037459737 0.8736299843258282
vn 0.03112346626086754 -0.28338165008783606 0.9585020449855096
vn 0.031123466260867778 -0.283381650087836 0.9585020449855096
vn 0.40250494417853677 -0.18047640796238443 0.8974508544097711
vn 0.7126086846983201 -0.05009527161023558 0.6997709098375173
vn 0.9142242155590001 0.08791241553490806 0.39555719040405335
vn 0.9766574003043492 0.21253623756587695 0.031123466260867837
vn 0.8904033454750574 0.3048033432463605 -0.33804852360669657
vn 0.6685934566041395 0.3506669012716489 -0.6557556817433368
vn 0.34499627738117994 0.3431446037459737 -0.8736299843258282
vn -0.03112346626086766 0.283381650087836 -0.9585020449855096
vn -0.40250494417853677 0.18047640796238443 -0.8974508544097711
vn -0.7126086846983201 0.05009527161023558 -0.6997709098375173
vn -0.9142242155590001 -0.08791241553490806 -0.39555719040405335
vn -0.9766574003043492 -0.21253623756587692 -0.031123466260867955
vn -0.8904033454750574 -0.3048033432463605 0.33804852360669657
vn -0.6685934566041395 -0.3506669012716489 0.6557556817433368
vn -0.34499627738117994 -0.3431446037459737 0.8736299843258282
vn 0.03112346626086754 -0.28338165008783606 0.9585020449855096
vn -0.21253623756587697 0.9351594452898587 0.283381650087836
vn -0.21253623756587697 0.9351594452898587 0.283381650087836
vn -0.21253623756587697 0.9351594452898587 0.283381650087836
vn -0.21253623756587697 0.9351594452898587 0.283381650087836
vn -0.21253623756587697 0.9351594452898587 0.283381650087836
vn -0.21253623756587697 0.9351594452898587 0.283381650087836
vn -0.21253623756587697 0.9351594452898587 0.283381650087836
vn -0.21253623756587697 0.9351594452898587 0.283381650087836
vn -0.21253623756587697 0.9351594452898587 0.283381650087836
vn -0.21253623756587697 0.9351594452898587 0.283381650087836
vn -0.21253623756587697 0.9351594452898587 0.283381650087836
vn -0.21253623756587697 0.9351594452898587 0.283381650087836
vn -0.21253623756587697 0.9351594452898587 0.283381650087836
vn -0.21253623756587697 0.9351594452898587 0.283381650087836
vn -0.21253623756587697 0.9351594452898587 0.283381650087836
vn -0.21253623756587697 0.9351594452898587 0.283381650087836
vn -0.21253623756587697 0.9351594452898587 0.283381650087836
vn -0.21253623756587697 0.9351594452898587 0.283381650087836
vn -0.21253623756587697 0.9351594452898587 0.283381650087836
vn -0.21253623756587697 0.9351594452898587 0.283381650087836
vn -0.21253623756587697 0.9351594452898587 0.283381650087836
vn -0.21253623756587697 0.9351594452898587 0.283381650087836
vn -0.21253623756587697 0.9351594452898587 0.283381650087836
vn -0.21253623756587697 0.9351594452898587 0.283381650087836
vn -0.21253623756587697 0.9351594452898587 0.283381650087836
vn -0.21253623756587697 0.9351594452898587 0.283381650087836
vn -0.21253623756587697 0.9351594452898587 0.283381650087836
vn -0.21253623756587697 0.9351594452898587 0.283381650087836
vn -0.21253623756587697 0.9351594452898587 0.283381650087836
vn -0.21253623756587697 0.9351594452898587 0.283381650087836
vn -0.21253623756587697 0.9351594452898587 0.283381650087836
vn -0.21253623756587697 0.9351594452898587 0.283381650087836
vn -0.21253623756587697 0.9351594452898587 0.283381650087836
vn 0.21253623756587697 -0.9351594452898587 -0.283381650087836
vn 0.21253623756587697 -0.9351594452898587 -0.283381650087836
vn 0.21253623756587697 -0.9351594452898587 -0.283381650087836
vn 0.21253623756587697 -0.9351594452898587 -0.283381650087836
vn 0.21253623756587697 -0.9351594452898587 -0.283381650087836
vn 0.21253623756587697 -0.9351594452898587 -0.283381650087836
vn 0.21253623756587697 -0.9351594452898587 -0.283381650087836
vn 0.21253623756587697 -0.9351594452898587 -0.283381650087836
vn 0.21253623756587697 -0.9351594452898587 -0.283381650087836
vn 0.21253623756587697 -0.9351594452898587 -0.283381650087836
vn 0.21253623756587697 -0.9351594452898587 -0.283381650087836
vn 0.21253623756587697 -0.9351594452898587 -0.283381650087836
vn 0.21253623756587697 -0.9351594452898587 -0.283381650087836
vn 0.21253623756587697 -0.9351594452898587 -0.283381650087836
vn 0.21253623756587697 -0.9351594452898587 -0.283381650087836
vn 0.21253623756587697 -0.9351594452898587 -0.283381650087836
vn 0.21253623756587697 -0.9351594452898587 -0.283381650087836
vn 0.21253623756587697 -0.9351594452898587 -0.283381650087836
vn 0.21253623756587697 -0.9351594452898587 -0.283381650087836
vn 0.21253623756587697 -0.9351594452898587 -0.283381650087836
vn 0.21253623756587697 -0.9351594452898587 -0.283381650087836
vn 0.21253623756587697 -0.9351594452898587 -0.283381650087836
vn 0.21253623756587697 -0.9351594452898587 -0.283381650087836
vn 0.21253623756587697 -0.9351594452898587 -0.283381650087836
vn 0.21253623756587697 -0.9351594452898587 -0.283381650087836
vn 0.21253623756587697 -0.9351594452898587 -0.283381650087836
vn 0.21253623756587697 -0.9351594452898587 -0.283381650087836
vn 0.21253623756587697 -0.9351594452898587 -0.283381650087836
vn 0.21253623756587697 -0.9351594452898587 -0.283381650087836
vn 0.21253623756587697 -0.9351594452898587 -0.283381650087836
vn 0.21253623756587697 -0.9351594452898587 -0.283381650087836
vn 0.21253623756587697 -0.9351594452898587 -0.283381650087836
vn 0.21253623756587697 -0.9351594452898587 -0.283381650087836
vt 0 1
vt 0.0625 1
vt 0.125 1
vt 0.1875 1
vt 0.25 1
vt 0.3125 1
vt 0.375 1
vt 0.4375 1
vt 0.5 1
vt 0.5625 1
vt 0.625 1
vt 0.6875 1
vt 0.75 1
vt 0.8125 1
vt 0.875 1
vt 0.9375 1
vt 1 1
vt 0 0
vt 0.0625 0
vt 0.125 0
vt 0.1875 0
vt 0.25 0
vt 0.3125 0
vt 0.375 0
vt 0.4375 0
vt 0.5 0
vt 0.5625 0
vt 0.625 0
vt 0.6875 0
vt 0.75 0
vt 0.8125 0
vt 0.875 0
vt 0.9375 0
vt 1 0
vt 0.5 0.5
vt 0.5 0.5
vt 0.5 0.5
vt 0.5 0.5
vt 0.5 0.5
vt 0.5 0.5
vt 0.5 0.5
vt 0.5 0.5
vt 0.5 0.5
vt 0.5 0.5
vt 0.5 0.5
vt 0.5 0.5
vt 0.5 0.5
vt 0.5 0.5
vt 0.5 0.5
vt 0.5 0.5
vt 1 0.5
vt 0.9619397521018982 0.6913416981697083
vt 0.8535534143447876 0.8535534143447876
vt 0.6913416981697083 0.9619397521018982
vt 0.5 1
vt 0.30865827202796936 0.9619397521018982
vt 0.1464466154575348 0.8535534143447876
vt 0.03806023299694061 0.6913416981697083
vt 0 0.5
vt 0.03806023299694061 0.30865827202796936
vt 0.1464466154575348 0.1464466154575348
vt 0.30865827202796936 0.03806023299694061
vt 0.5 0
vt 0.6913416981697083 0.03806023299694061
vt 0.8535534143447876 0.1464466154575348
vt 0.9619397521018982 0.30865827202796936
vt 1 0.5
vt 0.5 0.5
vt 0.5 0.5
vt 0.5 0.5
vt 0.5 0.5
vt 0.5 0.5
vt 0.5 0.5
vt 0.5 0.5
vt 0.5 0.5
vt 0.5 0.5
vt 0.5 0.5
vt 0.5 0.5
vt 0.5 0.5
vt 0.5 0.5
vt 0.5 0.5
vt 0.5 0.5
vt 0.5 0.5
vt 1 0.5
vt 0.9619397521018982 0.30865827202796936
vt 0.8535534143447876 0.1464466154575348
vt 0.6913416981697083 0.03806023299694061
vt 0.5 0
vt 0.30865827202796936 0.03806023299694061
vt 0.1464466154575348 0.1464466154575348
vt 0.03806023299694061 0.30865827202796936
vt 0 0.5
vt 0.03806023299694061 0.6913416981697083
vt 0.1464466154575348 0.8535534143447876
vt 0.30865827202796936 0.9619397521018982
vt 0.5 1
vt 0.6913416981697083 0.9619397521018982
vt 0.8535534143447876 0.8535534143447876
vt 0.9619397521018982 0.6913416981697083
vt 1 0.5
f 1/1/1 18/18/18 2/2/2
f 18/18/18 19/19/19 2/2/2
f 2/2/2 19/19/19 3/3/3
f 19/19/19 20/20/20 3/3/3
f 3/3/3 20/20/20 4/4/4
f 20/20/20 21/21/21 4/4/4
f 4/4/4 21/21/21 5/5/5
f 21/21/21 22/22/22 5/5/5
f 5/5/5 22/22/22 6/6/6
f 22/22/22 23/23/23 6/6/6
f 6/6/6 23/23/23 7/7/7
f 23/23/23 24/24/24 7/7/7
f 7/7/7 24/24/24 8/8/8
f 24/24/24 25/25/25 8/8/8
f 8/8/8 25/25/25 9/9/9
f 25/25/25 26/26/26 9/9/9
f 9/9/9 26/26/26 10/10/10
f 26/26/26 27/27/27 10/10/10
f 10/10/10 27/27/27 11/11/11
f 27/27/27 28/28/28 11/11/11
f 11/11/11 28/28/28 12/12/12
f 28/28/28 29/29/29 12/12/12
f 12/12/12 29/29/29 13/13/13
f 29/29/29 30/30/30 13/13/13
f 13/13/13 30/30/30 14/14/14
f 30/30/30 31/31/31 14/14/14
f 14/14/14 31/31/31 15/15/15
f 31/31/31 32/32/32 15/15/15
f 15/15/15 32/32/32 16/16/16
f 32/32/32 33/33/33 16/16/16
f 16/16/16 33/33/33 17/17/17
f 33/33/33 34/34/34 17/17/17
f 51/51/51 52/52/52 35/35/35
f 52/52/52 53/53/53 36/36/36
f 53/53/53 54/54/54 37/37/37
f 54/54/54 55/55/55 38/38/38
f 55/55/55 56/56/56 39/39/39
f 56/56/56 57/57/57 40/40/40
f 57/57/57 58/58/58 41/41/41
f 58/58/58 59/59/59 42/42/42
f 59/59/59 60/60/60 43/43/43
f 60/60/60 61/61/61 44/44/44
f 61/61/61 62/62/62 45/45/45
f 62/62/62 63/63/63 46/46/46
f 63/63/63 64/64/64 47/47/47
f 64/64/64 65/65/65 48/48/48
f 65/65/65 66/66/66 49/49/49
f 66/66/66 67/67/67 50/50/50
f 85/85/85 84/84/84 68/68/68
f 86/86/86 85/85/85 69/69/69
f 87/87/87 86/86/86 70/70/70
f 88/88/88 87/87/87 71/71/71
f 89/89/89 88/88/88 72/72/72
f 90/90/90 89/89/89 73/73/73
f 91/91/91 90/90/90 74/74/74
f 92/92/92 91/91/91 75/75/75
f 93/93/93 92/92/92 76/76/76
f 94/94/94 93/93/93 77/77/77
f 95/95/95 94/94/94 78/78/78
f 96/96/96 95/95/95 79/79/79
f 97/97/97 96/96/96 80/80/80
f 98/98/98 97/97/97 81/81/81
f 99/99/99 98/98/98 82/82/82
f 100/100/100 99/99/99 83/83/83
