v 0.000000 25.000000 12.500000
v 0.000000 10.000000 12.500000
v 0.600000 25.000000 12.500000
v 0.600000 10.000000 12.500000
v 0.554328 25.000000 12.729610
v 0.554328 10.000000 12.729610
v 0.424264 25.000000 12.924264
v 0.424264 10.000000 12.924264
v 0.229610 25.000000 13.054328
v 0.229610 10.000000 13.054328
v 0.000000 25.000000 13.100000
v 0.000000 10.000000 13.100000
v -0.229610 25.000000 13.054328
v -0.229610 10.000000 13.054328
v -0.424264 25.000000 12.924264
v -0.424264 10.000000 12.924264
v -0.554328 25.000000 12.729610
v -0.554328 10.000000 12.729610
v -0.600000 25.000000 12.500000
v -0.600000 10.000000 12.500000
v -0.554328 25.000000 12.270390
v -0.554328 10.000000 12.270390
v -0.424264 25.000000 12.075736
v -0.424264 10.000000 12.075736
v -0.229610 25.000000 11.945672
v -0.229610 10.000000 11.945672
v -0.000000 25.000000 11.900000
v -0.000000 10.000000 11.900000
v 0.229610 25.000000 11.945672
v 0.229610 10.000000 11.945672
v 0.424264 25.000000 12.075736
v 0.424264 10.000000 12.075736
v 0.554328 25.000000 12.270390
v 0.554328 10.000000 12.270390
f 1 3 5
f 2 6 4
f 1 5 7
f 2 8 6
f 1 7 9
f 2 10 8
f 1 9 11
f 2 12 10
f 1 11 13
f 2 14 12
f 1 13 15
f 2 16 14
f 1 15 17
f 2 18 16
f 1 17 19
f 2 20 18
f 1 19 21
f 2 22 20
f 1 21 23
f 2 24 22
f 1 23 25
f 2 26 24
f 1 25 27
f 2 28 26
f 1 27 29
f 2 30 28
f 1 29 31
f 2 32 30
f 1 31 33
f 2 34 32
f 1 33 3
f 2 4 34
f 3 5 6
f 3 6 4
f 5 7 8
f 5 8 6
f 7 9 10
f 7 10 8
f 9 11 12
f 9 12 10
f 11 13 14
f 11 14 12
f 13 15 16
f 13 16 14
f 15 17 18
f 15 18 16
f 17 19 20
f 17 20 18
f 19 21 22
f 19 22 20
f 21 23 24
f 21 24 22
f 23 25 26
f 23 26 24
f 25 27 28
f 25 28 26
f 27 29 30
f 27 30 28
f 29 31 32
f 29 32 30
f 31 33 34
f 31 34 32
f 33 3 4
f 33 4 34
