v -3.750000 36.144050 -7.500000
v -3.750000 0.855950 -7.500000
v -2.950000 36.144050 -7.500000
v -2.950000 0.855950 -7.500000
v -3.010896 36.144050 -7.193853
v -3.010896 0.855950 -7.193853
v -3.184315 36.144050 -6.934315
v -3.184315 0.855950 -6.934315
v -3.443853 36.144050 -6.760896
v -3.443853 0.855950 -6.760896
v -3.750000 36.144050 -6.700000
v -3.750000 0.855950 -6.700000
v -4.056147 36.144050 -6.760896
v -4.056147 0.855950 -6.760896
v -4.315685 36.144050 -6.934315
v -4.315685 0.855950 -6.934315
v -4.489104 36.144050 -7.193853
v -4.489104 0.855950 -7.193853
v -4.550000 36.144050 -7.500000
v -4.550000 0.855950 -7.500000
v -4.489104 36.144050 -7.806147
v -4.489104 0.855950 -7.806147
v -4.315685 36.144050 -8.065685
v -4.315685 0.855950 -8.065685
v -4.056147 36.144050 -8.239104
v -4.056147 0.855950 -8.239104
v -3.750000 36.144050 -8.300000
v -3.750000 0.855950 -8.300000
v -3.443853 36.144050 -8.239104
v -3.443853 0.855950 -8.239104
v -3.184315 36.144050 -8.065685
v -3.184315 0.855950 -8.065685
v -3.010896 36.144050 -7.806147
v -3.010896 0.855950 -7.806147
f 1 3 5
f 2 6 4
f 1 5 7
f 2 8 6
f 1 7 9
f 2 10 8
f 1 9 11
f 2 12 10
f 1 11 13
f 2 14 12
f 1 13 15
f 2 16 14
f 1 15 17
f 2 18 16
f 1 17 19
f 2 20 18
f 1 19 21
f 2 22 20
f 1 21 23
f 2 24 22
f 1 23 25
f 2 26 24
f 1 25 27
f 2 28 26
f 1 27 29
f 2 30 28
f 1 29 31
f 2 32 30
f 1 31 33
f 2 34 32
f 1 33 3
f 2 4 34
f 3 5 6
f 3 6 4
f 5 7 8
f 5 8 6
f 7 9 10
f 7 10 8
f 9 11 12
f 9 12 10
f 11 13 14
f 11 14 12
f 13 15 16
f 13 16 14
f 15 17 18
f 15 18 16
f 17 19 20
f 17 20 18
f 19 21 22
f 19 22 20
f 21 23 24
f 21 24 22
f 23 25 26
f 23 26 24
f 25 27 28
f 25 28 26
f 27 29 30
f 27 30 28
f 29 31 32
f 29 32 30
f 31 33 34
f 31 34 32
f 33 3 4
f 33 4 34
