o 
v 0.9972410202026367 -21.071731567382812 -56.35454559326172
v 1.9972410202026367 0.14147311449050903 -35.14134216308594
v 1.0739378929138184 -21.083555221557617 -56.346336364746094
v 1.9972410202026367 0.14147311449050903 -35.14134216308594
v 2.0739378929138184 0.12964829802513123 -35.13313293457031
v 1.0739378929138184 -21.083555221557617 -56.346336364746094
v 1.0739378929138184 -21.083555221557617 -56.346336364746094
v 2.0739378929138184 0.12964829802513123 -35.13313293457031
v 1.1393784284591675 -21.1151180267334 -56.3178596496582
v 2.0739378929138184 0.12964829802513123 -35.13313293457031
v 2.139378547668457 0.09808575361967087 -35.10465621948242
v 1.1393784284591675 -21.1151180267334 -56.3178596496582
v 1.1393784284591675 -21.1151180267334 -56.3178596496582
v 2.139378547668457 0.09808575361967087 -35.10465621948242
v 1.1835999488830566 -21.16161346435547 -56.2734489440918
v 2.139378547668457 0.09808575361967087 -35.10465621948242
v 2.1835999488830566 0.051590558141469955 -35.060245513916016
v 1.1835999488830566 -21.16161346435547 -56.2734489440918
v 1.1835999488830566 -21.16161346435547 -56.2734489440918
v 2.1835999488830566 0.051590558141469955 -35.060245513916016
v 1.199869990348816 -21.21596336364746 -56.21986770629883
v 2.1835999488830566 0.051590558141469955 -35.060245513916016
v 2.1998698711395264 -0.0027587960939854383 -35.00666427612305
v 1.199869990348816 -21.21596336364746 -56.21986770629883
v 1.199869990348816 -21.21596336364746 -56.21986770629883
v 2.1998698711395264 -0.0027587960939854383 -35.00666427612305
v 1.1857115030288696 -21.2698917388916 -56.16526794433594
v 2.1998698711395264 -0.0027587960939854383 -35.00666427612305
v 2.185711622238159 -0.05668811872601509 -34.952064514160156
v 1.1857115030288696 -21.2698917388916 -56.16526794433594
v 1.1857115030288696 -21.2698917388916 -56.16526794433594
v 2.185711622238159 -0.05668811872601509 -34.952064514160156
v 1.143280267715454 -21.3151912689209 -56.11796951293945
v 2.185711622238159 -0.05668811872601509 -34.952064514160156
v 2.143280267715454 -0.10198716819286346 -34.90476608276367
v 1.143280267715454 -21.3151912689209 -56.11796951293945
v 1.143280267715454 -21.3151912689209 -56.11796951293945
v 2.143280267715454 -0.10198716819286346 -34.90476608276367
v 1.0790358781814575 -21.34496307373047 -56.08517074584961
v 2.143280267715454 -0.10198716819286346 -34.90476608276367
v 2.079035997390747 -0.13175955414772034 -34.87196731567383
v 1.0790358781814575 -21.34496307373047 -56.08517074584961
v 1.0790358781814575 -21.34496307373047 -56.08517074584961
v 2.079035997390747 -0.13175955414772034 -34.87196731567383
v 1.0027589797973633 -21.354677200317383 -56.071861267089844
v 2.079035997390747 -0.13175955414772034 -34.87196731567383
v 2.0027589797973633 -0.1414727121591568 -34.85865783691406
v 1.0027589797973633 -21.354677200317383 -56.071861267089844
v 1.0027589797973633 -21.354677200317383 -56.071861267089844
v 2.0027589797973633 -0.1414727121591568 -34.85865783691406
v 0.9260620474815369 -21.342851638793945 -56.08007049560547
v 2.0027589797973633 -0.1414727121591568 -34.85865783691406
v 1.9260621070861816 -0.12964791059494019 -34.86686706542969
v 0.9260620474815369 -21.342851638793945 -56.08007049560547
v 0.9260620474815369 -21.342851638793945 -56.08007049560547
v 1.9260621070861816 -0.12964791059494019 -34.86686706542969
v 0.8606215119361877 -21.311288833618164 -56.10854721069336
v 1.9260621070861816 -0.12964791059494019 -34.86686706542969
v 1.8606215715408325 -0.09808535873889923 -34.89534378051758
v 0.8606215119361877 -21.311288833618164 -56.10854721069336
v 0.8606215119361877 -21.311288833618164 -56.10854721069336
v 1.8606215715408325 -0.09808535873889923 -34.89534378051758
v 0.8164000511169434 -21.264793395996094 -56.152957916259766
v 1.8606215715408325 -0.09808535873889923 -34.89534378051758
v 1.8164000511169434 -0.05159016326069832 -34.939754486083984
v 0.8164000511169434 -21.264793395996094 -56.152957916259766
v 0.8164000511169434 -21.264793395996094 -56.152957916259766
v 1.8164000511169434 -0.05159016326069832 -34.939754486083984
v 0.8001300692558289 -21.210445404052734 -56.206539154052734
v 1.8164000511169434 -0.05159016326069832 -34.939754486083984
v 1.800130009651184 0.002759190509095788 -34.99333572387695
v 0.8001300692558289 -21.210445404052734 -56.206539154052734
v 0.8001300692558289 -21.210445404052734 -56.206539154052734
v 1.800130009651184 0.002759190509095788 -34.99333572387695
v 0.8142884373664856 -21.15651512145996 -56.261138916015625
v 1.800130009651184 0.002759190509095788 -34.99333572387695
v 1.8142884969711304 0.05668851360678673 -35.047935485839844
v 0.8142884373664856 -21.15651512145996 -56.261138916015625
v 0.8142884373664856 -21.15651512145996 -56.261138916015625
v 1.8142884969711304 0.05668851360678673 -35.047935485839844
v 0.8567196726799011 -21.111215591430664 -56.30843734741211
v 1.8142884969711304 0.05668851360678673 -35.047935485839844
v 1.856719732284546 0.1019875630736351 -35.09523391723633
v 0.8567196726799011 -21.111215591430664 -56.30843734741211
v 0.8567196726799011 -21.111215591430664 -56.30843734741211
v 1.856719732284546 0.1019875630736351 -35.09523391723633
v 0.9209641218185425 -21.081443786621094 -56.34123611450195
v 1.856719732284546 0.1019875630736351 -35.09523391723633
v 1.9209641218185425 0.13175994157791138 -35.12803268432617
v 0.9209641218185425 -21.081443786621094 -56.34123611450195
v 0.9209641218185425 -21.081443786621094 -56.34123611450195
v 1.9209641218185425 0.13175994157791138 -35.12803268432617
v 0.9972410202026367 -21.071731567382812 -56.35454559326172
v 1.9209641218185425 0.13175994157791138 -35.12803268432617
v 1.9972410202026367 0.14147311449050903 -35.14134216308594
v 0.9972410202026367 -21.071731567382812 -56.35454559326172
v 0.9972410202026367 -21.071731567382812 -56.35454559326172
v 1.0739378929138184 -21.083555221557617 -56.346336364746094
v 1 -21.21320343017578 -56.21320343017578
v 1.0739378929138184 -21.083555221557617 -56.346336364746094
v 1.1393784284591675 -21.1151180267334 -56.3178596496582
v 1 -21.21320343017578 -56.21320343017578
v 1.1393784284591675 -21.1151180267334 -56.3178596496582
v 1.1835999488830566 -21.16161346435547 -56.2734489440918
v 1 -21.21320343017578 -56.21320343017578
v 1.1835999488830566 -21.16161346435547 -56.2734489440918
v 1.199869990348816 -21.21596336364746 -56.21986770629883
v 1 -21.21320343017578 -56.21320343017578
v 1.199869990348816 -21.21596336364746 -56.21986770629883
v 1.1857115030288696 -21.2698917388916 -56.16526794433594
v 1 -21.21320343017578 -56.21320343017578
v 1.1857115030288696 -21.2698917388916 -56.16526794433594
v 1.143280267715454 -21.3151912689209 -56.11796951293945
v 1 -21.21320343017578 -56.21320343017578
v 1.143280267715454 -21.3151912689209 -56.11796951293945
v 1.0790358781814575 -21.34496307373047 -56.08517074584961
v 1 -21.21320343017578 -56.21320343017578
v 1.0790358781814575 -21.34496307373047 -56.08517074584961
v 1.0027589797973633 -21.354677200317383 -56.071861267089844
v 1 -21.21320343017578 -56.21320343017578
v 1.0027589797973633 -21.354677200317383 -56.071861267089844
v 0.9260620474815369 -21.342851638793945 -56.08007049560547
v 1 -21.21320343017578 -56.21320343017578
v 0.9260620474815369 -21.342851638793945 -56.08007049560547
v 0.8606215119361877 -21.311288833618164 -56.10854721069336
v 1 -21.21320343017578 -56.21320343017578
v 0.8606215119361877 -21.311288833618164 -56.10854721069336
v 0.8164000511169434 -21.264793395996094 -56.152957916259766
v 1 -21.21320343017578 -56.21320343017578
v 0.8164000511169434 -21.264793395996094 -56.152957916259766
v 0.8001300692558289 -21.210445404052734 -56.206539154052734
v 1 -21.21320343017578 -56.21320343017578
v 0.8001300692558289 -21.210445404052734 -56.206539154052734
v 0.8142884373664856 -21.15651512145996 -56.261138916015625
v 1 -21.21320343017578 -56.21320343017578
v 0.8142884373664856 -21.15651512145996 -56.261138916015625
v 0.8567196726799011 -21.111215591430664 -56.30843734741211
v 1 -21.21320343017578 -56.21320343017578
v 0.8567196726799011 -21.111215591430664 -56.30843734741211
v 0.9209641218185425 -21.081443786621094 -56.34123611450195
v 1 -21.21320343017578 -56.21320343017578
v 0.9209641218185425 -21.081443786621094 -56.34123611450195
v 0.9972410202026367 -21.071731567382812 -56.35454559326172
v 1 -21.21320343017578 -56.21320343017578
v 2.0739378929138184 0.12964829802513123 -35.13313293457031
v 1.9972410202026367 0.14147311449050903 -35.14134216308594
v 2 1.9719058741429762e-7 -35
v 2.139378547668457 0.09808575361967087 -35.10465621948242
v 2.0739378929138184 0.12964829802513123 -35.13313293457031
v 2 1.9719058741429762e-7 -35
v 2.1835999488830566 0.051590558141469955 -35.060245513916016
v 2.139378547668457 0.09808575361967087 -35.10465621948242
v 2 1.9719058741429762e-7 -35
v 2.1998698711395264 -0.0027587960939854383 -35.00666427612305
v 2.1835999488830566 0.051590558141469955 -35.060245513916016
v 2 1.9719058741429762e-7 -35
v 2.185711622238159 -0.05668811872601509 -34.952064514160156
v 2.1998698711395264 -0.0027587960939854383 -35.00666427612305
v 2 1.9719058741429762e-7 -35
v 2.143280267715454 -0.10198716819286346 -34.90476608276367
v 2.185711622238159 -0.05668811872601509 -34.952064514160156
v 2 1.9719058741429762e-7 -35
v 2.079035997390747 -0.13175955414772034 -34.87196731567383
v 2.143280267715454 -0.10198716819286346 -34.90476608276367
v 2 1.9719058741429762e-7 -35
v 2.0027589797973633 -0.1414727121591568 -34.85865783691406
v 2.079035997390747 -0.13175955414772034 -34.87196731567383
v 2 1.9719058741429762e-7 -35
v 1.9260621070861816 -0.12964791059494019 -34.86686706542969
v 2.0027589797973633 -0.1414727121591568 -34.85865783691406
v 2 1.9719058741429762e-7 -35
v 1.8606215715408325 -0.09808535873889923 -34.89534378051758
v 1.9260621070861816 -0.12964791059494019 -34.86686706542969
v 2 1.9719058741429762e-7 -35
v 1.8164000511169434 -0.05159016326069832 -34.939754486083984
v 1.8606215715408325 -0.09808535873889923 -34.89534378051758
v 2 1.9719058741429762e-7 -35
v 1.800130009651184 0.002759190509095788 -34.99333572387695
v 1.8164000511169434 -0.05159016326069832 -34.939754486083984
v 2 1.9719058741429762e-7 -35
v 1.8142884969711304 0.05668851360678673 -35.047935485839844
v 1.800130009651184 0.002759190509095788 -34.99333572387695
v 2 1.9719058741429762e-7 -35
v 1.856719732284546 0.1019875630736351 -35.09523391723633
v 1.8142884969711304 0.05668851360678673 -35.047935485839844
v 2 1.9719058741429762e-7 -35
v 1.9209641218185425 0.13175994157791138 -35.12803268432617
v 1.856719732284546 0.1019875630736351 -35.09523391723633
v 2 1.9719058741429762e-7 -35
v 1.9972410202026367 0.14147311449050903 -35.14134216308594
v 1.9209641218185425 0.13175994157791138 -35.12803268432617
v 2 1.9719058741429762e-7 -35
vt 0 1
vt 0 0
vt 0.0625 1
vt 0 0
vt 0.0625 0
vt 0.0625 1
vt 0.0625 1
vt 0.0625 0
vt 0.125 1
vt 0.0625 0
vt 0.125 0
vt 0.125 1
vt 0.125 1
vt 0.125 0
vt 0.1875 1
vt 0.125 0
vt 0.1875 0
vt 0.1875 1
vt 0.1875 1
vt 0.1875 0
vt 0.25 1
vt 0.1875 0
vt 0.25 0
vt 0.25 1
vt 0.25 1
vt 0.25 0
vt 0.3125 1
vt 0.25 0
vt 0.3125 0
vt 0.3125 1
vt 0.3125 1
vt 0.3125 0
vt 0.375 1
vt 0.3125 0
vt 0.375 0
vt 0.375 1
vt 0.375 1
vt 0.375 0
vt 0.4375 1
vt 0.375 0
vt 0.4375 0
vt 0.4375 1
vt 0.4375 1
vt 0.4375 0
vt 0.5 1
vt 0.4375 0
vt 0.5 0
vt 0.5 1
vt 0.5 1
vt 0.5 0
vt 0.5625 1
vt 0.5 0
vt 0.5625 0
vt 0.5625 1
vt 0.5625 1
vt 0.5625 0
vt 0.625 1
vt 0.5625 0
vt 0.625 0
vt 0.625 1
vt 0.625 1
vt 0.625 0
vt 0.6875 1
vt 0.625 0
vt 0.6875 0
vt 0.6875 1
vt 0.6875 1
vt 0.6875 0
vt 0.75 1
vt 0.6875 0
vt 0.75 0
vt 0.75 1
vt 0.75 1
vt 0.75 0
vt 0.8125 1
vt 0.75 0
vt 0.8125 0
vt 0.8125 1
vt 0.8125 1
vt 0.8125 0
vt 0.875 1
vt 0.8125 0
vt 0.875 0
vt 0.875 1
vt 0.875 1
vt 0.875 0
vt 0.9375 1
vt 0.875 0
vt 0.9375 0
vt 0.9375 1
vt 0.9375 1
vt 0.9375 0
vt 1 1
vt 0.9375 0
vt 1 0
vt 1 1
vt 1 0.5
vt 0.9619397521018982 0.6913416981697083
vt 0.5 0.5
vt 0.9619397521018982 0.6913416981697083
vt 0.8535534143447876 0.8535534143447876
vt 0.5 0.5
vt 0.8535534143447876 0.8535534143447876
vt 0.6913416981697083 0.9619397521018982
vt 0.5 0.5
vt 0.6913416981697083 0.9619397521018982
vt 0.5 1
vt 0.5 0.5
vt 0.5 1
vt 0.30865827202796936 0.9619397521018982
vt 0.5 0.5
vt 0.30865827202796936 0.9619397521018982
vt 0.1464466154575348 0.8535534143447876
vt 0.5 0.5
vt 0.1464466154575348 0.8535534143447876
vt 0.03806023299694061 0.6913416981697083
vt 0.5 0.5
vt 0.03806023299694061 0.6913416981697083
vt 0 0.5
vt 0.5 0.5
vt 0 0.5
vt 0.03806023299694061 0.30865827202796936
vt 0.5 0.5
vt 0.03806023299694061 0.30865827202796936
vt 0.1464466154575348 0.1464466154575348
vt 0.5 0.5
vt 0.1464466154575348 0.1464466154575348
vt 0.30865827202796936 0.03806023299694061
vt 0.5 0.5
vt 0.30865827202796936 0.03806023299694061
vt 0.5 0
vt 0.5 0.5
vt 0.5 0
vt 0.6913416981697083 0.03806023299694061
vt 0.5 0.5
vt 0.6913416981697083 0.03806023299694061
vt 0.8535534143447876 0.1464466154575348
vt 0.5 0.5
vt 0.8535534143447876 0.1464466154575348
vt 0.9619397521018982 0.30865827202796936
vt 0.5 0.5
vt 0.9619397521018982 0.30865827202796936
vt 1 0.5
vt 0.5 0.5
vt 0.9619397521018982 0.30865827202796936
vt 1 0.5
vt 0.5 0.5
vt 0.8535534143447876 0.1464466154575348
vt 0.9619397521018982 0.30865827202796936
vt 0.5 0.5
vt 0.6913416981697083 0.03806023299694061
vt 0.8535534143447876 0.1464466154575348
vt 0.5 0.5
vt 0.5 0
vt 0.6913416981697083 0.03806023299694061
vt 0.5 0.5
vt 0.30865827202796936 0.03806023299694061
vt 0.5 0
vt 0.5 0.5
vt 0.1464466154575348 0.1464466154575348
vt 0.30865827202796936 0.03806023299694061
vt 0.5 0.5
vt 0.03806023299694061 0.30865827202796936
vt 0.1464466154575348 0.1464466154575348
vt 0.5 0.5
vt 0 0.5
vt 0.03806023299694061 0.30865827202796936
vt 0.5 0.5
vt 0.03806023299694061 0.6913416981697083
vt 0 0.5
vt 0.5 0.5
vt 0.1464466154575348 0.8535534143447876
vt 0.03806023299694061 0.6913416981697083
vt 0.5 0.5
vt 0.30865827202796936 0.9619397521018982
vt 0.1464466154575348 0.8535534143447876
vt 0.5 0.5
vt 0.5 1
vt 0.30865827202796936 0.9619397521018982
vt 0.5 0.5
vt 0.6913416981697083 0.9619397521018982
vt 0.5 1
vt 0.5 0.5
vt 0.8535534143447876 0.8535534143447876
vt 0.6913416981697083 0.9619397521018982
vt 0.5 0.5
vt 0.9619397521018982 0.6913416981697083
vt 0.8535534143447876 0.8535534143447876
vt 0.5 0.5
vt 1 0.5
vt 0.9619397521018982 0.6913416981697083
vt 0.5 0.5
vn -0.013794966155044277 0.7073645649680138 -0.7067142782881874
vn -0.013794966155044277 0.7073645649680138 -0.7067142782881874
vn 0.369689693743727 0.6482405500446647 -0.6656678748576197
vn -0.013794966155044277 0.7073645649680138 -0.7067142782881874
vn 0.369689693743727 0.6482405500446647 -0.6656678748576197
vn 0.369689693743727 0.6482405500446647 -0.6656678748576197
vn 0.369689693743727 0.6482405500446647 -0.6656678748576197
vn 0.369689693743727 0.6482405500446647 -0.6656678748576197
vn 0.6968924365590353 0.49042775962391105 -0.5232796044726779
vn 0.369689693743727 0.6482405500446647 -0.6656678748576197
vn 0.6968924365590353 0.49042775962391105 -0.5232796044726779
vn 0.6968924365590353 0.49042775962391105 -0.5232796044726779
vn 0.6968924365590353 0.49042775962391105 -0.5232796044726779
vn 0.6968924365590353 0.49042775962391105 -0.5232796044726779
vn 0.917999624155131 0.257951825561877 -0.3012267347702277
vn 0.6968924365590353 0.49042775962391105 -0.5232796044726779
vn 0.917999624155131 0.257951825561877 -0.3012267347702277
vn 0.917999624155131 0.257951825561877 -0.3012267347702277
vn 0.917999624155131 0.257951825561877 -0.3012267347702277
vn 0.917999624155131 0.257951825561877 -0.3012267347702277
vn 0.9993496990281083 -0.013794965844681399 -0.03331483107826452
vn 0.917999624155131 0.257951825561877 -0.3012267347702277
vn 0.9993496990281083 -0.013794965844681399 -0.03331483107826452
vn 0.9993496990281083 -0.013794965844681399 -0.03331483107826452
vn 0.9993496990281083 -0.013794965844681399 -0.03331483107826452
vn 0.9993496990281083 -0.013794965844681399 -0.03331483107826452
vn 0.9285578314535651 -0.28344160876553254 0.23966895515827533
vn 0.9993496990281083 -0.013794965844681399 -0.03331483107826452
vn 0.9285578314535651 -0.28344160876553254 0.23966895515827533
vn 0.9285578314535651 -0.28344160876553254 0.23966895515827533
vn 0.9285578314535651 -0.28344160876553254 0.23966895515827533
vn 0.9285578314535651 -0.28344160876553254 0.23966895515827533
vn 0.7164014525387516 -0.5099368058043884 0.47616532096151665
vn 0.9285578314535651 -0.28344160876553254 0.23966895515827533
vn 0.7164014525387516 -0.5099368058043884 0.47616532096151665
vn 0.7164014525387516 -0.5099368058043884 0.47616532096151665
vn 0.7164014525387516 -0.5099368058043884 0.47616532096151665
vn 0.7164014525387516 -0.5099368058043884 0.47616532096151665
vn 0.3951794567095465 -0.6587987645472061 0.6401698093676573
vn 0.7164014525387516 -0.5099368058043884 0.47616532096151665
vn 0.3951794567095465 -0.6587987645472061 0.6401698093676573
vn 0.3951794567095465 -0.6587987645472061 0.6401698093676573
vn 0.3951794567095465 -0.6587987645472061 0.6401698093676573
vn 0.3951794567095465 -0.6587987645472061 0.6401698093676573
vn 0.013794966155044277 -0.7073645649680138 0.7067142782881874
vn 0.3951794567095465 -0.6587987645472061 0.6401698093676573
vn 0.013794966155044277 -0.7073645649680138 0.7067142782881874
vn 0.013794966155044277 -0.7073645649680138 0.7067142782881874
vn 0.013794966155044277 -0.7073645649680138 0.7067142782881874
vn 0.013794966155044277 -0.7073645649680138 0.7067142782881874
vn -0.369689693743727 -0.6482405500446647 0.6656678748576197
vn 0.013794966155044277 -0.7073645649680138 0.7067142782881874
vn -0.369689693743727 -0.6482405500446647 0.6656678748576197
vn -0.369689693743727 -0.6482405500446647 0.6656678748576197
vn -0.369689693743727 -0.6482405500446647 0.6656678748576197
vn -0.369689693743727 -0.6482405500446647 0.6656678748576197
vn -0.6968924365590353 -0.49042775962391105 0.5232796044726779
vn -0.369689693743727 -0.6482405500446647 0.6656678748576197
vn -0.6968924365590353 -0.49042775962391105 0.5232796044726779
vn -0.6968924365590353 -0.49042775962391105 0.5232796044726779
vn -0.6968924365590353 -0.49042775962391105 0.5232796044726779
vn -0.6968924365590353 -0.49042775962391105 0.5232796044726779
vn -0.917999624155131 -0.257951825561877 0.3012267347702277
vn -0.6968924365590353 -0.49042775962391105 0.5232796044726779
vn -0.917999624155131 -0.257951825561877 0.3012267347702277
vn -0.917999624155131 -0.257951825561877 0.3012267347702277
vn -0.917999624155131 -0.257951825561877 0.3012267347702277
vn -0.917999624155131 -0.257951825561877 0.3012267347702277
vn -0.9993496990281083 0.013794965844681399 0.03331483107826452
vn -0.917999624155131 -0.257951825561877 0.3012267347702277
vn -0.9993496990281083 0.013794965844681399 0.03331483107826452
vn -0.9993496990281083 0.013794965844681399 0.03331483107826452
vn -0.9993496990281083 0.013794965844681399 0.03331483107826452
vn -0.9993496990281083 0.013794965844681399 0.03331483107826452
vn -0.9285578314535651 0.28344160876553254 -0.23966895515827533
vn -0.9993496990281083 0.013794965844681399 0.03331483107826452
vn -0.9285578314535651 0.28344160876553254 -0.23966895515827533
vn -0.9285578314535651 0.28344160876553254 -0.23966895515827533
vn -0.9285578314535651 0.28344160876553254 -0.23966895515827533
vn -0.9285578314535651 0.28344160876553254 -0.23966895515827533
vn -0.7164014525387516 0.5099368058043884 -0.47616532096151665
vn -0.9285578314535651 0.28344160876553254 -0.23966895515827533
vn -0.7164014525387516 0.5099368058043884 -0.47616532096151665
vn -0.7164014525387516 0.5099368058043884 -0.47616532096151665
vn -0.7164014525387516 0.5099368058043884 -0.47616532096151665
vn -0.7164014525387516 0.5099368058043884 -0.47616532096151665
vn -0.3951794567095465 0.6587987645472061 -0.6401698093676573
vn -0.7164014525387516 0.5099368058043884 -0.47616532096151665
vn -0.3951794567095465 0.6587987645472061 -0.6401698093676573
vn -0.3951794567095465 0.6587987645472061 -0.6401698093676573
vn -0.3951794567095465 0.6587987645472061 -0.6401698093676573
vn -0.3951794567095465 0.6587987645472061 -0.6401698093676573
vn -0.013794966155044277 0.7073645649680138 -0.7067142782881874
vn -0.3951794567095465 0.6587987645472061 -0.6401698093676573
vn -0.013794966155044277 0.7073645649680138 -0.7067142782881874
vn -0.013794966155044277 0.7073645649680138 -0.7067142782881874
vn -0.03331483148976999 -0.7067142711176874 -0.7067142711176874
vn -0.03331483148976999 -0.7067142711176874 -0.7067142711176874
vn -0.03331483148976999 -0.7067142711176874 -0.7067142711176874
vn -0.03331483148976999 -0.7067142711176874 -0.7067142711176874
vn -0.03331483148976999 -0.7067142711176874 -0.7067142711176874
vn -0.03331483148976999 -0.7067142711176874 -0.7067142711176874
vn -0.03331483148976999 -0.7067142711176874 -0.7067142711176874
vn -0.03331483148976999 -0.7067142711176874 -0.7067142711176874
vn -0.03331483148976999 -0.7067142711176874 -0.7067142711176874
vn -0.03331483148976999 -0.7067142711176874 -0.7067142711176874
vn -0.03331483148976999 -0.7067142711176874 -0.7067142711176874
vn -0.03331483148976999 -0.7067142711176874 -0.7067142711176874
vn -0.03331483148976999 -0.7067142711176874 -0.7067142711176874
vn -0.03331483148976999 -0.7067142711176874 -0.7067142711176874
vn -0.03331483148976999 -0.7067142711176874 -0.7067142711176874
vn -0.03331483148976999 -0.7067142711176874 -0.7067142711176874
vn -0.03331483148976999 -0.7067142711176874 -0.7067142711176874
vn -0.03331483148976999 -0.7067142711176874 -0.7067142711176874
vn -0.03331483148976999 -0.7067142711176874 -0.7067142711176874
vn -0.03331483148976999 -0.7067142711176874 -0.7067142711176874
vn -0.03331483148976999 -0.7067142711176874 -0.7067142711176874
vn -0.03331483148976999 -0.7067142711176874 -0.7067142711176874
vn -0.03331483148976999 -0.7067142711176874 -0.7067142711176874
vn -0.03331483148976999 -0.7067142711176874 -0.7067142711176874
vn -0.03331483148976999 -0.7067142711176874 -0.7067142711176874
vn -0.03331483148976999 -0.7067142711176874 -0.7067142711176874
vn -0.03331483148976999 -0.7067142711176874 -0.7067142711176874
vn -0.03331483148976999 -0.7067142711176874 -0.7067142711176874
vn -0.03331483148976999 -0.7067142711176874 -0.7067142711176874
vn -0.03331483148976999 -0.7067142711176874 -0.7067142711176874
vn -0.03331483148976999 -0.7067142711176874 -0.7067142711176874
vn -0.03331483148976999 -0.7067142711176874 -0.7067142711176874
vn -0.03331483148976999 -0.7067142711176874 -0.7067142711176874
vn -0.03331483148976999 -0.7067142711176874 -0.7067142711176874
vn -0.03331483148976999 -0.7067142711176874 -0.7067142711176874
vn -0.03331483148976999 -0.7067142711176874 -0.7067142711176874
vn -0.03331483148976999 -0.7067142711176874 -0.7067142711176874
vn -0.03331483148976999 -0.7067142711176874 -0.7067142711176874
vn -0.03331483148976999 -0.7067142711176874 -0.7067142711176874
vn -0.03331483148976999 -0.7067142711176874 -0.7067142711176874
vn -0.03331483148976999 -0.7067142711176874 -0.7067142711176874
vn -0.03331483148976999 -0.7067142711176874 -0.7067142711176874
vn -0.03331483148976999 -0.7067142711176874 -0.7067142711176874
vn -0.03331483148976999 -0.7067142711176874 -0.7067142711176874
vn -0.03331483148976999 -0.7067142711176874 -0.7067142711176874
vn -0.03331483148976999 -0.7067142711176874 -0.7067142711176874
vn -0.03331483148976999 -0.7067142711176874 -0.7067142711176874
vn -0.03331483148976999 -0.7067142711176874 -0.7067142711176874
vn 0.03331483148976999 0.7067142711176874 0.7067142711176874
vn 0.03331483148976999 0.7067142711176874 0.7067142711176874
vn 0.03331483148976999 0.7067142711176874 0.7067142711176874
vn 0.03331483148976999 0.7067142711176874 0.7067142711176874
vn 0.03331483148976999 0.7067142711176874 0.7067142711176874
vn 0.03331483148976999 0.7067142711176874 0.7067142711176874
vn 0.03331483148976999 0.7067142711176874 0.7067142711176874
vn 0.03331483148976999 0.7067142711176874 0.7067142711176874
vn 0.03331483148976999 0.7067142711176874 0.7067142711176874
vn 0.03331483148976999 0.7067142711176874 0.7067142711176874
vn 0.03331483148976999 0.7067142711176874 0.7067142711176874
vn 0.03331483148976999 0.7067142711176874 0.7067142711176874
vn 0.03331483148976999 0.7067142711176874 0.7067142711176874
vn 0.03331483148976999 0.7067142711176874 0.7067142711176874
vn 0.03331483148976999 0.7067142711176874 0.7067142711176874
vn 0.03331483148976999 0.7067142711176874 0.7067142711176874
vn 0.03331483148976999 0.7067142711176874 0.7067142711176874
vn 0.03331483148976999 0.7067142711176874 0.7067142711176874
vn 0.03331483148976999 0.7067142711176874 0.7067142711176874
vn 0.03331483148976999 0.7067142711176874 0.7067142711176874
vn 0.03331483148976999 0.7067142711176874 0.7067142711176874
vn 0.03331483148976999 0.7067142711176874 0.7067142711176874
vn 0.03331483148976999 0.7067142711176874 0.7067142711176874
vn 0.03331483148976999 0.7067142711176874 0.7067142711176874
vn 0.03331483148976999 0.7067142711176874 0.7067142711176874
vn 0.03331483148976999 0.7067142711176874 0.7067142711176874
vn 0.03331483148976999 0.7067142711176874 0.7067142711176874
vn 0.03331483148976999 0.7067142711176874 0.7067142711176874
vn 0.03331483148976999 0.7067142711176874 0.7067142711176874
vn 0.03331483148976999 0.7067142711176874 0.7067142711176874
vn 0.03331483148976999 0.7067142711176874 0.7067142711176874
vn 0.03331483148976999 0.7067142711176874 0.7067142711176874
vn 0.03331483148976999 0.7067142711176874 0.7067142711176874
vn 0.03331483148976999 0.7067142711176874 0.7067142711176874
vn 0.03331483148976999 0.7067142711176874 0.7067142711176874
vn 0.03331483148976999 0.7067142711176874 0.7067142711176874
vn 0.03331483148976999 0.7067142711176874 0.7067142711176874
vn 0.03331483148976999 0.7067142711176874 0.7067142711176874
vn 0.03331483148976999 0.7067142711176874 0.7067142711176874
vn 0.03331483148976999 0.7067142711176874 0.7067142711176874
vn 0.03331483148976999 0.7067142711176874 0.7067142711176874
vn 0.03331483148976999 0.7067142711176874 0.7067142711176874
vn 0.03331483148976999 0.7067142711176874 0.7067142711176874
vn 0.03331483148976999 0.7067142711176874 0.7067142711176874
vn 0.03331483148976999 0.7067142711176874 0.7067142711176874
vn 0.03331483148976999 0.7067142711176874 0.7067142711176874
vn 0.03331483148976999 0.7067142711176874 0.7067142711176874
vn 0.03331483148976999 0.7067142711176874 0.7067142711176874
f 1/1/1 2/2/2 3/3/3
f 4/4/4 5/5/5 6/6/6
f 7/7/7 8/8/8 9/9/9
f 10/10/10 11/11/11 12/12/12
f 13/13/13 14/14/14 15/15/15
f 16/16/16 17/17/17 18/18/18
f 19/19/19 20/20/20 21/21/21
f 22/22/22 23/23/23 24/24/24
f 25/25/25 26/26/26 27/27/27
f 28/28/28 29/29/29 30/30/30
f 31/31/31 32/32/32 33/33/33
f 34/34/34 35/35/35 36/36/36
f 37/37/37 38/38/38 39/39/39
f 40/40/40 41/41/41 42/42/42
f 43/43/43 44/44/44 45/45/45
f 46/46/46 47/47/47 48/48/48
f 49/49/49 50/50/50 51/51/51
f 52/52/52 53/53/53 54/54/54
f 55/55/55 56/56/56 57/57/57
f 58/58/58 59/59/59 60/60/60
f 61/61/61 62/62/62 63/63/63
f 64/64/64 65/65/65 66/66/66
f 67/67/67 68/68/68 69/69/69
f 70/70/70 71/71/71 72/72/72
f 73/73/73 74/74/74 75/75/75
f 76/76/76 77/77/77 78/78/78
f 79/79/79 80/80/80 81/81/81
f 82/82/82 83/83/83 84/84/84
f 85/85/85 86/86/86 87/87/87
f 88/88/88 89/89/89 90/90/90
f 91/91/91 92/92/92 93/93/93
f 94/94/94 95/95/95 96/96/96
f 97/97/97 98/98/98 99/99/99
f 100/100/100 101/101/101 102/102/102
f 103/103/103 104/104/104 105/105/105
f 106/106/106 107/107/107 108/108/108
f 109/109/109 110/110/110 111/111/111
f 112/112/112 113/113/113 114/114/114
f 115/115/115 116/116/116 117/117/117
f 118/118/118 119/119/119 120/120/120
f 121/121/121 122/122/122 123/123/123
f 124/124/124 125/125/125 126/126/126
f 127/127/127 128/128/128 129/129/129
f 130/130/130 131/131/131 132/132/132
f 133/133/133 134/134/134 135/135/135
f 136/136/136 137/137/137 138/138/138
f 139/139/139 140/140/140 141/141/141
f 142/142/142 143/143/143 144/144/144
f 145/145/145 146/146/146 147/147/147
f 148/148/148 149/149/149 150/150/150
f 151/151/151 152/152/152 153/153/153
f 154/154/154 155/155/155 156/156/156
f 157/157/157 158/158/158 159/159/159
f 160/160/160 161/161/161 162/162/162
f 163/163/163 164/164/164 165/165/165
f 166/166/166 167/167/167 168/168/168
f 169/169/169 170/170/170 171/171/171
f 172/172/172 173/173/173 174/174/174
f 175/175/175 176/176/176 177/177/177
f 178/178/178 179/179/179 180/180/180
f 181/181/181 182/182/182 183/183/183
f 184/184/184 185/185/185 186/186/186
f 187/187/187 188/188/188 189/189/189
f 190/190/190 191/191/191 192/192/192
