o 
v -0.9993439316749573 -5.656549453735352 -64.46255493164062
v -1.999343991279602 0.19616031646728516 -35.038997650146484
v -0.9229000806808472 -5.671230316162109 -64.45703887939453
v -1.999343991279602 0.19616031646728516 -35.038997650146484
v -1.9229000806808472 0.1814795732498169 -35.033477783203125
v -0.9229000806808472 -5.671230316162109 -64.45703887939453
v -0.9229000806808472 -5.671230316162109 -64.45703887939453
v -1.9229000806808472 0.1814795732498169 -35.033477783203125
v -0.8581939935684204 -5.7135396003723145 -64.44641876220703
v -1.9229000806808472 0.1814795732498169 -35.033477783203125
v -1.8581939935684204 0.13917021453380585 -35.02286148071289
v -0.8581939935684204 -5.7135396003723145 -64.44641876220703
v -0.8581939935684204 -5.7135396003723145 -64.44641876220703
v -1.8581939935684204 0.13917021453380585 -35.02286148071289
v -0.8150765895843506 -5.777036190032959 -64.43232727050781
v -1.8581939935684204 0.13917021453380585 -35.02286148071289
v -1.8150765895843506 0.07567346096038818 -35.008766174316406
v -0.8150765895843506 -5.777036190032959 -64.43232727050781
v -0.8150765895843506 -5.777036190032959 -64.43232727050781
v -1.8150765895843506 0.07567346096038818 -35.008766174316406
v -0.8001120686531067 -5.852053642272949 -64.4168930053711
v -1.8150765895843506 0.07567346096038818 -35.008766174316406
v -1.8001121282577515 0.0006561153568327427 -34.99333572387695
v -0.8001120686531067 -5.852053642272949 -64.4168930053711
v -0.8001120686531067 -5.852053642272949 -64.4168930053711
v -1.8001121282577515 0.0006561153568327427 -34.99333572387695
v -0.8155786991119385 -5.927170753479004 -64.40248107910156
v -1.8001121282577515 0.0006561153568327427 -34.99333572387695
v -1.8155786991119385 -0.07446110993623734 -34.978919982910156
v -0.8155786991119385 -5.927170753479004 -64.40248107910156
v -0.8155786991119385 -5.927170753479004 -64.40248107910156
v -1.8155786991119385 -0.07446110993623734 -34.978919982910156
v -0.8591217994689941 -5.990952014923096 -64.39127349853516
v -1.8155786991119385 -0.07446110993623734 -34.978919982910156
v -1.8591217994689941 -0.13824230432510376 -34.96771240234375
v -0.8591217994689941 -5.990952014923096 -64.39127349853516
v -0.8591217994689941 -5.990952014923096 -64.39127349853516
v -1.8591217994689941 -0.13824230432510376 -34.96771240234375
v -0.9241123199462891 -6.033687114715576 -64.38497924804688
v -1.8591217994689941 -0.13824230432510376 -34.96771240234375
v -1.924112319946289 -0.18097732961177826 -34.961421966552734
v -0.9241123199462891 -6.033687114715576 -64.38497924804688
v -0.9241123199462891 -6.033687114715576 -64.38497924804688
v -1.924112319946289 -0.18097732961177826 -34.961421966552734
v -1.000656008720398 -6.048870086669922 -64.38455963134766
v -1.924112319946289 -0.18097732961177826 -34.961421966552734
v -2.0006561279296875 -0.1961602121591568 -34.961002349853516
v -1.000656008720398 -6.048870086669922 -64.38455963134766
v -1.000656008720398 -6.048870086669922 -64.38455963134766
v -2.0006561279296875 -0.1961602121591568 -34.961002349853516
v -1.0770999193191528 -6.034189224243164 -64.39008331298828
v -2.0006561279296875 -0.1961602121591568 -34.961002349853516
v -2.0770998001098633 -0.18147945404052734 -34.966522216796875
v -1.0770999193191528 -6.034189224243164 -64.39008331298828
v -1.0770999193191528 -6.034189224243164 -64.39008331298828
v -2.0770998001098633 -0.18147945404052734 -34.966522216796875
v -1.1418060064315796 -5.991879940032959 -64.40069580078125
v -2.0770998001098633 -0.18147945404052734 -34.966522216796875
v -2.141806125640869 -0.1391701102256775 -34.977134704589844
v -1.1418060064315796 -5.991879940032959 -64.40069580078125
v -1.1418060064315796 -5.991879940032959 -64.40069580078125
v -2.141806125640869 -0.1391701102256775 -34.977134704589844
v -1.1849234104156494 -5.9283833503723145 -64.414794921875
v -2.141806125640869 -0.1391701102256775 -34.977134704589844
v -2.1849234104156494 -0.07567334920167923 -34.991233825683594
v -1.1849234104156494 -5.9283833503723145 -64.414794921875
v -1.1849234104156494 -5.9283833503723145 -64.414794921875
v -2.1849234104156494 -0.07567334920167923 -34.991233825683594
v -1.1998878717422485 -5.853365898132324 -64.43022155761719
v -2.1849234104156494 -0.07567334920167923 -34.991233825683594
v -2.199887990951538 -0.0006560065085068345 -35.00666427612305
v -1.1998878717422485 -5.853365898132324 -64.43022155761719
v -1.1998878717422485 -5.853365898132324 -64.43022155761719
v -2.199887990951538 -0.0006560065085068345 -35.00666427612305
v -1.1844213008880615 -5.7782487869262695 -64.44464111328125
v -2.199887990951538 -0.0006560065085068345 -35.00666427612305
v -2.1844213008880615 0.07446121424436569 -35.021080017089844
v -1.1844213008880615 -5.7782487869262695 -64.44464111328125
v -1.1844213008880615 -5.7782487869262695 -64.44464111328125
v -2.1844213008880615 0.07446121424436569 -35.021080017089844
v -1.1408782005310059 -5.714467525482178 -64.45584106445312
v -2.1844213008880615 0.07446121424436569 -35.021080017089844
v -2.140878200531006 0.13824240863323212 -35.03228759765625
v -1.1408782005310059 -5.714467525482178 -64.45584106445312
v -1.1408782005310059 -5.714467525482178 -64.45584106445312
v -2.140878200531006 0.13824240863323212 -35.03228759765625
v -1.075887680053711 -5.671732425689697 -64.4621353149414
v -2.140878200531006 0.13824240863323212 -35.03228759765625
v -2.075887680053711 0.1809774488210678 -35.038578033447266
v -1.075887680053711 -5.671732425689697 -64.4621353149414
v -1.075887680053711 -5.671732425689697 -64.4621353149414
v -2.075887680053711 0.1809774488210678 -35.038578033447266
v -0.9993439316749573 -5.656549453735352 -64.46255493164062
v -2.075887680053711 0.1809774488210678 -35.038578033447266
v -1.999343991279602 0.19616031646728516 -35.038997650146484
v -0.9993439316749573 -5.656549453735352 -64.46255493164062
v -0.9993439316749573 -5.656549453735352 -64.46255493164062
v -0.9229000806808472 -5.671230316162109 -64.45703887939453
v -1 -5.852709770202637 -64.4235610961914
v -0.9229000806808472 -5.671230316162109 -64.45703887939453
v -0.8581939935684204 -5.7135396003723145 -64.44641876220703
v -1 -5.852709770202637 -64.4235610961914
v -0.8581939935684204 -5.7135396003723145 -64.44641876220703
v -0.8150765895843506 -5.777036190032959 -64.43232727050781
v -1 -5.852709770202637 -64.4235610961914
v -0.8150765895843506 -5.777036190032959 -64.43232727050781
v -0.8001120686531067 -5.852053642272949 -64.4168930053711
v -1 -5.852709770202637 -64.4235610961914
v -0.8001120686531067 -5.852053642272949 -64.4168930053711
v -0.8155786991119385 -5.927170753479004 -64.40248107910156
v -1 -5.852709770202637 -64.4235610961914
v -0.8155786991119385 -5.927170753479004 -64.40248107910156
v -0.8591217994689941 -5.990952014923096 -64.39127349853516
v -1 -5.852709770202637 -64.4235610961914
v -0.8591217994689941 -5.990952014923096 -64.39127349853516
v -0.9241123199462891 -6.033687114715576 -64.38497924804688
v -1 -5.852709770202637 -64.4235610961914
v -0.9241123199462891 -6.033687114715576 -64.38497924804688
v -1.000656008720398 -6.048870086669922 -64.38455963134766
v -1 -5.852709770202637 -64.4235610961914
v -1.000656008720398 -6.048870086669922 -64.38455963134766
v -1.0770999193191528 -6.034189224243164 -64.39008331298828
v -1 -5.852709770202637 -64.4235610961914
v -1.0770999193191528 -6.034189224243164 -64.39008331298828
v -1.1418060064315796 -5.991879940032959 -64.40069580078125
v -1 -5.852709770202637 -64.4235610961914
v -1.1418060064315796 -5.991879940032959 -64.40069580078125
v -1.1849234104156494 -5.9283833503723145 -64.414794921875
v -1 -5.852709770202637 -64.4235610961914
v -1.1849234104156494 -5.9283833503723145 -64.414794921875
v -1.1998878717422485 -5.853365898132324 -64.43022155761719
v -1 -5.852709770202637 -64.4235610961914
v -1.1998878717422485 -5.853365898132324 -64.43022155761719
v -1.1844213008880615 -5.7782487869262695 -64.44464111328125
v -1 -5.852709770202637 -64.4235610961914
v -1.1844213008880615 -5.7782487869262695 -64.44464111328125
v -1.1408782005310059 -5.714467525482178 -64.45584106445312
v -1 -5.852709770202637 -64.4235610961914
v -1.1408782005310059 -5.714467525482178 -64.45584106445312
v -1.075887680053711 -5.671732425689697 -64.4621353149414
v -1 -5.852709770202637 -64.4235610961914
v -1.075887680053711 -5.671732425689697 -64.4621353149414
v -0.9993439316749573 -5.656549453735352 -64.46255493164062
v -1 -5.852709770202637 -64.4235610961914
v -1.9229000806808472 0.1814795732498169 -35.033477783203125
v -1.999343991279602 0.19616031646728516 -35.038997650146484
v -2 5.4404765137405775e-8 -35
v -1.8581939935684204 0.13917021453380585 -35.02286148071289
v -1.9229000806808472 0.1814795732498169 -35.033477783203125
v -2 5.4404765137405775e-8 -35
v -1.8150765895843506 0.07567346096038818 -35.008766174316406
v -1.8581939935684204 0.13917021453380585 -35.02286148071289
v -2 5.4404765137405775e-8 -35
v -1.8001121282577515 0.0006561153568327427 -34.99333572387695
v -1.8150765895843506 0.07567346096038818 -35.008766174316406
v -2 5.4404765137405775e-8 -35
v -1.8155786991119385 -0.07446110993623734 -34.978919982910156
v -1.8001121282577515 0.0006561153568327427 -34.99333572387695
v -2 5.4404765137405775e-8 -35
v -1.8591217994689941 -0.13824230432510376 -34.96771240234375
v -1.8155786991119385 -0.07446110993623734 -34.978919982910156
v -2 5.4404765137405775e-8 -35
v -1.924112319946289 -0.18097732961177826 -34.961421966552734
v -1.8591217994689941 -0.13824230432510376 -34.96771240234375
v -2 5.4404765137405775e-8 -35
v -2.0006561279296875 -0.1961602121591568 -34.961002349853516
v -1.924112319946289 -0.18097732961177826 -34.961421966552734
v -2 5.4404765137405775e-8 -35
v -2.0770998001098633 -0.18147945404052734 -34.966522216796875
v -2.0006561279296875 -0.1961602121591568 -34.961002349853516
v -2 5.4404765137405775e-8 -35
v -2.141806125640869 -0.1391701102256775 -34.977134704589844
v -2.0770998001098633 -0.18147945404052734 -34.966522216796875
v -2 5.4404765137405775e-8 -35
v -2.1849234104156494 -0.07567334920167923 -34.991233825683594
v -2.141806125640869 -0.1391701102256775 -34.977134704589844
v -2 5.4404765137405775e-8 -35
v -2.199887990951538 -0.0006560065085068345 -35.00666427612305
v -2.1849234104156494 -0.07567334920167923 -34.991233825683594
v -2 5.4404765137405775e-8 -35
v -2.1844213008880615 0.07446121424436569 -35.021080017089844
v -2.199887990951538 -0.0006560065085068345 -35.00666427612305
v -2 5.4404765137405775e-8 -35
v -2.140878200531006 0.13824240863323212 -35.03228759765625
v -2.1844213008880615 0.07446121424436569 -35.021080017089844
v -2 5.4404765137405775e-8 -35
v -2.075887680053711 0.1809774488210678 -35.038578033447266
v -2.140878200531006 0.13824240863323212 -35.03228759765625
v -2 5.4404765137405775e-8 -35
v -1.999343991279602 0.19616031646728516 -35.038997650146484
v -2.075887680053711 0.1809774488210678 -35.038578033447266
v -2 5.4404765137405775e-8 -35
vt 0 1
vt 0 0
vt 0.0625 1
vt 0 0
vt 0.0625 0
vt 0.0625 1
vt 0.0625 1
vt 0.0625 0
vt 0.125 1
vt 0.0625 0
vt 0.125 0
vt 0.125 1
vt 0.125 1
vt 0.125 0
vt 0.1875 1
vt 0.125 0
vt 0.1875 0
vt 0.1875 1
vt 0.1875 1
vt 0.1875 0
vt 0.25 1
vt 0.1875 0
vt 0.25 0
vt 0.25 1
vt 0.25 1
vt 0.25 0
vt 0.3125 1
vt 0.25 0
vt 0.3125 0
vt 0.3125 1
vt 0.3125 1
vt 0.3125 0
vt 0.375 1
vt 0.3125 0
vt 0.375 0
vt 0.375 1
vt 0.375 1
vt 0.375 0
vt 0.4375 1
vt 0.375 0
vt 0.4375 0
vt 0.4375 1
vt 0.4375 1
vt 0.4375 0
vt 0.5 1
vt 0.4375 0
vt 0.5 0
vt 0.5 1
vt 0.5 1
vt 0.5 0
vt 0.5625 1
vt 0.5 0
vt 0.5625 0
vt 0.5625 1
vt 0.5625 1
vt 0.5625 0
vt 0.625 1
vt 0.5625 0
vt 0.625 0
vt 0.625 1
vt 0.625 1
vt 0.625 0
vt 0.6875 1
vt 0.625 0
vt 0.6875 0
vt 0.6875 1
vt 0.6875 1
vt 0.6875 0
vt 0.75 1
vt 0.6875 0
vt 0.75 0
vt 0.75 1
vt 0.75 1
vt 0.75 0
vt 0.8125 1
vt 0.75 0
vt 0.8125 0
vt 0.8125 1
vt 0.8125 1
vt 0.8125 0
vt 0.875 1
vt 0.8125 0
vt 0.875 0
vt 0.875 1
vt 0.875 1
vt 0.875 0
vt 0.9375 1
vt 0.875 0
vt 0.9375 0
vt 0.9375 1
vt 0.9375 1
vt 0.9375 0
vt 1 1
vt 0.9375 0
vt 1 0
vt 1 1
vt 1 0.5
vt 0.9619397521018982 0.6913416981697083
vt 0.5 0.5
vt 0.9619397521018982 0.6913416981697083
vt 0.8535534143447876 0.8535534143447876
vt 0.5 0.5
vt 0.8535534143447876 0.8535534143447876
vt 0.6913416981697083 0.9619397521018982
vt 0.5 0.5
vt 0.6913416981697083 0.9619397521018982
vt 0.5 1
vt 0.5 0.5
vt 0.5 1
vt 0.30865827202796936 0.9619397521018982
vt 0.5 0.5
vt 0.30865827202796936 0.9619397521018982
vt 0.1464466154575348 0.8535534143447876
vt 0.5 0.5
vt 0.1464466154575348 0.8535534143447876
vt 0.03806023299694061 0.6913416981697083
vt 0.5 0.5
vt 0.03806023299694061 0.6913416981697083
vt 0 0.5
vt 0.5 0.5
vt 0 0.5
vt 0.03806023299694061 0.30865827202796936
vt 0.5 0.5
vt 0.03806023299694061 0.30865827202796936
vt 0.1464466154575348 0.1464466154575348
vt 0.5 0.5
vt 0.1464466154575348 0.1464466154575348
vt 0.30865827202796936 0.03806023299694061
vt 0.5 0.5
vt 0.30865827202796936 0.03806023299694061
vt 0.5 0
vt 0.5 0.5
vt 0.5 0
vt 0.6913416981697083 0.03806023299694061
vt 0.5 0.5
vt 0.6913416981697083 0.03806023299694061
vt 0.8535534143447876 0.1464466154575348
vt 0.5 0.5
vt 0.8535534143447876 0.1464466154575348
vt 0.9619397521018982 0.30865827202796936
vt 0.5 0.5
vt 0.9619397521018982 0.30865827202796936
vt 1 0.5
vt 0.5 0.5
vt 0.9619397521018982 0.30865827202796936
vt 1 0.5
vt 0.5 0.5
vt 0.8535534143447876 0.1464466154575348
vt 0.9619397521018982 0.30865827202796936
vt 0.5 0.5
vt 0.6913416981697083 0.03806023299694061
vt 0.8535534143447876 0.1464466154575348
vt 0.5 0.5
vt 0.5 0
vt 0.6913416981697083 0.03806023299694061
vt 0.5 0.5
vt 0.30865827202796936 0.03806023299694061
vt 0.5 0
vt 0.5 0.5
vt 0.1464466154575348 0.1464466154575348
vt 0.30865827202796936 0.03806023299694061
vt 0.5 0.5
vt 0.03806023299694061 0.30865827202796936
vt 0.1464466154575348 0.1464466154575348
vt 0.5 0.5
vt 0 0.5
vt 0.03806023299694061 0.30865827202796936
vt 0.5 0.5
vt 0.03806023299694061 0.6913416981697083
vt 0 0.5
vt 0.5 0.5
vt 0.1464466154575348 0.8535534143447876
vt 0.03806023299694061 0.6913416981697083
vt 0.5 0.5
vt 0.30865827202796936 0.9619397521018982
vt 0.1464466154575348 0.8535534143447876
vt 0.5 0.5
vt 0.5 1
vt 0.30865827202796936 0.9619397521018982
vt 0.5 0.5
vt 0.6913416981697083 0.9619397521018982
vt 0.5 1
vt 0.5 0.5
vt 0.8535534143447876 0.8535534143447876
vt 0.6913416981697083 0.9619397521018982
vt 0.5 0.5
vt 0.9619397521018982 0.6913416981697083
vt 0.8535534143447876 0.8535534143447876
vt 0.5 0.5
vt 1 0.5
vt 0.9619397521018982 0.6913416981697083
vt 0.5 0.5
vn 0.0032803045632338983 0.9808013313876632 -0.1949820195560588
vn 0.0032803045632338983 0.9808013313876632 -0.1949820195560588
vn 0.3854995734370241 0.9073975838636744 -0.16739087095250474
vn 0.0032803045632338983 0.9808013313876632 -0.1949820195560588
vn 0.3854995734370241 0.9073975838636744 -0.16739087095250474
vn 0.3854995734370241 0.9073975838636744 -0.16739087095250474
vn 0.3854995734370241 0.9073975838636744 -0.16739087095250474
vn 0.3854995734370241 0.9073975838636744 -0.16739087095250474
vn 0.7090299850729264 0.6958508018339288 -0.11431597375067007
vn 0.3854995734370241 0.9073975838636744 -0.16739087095250474
vn 0.7090299850729264 0.6958508018339288 -0.11431597375067007
vn 0.7090299850729264 0.6958508018339288 -0.11431597375067007
vn 0.7090299850729264 0.6958508018339288 -0.11431597375067007
vn 0.7090299850729264 0.6958508018339288 -0.11431597375067007
vn 0.924617036360182 0.37836703014897366 -0.04383750185354511
vn 0.7090299850729264 0.6958508018339288 -0.11431597375067007
vn 0.924617036360182 0.37836703014897366 -0.04383750185354511
vn 0.924617036360182 0.37836703014897366 -0.04383750185354511
vn 0.924617036360182 0.37836703014897366 -0.04383750185354511
vn 0.924617036360182 0.37836703014897366 -0.04383750185354511
vn 0.9994395237487163 0.0032803045599249527 0.033314831095671835
vn 0.924617036360182 0.37836703014897366 -0.04383750185354511
vn 0.9994395237487163 0.0032803045599249527 0.033314831095671835
vn 0.9994395237487163 0.0032803045599249527 0.033314831095671835
vn 0.9994395237487163 0.0032803045599249527 0.033314831095671835
vn 0.9994395237487163 0.0032803045599249527 0.033314831095671835
vn 0.9221064003585876 -0.37230581655935163 0.10539528155379065
vn 0.9994395237487163 0.0032803045599249527 0.033314831095671835
vn 0.9221064003585876 -0.37230581655935163 0.10539528155379065
vn 0.9221064003585876 -0.37230581655935163 0.10539528155379065
vn 0.9221064003585876 -0.37230581655935163 0.10539528155379065
vn 0.9221064003585876 -0.37230581655935163 0.10539528155379065
vn 0.7043909342567759 -0.691211751415018 0.1614302525632969
vn 0.9221064003585876 -0.37230581655935163 0.10539528155379065
vn 0.7043909342567759 -0.691211751415018 0.1614302525632969
vn 0.7043909342567759 -0.691211751415018 0.1614302525632969
vn 0.7043909342567759 -0.691211751415018 0.1614302525632969
vn 0.7043909342567759 -0.691211751415018 0.1614302525632969
vn 0.379438338433166 -0.9048869556633841 0.19288894420710292
vn 0.7043909342567759 -0.691211751415018 0.1614302525632969
vn 0.379438338433166 -0.9048869556633841 0.19288894420710292
vn 0.379438338433166 -0.9048869556633841 0.19288894420710292
vn 0.379438338433166 -0.9048869556633841 0.19288894420710292
vn 0.379438338433166 -0.9048869556633841 0.19288894420710292
vn -0.0032803045632338983 -0.9808013313876632 0.1949820195560588
vn 0.379438338433166 -0.9048869556633841 0.19288894420710292
vn -0.0032803045632338983 -0.9808013313876632 0.1949820195560588
vn -0.0032803045632338983 -0.9808013313876632 0.1949820195560588
vn -0.0032803045632338983 -0.9808013313876632 0.1949820195560588
vn -0.0032803045632338983 -0.9808013313876632 0.1949820195560588
vn -0.3854995734370241 -0.9073975838636744 0.16739087095250474
vn -0.0032803045632338983 -0.9808013313876632 0.1949820195560588
vn -0.3854995734370241 -0.9073975838636744 0.16739087095250474
vn -0.3854995734370241 -0.9073975838636744 0.16739087095250474
vn -0.3854995734370241 -0.9073975838636744 0.16739087095250474
vn -0.3854995734370241 -0.9073975838636744 0.16739087095250474
vn -0.7090299850729264 -0.6958508018339288 0.11431597375067007
vn -0.3854995734370241 -0.9073975838636744 0.16739087095250474
vn -0.7090299850729264 -0.6958508018339288 0.11431597375067007
vn -0.7090299850729264 -0.6958508018339288 0.11431597375067007
vn -0.7090299850729264 -0.6958508018339288 0.11431597375067007
vn -0.7090299850729264 -0.6958508018339288 0.11431597375067007
vn -0.924617036360182 -0.37836703014897366 0.04383750185354511
vn -0.7090299850729264 -0.6958508018339288 0.11431597375067007
vn -0.924617036360182 -0.37836703014897366 0.04383750185354511
vn -0.924617036360182 -0.37836703014897366 0.04383750185354511
vn -0.924617036360182 -0.37836703014897366 0.04383750185354511
vn -0.924617036360182 -0.37836703014897366 0.04383750185354511
vn -0.9994395237487163 -0.0032803045599249527 -0.033314831095671835
vn -0.924617036360182 -0.37836703014897366 0.04383750185354511
vn -0.9994395237487163 -0.0032803045599249527 -0.033314831095671835
vn -0.9994395237487163 -0.0032803045599249527 -0.033314831095671835
vn -0.9994395237487163 -0.0032803045599249527 -0.033314831095671835
vn -0.9994395237487163 -0.0032803045599249527 -0.033314831095671835
vn -0.9221064003585876 0.37230581655935163 -0.10539528155379065
vn -0.9994395237487163 -0.0032803045599249527 -0.033314831095671835
vn -0.9221064003585876 0.37230581655935163 -0.10539528155379065
vn -0.9221064003585876 0.37230581655935163 -0.10539528155379065
vn -0.9221064003585876 0.37230581655935163 -0.10539528155379065
vn -0.9221064003585876 0.37230581655935163 -0.10539528155379065
vn -0.7043909342567759 0.691211751415018 -0.1614302525632969
vn -0.9221064003585876 0.37230581655935163 -0.10539528155379065
vn -0.7043909342567759 0.691211751415018 -0.1614302525632969
vn -0.7043909342567759 0.691211751415018 -0.1614302525632969
vn -0.7043909342567759 0.691211751415018 -0.1614302525632969
vn -0.7043909342567759 0.691211751415018 -0.1614302525632969
vn -0.379438338433166 0.9048869556633841 -0.19288894420710292
vn -0.7043909342567759 0.691211751415018 -0.1614302525632969
vn -0.379438338433166 0.9048869556633841 -0.19288894420710292
vn -0.379438338433166 0.9048869556633841 -0.19288894420710292
vn -0.379438338433166 0.9048869556633841 -0.19288894420710292
vn -0.379438338433166 0.9048869556633841 -0.19288894420710292
vn 0.0032803045632338983 0.9808013313876632 -0.1949820195560588
vn -0.379438338433166 0.9048869556633841 -0.19288894420710292
vn 0.0032803045632338983 0.9808013313876632 -0.1949820195560588
vn 0.0032803045632338983 0.9808013313876632 -0.1949820195560588
vn 0.033314830679121415 -0.19498201692142586 -0.9802408556748053
vn 0.033314830679121415 -0.19498201692142586 -0.9802408556748053
vn 0.033314830679121415 -0.19498201692142586 -0.9802408556748053
vn 0.033314830679121415 -0.19498201692142586 -0.9802408556748053
vn 0.033314830679121415 -0.19498201692142586 -0.9802408556748053
vn 0.033314830679121415 -0.19498201692142586 -0.9802408556748053
vn 0.033314830679121415 -0.19498201692142586 -0.9802408556748053
vn 0.033314830679121415 -0.19498201692142586 -0.9802408556748053
vn 0.033314830679121415 -0.19498201692142586 -0.9802408556748053
vn 0.033314830679121415 -0.19498201692142586 -0.9802408556748053
vn 0.033314830679121415 -0.19498201692142586 -0.9802408556748053
vn 0.033314830679121415 -0.19498201692142586 -0.9802408556748053
vn 0.033314830679121415 -0.19498201692142586 -0.9802408556748053
vn 0.033314830679121415 -0.19498201692142586 -0.9802408556748053
vn 0.033314830679121415 -0.19498201692142586 -0.9802408556748053
vn 0.033314830679121415 -0.19498201692142586 -0.9802408556748053
vn 0.033314830679121415 -0.19498201692142586 -0.9802408556748053
vn 0.033314830679121415 -0.19498201692142586 -0.9802408556748053
vn 0.033314830679121415 -0.19498201692142586 -0.9802408556748053
vn 0.033314830679121415 -0.19498201692142586 -0.9802408556748053
vn 0.033314830679121415 -0.19498201692142586 -0.9802408556748053
vn 0.033314830679121415 -0.19498201692142586 -0.9802408556748053
vn 0.033314830679121415 -0.19498201692142586 -0.9802408556748053
vn 0.033314830679121415 -0.19498201692142586 -0.9802408556748053
vn 0.033314830679121415 -0.19498201692142586 -0.9802408556748053
vn 0.033314830679121415 -0.19498201692142586 -0.9802408556748053
vn 0.033314830679121415 -0.19498201692142586 -0.9802408556748053
vn 0.033314830679121415 -0.19498201692142586 -0.9802408556748053
vn 0.033314830679121415 -0.19498201692142586 -0.9802408556748053
vn 0.033314830679121415 -0.19498201692142586 -0.9802408556748053
vn 0.033314830679121415 -0.19498201692142586 -0.9802408556748053
vn 0.033314830679121415 -0.19498201692142586 -0.9802408556748053
vn 0.033314830679121415 -0.19498201692142586 -0.9802408556748053
vn 0.033314830679121415 -0.19498201692142586 -0.9802408556748053
vn 0.033314830679121415 -0.19498201692142586 -0.9802408556748053
vn 0.033314830679121415 -0.19498201692142586 -0.9802408556748053
vn 0.033314830679121415 -0.19498201692142586 -0.9802408556748053
vn 0.033314830679121415 -0.19498201692142586 -0.9802408556748053
vn 0.033314830679121415 -0.19498201692142586 -0.9802408556748053
vn 0.033314830679121415 -0.19498201692142586 -0.9802408556748053
vn 0.033314830679121415 -0.19498201692142586 -0.9802408556748053
vn 0.033314830679121415 -0.19498201692142586 -0.9802408556748053
vn 0.033314830679121415 -0.19498201692142586 -0.9802408556748053
vn 0.033314830679121415 -0.19498201692142586 -0.9802408556748053
vn 0.033314830679121415 -0.19498201692142586 -0.9802408556748053
vn 0.033314830679121415 -0.19498201692142586 -0.9802408556748053
vn 0.033314830679121415 -0.19498201692142586 -0.9802408556748053
vn 0.033314830679121415 -0.19498201692142586 -0.9802408556748053
vn -0.033314830679121415 0.19498201692142586 0.9802408556748053
vn -0.033314830679121415 0.19498201692142586 0.9802408556748053
vn -0.033314830679121415 0.19498201692142586 0.9802408556748053
vn -0.033314830679121415 0.19498201692142586 0.9802408556748053
vn -0.033314830679121415 0.19498201692142586 0.9802408556748053
vn -0.033314830679121415 0.19498201692142586 0.9802408556748053
vn -0.033314830679121415 0.19498201692142586 0.9802408556748053
vn -0.033314830679121415 0.19498201692142586 0.9802408556748053
vn -0.033314830679121415 0.19498201692142586 0.9802408556748053
vn -0.033314830679121415 0.19498201692142586 0.9802408556748053
vn -0.033314830679121415 0.19498201692142586 0.9802408556748053
vn -0.033314830679121415 0.19498201692142586 0.9802408556748053
vn -0.033314830679121415 0.19498201692142586 0.9802408556748053
vn -0.033314830679121415 0.19498201692142586 0.9802408556748053
vn -0.033314830679121415 0.19498201692142586 0.9802408556748053
vn -0.033314830679121415 0.19498201692142586 0.9802408556748053
vn -0.033314830679121415 0.19498201692142586 0.9802408556748053
vn -0.033314830679121415 0.19498201692142586 0.9802408556748053
vn -0.033314830679121415 0.19498201692142586 0.9802408556748053
vn -0.033314830679121415 0.19498201692142586 0.9802408556748053
vn -0.033314830679121415 0.19498201692142586 0.9802408556748053
vn -0.033314830679121415 0.19498201692142586 0.9802408556748053
vn -0.033314830679121415 0.19498201692142586 0.9802408556748053
vn -0.033314830679121415 0.19498201692142586 0.9802408556748053
vn -0.033314830679121415 0.19498201692142586 0.9802408556748053
vn -0.033314830679121415 0.19498201692142586 0.9802408556748053
vn -0.033314830679121415 0.19498201692142586 0.9802408556748053
vn -0.033314830679121415 0.19498201692142586 0.9802408556748053
vn -0.033314830679121415 0.19498201692142586 0.9802408556748053
vn -0.033314830679121415 0.19498201692142586 0.9802408556748053
vn -0.033314830679121415 0.19498201692142586 0.9802408556748053
vn -0.033314830679121415 0.19498201692142586 0.9802408556748053
vn -0.033314830679121415 0.19498201692142586 0.9802408556748053
vn -0.033314830679121415 0.19498201692142586 0.9802408556748053
vn -0.033314830679121415 0.19498201692142586 0.9802408556748053
vn -0.033314830679121415 0.19498201692142586 0.9802408556748053
vn -0.033314830679121415 0.19498201692142586 0.9802408556748053
vn -0.033314830679121415 0.19498201692142586 0.9802408556748053
vn -0.033314830679121415 0.19498201692142586 0.9802408556748053
vn -0.033314830679121415 0.19498201692142586 0.9802408556748053
vn -0.033314830679121415 0.19498201692142586 0.9802408556748053
vn -0.033314830679121415 0.19498201692142586 0.9802408556748053
vn -0.033314830679121415 0.19498201692142586 0.9802408556748053
vn -0.033314830679121415 0.19498201692142586 0.9802408556748053
vn -0.033314830679121415 0.19498201692142586 0.9802408556748053
vn -0.033314830679121415 0.19498201692142586 0.9802408556748053
vn -0.033314830679121415 0.19498201692142586 0.9802408556748053
vn -0.033314830679121415 0.19498201692142586 0.9802408556748053
f 1/1/1 2/2/2 3/3/3
f 4/4/4 5/5/5 6/6/6
f 7/7/7 8/8/8 9/9/9
f 10/10/10 11/11/11 12/12/12
f 13/13/13 14/14/14 15/15/15
f 16/16/16 17/17/17 18/18/18
f 19/19/19 20/20/20 21/21/21
f 22/22/22 23/23/23 24/24/24
f 25/25/25 26/26/26 27/27/27
f 28/28/28 29/29/29 30/30/30
f 31/31/31 32/32/32 33/33/33
f 34/34/34 35/35/35 36/36/36
f 37/37/37 38/38/38 39/39/39
f 40/40/40 41/41/41 42/42/42
f 43/43/43 44/44/44 45/45/45
f 46/46/46 47/47/47 48/48/48
f 49/49/49 50/50/50 51/51/51
f 52/52/52 53/53/53 54/54/54
f 55/55/55 56/56/56 57/57/57
f 58/58/58 59/59/59 60/60/60
f 61/61/61 62/62/62 63/63/63
f 64/64/64 65/65/65 66/66/66
f 67/67/67 68/68/68 69/69/69
f 70/70/70 71/71/71 72/72/72
f 73/73/73 74/74/74 75/75/75
f 76/76/76 77/77/77 78/78/78
f 79/79/79 80/80/80 81/81/81
f 82/82/82 83/83/83 84/84/84
f 85/85/85 86/86/86 87/87/87
f 88/88/88 89/89/89 90/90/90
f 91/91/91 92/92/92 93/93/93
f 94/94/94 95/95/95 96/96/96
f 97/97/97 98/98/98 99/99/99
f 100/100/100 101/101/101 102/102/102
f 103/103/103 104/104/104 105/105/105
f 106/106/106 107/107/107 108/108/108
f 109/109/109 110/110/110 111/111/111
f 112/112/112 113/113/113 114/114/114
f 115/115/115 116/116/116 117/117/117
f 118/118/118 119/119/119 120/120/120
f 121/121/121 122/122/122 123/123/123
f 124/124/124 125/125/125 126/126/126
f 127/127/127 128/128/128 129/129/129
f 130/130/130 131/131/131 132/132/132
f 133/133/133 134/134/134 135/135/135
f 136/136/136 137/137/137 138/138/138
f 139/139/139 140/140/140 141/141/141
f 142/142/142 143/143/143 144/144/144
f 145/145/145 146/146/146 147/147/147
f 148/148/148 149/149/149 150/150/150
f 151/151/151 152/152/152 153/153/153
f 154/154/154 155/155/155 156/156/156
f 157/157/157 158/158/158 159/159/159
f 160/160/160 161/161/161 162/162/162
f 163/163/163 164/164/164 165/165/165
f 166/166/166 167/167/167 168/168/168
f 169/169/169 170/170/170 171/171/171
f 172/172/172 173/173/173 174/174/174
f 175/175/175 176/176/176 177/177/177
f 178/178/178 179/179/179 180/180/180
f 181/181/181 182/182/182 183/183/183
f 184/184/184 185/185/185 186/186/186
f 187/187/187 188/188/188 189/189/189
f 190/190/190 191/191/191 192/192/192
