o 
v 1.0099629163742065 27.64025115966797 -23.334823608398438
v 2.009962797164917 -0.07613500207662582 -34.81532669067383
v 1.0856035947799683 27.649860382080078 -23.351430892944336
v 2.009962797164917 -0.07613500207662582 -34.81532669067383
v 2.085603713989258 -0.06652696430683136 -34.83193588256836
v 1.0856035947799683 27.649860382080078 -23.351430892944336
v 1.0856035947799683 27.649860382080078 -23.351430892944336
v 2.085603713989258 -0.06652696430683136 -34.83193588256836
v 1.14821195602417 27.66959571838379 -23.393625259399414
v 2.085603713989258 -0.06652696430683136 -34.83193588256836
v 2.14821195602417 -0.04679084196686745 -34.87412643432617
v 1.14821195602417 27.66959571838379 -23.393625259399414
v 1.14821195602417 27.66959571838379 -23.393625259399414
v 2.14821195602417 -0.04679084196686745 -34.87412643432617
v 1.1882563829421997 27.696455001831055 -23.454980850219727
v 2.14821195602417 -0.04679084196686745 -34.87412643432617
v 2.1882565021514893 -0.01993127167224884 -34.93548583984375
v 1.1882563829421997 27.696455001831055 -23.454980850219727
v 1.1882563829421997 27.696455001831055 -23.454980850219727
v 2.1882565021514893 -0.01993127167224884 -34.93548583984375
v 1.1996405124664307 27.726348876953125 -23.526159286499023
v 2.1882565021514893 -0.01993127167224884 -34.93548583984375
v 2.1996405124664307 0.009962611831724644 -35.00666427612305
v 1.1996405124664307 27.726348876953125 -23.526159286499023
v 1.1996405124664307 27.726348876953125 -23.526159286499023
v 2.1996405124664307 0.009962611831724644 -35.00666427612305
v 1.180631160736084 27.75472640991211 -23.596324920654297
v 2.1996405124664307 0.009962611831724644 -35.00666427612305
v 2.180631160736084 0.03833973780274391 -35.07682800292969
v 1.180631160736084 27.75472640991211 -23.596324920654297
v 1.180631160736084 27.75472640991211 -23.596324920654297
v 2.180631160736084 0.03833973780274391 -35.07682800292969
v 1.134122371673584 27.777265548706055 -23.65479278564453
v 2.180631160736084 0.03833973780274391 -35.07682800292969
v 2.134122371673584 0.06087995320558548 -35.13529586791992
v 1.134122371673584 27.777265548706055 -23.65479278564453
v 1.134122371673584 27.777265548706055 -23.65479278564453
v 2.134122371673584 0.06087995320558548 -35.13529586791992
v 1.0671945810317993 27.790538787841797 -23.692663192749023
v 2.134122371673584 0.06087995320558548 -35.13529586791992
v 2.067194700241089 0.07415169477462769 -35.17316436767578
v 1.0671945810317993 27.790538787841797 -23.692663192749023
v 1.0671945810317993 27.790538787841797 -23.692663192749023
v 2.067194700241089 0.07415169477462769 -35.17316436767578
v 0.9900371432304382 27.79252052307129 -23.70417022705078
v 2.067194700241089 0.07415169477462769 -35.17316436767578
v 1.9900370836257935 0.07613448798656464 -35.18467330932617
v 0.9900371432304382 27.79252052307129 -23.70417022705078
v 0.9900371432304382 27.79252052307129 -23.70417022705078
v 1.9900370836257935 0.07613448798656464 -35.18467330932617
v 0.914396345615387 27.782913208007812 -23.687562942504883
v 1.9900370836257935 0.07613448798656464 -35.18467330932617
v 1.9143964052200317 0.06652645021677017 -35.168067932128906
v 0.914396345615387 27.782913208007812 -23.687562942504883
v 0.914396345615387 27.782913208007812 -23.687562942504883
v 1.9143964052200317 0.06652645021677017 -35.168067932128906
v 0.8517879843711853 27.76317596435547 -23.645368576049805
v 1.9143964052200317 0.06652645021677017 -35.168067932128906
v 1.85178804397583 0.04679032415151596 -35.12587356567383
v 0.8517879843711853 27.76317596435547 -23.645368576049805
v 0.8517879843711853 27.76317596435547 -23.645368576049805
v 1.85178804397583 0.04679032415151596 -35.12587356567383
v 0.8117435574531555 27.736316680908203 -23.584012985229492
v 1.85178804397583 0.04679032415151596 -35.12587356567383
v 1.8117436170578003 0.019930755719542503 -35.06451416015625
v 0.8117435574531555 27.736316680908203 -23.584012985229492
v 0.8117435574531555 27.736316680908203 -23.584012985229492
v 1.8117436170578003 0.019930755719542503 -35.06451416015625
v 0.8003594279289246 27.706422805786133 -23.512834548950195
v 1.8117436170578003 0.019930755719542503 -35.06451416015625
v 1.8003594875335693 -0.00996312778443098 -34.99333572387695
v 0.8003594279289246 27.706422805786133 -23.512834548950195
v 0.8003594279289246 27.706422805786133 -23.512834548950195
v 1.8003594875335693 -0.00996312778443098 -34.99333572387695
v 0.8193687796592712 27.67804718017578 -23.442668914794922
v 1.8003594875335693 -0.00996312778443098 -34.99333572387695
v 1.819368839263916 -0.0383402518928051 -34.92317199707031
v 0.8193687796592712 27.67804718017578 -23.442668914794922
v 0.8193687796592712 27.67804718017578 -23.442668914794922
v 1.819368839263916 -0.0383402518928051 -34.92317199707031
v 0.865877628326416 27.655506134033203 -23.384201049804688
v 1.819368839263916 -0.0383402518928051 -34.92317199707031
v 1.865877628326416 -0.06088046729564667 -34.86470413208008
v 0.865877628326416 27.655506134033203 -23.384201049804688
v 0.865877628326416 27.655506134033203 -23.384201049804688
v 1.865877628326416 -0.06088046729564667 -34.86470413208008
v 0.9328053593635559 27.642234802246094 -23.346330642700195
v 1.865877628326416 -0.06088046729564667 -34.86470413208008
v 1.9328054189682007 -0.07415221631526947 -34.82683563232422
v 0.9328053593635559 27.642234802246094 -23.346330642700195
v 0.9328053593635559 27.642234802246094 -23.346330642700195
v 1.9328054189682007 -0.07415221631526947 -34.82683563232422
v 1.0099629163742065 27.64025115966797 -23.334823608398438
v 1.9328054189682007 -0.07415221631526947 -34.82683563232422
v 2.009962797164917 -0.07613500207662582 -34.81532669067383
v 1.0099629163742065 27.64025115966797 -23.334823608398438
v 1.0099629163742065 27.64025115966797 -23.334823608398438
v 1.0856035947799683 27.649860382080078 -23.351430892944336
v 1 27.716386795043945 -23.51949691772461
v 1.0856035947799683 27.649860382080078 -23.351430892944336
v 1.14821195602417 27.66959571838379 -23.393625259399414
v 1 27.716386795043945 -23.51949691772461
v 1.14821195602417 27.66959571838379 -23.393625259399414
v 1.1882563829421997 27.696455001831055 -23.454980850219727
v 1 27.716386795043945 -23.51949691772461
v 1.1882563829421997 27.696455001831055 -23.454980850219727
v 1.1996405124664307 27.726348876953125 -23.526159286499023
v 1 27.716386795043945 -23.51949691772461
v 1.1996405124664307 27.726348876953125 -23.526159286499023
v 1.180631160736084 27.75472640991211 -23.596324920654297
v 1 27.716386795043945 -23.51949691772461
v 1.180631160736084 27.75472640991211 -23.596324920654297
v 1.134122371673584 27.777265548706055 -23.65479278564453
v 1 27.716386795043945 -23.51949691772461
v 1.134122371673584 27.777265548706055 -23.65479278564453
v 1.0671945810317993 27.790538787841797 -23.692663192749023
v 1 27.716386795043945 -23.51949691772461
v 1.0671945810317993 27.790538787841797 -23.692663192749023
v 0.9900371432304382 27.79252052307129 -23.70417022705078
v 1 27.716386795043945 -23.51949691772461
v 0.9900371432304382 27.79252052307129 -23.70417022705078
v 0.914396345615387 27.782913208007812 -23.687562942504883
v 1 27.716386795043945 -23.51949691772461
v 0.914396345615387 27.782913208007812 -23.687562942504883
v 0.8517879843711853 27.76317596435547 -23.645368576049805
v 1 27.716386795043945 -23.51949691772461
v 0.8517879843711853 27.76317596435547 -23.645368576049805
v 0.8117435574531555 27.736316680908203 -23.584012985229492
v 1 27.716386795043945 -23.51949691772461
v 0.8117435574531555 27.736316680908203 -23.584012985229492
v 0.8003594279289246 27.706422805786133 -23.512834548950195
v 1 27.716386795043945 -23.51949691772461
v 0.8003594279289246 27.706422805786133 -23.512834548950195
v 0.8193687796592712 27.67804718017578 -23.442668914794922
v 1 27.716386795043945 -23.51949691772461
v 0.8193687796592712 27.67804718017578 -23.442668914794922
v 0.865877628326416 27.655506134033203 -23.384201049804688
v 1 27.716386795043945 -23.51949691772461
v 0.865877628326416 27.655506134033203 -23.384201049804688
v 0.9328053593635559 27.642234802246094 -23.346330642700195
v 1 27.716386795043945 -23.51949691772461
v 0.9328053593635559 27.642234802246094 -23.346330642700195
v 1.0099629163742065 27.64025115966797 -23.334823608398438
v 1 27.716386795043945 -23.51949691772461
v 2.085603713989258 -0.06652696430683136 -34.83193588256836
v 2.009962797164917 -0.07613500207662582 -34.81532669067383
v 2 -2.5764191491362e-7 -35
v 2.14821195602417 -0.04679084196686745 -34.87412643432617
v 2.085603713989258 -0.06652696430683136 -34.83193588256836
v 2 -2.5764191491362e-7 -35
v 2.1882565021514893 -0.01993127167224884 -34.93548583984375
v 2.14821195602417 -0.04679084196686745 -34.87412643432617
v 2 -2.5764191491362e-7 -35
v 2.1996405124664307 0.009962611831724644 -35.00666427612305
v 2.1882565021514893 -0.01993127167224884 -34.93548583984375
v 2 -2.5764191491362e-7 -35
v 2.180631160736084 0.03833973780274391 -35.07682800292969
v 2.1996405124664307 0.009962611831724644 -35.00666427612305
v 2 -2.5764191491362e-7 -35
v 2.134122371673584 0.06087995320558548 -35.13529586791992
v 2.180631160736084 0.03833973780274391 -35.07682800292969
v 2 -2.5764191491362e-7 -35
v 2.067194700241089 0.07415169477462769 -35.17316436767578
v 2.134122371673584 0.06087995320558548 -35.13529586791992
v 2 -2.5764191491362e-7 -35
v 1.9900370836257935 0.07613448798656464 -35.18467330932617
v 2.067194700241089 0.07415169477462769 -35.17316436767578
v 2 -2.5764191491362e-7 -35
v 1.9143964052200317 0.06652645021677017 -35.168067932128906
v 1.9900370836257935 0.07613448798656464 -35.18467330932617
v 2 -2.5764191491362e-7 -35
v 1.85178804397583 0.04679032415151596 -35.12587356567383
v 1.9143964052200317 0.06652645021677017 -35.168067932128906
v 2 -2.5764191491362e-7 -35
v 1.8117436170578003 0.019930755719542503 -35.06451416015625
v 1.85178804397583 0.04679032415151596 -35.12587356567383
v 2 -2.5764191491362e-7 -35
v 1.8003594875335693 -0.00996312778443098 -34.99333572387695
v 1.8117436170578003 0.019930755719542503 -35.06451416015625
v 2 -2.5764191491362e-7 -35
v 1.819368839263916 -0.0383402518928051 -34.92317199707031
v 1.8003594875335693 -0.00996312778443098 -34.99333572387695
v 2 -2.5764191491362e-7 -35
v 1.865877628326416 -0.06088046729564667 -34.86470413208008
v 1.819368839263916 -0.0383402518928051 -34.92317199707031
v 2 -2.5764191491362e-7 -35
v 1.9328054189682007 -0.07415221631526947 -34.82683563232422
v 1.865877628326416 -0.06088046729564667 -34.86470413208008
v 2 -2.5764191491362e-7 -35
v 2.009962797164917 -0.07613500207662582 -34.81532669067383
v 1.9328054189682007 -0.07415221631526947 -34.82683563232422
v 2 -2.5764191491362e-7 -35
vt 0 1
vt 0 0
vt 0.0625 1
vt 0 0
vt 0.0625 0
vt 0.0625 1
vt 0.0625 1
vt 0.0625 0
vt 0.125 1
vt 0.0625 0
vt 0.125 0
vt 0.125 1
vt 0.125 1
vt 0.125 0
vt 0.1875 1
vt 0.125 0
vt 0.1875 0
vt 0.1875 1
vt 0.1875 1
vt 0.1875 0
vt 0.25 1
vt 0.1875 0
vt 0.25 0
vt 0.25 1
vt 0.25 1
vt 0.25 0
vt 0.3125 1
vt 0.25 0
vt 0.3125 0
vt 0.3125 1
vt 0.3125 1
vt 0.3125 0
vt 0.375 1
vt 0.3125 0
vt 0.375 0
vt 0.375 1
vt 0.375 1
vt 0.375 0
vt 0.4375 1
vt 0.375 0
vt 0.4375 0
vt 0.4375 1
vt 0.4375 1
vt 0.4375 0
vt 0.5 1
vt 0.4375 0
vt 0.5 0
vt 0.5 1
vt 0.5 1
vt 0.5 0
vt 0.5625 1
vt 0.5 0
vt 0.5625 0
vt 0.5625 1
vt 0.5625 1
vt 0.5625 0
vt 0.625 1
vt 0.5625 0
vt 0.625 0
vt 0.625 1
vt 0.625 1
vt 0.625 0
vt 0.6875 1
vt 0.625 0
vt 0.6875 0
vt 0.6875 1
vt 0.6875 1
vt 0.6875 0
vt 0.75 1
vt 0.6875 0
vt 0.75 0
vt 0.75 1
vt 0.75 1
vt 0.75 0
vt 0.8125 1
vt 0.75 0
vt 0.8125 0
vt 0.8125 1
vt 0.8125 1
vt 0.8125 0
vt 0.875 1
vt 0.8125 0
vt 0.875 0
vt 0.875 1
vt 0.875 1
vt 0.875 0
vt 0.9375 1
vt 0.875 0
vt 0.9375 0
vt 0.9375 1
vt 0.9375 1
vt 0.9375 0
vt 1 1
vt 0.9375 0
vt 1 0
vt 1 1
vt 1 0.5
vt 0.9619397521018982 0.6913416981697083
vt 0.5 0.5
vt 0.9619397521018982 0.6913416981697083
vt 0.8535534143447876 0.8535534143447876
vt 0.5 0.5
vt 0.8535534143447876 0.8535534143447876
vt 0.6913416981697083 0.9619397521018982
vt 0.5 0.5
vt 0.6913416981697083 0.9619397521018982
vt 0.5 1
vt 0.5 0.5
vt 0.5 1
vt 0.30865827202796936 0.9619397521018982
vt 0.5 0.5
vt 0.30865827202796936 0.9619397521018982
vt 0.1464466154575348 0.8535534143447876
vt 0.5 0.5
vt 0.1464466154575348 0.8535534143447876
vt 0.03806023299694061 0.6913416981697083
vt 0.5 0.5
vt 0.03806023299694061 0.6913416981697083
vt 0 0.5
vt 0.5 0.5
vt 0 0.5
vt 0.03806023299694061 0.30865827202796936
vt 0.5 0.5
vt 0.03806023299694061 0.30865827202796936
vt 0.1464466154575348 0.1464466154575348
vt 0.5 0.5
vt 0.1464466154575348 0.1464466154575348
vt 0.30865827202796936 0.03806023299694061
vt 0.5 0.5
vt 0.30865827202796936 0.03806023299694061
vt 0.5 0
vt 0.5 0.5
vt 0.5 0
vt 0.6913416981697083 0.03806023299694061
vt 0.5 0.5
vt 0.6913416981697083 0.03806023299694061
vt 0.8535534143447876 0.1464466154575348
vt 0.5 0.5
vt 0.8535534143447876 0.1464466154575348
vt 0.9619397521018982 0.30865827202796936
vt 0.5 0.5
vt 0.9619397521018982 0.30865827202796936
vt 1 0.5
vt 0.5 0.5
vt 0.9619397521018982 0.30865827202796936
vt 1 0.5
vt 0.5 0.5
vt 0.8535534143447876 0.1464466154575348
vt 0.9619397521018982 0.30865827202796936
vt 0.5 0.5
vt 0.6913416981697083 0.03806023299694061
vt 0.8535534143447876 0.1464466154575348
vt 0.5 0.5
vt 0.5 0
vt 0.6913416981697083 0.03806023299694061
vt 0.5 0.5
vt 0.30865827202796936 0.03806023299694061
vt 0.5 0
vt 0.5 0.5
vt 0.1464466154575348 0.1464466154575348
vt 0.30865827202796936 0.03806023299694061
vt 0.5 0.5
vt 0.03806023299694061 0.30865827202796936
vt 0.1464466154575348 0.1464466154575348
vt 0.5 0.5
vt 0 0.5
vt 0.03806023299694061 0.30865827202796936
vt 0.5 0.5
vt 0.03806023299694061 0.6913416981697083
vt 0 0.5
vt 0.5 0.5
vt 0.1464466154575348 0.8535534143447876
vt 0.03806023299694061 0.6913416981697083
vt 0.5 0.5
vt 0.30865827202796936 0.9619397521018982
vt 0.1464466154575348 0.8535534143447876
vt 0.5 0.5
vt 0.5 1
vt 0.30865827202796936 0.9619397521018982
vt 0.5 0.5
vt 0.6913416981697083 0.9619397521018982
vt 0.5 1
vt 0.5 0.5
vt 0.8535534143447876 0.8535534143447876
vt 0.6913416981697083 0.9619397521018982
vt 0.5 0.5
vt 0.9619397521018982 0.6913416981697083
vt 0.8535534143447876 0.8535534143447876
vt 0.5 0.5
vt 1 0.5
vt 0.9619397521018982 0.6913416981697083
vt 0.5 0.5
vn 0.049814348681789876 -0.3806737180252164 0.9233666937193842
vn 0.049814348681789876 -0.3806737180252164 0.9233666937193842
vn 0.4280180998646194 -0.33263353038314925 0.8403305543969726
vn 0.049814348681789876 -0.3806737180252164 0.9233666937193842
vn 0.4280180998646194 -0.33263353038314925 0.8403305543969726
vn 0.4280180998646194 -0.33263353038314925 0.8403305543969726
vn 0.4280180998646194 -0.33263353038314925 0.8403305543969726
vn 0.4280180998646194 -0.33263353038314925 0.8403305543969726
vn 0.7410599728695243 -0.23395291410722588 0.6293617009251177
vn 0.4280180998646194 -0.33263353038314925 0.8403305543969726
vn 0.7410599728695243 -0.23395291410722588 0.6293617009251177
vn 0.7410599728695243 -0.23395291410722588 0.6293617009251177
vn 0.7410599728695243 -0.23395291410722588 0.6293617009251177
vn 0.7410599728695243 -0.23395291410722588 0.6293617009251177
vn 0.9412821752915055 -0.09965507175712021 0.3225782589567598
vn 0.7410599728695243 -0.23395291410722588 0.6293617009251177
vn 0.9412821752915055 -0.09965507175712021 0.3225782589567598
vn 0.9412821752915055 -0.09965507175712021 0.3225782589567598
vn 0.9412821752915055 -0.09965507175712021 0.3225782589567598
vn 0.9412821752915055 -0.09965507175712021 0.3225782589567598
vn 0.998202711176683 0.04981434865666214 -0.033314832543960386
vn 0.9412821752915055 -0.09965507175712021 0.3225782589567598
vn 0.998202711176683 0.04981434865666214 -0.033314832543960386
vn 0.998202711176683 0.04981434865666214 -0.033314832543960386
vn 0.998202711176683 0.04981434865666214 -0.033314832543960386
vn 0.998202711176683 0.04981434865666214 -0.033314832543960386
vn 0.9031559288660513 0.19169998295796567 -0.38413602367913324
vn 0.998202711176683 0.04981434865666214 -0.033314832543960386
vn 0.9031559288660513 0.19169998295796567 -0.38413602367913324
vn 0.9031559288660513 0.19169998295796567 -0.38413602367913324
vn 0.9031559288660513 0.19169998295796567 -0.38413602367913324
vn 0.9031559288660513 0.19169998295796567 -0.38413602367913324
vn 0.6706118453871466 0.3044010341850367 -0.6764759886452186
vn 0.9031559288660513 0.19169998295796567 -0.38413602367913324
vn 0.6706118453871466 0.3044010341850367 -0.6764759886452186
vn 0.6706118453871466 0.3044010341850367 -0.6764759886452186
vn 0.6706118453871466 0.3044010341850367 -0.6764759886452186
vn 0.6706118453871466 0.3044010341850367 -0.6764759886452186
vn 0.3359731710632083 0.37075978261876397 -0.8658286273381234
vn 0.6706118453871466 0.3044010341850367 -0.6764759886452186
vn 0.3359731710632083 0.37075978261876397 -0.8658286273381234
vn 0.3359731710632083 0.37075978261876397 -0.8658286273381234
vn 0.3359731710632083 0.37075978261876397 -0.8658286273381234
vn 0.3359731710632083 0.37075978261876397 -0.8658286273381234
vn -0.049814348681789876 0.3806737180252164 -0.9233666937193842
vn 0.3359731710632083 0.37075978261876397 -0.8658286273381234
vn -0.049814348681789876 0.3806737180252164 -0.9233666937193842
vn -0.049814348681789876 0.3806737180252164 -0.9233666937193842
vn -0.049814348681789876 0.3806737180252164 -0.9233666937193842
vn -0.049814348681789876 0.3806737180252164 -0.9233666937193842
vn -0.4280180998646194 0.33263353038314925 -0.8403305543969726
vn -0.049814348681789876 0.3806737180252164 -0.9233666937193842
vn -0.4280180998646194 0.33263353038314925 -0.8403305543969726
vn -0.4280180998646194 0.33263353038314925 -0.8403305543969726
vn -0.4280180998646194 0.33263353038314925 -0.8403305543969726
vn -0.4280180998646194 0.33263353038314925 -0.8403305543969726
vn -0.7410599728695243 0.23395291410722588 -0.6293617009251177
vn -0.4280180998646194 0.33263353038314925 -0.8403305543969726
vn -0.7410599728695243 0.23395291410722588 -0.6293617009251177
vn -0.7410599728695243 0.23395291410722588 -0.6293617009251177
vn -0.7410599728695243 0.23395291410722588 -0.6293617009251177
vn -0.7410599728695243 0.23395291410722588 -0.6293617009251177
vn -0.9412821752915055 0.09965507175712021 -0.3225782589567598
vn -0.7410599728695243 0.23395291410722588 -0.6293617009251177
vn -0.9412821752915055 0.09965507175712021 -0.3225782589567598
vn -0.9412821752915055 0.09965507175712021 -0.3225782589567598
vn -0.9412821752915055 0.09965507175712021 -0.3225782589567598
vn -0.9412821752915055 0.09965507175712021 -0.3225782589567598
vn -0.998202711176683 -0.04981434865666214 0.033314832543960386
vn -0.9412821752915055 0.09965507175712021 -0.3225782589567598
vn -0.998202711176683 -0.04981434865666214 0.033314832543960386
vn -0.998202711176683 -0.04981434865666214 0.033314832543960386
vn -0.998202711176683 -0.04981434865666214 0.033314832543960386
vn -0.998202711176683 -0.04981434865666214 0.033314832543960386
vn -0.9031559288660513 -0.19169998295796567 0.38413602367913324
vn -0.998202711176683 -0.04981434865666214 0.033314832543960386
vn -0.9031559288660513 -0.19169998295796567 0.38413602367913324
vn -0.9031559288660513 -0.19169998295796567 0.38413602367913324
vn -0.9031559288660513 -0.19169998295796567 0.38413602367913324
vn -0.9031559288660513 -0.19169998295796567 0.38413602367913324
vn -0.6706118453871466 -0.3044010341850367 0.6764759886452186
vn -0.9031559288660513 -0.19169998295796567 0.38413602367913324
vn -0.6706118453871466 -0.3044010341850367 0.6764759886452186
vn -0.6706118453871466 -0.3044010341850367 0.6764759886452186
vn -0.6706118453871466 -0.3044010341850367 0.6764759886452186
vn -0.6706118453871466 -0.3044010341850367 0.6764759886452186
vn -0.3359731710632083 -0.37075978261876397 0.8658286273381234
vn -0.6706118453871466 -0.3044010341850367 0.6764759886452186
vn -0.3359731710632083 -0.37075978261876397 0.8658286273381234
vn -0.3359731710632083 -0.37075978261876397 0.8658286273381234
vn -0.3359731710632083 -0.37075978261876397 0.8658286273381234
vn -0.3359731710632083 -0.37075978261876397 0.8658286273381234
vn 0.049814348681789876 -0.3806737180252164 0.9233666937193842
vn -0.3359731710632083 -0.37075978261876397 0.8658286273381234
vn 0.049814348681789876 -0.3806737180252164 0.9233666937193842
vn 0.049814348681789876 -0.3806737180252164 0.9233666937193842
vn -0.03331483255856234 0.9233666936583258 0.38247100671042555
vn -0.03331483255856234 0.9233666936583258 0.38247100671042555
vn -0.03331483255856234 0.9233666936583258 0.38247100671042555
vn -0.03331483255856234 0.9233666936583258 0.38247100671042555
vn -0.03331483255856234 0.9233666936583258 0.38247100671042555
vn -0.03331483255856234 0.9233666936583258 0.38247100671042555
vn -0.03331483255856234 0.9233666936583258 0.38247100671042555
vn -0.03331483255856234 0.9233666936583258 0.38247100671042555
vn -0.03331483255856234 0.9233666936583258 0.38247100671042555
vn -0.03331483255856234 0.9233666936583258 0.38247100671042555
vn -0.03331483255856234 0.9233666936583258 0.38247100671042555
vn -0.03331483255856234 0.9233666936583258 0.38247100671042555
vn -0.03331483255856234 0.9233666936583258 0.38247100671042555
vn -0.03331483255856234 0.9233666936583258 0.38247100671042555
vn -0.03331483255856234 0.9233666936583258 0.38247100671042555
vn -0.03331483255856234 0.9233666936583258 0.38247100671042555
vn -0.03331483255856234 0.9233666936583258 0.38247100671042555
vn -0.03331483255856234 0.9233666936583258 0.38247100671042555
vn -0.03331483255856234 0.9233666936583258 0.38247100671042555
vn -0.03331483255856234 0.9233666936583258 0.38247100671042555
vn -0.03331483255856234 0.9233666936583258 0.38247100671042555
vn -0.03331483255856234 0.9233666936583258 0.38247100671042555
vn -0.03331483255856234 0.9233666936583258 0.38247100671042555
vn -0.03331483255856234 0.9233666936583258 0.38247100671042555
vn -0.03331483255856234 0.9233666936583258 0.38247100671042555
vn -0.03331483255856234 0.9233666936583258 0.38247100671042555
vn -0.03331483255856234 0.9233666936583258 0.38247100671042555
vn -0.03331483255856234 0.9233666936583258 0.38247100671042555
vn -0.03331483255856234 0.9233666936583258 0.38247100671042555
vn -0.03331483255856234 0.9233666936583258 0.38247100671042555
vn -0.03331483255856234 0.9233666936583258 0.38247100671042555
vn -0.03331483255856234 0.9233666936583258 0.38247100671042555
vn -0.03331483255856234 0.9233666936583258 0.38247100671042555
vn -0.03331483255856234 0.9233666936583258 0.38247100671042555
vn -0.03331483255856234 0.9233666936583258 0.38247100671042555
vn -0.03331483255856234 0.9233666936583258 0.38247100671042555
vn -0.03331483255856234 0.9233666936583258 0.38247100671042555
vn -0.03331483255856234 0.9233666936583258 0.38247100671042555
vn -0.03331483255856234 0.9233666936583258 0.38247100671042555
vn -0.03331483255856234 0.9233666936583258 0.38247100671042555
vn -0.03331483255856234 0.9233666936583258 0.38247100671042555
vn -0.03331483255856234 0.9233666936583258 0.38247100671042555
vn -0.03331483255856234 0.9233666936583258 0.38247100671042555
vn -0.03331483255856234 0.9233666936583258 0.38247100671042555
vn -0.03331483255856234 0.9233666936583258 0.38247100671042555
vn -0.03331483255856234 0.9233666936583258 0.38247100671042555
vn -0.03331483255856234 0.9233666936583258 0.38247100671042555
vn -0.03331483255856234 0.9233666936583258 0.38247100671042555
vn 0.03331483255856234 -0.9233666936583258 -0.38247100671042555
vn 0.03331483255856234 -0.9233666936583258 -0.38247100671042555
vn 0.03331483255856234 -0.9233666936583258 -0.38247100671042555
vn 0.03331483255856234 -0.9233666936583258 -0.38247100671042555
vn 0.03331483255856234 -0.9233666936583258 -0.38247100671042555
vn 0.03331483255856234 -0.9233666936583258 -0.38247100671042555
vn 0.03331483255856234 -0.9233666936583258 -0.38247100671042555
vn 0.03331483255856234 -0.9233666936583258 -0.38247100671042555
vn 0.03331483255856234 -0.9233666936583258 -0.38247100671042555
vn 0.03331483255856234 -0.9233666936583258 -0.38247100671042555
vn 0.03331483255856234 -0.9233666936583258 -0.38247100671042555
vn 0.03331483255856234 -0.9233666936583258 -0.38247100671042555
vn 0.03331483255856234 -0.9233666936583258 -0.38247100671042555
vn 0.03331483255856234 -0.9233666936583258 -0.38247100671042555
vn 0.03331483255856234 -0.9233666936583258 -0.38247100671042555
vn 0.03331483255856234 -0.9233666936583258 -0.38247100671042555
vn 0.03331483255856234 -0.9233666936583258 -0.38247100671042555
vn 0.03331483255856234 -0.9233666936583258 -0.38247100671042555
vn 0.03331483255856234 -0.9233666936583258 -0.38247100671042555
vn 0.03331483255856234 -0.9233666936583258 -0.38247100671042555
vn 0.03331483255856234 -0.9233666936583258 -0.38247100671042555
vn 0.03331483255856234 -0.9233666936583258 -0.38247100671042555
vn 0.03331483255856234 -0.9233666936583258 -0.38247100671042555
vn 0.03331483255856234 -0.9233666936583258 -0.38247100671042555
vn 0.03331483255856234 -0.9233666936583258 -0.38247100671042555
vn 0.03331483255856234 -0.9233666936583258 -0.38247100671042555
vn 0.03331483255856234 -0.9233666936583258 -0.38247100671042555
vn 0.03331483255856234 -0.9233666936583258 -0.38247100671042555
vn 0.03331483255856234 -0.9233666936583258 -0.38247100671042555
vn 0.03331483255856234 -0.9233666936583258 -0.38247100671042555
vn 0.03331483255856234 -0.9233666936583258 -0.38247100671042555
vn 0.03331483255856234 -0.9233666936583258 -0.38247100671042555
vn 0.03331483255856234 -0.9233666936583258 -0.38247100671042555
vn 0.03331483255856234 -0.9233666936583258 -0.38247100671042555
vn 0.03331483255856234 -0.9233666936583258 -0.38247100671042555
vn 0.03331483255856234 -0.9233666936583258 -0.38247100671042555
vn 0.03331483255856234 -0.9233666936583258 -0.38247100671042555
vn 0.03331483255856234 -0.9233666936583258 -0.38247100671042555
vn 0.03331483255856234 -0.9233666936583258 -0.38247100671042555
vn 0.03331483255856234 -0.9233666936583258 -0.38247100671042555
vn 0.03331483255856234 -0.9233666936583258 -0.38247100671042555
vn 0.03331483255856234 -0.9233666936583258 -0.38247100671042555
vn 0.03331483255856234 -0.9233666936583258 -0.38247100671042555
vn 0.03331483255856234 -0.9233666936583258 -0.38247100671042555
vn 0.03331483255856234 -0.9233666936583258 -0.38247100671042555
vn 0.03331483255856234 -0.9233666936583258 -0.38247100671042555
vn 0.03331483255856234 -0.9233666936583258 -0.38247100671042555
vn 0.03331483255856234 -0.9233666936583258 -0.38247100671042555
f 1/1/1 2/2/2 3/3/3
f 4/4/4 5/5/5 6/6/6
f 7/7/7 8/8/8 9/9/9
f 10/10/10 11/11/11 12/12/12
f 13/13/13 14/14/14 15/15/15
f 16/16/16 17/17/17 18/18/18
f 19/19/19 20/20/20 21/21/21
f 22/22/22 23/23/23 24/24/24
f 25/25/25 26/26/26 27/27/27
f 28/28/28 29/29/29 30/30/30
f 31/31/31 32/32/32 33/33/33
f 34/34/34 35/35/35 36/36/36
f 37/37/37 38/38/38 39/39/39
f 40/40/40 41/41/41 42/42/42
f 43/43/43 44/44/44 45/45/45
f 46/46/46 47/47/47 48/48/48
f 49/49/49 50/50/50 51/51/51
f 52/52/52 53/53/53 54/54/54
f 55/55/55 56/56/56 57/57/57
f 58/58/58 59/59/59 60/60/60
f 61/61/61 62/62/62 63/63/63
f 64/64/64 65/65/65 66/66/66
f 67/67/67 68/68/68 69/69/69
f 70/70/70 71/71/71 72/72/72
f 73/73/73 74/74/74 75/75/75
f 76/76/76 77/77/77 78/78/78
f 79/79/79 80/80/80 81/81/81
f 82/82/82 83/83/83 84/84/84
f 85/85/85 86/86/86 87/87/87
f 88/88/88 89/89/89 90/90/90
f 91/91/91 92/92/92 93/93/93
f 94/94/94 95/95/95 96/96/96
f 97/97/97 98/98/98 99/99/99
f 100/100/100 101/101/101 102/102/102
f 103/103/103 104/104/104 105/105/105
f 106/106/106 107/107/107 108/108/108
f 109/109/109 110/110/110 111/111/111
f 112/112/112 113/113/113 114/114/114
f 115/115/115 116/116/116 117/117/117
f 118/118/118 119/119/119 120/120/120
f 121/121/121 122/122/122 123/123/123
f 124/124/124 125/125/125 126/126/126
f 127/127/127 128/128/128 129/129/129
f 130/130/130 131/131/131 132/132/132
f 133/133/133 134/134/134 135/135/135
f 136/136/136 137/137/137 138/138/138
f 139/139/139 140/140/140 141/141/141
f 142/142/142 143/143/143 144/144/144
f 145/145/145 146/146/146 147/147/147
f 148/148/148 149/149/149 150/150/150
f 151/151/151 152/152/152 153/153/153
f 154/154/154 155/155/155 156/156/156
f 157/157/157 158/158/158 159/159/159
f 160/160/160 161/161/161 162/162/162
f 163/163/163 164/164/164 165/165/165
f 166/166/166 167/167/167 168/168/168
f 169/169/169 170/170/170 171/171/171
f 172/172/172 173/173/173 174/174/174
f 175/175/175 176/176/176 177/177/177
f 178/178/178 179/179/179 180/180/180
f 181/181/181 182/182/182 183/183/183
f 184/184/184 185/185/185 186/186/186
f 187/187/187 188/188/188 189/189/189
f 190/190/190 191/191/191 192/192/192
