o 
v 0.9918867349624634 -29.4622802734375 -29.343338012695312
v 1.9918867349624634 -0.03872039169073105 -35.196048736572266
v 1.068935513496399 -29.46243667602539 -29.330965042114258
v 1.9918867349624634 -0.03872039169073105 -35.196048736572266
v 2.0689353942871094 -0.038877762854099274 -35.18367385864258
v 1.068935513496399 -29.46243667602539 -29.330965042114258
v 1.068935513496399 -29.46243667602539 -29.330965042114258
v 2.0689353942871094 -0.038877762854099274 -35.18367385864258
v 1.1354894638061523 -29.456674575805664 -29.29062843322754
v 2.0689353942871094 -0.038877762854099274 -35.18367385864258
v 2.1354894638061523 -0.033116307109594345 -35.14333724975586
v 1.1354894638061523 -29.456674575805664 -29.29062843322754
v 1.1354894638061523 -29.456674575805664 -29.29062843322754
v 2.1354894638061523 -0.033116307109594345 -35.14333724975586
v 1.181416392326355 -29.445871353149414 -29.228469848632812
v 2.1354894638061523 -0.033116307109594345 -35.14333724975586
v 2.1814162731170654 -0.02231314778327942 -35.081180572509766
v 1.181416392326355 -29.445871353149414 -29.228469848632812
v 1.181416392326355 -29.445871353149414 -29.228469848632812
v 2.1814162731170654 -0.02231314778327942 -35.081180572509766
v 1.1997241973876953 -29.431671142578125 -29.153953552246094
v 2.1814162731170654 -0.02231314778327942 -35.081180572509766
v 2.1997241973876953 -0.00811297632753849 -35.00666427612305
v 1.1997241973876953 -29.431671142578125 -29.153953552246094
v 1.1997241973876953 -29.431671142578125 -29.153953552246094
v 2.1997241973876953 -0.00811297632753849 -35.00666427612305
v 1.1876260042190552 -29.416236877441406 -29.07842254638672
v 2.1997241973876953 -0.00811297632753849 -35.00666427612305
v 2.1876258850097656 0.0073223658837378025 -34.93113327026367
v 1.1876260042190552 -29.416236877441406 -29.07842254638672
v 1.1876260042190552 -29.416236877441406 -29.07842254638672
v 2.1876258850097656 0.0073223658837378025 -34.93113327026367
v 1.146963357925415 -29.40191650390625 -29.01337432861328
v 2.1876258850097656 0.0073223658837378025 -34.93113327026367
v 2.146963357925415 0.021642986685037613 -34.866085052490234
v 1.146963357925415 -29.40191650390625 -29.01337432861328
v 1.146963357925415 -29.40191650390625 -29.01337432861328
v 2.146963357925415 0.021642986685037613 -34.866085052490234
v 1.083926796913147 -29.39089012145996 -28.96871566772461
v 2.146963357925415 0.021642986685037613 -34.866085052490234
v 2.0839269161224365 0.03266869857907295 -34.82142639160156
v 1.083926796913147 -29.39089012145996 -28.96871566772461
v 1.083926796913147 -29.39089012145996 -28.96871566772461
v 2.0839269161224365 0.03266869857907295 -34.82142639160156
v 1.0081132650375366 -29.384838104248047 -28.951242446899414
v 2.0839269161224365 0.03266869857907295 -34.82142639160156
v 2.008113145828247 0.03872093930840492 -34.803951263427734
v 1.0081132650375366 -29.384838104248047 -28.951242446899414
v 1.0081132650375366 -29.384838104248047 -28.951242446899414
v 2.008113145828247 0.03872093930840492 -34.803951263427734
v 0.9310644865036011 -29.384679794311523 -28.96361541748047
v 2.008113145828247 0.03872093930840492 -34.803951263427734
v 1.931064486503601 0.03887831047177315 -34.81632614135742
v 0.9310644865036011 -29.384679794311523 -28.96361541748047
v 0.9310644865036011 -29.384679794311523 -28.96361541748047
v 1.931064486503601 0.03887831047177315 -34.81632614135742
v 0.8645105361938477 -29.39044189453125 -29.003952026367188
v 1.931064486503601 0.03887831047177315 -34.81632614135742
v 1.8645105361938477 0.03311685472726822 -34.85666275024414
v 0.8645105361938477 -29.39044189453125 -29.003952026367188
v 0.8645105361938477 -29.39044189453125 -29.003952026367188
v 1.8645105361938477 0.03311685472726822 -34.85666275024414
v 0.8185836672782898 -29.4012451171875 -29.066110610961914
v 1.8645105361938477 0.03311685472726822 -34.85666275024414
v 1.818583607673645 0.022313695400953293 -34.918819427490234
v 0.8185836672782898 -29.4012451171875 -29.066110610961914
v 0.8185836672782898 -29.4012451171875 -29.066110610961914
v 1.818583607673645 0.022313695400953293 -34.918819427490234
v 0.8002757430076599 -29.41544532775879 -29.140626907348633
v 1.818583607673645 0.022313695400953293 -34.918819427490234
v 1.8002758026123047 0.00811352301388979 -34.99333572387695
v 0.8002757430076599 -29.41544532775879 -29.140626907348633
v 0.8002757430076599 -29.41544532775879 -29.140626907348633
v 1.8002758026123047 0.00811352301388979 -34.99333572387695
v 0.8123740553855896 -29.43088150024414 -29.21615982055664
v 1.8002758026123047 0.00811352301388979 -34.99333572387695
v 1.8123739957809448 -0.007321818731725216 -35.068870544433594
v 0.8123740553855896 -29.43088150024414 -29.21615982055664
v 0.8123740553855896 -29.43088150024414 -29.21615982055664
v 1.8123739957809448 -0.007321818731725216 -35.068870544433594
v 0.853036642074585 -29.445201873779297 -29.281206130981445
v 1.8123739957809448 -0.007321818731725216 -35.068870544433594
v 1.853036642074585 -0.02164243906736374 -35.133914947509766
v 0.853036642074585 -29.445201873779297 -29.281206130981445
v 0.853036642074585 -29.445201873779297 -29.281206130981445
v 1.853036642074585 -0.02164243906736374 -35.133914947509766
v 0.9160731434822083 -29.456226348876953 -29.325864791870117
v 1.853036642074585 -0.02164243906736374 -35.133914947509766
v 1.916073203086853 -0.03266815096139908 -35.17857360839844
v 0.9160731434822083 -29.456226348876953 -29.325864791870117
v 0.9160731434822083 -29.456226348876953 -29.325864791870117
v 1.916073203086853 -0.03266815096139908 -35.17857360839844
v 0.9918867349624634 -29.4622802734375 -29.343338012695312
v 1.916073203086853 -0.03266815096139908 -35.17857360839844
v 1.9918867349624634 -0.03872039169073105 -35.196048736572266
v 0.9918867349624634 -29.4622802734375 -29.343338012695312
v 0.9918867349624634 -29.4622802734375 -29.343338012695312
v 1.068935513496399 -29.46243667602539 -29.330965042114258
v 1 -29.423559188842773 -29.14729118347168
v 1.068935513496399 -29.46243667602539 -29.330965042114258
v 1.1354894638061523 -29.456674575805664 -29.29062843322754
v 1 -29.423559188842773 -29.14729118347168
v 1.1354894638061523 -29.456674575805664 -29.29062843322754
v 1.181416392326355 -29.445871353149414 -29.228469848632812
v 1 -29.423559188842773 -29.14729118347168
v 1.181416392326355 -29.445871353149414 -29.228469848632812
v 1.1997241973876953 -29.431671142578125 -29.153953552246094
v 1 -29.423559188842773 -29.14729118347168
v 1.1997241973876953 -29.431671142578125 -29.153953552246094
v 1.1876260042190552 -29.416236877441406 -29.07842254638672
v 1 -29.423559188842773 -29.14729118347168
v 1.1876260042190552 -29.416236877441406 -29.07842254638672
v 1.146963357925415 -29.40191650390625 -29.01337432861328
v 1 -29.423559188842773 -29.14729118347168
v 1.146963357925415 -29.40191650390625 -29.01337432861328
v 1.083926796913147 -29.39089012145996 -28.96871566772461
v 1 -29.423559188842773 -29.14729118347168
v 1.083926796913147 -29.39089012145996 -28.96871566772461
v 1.0081132650375366 -29.384838104248047 -28.951242446899414
v 1 -29.423559188842773 -29.14729118347168
v 1.0081132650375366 -29.384838104248047 -28.951242446899414
v 0.9310644865036011 -29.384679794311523 -28.96361541748047
v 1 -29.423559188842773 -29.14729118347168
v 0.9310644865036011 -29.384679794311523 -28.96361541748047
v 0.8645105361938477 -29.39044189453125 -29.003952026367188
v 1 -29.423559188842773 -29.14729118347168
v 0.8645105361938477 -29.39044189453125 -29.003952026367188
v 0.8185836672782898 -29.4012451171875 -29.066110610961914
v 1 -29.423559188842773 -29.14729118347168
v 0.8185836672782898 -29.4012451171875 -29.066110610961914
v 0.8002757430076599 -29.41544532775879 -29.140626907348633
v 1 -29.423559188842773 -29.14729118347168
v 0.8002757430076599 -29.41544532775879 -29.140626907348633
v 0.8123740553855896 -29.43088150024414 -29.21615982055664
v 1 -29.423559188842773 -29.14729118347168
v 0.8123740553855896 -29.43088150024414 -29.21615982055664
v 0.853036642074585 -29.445201873779297 -29.281206130981445
v 1 -29.423559188842773 -29.14729118347168
v 0.853036642074585 -29.445201873779297 -29.281206130981445
v 0.9160731434822083 -29.456226348876953 -29.325864791870117
v 1 -29.423559188842773 -29.14729118347168
v 0.9160731434822083 -29.456226348876953 -29.325864791870117
v 0.9918867349624634 -29.4622802734375 -29.343338012695312
v 1 -29.423559188842773 -29.14729118347168
v 2.0689353942871094 -0.038877762854099274 -35.18367385864258
v 1.9918867349624634 -0.03872039169073105 -35.196048736572266
v 2 2.735112047957955e-7 -35
v 2.1354894638061523 -0.033116307109594345 -35.14333724975586
v 2.0689353942871094 -0.038877762854099274 -35.18367385864258
v 2 2.735112047957955e-7 -35
v 2.1814162731170654 -0.02231314778327942 -35.081180572509766
v 2.1354894638061523 -0.033116307109594345 -35.14333724975586
v 2 2.735112047957955e-7 -35
v 2.1997241973876953 -0.00811297632753849 -35.00666427612305
v 2.1814162731170654 -0.02231314778327942 -35.081180572509766
v 2 2.735112047957955e-7 -35
v 2.1876258850097656 0.0073223658837378025 -34.93113327026367
v 2.1997241973876953 -0.00811297632753849 -35.00666427612305
v 2 2.735112047957955e-7 -35
v 2.146963357925415 0.021642986685037613 -34.866085052490234
v 2.1876258850097656 0.0073223658837378025 -34.93113327026367
v 2 2.735112047957955e-7 -35
v 2.0839269161224365 0.03266869857907295 -34.82142639160156
v 2.146963357925415 0.021642986685037613 -34.866085052490234
v 2 2.735112047957955e-7 -35
v 2.008113145828247 0.03872093930840492 -34.803951263427734
v 2.0839269161224365 0.03266869857907295 -34.82142639160156
v 2 2.735112047957955e-7 -35
v 1.931064486503601 0.03887831047177315 -34.81632614135742
v 2.008113145828247 0.03872093930840492 -34.803951263427734
v 2 2.735112047957955e-7 -35
v 1.8645105361938477 0.03311685472726822 -34.85666275024414
v 1.931064486503601 0.03887831047177315 -34.81632614135742
v 2 2.735112047957955e-7 -35
v 1.818583607673645 0.022313695400953293 -34.918819427490234
v 1.8645105361938477 0.03311685472726822 -34.85666275024414
v 2 2.735112047957955e-7 -35
v 1.8002758026123047 0.00811352301388979 -34.99333572387695
v 1.818583607673645 0.022313695400953293 -34.918819427490234
v 2 2.735112047957955e-7 -35
v 1.8123739957809448 -0.007321818731725216 -35.068870544433594
v 1.8002758026123047 0.00811352301388979 -34.99333572387695
v 2 2.735112047957955e-7 -35
v 1.853036642074585 -0.02164243906736374 -35.133914947509766
v 1.8123739957809448 -0.007321818731725216 -35.068870544433594
v 2 2.735112047957955e-7 -35
v 1.916073203086853 -0.03266815096139908 -35.17857360839844
v 1.853036642074585 -0.02164243906736374 -35.133914947509766
v 2 2.735112047957955e-7 -35
v 1.9918867349624634 -0.03872039169073105 -35.196048736572266
v 1.916073203086853 -0.03266815096139908 -35.17857360839844
v 2 2.735112047957955e-7 -35
vt 0 1
vt 0 0
vt 0.0625 1
vt 0 0
vt 0.0625 0
vt 0.0625 1
vt 0.0625 1
vt 0.0625 0
vt 0.125 1
vt 0.0625 0
vt 0.125 0
vt 0.125 1
vt 0.125 1
vt 0.125 0
vt 0.1875 1
vt 0.125 0
vt 0.1875 0
vt 0.1875 1
vt 0.1875 1
vt 0.1875 0
vt 0.25 1
vt 0.1875 0
vt 0.25 0
vt 0.25 1
vt 0.25 1
vt 0.25 0
vt 0.3125 1
vt 0.25 0
vt 0.3125 0
vt 0.3125 1
vt 0.3125 1
vt 0.3125 0
vt 0.375 1
vt 0.3125 0
vt 0.375 0
vt 0.375 1
vt 0.375 1
vt 0.375 0
vt 0.4375 1
vt 0.375 0
vt 0.4375 0
vt 0.4375 1
vt 0.4375 1
vt 0.4375 0
vt 0.5 1
vt 0.4375 0
vt 0.5 0
vt 0.5 1
vt 0.5 1
vt 0.5 0
vt 0.5625 1
vt 0.5 0
vt 0.5625 0
vt 0.5625 1
vt 0.5625 1
vt 0.5625 0
vt 0.625 1
vt 0.5625 0
vt 0.625 0
vt 0.625 1
vt 0.625 1
vt 0.625 0
vt 0.6875 1
vt 0.625 0
vt 0.6875 0
vt 0.6875 1
vt 0.6875 1
vt 0.6875 0
vt 0.75 1
vt 0.6875 0
vt 0.75 0
vt 0.75 1
vt 0.75 1
vt 0.75 0
vt 0.8125 1
vt 0.75 0
vt 0.8125 0
vt 0.8125 1
vt 0.8125 1
vt 0.8125 0
vt 0.875 1
vt 0.8125 0
vt 0.875 0
vt 0.875 1
vt 0.875 1
vt 0.875 0
vt 0.9375 1
vt 0.875 0
vt 0.9375 0
vt 0.9375 1
vt 0.9375 1
vt 0.9375 0
vt 1 1
vt 0.9375 0
vt 1 0
vt 1 1
vt 1 0.5
vt 0.9619397521018982 0.6913416981697083
vt 0.5 0.5
vt 0.9619397521018982 0.6913416981697083
vt 0.8535534143447876 0.8535534143447876
vt 0.5 0.5
vt 0.8535534143447876 0.8535534143447876
vt 0.6913416981697083 0.9619397521018982
vt 0.5 0.5
vt 0.6913416981697083 0.9619397521018982
vt 0.5 1
vt 0.5 0.5
vt 0.5 1
vt 0.30865827202796936 0.9619397521018982
vt 0.5 0.5
vt 0.30865827202796936 0.9619397521018982
vt 0.1464466154575348 0.8535534143447876
vt 0.5 0.5
vt 0.1464466154575348 0.8535534143447876
vt 0.03806023299694061 0.6913416981697083
vt 0.5 0.5
vt 0.03806023299694061 0.6913416981697083
vt 0 0.5
vt 0.5 0.5
vt 0 0.5
vt 0.03806023299694061 0.30865827202796936
vt 0.5 0.5
vt 0.03806023299694061 0.30865827202796936
vt 0.1464466154575348 0.1464466154575348
vt 0.5 0.5
vt 0.1464466154575348 0.1464466154575348
vt 0.30865827202796936 0.03806023299694061
vt 0.5 0.5
vt 0.30865827202796936 0.03806023299694061
vt 0.5 0
vt 0.5 0.5
vt 0.5 0
vt 0.6913416981697083 0.03806023299694061
vt 0.5 0.5
vt 0.6913416981697083 0.03806023299694061
vt 0.8535534143447876 0.1464466154575348
vt 0.5 0.5
vt 0.8535534143447876 0.1464466154575348
vt 0.9619397521018982 0.30865827202796936
vt 0.5 0.5
vt 0.9619397521018982 0.30865827202796936
vt 1 0.5
vt 0.5 0.5
vt 0.9619397521018982 0.30865827202796936
vt 1 0.5
vt 0.5 0.5
vt 0.8535534143447876 0.1464466154575348
vt 0.9619397521018982 0.30865827202796936
vt 0.5 0.5
vt 0.6913416981697083 0.03806023299694061
vt 0.8535534143447876 0.1464466154575348
vt 0.5 0.5
vt 0.5 0
vt 0.6913416981697083 0.03806023299694061
vt 0.5 0.5
vt 0.30865827202796936 0.03806023299694061
vt 0.5 0
vt 0.5 0.5
vt 0.1464466154575348 0.1464466154575348
vt 0.30865827202796936 0.03806023299694061
vt 0.5 0.5
vt 0.03806023299694061 0.30865827202796936
vt 0.1464466154575348 0.1464466154575348
vt 0.5 0.5
vt 0 0.5
vt 0.03806023299694061 0.30865827202796936
vt 0.5 0.5
vt 0.03806023299694061 0.6913416981697083
vt 0 0.5
vt 0.5 0.5
vt 0.1464466154575348 0.8535534143447876
vt 0.03806023299694061 0.6913416981697083
vt 0.5 0.5
vt 0.30865827202796936 0.9619397521018982
vt 0.1464466154575348 0.8535534143447876
vt 0.5 0.5
vt 0.5 1
vt 0.30865827202796936 0.9619397521018982
vt 0.5 0.5
vt 0.6913416981697083 0.9619397521018982
vt 0.5 1
vt 0.5 0.5
vt 0.8535534143447876 0.8535534143447876
vt 0.6913416981697083 0.9619397521018982
vt 0.5 0.5
vt 0.9619397521018982 0.6913416981697083
vt 0.8535534143447876 0.8535534143447876
vt 0.5 0.5
vt 1 0.5
vt 0.9619397521018982 0.6913416981697083
vt 0.5 0.5
vn -0.04056624589580206 -0.19360331684728535 -0.9802408558102701
vn -0.04056624589580206 -0.19360331684728535 -0.9802408558102701
vn 0.3446775168669708 -0.19439018279668482 -0.9183734894903547
vn -0.04056624589580206 -0.19360331684728535 -0.9802408558102701
vn 0.3446775168669708 -0.19439018279668482 -0.9183734894903547
vn 0.3446775168669708 -0.19439018279668482 -0.9183734894903547
vn 0.3446775168669708 -0.19439018279668482 -0.9183734894903547
vn 0.3446775168669708 -0.19439018279668482 -0.9183734894903547
vn 0.6774472148361058 -0.16558289894883513 -0.7166921059189245
vn 0.3446775168669708 -0.19439018279668482 -0.9183734894903547
vn 0.6774472148361058 -0.16558289894883513 -0.7166921059189245
vn 0.6774472148361058 -0.16558289894883513 -0.7166921059189245
vn 0.6774472148361058 -0.16558289894883513 -0.7166921059189245
vn 0.6774472148361058 -0.16558289894883513 -0.7166921059189245
vn 0.9070817407925106 -0.11156711198540624 -0.4059008438572957
vn 0.6774472148361058 -0.16558289894883513 -0.7166921059189245
vn 0.9070817407925106 -0.11156711198540624 -0.4059008438572957
vn 0.9070817407925106 -0.11156711198540624 -0.4059008438572957
vn 0.9070817407925106 -0.11156711198540624 -0.4059008438572957
vn 0.9070817407925106 -0.11156711198540624 -0.4059008438572957
vn 0.9986213003543339 -0.040566247581870295 -0.033314832068400656
vn 0.9070817407925106 -0.11156711198540624 -0.4059008438572957
vn 0.9986213003543339 -0.040566247581870295 -0.033314832068400656
vn 0.9986213003543339 -0.040566247581870295 -0.033314832068400656
vn 0.9986213003543339 -0.040566247581870295 -0.033314832068400656
vn 0.9986213003543339 -0.040566247581870295 -0.033314832068400656
vn 0.9381298099845278 0.03661046283717475 0.3443430464366049
vn 0.9986213003543339 -0.040566247581870295 -0.033314832068400656
vn 0.9381298099845278 0.03661046283717475 0.3443430464366049
vn 0.9381298099845278 0.03661046283717475 0.3443430464366049
vn 0.9381298099845278 0.03661046283717475 0.3443430464366049
vn 0.9381298099845278 0.03661046283717475 0.3443430464366049
vn 0.7348165445858542 0.10821355781777738 0.6695778309556881
vn 0.9381298099845278 0.03661046283717475 0.3443430464366049
vn 0.7348165445858542 0.10821355781777738 0.6695778309556881
vn 0.7348165445858542 0.10821355781777738 0.6695778309556881
vn 0.7348165445858542 0.10821355781777738 0.6695778309556881
vn 0.7348165445858542 0.10821355781777738 0.6695778309556881
vn 0.4196341597137197 0.16334211683627797 0.8928754251679257
vn 0.7348165445858542 0.10821355781777738 0.6695778309556881
vn 0.4196341597137197 0.16334211683627797 0.8928754251679257
vn 0.4196341597137197 0.16334211683627797 0.8928754251679257
vn 0.4196341597137197 0.16334211683627797 0.8928754251679257
vn 0.4196341597137197 0.16334211683627797 0.8928754251679257
vn 0.04056624589580206 0.19360331684728535 0.9802408558102701
vn 0.4196341597137197 0.16334211683627797 0.8928754251679257
vn 0.04056624589580206 0.19360331684728535 0.9802408558102701
vn 0.04056624589580206 0.19360331684728535 0.9802408558102701
vn 0.04056624589580206 0.19360331684728535 0.9802408558102701
vn 0.04056624589580206 0.19360331684728535 0.9802408558102701
vn -0.3446775168669708 0.19439018279668482 0.9183734894903547
vn 0.04056624589580206 0.19360331684728535 0.9802408558102701
vn -0.3446775168669708 0.19439018279668482 0.9183734894903547
vn -0.3446775168669708 0.19439018279668482 0.9183734894903547
vn -0.3446775168669708 0.19439018279668482 0.9183734894903547
vn -0.3446775168669708 0.19439018279668482 0.9183734894903547
vn -0.6774472148361058 0.16558289894883513 0.7166921059189245
vn -0.3446775168669708 0.19439018279668482 0.9183734894903547
vn -0.6774472148361058 0.16558289894883513 0.7166921059189245
vn -0.6774472148361058 0.16558289894883513 0.7166921059189245
vn -0.6774472148361058 0.16558289894883513 0.7166921059189245
vn -0.6774472148361058 0.16558289894883513 0.7166921059189245
vn -0.9070817407925106 0.11156711198540624 0.4059008438572957
vn -0.6774472148361058 0.16558289894883513 0.7166921059189245
vn -0.9070817407925106 0.11156711198540624 0.4059008438572957
vn -0.9070817407925106 0.11156711198540624 0.4059008438572957
vn -0.9070817407925106 0.11156711198540624 0.4059008438572957
vn -0.9070817407925106 0.11156711198540624 0.4059008438572957
vn -0.9986213003543339 0.040566247581870295 0.033314832068400656
vn -0.9070817407925106 0.11156711198540624 0.4059008438572957
vn -0.9986213003543339 0.040566247581870295 0.033314832068400656
vn -0.9986213003543339 0.040566247581870295 0.033314832068400656
vn -0.9986213003543339 0.040566247581870295 0.033314832068400656
vn -0.9986213003543339 0.040566247581870295 0.033314832068400656
vn -0.9381298099845278 -0.03661046283717475 -0.3443430464366049
vn -0.9986213003543339 0.040566247581870295 0.033314832068400656
vn -0.9381298099845278 -0.03661046283717475 -0.3443430464366049
vn -0.9381298099845278 -0.03661046283717475 -0.3443430464366049
vn -0.9381298099845278 -0.03661046283717475 -0.3443430464366049
vn -0.9381298099845278 -0.03661046283717475 -0.3443430464366049
vn -0.7348165445858542 -0.10821355781777738 -0.6695778309556881
vn -0.9381298099845278 -0.03661046283717475 -0.3443430464366049
vn -0.7348165445858542 -0.10821355781777738 -0.6695778309556881
vn -0.7348165445858542 -0.10821355781777738 -0.6695778309556881
vn -0.7348165445858542 -0.10821355781777738 -0.6695778309556881
vn -0.7348165445858542 -0.10821355781777738 -0.6695778309556881
vn -0.4196341597137197 -0.16334211683627797 -0.8928754251679257
vn -0.7348165445858542 -0.10821355781777738 -0.6695778309556881
vn -0.4196341597137197 -0.16334211683627797 -0.8928754251679257
vn -0.4196341597137197 -0.16334211683627797 -0.8928754251679257
vn -0.4196341597137197 -0.16334211683627797 -0.8928754251679257
vn -0.4196341597137197 -0.16334211683627797 -0.8928754251679257
vn -0.04056624589580206 -0.19360331684728535 -0.9802408558102701
vn -0.4196341597137197 -0.16334211683627797 -0.8928754251679257
vn -0.04056624589580206 -0.19360331684728535 -0.9802408558102701
vn -0.04056624589580206 -0.19360331684728535 -0.9802408558102701
vn -0.033314830679121415 -0.9802408556748053 0.19498201692142586
vn -0.033314830679121415 -0.9802408556748053 0.19498201692142586
vn -0.033314830679121415 -0.9802408556748053 0.19498201692142586
vn -0.033314830679121415 -0.9802408556748053 0.19498201692142586
vn -0.033314830679121415 -0.9802408556748053 0.19498201692142586
vn -0.033314830679121415 -0.9802408556748053 0.19498201692142586
vn -0.033314830679121415 -0.9802408556748053 0.19498201692142586
vn -0.033314830679121415 -0.9802408556748053 0.19498201692142586
vn -0.033314830679121415 -0.9802408556748053 0.19498201692142586
vn -0.033314830679121415 -0.9802408556748053 0.19498201692142586
vn -0.033314830679121415 -0.9802408556748053 0.19498201692142586
vn -0.033314830679121415 -0.9802408556748053 0.19498201692142586
vn -0.033314830679121415 -0.9802408556748053 0.19498201692142586
vn -0.033314830679121415 -0.9802408556748053 0.19498201692142586
vn -0.033314830679121415 -0.9802408556748053 0.19498201692142586
vn -0.033314830679121415 -0.9802408556748053 0.19498201692142586
vn -0.033314830679121415 -0.9802408556748053 0.19498201692142586
vn -0.033314830679121415 -0.9802408556748053 0.19498201692142586
vn -0.033314830679121415 -0.9802408556748053 0.19498201692142586
vn -0.033314830679121415 -0.9802408556748053 0.19498201692142586
vn -0.033314830679121415 -0.9802408556748053 0.19498201692142586
vn -0.033314830679121415 -0.9802408556748053 0.19498201692142586
vn -0.033314830679121415 -0.9802408556748053 0.19498201692142586
vn -0.033314830679121415 -0.9802408556748053 0.19498201692142586
vn -0.033314830679121415 -0.9802408556748053 0.19498201692142586
vn -0.033314830679121415 -0.9802408556748053 0.19498201692142586
vn -0.033314830679121415 -0.9802408556748053 0.19498201692142586
vn -0.033314830679121415 -0.9802408556748053 0.19498201692142586
vn -0.033314830679121415 -0.9802408556748053 0.19498201692142586
vn -0.033314830679121415 -0.9802408556748053 0.19498201692142586
vn -0.033314830679121415 -0.9802408556748053 0.19498201692142586
vn -0.033314830679121415 -0.9802408556748053 0.19498201692142586
vn -0.033314830679121415 -0.9802408556748053 0.19498201692142586
vn -0.033314830679121415 -0.9802408556748053 0.19498201692142586
vn -0.033314830679121415 -0.9802408556748053 0.19498201692142586
vn -0.033314830679121415 -0.9802408556748053 0.19498201692142586
vn -0.033314830679121415 -0.9802408556748053 0.19498201692142586
vn -0.033314830679121415 -0.9802408556748053 0.19498201692142586
vn -0.033314830679121415 -0.9802408556748053 0.19498201692142586
vn -0.033314830679121415 -0.9802408556748053 0.19498201692142586
vn -0.033314830679121415 -0.9802408556748053 0.19498201692142586
vn -0.033314830679121415 -0.9802408556748053 0.19498201692142586
vn -0.033314830679121415 -0.9802408556748053 0.19498201692142586
vn -0.033314830679121415 -0.9802408556748053 0.19498201692142586
vn -0.033314830679121415 -0.9802408556748053 0.19498201692142586
vn -0.033314830679121415 -0.9802408556748053 0.19498201692142586
vn -0.033314830679121415 -0.9802408556748053 0.19498201692142586
vn -0.033314830679121415 -0.9802408556748053 0.19498201692142586
vn 0.033314830679121415 0.9802408556748053 -0.19498201692142586
vn 0.033314830679121415 0.9802408556748053 -0.19498201692142586
vn 0.033314830679121415 0.9802408556748053 -0.19498201692142586
vn 0.033314830679121415 0.9802408556748053 -0.19498201692142586
vn 0.033314830679121415 0.9802408556748053 -0.19498201692142586
vn 0.033314830679121415 0.9802408556748053 -0.19498201692142586
vn 0.033314830679121415 0.9802408556748053 -0.19498201692142586
vn 0.033314830679121415 0.9802408556748053 -0.19498201692142586
vn 0.033314830679121415 0.9802408556748053 -0.19498201692142586
vn 0.033314830679121415 0.9802408556748053 -0.19498201692142586
vn 0.033314830679121415 0.9802408556748053 -0.19498201692142586
vn 0.033314830679121415 0.9802408556748053 -0.19498201692142586
vn 0.033314830679121415 0.9802408556748053 -0.19498201692142586
vn 0.033314830679121415 0.9802408556748053 -0.19498201692142586
vn 0.033314830679121415 0.9802408556748053 -0.19498201692142586
vn 0.033314830679121415 0.9802408556748053 -0.19498201692142586
vn 0.033314830679121415 0.9802408556748053 -0.19498201692142586
vn 0.033314830679121415 0.9802408556748053 -0.19498201692142586
vn 0.033314830679121415 0.9802408556748053 -0.19498201692142586
vn 0.033314830679121415 0.9802408556748053 -0.19498201692142586
vn 0.033314830679121415 0.9802408556748053 -0.19498201692142586
vn 0.033314830679121415 0.9802408556748053 -0.19498201692142586
vn 0.033314830679121415 0.9802408556748053 -0.19498201692142586
vn 0.033314830679121415 0.9802408556748053 -0.19498201692142586
vn 0.033314830679121415 0.9802408556748053 -0.19498201692142586
vn 0.033314830679121415 0.9802408556748053 -0.19498201692142586
vn 0.033314830679121415 0.9802408556748053 -0.19498201692142586
vn 0.033314830679121415 0.9802408556748053 -0.19498201692142586
vn 0.033314830679121415 0.9802408556748053 -0.19498201692142586
vn 0.033314830679121415 0.9802408556748053 -0.19498201692142586
vn 0.033314830679121415 0.9802408556748053 -0.19498201692142586
vn 0.033314830679121415 0.9802408556748053 -0.19498201692142586
vn 0.033314830679121415 0.9802408556748053 -0.19498201692142586
vn 0.033314830679121415 0.9802408556748053 -0.19498201692142586
vn 0.033314830679121415 0.9802408556748053 -0.19498201692142586
vn 0.033314830679121415 0.9802408556748053 -0.19498201692142586
vn 0.033314830679121415 0.9802408556748053 -0.19498201692142586
vn 0.033314830679121415 0.9802408556748053 -0.19498201692142586
vn 0.033314830679121415 0.9802408556748053 -0.19498201692142586
vn 0.033314830679121415 0.9802408556748053 -0.19498201692142586
vn 0.033314830679121415 0.9802408556748053 -0.19498201692142586
vn 0.033314830679121415 0.9802408556748053 -0.19498201692142586
vn 0.033314830679121415 0.9802408556748053 -0.19498201692142586
vn 0.033314830679121415 0.9802408556748053 -0.19498201692142586
vn 0.033314830679121415 0.9802408556748053 -0.19498201692142586
vn 0.033314830679121415 0.9802408556748053 -0.19498201692142586
vn 0.033314830679121415 0.9802408556748053 -0.19498201692142586
vn 0.033314830679121415 0.9802408556748053 -0.19498201692142586
f 1/1/1 2/2/2 3/3/3
f 4/4/4 5/5/5 6/6/6
f 7/7/7 8/8/8 9/9/9
f 10/10/10 11/11/11 12/12/12
f 13/13/13 14/14/14 15/15/15
f 16/16/16 17/17/17 18/18/18
f 19/19/19 20/20/20 21/21/21
f 22/22/22 23/23/23 24/24/24
f 25/25/25 26/26/26 27/27/27
f 28/28/28 29/29/29 30/30/30
f 31/31/31 32/32/32 33/33/33
f 34/34/34 35/35/35 36/36/36
f 37/37/37 38/38/38 39/39/39
f 40/40/40 41/41/41 42/42/42
f 43/43/43 44/44/44 45/45/45
f 46/46/46 47/47/47 48/48/48
f 49/49/49 50/50/50 51/51/51
f 52/52/52 53/53/53 54/54/54
f 55/55/55 56/56/56 57/57/57
f 58/58/58 59/59/59 60/60/60
f 61/61/61 62/62/62 63/63/63
f 64/64/64 65/65/65 66/66/66
f 67/67/67 68/68/68 69/69/69
f 70/70/70 71/71/71 72/72/72
f 73/73/73 74/74/74 75/75/75
f 76/76/76 77/77/77 78/78/78
f 79/79/79 80/80/80 81/81/81
f 82/82/82 83/83/83 84/84/84
f 85/85/85 86/86/86 87/87/87
f 88/88/88 89/89/89 90/90/90
f 91/91/91 92/92/92 93/93/93
f 94/94/94 95/95/95 96/96/96
f 97/97/97 98/98/98 99/99/99
f 100/100/100 101/101/101 102/102/102
f 103/103/103 104/104/104 105/105/105
f 106/106/106 107/107/107 108/108/108
f 109/109/109 110/110/110 111/111/111
f 112/112/112 113/113/113 114/114/114
f 115/115/115 116/116/116 117/117/117
f 118/118/118 119/119/119 120/120/120
f 121/121/121 122/122/122 123/123/123
f 124/124/124 125/125/125 126/126/126
f 127/127/127 128/128/128 129/129/129
f 130/130/130 131/131/131 132/132/132
f 133/133/133 134/134/134 135/135/135
f 136/136/136 137/137/137 138/138/138
f 139/139/139 140/140/140 141/141/141
f 142/142/142 143/143/143 144/144/144
f 145/145/145 146/146/146 147/147/147
f 148/148/148 149/149/149 150/150/150
f 151/151/151 152/152/152 153/153/153
f 154/154/154 155/155/155 156/156/156
f 157/157/157 158/158/158 159/159/159
f 160/160/160 161/161/161 162/162/162
f 163/163/163 164/164/164 165/165/165
f 166/166/166 167/167/167 168/168/168
f 169/169/169 170/170/170 171/171/171
f 172/172/172 173/173/173 174/174/174
f 175/175/175 176/176/176 177/177/177
f 178/178/178 179/179/179 180/180/180
f 181/181/181 182/182/182 183/183/183
f 184/184/184 185/185/185 186/186/186
f 187/187/187 188/188/188 189/189/189
f 190/190/190 191/191/191 192/192/192
