o 
v -1.001325011253357 11.665291786193848 -62.639892578125
v -2.0013248920440674 0.18478864431381226 -34.92350387573242
v -0.9247315526008606 11.650718688964844 -62.643165588378906
v -2.0013248920440674 0.18478864431381226 -34.92350387573242
v -1.9247316122055054 0.1702153980731964 -34.92677688598633
v -0.9247315526008606 11.650718688964844 -62.643165588378906
v -0.9247315526008606 11.650718688964844 -62.643165588378906
v -1.9247316122055054 0.1702153980731964 -34.92677688598633
v -0.8595971465110779 11.610231399536133 -62.65758514404297
v -1.9247316122055054 0.1702153980731964 -34.92677688598633
v -1.859597086906433 0.12972839176654816 -34.941200256347656
v -0.8595971465110779 11.610231399536133 -62.65758514404297
v -0.8595971465110779 11.610231399536133 -62.65758514404297
v -1.859597086906433 0.12972839176654816 -34.941200256347656
v -0.8158377408981323 11.549994468688965 -62.68095779418945
v -1.859597086906433 0.12972839176654816 -34.941200256347656
v -1.8158377408981323 0.06949137896299362 -34.964569091796875
v -0.8158377408981323 11.549994468688965 -62.68095779418945
v -0.8158377408981323 11.549994468688965 -62.68095779418945
v -1.8158377408981323 0.06949137896299362 -34.964569091796875
v -0.8001154065132141 11.479178428649902 -62.70972442626953
v -1.8158377408981323 0.06949137896299362 -34.964569091796875
v -1.8001154661178589 -0.0013250706251710653 -34.99333572387695
v -0.8001154065132141 11.479178428649902 -62.70972442626953
v -0.8001154065132141 11.479178428649902 -62.70972442626953
v -1.8001154661178589 -0.0013250706251710653 -34.99333572387695
v -0.8148236870765686 11.408563613891602 -62.739501953125
v -1.8001154661178589 -0.0013250706251710653 -34.99333572387695
v -1.8148237466812134 -0.07193980365991592 -35.02311706542969
v -0.8148236870765686 11.408563613891602 -62.739501953125
v -0.8148236870765686 11.408563613891602 -62.739501953125
v -1.8148237466812134 -0.07193980365991592 -35.02311706542969
v -0.8577233552932739 11.34890079498291 -62.76576614379883
v -1.8148237466812134 -0.07193980365991592 -35.02311706542969
v -1.857723355293274 -0.13160237669944763 -35.04937744140625
v -0.8577233552932739 11.34890079498291 -62.76576614379883
v -0.8577233552932739 11.34890079498291 -62.76576614379883
v -1.857723355293274 -0.13160237669944763 -35.04937744140625
v -0.9222833514213562 11.309273719787598 -62.784507751464844
v -1.857723355293274 -0.13160237669944763 -35.04937744140625
v -1.922283411026001 -0.17122969031333923 -35.06812286376953
v -0.9222833514213562 11.309273719787598 -62.784507751464844
v -0.9222833514213562 11.309273719787598 -62.784507751464844
v -1.922283411026001 -0.17122969031333923 -35.06812286376953
v -0.9986750483512878 11.295714378356934 -62.79288101196289
v -1.922283411026001 -0.17122969031333923 -35.06812286376953
v -1.998674988746643 -0.18478885293006897 -35.07649230957031
v -0.9986750483512878 11.295714378356934 -62.79288101196289
v -0.9986750483512878 11.295714378356934 -62.79288101196289
v -1.998674988746643 -0.18478885293006897 -35.07649230957031
v -1.0752683877944946 11.310287475585938 -62.789608001708984
v -1.998674988746643 -0.18478885293006897 -35.07649230957031
v -2.075268507003784 -0.17021560668945312 -35.073219299316406
v -1.0752683877944946 11.310287475585938 -62.789608001708984
v -1.0752683877944946 11.310287475585938 -62.789608001708984
v -2.075268507003784 -0.17021560668945312 -35.073219299316406
v -1.140402913093567 11.350774765014648 -62.77518844604492
v -2.075268507003784 -0.17021560668945312 -35.073219299316406
v -2.1404027938842773 -0.12972860038280487 -35.058799743652344
v -1.140402913093567 11.350774765014648 -62.77518844604492
v -1.140402913093567 11.350774765014648 -62.77518844604492
v -2.1404027938842773 -0.12972860038280487 -35.058799743652344
v -1.1841622591018677 11.411011695861816 -62.75181579589844
v -2.1404027938842773 -0.12972860038280487 -35.058799743652344
v -2.184162139892578 -0.06949158757925034 -35.03542709350586
v -1.1841622591018677 11.411011695861816 -62.75181579589844
v -1.1841622591018677 11.411011695861816 -62.75181579589844
v -2.184162139892578 -0.06949158757925034 -35.03542709350586
v -1.1998845338821411 11.481827735900879 -62.72304916381836
v -2.184162139892578 -0.06949158757925034 -35.03542709350586
v -2.1998846530914307 0.0013248571194708347 -35.00666427612305
v -1.1998845338821411 11.481827735900879 -62.72304916381836
v -1.1998845338821411 11.481827735900879 -62.72304916381836
v -2.1998846530914307 0.0013248571194708347 -35.00666427612305
v -1.1851762533187866 11.55244255065918 -62.693267822265625
v -2.1998846530914307 0.0013248571194708347 -35.00666427612305
v -2.185176372528076 0.07193959504365921 -34.97688293457031
v -1.1851762533187866 11.55244255065918 -62.693267822265625
v -1.1851762533187866 11.55244255065918 -62.693267822265625
v -2.185176372528076 0.07193959504365921 -34.97688293457031
v -1.142276644706726 11.612105369567871 -62.66700744628906
v -2.185176372528076 0.07193959504365921 -34.97688293457031
v -2.1422767639160156 0.13160216808319092 -34.95062255859375
v -1.142276644706726 11.612105369567871 -62.66700744628906
v -1.142276644706726 11.612105369567871 -62.66700744628906
v -2.1422767639160156 0.13160216808319092 -34.95062255859375
v -1.077716588973999 11.651732444763184 -62.64826583862305
v -2.1422767639160156 0.13160216808319092 -34.95062255859375
v -2.077716588973999 0.17122948169708252 -34.93187713623047
v -1.077716588973999 11.651732444763184 -62.64826583862305
v -1.077716588973999 11.651732444763184 -62.64826583862305
v -2.077716588973999 0.17122948169708252 -34.93187713623047
v -1.001325011253357 11.665291786193848 -62.639892578125
v -2.077716588973999 0.17122948169708252 -34.93187713623047
v -2.0013248920440674 0.18478864431381226 -34.92350387573242
v -1.001325011253357 11.665291786193848 -62.639892578125
v -1.001325011253357 11.665291786193848 -62.639892578125
v -0.9247315526008606 11.650718688964844 -62.643165588378906
v -1 11.48050308227539 -62.71638488769531
v -0.9247315526008606 11.650718688964844 -62.643165588378906
v -0.8595971465110779 11.610231399536133 -62.65758514404297
v -1 11.48050308227539 -62.71638488769531
v -0.8595971465110779 11.610231399536133 -62.65758514404297
v -0.8158377408981323 11.549994468688965 -62.68095779418945
v -1 11.48050308227539 -62.71638488769531
v -0.8158377408981323 11.549994468688965 -62.68095779418945
v -0.8001154065132141 11.479178428649902 -62.70972442626953
v -1 11.48050308227539 -62.71638488769531
v -0.8001154065132141 11.479178428649902 -62.70972442626953
v -0.8148236870765686 11.408563613891602 -62.739501953125
v -1 11.48050308227539 -62.71638488769531
v -0.8148236870765686 11.408563613891602 -62.739501953125
v -0.8577233552932739 11.34890079498291 -62.76576614379883
v -1 11.48050308227539 -62.71638488769531
v -0.8577233552932739 11.34890079498291 -62.76576614379883
v -0.9222833514213562 11.309273719787598 -62.784507751464844
v -1 11.48050308227539 -62.71638488769531
v -0.9222833514213562 11.309273719787598 -62.784507751464844
v -0.9986750483512878 11.295714378356934 -62.79288101196289
v -1 11.48050308227539 -62.71638488769531
v -0.9986750483512878 11.295714378356934 -62.79288101196289
v -1.0752683877944946 11.310287475585938 -62.789608001708984
v -1 11.48050308227539 -62.71638488769531
v -1.0752683877944946 11.310287475585938 -62.789608001708984
v -1.140402913093567 11.350774765014648 -62.77518844604492
v -1 11.48050308227539 -62.71638488769531
v -1.140402913093567 11.350774765014648 -62.77518844604492
v -1.1841622591018677 11.411011695861816 -62.75181579589844
v -1 11.48050308227539 -62.71638488769531
v -1.1841622591018677 11.411011695861816 -62.75181579589844
v -1.1998845338821411 11.481827735900879 -62.72304916381836
v -1 11.48050308227539 -62.71638488769531
v -1.1998845338821411 11.481827735900879 -62.72304916381836
v -1.1851762533187866 11.55244255065918 -62.693267822265625
v -1 11.48050308227539 -62.71638488769531
v -1.1851762533187866 11.55244255065918 -62.693267822265625
v -1.142276644706726 11.612105369567871 -62.66700744628906
v -1 11.48050308227539 -62.71638488769531
v -1.142276644706726 11.612105369567871 -62.66700744628906
v -1.077716588973999 11.651732444763184 -62.64826583862305
v -1 11.48050308227539 -62.71638488769531
v -1.077716588973999 11.651732444763184 -62.64826583862305
v -1.001325011253357 11.665291786193848 -62.639892578125
v -1 11.48050308227539 -62.71638488769531
v -1.9247316122055054 0.1702153980731964 -34.92677688598633
v -2.0013248920440674 0.18478864431381226 -34.92350387573242
v -2 -1.0671877248569217e-7 -35
v -1.859597086906433 0.12972839176654816 -34.941200256347656
v -1.9247316122055054 0.1702153980731964 -34.92677688598633
v -2 -1.0671877248569217e-7 -35
v -1.8158377408981323 0.06949137896299362 -34.964569091796875
v -1.859597086906433 0.12972839176654816 -34.941200256347656
v -2 -1.0671877248569217e-7 -35
v -1.8001154661178589 -0.0013250706251710653 -34.99333572387695
v -1.8158377408981323 0.06949137896299362 -34.964569091796875
v -2 -1.0671877248569217e-7 -35
v -1.8148237466812134 -0.07193980365991592 -35.02311706542969
v -1.8001154661178589 -0.0013250706251710653 -34.99333572387695
v -2 -1.0671877248569217e-7 -35
v -1.857723355293274 -0.13160237669944763 -35.04937744140625
v -1.8148237466812134 -0.07193980365991592 -35.02311706542969
v -2 -1.0671877248569217e-7 -35
v -1.922283411026001 -0.17122969031333923 -35.06812286376953
v -1.857723355293274 -0.13160237669944763 -35.04937744140625
v -2 -1.0671877248569217e-7 -35
v -1.998674988746643 -0.18478885293006897 -35.07649230957031
v -1.922283411026001 -0.17122969031333923 -35.06812286376953
v -2 -1.0671877248569217e-7 -35
v -2.075268507003784 -0.17021560668945312 -35.073219299316406
v -1.998674988746643 -0.18478885293006897 -35.07649230957031
v -2 -1.0671877248569217e-7 -35
v -2.1404027938842773 -0.12972860038280487 -35.058799743652344
v -2.075268507003784 -0.17021560668945312 -35.073219299316406
v -2 -1.0671877248569217e-7 -35
v -2.184162139892578 -0.06949158757925034 -35.03542709350586
v -2.1404027938842773 -0.12972860038280487 -35.058799743652344
v -2 -1.0671877248569217e-7 -35
v -2.1998846530914307 0.0013248571194708347 -35.00666427612305
v -2.184162139892578 -0.06949158757925034 -35.03542709350586
v -2 -1.0671877248569217e-7 -35
v -2.185176372528076 0.07193959504365921 -34.97688293457031
v -2.1998846530914307 0.0013248571194708347 -35.00666427612305
v -2 -1.0671877248569217e-7 -35
v -2.1422767639160156 0.13160216808319092 -34.95062255859375
v -2.185176372528076 0.07193959504365921 -34.97688293457031
v -2 -1.0671877248569217e-7 -35
v -2.077716588973999 0.17122948169708252 -34.93187713623047
v -2.1422767639160156 0.13160216808319092 -34.95062255859375
v -2 -1.0671877248569217e-7 -35
v -2.0013248920440674 0.18478864431381226 -34.92350387573242
v -2.077716588973999 0.17122948169708252 -34.93187713623047
v -2 -1.0671877248569217e-7 -35
vt 0 1
vt 0 0
vt 0.0625 1
vt 0 0
vt 0.0625 0
vt 0.0625 1
vt 0.0625 1
vt 0.0625 0
vt 0.125 1
vt 0.0625 0
vt 0.125 0
vt 0.125 1
vt 0.125 1
vt 0.125 0
vt 0.1875 1
vt 0.125 0
vt 0.1875 0
vt 0.1875 1
vt 0.1875 1
vt 0.1875 0
vt 0.25 1
vt 0.1875 0
vt 0.25 0
vt 0.25 1
vt 0.25 1
vt 0.25 0
vt 0.3125 1
vt 0.25 0
vt 0.3125 0
vt 0.3125 1
vt 0.3125 1
vt 0.3125 0
vt 0.375 1
vt 0.3125 0
vt 0.375 0
vt 0.375 1
vt 0.375 1
vt 0.375 0
vt 0.4375 1
vt 0.375 0
vt 0.4375 0
vt 0.4375 1
vt 0.4375 1
vt 0.4375 0
vt 0.5 1
vt 0.4375 0
vt 0.5 0
vt 0.5 1
vt 0.5 1
vt 0.5 0
vt 0.5625 1
vt 0.5 0
vt 0.5625 0
vt 0.5625 1
vt 0.5625 1
vt 0.5625 0
vt 0.625 1
vt 0.5625 0
vt 0.625 0
vt 0.625 1
vt 0.625 1
vt 0.625 0
vt 0.6875 1
vt 0.625 0
vt 0.6875 0
vt 0.6875 1
vt 0.6875 1
vt 0.6875 0
vt 0.75 1
vt 0.6875 0
vt 0.75 0
vt 0.75 1
vt 0.75 1
vt 0.75 0
vt 0.8125 1
vt 0.75 0
vt 0.8125 0
vt 0.8125 1
vt 0.8125 1
vt 0.8125 0
vt 0.875 1
vt 0.8125 0
vt 0.875 0
vt 0.875 1
vt 0.875 1
vt 0.875 0
vt 0.9375 1
vt 0.875 0
vt 0.9375 0
vt 0.9375 1
vt 0.9375 1
vt 0.9375 0
vt 1 1
vt 0.9375 0
vt 1 0
vt 1 1
vt 1 0.5
vt 0.9619397521018982 0.6913416981697083
vt 0.5 0.5
vt 0.9619397521018982 0.6913416981697083
vt 0.8535534143447876 0.8535534143447876
vt 0.5 0.5
vt 0.8535534143447876 0.8535534143447876
vt 0.6913416981697083 0.9619397521018982
vt 0.5 0.5
vt 0.6913416981697083 0.9619397521018982
vt 0.5 1
vt 0.5 0.5
vt 0.5 1
vt 0.30865827202796936 0.9619397521018982
vt 0.5 0.5
vt 0.30865827202796936 0.9619397521018982
vt 0.1464466154575348 0.8535534143447876
vt 0.5 0.5
vt 0.1464466154575348 0.8535534143447876
vt 0.03806023299694061 0.6913416981697083
vt 0.5 0.5
vt 0.03806023299694061 0.6913416981697083
vt 0 0.5
vt 0.5 0.5
vt 0 0.5
vt 0.03806023299694061 0.30865827202796936
vt 0.5 0.5
vt 0.03806023299694061 0.30865827202796936
vt 0.1464466154575348 0.1464466154575348
vt 0.5 0.5
vt 0.1464466154575348 0.1464466154575348
vt 0.30865827202796936 0.03806023299694061
vt 0.5 0.5
vt 0.30865827202796936 0.03806023299694061
vt 0.5 0
vt 0.5 0.5
vt 0.5 0
vt 0.6913416981697083 0.03806023299694061
vt 0.5 0.5
vt 0.6913416981697083 0.03806023299694061
vt 0.8535534143447876 0.1464466154575348
vt 0.5 0.5
vt 0.8535534143447876 0.1464466154575348
vt 0.9619397521018982 0.30865827202796936
vt 0.5 0.5
vt 0.9619397521018982 0.30865827202796936
vt 1 0.5
vt 0.5 0.5
vt 0.9619397521018982 0.30865827202796936
vt 1 0.5
vt 0.5 0.5
vt 0.8535534143447876 0.1464466154575348
vt 0.9619397521018982 0.30865827202796936
vt 0.5 0.5
vt 0.6913416981697083 0.03806023299694061
vt 0.8535534143447876 0.1464466154575348
vt 0.5 0.5
vt 0.5 0
vt 0.6913416981697083 0.03806023299694061
vt 0.5 0.5
vt 0.30865827202796936 0.03806023299694061
vt 0.5 0
vt 0.5 0.5
vt 0.1464466154575348 0.1464466154575348
vt 0.30865827202796936 0.03806023299694061
vt 0.5 0.5
vt 0.03806023299694061 0.30865827202796936
vt 0.1464466154575348 0.1464466154575348
vt 0.5 0.5
vt 0 0.5
vt 0.03806023299694061 0.30865827202796936
vt 0.5 0.5
vt 0.03806023299694061 0.6913416981697083
vt 0 0.5
vt 0.5 0.5
vt 0.1464466154575348 0.8535534143447876
vt 0.03806023299694061 0.6913416981697083
vt 0.5 0.5
vt 0.30865827202796936 0.9619397521018982
vt 0.1464466154575348 0.8535534143447876
vt 0.5 0.5
vt 0.5 1
vt 0.30865827202796936 0.9619397521018982
vt 0.5 0.5
vt 0.6913416981697083 0.9619397521018982
vt 0.5 1
vt 0.5 0.5
vt 0.8535534143447876 0.8535534143447876
vt 0.6913416981697083 0.9619397521018982
vt 0.5 0.5
vt 0.9619397521018982 0.6913416981697083
vt 0.8535534143447876 0.8535534143447876
vt 0.5 0.5
vt 1 0.5
vt 0.9619397521018982 0.6913416981697083
vt 0.5 0.5
vn -0.006624819184382912 0.9239437495303611 0.382470991677214
vn -0.006624819184382912 0.9239437495303611 0.382470991677214
vn 0.37634208613200487 0.8510774928170823 0.3661061805351007
vn -0.006624819184382912 0.9239437495303611 0.382470991677214
vn 0.37634208613200487 0.8510774928170823 0.3661061805351007
vn 0.37634208613200487 0.8510774928170823 0.3661061805351007
vn 0.37634208613200487 0.8510774928170823 0.3661061805351007
vn 0.37634208613200487 0.8510774928170823 0.3661061805351007
vn 0.7020142856724298 0.6486424376107556 0.2940049843832673
vn 0.37634208613200487 0.8510774928170823 0.3661061805351007
vn 0.7020142856724298 0.6486424376107556 0.2940049843832673
vn 0.7020142856724298 0.6486424376107556 0.2940049843832673
vn 0.7020142856724298 0.6486424376107556 0.2940049843832673
vn 0.7020142856724298 0.6486424376107556 0.2940049843832673
vn 0.9208111915639481 0.3474574444670074 0.17714421744736272
vn 0.7020142856724298 0.6486424376107556 0.2940049843832673
vn 0.9208111915639481 0.3474574444670074 0.17714421744736272
vn 0.9208111915639481 0.3474574444670074 0.17714421744736272
vn 0.9208111915639481 0.3474574444670074 0.17714421744736272
vn 0.9208111915639481 0.3474574444670074 0.17714421744736272
vn 0.9994229504107569 -0.006624819132348875 0.033314830987438114
vn 0.9208111915639481 0.3474574444670074 0.17714421744736272
vn 0.9994229504107569 -0.006624819132348875 0.033314830987438114
vn 0.9994229504107569 -0.006624819132348875 0.033314830987438114
vn 0.9994229504107569 -0.006624819132348875 0.033314830987438114
vn 0.9994229504107569 -0.006624819132348875 0.033314830987438114
vn 0.9258816155351706 -0.35969850083482324 -0.11558642874993273
vn 0.9994229504107569 -0.006624819132348875 0.033314830987438114
vn 0.9258816155351706 -0.35969850083482324 -0.11558642874993273
vn 0.9258816155351706 -0.35969850083482324 -0.11558642874993273
vn 0.9258816155351706 -0.35969850083482324 -0.11558642874993273
vn 0.9258816155351706 -0.35969850083482324 -0.11558642874993273
vn 0.7113832238558281 -0.6580113175511375 -0.2468906940147904
vn 0.9258816155351706 -0.35969850083482324 -0.11558642874993273
vn 0.7113832238558281 -0.6580113175511375 -0.2468906940147904
vn 0.7113832238558281 -0.6580113175511375 -0.2468906940147904
vn 0.7113832238558281 -0.6580113175511375 -0.2468906940147904
vn 0.7113832238558281 -0.6580113175511375 -0.2468906940147904
vn 0.3885831453531273 -0.8561479270078648 -0.34060808303328055
vn 0.7113832238558281 -0.6580113175511375 -0.2468906940147904
vn 0.3885831453531273 -0.8561479270078648 -0.34060808303328055
vn 0.3885831453531273 -0.8561479270078648 -0.34060808303328055
vn 0.3885831453531273 -0.8561479270078648 -0.34060808303328055
vn 0.3885831453531273 -0.8561479270078648 -0.34060808303328055
vn 0.006624819184382912 -0.9239437495303611 -0.382470991677214
vn 0.3885831453531273 -0.8561479270078648 -0.34060808303328055
vn 0.006624819184382912 -0.9239437495303611 -0.382470991677214
vn 0.006624819184382912 -0.9239437495303611 -0.382470991677214
vn 0.006624819184382912 -0.9239437495303611 -0.382470991677214
vn 0.006624819184382912 -0.9239437495303611 -0.382470991677214
vn -0.37634208613200487 -0.8510774928170823 -0.3661061805351007
vn 0.006624819184382912 -0.9239437495303611 -0.382470991677214
vn -0.37634208613200487 -0.8510774928170823 -0.3661061805351007
vn -0.37634208613200487 -0.8510774928170823 -0.3661061805351007
vn -0.37634208613200487 -0.8510774928170823 -0.3661061805351007
vn -0.37634208613200487 -0.8510774928170823 -0.3661061805351007
vn -0.7020142856724298 -0.6486424376107556 -0.2940049843832673
vn -0.37634208613200487 -0.8510774928170823 -0.3661061805351007
vn -0.7020142856724298 -0.6486424376107556 -0.2940049843832673
vn -0.7020142856724298 -0.6486424376107556 -0.2940049843832673
vn -0.7020142856724298 -0.6486424376107556 -0.2940049843832673
vn -0.7020142856724298 -0.6486424376107556 -0.2940049843832673
vn -0.9208111915639481 -0.3474574444670074 -0.17714421744736272
vn -0.7020142856724298 -0.6486424376107556 -0.2940049843832673
vn -0.9208111915639481 -0.3474574444670074 -0.17714421744736272
vn -0.9208111915639481 -0.3474574444670074 -0.17714421744736272
vn -0.9208111915639481 -0.3474574444670074 -0.17714421744736272
vn -0.9208111915639481 -0.3474574444670074 -0.17714421744736272
vn -0.9994229504107569 0.006624819132348875 -0.033314830987438114
vn -0.9208111915639481 -0.3474574444670074 -0.17714421744736272
vn -0.9994229504107569 0.006624819132348875 -0.033314830987438114
vn -0.9994229504107569 0.006624819132348875 -0.033314830987438114
vn -0.9994229504107569 0.006624819132348875 -0.033314830987438114
vn -0.9994229504107569 0.006624819132348875 -0.033314830987438114
vn -0.9258816155351706 0.35969850083482324 0.11558642874993273
vn -0.9994229504107569 0.006624819132348875 -0.033314830987438114
vn -0.9258816155351706 0.35969850083482324 0.11558642874993273
vn -0.9258816155351706 0.35969850083482324 0.11558642874993273
vn -0.9258816155351706 0.35969850083482324 0.11558642874993273
vn -0.9258816155351706 0.35969850083482324 0.11558642874993273
vn -0.7113832238558281 0.6580113175511375 0.2468906940147904
vn -0.9258816155351706 0.35969850083482324 0.11558642874993273
vn -0.7113832238558281 0.6580113175511375 0.2468906940147904
vn -0.7113832238558281 0.6580113175511375 0.2468906940147904
vn -0.7113832238558281 0.6580113175511375 0.2468906940147904
vn -0.7113832238558281 0.6580113175511375 0.2468906940147904
vn -0.3885831453531273 0.8561479270078648 0.34060808303328055
vn -0.7113832238558281 0.6580113175511375 0.2468906940147904
vn -0.3885831453531273 0.8561479270078648 0.34060808303328055
vn -0.3885831453531273 0.8561479270078648 0.34060808303328055
vn -0.3885831453531273 0.8561479270078648 0.34060808303328055
vn -0.3885831453531273 0.8561479270078648 0.34060808303328055
vn -0.006624819184382912 0.9239437495303611 0.382470991677214
vn -0.3885831453531273 0.8561479270078648 0.34060808303328055
vn -0.006624819184382912 0.9239437495303611 0.382470991677214
vn -0.006624819184382912 0.9239437495303611 0.382470991677214
vn 0.03331483255856234 0.38247100671042555 -0.9233666936583258
vn 0.03331483255856234 0.38247100671042555 -0.9233666936583258
vn 0.03331483255856234 0.38247100671042555 -0.9233666936583258
vn 0.03331483255856234 0.38247100671042555 -0.9233666936583258
vn 0.03331483255856234 0.38247100671042555 -0.9233666936583258
vn 0.03331483255856234 0.38247100671042555 -0.9233666936583258
vn 0.03331483255856234 0.38247100671042555 -0.9233666936583258
vn 0.03331483255856234 0.38247100671042555 -0.9233666936583258
vn 0.03331483255856234 0.38247100671042555 -0.9233666936583258
vn 0.03331483255856234 0.38247100671042555 -0.9233666936583258
vn 0.03331483255856234 0.38247100671042555 -0.9233666936583258
vn 0.03331483255856234 0.38247100671042555 -0.9233666936583258
vn 0.03331483255856234 0.38247100671042555 -0.9233666936583258
vn 0.03331483255856234 0.38247100671042555 -0.9233666936583258
vn 0.03331483255856234 0.38247100671042555 -0.9233666936583258
vn 0.03331483255856234 0.38247100671042555 -0.9233666936583258
vn 0.03331483255856234 0.38247100671042555 -0.9233666936583258
vn 0.03331483255856234 0.38247100671042555 -0.9233666936583258
vn 0.03331483255856234 0.38247100671042555 -0.9233666936583258
vn 0.03331483255856234 0.38247100671042555 -0.9233666936583258
vn 0.03331483255856234 0.38247100671042555 -0.9233666936583258
vn 0.03331483255856234 0.38247100671042555 -0.9233666936583258
vn 0.03331483255856234 0.38247100671042555 -0.9233666936583258
vn 0.03331483255856234 0.38247100671042555 -0.9233666936583258
vn 0.03331483255856234 0.38247100671042555 -0.9233666936583258
vn 0.03331483255856234 0.38247100671042555 -0.9233666936583258
vn 0.03331483255856234 0.38247100671042555 -0.9233666936583258
vn 0.03331483255856234 0.38247100671042555 -0.9233666936583258
vn 0.03331483255856234 0.38247100671042555 -0.9233666936583258
vn 0.03331483255856234 0.38247100671042555 -0.9233666936583258
vn 0.03331483255856234 0.38247100671042555 -0.9233666936583258
vn 0.03331483255856234 0.38247100671042555 -0.9233666936583258
vn 0.03331483255856234 0.38247100671042555 -0.9233666936583258
vn 0.03331483255856234 0.38247100671042555 -0.9233666936583258
vn 0.03331483255856234 0.38247100671042555 -0.9233666936583258
vn 0.03331483255856234 0.38247100671042555 -0.9233666936583258
vn 0.03331483255856234 0.38247100671042555 -0.9233666936583258
vn 0.03331483255856234 0.38247100671042555 -0.9233666936583258
vn 0.03331483255856234 0.38247100671042555 -0.9233666936583258
vn 0.03331483255856234 0.38247100671042555 -0.9233666936583258
vn 0.03331483255856234 0.38247100671042555 -0.9233666936583258
vn 0.03331483255856234 0.38247100671042555 -0.9233666936583258
vn 0.03331483255856234 0.38247100671042555 -0.9233666936583258
vn 0.03331483255856234 0.38247100671042555 -0.9233666936583258
vn 0.03331483255856234 0.38247100671042555 -0.9233666936583258
vn 0.03331483255856234 0.38247100671042555 -0.9233666936583258
vn 0.03331483255856234 0.38247100671042555 -0.9233666936583258
vn 0.03331483255856234 0.38247100671042555 -0.9233666936583258
vn -0.03331483255856234 -0.38247100671042555 0.9233666936583258
vn -0.03331483255856234 -0.38247100671042555 0.9233666936583258
vn -0.03331483255856234 -0.38247100671042555 0.9233666936583258
vn -0.03331483255856234 -0.38247100671042555 0.9233666936583258
vn -0.03331483255856234 -0.38247100671042555 0.9233666936583258
vn -0.03331483255856234 -0.38247100671042555 0.9233666936583258
vn -0.03331483255856234 -0.38247100671042555 0.9233666936583258
vn -0.03331483255856234 -0.38247100671042555 0.9233666936583258
vn -0.03331483255856234 -0.38247100671042555 0.9233666936583258
vn -0.03331483255856234 -0.38247100671042555 0.9233666936583258
vn -0.03331483255856234 -0.38247100671042555 0.9233666936583258
vn -0.03331483255856234 -0.38247100671042555 0.9233666936583258
vn -0.03331483255856234 -0.38247100671042555 0.9233666936583258
vn -0.03331483255856234 -0.38247100671042555 0.9233666936583258
vn -0.03331483255856234 -0.38247100671042555 0.9233666936583258
vn -0.03331483255856234 -0.38247100671042555 0.9233666936583258
vn -0.03331483255856234 -0.38247100671042555 0.9233666936583258
vn -0.03331483255856234 -0.38247100671042555 0.9233666936583258
vn -0.03331483255856234 -0.38247100671042555 0.9233666936583258
vn -0.03331483255856234 -0.38247100671042555 0.9233666936583258
vn -0.03331483255856234 -0.38247100671042555 0.9233666936583258
vn -0.03331483255856234 -0.38247100671042555 0.9233666936583258
vn -0.03331483255856234 -0.38247100671042555 0.9233666936583258
vn -0.03331483255856234 -0.38247100671042555 0.9233666936583258
vn -0.03331483255856234 -0.38247100671042555 0.9233666936583258
vn -0.03331483255856234 -0.38247100671042555 0.9233666936583258
vn -0.03331483255856234 -0.38247100671042555 0.9233666936583258
vn -0.03331483255856234 -0.38247100671042555 0.9233666936583258
vn -0.03331483255856234 -0.38247100671042555 0.9233666936583258
vn -0.03331483255856234 -0.38247100671042555 0.9233666936583258
vn -0.03331483255856234 -0.38247100671042555 0.9233666936583258
vn -0.03331483255856234 -0.38247100671042555 0.9233666936583258
vn -0.03331483255856234 -0.38247100671042555 0.9233666936583258
vn -0.03331483255856234 -0.38247100671042555 0.9233666936583258
vn -0.03331483255856234 -0.38247100671042555 0.9233666936583258
vn -0.03331483255856234 -0.38247100671042555 0.9233666936583258
vn -0.03331483255856234 -0.38247100671042555 0.9233666936583258
vn -0.03331483255856234 -0.38247100671042555 0.9233666936583258
vn -0.03331483255856234 -0.38247100671042555 0.9233666936583258
vn -0.03331483255856234 -0.38247100671042555 0.9233666936583258
vn -0.03331483255856234 -0.38247100671042555 0.9233666936583258
vn -0.03331483255856234 -0.38247100671042555 0.9233666936583258
vn -0.03331483255856234 -0.38247100671042555 0.9233666936583258
vn -0.03331483255856234 -0.38247100671042555 0.9233666936583258
vn -0.03331483255856234 -0.38247100671042555 0.9233666936583258
vn -0.03331483255856234 -0.38247100671042555 0.9233666936583258
vn -0.03331483255856234 -0.38247100671042555 0.9233666936583258
vn -0.03331483255856234 -0.38247100671042555 0.9233666936583258
f 1/1/1 2/2/2 3/3/3
f 4/4/4 5/5/5 6/6/6
f 7/7/7 8/8/8 9/9/9
f 10/10/10 11/11/11 12/12/12
f 13/13/13 14/14/14 15/15/15
f 16/16/16 17/17/17 18/18/18
f 19/19/19 20/20/20 21/21/21
f 22/22/22 23/23/23 24/24/24
f 25/25/25 26/26/26 27/27/27
f 28/28/28 29/29/29 30/30/30
f 31/31/31 32/32/32 33/33/33
f 34/34/34 35/35/35 36/36/36
f 37/37/37 38/38/38 39/39/39
f 40/40/40 41/41/41 42/42/42
f 43/43/43 44/44/44 45/45/45
f 46/46/46 47/47/47 48/48/48
f 49/49/49 50/50/50 51/51/51
f 52/52/52 53/53/53 54/54/54
f 55/55/55 56/56/56 57/57/57
f 58/58/58 59/59/59 60/60/60
f 61/61/61 62/62/62 63/63/63
f 64/64/64 65/65/65 66/66/66
f 67/67/67 68/68/68 69/69/69
f 70/70/70 71/71/71 72/72/72
f 73/73/73 74/74/74 75/75/75
f 76/76/76 77/77/77 78/78/78
f 79/79/79 80/80/80 81/81/81
f 82/82/82 83/83/83 84/84/84
f 85/85/85 86/86/86 87/87/87
f 88/88/88 89/89/89 90/90/90
f 91/91/91 92/92/92 93/93/93
f 94/94/94 95/95/95 96/96/96
f 97/97/97 98/98/98 99/99/99
f 100/100/100 101/101/101 102/102/102
f 103/103/103 104/104/104 105/105/105
f 106/106/106 107/107/107 108/108/108
f 109/109/109 110/110/110 111/111/111
f 112/112/112 113/113/113 114/114/114
f 115/115/115 116/116/116 117/117/117
f 118/118/118 119/119/119 120/120/120
f 121/121/121 122/122/122 123/123/123
f 124/124/124 125/125/125 126/126/126
f 127/127/127 128/128/128 129/129/129
f 130/130/130 131/131/131 132/132/132
f 133/133/133 134/134/134 135/135/135
f 136/136/136 137/137/137 138/138/138
f 139/139/139 140/140/140 141/141/141
f 142/142/142 143/143/143 144/144/144
f 145/145/145 146/146/146 147/147/147
f 148/148/148 149/149/149 150/150/150
f 151/151/151 152/152/152 153/153/153
f 154/154/154 155/155/155 156/156/156
f 157/157/157 158/158/158 159/159/159
f 160/160/160 161/161/161 162/162/162
f 163/163/163 164/164/164 165/165/165
f 166/166/166 167/167/167 168/168/168
f 169/169/169 170/170/170 171/171/171
f 172/172/172 173/173/173 174/174/174
f 175/175/175 176/176/176 177/177/177
f 178/178/178 179/179/179 180/180/180
f 181/181/181 182/182/182 183/183/183
f 184/184/184 185/185/185 186/186/186
f 187/187/187 188/188/188 189/189/189
f 190/190/190 191/191/191 192/192/192
