v -0.9979794147696809 25.055140970574904 -16.500784297825156
v -0.921642930009895 25.044137802590576 -16.512671634355314
v -0.8572355884714014 25.017903058336856 -16.54807036538881
v -0.8145628491360604 24.980430723737815 -16.601591380571737
v -0.8001212190773301 24.93742563480215 -16.66508656958505
v -0.8161093309559306 24.895434922424357 -16.728889373077656
v -0.8600931144511785 24.86085128617599 -16.783286399670843
v -0.9253764673999285 24.838939785955453 -16.819996174864244
v -1.0020205666390118 24.833036231321024 -16.833429993214267
v -1.0783570513987977 24.844039399305352 -16.821542656684116
v -1.1427643929372913 24.870274143559072 -16.78614392565062
v -1.1854371322726323 24.907746478158113 -16.73262291046769
v -1.1998787623313625 24.95075156709378 -16.66912772145438
v -1.183890650452762 24.99274227947157 -16.60532491796177
v -1.139906866957514 25.02732591571994 -16.550927891368588
v -1.074623514008764 25.049237415940475 -16.51421811617518
v -0.9979794147696809 25.055140970574904 -16.500784297825156
v -1.9979794333609882 0.11105213775533862 0.1663230026262088
v -1.9216429486012023 0.10004896977100763 0.1544356660960542
v -1.8572356070627087 0.07381422551728889 0.11903693506255841
v -1.8145628677273677 0.0363418909182478 0.06551591987962979
v -1.8001212376686375 -0.006663198017417216 0.0020207308663184875
v -1.816109349547238 -0.04865391039520972 -0.061782072626289875
v -1.860093133042486 -0.08323754664357708 -0.11617909921947422
v -1.925376485991236 -0.10514904686411519 -0.1528888744128789
v -2.0020205852303192 -0.11105260149854423 -0.16632269276290224
v -2.078357069990105 -0.10004943351421325 -0.15443535623274762
v -2.1427644115285984 -0.0738146892604945 -0.11903662519925184
v -2.1854371508639394 -0.03634235466145341 -0.06551561001632322
v -2.1998787809226696 0.006662734274211601 -0.0020204210030119185
v -2.1838906690440694 0.048653446652004106 0.061782382489596444
v -2.1399068855488217 0.08323708290037146 0.1161794090827808
v -2.0746235326000715 0.10514858312090958 0.15288918427618547
v -1.9979794333609882 0.11105213775533862 0.1663230026262088
v -0.9999999907043463 24.944088600947964 -16.667107145519715
v -0.9999999907043463 24.944088600947964 -16.667107145519715
v -0.9999999907043463 24.944088600947964 -16.667107145519715
v -0.9999999907043463 24.944088600947964 -16.667107145519715
v -0.9999999907043463 24.944088600947964 -16.667107145519715
v -0.9999999907043463 24.944088600947964 -16.667107145519715
v -0.9999999907043463 24.944088600947964 -16.667107145519715
v -0.9999999907043463 24.944088600947964 -16.667107145519715
v -0.9999999907043463 24.944088600947964 -16.667107145519715
v -0.9999999907043463 24.944088600947964 -16.667107145519715
v -0.9999999907043463 24.944088600947964 -16.667107145519715
v -0.9999999907043463 24.944088600947964 -16.667107145519715
v -0.9999999907043463 24.944088600947964 -16.667107145519715
v -0.9999999907043463 24.944088600947964 -16.667107145519715
v -0.9999999907043463 24.944088600947964 -16.667107145519715
v -0.9999999907043463 24.944088600947964 -16.667107145519715
v -0.9979794147696809 25.055140970574904 -16.500784297825156
v -0.921642930009895 25.044137802590576 -16.512671634355314
v -0.8572355884714014 25.017903058336856 -16.54807036538881
v -0.8145628491360604 24.980430723737815 -16.601591380571737
v -0.8001212190773301 24.93742563480215 -16.66508656958505
v -0.8161093309559306 24.895434922424357 -16.728889373077656
v -0.8600931144511785 24.86085128617599 -16.783286399670843
v -0.9253764673999285 24.838939785955453 -16.819996174864244
v -1.0020205666390118 24.833036231321024 -16.833429993214267
v -1.0783570513987977 24.844039399305352 -16.821542656684116
v -1.1427643929372913 24.870274143559072 -16.78614392565062
v -1.1854371322726323 24.907746478158113 -16.73262291046769
v -1.1998787623313625 24.95075156709378 -16.66912772145438
v -1.183890650452762 24.99274227947157 -16.60532491796177
v -1.139906866957514 25.02732591571994 -16.550927891368588
v -1.074623514008764 25.049237415940475 -16.51421811617518
v -0.9979794147696809 25.055140970574904 -16.500784297825156
v -2.0000000092956536 -2.3187160280713215e-7 1.5493165328450687e-7
v -2.0000000092956536 -2.3187160280713215e-7 1.5493165328450687e-7
v -2.0000000092956536 -2.3187160280713215e-7 1.5493165328450687e-7
v -2.0000000092956536 -2.3187160280713215e-7 1.5493165328450687e-7
v -2.0000000092956536 -2.3187160280713215e-7 1.5493165328450687e-7
v -2.0000000092956536 -2.3187160280713215e-7 1.5493165328450687e-7
v -2.0000000092956536 -2.3187160280713215e-7 1.5493165328450687e-7
v -2.0000000092956536 -2.3187160280713215e-7 1.5493165328450687e-7
v -2.0000000092956536 -2.3187160280713215e-7 1.5493165328450687e-7
v -2.0000000092956536 -2.3187160280713215e-7 1.5493165328450687e-7
v -2.0000000092956536 -2.3187160280713215e-7 1.5493165328450687e-7
v -2.0000000092956536 -2.3187160280713215e-7 1.5493165328450687e-7
v -2.0000000092956536 -2.3187160280713215e-7 1.5493165328450687e-7
v -2.0000000092956536 -2.3187160280713215e-7 1.5493165328450687e-7
v -2.0000000092956536 -2.3187160280713215e-7 1.5493165328450687e-7
v -2.0000000092956536 -2.3187160280713215e-7 1.5493165328450687e-7
v -1.9979794333609882 0.11105213775533862 0.1663230026262088
v -1.9216429486012023 0.10004896977100763 0.1544356660960542
v -1.8572356070627087 0.07381422551728889 0.11903693506255841
v -1.8145628677273677 0.0363418909182478 0.06551591987962979
v -1.8001212376686375 -0.006663198017417216 0.0020207308663184875
v -1.816109349547238 -0.04865391039520972 -0.061782072626289875
v -1.860093133042486 -0.08323754664357708 -0.11617909921947422
v -1.925376485991236 -0.10514904686411519 -0.1528888744128789
v -2.0020205852303192 -0.11105260149854423 -0.16632269276290224
v -2.078357069990105 -0.10004943351421325 -0.15443535623274762
v -2.1427644115285984 -0.0738146892604945 -0.11903662519925184
v -2.1854371508639394 -0.03634235466145341 -0.06551561001632322
v -2.1998787809226696 0.006662734274211601 -0.0020204210030119185
v -2.1838906690440694 0.048653446652004106 0.061782382489596444
v -2.1399068855488217 0.08323708290037146 0.1161794090827808
v -2.0746235326000715 0.10514858312090958 0.15288918427618547
v -1.9979794333609882 0.11105213775533862 0.1663230026262088
f 1 18 2
f 18 19 2
f 2 19 3
f 19 20 3
f 3 20 4
f 20 21 4
f 4 21 5
f 21 22 5
f 5 22 6
f 22 23 6
f 6 23 7
f 23 24 7
f 7 24 8
f 24 25 8
f 8 25 9
f 25 26 9
f 9 26 10
f 26 27 10
f 10 27 11
f 27 28 11
f 11 28 12
f 28 29 12
f 12 29 13
f 29 30 13
f 13 30 14
f 30 31 14
f 14 31 15
f 31 32 15
f 15 32 16
f 32 33 16
f 16 33 17
f 33 34 17
f 51 52 35
f 52 53 36
f 53 54 37
f 54 55 38
f 55 56 39
f 56 57 40
f 57 58 41
f 58 59 42
f 59 60 43
f 60 61 44
f 61 62 45
f 62 63 46
f 63 64 47
f 64 65 48
f 65 66 49
f 66 67 50
f 85 84 68
f 86 85 69
f 87 86 70
f 88 87 71
f 89 88 72
f 90 89 73
f 91 90 74
f 92 91 75
f 93 92 76
f 94 93 77
f 95 94 78
f 96 95 79
f 97 96 80
f 98 97 81
f 99 98 82
f 100 99 83
