v 10 1 12.5
v 10 1 -12.5
v 10 -1 12.5
v 10 -1 -12.5
v -10 1 -12.5
v -10 1 12.5
v -10 -1 -12.5
v -10 -1 12.5
v -10 1 -12.5
v 10 1 -12.5
v -10 1 12.5
v 10 1 12.5
v -10 -1 12.5
v 10 -1 12.5
v -10 -1 -12.5
v 10 -1 -12.5
v -10 1 12.5
v 10 1 12.5
v -10 -1 12.5
v 10 -1 12.5
v 10 1 -12.5
v -10 1 -12.5
v 10 -1 -12.5
v -10 -1 -12.5
f 1 3 2
f 3 4 2
f 5 7 6
f 7 8 6
f 9 11 10
f 11 12 10
f 13 15 14
f 15 16 14
f 17 19 18
f 19 20 18
f 21 23 22
f 23 24 22
v 0 17.64405059814453 0.800000011920929
v 0.3061467409133911 17.64405059814453 0.7391036152839661
v 0.5656854510307312 17.64405059814453 0.5656854510307312
v 0.7391036152839661 17.64405059814453 0.3061467409133911
v 0.800000011920929 17.64405059814453 4.8985870794684264e-17
v 0.7391036152839661 17.64405059814453 -0.3061467409133911
v 0.5656854510307312 17.64405059814453 -0.5656854510307312
v 0.3061467409133911 17.64405059814453 -0.7391036152839661
v 9.797174158936853e-17 17.64405059814453 -0.800000011920929
v -0.3061467409133911 17.64405059814453 -0.7391036152839661
v -0.5656854510307312 17.64405059814453 -0.5656854510307312
v -0.7391036152839661 17.64405059814453 -0.3061467409133911
v -0.800000011920929 17.64405059814453 -1.4695762231022014e-16
v -0.7391036152839661 17.64405059814453 0.3061467409133911
v -0.5656854510307312 17.64405059814453 0.5656854510307312
v -0.3061467409133911 17.64405059814453 0.7391036152839661
v -1.9594348317873706e-16 17.64405059814453 0.800000011920929
v 0 -17.64405059814453 0.800000011920929
v 0.3061467409133911 -17.64405059814453 0.7391036152839661
v 0.5656854510307312 -17.64405059814453 0.5656854510307312
v 0.7391036152839661 -17.64405059814453 0.3061467409133911
v 0.800000011920929 -17.64405059814453 4.8985870794684264e-17
v 0.7391036152839661 -17.64405059814453 -0.3061467409133911
v 0.5656854510307312 -17.64405059814453 -0.5656854510307312
v 0.3061467409133911 -17.64405059814453 -0.7391036152839661
v 9.797174158936853e-17 -17.64405059814453 -0.800000011920929
v -0.3061467409133911 -17.64405059814453 -0.7391036152839661
v -0.5656854510307312 -17.64405059814453 -0.5656854510307312
v -0.7391036152839661 -17.64405059814453 -0.3061467409133911
v -0.800000011920929 -17.64405059814453 -1.4695762231022014e-16
v -0.7391036152839661 -17.64405059814453 0.3061467409133911
v -0.5656854510307312 -17.64405059814453 0.5656854510307312
v -0.3061467409133911 -17.64405059814453 0.7391036152839661
v -1.9594348317873706e-16 -17.64405059814453 0.800000011920929
v 0 17.64405059814453 0
v 0 17.64405059814453 0
v 0 17.64405059814453 0
v 0 17.64405059814453 0
v 0 17.64405059814453 0
v 0 17.64405059814453 0
v 0 17.64405059814453 0
v 0 17.64405059814453 0
v 0 17.64405059814453 0
v 0 17.64405059814453 0
v 0 17.64405059814453 0
v 0 17.64405059814453 0
v 0 17.64405059814453 0
v 0 17.64405059814453 0
v 0 17.64405059814453 0
v 0 17.64405059814453 0
v 0 17.64405059814453 0.800000011920929
v 0.3061467409133911 17.64405059814453 0.7391036152839661
v 0.5656854510307312 17.64405059814453 0.5656854510307312
v 0.7391036152839661 17.64405059814453 0.3061467409133911
v 0.800000011920929 17.64405059814453 4.8985870794684264e-17
v 0.7391036152839661 17.64405059814453 -0.3061467409133911
v 0.5656854510307312 17.64405059814453 -0.5656854510307312
v 0.3061467409133911 17.64405059814453 -0.7391036152839661
v 9.797174158936853e-17 17.64405059814453 -0.800000011920929
v -0.3061467409133911 17.64405059814453 -0.7391036152839661
v -0.5656854510307312 17.64405059814453 -0.5656854510307312
v -0.7391036152839661 17.64405059814453 -0.3061467409133911
v -0.800000011920929 17.64405059814453 -1.4695762231022014e-16
v -0.7391036152839661 17.64405059814453 0.3061467409133911
v -0.5656854510307312 17.64405059814453 0.5656854510307312
v -0.3061467409133911 17.64405059814453 0.7391036152839661
v -1.9594348317873706e-16 17.64405059814453 0.800000011920929
v 0 -17.64405059814453 0
v 0 -17.64405059814453 0
v 0 -17.64405059814453 0
v 0 -17.64405059814453 0
v 0 -17.64405059814453 0
v 0 -17.64405059814453 0
v 0 -17.64405059814453 0
v 0 -17.64405059814453 0
v 0 -17.64405059814453 0
v 0 -17.64405059814453 0
v 0 -17.64405059814453 0
v 0 -17.64405059814453 0
v 0 -17.64405059814453 0
v 0 -17.64405059814453 0
v 0 -17.64405059814453 0
v 0 -17.64405059814453 0
v 0 -17.64405059814453 0.800000011920929
v 0.3061467409133911 -17.64405059814453 0.7391036152839661
v 0.5656854510307312 -17.64405059814453 0.5656854510307312
v 0.7391036152839661 -17.64405059814453 0.3061467409133911
v 0.800000011920929 -17.64405059814453 4.8985870794684264e-17
v 0.7391036152839661 -17.64405059814453 -0.3061467409133911
v 0.5656854510307312 -17.64405059814453 -0.5656854510307312
v 0.3061467409133911 -17.64405059814453 -0.7391036152839661
v 9.797174158936853e-17 -17.64405059814453 -0.800000011920929
v -0.3061467409133911 -17.64405059814453 -0.7391036152839661
v -0.5656854510307312 -17.64405059814453 -0.5656854510307312
v -0.7391036152839661 -17.64405059814453 -0.3061467409133911
v -0.800000011920929 -17.64405059814453 -1.4695762231022014e-16
v -0.7391036152839661 -17.64405059814453 0.3061467409133911
v -0.5656854510307312 -17.64405059814453 0.5656854510307312
v -0.3061467409133911 -17.64405059814453 0.7391036152839661
v -1.9594348317873706e-16 -17.64405059814453 0.800000011920929
f 25 42 26
f 42 43 26
f 26 43 27
f 43 44 27
f 27 44 28
f 44 45 28
f 28 45 29
f 45 46 29
f 29 46 30
f 46 47 30
f 30 47 31
f 47 48 31
f 31 48 32
f 48 49 32
f 32 49 33
f 49 50 33
f 33 50 34
f 50 51 34
f 34 51 35
f 51 52 35
f 35 52 36
f 52 53 36
f 36 53 37
f 53 54 37
f 37 54 38
f 54 55 38
f 38 55 39
f 55 56 39
f 39 56 40
f 56 57 40
f 40 57 41
f 57 58 41
f 75 76 59
f 76 77 60
f 77 78 61
f 78 79 62
f 79 80 63
f 80 81 64
f 81 82 65
f 82 83 66
f 83 84 67
f 84 85 68
f 85 86 69
f 86 87 70
f 87 88 71
f 88 89 72
f 89 90 73
f 90 91 74
f 109 108 92
f 110 109 93
f 111 110 94
f 112 111 95
f 113 112 96
f 114 113 97
f 115 114 98
f 116 115 99
f 117 116 100
f 118 117 101
f 119 118 102
f 120 119 103
f 121 120 104
f 122 121 105
f 123 122 106
f 124 123 107
v 0 17.64405059814453 0.800000011920929
v 0.3061467409133911 17.64405059814453 0.7391036152839661
v 0.5656854510307312 17.64405059814453 0.5656854510307312
v 0.7391036152839661 17.64405059814453 0.3061467409133911
v 0.800000011920929 17.64405059814453 4.8985870794684264e-17
v 0.7391036152839661 17.64405059814453 -0.3061467409133911
v 0.5656854510307312 17.64405059814453 -0.5656854510307312
v 0.3061467409133911 17.64405059814453 -0.7391036152839661
v 9.797174158936853e-17 17.64405059814453 -0.800000011920929
v -0.3061467409133911 17.64405059814453 -0.7391036152839661
v -0.5656854510307312 17.64405059814453 -0.5656854510307312
v -0.7391036152839661 17.64405059814453 -0.3061467409133911
v -0.800000011920929 17.64405059814453 -1.4695762231022014e-16
v -0.7391036152839661 17.64405059814453 0.3061467409133911
v -0.5656854510307312 17.64405059814453 0.5656854510307312
v -0.3061467409133911 17.64405059814453 0.7391036152839661
v -1.9594348317873706e-16 17.64405059814453 0.800000011920929
v 0 -17.64405059814453 0.800000011920929
v 0.3061467409133911 -17.64405059814453 0.7391036152839661
v 0.5656854510307312 -17.64405059814453 0.5656854510307312
v 0.7391036152839661 -17.64405059814453 0.3061467409133911
v 0.800000011920929 -17.64405059814453 4.8985870794684264e-17
v 0.7391036152839661 -17.64405059814453 -0.3061467409133911
v 0.5656854510307312 -17.64405059814453 -0.5656854510307312
v 0.3061467409133911 -17.64405059814453 -0.7391036152839661
v 9.797174158936853e-17 -17.64405059814453 -0.800000011920929
v -0.3061467409133911 -17.64405059814453 -0.7391036152839661
v -0.5656854510307312 -17.64405059814453 -0.5656854510307312
v -0.7391036152839661 -17.64405059814453 -0.3061467409133911
v -0.800000011920929 -17.64405059814453 -1.4695762231022014e-16
v -0.7391036152839661 -17.64405059814453 0.3061467409133911
v -0.5656854510307312 -17.64405059814453 0.5656854510307312
v -0.3061467409133911 -17.64405059814453 0.7391036152839661
v -1.9594348317873706e-16 -17.64405059814453 0.800000011920929
v 0 17.64405059814453 0
v 0 17.64405059814453 0
v 0 17.64405059814453 0
v 0 17.64405059814453 0
v 0 17.64405059814453 0
v 0 17.64405059814453 0
v 0 17.64405059814453 0
v 0 17.64405059814453 0
v 0 17.64405059814453 0
v 0 17.64405059814453 0
v 0 17.64405059814453 0
v 0 17.64405059814453 0
v 0 17.64405059814453 0
v 0 17.64405059814453 0
v 0 17.64405059814453 0
v 0 17.64405059814453 0
v 0 17.64405059814453 0.800000011920929
v 0.3061467409133911 17.64405059814453 0.7391036152839661
v 0.5656854510307312 17.64405059814453 0.5656854510307312
v 0.7391036152839661 17.64405059814453 0.3061467409133911
v 0.800000011920929 17.64405059814453 4.8985870794684264e-17
v 0.7391036152839661 17.64405059814453 -0.3061467409133911
v 0.5656854510307312 17.64405059814453 -0.5656854510307312
v 0.3061467409133911 17.64405059814453 -0.7391036152839661
v 9.797174158936853e-17 17.64405059814453 -0.800000011920929
v -0.3061467409133911 17.64405059814453 -0.7391036152839661
v -0.5656854510307312 17.64405059814453 -0.5656854510307312
v -0.7391036152839661 17.64405059814453 -0.3061467409133911
v -0.800000011920929 17.64405059814453 -1.4695762231022014e-16
v -0.7391036152839661 17.64405059814453 0.3061467409133911
v -0.5656854510307312 17.64405059814453 0.5656854510307312
v -0.3061467409133911 17.64405059814453 0.7391036152839661
v -1.9594348317873706e-16 17.64405059814453 0.800000011920929
v 0 -17.64405059814453 0
v 0 -17.64405059814453 0
v 0 -17.64405059814453 0
v 0 -17.64405059814453 0
v 0 -17.64405059814453 0
v 0 -17.64405059814453 0
v 0 -17.64405059814453 0
v 0 -17.64405059814453 0
v 0 -17.64405059814453 0
v 0 -17.64405059814453 0
v 0 -17.64405059814453 0
v 0 -17.64405059814453 0
v 0 -17.64405059814453 0
v 0 -17.64405059814453 0
v 0 -17.64405059814453 0
v 0 -17.64405059814453 0
v 0 -17.64405059814453 0.800000011920929
v 0.3061467409133911 -17.64405059814453 0.7391036152839661
v 0.5656854510307312 -17.64405059814453 0.5656854510307312
v 0.7391036152839661 -17.64405059814453 0.3061467409133911
v 0.800000011920929 -17.64405059814453 4.8985870794684264e-17
v 0.7391036152839661 -17.64405059814453 -0.3061467409133911
v 0.5656854510307312 -17.64405059814453 -0.5656854510307312
v 0.3061467409133911 -17.64405059814453 -0.7391036152839661
v 9.797174158936853e-17 -17.64405059814453 -0.800000011920929
v -0.3061467409133911 -17.64405059814453 -0.7391036152839661
v -0.5656854510307312 -17.64405059814453 -0.5656854510307312
v -0.7391036152839661 -17.64405059814453 -0.3061467409133911
v -0.800000011920929 -17.64405059814453 -1.4695762231022014e-16
v -0.7391036152839661 -17.64405059814453 0.3061467409133911
v -0.5656854510307312 -17.64405059814453 0.5656854510307312
v -0.3061467409133911 -17.64405059814453 0.7391036152839661
v -1.9594348317873706e-16 -17.64405059814453 0.800000011920929
f 125 142 126
f 142 143 126
f 126 143 127
f 143 144 127
f 127 144 128
f 144 145 128
f 128 145 129
f 145 146 129
f 129 146 130
f 146 147 130
f 130 147 131
f 147 148 131
f 131 148 132
f 148 149 132
f 132 149 133
f 149 150 133
f 133 150 134
f 150 151 134
f 134 151 135
f 151 152 135
f 135 152 136
f 152 153 136
f 136 153 137
f 153 154 137
f 137 154 138
f 154 155 138
f 138 155 139
f 155 156 139
f 139 156 140
f 156 157 140
f 140 157 141
f 157 158 141
f 175 176 159
f 176 177 160
f 177 178 161
f 178 179 162
f 179 180 163
f 180 181 164
f 181 182 165
f 182 183 166
f 183 184 167
f 184 185 168
f 185 186 169
f 186 187 170
f 187 188 171
f 188 189 172
f 189 190 173
f 190 191 174
f 209 208 192
f 210 209 193
f 211 210 194
f 212 211 195
f 213 212 196
f 214 213 197
f 215 214 198
f 216 215 199
f 217 216 200
f 218 217 201
f 219 218 202
f 220 219 203
f 221 220 204
f 222 221 205
f 223 222 206
f 224 223 207
v 0 17.64405059814453 0.800000011920929
v 0.3061467409133911 17.64405059814453 0.7391036152839661
v 0.5656854510307312 17.64405059814453 0.5656854510307312
v 0.7391036152839661 17.64405059814453 0.3061467409133911
v 0.800000011920929 17.64405059814453 4.8985870794684264e-17
v 0.7391036152839661 17.64405059814453 -0.3061467409133911
v 0.5656854510307312 17.64405059814453 -0.5656854510307312
v 0.3061467409133911 17.64405059814453 -0.7391036152839661
v 9.797174158936853e-17 17.64405059814453 -0.800000011920929
v -0.3061467409133911 17.64405059814453 -0.7391036152839661
v -0.5656854510307312 17.64405059814453 -0.5656854510307312
v -0.7391036152839661 17.64405059814453 -0.3061467409133911
v -0.800000011920929 17.64405059814453 -1.4695762231022014e-16
v -0.7391036152839661 17.64405059814453 0.3061467409133911
v -0.5656854510307312 17.64405059814453 0.5656854510307312
v -0.3061467409133911 17.64405059814453 0.7391036152839661
v -1.9594348317873706e-16 17.64405059814453 0.800000011920929
v 0 -17.64405059814453 0.800000011920929
v 0.3061467409133911 -17.64405059814453 0.7391036152839661
v 0.5656854510307312 -17.64405059814453 0.5656854510307312
v 0.7391036152839661 -17.64405059814453 0.3061467409133911
v 0.800000011920929 -17.64405059814453 4.8985870794684264e-17
v 0.7391036152839661 -17.64405059814453 -0.3061467409133911
v 0.5656854510307312 -17.64405059814453 -0.5656854510307312
v 0.3061467409133911 -17.64405059814453 -0.7391036152839661
v 9.797174158936853e-17 -17.64405059814453 -0.800000011920929
v -0.3061467409133911 -17.64405059814453 -0.7391036152839661
v -0.5656854510307312 -17.64405059814453 -0.5656854510307312
v -0.7391036152839661 -17.64405059814453 -0.3061467409133911
v -0.800000011920929 -17.64405059814453 -1.4695762231022014e-16
v -0.7391036152839661 -17.64405059814453 0.3061467409133911
v -0.5656854510307312 -17.64405059814453 0.5656854510307312
v -0.3061467409133911 -17.64405059814453 0.7391036152839661
v -1.9594348317873706e-16 -17.64405059814453 0.800000011920929
v 0 17.64405059814453 0
v 0 17.64405059814453 0
v 0 17.64405059814453 0
v 0 17.64405059814453 0
v 0 17.64405059814453 0
v 0 17.64405059814453 0
v 0 17.64405059814453 0
v 0 17.64405059814453 0
v 0 17.64405059814453 0
v 0 17.64405059814453 0
v 0 17.64405059814453 0
v 0 17.64405059814453 0
v 0 17.64405059814453 0
v 0 17.64405059814453 0
v 0 17.64405059814453 0
v 0 17.64405059814453 0
v 0 17.64405059814453 0.800000011920929
v 0.3061467409133911 17.64405059814453 0.7391036152839661
v 0.5656854510307312 17.64405059814453 0.5656854510307312
v 0.7391036152839661 17.64405059814453 0.3061467409133911
v 0.800000011920929 17.64405059814453 4.8985870794684264e-17
v 0.7391036152839661 17.64405059814453 -0.3061467409133911
v 0.5656854510307312 17.64405059814453 -0.5656854510307312
v 0.3061467409133911 17.64405059814453 -0.7391036152839661
v 9.797174158936853e-17 17.64405059814453 -0.800000011920929
v -0.3061467409133911 17.64405059814453 -0.7391036152839661
v -0.5656854510307312 17.64405059814453 -0.5656854510307312
v -0.7391036152839661 17.64405059814453 -0.3061467409133911
v -0.800000011920929 17.64405059814453 -1.4695762231022014e-16
v -0.7391036152839661 17.64405059814453 0.3061467409133911
v -0.5656854510307312 17.64405059814453 0.5656854510307312
v -0.3061467409133911 17.64405059814453 0.7391036152839661
v -1.9594348317873706e-16 17.64405059814453 0.800000011920929
v 0 -17.64405059814453 0
v 0 -17.64405059814453 0
v 0 -17.64405059814453 0
v 0 -17.64405059814453 0
v 0 -17.64405059814453 0
v 0 -17.64405059814453 0
v 0 -17.64405059814453 0
v 0 -17.64405059814453 0
v 0 -17.64405059814453 0
v 0 -17.64405059814453 0
v 0 -17.64405059814453 0
v 0 -17.64405059814453 0
v 0 -17.64405059814453 0
v 0 -17.64405059814453 0
v 0 -17.64405059814453 0
v 0 -17.64405059814453 0
v 0 -17.64405059814453 0.800000011920929
v 0.3061467409133911 -17.64405059814453 0.7391036152839661
v 0.5656854510307312 -17.64405059814453 0.5656854510307312
v 0.7391036152839661 -17.64405059814453 0.3061467409133911
v 0.800000011920929 -17.64405059814453 4.8985870794684264e-17
v 0.7391036152839661 -17.64405059814453 -0.3061467409133911
v 0.5656854510307312 -17.64405059814453 -0.5656854510307312
v 0.3061467409133911 -17.64405059814453 -0.7391036152839661
v 9.797174158936853e-17 -17.64405059814453 -0.800000011920929
v -0.3061467409133911 -17.64405059814453 -0.7391036152839661
v -0.5656854510307312 -17.64405059814453 -0.5656854510307312
v -0.7391036152839661 -17.64405059814453 -0.3061467409133911
v -0.800000011920929 -17.64405059814453 -1.4695762231022014e-16
v -0.7391036152839661 -17.64405059814453 0.3061467409133911
v -0.5656854510307312 -17.64405059814453 0.5656854510307312
v -0.3061467409133911 -17.64405059814453 0.7391036152839661
v -1.9594348317873706e-16 -17.64405059814453 0.800000011920929
f 225 242 226
f 242 243 226
f 226 243 227
f 243 244 227
f 227 244 228
f 244 245 228
f 228 245 229
f 245 246 229
f 229 246 230
f 246 247 230
f 230 247 231
f 247 248 231
f 231 248 232
f 248 249 232
f 232 249 233
f 249 250 233
f 233 250 234
f 250 251 234
f 234 251 235
f 251 252 235
f 235 252 236
f 252 253 236
f 236 253 237
f 253 254 237
f 237 254 238
f 254 255 238
f 238 255 239
f 255 256 239
f 239 256 240
f 256 257 240
f 240 257 241
f 257 258 241
f 275 276 259
f 276 277 260
f 277 278 261
f 278 279 262
f 279 280 263
f 280 281 264
f 281 282 265
f 282 283 266
f 283 284 267
f 284 285 268
f 285 286 269
f 286 287 270
f 287 288 271
f 288 289 272
f 289 290 273
f 290 291 274
f 309 308 292
f 310 309 293
f 311 310 294
f 312 311 295
f 313 312 296
f 314 313 297
f 315 314 298
f 316 315 299
f 317 316 300
f 318 317 301
f 319 318 302
f 320 319 303
f 321 320 304
f 322 321 305
f 323 322 306
f 324 323 307
v 0 17.64405059814453 0.800000011920929
v 0.3061467409133911 17.64405059814453 0.7391036152839661
v 0.5656854510307312 17.64405059814453 0.5656854510307312
v 0.7391036152839661 17.64405059814453 0.3061467409133911
v 0.800000011920929 17.64405059814453 4.8985870794684264e-17
v 0.7391036152839661 17.64405059814453 -0.3061467409133911
v 0.5656854510307312 17.64405059814453 -0.5656854510307312
v 0.3061467409133911 17.64405059814453 -0.7391036152839661
v 9.797174158936853e-17 17.64405059814453 -0.800000011920929
v -0.3061467409133911 17.64405059814453 -0.7391036152839661
v -0.5656854510307312 17.64405059814453 -0.5656854510307312
v -0.7391036152839661 17.64405059814453 -0.3061467409133911
v -0.800000011920929 17.64405059814453 -1.4695762231022014e-16
v -0.7391036152839661 17.64405059814453 0.3061467409133911
v -0.5656854510307312 17.64405059814453 0.5656854510307312
v -0.3061467409133911 17.64405059814453 0.7391036152839661
v -1.9594348317873706e-16 17.64405059814453 0.800000011920929
v 0 -17.64405059814453 0.800000011920929
v 0.3061467409133911 -17.64405059814453 0.7391036152839661
v 0.5656854510307312 -17.64405059814453 0.5656854510307312
v 0.7391036152839661 -17.64405059814453 0.3061467409133911
v 0.800000011920929 -17.64405059814453 4.8985870794684264e-17
v 0.7391036152839661 -17.64405059814453 -0.3061467409133911
v 0.5656854510307312 -17.64405059814453 -0.5656854510307312
v 0.3061467409133911 -17.64405059814453 -0.7391036152839661
v 9.797174158936853e-17 -17.64405059814453 -0.800000011920929
v -0.3061467409133911 -17.64405059814453 -0.7391036152839661
v -0.5656854510307312 -17.64405059814453 -0.5656854510307312
v -0.7391036152839661 -17.64405059814453 -0.3061467409133911
v -0.800000011920929 -17.64405059814453 -1.4695762231022014e-16
v -0.7391036152839661 -17.64405059814453 0.3061467409133911
v -0.5656854510307312 -17.64405059814453 0.5656854510307312
v -0.3061467409133911 -17.64405059814453 0.7391036152839661
v -1.9594348317873706e-16 -17.64405059814453 0.800000011920929
v 0 17.64405059814453 0
v 0 17.64405059814453 0
v 0 17.64405059814453 0
v 0 17.64405059814453 0
v 0 17.64405059814453 0
v 0 17.64405059814453 0
v 0 17.64405059814453 0
v 0 17.64405059814453 0
v 0 17.64405059814453 0
v 0 17.64405059814453 0
v 0 17.64405059814453 0
v 0 17.64405059814453 0
v 0 17.64405059814453 0
v 0 17.64405059814453 0
v 0 17.64405059814453 0
v 0 17.64405059814453 0
v 0 17.64405059814453 0.800000011920929
v 0.3061467409133911 17.64405059814453 0.7391036152839661
v 0.5656854510307312 17.64405059814453 0.5656854510307312
v 0.7391036152839661 17.64405059814453 0.3061467409133911
v 0.800000011920929 17.64405059814453 4.8985870794684264e-17
v 0.7391036152839661 17.64405059814453 -0.3061467409133911
v 0.5656854510307312 17.64405059814453 -0.5656854510307312
v 0.3061467409133911 17.64405059814453 -0.7391036152839661
v 9.797174158936853e-17 17.64405059814453 -0.800000011920929
v -0.3061467409133911 17.64405059814453 -0.7391036152839661
v -0.5656854510307312 17.64405059814453 -0.5656854510307312
v -0.7391036152839661 17.64405059814453 -0.3061467409133911
v -0.800000011920929 17.64405059814453 -1.4695762231022014e-16
v -0.7391036152839661 17.64405059814453 0.3061467409133911
v -0.5656854510307312 17.64405059814453 0.5656854510307312
v -0.3061467409133911 17.64405059814453 0.7391036152839661
v -1.9594348317873706e-16 17.64405059814453 0.800000011920929
v 0 -17.64405059814453 0
v 0 -17.64405059814453 0
v 0 -17.64405059814453 0
v 0 -17.64405059814453 0
v 0 -17.64405059814453 0
v 0 -17.64405059814453 0
v 0 -17.64405059814453 0
v 0 -17.64405059814453 0
v 0 -17.64405059814453 0
v 0 -17.64405059814453 0
v 0 -17.64405059814453 0
v 0 -17.64405059814453 0
v 0 -17.64405059814453 0
v 0 -17.64405059814453 0
v 0 -17.64405059814453 0
v 0 -17.64405059814453 0
v 0 -17.64405059814453 0.800000011920929
v 0.3061467409133911 -17.64405059814453 0.7391036152839661
v 0.5656854510307312 -17.64405059814453 0.5656854510307312
v 0.7391036152839661 -17.64405059814453 0.3061467409133911
v 0.800000011920929 -17.64405059814453 4.8985870794684264e-17
v 0.7391036152839661 -17.64405059814453 -0.3061467409133911
v 0.5656854510307312 -17.64405059814453 -0.5656854510307312
v 0.3061467409133911 -17.64405059814453 -0.7391036152839661
v 9.797174158936853e-17 -17.64405059814453 -0.800000011920929
v -0.3061467409133911 -17.64405059814453 -0.7391036152839661
v -0.5656854510307312 -17.64405059814453 -0.5656854510307312
v -0.7391036152839661 -17.64405059814453 -0.3061467409133911
v -0.800000011920929 -17.64405059814453 -1.4695762231022014e-16
v -0.7391036152839661 -17.64405059814453 0.3061467409133911
v -0.5656854510307312 -17.64405059814453 0.5656854510307312
v -0.3061467409133911 -17.64405059814453 0.7391036152839661
v -1.9594348317873706e-16 -17.64405059814453 0.800000011920929
f 325 342 326
f 342 343 326
f 326 343 327
f 343 344 327
f 327 344 328
f 344 345 328
f 328 345 329
f 345 346 329
f 329 346 330
f 346 347 330
f 330 347 331
f 347 348 331
f 331 348 332
f 348 349 332
f 332 349 333
f 349 350 333
f 333 350 334
f 350 351 334
f 334 351 335
f 351 352 335
f 335 352 336
f 352 353 336
f 336 353 337
f 353 354 337
f 337 354 338
f 354 355 338
f 338 355 339
f 355 356 339
f 339 356 340
f 356 357 340
f 340 357 341
f 357 358 341
f 375 376 359
f 376 377 360
f 377 378 361
f 378 379 362
f 379 380 363
f 380 381 364
f 381 382 365
f 382 383 366
f 383 384 367
f 384 385 368
f 385 386 369
f 386 387 370
f 387 388 371
f 388 389 372
f 389 390 373
f 390 391 374
f 409 408 392
f 410 409 393
f 411 410 394
f 412 411 395
f 413 412 396
f 414 413 397
f 415 414 398
f 416 415 399
f 417 416 400
f 418 417 401
f 419 418 402
f 420 419 403
f 421 420 404
f 422 421 405
f 423 422 406
f 424 423 407
v 0 3.5227272510528564 0.6000000238418579
v 0.22961005568504333 3.5227272510528564 0.5543277263641357
v 0.4242640733718872 3.5227272510528564 0.4242640733718872
v 0.5543277263641357 3.5227272510528564 0.22961005568504333
v 0.6000000238418579 3.5227272510528564 3.6739405577555036e-17
v 0.5543277263641357 3.5227272510528564 -0.22961005568504333
v 0.4242640733718872 3.5227272510528564 -0.4242640733718872
v 0.22961005568504333 3.5227272510528564 -0.5543277263641357
v 7.347881115511007e-17 3.5227272510528564 -0.6000000238418579
v -0.22961005568504333 3.5227272510528564 -0.5543277263641357
v -0.4242640733718872 3.5227272510528564 -0.4242640733718872
v -0.5543277263641357 3.5227272510528564 -0.22961005568504333
v -0.6000000238418579 3.5227272510528564 -1.1021821011522021e-16
v -0.5543277263641357 3.5227272510528564 0.22961005568504333
v -0.4242640733718872 3.5227272510528564 0.4242640733718872
v -0.22961005568504333 3.5227272510528564 0.5543277263641357
v -1.4695762231022014e-16 3.5227272510528564 0.6000000238418579
v 0 -3.5227272510528564 0.6000000238418579
v 0.22961005568504333 -3.5227272510528564 0.5543277263641357
v 0.4242640733718872 -3.5227272510528564 0.4242640733718872
v 0.5543277263641357 -3.5227272510528564 0.22961005568504333
v 0.6000000238418579 -3.5227272510528564 3.6739405577555036e-17
v 0.5543277263641357 -3.5227272510528564 -0.22961005568504333
v 0.4242640733718872 -3.5227272510528564 -0.4242640733718872
v 0.22961005568504333 -3.5227272510528564 -0.5543277263641357
v 7.347881115511007e-17 -3.5227272510528564 -0.6000000238418579
v -0.22961005568504333 -3.5227272510528564 -0.5543277263641357
v -0.4242640733718872 -3.5227272510528564 -0.4242640733718872
v -0.5543277263641357 -3.5227272510528564 -0.22961005568504333
v -0.6000000238418579 -3.5227272510528564 -1.1021821011522021e-16
v -0.5543277263641357 -3.5227272510528564 0.22961005568504333
v -0.4242640733718872 -3.5227272510528564 0.4242640733718872
v -0.22961005568504333 -3.5227272510528564 0.5543277263641357
v -1.4695762231022014e-16 -3.5227272510528564 0.6000000238418579
v 0 3.5227272510528564 0
v 0 3.5227272510528564 0
v 0 3.5227272510528564 0
v 0 3.5227272510528564 0
v 0 3.5227272510528564 0
v 0 3.5227272510528564 0
v 0 3.5227272510528564 0
v 0 3.5227272510528564 0
v 0 3.5227272510528564 0
v 0 3.5227272510528564 0
v 0 3.5227272510528564 0
v 0 3.5227272510528564 0
v 0 3.5227272510528564 0
v 0 3.5227272510528564 0
v 0 3.5227272510528564 0
v 0 3.5227272510528564 0
v 0 3.5227272510528564 0.6000000238418579
v 0.22961005568504333 3.5227272510528564 0.5543277263641357
v 0.4242640733718872 3.5227272510528564 0.4242640733718872
v 0.5543277263641357 3.5227272510528564 0.22961005568504333
v 0.6000000238418579 3.5227272510528564 3.6739405577555036e-17
v 0.5543277263641357 3.5227272510528564 -0.22961005568504333
v 0.4242640733718872 3.5227272510528564 -0.4242640733718872
v 0.22961005568504333 3.5227272510528564 -0.5543277263641357
v 7.347881115511007e-17 3.5227272510528564 -0.6000000238418579
v -0.22961005568504333 3.5227272510528564 -0.5543277263641357
v -0.4242640733718872 3.5227272510528564 -0.4242640733718872
v -0.5543277263641357 3.5227272510528564 -0.22961005568504333
v -0.6000000238418579 3.5227272510528564 -1.1021821011522021e-16
v -0.5543277263641357 3.5227272510528564 0.22961005568504333
v -0.4242640733718872 3.5227272510528564 0.4242640733718872
v -0.22961005568504333 3.5227272510528564 0.5543277263641357
v -1.4695762231022014e-16 3.5227272510528564 0.6000000238418579
v 0 -3.5227272510528564 0
v 0 -3.5227272510528564 0
v 0 -3.5227272510528564 0
v 0 -3.5227272510528564 0
v 0 -3.5227272510528564 0
v 0 -3.5227272510528564 0
v 0 -3.5227272510528564 0
v 0 -3.5227272510528564 0
v 0 -3.5227272510528564 0
v 0 -3.5227272510528564 0
v 0 -3.5227272510528564 0
v 0 -3.5227272510528564 0
v 0 -3.5227272510528564 0
v 0 -3.5227272510528564 0
v 0 -3.5227272510528564 0
v 0 -3.5227272510528564 0
v 0 -3.5227272510528564 0.6000000238418579
v 0.22961005568504333 -3.5227272510528564 0.5543277263641357
v 0.4242640733718872 -3.5227272510528564 0.4242640733718872
v 0.5543277263641357 -3.5227272510528564 0.22961005568504333
v 0.6000000238418579 -3.5227272510528564 3.6739405577555036e-17
v 0.5543277263641357 -3.5227272510528564 -0.22961005568504333
v 0.4242640733718872 -3.5227272510528564 -0.4242640733718872
v 0.22961005568504333 -3.5227272510528564 -0.5543277263641357
v 7.347881115511007e-17 -3.5227272510528564 -0.6000000238418579
v -0.22961005568504333 -3.5227272510528564 -0.5543277263641357
v -0.4242640733718872 -3.5227272510528564 -0.4242640733718872
v -0.5543277263641357 -3.5227272510528564 -0.22961005568504333
v -0.6000000238418579 -3.5227272510528564 -1.1021821011522021e-16
v -0.5543277263641357 -3.5227272510528564 0.22961005568504333
v -0.4242640733718872 -3.5227272510528564 0.4242640733718872
v -0.22961005568504333 -3.5227272510528564 0.5543277263641357
v -1.4695762231022014e-16 -3.5227272510528564 0.6000000238418579
f 425 442 426
f 442 443 426
f 426 443 427
f 443 444 427
f 427 444 428
f 444 445 428
f 428 445 429
f 445 446 429
f 429 446 430
f 446 447 430
f 430 447 431
f 447 448 431
f 431 448 432
f 448 449 432
f 432 449 433
f 449 450 433
f 433 450 434
f 450 451 434
f 434 451 435
f 451 452 435
f 435 452 436
f 452 453 436
f 436 453 437
f 453 454 437
f 437 454 438
f 454 455 438
f 438 455 439
f 455 456 439
f 439 456 440
f 456 457 440
f 440 457 441
f 457 458 441
f 475 476 459
f 476 477 460
f 477 478 461
f 478 479 462
f 479 480 463
f 480 481 464
f 481 482 465
f 482 483 466
f 483 484 467
f 484 485 468
f 485 486 469
f 486 487 470
f 487 488 471
f 488 489 472
f 489 490 473
f 490 491 474
f 509 508 492
f 510 509 493
f 511 510 494
f 512 511 495
f 513 512 496
f 514 513 497
f 515 514 498
f 516 515 499
f 517 516 500
f 518 517 501
f 519 518 502
f 520 519 503
f 521 520 504
f 522 521 505
f 523 522 506
f 524 523 507
v 0 3.5227272510528564 0.6000000238418579
v 0.22961005568504333 3.5227272510528564 0.5543277263641357
v 0.4242640733718872 3.5227272510528564 0.4242640733718872
v 0.5543277263641357 3.5227272510528564 0.22961005568504333
v 0.6000000238418579 3.5227272510528564 3.6739405577555036e-17
v 0.5543277263641357 3.5227272510528564 -0.22961005568504333
v 0.4242640733718872 3.5227272510528564 -0.4242640733718872
v 0.22961005568504333 3.5227272510528564 -0.5543277263641357
v 7.347881115511007e-17 3.5227272510528564 -0.6000000238418579
v -0.22961005568504333 3.5227272510528564 -0.5543277263641357
v -0.4242640733718872 3.5227272510528564 -0.4242640733718872
v -0.5543277263641357 3.5227272510528564 -0.22961005568504333
v -0.6000000238418579 3.5227272510528564 -1.1021821011522021e-16
v -0.5543277263641357 3.5227272510528564 0.22961005568504333
v -0.4242640733718872 3.5227272510528564 0.4242640733718872
v -0.22961005568504333 3.5227272510528564 0.5543277263641357
v -1.4695762231022014e-16 3.5227272510528564 0.6000000238418579
v 0 -3.5227272510528564 0.6000000238418579
v 0.22961005568504333 -3.5227272510528564 0.5543277263641357
v 0.4242640733718872 -3.5227272510528564 0.4242640733718872
v 0.5543277263641357 -3.5227272510528564 0.22961005568504333
v 0.6000000238418579 -3.5227272510528564 3.6739405577555036e-17
v 0.5543277263641357 -3.5227272510528564 -0.22961005568504333
v 0.4242640733718872 -3.5227272510528564 -0.4242640733718872
v 0.22961005568504333 -3.5227272510528564 -0.5543277263641357
v 7.347881115511007e-17 -3.5227272510528564 -0.6000000238418579
v -0.22961005568504333 -3.5227272510528564 -0.5543277263641357
v -0.4242640733718872 -3.5227272510528564 -0.4242640733718872
v -0.5543277263641357 -3.5227272510528564 -0.22961005568504333
v -0.6000000238418579 -3.5227272510528564 -1.1021821011522021e-16
v -0.5543277263641357 -3.5227272510528564 0.22961005568504333
v -0.4242640733718872 -3.5227272510528564 0.4242640733718872
v -0.22961005568504333 -3.5227272510528564 0.5543277263641357
v -1.4695762231022014e-16 -3.5227272510528564 0.6000000238418579
v 0 3.5227272510528564 0
v 0 3.5227272510528564 0
v 0 3.5227272510528564 0
v 0 3.5227272510528564 0
v 0 3.5227272510528564 0
v 0 3.5227272510528564 0
v 0 3.5227272510528564 0
v 0 3.5227272510528564 0
v 0 3.5227272510528564 0
v 0 3.5227272510528564 0
v 0 3.5227272510528564 0
v 0 3.5227272510528564 0
v 0 3.5227272510528564 0
v 0 3.5227272510528564 0
v 0 3.5227272510528564 0
v 0 3.5227272510528564 0
v 0 3.5227272510528564 0.6000000238418579
v 0.22961005568504333 3.5227272510528564 0.5543277263641357
v 0.4242640733718872 3.5227272510528564 0.4242640733718872
v 0.5543277263641357 3.5227272510528564 0.22961005568504333
v 0.6000000238418579 3.5227272510528564 3.6739405577555036e-17
v 0.5543277263641357 3.5227272510528564 -0.22961005568504333
v 0.4242640733718872 3.5227272510528564 -0.4242640733718872
v 0.22961005568504333 3.5227272510528564 -0.5543277263641357
v 7.347881115511007e-17 3.5227272510528564 -0.6000000238418579
v -0.22961005568504333 3.5227272510528564 -0.5543277263641357
v -0.4242640733718872 3.5227272510528564 -0.4242640733718872
v -0.5543277263641357 3.5227272510528564 -0.22961005568504333
v -0.6000000238418579 3.5227272510528564 -1.1021821011522021e-16
v -0.5543277263641357 3.5227272510528564 0.22961005568504333
v -0.4242640733718872 3.5227272510528564 0.4242640733718872
v -0.22961005568504333 3.5227272510528564 0.5543277263641357
v -1.4695762231022014e-16 3.5227272510528564 0.6000000238418579
v 0 -3.5227272510528564 0
v 0 -3.5227272510528564 0
v 0 -3.5227272510528564 0
v 0 -3.5227272510528564 0
v 0 -3.5227272510528564 0
v 0 -3.5227272510528564 0
v 0 -3.5227272510528564 0
v 0 -3.5227272510528564 0
v 0 -3.5227272510528564 0
v 0 -3.5227272510528564 0
v 0 -3.5227272510528564 0
v 0 -3.5227272510528564 0
v 0 -3.5227272510528564 0
v 0 -3.5227272510528564 0
v 0 -3.5227272510528564 0
v 0 -3.5227272510528564 0
v 0 -3.5227272510528564 0.6000000238418579
v 0.22961005568504333 -3.5227272510528564 0.5543277263641357
v 0.4242640733718872 -3.5227272510528564 0.4242640733718872
v 0.5543277263641357 -3.5227272510528564 0.22961005568504333
v 0.6000000238418579 -3.5227272510528564 3.6739405577555036e-17
v 0.5543277263641357 -3.5227272510528564 -0.22961005568504333
v 0.4242640733718872 -3.5227272510528564 -0.4242640733718872
v 0.22961005568504333 -3.5227272510528564 -0.5543277263641357
v 7.347881115511007e-17 -3.5227272510528564 -0.6000000238418579
v -0.22961005568504333 -3.5227272510528564 -0.5543277263641357
v -0.4242640733718872 -3.5227272510528564 -0.4242640733718872
v -0.5543277263641357 -3.5227272510528564 -0.22961005568504333
v -0.6000000238418579 -3.5227272510528564 -1.1021821011522021e-16
v -0.5543277263641357 -3.5227272510528564 0.22961005568504333
v -0.4242640733718872 -3.5227272510528564 0.4242640733718872
v -0.22961005568504333 -3.5227272510528564 0.5543277263641357
v -1.4695762231022014e-16 -3.5227272510528564 0.6000000238418579
f 525 542 526
f 542 543 526
f 526 543 527
f 543 544 527
f 527 544 528
f 544 545 528
f 528 545 529
f 545 546 529
f 529 546 530
f 546 547 530
f 530 547 531
f 547 548 531
f 531 548 532
f 548 549 532
f 532 549 533
f 549 550 533
f 533 550 534
f 550 551 534
f 534 551 535
f 551 552 535
f 535 552 536
f 552 553 536
f 536 553 537
f 553 554 537
f 537 554 538
f 554 555 538
f 538 555 539
f 555 556 539
f 539 556 540
f 556 557 540
f 540 557 541
f 557 558 541
f 575 576 559
f 576 577 560
f 577 578 561
f 578 579 562
f 579 580 563
f 580 581 564
f 581 582 565
f 582 583 566
f 583 584 567
f 584 585 568
f 585 586 569
f 586 587 570
f 587 588 571
f 588 589 572
f 589 590 573
f 590 591 574
f 609 608 592
f 610 609 593
f 611 610 594
f 612 611 595
f 613 612 596
f 614 613 597
f 615 614 598
f 616 615 599
f 617 616 600
f 618 617 601
f 619 618 602
f 620 619 603
f 621 620 604
f 622 621 605
f 623 622 606
f 624 623 607
v 0 7.196969509124756 0.6000000238418579
v 0.22961005568504333 7.196969509124756 0.5543277263641357
v 0.4242640733718872 7.196969509124756 0.4242640733718872
v 0.5543277263641357 7.196969509124756 0.22961005568504333
v 0.6000000238418579 7.196969509124756 3.6739405577555036e-17
v 0.5543277263641357 7.196969509124756 -0.22961005568504333
v 0.4242640733718872 7.196969509124756 -0.4242640733718872
v 0.22961005568504333 7.196969509124756 -0.5543277263641357
v 7.347881115511007e-17 7.196969509124756 -0.6000000238418579
v -0.22961005568504333 7.196969509124756 -0.5543277263641357
v -0.4242640733718872 7.196969509124756 -0.4242640733718872
v -0.5543277263641357 7.196969509124756 -0.22961005568504333
v -0.6000000238418579 7.196969509124756 -1.1021821011522021e-16
v -0.5543277263641357 7.196969509124756 0.22961005568504333
v -0.4242640733718872 7.196969509124756 0.4242640733718872
v -0.22961005568504333 7.196969509124756 0.5543277263641357
v -1.4695762231022014e-16 7.196969509124756 0.6000000238418579
v 0 -7.196969509124756 0.6000000238418579
v 0.22961005568504333 -7.196969509124756 0.5543277263641357
v 0.4242640733718872 -7.196969509124756 0.4242640733718872
v 0.5543277263641357 -7.196969509124756 0.22961005568504333
v 0.6000000238418579 -7.196969509124756 3.6739405577555036e-17
v 0.5543277263641357 -7.196969509124756 -0.22961005568504333
v 0.4242640733718872 -7.196969509124756 -0.4242640733718872
v 0.22961005568504333 -7.196969509124756 -0.5543277263641357
v 7.347881115511007e-17 -7.196969509124756 -0.6000000238418579
v -0.22961005568504333 -7.196969509124756 -0.5543277263641357
v -0.4242640733718872 -7.196969509124756 -0.4242640733718872
v -0.5543277263641357 -7.196969509124756 -0.22961005568504333
v -0.6000000238418579 -7.196969509124756 -1.1021821011522021e-16
v -0.5543277263641357 -7.196969509124756 0.22961005568504333
v -0.4242640733718872 -7.196969509124756 0.4242640733718872
v -0.22961005568504333 -7.196969509124756 0.5543277263641357
v -1.4695762231022014e-16 -7.196969509124756 0.6000000238418579
v 0 7.196969509124756 0
v 0 7.196969509124756 0
v 0 7.196969509124756 0
v 0 7.196969509124756 0
v 0 7.196969509124756 0
v 0 7.196969509124756 0
v 0 7.196969509124756 0
v 0 7.196969509124756 0
v 0 7.196969509124756 0
v 0 7.196969509124756 0
v 0 7.196969509124756 0
v 0 7.196969509124756 0
v 0 7.196969509124756 0
v 0 7.196969509124756 0
v 0 7.196969509124756 0
v 0 7.196969509124756 0
v 0 7.196969509124756 0.6000000238418579
v 0.22961005568504333 7.196969509124756 0.5543277263641357
v 0.4242640733718872 7.196969509124756 0.4242640733718872
v 0.5543277263641357 7.196969509124756 0.22961005568504333
v 0.6000000238418579 7.196969509124756 3.6739405577555036e-17
v 0.5543277263641357 7.196969509124756 -0.22961005568504333
v 0.4242640733718872 7.196969509124756 -0.4242640733718872
v 0.22961005568504333 7.196969509124756 -0.5543277263641357
v 7.347881115511007e-17 7.196969509124756 -0.6000000238418579
v -0.22961005568504333 7.196969509124756 -0.5543277263641357
v -0.4242640733718872 7.196969509124756 -0.4242640733718872
v -0.5543277263641357 7.196969509124756 -0.22961005568504333
v -0.6000000238418579 7.196969509124756 -1.1021821011522021e-16
v -0.5543277263641357 7.196969509124756 0.22961005568504333
v -0.4242640733718872 7.196969509124756 0.4242640733718872
v -0.22961005568504333 7.196969509124756 0.5543277263641357
v -1.4695762231022014e-16 7.196969509124756 0.6000000238418579
v 0 -7.196969509124756 0
v 0 -7.196969509124756 0
v 0 -7.196969509124756 0
v 0 -7.196969509124756 0
v 0 -7.196969509124756 0
v 0 -7.196969509124756 0
v 0 -7.196969509124756 0
v 0 -7.196969509124756 0
v 0 -7.196969509124756 0
v 0 -7.196969509124756 0
v 0 -7.196969509124756 0
v 0 -7.196969509124756 0
v 0 -7.196969509124756 0
v 0 -7.196969509124756 0
v 0 -7.196969509124756 0
v 0 -7.196969509124756 0
v 0 -7.196969509124756 0.6000000238418579
v 0.22961005568504333 -7.196969509124756 0.5543277263641357
v 0.4242640733718872 -7.196969509124756 0.4242640733718872
v 0.5543277263641357 -7.196969509124756 0.22961005568504333
v 0.6000000238418579 -7.196969509124756 3.6739405577555036e-17
v 0.5543277263641357 -7.196969509124756 -0.22961005568504333
v 0.4242640733718872 -7.196969509124756 -0.4242640733718872
v 0.22961005568504333 -7.196969509124756 -0.5543277263641357
v 7.347881115511007e-17 -7.196969509124756 -0.6000000238418579
v -0.22961005568504333 -7.196969509124756 -0.5543277263641357
v -0.4242640733718872 -7.196969509124756 -0.4242640733718872
v -0.5543277263641357 -7.196969509124756 -0.22961005568504333
v -0.6000000238418579 -7.196969509124756 -1.1021821011522021e-16
v -0.5543277263641357 -7.196969509124756 0.22961005568504333
v -0.4242640733718872 -7.196969509124756 0.4242640733718872
v -0.22961005568504333 -7.196969509124756 0.5543277263641357
v -1.4695762231022014e-16 -7.196969509124756 0.6000000238418579
f 625 642 626
f 642 643 626
f 626 643 627
f 643 644 627
f 627 644 628
f 644 645 628
f 628 645 629
f 645 646 629
f 629 646 630
f 646 647 630
f 630 647 631
f 647 648 631
f 631 648 632
f 648 649 632
f 632 649 633
f 649 650 633
f 633 650 634
f 650 651 634
f 634 651 635
f 651 652 635
f 635 652 636
f 652 653 636
f 636 653 637
f 653 654 637
f 637 654 638
f 654 655 638
f 638 655 639
f 655 656 639
f 639 656 640
f 656 657 640
f 640 657 641
f 657 658 641
f 675 676 659
f 676 677 660
f 677 678 661
f 678 679 662
f 679 680 663
f 680 681 664
f 681 682 665
f 682 683 666
f 683 684 667
f 684 685 668
f 685 686 669
f 686 687 670
f 687 688 671
f 688 689 672
f 689 690 673
f 690 691 674
f 709 708 692
f 710 709 693
f 711 710 694
f 712 711 695
f 713 712 696
f 714 713 697
f 715 714 698
f 716 715 699
f 717 716 700
f 718 717 701
f 719 718 702
f 720 719 703
f 721 720 704
f 722 721 705
f 723 722 706
f 724 723 707
v 0 7.196969509124756 0.6000000238418579
v 0.22961005568504333 7.196969509124756 0.5543277263641357
v 0.4242640733718872 7.196969509124756 0.4242640733718872
v 0.5543277263641357 7.196969509124756 0.22961005568504333
v 0.6000000238418579 7.196969509124756 3.6739405577555036e-17
v 0.5543277263641357 7.196969509124756 -0.22961005568504333
v 0.4242640733718872 7.196969509124756 -0.4242640733718872
v 0.22961005568504333 7.196969509124756 -0.5543277263641357
v 7.347881115511007e-17 7.196969509124756 -0.6000000238418579
v -0.22961005568504333 7.196969509124756 -0.5543277263641357
v -0.4242640733718872 7.196969509124756 -0.4242640733718872
v -0.5543277263641357 7.196969509124756 -0.22961005568504333
v -0.6000000238418579 7.196969509124756 -1.1021821011522021e-16
v -0.5543277263641357 7.196969509124756 0.22961005568504333
v -0.4242640733718872 7.196969509124756 0.4242640733718872
v -0.22961005568504333 7.196969509124756 0.5543277263641357
v -1.4695762231022014e-16 7.196969509124756 0.6000000238418579
v 0 -7.196969509124756 0.6000000238418579
v 0.22961005568504333 -7.196969509124756 0.5543277263641357
v 0.4242640733718872 -7.196969509124756 0.4242640733718872
v 0.5543277263641357 -7.196969509124756 0.22961005568504333
v 0.6000000238418579 -7.196969509124756 3.6739405577555036e-17
v 0.5543277263641357 -7.196969509124756 -0.22961005568504333
v 0.4242640733718872 -7.196969509124756 -0.4242640733718872
v 0.22961005568504333 -7.196969509124756 -0.5543277263641357
v 7.347881115511007e-17 -7.196969509124756 -0.6000000238418579
v -0.22961005568504333 -7.196969509124756 -0.5543277263641357
v -0.4242640733718872 -7.196969509124756 -0.4242640733718872
v -0.5543277263641357 -7.196969509124756 -0.22961005568504333
v -0.6000000238418579 -7.196969509124756 -1.1021821011522021e-16
v -0.5543277263641357 -7.196969509124756 0.22961005568504333
v -0.4242640733718872 -7.196969509124756 0.4242640733718872
v -0.22961005568504333 -7.196969509124756 0.5543277263641357
v -1.4695762231022014e-16 -7.196969509124756 0.6000000238418579
v 0 7.196969509124756 0
v 0 7.196969509124756 0
v 0 7.196969509124756 0
v 0 7.196969509124756 0
v 0 7.196969509124756 0
v 0 7.196969509124756 0
v 0 7.196969509124756 0
v 0 7.196969509124756 0
v 0 7.196969509124756 0
v 0 7.196969509124756 0
v 0 7.196969509124756 0
v 0 7.196969509124756 0
v 0 7.196969509124756 0
v 0 7.196969509124756 0
v 0 7.196969509124756 0
v 0 7.196969509124756 0
v 0 7.196969509124756 0.6000000238418579
v 0.22961005568504333 7.196969509124756 0.5543277263641357
v 0.4242640733718872 7.196969509124756 0.4242640733718872
v 0.5543277263641357 7.196969509124756 0.22961005568504333
v 0.6000000238418579 7.196969509124756 3.6739405577555036e-17
v 0.5543277263641357 7.196969509124756 -0.22961005568504333
v 0.4242640733718872 7.196969509124756 -0.4242640733718872
v 0.22961005568504333 7.196969509124756 -0.5543277263641357
v 7.347881115511007e-17 7.196969509124756 -0.6000000238418579
v -0.22961005568504333 7.196969509124756 -0.5543277263641357
v -0.4242640733718872 7.196969509124756 -0.4242640733718872
v -0.5543277263641357 7.196969509124756 -0.22961005568504333
v -0.6000000238418579 7.196969509124756 -1.1021821011522021e-16
v -0.5543277263641357 7.196969509124756 0.22961005568504333
v -0.4242640733718872 7.196969509124756 0.4242640733718872
v -0.22961005568504333 7.196969509124756 0.5543277263641357
v -1.4695762231022014e-16 7.196969509124756 0.6000000238418579
v 0 -7.196969509124756 0
v 0 -7.196969509124756 0
v 0 -7.196969509124756 0
v 0 -7.196969509124756 0
v 0 -7.196969509124756 0
v 0 -7.196969509124756 0
v 0 -7.196969509124756 0
v 0 -7.196969509124756 0
v 0 -7.196969509124756 0
v 0 -7.196969509124756 0
v 0 -7.196969509124756 0
v 0 -7.196969509124756 0
v 0 -7.196969509124756 0
v 0 -7.196969509124756 0
v 0 -7.196969509124756 0
v 0 -7.196969509124756 0
v 0 -7.196969509124756 0.6000000238418579
v 0.22961005568504333 -7.196969509124756 0.5543277263641357
v 0.4242640733718872 -7.196969509124756 0.4242640733718872
v 0.5543277263641357 -7.196969509124756 0.22961005568504333
v 0.6000000238418579 -7.196969509124756 3.6739405577555036e-17
v 0.5543277263641357 -7.196969509124756 -0.22961005568504333
v 0.4242640733718872 -7.196969509124756 -0.4242640733718872
v 0.22961005568504333 -7.196969509124756 -0.5543277263641357
v 7.347881115511007e-17 -7.196969509124756 -0.6000000238418579
v -0.22961005568504333 -7.196969509124756 -0.5543277263641357
v -0.4242640733718872 -7.196969509124756 -0.4242640733718872
v -0.5543277263641357 -7.196969509124756 -0.22961005568504333
v -0.6000000238418579 -7.196969509124756 -1.1021821011522021e-16
v -0.5543277263641357 -7.196969509124756 0.22961005568504333
v -0.4242640733718872 -7.196969509124756 0.4242640733718872
v -0.22961005568504333 -7.196969509124756 0.5543277263641357
v -1.4695762231022014e-16 -7.196969509124756 0.6000000238418579
f 725 742 726
f 742 743 726
f 726 743 727
f 743 744 727
f 727 744 728
f 744 745 728
f 728 745 729
f 745 746 729
f 729 746 730
f 746 747 730
f 730 747 731
f 747 748 731
f 731 748 732
f 748 749 732
f 732 749 733
f 749 750 733
f 733 750 734
f 750 751 734
f 734 751 735
f 751 752 735
f 735 752 736
f 752 753 736
f 736 753 737
f 753 754 737
f 737 754 738
f 754 755 738
f 738 755 739
f 755 756 739
f 739 756 740
f 756 757 740
f 740 757 741
f 757 758 741
f 775 776 759
f 776 777 760
f 777 778 761
f 778 779 762
f 779 780 763
f 780 781 764
f 781 782 765
f 782 783 766
f 783 784 767
f 784 785 768
f 785 786 769
f 786 787 770
f 787 788 771
f 788 789 772
f 789 790 773
f 790 791 774
f 809 808 792
f 810 809 793
f 811 810 794
f 812 811 795
f 813 812 796
f 814 813 797
f 815 814 798
f 816 815 799
f 817 816 800
f 818 817 801
f 819 818 802
f 820 819 803
f 821 820 804
f 822 821 805
f 823 822 806
f 824 823 807
v 3.75 1 3.5
v 3.75 1 -3.5
v 3.75 -1 3.5
v 3.75 -1 -3.5
v -3.75 1 -3.5
v -3.75 1 3.5
v -3.75 -1 -3.5
v -3.75 -1 3.5
v -3.75 1 -3.5
v 3.75 1 -3.5
v -3.75 1 3.5
v 3.75 1 3.5
v -3.75 -1 3.5
v 3.75 -1 3.5
v -3.75 -1 -3.5
v 3.75 -1 -3.5
v -3.75 1 3.5
v 3.75 1 3.5
v -3.75 -1 3.5
v 3.75 -1 3.5
v 3.75 1 -3.5
v -3.75 1 -3.5
v 3.75 -1 -3.5
v -3.75 -1 -3.5
f 825 827 826
f 827 828 826
f 829 831 830
f 831 832 830
f 833 835 834
f 835 836 834
f 837 839 838
f 839 840 838
f 841 843 842
f 843 844 842
f 845 847 846
f 847 848 846
