o 
v -1.0044502019882202 46.29582977294922 27.793041229248047
v -0.9276362657546997 46.30733871459961 27.785503387451172
v -0.8618389964103699 46.34520721435547 27.76744270324707
v -0.8170754909515381 46.4036750793457 27.741609573364258
v -0.8001605272293091 46.473838806152344 27.71193504333496
v -0.8136693835258484 46.54501724243164 27.682939529418945
v -0.8555453419685364 46.60637664794922 27.65903663635254
v -0.9194132685661316 46.6485710144043 27.643863677978516
v -0.995549738407135 46.66517639160156 27.639732360839844
v -1.0723637342453003 46.65366744995117 27.64727020263672
v -1.138161063194275 46.61579895019531 27.66533088684082
v -1.182924509048462 46.55733108520508 27.691164016723633
v -1.199839472770691 46.48716735839844 27.720836639404297
v -1.1863305568695068 46.41598892211914 27.749832153320312
v -1.1444545984268188 46.35462951660156 27.77373695373535
v -1.0805867910385132 46.312435150146484 27.788909912109375
v -1.0044502019882202 46.29582977294922 27.793041229248047
v -2.0044503211975098 34.81532669067383 0.07665450870990753
v -1.9276362657546997 34.82683563232422 0.06911646574735641
v -1.861838936805725 34.86470413208008 0.051056038588285446
v -1.817075490951538 34.92317199707031 0.025222742930054665
v -1.800160527229309 34.99333572387695 -0.004450521897524595
v -1.8136694431304932 35.06451416015625 -0.03344627469778061
v -1.8555454015731812 35.12587356567383 -0.05735017731785774
v -1.9194132089614868 35.16806411743164 -0.07252306491136551
v -1.9955497980117798 35.18467330932617 -0.07665502279996872
v -2.07236385345459 35.17316436767578 -0.0691169872879982
v -2.1381609439849854 35.13529586791992 -0.051056552678346634
v -2.182924509048462 35.07682800292969 -0.025223258882761
v -2.1998393535614014 35.00666427612305 0.004450006410479546
v -2.186330556869507 34.93548583984375 0.03344575688242912
v -2.1444547176361084 34.87412643432617 0.057349663227796555
v -2.0805866718292236 34.831932067871094 0.07252255082130432
v -2.0044503211975098 34.81532669067383 0.07665450870990753
v -1 46.48050308227539 27.716386795043945
v -1 46.48050308227539 27.716386795043945
v -1 46.48050308227539 27.716386795043945
v -1 46.48050308227539 27.716386795043945
v -1 46.48050308227539 27.716386795043945
v -1 46.48050308227539 27.716386795043945
v -1 46.48050308227539 27.716386795043945
v -1 46.48050308227539 27.716386795043945
v -1 46.48050308227539 27.716386795043945
v -1 46.48050308227539 27.716386795043945
v -1 46.48050308227539 27.716386795043945
v -1 46.48050308227539 27.716386795043945
v -1 46.48050308227539 27.716386795043945
v -1 46.48050308227539 27.716386795043945
v -1 46.48050308227539 27.716386795043945
v -1 46.48050308227539 27.716386795043945
v -1.0044502019882202 46.29582977294922 27.793041229248047
v -0.9276362657546997 46.30733871459961 27.785503387451172
v -0.8618389964103699 46.34520721435547 27.76744270324707
v -0.8170754909515381 46.4036750793457 27.741609573364258
v -0.8001605272293091 46.473838806152344 27.71193504333496
v -0.8136693835258484 46.54501724243164 27.682939529418945
v -0.8555453419685364 46.60637664794922 27.65903663635254
v -0.9194132685661316 46.6485710144043 27.643863677978516
v -0.995549738407135 46.66517639160156 27.639732360839844
v -1.0723637342453003 46.65366744995117 27.64727020263672
v -1.138161063194275 46.61579895019531 27.66533088684082
v -1.182924509048462 46.55733108520508 27.691164016723633
v -1.199839472770691 46.48716735839844 27.720836639404297
v -1.1863305568695068 46.41598892211914 27.749832153320312
v -1.1444545984268188 46.35462951660156 27.77373695373535
v -1.0805867910385132 46.312435150146484 27.788909912109375
v -1.0044502019882202 46.29582977294922 27.793041229248047
v -2 35 -2.5764191491362e-7
v -2 35 -2.5764191491362e-7
v -2 35 -2.5764191491362e-7
v -2 35 -2.5764191491362e-7
v -2 35 -2.5764191491362e-7
v -2 35 -2.5764191491362e-7
v -2 35 -2.5764191491362e-7
v -2 35 -2.5764191491362e-7
v -2 35 -2.5764191491362e-7
v -2 35 -2.5764191491362e-7
v -2 35 -2.5764191491362e-7
v -2 35 -2.5764191491362e-7
v -2 35 -2.5764191491362e-7
v -2 35 -2.5764191491362e-7
v -2 35 -2.5764191491362e-7
v -2 35 -2.5764191491362e-7
v -2.0044503211975098 34.81532669067383 0.07665450870990753
v -1.9276362657546997 34.82683563232422 0.06911646574735641
v -1.861838936805725 34.86470413208008 0.051056038588285446
v -1.817075490951538 34.92317199707031 0.025222742930054665
v -1.800160527229309 34.99333572387695 -0.004450521897524595
v -1.8136694431304932 35.06451416015625 -0.03344627469778061
v -1.8555454015731812 35.12587356567383 -0.05735017731785774
v -1.9194132089614868 35.16806411743164 -0.07252306491136551
v -1.9955497980117798 35.18467330932617 -0.07665502279996872
v -2.07236385345459 35.17316436767578 -0.0691169872879982
v -2.1381609439849854 35.13529586791992 -0.051056552678346634
v -2.182924509048462 35.07682800292969 -0.025223258882761
v -2.1998393535614014 35.00666427612305 0.004450006410479546
v -2.186330556869507 34.93548583984375 0.03344575688242912
v -2.1444547176361084 34.87412643432617 0.057349663227796555
v -2.0805866718292236 34.831932067871094 0.07252255082130432
v -2.0044503211975098 34.81532669067383 0.07665450870990753
vt 0 1
vt 0.0625 1
vt 0.125 1
vt 0.1875 1
vt 0.25 1
vt 0.3125 1
vt 0.375 1
vt 0.4375 1
vt 0.5 1
vt 0.5625 1
vt 0.625 1
vt 0.6875 1
vt 0.75 1
vt 0.8125 1
vt 0.875 1
vt 0.9375 1
vt 1 1
vt 0 0
vt 0.0625 0
vt 0.125 0
vt 0.1875 0
vt 0.25 0
vt 0.3125 0
vt 0.375 0
vt 0.4375 0
vt 0.5 0
vt 0.5625 0
vt 0.625 0
vt 0.6875 0
vt 0.75 0
vt 0.8125 0
vt 0.875 0
vt 0.9375 0
vt 1 0
vt 0.5 0.5
vt 0.5 0.5
vt 0.5 0.5
vt 0.5 0.5
vt 0.5 0.5
vt 0.5 0.5
vt 0.5 0.5
vt 0.5 0.5
vt 0.5 0.5
vt 0.5 0.5
vt 0.5 0.5
vt 0.5 0.5
vt 0.5 0.5
vt 0.5 0.5
vt 0.5 0.5
vt 0.5 0.5
vt 1 0.5
vt 0.9619397521018982 0.6913416981697083
vt 0.8535534143447876 0.8535534143447876
vt 0.6913416981697083 0.9619397521018982
vt 0.5 1
vt 0.30865827202796936 0.9619397521018982
vt 0.1464466154575348 0.8535534143447876
vt 0.03806023299694061 0.6913416981697083
vt 0 0.5
vt 0.03806023299694061 0.30865827202796936
vt 0.1464466154575348 0.1464466154575348
vt 0.30865827202796936 0.03806023299694061
vt 0.5 0
vt 0.6913416981697083 0.03806023299694061
vt 0.8535534143447876 0.1464466154575348
vt 0.9619397521018982 0.30865827202796936
vt 1 0.5
vt 0.5 0.5
vt 0.5 0.5
vt 0.5 0.5
vt 0.5 0.5
vt 0.5 0.5
vt 0.5 0.5
vt 0.5 0.5
vt 0.5 0.5
vt 0.5 0.5
vt 0.5 0.5
vt 0.5 0.5
vt 0.5 0.5
vt 0.5 0.5
vt 0.5 0.5
vt 0.5 0.5
vt 0.5 0.5
vt 1 0.5
vt 0.9619397521018982 0.30865827202796936
vt 0.8535534143447876 0.1464466154575348
vt 0.6913416981697083 0.03806023299694061
vt 0.5 0
vt 0.30865827202796936 0.03806023299694061
vt 0.1464466154575348 0.1464466154575348
vt 0.03806023299694061 0.30865827202796936
vt 0 0.5
vt 0.03806023299694061 0.6913416981697083
vt 0.1464466154575348 0.8535534143447876
vt 0.30865827202796936 0.9619397521018982
vt 0.5 1
vt 0.6913416981697083 0.9619397521018982
vt 0.8535534143447876 0.8535534143447876
vt 0.9619397521018982 0.6913416981697083
vt 1 0.5
vn -0.02225131961661128 -0.923366685610039 0.3832738481567075
vn 0.36181866570569116 -0.8658286200971642 0.34558364221645954
vn 0.690805022491326 -0.6764760061884406 0.2552814798454744
vn 0.9146226105291251 -0.3841360235237153 0.12611500997215228
vn 0.9991971781471027 -0.03331483132508546 -0.022251318986707243
vn 0.9316530301002521 0.3225782539012405 -0.16723008585492485
vn 0.7222731760193473 0.6293616935096853 -0.2867495735751769
vn 0.4029337500164343 0.8403305483083657 -0.36261406850459466
vn 0.02225131961661128 0.923366685610039 -0.3832738481567075
vn -0.36181866570569116 0.8658286200971642 -0.34558364221645954
vn -0.690805022491326 0.6764760061884406 -0.2552814798454744
vn -0.9146226105291251 0.3841360235237153 -0.12611500997215228
vn -0.9991971781471027 0.03331483132508546 0.022251318986707243
vn -0.9316530301002521 -0.3225782539012405 0.16723008585492485
vn -0.7222731760193473 -0.6293616935096853 0.2867495735751769
vn -0.4029337500164343 -0.8403305483083657 0.36261406850459466
vn -0.02225131961661128 -0.923366685610039 0.3832738481567075
vn -0.02225131961661128 -0.923366685610039 0.3832738481567075
vn 0.36181866570569116 -0.8658286200971642 0.34558364221645954
vn 0.690805022491326 -0.6764760061884406 0.2552814798454744
vn 0.9146226105291251 -0.3841360235237153 0.12611500997215228
vn 0.9991971781471027 -0.03331483132508546 -0.022251318986707243
vn 0.9316530301002521 0.3225782539012405 -0.16723008585492485
vn 0.7222731760193473 0.6293616935096853 -0.2867495735751769
vn 0.4029337500164343 0.8403305483083657 -0.36261406850459466
vn 0.02225131961661128 0.923366685610039 -0.3832738481567075
vn -0.36181866570569116 0.8658286200971642 -0.34558364221645954
vn -0.690805022491326 0.6764760061884406 -0.2552814798454744
vn -0.9146226105291251 0.3841360235237153 -0.12611500997215228
vn -0.9991971781471027 0.03331483132508546 0.022251318986707243
vn -0.9316530301002521 -0.3225782539012405 0.16723008585492485
vn -0.7222731760193473 -0.6293616935096853 0.2867495735751769
vn -0.4029337500164343 -0.8403305483083657 0.36261406850459466
vn -0.02225131961661128 -0.923366685610039 0.3832738481567075
vn 0.03331483255856234 0.38247100671042555 0.9233666936583258
vn 0.03331483255856234 0.38247100671042555 0.9233666936583258
vn 0.03331483255856234 0.38247100671042555 0.9233666936583258
vn 0.03331483255856234 0.38247100671042555 0.9233666936583258
vn 0.03331483255856234 0.38247100671042555 0.9233666936583258
vn 0.03331483255856234 0.38247100671042555 0.9233666936583258
vn 0.03331483255856234 0.38247100671042555 0.9233666936583258
vn 0.03331483255856234 0.38247100671042555 0.9233666936583258
vn 0.03331483255856234 0.38247100671042555 0.9233666936583258
vn 0.03331483255856234 0.38247100671042555 0.9233666936583258
vn 0.03331483255856234 0.38247100671042555 0.9233666936583258
vn 0.03331483255856234 0.38247100671042555 0.9233666936583258
vn 0.03331483255856234 0.38247100671042555 0.9233666936583258
vn 0.03331483255856234 0.38247100671042555 0.9233666936583258
vn 0.03331483255856234 0.38247100671042555 0.9233666936583258
vn 0.03331483255856234 0.38247100671042555 0.9233666936583258
vn 0.03331483255856234 0.38247100671042555 0.9233666936583258
vn 0.03331483255856234 0.38247100671042555 0.9233666936583258
vn 0.03331483255856234 0.38247100671042555 0.9233666936583258
vn 0.03331483255856234 0.38247100671042555 0.9233666936583258
vn 0.03331483255856234 0.38247100671042555 0.9233666936583258
vn 0.03331483255856234 0.38247100671042555 0.9233666936583258
vn 0.03331483255856234 0.38247100671042555 0.9233666936583258
vn 0.03331483255856234 0.38247100671042555 0.9233666936583258
vn 0.03331483255856234 0.38247100671042555 0.9233666936583258
vn 0.03331483255856234 0.38247100671042555 0.9233666936583258
vn 0.03331483255856234 0.38247100671042555 0.9233666936583258
vn 0.03331483255856234 0.38247100671042555 0.9233666936583258
vn 0.03331483255856234 0.38247100671042555 0.9233666936583258
vn 0.03331483255856234 0.38247100671042555 0.9233666936583258
vn 0.03331483255856234 0.38247100671042555 0.9233666936583258
vn 0.03331483255856234 0.38247100671042555 0.9233666936583258
vn 0.03331483255856234 0.38247100671042555 0.9233666936583258
vn -0.03331483255856234 -0.38247100671042555 -0.9233666936583258
vn -0.03331483255856234 -0.38247100671042555 -0.9233666936583258
vn -0.03331483255856234 -0.38247100671042555 -0.9233666936583258
vn -0.03331483255856234 -0.38247100671042555 -0.9233666936583258
vn -0.03331483255856234 -0.38247100671042555 -0.9233666936583258
vn -0.03331483255856234 -0.38247100671042555 -0.9233666936583258
vn -0.03331483255856234 -0.38247100671042555 -0.9233666936583258
vn -0.03331483255856234 -0.38247100671042555 -0.9233666936583258
vn -0.03331483255856234 -0.38247100671042555 -0.9233666936583258
vn -0.03331483255856234 -0.38247100671042555 -0.9233666936583258
vn -0.03331483255856234 -0.38247100671042555 -0.9233666936583258
vn -0.03331483255856234 -0.38247100671042555 -0.9233666936583258
vn -0.03331483255856234 -0.38247100671042555 -0.9233666936583258
vn -0.03331483255856234 -0.38247100671042555 -0.9233666936583258
vn -0.03331483255856234 -0.38247100671042555 -0.9233666936583258
vn -0.03331483255856234 -0.38247100671042555 -0.9233666936583258
vn -0.03331483255856234 -0.38247100671042555 -0.9233666936583258
vn -0.03331483255856234 -0.38247100671042555 -0.9233666936583258
vn -0.03331483255856234 -0.38247100671042555 -0.9233666936583258
vn -0.03331483255856234 -0.38247100671042555 -0.9233666936583258
vn -0.03331483255856234 -0.38247100671042555 -0.9233666936583258
vn -0.03331483255856234 -0.38247100671042555 -0.9233666936583258
vn -0.03331483255856234 -0.38247100671042555 -0.9233666936583258
vn -0.03331483255856234 -0.38247100671042555 -0.9233666936583258
vn -0.03331483255856234 -0.38247100671042555 -0.9233666936583258
vn -0.03331483255856234 -0.38247100671042555 -0.9233666936583258
vn -0.03331483255856234 -0.38247100671042555 -0.9233666936583258
vn -0.03331483255856234 -0.38247100671042555 -0.9233666936583258
vn -0.03331483255856234 -0.38247100671042555 -0.9233666936583258
vn -0.03331483255856234 -0.38247100671042555 -0.9233666936583258
vn -0.03331483255856234 -0.38247100671042555 -0.9233666936583258
vn -0.03331483255856234 -0.38247100671042555 -0.9233666936583258
vn -0.03331483255856234 -0.38247100671042555 -0.9233666936583258
f 1/1/1 18/18/18 2/2/2
f 18/18/18 19/19/19 2/2/2
f 2/2/2 19/19/19 3/3/3
f 19/19/19 20/20/20 3/3/3
f 3/3/3 20/20/20 4/4/4
f 20/20/20 21/21/21 4/4/4
f 4/4/4 21/21/21 5/5/5
f 21/21/21 22/22/22 5/5/5
f 5/5/5 22/22/22 6/6/6
f 22/22/22 23/23/23 6/6/6
f 6/6/6 23/23/23 7/7/7
f 23/23/23 24/24/24 7/7/7
f 7/7/7 24/24/24 8/8/8
f 24/24/24 25/25/25 8/8/8
f 8/8/8 25/25/25 9/9/9
f 25/25/25 26/26/26 9/9/9
f 9/9/9 26/26/26 10/10/10
f 26/26/26 27/27/27 10/10/10
f 10/10/10 27/27/27 11/11/11
f 27/27/27 28/28/28 11/11/11
f 11/11/11 28/28/28 12/12/12
f 28/28/28 29/29/29 12/12/12
f 12/12/12 29/29/29 13/13/13
f 29/29/29 30/30/30 13/13/13
f 13/13/13 30/30/30 14/14/14
f 30/30/30 31/31/31 14/14/14
f 14/14/14 31/31/31 15/15/15
f 31/31/31 32/32/32 15/15/15
f 15/15/15 32/32/32 16/16/16
f 32/32/32 33/33/33 16/16/16
f 16/16/16 33/33/33 17/17/17
f 33/33/33 34/34/34 17/17/17
f 51/51/51 52/52/52 35/35/35
f 52/52/52 53/53/53 36/36/36
f 53/53/53 54/54/54 37/37/37
f 54/54/54 55/55/55 38/38/38
f 55/55/55 56/56/56 39/39/39
f 56/56/56 57/57/57 40/40/40
f 57/57/57 58/58/58 41/41/41
f 58/58/58 59/59/59 42/42/42
f 59/59/59 60/60/60 43/43/43
f 60/60/60 61/61/61 44/44/44
f 61/61/61 62/62/62 45/45/45
f 62/62/62 63/63/63 46/46/46
f 63/63/63 64/64/64 47/47/47
f 64/64/64 65/65/65 48/48/48
f 65/65/65 66/66/66 49/49/49
f 66/66/66 67/67/67 50/50/50
f 85/85/85 84/84/84 68/68/68
f 86/86/86 85/85/85 69/69/69
f 87/87/87 86/86/86 70/70/70
f 88/88/88 87/87/87 71/71/71
f 89/89/89 88/88/88 72/72/72
f 90/90/90 89/89/89 73/73/73
f 91/91/91 90/90/90 74/74/74
f 92/92/92 91/91/91 75/75/75
f 93/93/93 92/92/92 76/76/76
f 94/94/94 93/93/93 77/77/77
f 95/95/95 94/94/94 78/78/78
f 96/96/96 95/95/95 79/79/79
f 97/97/97 96/96/96 80/80/80
f 98/98/98 97/97/97 81/81/81
f 99/99/99 98/98/98 82/82/82
f 100/100/100 99/99/99 83/83/83
