o 
v 0.9972410202026367 56.35454559326172 -21.071731567382812
v 1.0739378929138184 56.346336364746094 -21.083555221557617
v 1.1393784284591675 56.3178596496582 -21.1151180267334
v 1.1835999488830566 56.2734489440918 -21.16161346435547
v 1.199869990348816 56.21986770629883 -21.21596336364746
v 1.1857115030288696 56.16526794433594 -21.2698917388916
v 1.143280267715454 56.11796951293945 -21.3151912689209
v 1.0790358781814575 56.08517074584961 -21.34496307373047
v 1.0027589797973633 56.071861267089844 -21.354677200317383
v 0.9260620474815369 56.08007049560547 -21.342851638793945
v 0.8606215119361877 56.10854721069336 -21.311288833618164
v 0.8164000511169434 56.152957916259766 -21.264793395996094
v 0.8001300692558289 56.206539154052734 -21.210445404052734
v 0.8142884373664856 56.261138916015625 -21.15651512145996
v 0.8567196726799011 56.30843734741211 -21.111215591430664
v 0.9209641218185425 56.34123611450195 -21.081443786621094
v 0.9972410202026367 56.35454559326172 -21.071731567382812
v 1.9972410202026367 35.14134216308594 0.14147311449050903
v 2.0739378929138184 35.13313293457031 0.12964829802513123
v 2.139378547668457 35.10465621948242 0.09808575361967087
v 2.1835999488830566 35.060245513916016 0.051590558141469955
v 2.1998698711395264 35.00666427612305 -0.0027587960939854383
v 2.185711622238159 34.952064514160156 -0.05668811872601509
v 2.143280267715454 34.90476608276367 -0.10198716819286346
v 2.079035997390747 34.87196731567383 -0.13175955414772034
v 2.0027589797973633 34.85865783691406 -0.1414727121591568
v 1.9260621070861816 34.86686706542969 -0.12964791059494019
v 1.8606215715408325 34.89534378051758 -0.09808535873889923
v 1.8164000511169434 34.939754486083984 -0.05159016326069832
v 1.800130009651184 34.99333572387695 0.002759190509095788
v 1.8142884969711304 35.047935485839844 0.05668851360678673
v 1.856719732284546 35.09523391723633 0.1019875630736351
v 1.9209641218185425 35.12803268432617 0.13175994157791138
v 1.9972410202026367 35.14134216308594 0.14147311449050903
v 1 56.21320343017578 -21.21320343017578
v 1 56.21320343017578 -21.21320343017578
v 1 56.21320343017578 -21.21320343017578
v 1 56.21320343017578 -21.21320343017578
v 1 56.21320343017578 -21.21320343017578
v 1 56.21320343017578 -21.21320343017578
v 1 56.21320343017578 -21.21320343017578
v 1 56.21320343017578 -21.21320343017578
v 1 56.21320343017578 -21.21320343017578
v 1 56.21320343017578 -21.21320343017578
v 1 56.21320343017578 -21.21320343017578
v 1 56.21320343017578 -21.21320343017578
v 1 56.21320343017578 -21.21320343017578
v 1 56.21320343017578 -21.21320343017578
v 1 56.21320343017578 -21.21320343017578
v 1 56.21320343017578 -21.21320343017578
v 0.9972410202026367 56.35454559326172 -21.071731567382812
v 1.0739378929138184 56.346336364746094 -21.083555221557617
v 1.1393784284591675 56.3178596496582 -21.1151180267334
v 1.1835999488830566 56.2734489440918 -21.16161346435547
v 1.199869990348816 56.21986770629883 -21.21596336364746
v 1.1857115030288696 56.16526794433594 -21.2698917388916
v 1.143280267715454 56.11796951293945 -21.3151912689209
v 1.0790358781814575 56.08517074584961 -21.34496307373047
v 1.0027589797973633 56.071861267089844 -21.354677200317383
v 0.9260620474815369 56.08007049560547 -21.342851638793945
v 0.8606215119361877 56.10854721069336 -21.311288833618164
v 0.8164000511169434 56.152957916259766 -21.264793395996094
v 0.8001300692558289 56.206539154052734 -21.210445404052734
v 0.8142884373664856 56.261138916015625 -21.15651512145996
v 0.8567196726799011 56.30843734741211 -21.111215591430664
v 0.9209641218185425 56.34123611450195 -21.081443786621094
v 0.9972410202026367 56.35454559326172 -21.071731567382812
v 2 35 1.9719058741429762e-7
v 2 35 1.9719058741429762e-7
v 2 35 1.9719058741429762e-7
v 2 35 1.9719058741429762e-7
v 2 35 1.9719058741429762e-7
v 2 35 1.9719058741429762e-7
v 2 35 1.9719058741429762e-7
v 2 35 1.9719058741429762e-7
v 2 35 1.9719058741429762e-7
v 2 35 1.9719058741429762e-7
v 2 35 1.9719058741429762e-7
v 2 35 1.9719058741429762e-7
v 2 35 1.9719058741429762e-7
v 2 35 1.9719058741429762e-7
v 2 35 1.9719058741429762e-7
v 2 35 1.9719058741429762e-7
v 1.9972410202026367 35.14134216308594 0.14147311449050903
v 2.0739378929138184 35.13313293457031 0.12964829802513123
v 2.139378547668457 35.10465621948242 0.09808575361967087
v 2.1835999488830566 35.060245513916016 0.051590558141469955
v 2.1998698711395264 35.00666427612305 -0.0027587960939854383
v 2.185711622238159 34.952064514160156 -0.05668811872601509
v 2.143280267715454 34.90476608276367 -0.10198716819286346
v 2.079035997390747 34.87196731567383 -0.13175955414772034
v 2.0027589797973633 34.85865783691406 -0.1414727121591568
v 1.9260621070861816 34.86686706542969 -0.12964791059494019
v 1.8606215715408325 34.89534378051758 -0.09808535873889923
v 1.8164000511169434 34.939754486083984 -0.05159016326069832
v 1.800130009651184 34.99333572387695 0.002759190509095788
v 1.8142884969711304 35.047935485839844 0.05668851360678673
v 1.856719732284546 35.09523391723633 0.1019875630736351
v 1.9209641218185425 35.12803268432617 0.13175994157791138
v 1.9972410202026367 35.14134216308594 0.14147311449050903
vt 0 1
vt 0.0625 1
vt 0.125 1
vt 0.1875 1
vt 0.25 1
vt 0.3125 1
vt 0.375 1
vt 0.4375 1
vt 0.5 1
vt 0.5625 1
vt 0.625 1
vt 0.6875 1
vt 0.75 1
vt 0.8125 1
vt 0.875 1
vt 0.9375 1
vt 1 1
vt 0 0
vt 0.0625 0
vt 0.125 0
vt 0.1875 0
vt 0.25 0
vt 0.3125 0
vt 0.375 0
vt 0.4375 0
vt 0.5 0
vt 0.5625 0
vt 0.625 0
vt 0.6875 0
vt 0.75 0
vt 0.8125 0
vt 0.875 0
vt 0.9375 0
vt 1 0
vt 0.5 0.5
vt 0.5 0.5
vt 0.5 0.5
vt 0.5 0.5
vt 0.5 0.5
vt 0.5 0.5
vt 0.5 0.5
vt 0.5 0.5
vt 0.5 0.5
vt 0.5 0.5
vt 0.5 0.5
vt 0.5 0.5
vt 0.5 0.5
vt 0.5 0.5
vt 0.5 0.5
vt 0.5 0.5
vt 1 0.5
vt 0.9619397521018982 0.6913416981697083
vt 0.8535534143447876 0.8535534143447876
vt 0.6913416981697083 0.9619397521018982
vt 0.5 1
vt 0.30865827202796936 0.9619397521018982
vt 0.1464466154575348 0.8535534143447876
vt 0.03806023299694061 0.6913416981697083
vt 0 0.5
vt 0.03806023299694061 0.30865827202796936
vt 0.1464466154575348 0.1464466154575348
vt 0.30865827202796936 0.03806023299694061
vt 0.5 0
vt 0.6913416981697083 0.03806023299694061
vt 0.8535534143447876 0.1464466154575348
vt 0.9619397521018982 0.30865827202796936
vt 1 0.5
vt 0.5 0.5
vt 0.5 0.5
vt 0.5 0.5
vt 0.5 0.5
vt 0.5 0.5
vt 0.5 0.5
vt 0.5 0.5
vt 0.5 0.5
vt 0.5 0.5
vt 0.5 0.5
vt 0.5 0.5
vt 0.5 0.5
vt 0.5 0.5
vt 0.5 0.5
vt 0.5 0.5
vt 0.5 0.5
vt 1 0.5
vt 0.9619397521018982 0.30865827202796936
vt 0.8535534143447876 0.1464466154575348
vt 0.6913416981697083 0.03806023299694061
vt 0.5 0
vt 0.30865827202796936 0.03806023299694061
vt 0.1464466154575348 0.1464466154575348
vt 0.03806023299694061 0.30865827202796936
vt 0 0.5
vt 0.03806023299694061 0.6913416981697083
vt 0.1464466154575348 0.8535534143447876
vt 0.30865827202796936 0.9619397521018982
vt 0.5 1
vt 0.6913416981697083 0.9619397521018982
vt 0.8535534143447876 0.8535534143447876
vt 0.9619397521018982 0.6913416981697083
vt 1 0.5
vn -0.013794966155044277 0.7067142782881874 0.7073645649680138
vn 0.369689693743727 0.6656678748576197 0.6482405500446647
vn 0.6968924365590353 0.5232796044726779 0.49042775962391105
vn 0.917999624155131 0.3012267347702277 0.257951825561877
vn 0.9993496990281083 0.03331483107826452 -0.013794965844681399
vn 0.9285578314535651 -0.23966895515827533 -0.28344160876553254
vn 0.7164014525387516 -0.47616532096151665 -0.5099368058043884
vn 0.3951794567095465 -0.6401698093676573 -0.6587987645472061
vn 0.013794966155044277 -0.7067142782881874 -0.7073645649680138
vn -0.369689693743727 -0.6656678748576197 -0.6482405500446647
vn -0.6968924365590353 -0.5232796044726779 -0.49042775962391105
vn -0.917999624155131 -0.3012267347702277 -0.257951825561877
vn -0.9993496990281083 -0.03331483107826452 0.013794965844681399
vn -0.9285578314535651 0.23966895515827533 0.28344160876553254
vn -0.7164014525387516 0.47616532096151665 0.5099368058043884
vn -0.3951794567095465 0.6401698093676573 0.6587987645472061
vn -0.013794966155044277 0.7067142782881874 0.7073645649680138
vn -0.013794966155044277 0.7067142782881874 0.7073645649680138
vn 0.369689693743727 0.6656678748576197 0.6482405500446647
vn 0.6968924365590353 0.5232796044726779 0.49042775962391105
vn 0.917999624155131 0.3012267347702277 0.257951825561877
vn 0.9993496990281083 0.03331483107826452 -0.013794965844681399
vn 0.9285578314535651 -0.23966895515827533 -0.28344160876553254
vn 0.7164014525387516 -0.47616532096151665 -0.5099368058043884
vn 0.3951794567095465 -0.6401698093676573 -0.6587987645472061
vn 0.013794966155044277 -0.7067142782881874 -0.7073645649680138
vn -0.369689693743727 -0.6656678748576197 -0.6482405500446647
vn -0.6968924365590353 -0.5232796044726779 -0.49042775962391105
vn -0.917999624155131 -0.3012267347702277 -0.257951825561877
vn -0.9993496990281083 -0.03331483107826452 0.013794965844681399
vn -0.9285578314535651 0.23966895515827533 0.28344160876553254
vn -0.7164014525387516 0.47616532096151665 0.5099368058043884
vn -0.3951794567095465 0.6401698093676573 0.6587987645472061
vn -0.013794966155044277 0.7067142782881874 0.7073645649680138
vn -0.03331483148976999 0.7067142711176874 -0.7067142711176874
vn -0.03331483148976999 0.7067142711176874 -0.7067142711176874
vn -0.03331483148976999 0.7067142711176874 -0.7067142711176874
vn -0.03331483148976999 0.7067142711176874 -0.7067142711176874
vn -0.03331483148976999 0.7067142711176874 -0.7067142711176874
vn -0.03331483148976999 0.7067142711176874 -0.7067142711176874
vn -0.03331483148976999 0.7067142711176874 -0.7067142711176874
vn -0.03331483148976999 0.7067142711176874 -0.7067142711176874
vn -0.03331483148976999 0.7067142711176874 -0.7067142711176874
vn -0.03331483148976999 0.7067142711176874 -0.7067142711176874
vn -0.03331483148976999 0.7067142711176874 -0.7067142711176874
vn -0.03331483148976999 0.7067142711176874 -0.7067142711176874
vn -0.03331483148976999 0.7067142711176874 -0.7067142711176874
vn -0.03331483148976999 0.7067142711176874 -0.7067142711176874
vn -0.03331483148976999 0.7067142711176874 -0.7067142711176874
vn -0.03331483148976999 0.7067142711176874 -0.7067142711176874
vn -0.03331483148976999 0.7067142711176874 -0.7067142711176874
vn -0.03331483148976999 0.7067142711176874 -0.7067142711176874
vn -0.03331483148976999 0.7067142711176874 -0.7067142711176874
vn -0.03331483148976999 0.7067142711176874 -0.7067142711176874
vn -0.03331483148976999 0.7067142711176874 -0.7067142711176874
vn -0.03331483148976999 0.7067142711176874 -0.7067142711176874
vn -0.03331483148976999 0.7067142711176874 -0.7067142711176874
vn -0.03331483148976999 0.7067142711176874 -0.7067142711176874
vn -0.03331483148976999 0.7067142711176874 -0.7067142711176874
vn -0.03331483148976999 0.7067142711176874 -0.7067142711176874
vn -0.03331483148976999 0.7067142711176874 -0.7067142711176874
vn -0.03331483148976999 0.7067142711176874 -0.7067142711176874
vn -0.03331483148976999 0.7067142711176874 -0.7067142711176874
vn -0.03331483148976999 0.7067142711176874 -0.7067142711176874
vn -0.03331483148976999 0.7067142711176874 -0.7067142711176874
vn -0.03331483148976999 0.7067142711176874 -0.7067142711176874
vn -0.03331483148976999 0.7067142711176874 -0.7067142711176874
vn 0.03331483148976999 -0.7067142711176874 0.7067142711176874
vn 0.03331483148976999 -0.7067142711176874 0.7067142711176874
vn 0.03331483148976999 -0.7067142711176874 0.7067142711176874
vn 0.03331483148976999 -0.7067142711176874 0.7067142711176874
vn 0.03331483148976999 -0.7067142711176874 0.7067142711176874
vn 0.03331483148976999 -0.7067142711176874 0.7067142711176874
vn 0.03331483148976999 -0.7067142711176874 0.7067142711176874
vn 0.03331483148976999 -0.7067142711176874 0.7067142711176874
vn 0.03331483148976999 -0.7067142711176874 0.7067142711176874
vn 0.03331483148976999 -0.7067142711176874 0.7067142711176874
vn 0.03331483148976999 -0.7067142711176874 0.7067142711176874
vn 0.03331483148976999 -0.7067142711176874 0.7067142711176874
vn 0.03331483148976999 -0.7067142711176874 0.7067142711176874
vn 0.03331483148976999 -0.7067142711176874 0.7067142711176874
vn 0.03331483148976999 -0.7067142711176874 0.7067142711176874
vn 0.03331483148976999 -0.7067142711176874 0.7067142711176874
vn 0.03331483148976999 -0.7067142711176874 0.7067142711176874
vn 0.03331483148976999 -0.7067142711176874 0.7067142711176874
vn 0.03331483148976999 -0.7067142711176874 0.7067142711176874
vn 0.03331483148976999 -0.7067142711176874 0.7067142711176874
vn 0.03331483148976999 -0.7067142711176874 0.7067142711176874
vn 0.03331483148976999 -0.7067142711176874 0.7067142711176874
vn 0.03331483148976999 -0.7067142711176874 0.7067142711176874
vn 0.03331483148976999 -0.7067142711176874 0.7067142711176874
vn 0.03331483148976999 -0.7067142711176874 0.7067142711176874
vn 0.03331483148976999 -0.7067142711176874 0.7067142711176874
vn 0.03331483148976999 -0.7067142711176874 0.7067142711176874
vn 0.03331483148976999 -0.7067142711176874 0.7067142711176874
vn 0.03331483148976999 -0.7067142711176874 0.7067142711176874
vn 0.03331483148976999 -0.7067142711176874 0.7067142711176874
vn 0.03331483148976999 -0.7067142711176874 0.7067142711176874
vn 0.03331483148976999 -0.7067142711176874 0.7067142711176874
vn 0.03331483148976999 -0.7067142711176874 0.7067142711176874
f 1/1/1 18/18/18 2/2/2
f 18/18/18 19/19/19 2/2/2
f 2/2/2 19/19/19 3/3/3
f 19/19/19 20/20/20 3/3/3
f 3/3/3 20/20/20 4/4/4
f 20/20/20 21/21/21 4/4/4
f 4/4/4 21/21/21 5/5/5
f 21/21/21 22/22/22 5/5/5
f 5/5/5 22/22/22 6/6/6
f 22/22/22 23/23/23 6/6/6
f 6/6/6 23/23/23 7/7/7
f 23/23/23 24/24/24 7/7/7
f 7/7/7 24/24/24 8/8/8
f 24/24/24 25/25/25 8/8/8
f 8/8/8 25/25/25 9/9/9
f 25/25/25 26/26/26 9/9/9
f 9/9/9 26/26/26 10/10/10
f 26/26/26 27/27/27 10/10/10
f 10/10/10 27/27/27 11/11/11
f 27/27/27 28/28/28 11/11/11
f 11/11/11 28/28/28 12/12/12
f 28/28/28 29/29/29 12/12/12
f 12/12/12 29/29/29 13/13/13
f 29/29/29 30/30/30 13/13/13
f 13/13/13 30/30/30 14/14/14
f 30/30/30 31/31/31 14/14/14
f 14/14/14 31/31/31 15/15/15
f 31/31/31 32/32/32 15/15/15
f 15/15/15 32/32/32 16/16/16
f 32/32/32 33/33/33 16/16/16
f 16/16/16 33/33/33 17/17/17
f 33/33/33 34/34/34 17/17/17
f 51/51/51 52/52/52 35/35/35
f 52/52/52 53/53/53 36/36/36
f 53/53/53 54/54/54 37/37/37
f 54/54/54 55/55/55 38/38/38
f 55/55/55 56/56/56 39/39/39
f 56/56/56 57/57/57 40/40/40
f 57/57/57 58/58/58 41/41/41
f 58/58/58 59/59/59 42/42/42
f 59/59/59 60/60/60 43/43/43
f 60/60/60 61/61/61 44/44/44
f 61/61/61 62/62/62 45/45/45
f 62/62/62 63/63/63 46/46/46
f 63/63/63 64/64/64 47/47/47
f 64/64/64 65/65/65 48/48/48
f 65/65/65 66/66/66 49/49/49
f 66/66/66 67/67/67 50/50/50
f 85/85/85 84/84/84 68/68/68
f 86/86/86 85/85/85 69/69/69
f 87/87/87 86/86/86 70/70/70
f 88/88/88 87/87/87 71/71/71
f 89/89/89 88/88/88 72/72/72
f 90/90/90 89/89/89 73/73/73
f 91/91/91 90/90/90 74/74/74
f 92/92/92 91/91/91 75/75/75
f 93/93/93 92/92/92 76/76/76
f 94/94/94 93/93/93 77/77/77
f 95/95/95 94/94/94 78/78/78
f 96/96/96 95/95/95 79/79/79
f 97/97/97 96/96/96 80/80/80
f 98/98/98 97/97/97 81/81/81
f 99/99/99 98/98/98 82/82/82
f 100/100/100 99/99/99 83/83/83
