# cabin_roof_15
# Vertices: 48
v 0.000000 21.769497 29.091387
v 0.972272 21.769497 28.688658
v 0.000000 22.269497 27.716387
v 0.972272 21.769497 28.688658
v 1.375000 21.769497 27.716387
v 0.000000 22.269497 27.716387
v 1.375000 21.769497 27.716387
v 0.972272 21.769497 26.744114
v 0.000000 22.269497 27.716387
v 0.972272 21.769497 26.744114
v 0.000000 21.769497 26.341387
v 0.000000 22.269497 27.716387
v 0.000000 21.769497 26.341387
v -0.972272 21.769497 26.744114
v 0.000000 22.269497 27.716387
v -0.972272 21.769497 26.744114
v -1.375000 21.769497 27.716387
v 0.000000 22.269497 27.716387
v -1.375000 21.769497 27.716387
v -0.972272 21.769497 28.688658
v 0.000000 22.269497 27.716387
v -0.972272 21.769497 28.688658
v -0.000000 21.769497 29.091387
v 0.000000 22.269497 27.716387
v 0.972272 21.769497 28.688658
v 0.000000 21.769497 29.091387
v 0.000000 21.769497 27.716387
v 1.375000 21.769497 27.716387
v 0.972272 21.769497 28.688658
v 0.000000 21.769497 27.716387
v 0.972272 21.769497 26.744114
v 1.375000 21.769497 27.716387
v 0.000000 21.769497 27.716387
v 0.000000 21.769497 26.341387
v 0.972272 21.769497 26.744114
v 0.000000 21.769497 27.716387
v -0.972272 21.769497 26.744114
v 0.000000 21.769497 26.341387
v 0.000000 21.769497 27.716387
v -1.375000 21.769497 27.716387
v -0.972272 21.769497 26.744114
v 0.000000 21.769497 27.716387
v -0.972272 21.769497 28.688658
v -1.375000 21.769497 27.716387
v 0.000000 21.769497 27.716387
v -0.000000 21.769497 29.091387
v -0.972272 21.769497 28.688658
v 0.000000 21.769497 27.716387
vn 0.000000 0.939793 0.341743
vn 0.241649 0.939793 0.241649
vn 0.241649 0.939793 0.241649
vn 0.241649 0.939793 0.241649
vn 0.341743 0.939793 0.000000
vn 0.341743 0.939793 0.000000
vn 0.341743 0.939793 0.000000
vn 0.241649 0.939793 -0.241649
vn 0.241649 0.939793 -0.241649
vn 0.241649 0.939793 -0.241649
vn 0.000000 0.939793 -0.341743
vn 0.000000 0.939793 -0.341743
vn 0.000000 0.939793 -0.341743
vn -0.241649 0.939793 -0.241649
vn -0.241649 0.939793 -0.241649
vn -0.241649 0.939793 -0.241649
vn -0.341743 0.939793 -0.000000
vn -0.341743 0.939793 -0.000000
vn -0.341743 0.939793 -0.000000
vn -0.241649 0.939793 0.241649
vn -0.241649 0.939793 0.241649
vn -0.241649 0.939793 0.241649
vn -0.000000 0.939793 0.341743
vn -0.000000 0.939793 0.341743
vn 0.000000 -1.000000 0.000000
vn 0.000000 -1.000000 0.000000
vn 0.000000 -1.000000 0.000000
vn 0.000000 -1.000000 0.000000
vn 0.000000 -1.000000 0.000000
vn 0.000000 -1.000000 0.000000
vn 0.000000 -1.000000 0.000000
vn 0.000000 -1.000000 0.000000
vn 0.000000 -1.000000 0.000000
vn 0.000000 -1.000000 0.000000
vn 0.000000 -1.000000 0.000000
vn 0.000000 -1.000000 0.000000
vn 0.000000 -1.000000 0.000000
vn 0.000000 -1.000000 0.000000
vn 0.000000 -1.000000 0.000000
vn 0.000000 -1.000000 0.000000
vn 0.000000 -1.000000 0.000000
vn 0.000000 -1.000000 0.000000
vn 0.000000 -1.000000 0.000000
vn 0.000000 -1.000000 0.000000
vn 0.000000 -1.000000 0.000000
vn 0.000000 -1.000000 0.000000
vn 0.000000 -1.000000 0.000000
vn 0.000000 -1.000000 0.000000
f 1//1 2//2 3//3
f 4//4 5//5 6//6
f 7//7 8//8 9//9
f 10//10 11//11 12//12
f 13//13 14//14 15//15
f 16//16 17//17 18//18
f 19//19 20//20 21//21
f 22//22 23//23 24//24
f 25//25 26//26 27//27
f 28//28 29//29 30//30
f 31//31 32//32 33//33
f 34//34 35//35 36//36
f 37//37 38//38 39//39
f 40//40 41//41 42//42
f 43//43 44//44 45//45
f 46//46 47//47 48//48
